<svg xmlns="http://www.w3.org/2000/svg" viewBox="0 0 618 380"><path fill="#56381F" d="M23.7 357.4c-20.9-29.2-39.2-112.7 8.7-132.1 89.5-29.3 84.4 32.5 198-40.4 52-33.3 71-43.1 132.3-54l4.4-.7c42.4-7.8 44-13.7 78.8-34.9 13-7.9 27.6-13.4 41.1-20.5 27-14.9 44.5-18.7 75.4-15.7q11.6 1.3 23 3.2c-16.6 10.3-42.1 14.4-55.3 28.5-12.2 13 18.3 25.6 27.5 28.6 17.2 5.6 33.1 8.3 50.8 11.6 24.1 4.5-21.2 9.4-24 9.5-25.3 1.2-44.4-.1-69.4-2.6-22.4-1.3-40.6 10.7-62.8 15.4-33.2 7.2-32.3 8.5-59.3 29.3a1020 1020 0 0 1-50.4 35.8c-30 20.1-63 43.7-92.6 65C193 324 136.3 388.1 58.8 376.2a54 54 0 0 1-35-19"/><path fill="#714A26" d="M120.7 234.4c-27 4.5-72.6-5.1-90.4 10C10.7 261 22.7 282.5 49 285c51.4 2.7 96.1-18.3 144.1-33.3 26.2-9 50.7-32.2 76.1-47.4 37-22.1 69.2-24.4 105.9-46.3a186 186 0 0 1 59.2-23.8c8.3-2.2 16.2-4.8 24.4-7 11.6-3 10.6-1.3 21.2-7.7 13.8-8.3 13.8-7.2 28.6-4.2 10.1 1.8 10.5-1.5 3.7-7.7-9.9-9-10-12.6-.4-22.2C518 79 521 77.3 529.4 74c9-3.7.6-6.4-6.2-5.7-11.5 1-24 7-33.7 13-10 6-9.3 12.6-21.4 18.5l-1 .4c-6.9 3.3-10.5 5-17 9l-4.6 2.6c-24.9 11.6-64.9 23.5-92 31.8-54.6 16.6-63.3 7.5-113 44-26.9 19.7-33.2 21.4-64 32-19 6.9-36 11.3-55.8 14.8"/><path fill="#3B281B" d="M23.7 357.4c-10-14-19.4-40.5-21.3-66.4l.3 1c17.6 54.3 48 34.6 86.3 17.7 77.6-34.4 84.8.3 158.3-67.9 36.5-35.5 43.3-36.1 89.8-52.3 34.3-12 48.7-26.2 78.6-40.4a322 322 0 0 1 37.3-14.3c52.6-15.9 94-4.4 138.6 5l-7.3.7c-25.2 1.2-44.3-.1-69.3-2.6-22.4-1.3-40.6 10.7-62.8 15.4-33.2 7.2-32.3 8.5-59.3 29.3a1020 1020 0 0 1-50.4 35.8c-30 20.1-63 43.7-92.6 65C193 324 136.3 388.1 58.8 376.2a54 54 0 0 1-35-19"/><path fill="#8CA43D" d="M274.5 131.4c-36.7 16.2-72.3 33.7-99.6 64-14.5 16.3-23.4 27-24.8 49.7-.5 13.5 7.3 33.6 19.2 40.6 27.2 16 64.6-14.6 43.3-42.3-7.7-10.2-18.5-14.3-28.4-5.1-13.7 12.8 15.2 27.3 5.2 23.2-17.2-7-17.4-29 4.5-32a25 25 0 0 1 23.1 9c17 19.3 7 51.8-14.5 60.2-28.7 11-50.6.5-66.2-21-19.7-26.8-15.1-62-9.4-93.2 2.8-14.4 8-31.5 11.9-46 19-68.2 39.2-95.3 107-120.4 39.8-14.8 69-6.7 93.3 19.4q-1-14.1-2.5-28.4c-1-12.1 5.6-3.7 11.6-1.6 17.6 4.1 19.3 3.7 35.6 12.8 8.5 4.8 14.6 6.3 22.8 10.2 22.3 12.4 9.7 27 14.3 44.3 3.8 14.5 4.3 17.6-9.1 27.7-15.4 11.5-30 20.5-49.6 11a39 39 0 0 1-10.2-7c-19 14.3-56.7 17.4-77.5 24.9"/><path fill="#7B913C" d="M274.5 131.4c-36.7 16.2-72.3 33.7-99.6 64-14.5 16.3-23.4 27-24.8 49.7-.5 13.5 7.3 33.6 19.2 40.6 27.2 16 64.6-14.6 43.3-42.3-7.7-10.2-18.5-14.3-28.4-5.1-13.7 12.8 15.2 27.3 5.2 23.2-17.2-7-17.4-29 4.5-32a25 25 0 0 1 23.1 9q4.7 5.4 6.7 11.8l-5.3 5.1c5.6 19.5-3.4 38.5-33 40-34.8 2-43.6-21.3-47.6-48.4a81 81 0 0 1 13.9-60c16.3-23.6 37.6-46.6 63.7-59.3C265 103.6 340 113.4 345.6 74.4c1.8 16.2 6.9 30.6 20.1 40.7l-3.5-1.5a39 39 0 0 1-10.2-7.2c-19 14.4-56.7 17.5-77.5 25"/><path fill="#4C592C" d="m411.8 102.5-7.3 5.2c-12.2-9.4-25-16.7-42.4-7.6 14-13 31.8-5.9 49.7 2.4"/><path fill="#9FB83B" d="M384.4 36.8a17.2 17.2 0 1 1 9.1 33 17.2 17.2 0 0 1-9.1-33"/><path fill="#C9DA62" d="M385.2 39.8a14 14 0 1 1 7.5 27 14 14 0 0 1-7.5-27"/><path fill="#50592C" d="M385 44.3a6.4 6.4 0 1 1 3.4 12.4 6.4 6.4 0 0 1-3.4-12.4"/><path fill="#F2F5D6" d="M388.7 42.6a3 3 0 1 1 1.6 5.8 3 3 0 0 1-1.6-5.8"/><path fill="#9FB83B" d="M316 141c6.6 5 6.9 3.9 14.4 5.6 8.8 2 8.6 8.2 19.8 6.3 4.3-.7 7.4-1.6 11.8-1.5 2.4.1 12.8 1.5 13 4.4.2 2.1-7.3 1.9-9.2 2.2-6 1-9 5.6-5.2 11 1.4 2 6.9 8 1.2 8.3s-12-4.6-9.5 7c.6 2.4 3.3 11.5-2 10.4-4.3-.8-13-11.2-15.4-14.8-3-4.6-6.5-13-11.1-15.4-2.3-1.2-5.6-2-8.2-3.3-21.6-10-44.5-24.2-40.3-51.6 3-13.3 12.5-32 24.4-39 17.3-10.2 49.5 22.2 24.2 40.8-12.9 9.5-26.8 13.4-7.9 29.5M222 181c14.2-9.5 21-5.4 31.2 7.2 7.5 9.4 12.3 14 11 26.6-.7 5.6-2.4 21.3 3.8 24.2 4.4-4.3 2.2-22.1 19-13.1 5.6 3 8 4 7.3-4.2-.8-11.5-5-15.4 11-12 10.3 2.4 6.7-4.8.8-9.2-12.6-9.2-19.6-4.6-32.1-20.3-10.8-14.7-15-20.4-32.1-28.8-18.6-8.8-47-14-67-6.8-17.1 6.2-18.8 24.5-12.2 39.2 12.4 27.2 42.4 8.4 59.3-2.8m-70-72a78 78 0 0 0-10.5 34.4c.4 15 13.7 3.7 18.5-2.5 9.3-12.4 13.6-23.3 21.5-35.2a155 155 0 0 1 50.6-42.2c25.8-14.2 44.4-12.2 71.5-18.4 27.2-6.4 3.8-25.4-11.7-27.4-34-3.8-85 15.8-108.1 41.8A244 244 0 0 0 152 109"/></svg>