<svg xmlns="http://www.w3.org/2000/svg" xmlns:xlink="http://www.w3.org/1999/xlink" viewBox="0 0 1600 1600"><defs><clipPath id="a" clipPathUnits="userSpaceOnUse"><path d="M0 1200h1200V0H0Z"/></clipPath><path id="b" d="M0 0q4.8-63-10.6-111.6C13-85.6 27.4-52 26.4-6L4.6 7.4z"/></defs><g clip-path="url(#a)" transform="matrix(1.33333 0 0 -1.33333 0 1600)"><path d="M0 0c45.8 6.3 63.7-16.8 81.4-39.6C100-63.4 118-86.6 179.6-61a42 42 0 0 0 20 23.4C226.9-23 256-48.9 280.6-63L226-49.3c-6.6 1.7-13.3.7-18.9-2.3-9.5-5-17.3-20-14-31.2a18 18 0 0 1 18.8-12.8l50.6 4c-16.9-6.7-47.2-24.4-64.5-17.6a35 35 0 0 0-21.3 29.9c-65.5-24.2-86.4 2.6-107.7 30C29 2 16.4-4 0 0" style="fill:#900;fill-opacity:1;fill-rule:evenodd;stroke:none" transform="translate(857.4 581.3)"/><use xlink:href="#b" style="fill:#fff07f;fill-opacity:1;fill-rule:evenodd;stroke:none" transform="translate(976.1 659.6)"/><path d="M0 0c18.3 11.6-31.3 15.7-29.8 42.7.7 12.9 18.1 28.5-.1 47.7-12.8 47.9-53.2-1-69.4-6.7 5-19.4 9-13.6 14-33 12.6-15.6 1.3-21.8 14-37.4 8.2-1.7 40.5-13 48.8-14.7z" style="fill:#323b00;fill-opacity:1;fill-rule:evenodd;stroke:none" transform="translate(875 537.8)"/><use xlink:href="#b" style="fill:#fff07f;fill-opacity:1;fill-rule:evenodd;stroke:none" transform="translate(915.8 605.4)"/><path d="M0 0c-429.5-35.1 159.2-280.4-76-637.2l9 132.1-50.3 116L-354-139l-69.2 221.1L-274 220.3l226.4-48.2z" style="fill:#fc0;fill-opacity:1;fill-rule:evenodd;stroke:none" transform="translate(519.9 791.7)"/><path d="m0 0-77.3 63.4a419 419 0 0 0 145.5 75.8c91.3 27 170.6 13.9 217.8-36.2s49-123 4.8-200l-71.2-124.2L114.4-245 21-138.7z" style="fill:#82970a;fill-opacity:1;fill-rule:evenodd;stroke:none" transform="translate(525.9 919.7)"/><path d="M0 0c-3 54 15.5 113.6-8.8 161.9C-92 327.3-379.6 478.3-375.5 663.5c4.4 202.7 270.5 272.3 414 172.5 53.4-37.2 74-97.1 96.3-154.3a185.5 185.5 0 0 1 228.9-109.8c81.7 25.7 160.5 3.5 166.3-34 54.2-9.7 71.2-44.7 70.8-65.5-61.1-91.8-148.5 18-238.7-9-4.1-37.4-17.2-76.5 69-80.1-91.8-16.7-111.3 34.1-108.4 76C43.8 484.3 84 719 7 777.7c-129 98.5-342.1 35.2-317.3-128C-284.6 480.1-47.9 330.7 17 172 38.8 118.8 5.7 57.4 0 0" style="fill:#a7bf1c;fill-opacity:1;fill-rule:evenodd;stroke:none" transform="translate(444 154.5)"/><path d="M0 0c-27.7-17.4-49.2 7.2-73.8 10.9C-59-.5-51.3-19.8-29.6-23.1-11.9-25.8 1.1-14.4 0 0" style="fill:#323b00;fill-opacity:1;fill-rule:evenodd;stroke:none" transform="translate(952.3 673.7)"/><path d="M0 0c-2.2 7.6-.7 13 3.1 17.3Q8.2 6.4 0 0" style="fill:#fff07f;fill-opacity:1;fill-rule:evenodd;stroke:none" transform="translate(930.3 650.3)"/><path d="M0 0c-56.5 74.6-128 115.8-208.3 136.8C-106.7 127.1-37.6 81.2 0 0m-50.8-59.8C-102-14-153.2-14.2-204.4-51.9c49.8 21.7 100.8 21 153.6-7.9m33-79.3c-35.6 14-63.6-8.4-82.7-61.4 21.2 33.8 46.5 59 82.6 61.4m52.5-98.3c-36.4 14.2-57-6.2-63.6-45.8 13.6 29.1 33.6 46.5 63.6 45.8M88-338.2c-20 10.8-35.9.6-49.2-22.9C54.6-347.6 70.6-336 88-338m-6-112.8c6.7 6.7 13.2 7.4 19.5 4.5-6 .3-12.6-1.5-19.5-4.5M39 25.6c6 113.2-35.5 121.7-68.7 148.6A199 199 0 0 0 39.1 25.7" style="fill:#9c6500;fill-opacity:1;fill-rule:evenodd;stroke:none" transform="translate(390.6 774.2)"/></g></svg>