<svg xmlns="http://www.w3.org/2000/svg" xml:space="preserve" viewBox="0 0 500 500"><path fill="#D26A28" d="M294.5 260c5.5 4 4 40 5.5 51q4 22.5 4 45c0 26-2.7 50-5.4 76-1.4 6-11 33-4.1 37 13.7 9 12.3-25 13.7-30 2.7-26 6.9-50 13.7-75 4.1-17-6.4-35.5-5-51.5 1.4-17 16-34.5 16-52.5"/><path d="M292.7 261.8c1.8 1.5 2 5 2.4 7.2q1 7.3 1.2 14.5c.4 8.7.3 17.5 1 26.2.6 7 2.2 13.9 3 20.9q1.2 12.7 1.3 25.4-.2 23.7-2.6 47.4c-1.1 12-1.7 24.2-5 36-2.4 7.9-5.3 16.9-4.3 25.3.6 5.3 6 10 11.5 7.8 5.7-2.3 6.9-10.4 7.7-15.7 1.6-10.9 2.1-22 3.6-32.8q2-15.3 5-30.3c2-10.3 5-20.4 7.2-30.6 3.8-18-7.6-35-5-52.9 2.5-17.6 15.3-32 15.7-50.2 0-3.2-5-3.2-5 0-.3 13.8-8 26-12.7 38.6a60 60 0 0 0-.4 36.6 97 97 0 0 1 3 20.7c.1 8-3.1 16.1-5 23.8a463 463 0 0 0-10.6 70.1c-.4 4.2-.5 16.8-5.8 18.2-8 2.2-2.8-17.4-2.1-20q1.4-6 3.2-11.7c1.5-5.2 1.7-10.5 2.3-15.9 3.8-36 6.6-72.1.4-108.1-1.7-10.2-1-21-1.5-31.2q-.4-7.2-1.5-14.3c-.4-2.9-1.1-6.6-3.5-8.6s-6 1.5-3.5 3.6"/><path fill="#D26A28" d="M152.3 205.4c6.7-3.3-1.7-10.4-6.8-9.9-7.3 1.2-10.6 8.9-12.8 14.4-4.4 15 1.8 30.8-2 46.3 9.5-6.1 16.2-19.4 22.3-28.2 5.5-8.9 10-24.9-2.4-31.4"/><path d="M153.6 207.6c5-3 4.4-8.5-.2-11.8-6-4.4-12.4-2.8-17.2 2.5-14 15.6-3.8 38.9-8 57.2-.4 2 1.8 4.2 3.8 2.8a57 57 0 0 0 14.5-15.8c4-5.7 8.2-11.7 11.2-18 4.8-10.5 5.2-23.7-5.9-30-2.8-1.7-5.3 2.6-2.5 4.3 10.2 5.8 6.9 18.6 2 27-5.5 9.9-12.4 21.8-21.9 28.2l3.7 2.9c2.9-12.7-.1-25.5.6-38.3.3-6 2.3-12 6-16.8 1.7-2 4-3.7 6.7-3.8 1.8 0 8 3.2 4.6 5.2-2.7 1.7-.2 6 2.6 4.4"/><path fill="#D26A28" d="M376 101c-6-28-47-10-56-34 5 11 10 25 16 36 3 4 9 12 15 13 9 2 13-7 20-12"/><path d="M378.4 100.3c-2.9-12.2-12.7-17.2-24.3-19.5-11-2.1-26.7-2.1-31.7-14.5l-4.6 2c6.9 15.1 11.3 32.6 23.3 44.6 4.5 4.4 10.3 7 16.5 5.2 6-1.9 9.8-8.3 14.7-12 2.5-1.9 0-6.2-2.6-4.3-4.2 3.3-7.5 7.8-12 10.7-6.6 4.3-13-2.8-17-7.4-4.5-5.5-7.1-12.4-9.9-19l-8.6-20.4c-1.2-2.5-5.7-.7-4.6 2 4.6 11.3 15.3 14.6 26.5 16.5 12.1 2 26.2 3.3 29.5 17.5.7 3.1 5.5 1.8 4.8-1.4"/><path fill="#D26A28" d="M414 117c-10-12 38-32 47-37 1 10-6 31-13 37-9 9-30 11-35-2"/><path d="M416.2 115.7c-8-10.3 39.2-29.8 46-33.5l-3.7-2.2a46 46 0 0 1-3 18c-1.9 6-4.5 12.9-9.3 17.2-8 7.4-25.8 10.8-31-1.5-1.3-3-5.6-.4-4.4 2.6 6 14 25.6 12.2 36.1 4.9a36 36 0 0 0 11.6-16.8 56 56 0 0 0 5-24.4c-.1-1.9-2-3.1-3.8-2.2-11 6-22.6 10.9-33.3 17.6-6.2 3.9-21.6 13.7-14.6 22.9 2 2.5 6.3 0 4.4-2.6"/><path fill="#D26A28" d="M349 186c-33-16-74-21-110-26-21-3-55-5-74 7-12 8-20 22-26 35-8 13-4 26 2 39 6 14 12 29 21 40 10 15 23 13 38 11 40-6 78-14 117-19 27-3 38-18 47-42 6-14 17-21 25-34 10-16 4-29-16-21-8 3-17 16-27 7"/><path d="M350.3 183.8c-25.4-12-53.2-17.7-80.8-22-24.2-3.7-48.8-8-73.4-6a75 75 0 0 0-31.3 8.4c-10.7 6-18.1 17.6-23.8 28.1-3 5.6-6.3 11.4-8 17.5a37 37 0 0 0 1 20c1.8 6.5 4.9 12.6 7.5 18.7q4.4 10.3 9.4 20.1c5.3 10 12.2 21 22.9 25.4 10 4.1 22.5 1.1 32.7-.5 31.4-4.8 62.7-11 94.2-15.7 12.3-1.9 25-2.4 36.4-7.7a49 49 0 0 0 19.7-18.3c6.3-9.7 9-21.1 15.8-30.5 7.4-10 17-18 21.9-29.6 3.5-8.3 1.7-19.6-9-20.5a30 30 0 0 0-17.7 4.7c-6 3.8-12.8 11.2-20 5.3-2.5-2-6 1.5-3.6 3.6 9 7.3 17 1.7 25.1-3.9 6.6-4.6 22.6-9.2 21.9 3.7-.3 5.6-4 10.9-7.1 15.3-4 5.7-9.1 10.6-13.6 16-7.5 9.2-10.5 20.2-16.2 30.4a46 46 0 0 1-20.8 20 55 55 0 0 1-16.5 4.2q-11.7 1.5-23.2 3.3c-31.8 4.9-63.3 11.6-95.2 15.9-11.7 1.5-23.2 2.7-32-6.7-9.5-10.3-15.3-24.2-20.8-37-3-6.9-6.1-13.6-8-21-2.2-9.2.8-16.3 4.7-24.5 5.7-12 13.2-24.9 24.8-32 10.2-6.2 23-7.6 34.7-8.2q17.7-.6 35.2 2c27.9 3.7 56 7.4 83 15.4q14.3 4.1 27.5 10.5c3 1.3 5.5-3 2.6-4.4"/><path fill="#D26A28" d="M177 252c-15 13-31 27-44 42-15 16-9 32-4 51 7 31 17 59 29 88 3 8 10 34 18 37 7 4 14-2 14-8 0-5-9-15-12-20-16-23-29-47-34-76-2-12-3-24-4-37-2-16 5-17 18-24 18-8 36-18 51-30"/><path d="M175.2 250.2a591 591 0 0 0-34 31.3c-8.6 8.7-18.4 18-19.9 30.8-1.4 12.1 3 23.6 5.7 35.2q5.3 22.7 12.8 44.7c4.8 14.2 10.8 28 16 42 3.1 8.6 5.6 17.2 9.3 25.5 3 6.6 8.6 15.9 17.4 14q7-1.8 9.5-8.5c1.6-4.1-.8-8.4-3-11.8-3.8-6.3-8.5-12-12.6-18.2a246 246 0 0 1-15.2-25.7 172 172 0 0 1-17-61.6l-1.4-15c-.3-4.3-1.1-8.7-.2-13 1.4-6.3 9.2-8.9 14.2-11.5 18.8-9.6 37.3-18.4 54-31.6 2.5-2-1-5.5-3.6-3.6a223 223 0 0 1-39 24.3q-8.7 4-17.3 8.3a33 33 0 0 0-10.1 7c-2.4 2.7-3.2 6-3.6 9.5-.7 7 1 14.9 1.6 21.9 1.3 14.4 3.4 28.7 7.7 42.5 7.8 24.8 22.1 46 36.8 67.1 3.4 4.8 7.2 11.6-.8 14.7-5.6 2.2-9.5-4.4-11.6-8.2-4.5-8.4-7-17.7-10-26.7-5.6-16.1-12.7-31.7-18-48-5.6-17-9.8-34.4-14.3-51.7-1.7-6.7-3-13.4-2.5-20.2.7-9 6.5-15.6 12.3-22 12.4-13.7 26.4-25.8 40.4-38 2.4-2-1.1-5.6-3.6-3.5"/><path fill="#D26A28" d="M140 225c18 27-11 54-30 71-11 11-23 16-27 32-3 15-3 31-4 47 0 15 0 31-1 45 0 10-6 33-3 41 2 7 12 10 16 3 2-4-2-15-2-20-1-14-1-29 0-43 1-16 1-33 2-49 0-7 0-17 3-23 4-10 13-10 21-14 27-11 61-30 80-53"/><path d="M137.8 226.3c15.5 24.2-7.7 47.8-24.6 63.5-8.4 7.7-18.4 14.6-25.6 23.5-8.4 10.2-9 24.2-9.8 36.9-2 27.8.3 56.1-3.9 83.7-1.2 8.6-4.1 19.2-1.3 27.8 2.6 8 12.1 11.5 18.7 6 5.8-4.9 1.4-15.5.4-21.4-2-12.2-1.2-25.7-.6-38q.9-19.6 1.6-39.4c.2-6 .8-12.2.8-18.2 0-5.8.1-11.6 1.5-17.3 2.7-10.8 13-12.8 22-16.5q14.4-6 28.3-13.5c19-10.3 37.5-23 51.5-39.6 2-2.5-1.5-6-3.6-3.6-17 20.4-40.8 34.7-64.6 46-5.2 2.6-10.7 4.7-16 7.2-4.8 2.3-10 3.2-14.4 6.3-9.3 6.3-9.6 19.6-9.7 29.6-.3 31-4 61.9-2.1 92.9q.7 7.1 2.2 14.1c.5 2.7 1.1 5.6-.8 7.8-2.5 2.8-6.7 1-8.8-1-3.2-3-2.4-9-2.2-12.8.4-6 1.5-11.8 2.4-17.6 3-19.8 1.2-39.7 2.4-59.6.7-12 1-24 2.4-36a40 40 0 0 1 14.7-28c22.4-19.5 65.2-51.4 43.5-85.4-1.8-2.7-6.1-.2-4.4 2.6"/><path fill="#828181" d="M76 462.5c5.5-1 11-1.5 14 3.5 3 4.5 5.5 11-1 13-3.5 1-14.5 0-17-2.5s0-13.5 4.5-14"/><path d="M76.7 465q3.7-1 7.5-.4c2.8.5 4.1 3.2 5.3 5.6.7 1.4 1.8 3.9.6 5.3-1.2 1.6-4 1.4-5.7 1.4-1.9 0-9.8 0-10.7-2.3-1-2.5.5-9 3.5-9.7 3.1-.6 1.8-5.5-1.4-4.8-6 1.2-7.9 10.1-7 15.3 1 6.3 11.7 6.5 16.4 6.5 7.4 0 12.1-4.8 9.5-12.1a16 16 0 0 0-7-9.2c-3.6-2-8.4-1.2-12.4-.5-3.1.5-1.8 5.4 1.4 4.8"/><path fill="#828181" d="M174.5 467a41 41 0 0 1 16-6c5 1 9 16 4 19-4 2.5-13 1.5-17 1s-5.5-.5-5-5c.5-3 3.5-8.5 5-11"/><path d="M176.3 468.8c2.5-2.8 8.6-4.1 12-5 4.9-1.3 6 7.7 6 11-.1 6.3-11 4.3-15 3.9-3-.3-5 .4-4.2-3 .8-3.3 2.8-6.5 4.6-9.4 1.6-2.8-2.7-5.3-4.4-2.6-2.8 5-10.3 17.6-.4 19.5 6.3 1.1 20.8 3.5 23.7-4.6 2-5.6-.1-17.8-6.9-19.8-3.2-1-7 .8-10 1.9-2.8 1-6.9 2.2-9 4.5-2.1 2.4 1.4 6 3.6 3.6"/><path fill="#828181" d="M331.5 470c6 0 11.5-1.5 15.5 4.5 1 1.5 3.5 7 2 9.5-1.5 2-6 1-8 1.5-4 .5-10 2.5-13.5.5-6-4-.5-16.5 7.5-14"/><path d="M331.5 472.5c5 0 10.6-1.3 13.6 3.8 1 1.7 2.1 4.3 1.8 6.3 0 .4-5.2.3-5.8.4-3.3.5-11.9 3.5-13.4-.7-1.5-4 2.6-8.9 6.6-7.9 3.2.8 4.5-4 1.4-4.8-6.6-1.6-12.6 3.5-13.2 10.2-.2 3 .7 6 3.2 8 3.5 2.7 8.7 1.4 12.7.7 3.7-.7 7.8-.1 11.3-1.8 3.2-1.5 2.3-6.3 1.5-9q-1.7-5.6-6.4-8.7c-3.8-2.5-9-1.6-13.3-1.5-3.2 0-3.2 5 0 5"/><path fill="#828181" d="M293.5 467.5c0-2.5 3-2.5 5-2 4.5 1 3 1 4.5 4 1 1.5 4.5 6 4.5 7-.5 4-3 1.5-6.5 1.5-2.5 0-8.5 3-11-.5s3.5-11.5 7.5-12"/><path d="M296 468.2c.2-1.8 4.4 1.4 3.8-.2q.6 2 1.7 3.6l3 4.4c.3.4.4 1 .4.7q1.1-.6-.1-.6l-1.5-.3c-3.4-.8-7.8 2-10.9.6-3-1.4 4-8.1 5.8-8.5 3.1-.6 1.8-5.5-1.4-4.8-5.5 1.1-11.4 8.9-9.5 14.6 1.2 3.5 5.2 4.3 8.4 3.8 1.8-.2 3.5-.9 5.3-1 1.6-.1 3.3.7 4.9.8 3 0 4.8-3.7 3.8-6.1-1.3-3-4-5.1-5-8.1-1.7-5-12.7-6.6-13.6-.3-.5 3.2 4.4 4.5 4.8 1.4"/><path fill="#D26A28" d="M314 258c-14.8 16 4.2 56 9.4 73 4.3 13 8.7 25 12.1 38 3.5 12 1.8 24 3.5 37 1.7 12 3.5 25 4.3 37 0 6-.5 13 .9 19 2.8 12.5-6 16-13.9 13-3.4-2-6-28-6-35-.9-13-.9-25-1.7-38-1-14-1-28-6.1-41-6-13-12.1-27-18.2-40-3.4-6-6.9-14-10.3-20-3.5-4-13.9-11-13-18 0-5 10.4-14 13-18 3.4-7 6-14 11.2-20"/><path d="M312.1 256.2c-12.5 14.5-4 38.4 1.4 54.1l10 28.7c5 14.8 11 29.8 11.8 45.5.4 7.2.3 14.3 1.2 21.5l3.1 24.1q1.1 10.8 1.1 21.5 0 4.8.7 9.4c.6 3.6 1.8 7.5-.9 10.6-2 2.5-8.3 3-9.5-.3q-1.9-6.1-2.6-12.6c-1.4-10-1.8-20.1-2.2-30.2-.8-18.6-.5-37.7-3.8-56-1.6-9-5.6-16.7-9.3-24.9l-12.6-27.9-5.2-10c-1.6-3.2-3-7.8-5.6-10.5-4.1-4.5-12.5-9.3-12.2-16.2.1-3 3.4-6 5.2-8l6.1-7c2.2-2.6 3.4-6 4.9-9.2q2.9-6.5 7.3-12c2-2.5-1.5-6-3.6-3.6a73 73 0 0 0-9.5 16c-2.4 5.3-5.8 8.8-9.6 13.1-2.3 2.8-5.4 6.2-5.7 10-.5 4.8 2 8.6 5 12.1 3.7 4.2 7.8 7 10.4 12q5.2 9.5 9.8 19.3l9.4 21c3.5 7.7 7.5 15.3 9.6 23.6 3.8 15 3.4 31.6 4 47 .4 11.3.6 22.7 1.8 34 .7 7.8 1.2 16.6 4.6 23.7 3 6.2 14 3.6 17.5-.5 5-6.1 1.1-16 1-22.9A299 299 0 0 0 343 417a372 372 0 0 1-2.7-32.5c-.5-11.3-3.8-21.8-7.2-32.5-5.2-16-11.2-31.8-16.4-47.9-4-12.5-11-32.9-1-44.3 2-2.5-1.4-6-3.6-3.6"/><path fill="#D794C1" d="M368 110.5c9-21.5-24-16-33.5-26 5 6.5 10 13 14 19.5 3 5 17 15.5 20.5 6.5"/><path d="M370.4 111.2c3.6-9 .3-15.7-8.4-19.3-8-3.4-19.3-2.8-25.7-9.2-2-1.9-5.7.8-4 3q7 8.8 13.1 18a32 32 0 0 0 7.7 8.4c5.2 4 14.4 7.4 18-.3 1.4-3-2.9-5.5-4.3-2.6-2.8 6.1-11.8-1.7-14.5-4.5-2.7-2.6-4.5-6.4-6.6-9.5l-9-12-4 3c5.6 5.5 14.2 6.6 21.4 8.4 3.6 1 7.7 2 10.7 4.5 3.4 2.8 2.2 7.2.8 10.7-1.2 3 3.6 4.3 4.8 1.4"/><path fill="#D794C1" d="M414 119.5c1-9 10-10 17-11.5 8-1 16-5 19-13-3 7-4.5 16-11 20.5-7 5-14.5 5.5-22.5 2.5"/><path d="M416.4 120.2c1.4-8.6 11.2-9 18-10.3a24 24 0 0 0 17.8-13.6l-4.6-2c-2.5 6-3.8 12.8-8.3 17.7-5.7 6.2-14.8 6.1-22.1 3.6-3-1-4.4 3.8-1.4 4.8 9 3.1 18 2.3 25.6-3.6 6.5-5 8-14 11-21.1 1-2.7-3.5-4.6-4.6-2-4.2 10-13.6 11-23 13-6.5 1.6-12 5-13.2 12.1-.5 3.2 4.3 4.5 4.8 1.4"/><path fill="#D26A28" d="M412.4 114c-15.8-8-40.4-23-51.9 1a89 89 0 0 0-8.8 34c-.8 10-5.4 29 0 38 9.6 19 41.3-2 50-12 8-8 15.1-24 16-35s2.7-23.9-7-26.9"/><path d="M413.7 111.8c-14.5-7.3-35-19.8-49.7-6.3-9 8.4-12.3 24-14 35.7-1.5 11.1-3.5 22.9-3.4 34.2 0 8 2.9 17.4 11 20.5 8 3 16.6.1 23.8-3.3a68 68 0 0 0 39.5-67.2c-.4-6.6-3-12.3-9.5-14.7-3-1-4.3 3.7-1.3 4.8 5.2 2 5.7 7.6 5.8 12.4a62 62 0 0 1-17 46.4 69 69 0 0 1-20 14c-7.1 3.5-18.4 7-24-.7-6.1-8.3-3-21.7-1.6-31 1.9-13.4 2.7-26.4 8.6-38.8 4.8-10.1 12.2-14.9 23.4-12.7 9.2 1.9 17.6 6.9 25.9 11 2.8 1.5 5.4-2.8 2.5-4.3"/><path fill="#151515" d="M363.7 166.4c4.5 2.5 22.3 4.1 9.8 10.6-4.5 2.5-11 5.5-14 0-2-4 0-14 7-9.5"/><path fill="#161516" d="M362.4 168.5c2.8 1.5 6 2 9 3q2 .6 3.9 1.7c.6.4 0 .2 0-.4 0 .4-1.4 1-1.7 1.3-2.8 1.7-10.6 6.4-12.1 1q-.6-2.3.3-4.7c.6-2 2-1.6 3.4-.7 2.8 1.6 5.3-2.7 2.6-4.4-6.4-3.7-11 1-11.5 7.5-.2 3 .8 6.2 3.3 8.1 3.1 2.5 7.3 1.8 10.7.4 3.9-1.5 14-6.3 8.6-11.6-3.6-3.6-9.7-3.2-14-5.5-2.8-1.5-5.4 2.8-2.5 4.3"/><path d="M381 137c1-4.8-.1-8.8-4.2-11.8-3.4-2.6-8.5-5-12.8-3.3-3 1.2-1.7 6 1.3 4.8 2.6-1 5.3.4 7.5 1.7q4.2 2.4 3.5 7.3c-.6 3.1 4.2 4.5 4.8 1.3"/><path d="M377 135.2c-2.1 1.3-6.6 1.8-8.7 0-1.4-1.3 1-3.2 2-3.7 2.3-1.3 3 3 3.6 4.5 1.2 3 6 1.7 4.8-1.3-1.4-3.7-2.8-9-7.8-8.5-4.2.4-8.2 4.3-7.9 8.7.6 7.5 11.7 7.5 16.6 4.6 2.8-1.6.3-6-2.5-4.3"/><path d="M370.3 129.8q-2.6-.2-4.2 1.9a4 4 0 0 0-.2 3.9 6 6 0 0 0 2.6 3q2.6 1.4 5-.5c1.4-1.2 1.5-3.3 1-5q-.5-1.5-1.7-2.4c-1.2-.7-3-.4-3.9.5-2 2-1.4 6 1.6 6.4 1.4.2 3-.1 4-1.2 1.4-1.5.5-4.3-1.5-4.8-1.3-.3-2.7.4-3 1.7-.4 1.3.3 2.8 1.7 3.1h.1l-1-.6v.1l-.6-1.1v-.1l1.2-2.2s-.7.4-.2.2h.1q.4 0 .7.2.6.4.7 1.2l-.1.6.2-.4-.9.9.1-.1-.8.2-1-.3-.2-.2-.3-.3q.2.4 0-.2v.4c.1.2.1.7 0-.1v.4c0 .6.2-.6 0 0 0 .3.4-.6.4-.7 0 .2-.5.4.2 0l-.3.1.2-.1c.8-.2.6 0 .3 0h.3c-.2-.1-.5-.3.3 0h-.3c-.3-.3.5.4.2 0-.2 0-.6-.7 0 0l-.4-.5c-.2-.4.2.6 0 .2v-.2c-.2-.7 0 .5 0 0s-.2.7 0 0l-.1.3q0 .3-.3.4l-.3.2-.3.1h.3c-.7.1-.4 0-.1 0h.5c1.4.2 2.5-1.2 2.5-2.5q-.2-2.2-2.5-2.5m25.9 14.2c1.4-3 3.1-4.2 6.5-4.2 2.4 0 6.1.6 7.5 2.8 1.8 2.8 6 .2 4.4-2.5-2.4-3.8-7-4.9-11.1-5.2-5.3-.5-9.3 2-11.6 6.6-1.5 2.8 2.8 5.4 4.3 2.5"/><path d="M391.5 145c2.3 5.2 11.5 11.6 16.2 5.6 2.4-3.1 1.8-7.8-.7-10.7-3.6-4.2-8.1-1-11.8 1.3-2.7 1.7-.2 6 2.5 4.3 1.3-.8 4.5-3.8 5.7-2 .9 1.2 1.5 4-.5 4.5-2.6.7-6.2-3.5-7-5.5-1.3-3-5.6-.4-4.4 2.5"/><path d="m401.8 146.6.4.2c-.6-.4-.2-.1 0 0 .3.4-.4-.5-.2-.1.2.3-.2-.7 0-.2l-.1-.3v-.5q0 .4.2-.3l-.2.3c.5-.7.2-.3 0-.2 0 .2-.4.4.3-.1l-.4.2-.3.1c.8-.3.4-.1.1 0h-.3c-.4.1.8 0 .2 0-.2 0-.7-.1.2 0h-.4c.8.2.5.1.3 0l.3.2q-.3-.1.2.3l-.2-.2c.4.7.2.3.1 0v.7c-.1.7 0 .3.1 0-.4.6 0 .1.1 0 .5-.5-.2.1 0-.1.5-.3-.5.2 0 0q-1.3.3-2-.8l-.3-.8v-.2q0 .4.2-.2l.1-.2.7-.4q.8-.1 1.1.1-.3 0 .2.2l.1.2-.1-.3q.2.5 0 0l-.2 2-1 .8-2-.3h.2q2.1 1 3.5-.8c.6-1.1.3-3-1-3.4-.8-.4-1.9-.7-2.8 0q-1 .6-1.5 1.8c-.3 1.2.4 2.8 1.4 3.6 1.7 1.5 4.6 1.3 5.6-.9a4 4 0 0 0 0-3.7c-.6-1.3-2.1-1.8-3.5-1.5-1.7.4-3.2 2-3.7 3.7s.5 3.8 2 4.6a5 5 0 0 0 4 .3 6 6 0 0 0 3.2-2.5 4 4 0 0 0-.8-4.7l-1.2-.9a2.5 2.5 0 0 0-3.5.9c-.6 1.2-.3 2.8 1 3.4"/><path fill="#CC5121" d="M337.8 195.5c-10.4-1-10-4.6-20.4-3.6-11.3 1-18.9 3-29.3 1-20.8-3-40.6-7.9-60.4-12.8-22.7-4.9-37.8-8.8-58.6 3-5.7 3.9-11.4 7.8-16 11.7-10.5 7.9-6.7 6-3.9 15.7 3.8 10.8 2 25.5 2.9 36.3 1.9 18.6 14.1 8.8 26.4 4 18-6 10 11.2 27 11.2 12.5 0 3 2 12.5 0 5.7-1 9.8 0 15.5 0 4.7-1 13.7 1 17.5-3 5.7-4.9 4-.4 8.8-6.3 6.6-8.8 21.7-14.7 32.1-16.7 4.7 0 10.4-1 14.2 0 7.5 1 6.6 4 10.4 8.8 3.8 3-1 4 5.7 5 0 0 6.6-2 7.5-2 6.6-4 7.6-10.8 10.4-17.7 5.7-11.7 10.4-17 18-26.8 2.8-2.9-2.8 2 0 0-6.6-1-9-3.7-15.6-7.6"/><path fill="#CE5128" d="M149.5 268c6.5.5 14.5-2 21.5-3.5-2.5 7.5-21 16.5-28 21-5.5 4.5-12 7-18 11.5-5 3.5-9.5 8.5-15.5 11.5 8.5-6 15.5-13 22-21 7-8 11.5-20.5 23.5-20M304 252c-6 5-20.5 31-17 38.5 4.5 8 11 15 16 22.5 5.2 8.4 8 20.5 12 29.5 4.5 9 7 19 12.5 27C328 361 324 345 319 338c-6-8-5.2-16.5-9.2-25.5-3.5-8.5-6.8-16.5-10.8-25-3.5-8 1.5-27.5 5-35.5"/><path fill="#E2E2E2" d="M181 176.5c3.2 0 3.2-5 0-5s-3.2 5 0 5m-13 9c3.2 0 3.2-5 0-5s-3.2 5 0 5m19.5 3c3.2 0 3.2-5 0-5s-3.2 5 0 5m10-10.5c3.2 0 3.2-5 0-5s-3.2 5 0 5m16.5-1.5c3.2 0 3.2-5 0-5s-3.2 5 0 5m-5.5 13c3.2 0 3.2-5 0-5s-3.2 5 0 5m-18.5 15c3.2 0 3.2-5 0-5s-3.2 5 0 5m-22.5-2h-.4q1.5 0 1.9 2-.2-2.3-2.5-2.5c-1.3 0-2.6 1.1-2.5 2.5q.1 1.6 1.4 2.5 1 .6 2.1.5 2.3-.2 2.5-2.5-.2-2.3-2.5-2.5M165 196v-.5q-.2-2.3-2.5-2.5c-2.3-.2-2.5 1.1-2.5 2.5v.5q.2 2.3 2.5 2.5c2.3.2 2.5-1.1 2.5-2.5m12.5 5.5c3.2 0 3.2-5 0-5s-3.2 5 0 5M172 217v-.6q.5-1.2 2-1.4-2.3.2-2.5 2.5c0 1.3 1.1 2.6 2.5 2.5q1.6-.1 2.5-1.4.6-.7.5-1.6c0-1.4-1.2-2.5-2.5-2.5a2.5 2.5 0 0 0-2.5 2.5m-11.5 5H159q-2.3.2-2.5 2.5c-.2 2.3 1.1 2.5 2.5 2.5h1.5q2.3-.2 2.5-2.5c.2-2.3-1.1-2.5-2.5-2.5m-7-4c3.2 0 3.2-5 0-5s-3.2 5 0 5m13 21c3.2 0 3.2-5 0-5s-3.2 5 0 5m18-4.5c3.2 0 3.2-5 0-5s-3.2 5 0 5m3-16q0-.8-.4-1.5-1-1.4-2.6-1.5c-1.4-.1-2.5 1.2-2.5 2.5q.2 2.3 2.5 2.5-1.5-.1-2-1.5c.2.3 0-.7 0-.5q.2 2.3 2.5 2.5c1.3 0 2.5-1.1 2.5-2.5m6.5 7c3.2 0 3.2-5 0-5s-3.2 5 0 5m9.5-3.5v-.2q0 .4-.3 1l-.2.2.3-.2a2.5 2.5 0 0 0-3.5-3.5q-1.3 1-1.3 2.7.2 2.3 2.5 2.5c2.3.2 2.5-1.1 2.5-2.5m-4-12.5v-1q-.2-2.3-2.5-2.5c-2.3-.2-2.5 1.1-2.5 2.5v1q.2 2.3 2.5 2.5c2.3.2 2.5-1.1 2.5-2.5m7.3-5.7.5-.5c1-1 1-2.6 0-3.6s-2.6-1-3.6 0l-.5.5a2.5 2.5 0 0 0 3.5 3.5m5.3 3.8c3.2 0 3.2-5 0-5s-3.2 5 0 5m8.5-8v-.5q-.2-2.3-2.5-2.5c-2.3-.2-2.5 1.1-2.5 2.5v.5q.2 2.3 2.5 2.5c2.3.2 2.5-1.1 2.5-2.5M218 194c3.2 0 3.2-5 0-5s-3.2 5 0 5m9-12.5v.6q-.5 1.2-2 1.4 2.3-.2 2.5-2.5c0-1.3-1.1-2.6-2.5-2.5q-1.6.1-2.5 1.4a3 3 0 0 0-.5 1.6c0 1.4 1.2 2.5 2.5 2.5q2.3-.2 2.5-2.5m3-6.5q0-.8-.4-1.6l-.5-.6-.1-.1q.5.6.5 1.3-.2-2.3-2.5-2.5c-1.3 0-2.6 1.1-2.5 2.5q0 .8.4 1.6l.5.6.1.1q-.5-.6-.5-1.3.2 2.3 2.5 2.5c1.3 0 2.6-1.1 2.5-2.5"/><path fill="#E2E2E2" d="M229.5 169v-.5q-.2-2.3-2.5-2.5c-2.3-.2-2.5 1.1-2.5 2.5v.5q.2 2.3 2.5 2.5c2.3.2 2.5-1.1 2.5-2.5m8 6h1q2.3-.2 2.5-2.5c.2-2.3-1.1-2.5-2.5-2.5h-1q-2.3.2-2.5 2.5c-.2 2.3 1.1 2.5 2.5 2.5m10 4h.5q2.3-.2 2.5-2.5c.2-2.3-1.1-2.5-2.5-2.5h-.5q-2.3.2-2.5 2.5c-.2 2.3 1.1 2.5 2.5 2.5m-15 10h-1q-2.3.2-2.5 2.5c-.2 2.3 1.1 2.5 2.5 2.5h1q2.3-.2 2.5-2.5c.2-2.3-1.1-2.5-2.5-2.5m-1.5 10.5q0 .8.4 1.6l.5.6.1.1q-.5-.6-.5-1.3.2 2.3 2.5 2.5c1.3 0 2.6-1.1 2.5-2.5q0-.8-.4-1.6l-.5-.6-.1-.1q.5.6.5 1.3-.2-2.3-2.5-2.5c-1.3 0-2.6 1.1-2.5 2.5m21.3-3.2.8-1.2a2 2 0 0 1-1.6.9q2.3-.2 2.5-2.5c0-1.3-1.1-2.6-2.5-2.5q-1.2 0-2.2 1l-.5.6c-.4.6.3-.3 0 .1-1 1-1 2.6 0 3.6s2.5 1 3.5 0M264 183c0-.7-.1.4 0 0l-.1.4q0-.3-.3.2-.5.4-.2.3-.7.2-.3 0c.3 0-.8.1-.1.1q2.3-.2 2.5-2.5c0-1.3-1.1-2.5-2.5-2.5q-1.6 0-2.9 1.1-1 1.2-1.1 2.9c0 1.4 1.2 2.5 2.5 2.5q2.3-.2 2.5-2.5m7.7.3.5.5c1 1 2.6 1 3.6 0s1-2.6 0-3.6l-.5-.5a2.5 2.5 0 0 0-3.5 3.5m-2.3 12.8v.5a2.5 2.5 0 1 0 5 0v-.5a2.5 2.5 0 1 0-5 0m-20.3 11.8q-2.2.9-4 2.4c-1 1-1 2.6 0 3.6s2.6 1 3.6 0l.3-.3 1-.5q.7-.5 1.7-.8c1.2-.6 1.5-2.4.9-3.5q-1.4-1.8-3.5-.9m-24.2 9.7h-2q-2.3.2-2.5 2.5c-.2 2.3 1.1 2.5 2.5 2.5h2q2.3-.2 2.5-2.5c.2-2.3-1.1-2.5-2.5-2.5m-20 8c3.2 0 3.2-5 0-5s-3.2 5 0 5m-2.5 12c3.2 0 3.2-5 0-5s-3.2 5 0 5M214 239h1.5q2.3-.2 2.5-2.5c.2-2.3-1.1-2.5-2.5-2.5H214q-2.3.2-2.5 2.5c-.2 2.3 1.1 2.5 2.5 2.5m17.5-4.5h.5q2.3-.2 2.5-2.5c.2-2.3-1.1-2.5-2.5-2.5h-.5q-2.3.2-2.5 2.5c-.2 2.3 1.1 2.5 2.5 2.5"/><path fill="#E2E2E2" d="M238 230.5V229q-.2-2.3-2.5-2.5c-2.3-.2-2.5 1.1-2.5 2.5v1.5q.2 2.3 2.5 2.5c2.3.2 2.5-1.1 2.5-2.5m-5-17.5h-.4q1.5 0 1.9 2-.2-2.3-2.5-2.5c-1.3 0-2.6 1.1-2.5 2.5q.1 1.6 1.4 2.5 1 .6 2.1.5 2.3-.2 2.5-2.5-.2-2.3-2.5-2.5m16 11h1q2.3-.2 2.5-2.5c.2-2.3-1.1-2.5-2.5-2.5h-1q-2.3.2-2.5 2.5c-.2 2.3 1.1 2.5 2.5 2.5m19-4v-.2q0 .4-.3 1l-.2.2.3-.2a2.5 2.5 0 0 0-3.5-3.5q-1.3 1-1.3 2.7c0 1.4 1.1 2.5 2.5 2.5s2.5-1.1 2.5-2.5m14.5-9c0-.6-.1.6 0 0v-.3.2l.7-1.1q1-2.1-1-3.5c-1-.6-2.7-.3-3.4 1l-.7 1.3q-.6 1-.6 2.4c0 1.4 1.2 2.5 2.5 2.5s2.5-1.1 2.5-2.5m12.3-3.7c.4-.5-.5.2 0 0l.8-.6q.8-1 .9-2.2c.1-1.4-1.2-2.5-2.5-2.5q-2.3.2-2.5 2.5 0-1.1.9-1.6l-1.2.8c-1 1-.9 2.6 0 3.6s2.6.9 3.6 0m11.5-10.1-.5-.5c-1-1-2.6-1-3.6 0s-1 2.6 0 3.6l.5.5a2.5 2.5 0 0 0 3.5-3.5m1.3-5.8q0-.8-.4-1.6l-.6-.6v-.1q.5.6.5 1.3-.2-2.3-2.5-2.5c-1.3 0-2.6 1.1-2.5 2.5q0 .8.4 1.6l.6.6v.1q-.5-.6-.5-1.3.2 2.3 2.5 2.5c1.3 0 2.6-1.1 2.5-2.5m-1-3.5c3.2 0 3.2-5 0-5s-3.2 5 0 5m-11.5-5h-2a2.5 2.5 0 1 0 0 5h2a2.5 2.5 0 1 0 0-5m-9 10q.8 0 1.5-.4 1.4-1 1.5-2.6c.1-1.4-1.2-2.5-2.5-2.5q-2.3.2-2.5 2.5.2-1.5 1.5-2c-.3.2.7 0 .5 0a2.5 2.5 0 0 0-2.5 2.5c0 1.3 1.1 2.5 2.5 2.5m-61.5 61c3.2 0 3.2-5 0-5s-3.2 5 0 5m15-7v-.5q-.2-2.3-2.5-2.5c-2.3-.2-2.5 1.1-2.5 2.5v.5q.2 2.3 2.5 2.5c2.3.2 2.5-1.1 2.5-2.5m6.8-10.3c-.2-.2-.6-.7 0 0l.2 1v-.2q-.2-2.3-2.5-2.5a2.5 2.5 0 0 0-2.5 2.5q0 1.6 1.2 2.8a2.5 2.5 0 0 0 3.5-3.5m5.8 5.7h.5q2.3-.2 2.5-2.5c.2-2.3-1.1-2.5-2.5-2.5h-.5q-2.3.2-2.5 2.5c-.2 2.3 1.1 2.5 2.5 2.5m8.5-.5c3.2 0 3.2-5 0-5s-3.2 5 0 5m9.8-11.2.1-.2zl.6-.4 1.9-1.5a2.5 2.5 0 0 0-3.5-3.5l-.7.5c-.5.4.4-.3 0 0l-.4.3-1.5 1.1a2.5 2.5 0 0 0 3.5 3.5m13.3.7h.5a2.5 2.5 0 1 0 0-5h-.5a2.5 2.5 0 1 0 0 5m11.3-3.2c.4-.5-.5.2 0 0l.8-.6q.8-1 .9-2.2c.1-1.4-1.2-2.5-2.5-2.5q-2.3.2-2.5 2.5 0-1.1.9-1.6l-1.2.8c-1 1-.9 2.6 0 3.6s2.6.9 3.6 0m15.7-12.8c0-.2.1-.8 0 0q0-.4-.1.2 0-.3-.1 0c.9-1 1-2.5 0-3.5s-2.6-1-3.6 0q-1.2 1.4-1.2 3.3c0 1.4 1.1 2.5 2.5 2.5s2.5-1.1 2.5-2.5m1.5-9v-.5a2.5 2.5 0 1 0-5 0v.5a2.5 2.5 0 1 0 5 0m3.5-7.5q0-.8-.4-1.5-1-1.4-2.6-1.5c-1.4-.1-2.5 1.2-2.5 2.5 0 1.5 1.1 2.4 2.5 2.5q-1.5-.1-2-1.5c.2.3 0-.7 0-.5 0 1.4 1.1 2.5 2.5 2.5s2.5-1.1 2.5-2.5m6.8-5.7.8-1q0-.3.2-.5c0-.2.4-.5 0 0 .9-1 1-2.6 0-3.6s-2.6-1-3.6 0l-.8 1q0 .3-.2.5c0 .2-.4.5 0 0-.9 1-1 2.6 0 3.6s2.6 1 3.6 0m9.2 1.2c3.2 0 3.2-5 0-5s-3.2 5 0 5m3.5 10c3.2 0 3.2-5 0-5s-3.2 5 0 5m-11 2.5h-1a2.5 2.5 0 1 0 0 5h1a2.5 2.5 0 1 0 0-5m4.5 8.5h.5a2.5 2.5 0 1 0 0-5h-.5a2.5 2.5 0 1 0 0 5m16.3-7.2 1-1a2.5 2.5 0 0 0-3.5-3.5l-1 1c-1 .9-1 2.5 0 3.5s2.5 1 3.5 0m11.9-2q0-.4.3-.7c.1-.1.6-.7 0 0l.8-.8a2.5 2.5 0 1 0-3.5-3.5q-1.2 1-2 2.4-1 2.1 1 3.5c1 .6 2.7.3 3.4-1"/><path fill="#E2E2E2" d="M360.5 205c3.2 0 3.2-5 0-5s-3.2 5 0 5m-78 41.5c3.2 0 3.2-5 0-5s-3.2 5 0 5m18.3-6.3q1.3-.8 2.5-2c1-.9 1-2.5 0-3.5s-2.6-1-3.6 0l-.7.7c.6-.5 0 0-.1 0l-.7.4c-1.2.7-1.5 2.3-.9 3.5a3 3 0 0 0 3.5.9m12.7-8.2v-1.5a2.5 2.5 0 1 0-5 0v1.5a2.5 2.5 0 1 0 5 0m1-4.5c3.2 0 3.2-5 0-5s-3.2 5 0 5M327 229q.8 0 1.5-.4 1.4-1 1.5-2.6c.1-1.4-1.2-2.5-2.5-2.5q-2.3.2-2.5 2.5.2-1.5 1.5-2c-.3.2.7 0 .5 0a2.5 2.5 0 0 0-2.5 2.5c0 1.3 1.1 2.5 2.5 2.5m13.5-7v-.5a2.5 2.5 0 1 0-5 0v.5a2.5 2.5 0 1 0 5 0m6-3.5c3.2 0 3.2-5 0-5s-3.2 5 0 5m-146-52.5c3.2 0 3.2-5 0-5s-3.2 5 0 5m-23.5 6c3.2 0 3.2-5 0-5s-3.2 5 0 5m-20.5 11h-.5q-2.3.2-2.5 2.5c-.2 2.3 1.1 2.5 2.5 2.5h.5q2.3-.2 2.5-2.5c.2-2.3-1.1-2.5-2.5-2.5m-5.5 12q-1.9 0-3.3 1.2c-1 1-.9 2.6 0 3.6s2.6.9 3.6 0q-.4.3-.1 0-.6.3-.2.2c-.8.1-.3 0 0 0q2.3-.2 2.5-2.5-.2-2.3-2.5-2.5m-8.5 10.5q0-.4.2-.7l-.1.2c.4-.6.3-.4.1-.3a2.5 2.5 0 1 0 3.5 3.5q1.2-1 1.3-2.7c.1-1.4-1.2-2.5-2.5-2.5q-2.3.2-2.5 2.5m116.5-31c3.2 0 3.2-5 0-5s-3.2 5 0 5m18.5-1q0 .7-.5 1.1h.1q-.4.3-1.1.4c1.4-.1 2.5-1 2.5-2.5 0-1.3-1.1-2.6-2.5-2.5q-3.1.4-3.5 3.5c-.1 1.4 1.2 2.5 2.5 2.5q2.3-.2 2.5-2.5m6 7c3.2 0 3.2-5 0-5s-3.2 5 0 5m-24.2 27.8 1-1c1-1 1-2.6 0-3.6s-2.6-1-3.6 0l-1 1c-1 1-1 2.6 0 3.6s2.6 1 3.6 0M248 202v-.5q-.2-2.3-2.5-2.5c-2.3-.2-2.5 1.1-2.5 2.5v.5q.2 2.3 2.5 2.5c2.3.2 2.5-1.1 2.5-2.5m.5-9v-.5q-.2-2.3-2.5-2.5c-2.3-.2-2.5 1.1-2.5 2.5v.5q.2 2.3 2.5 2.5c2.3.2 2.5-1.1 2.5-2.5m-67 55.5c3.2 0 3.2-5 0-5s-3.2 5 0 5m-14.5 2h-1q-2.3.2-2.5 2.5c-.2 2.3 1.1 2.5 2.5 2.5h1q2.3-.2 2.5-2.5c.2-2.3-1.1-2.5-2.5-2.5m-6 8c3.2 0 3.2-5 0-5s-3.2 5 0 5m-4 6c3.2 0 3.2-5 0-5s-3.2 5 0 5m19.5-5.5q3.1-.4 3.5-3.5c.1-1.4-1.2-2.5-2.5-2.5q-2.3.2-2.5 2.5l.4-1q.4-.5 1.1-.5-2.3.2-2.5 2.5c0 1.3 1.1 2.6 2.5 2.5m14.2-6.2.6-1.8.2-.6v.2q0-.3-.2.2c.9-1 1-2.6 0-3.6s-2.7-1-3.6 0q-.7.8-1 2l-.2.6-.1.3c0 .2-.3.7 0 .1q-1 2.1.8 3.5c1.1.6 2.9.3 3.5-1m7.3-8.7c3.2 0 3.2-5 0-5s-3.2 5 0 5m5 11.5c3.2 0 3.2-5 0-5s-3.2 5 0 5m11.5 1.5h.5q2.3-.2 2.5-2.5c.2-2.3-1.1-2.5-2.5-2.5h-.5q-2.3.2-2.5 2.5c-.2 2.3 1.1 2.5 2.5 2.5M316 182.5c3.2 0 3.2-5 0-5s-3.2 5 0 5m-11.5-6.5h.2l-.4-.2-1.8-.3a2.5 2.5 0 0 0-2.5 2.5c0 1.4 1.1 2.5 2.5 2.5h-.2.3l.5.2q.7.3 1.4.3c1.4 0 2.5-1.2 2.5-2.5s-1.1-2.4-2.5-2.5m-10.5 6c3.2 0 3.2-5 0-5s-3.2 5 0 5m-136.5 66c3.2 0 3.2-5 0-5s-3.2 5 0 5m17-6c3.2 0 3.2-5 0-5s-3.2 5 0 5m-1.5-11.5c3.2 0 3.2-5 0-5s-3.2 5 0 5"/><path fill="#E2E2E1" d="M211.5 285c12.5 1 24.5-6 36.5-6.5 6-.5 12.5-1 18-2 8-2 10.5-11 14-17.5-6.5 2.5-12 8-18.5 11q-7.6 3.8-16 6c-5 1.5-10 2.5-15.5 4s-12.5 5-18.5 5.5m-99.5 23c7-6 19.5-8.5 27.5-13 6-3.5 12.5-6.5 18.5-10.5 5.5-3.5 10-8.5 15-12a86 86 0 0 0-29.5 13q-7.6 4.6-16 8.5-4.6 2.1-8.5 5c-2.5 2.5-4 5.5-6.5 7.5M357 238c-.6 8.4-11.5 20.2-17.5 22.3 0-2 0-4.2 1.2-6.2-5.5 7-12.7 13.2-20.6 13.9q4.4-2.9 7.9-7c-4.3 1.4-7.9 4.2-12.1 5 10.3-9.2 35-11.2 39.9-26.6"/><path d="M374.5 137.5c3.2 0 3.2-5 0-5s-3.2 5 0 5"/><path fill="#EFEFEF" d="M374 136.5c3.2 0 3.2-5 0-5s-3.2 5 0 5m31 11c3.2 0 3.2-5 0-5s-3.2 5 0 5"/><path fill="#EFEFEF" d="M371.3 133.8c1.6 0 1.6-2.6 0-2.6s-1.6 2.6 0 2.6m31.5 10.5c1.6 0 1.6-2.6 0-2.6s-1.6 2.6 0 2.6m-31.1-8.2c.8 0 .8-1.2 0-1.2s-.8 1.2 0 1.2m30.6 10.2c.8 0 .8-1.3 0-1.3s-.8 1.3 0 1.3"/><path fill="#434343" d="M375.7 172.6c.8-3.5-12.2-3.1-14-5.4-2.4 2.6-3.2 9.5.5 10.8.1-1.5-1-2.7-.9-4.2.5-2.1 1.9-2.1 3.5-1.6 2.5.6 8.7 1.6 10.9.4"/><path fill="#C65BA2" stroke="#C65BA2" stroke-miterlimit="10" d="M362.5 100.3c-1.7-2.3-3.7-2.5-6.3-3-2-.3-5.6-.7-7-2.4 1.2 4.7 4.3 9.5 8.6 11.1-2-1.8-4.1-4.8-5.4-7.2a9 9 0 0 0 5.8 1.5q1.4-.2 3 0c.8.2 1.7 1 2.1 1.2m61.7 12a51 51 0 0 1 7-1.2c2.3-.2 4.5-1.5 7-1.5-2.4.3-4.5 1.7-6.5 2.8q-1 .7-2.3 1.2c-1 .5-2.4.3-3.1 1 .9-1 3-1.8 4.3-2.5-1.7-.4-4.5 0-6.6 0"/><path fill="#CD5227" d="M357.4 138.3c-1.2 2.5-1.7 5.9-2.4 8.5q-1.4 5-2.3 9.9l-1.2 7c-.3 2.3-1 4.5-.8 7 .3 4.1.1 9.3 2.5 13q2.3 3.5 6 5.1c1 .7 4.4 2.5 5.6 1.9a26 26 0 0 1-8-12c-1.3-4.9-.6-10-1.5-14.9a27 27 0 0 1 1.3-14.1c.8-2.7 3.4-9.7 1.4-12m14-24.6c3.2-7.5 11.3-5.4 16.9-3.2 4.3 1.8 8 4.5 12.1 6.7 2.9 1.5 4.8 1 7.7 1.4-1.8 5.3-6.6 3.5-10.5 2.2-3.6-1.2-7-3-10.6-4.1a52 52 0 0 0-10-3c-2.1-.3-4.8-.4-6.6 1"/><path fill="#CE5128" d="M335.7 410.7c-.5-1 0 .8 0 1.3q.4 1.5.3 3.5l1 11.5c.7 7.2 2 14.2 2.8 21.4l.8 10.5c0 2.5.7 5.7.2 8.2-.4 2.3-1.3 2.3-3 2.6-.9 0-5.1 1.1-5.8-.3-.6-1 .7-4 1-5q1.7-5.9 2.6-11.9a99 99 0 0 0 1-18.8c-.3-7.7-1.9-15.7-2.4-23.4 0-.8 1.4 1 1.5.4"/><path fill="#CD5227" d="M304.9 429.3c1 4.5-5.3 17.7-6.7 21.9-1.7 4.5-3.4 6 .7 8.2l3 1c.6-4.7 1.8-9.7 1.4-13.8-.6-6.1 1.7-10.8 1.6-17.4"/><path fill="#434343" d="M75.7 468.5c-.8 3-3 5.6 2.3 7.3 2.7.5 7.3.5 9.5-.6-2.6-2.2-6.3-.4-9-3m252 8.1c3 2.4 9 .2 11.8-1.8l2.4 3c-2.4 0-5-1-7.4-.5-2.8.8-6 4-6.6-.5m-36.9-6c1.7-1 5.7-.2 5.4-2.7 1 2 1.8 2.4-.7 3.2-1.2.3-4 .3-5-.5m-114.7.5c4.4-1 10.4-3 11.7-8.2-1.7 2.4 1.5 7.4-.5 9.4-1 1-5.2 1.3-6.7 1s-3.3-1-4.3-2.2"/><path fill="#CE5128" d="M162 424.8c-.2 1.2 2.3 5.4 3 7.2q3 5.7 6.3 11c3 4.8 6.4 8.5 10 12.8-1.6 2.4-6.6 3.7-9.3 4.7-1-3-1.5-6.2-2.7-9.5-1.3-3.5-3.3-6.7-4.3-10.2q-1.7-5-2.7-10c-.6-2.8.2-7-1.6-9.6m-78.5-10.4c.5 3.2 0 7.5.2 10.8.2 4.2.5 7.8 1.1 11.8q.8 5.3 1.4 11.1c.2 2.3 1.2 8.9.4 11.2s-2.4 1-3.7.6c-1.6-.3-2.4.4-2.8-2.3-.5-2.6 0-8.2.2-11.1a587 587 0 0 1 3.6-32.2"/></svg>