<svg xmlns="http://www.w3.org/2000/svg" viewBox="0 0 280 132.5"><path d="M280 18.4c-1.9-1.3-9 5.8-11.9 5.8-4.2 0-7.9 3.5-12.4 2.9v-.6c2-1 3.4-1.2 5.2-2.3q3.1-2 6.6-3.6c3.7-1.8 7.3-6.8 10.1-10.2-2.6 1.4-4 3.6-6.3 5.2-.8.6-2.4.9-3.5 1.7q-1.5 1.2-3.4 2.3c-3.7 2.2-8 2.6-11.6 4.6 7.4-5.5 16-11 20.2-19.6h-.5c-.4 3-8.7 7.4-11 9.2-4 3.2-7.7 5.4-12.7 7 3-1.7 6.4-6 8.7-8.7 2.4-2.8 6.3-6.5 6.3-10.4-2.1.3-3.8 4.1-5.2 5.8-1.9 2.3-4 3.3-6 5.5-3.8 3.7-7 6.2-11.9 7.7 1.4-.7 3-2.3 4.4-3.7 1-1 3.6-4.9 4.6-4.9a33 33 0 0 0 3.1-5.2c.7-1.2 2.9-5.8 1.8-6.9-6.2 15.8-21.6 22.5-38 22.5v-.6c.9-.4.6-.5 1-1.2-5.6 0-11.4 1.2-17.2 1.2-6.6 0-13.6.5-20.2 1.1-13.8 1.4-27 4.4-41 5.2-5.8.4-13.2 0-19 1.2-2.5.5-5.8 1.1-8.3 1.1-3 0-5.3 1.9-7.8 3-4.2 1.6-6.8 4-10.1 7.7a43 43 0 0 1-13.6 10.7l-16.7 8.6c-3.7 1.9-6.4 5-10.4 7-1.4.6-3.8 2.8-5.4 2.8-3.8 0-2.2 2.1-.3 2.9H47c1 1.3 2.2 1.6 2.9 2.9-2.5 1-4.4 2.6-7 3.4-1.5.5-2.8.4-4.5.6-4.4.5-8-.5-12.2-2.6-1.9-1-3.2-2.4-4.9-4-1.4-1.5-.9 1.3-.5 2A21 21 0 0 0 39 85.3C35.5 88 29 88 24.4 87.6q-3.7-.6-6.3-1.7c-1.8-.7-3-1.3-4.6-2.3-1-.6-2.3-2-3-2.3-1-.6-3-1.4-2.8.5 0 .9 2.8 2.9 3.5 3.5q3.4 3.3 8 5.2c2.2.8 4.6.7 7 1.1 1.4.3 5.7.2 6.9 1.2-3.1.8-5.4 2.9-8.7 3.4q-4 .7-8.3.6H8.7c-2.8 0-4.9-1.2-7.2-1.7-3.6-.8.3 3 2.3 4l4.6 2c2 1 2.8.9 4.9.9 1.1 0 2.7 1 3.7 1.1 1.3.2 2.3-.5 3.2-.5 1.9 0 5.9.7 7.2-.6-3.4 3.4-8 4.6-12.1 6.6-3.8 1.9-10.7 4-15 3.8 1.8 3.2 9.1 2.3 12.7 1.7 2-.3 4.4-1.7 6-1.7 3 0 5.2-2.8 7.8-3.5-.8 1-4.2 4-5.5 4s-4.6 4-5.4 4.7q-3.2 2.3-7 4.6c-1 .6-6.9 2.6-5.7 3.4 2.4 1.8 10-.9 12-1.7 2.3-1 3.7-1.6 5.9-2.9 2.1-1.3 4-4.5 6.3-5.2-.4 1.7-2 2.7-2.9 4-1 1.5-1.6 3.3-2.9 4.7-2 2.2-6.7 5.5-6.9 8q2.3-.8 4.6-2.3c1.6-1 4-3.3 5.8-3.4q-1.1 1.5-1.2 3.4c1-.4 3.2-1.9 4-1.7s1.2 1.6 1.8 1.7c1.5.3 2.8-1 3.8-2 .8-.9 2.8 1.3 3.4.6.6-.6 2.4-1 3.2-1.5 1.1-.6 2.3-.8 3.4-1.7.7-.5.5-1.2 1.2-1.7 1-.9 2.9 0 2.9-2 0-.3 4.4-2.6 5.2-3.2q1.3-1.4 3.7-2.6c2-.8 1.4-1.8 2.6-2.6.4-.2 1.4.3 1.7 0 1.4-1 2-1.4 3.2-2.6.4-.3 1.8-2.6 2.3-2.6 1.9 0 1.8-.4 3.2-1.1 1-.5 7-2.7 7-3.2 0-1.6 2.6-2.4 3.7-3.4 1.4-1.4 1.8 1.7 3.1 2 2.1.4 4.5-2.2 5.2-3.5 2 5 5.4 10 9.8 4 3.8 4.8 8.3-.1 8-5.1h.7c-.6 3.3 6.3 7 7.5 2.8 2.5 2.8 4.8-1 3.4-3.4 5.4-.4 11-2.5 16.2-4 .2.4 3-.6 4.9-.6 1.3 0 5.7-1.7 6-3.5.6-3.4-8.8-1.3-9.8-4 .7-.5 2-1 2.3-1.7.6-1.1-.4-2 0-3 .4-.8 2.3-1 3-2.2.2-.5.3-2.6.2-3-.4-.8-.5-4.5-1.7-4.5-1.7 0 1.7-2.2 2-2.3 2.9-1.5 2.9-3.1 2.9-6.7 0-.5 2.8-1.4 3.4-1.4 1 0 1.6 1 2.3 1.2 1.5.2 2.7-.6 3.8-.6q4 0 8.3-.6c1.7-.2 3.6.4 5.2 0 1.8-.4 1.8-1.1 3.8-1.1h3.4q1 .1 1.8-.3c1.4-1.4 1.5-.3 2.6-.3 2.9-.2 5.6.1 7.8-2 2-2 7.4 1.6 10 .2 1.9-.9 2.8-2.6 5.2-1.4 1.5.7 5-.5 4.6-2.6 2.7.3 4.4.5 7 0 .6-.1.7-1.6 1.4-.9.5.6 1.6.3 2.3.3 2.4 0 3.1-1.7 6-1.7h3.8c1.2 0 2.6-2.7 3.2-2.9 1.4-.5 5.2-.6 6.6-.6 2.2 0 1.4-2.8 2.9-2.8h3.2c2 0 6.3 0 6.3-2.6 0-2 0-1 2.3-1.5q2-.4 4.3-.5c.9 0 5.3-2.7 5.5-3.5-1.1 0-2.7.6-3.4.6-1.2 0-2.1-.8-3.5-.6 1.1-1 4.5-1.2 6-1.2 1.9 0 3.2-1.1 5.3-1.1 1.5 0 4-1.6 5.4-2.3 1-.5 3.8-1 4.6-2.3a108 108 0 0 1-16.1 1.1q4.5-2 9.2-3.4a35 35 0 0 0 7-3.5c2-1.3 2.8-3.7 4.6-5.1" style="clip-rule:evenodd;fill-rule:evenodd"/><path d="M278.2 20.2c-2.6.5-5 3.4-7.8 3.4-1.6 0-4.4 1.9-6 2.3-3.8 1.1-9 2.3-13 2.3-.8 0-2 1.2-2.9 1.2h-4.3c-1.2 0-7.4.6-7.8.3-.7-.7-5.6-.8-6.6-.9-.7 0-3.5.3-3.5-.3 0-1.5 3.2-1.6 4.6-2-2.3.4-6.6.1-7.5 2.9 3.8 2 10.5 1.7 15 1.7q6.1-.1 12.1-.6 4.6-.2 8.7-1.1c1.7-.3 6.7-1 7.8-2 1.3-1.4 5-1.6 6.3-3 1-.9 3.8-4.1 5-4.2" style="fill:#5a3d1c;clip-rule:evenodd;fill-rule:evenodd"/><path d="M276 12.7a79 79 0 0 1-14 8.3q-3.5 2-7.4 3.2-3.1.6-5.8 1.7c-.7-1.5-7 .6-9 .6-3.8 0-7.3.1-10.6 1.7 4.5 0 8.3.9 12.7.6 2.1-.1 3.6-.6 5.8-.6q1.6-.1 2.8-.5l3-1.2a49 49 0 0 0 22.4-13.8" style="fill:#361f1c;clip-rule:evenodd;fill-rule:evenodd"/><path d="M273.6 30c-2.8-.5-5.5 1.1-8.4 1.1q-4.7 0-9.5-.6c-3-.2-6 .6-9.2.6-2.8 0-6.4.6-9.5.6-5.8 0-11.7-1.2-16.7-1.2 0 0-2 1.6-2.6 1.8a10 10 0 0 1-3.5.5c-1.2 0-2.4-.8-3.4-.5 0 0-.7 1.5-1.2 1.7-1 .3-2.5-.4-3.5-.6.3 4.3-10.2-3.5-10.3 1.2 0 1.7 3.8 4.8 4.8 6 1.7 2.2 3 3.6 4.7 5.2 2 2 4.7 3.7 7.2 5 1.3.6 7 2.6 7-.4 0-1-4.2-2.7-5-3.4-1.4-1.4-3.2-2.6-4.6-4l-4-3.2c-.4 0-3.8-4-2.6-4 .8 0 3.8 3.7 4.3 4.3l4 4c2 2 5.3 3.5 7.8 4.9 2.4 1.3 8.5 2.1 9.8-1.2-1.8-.8-4-1-5.8-1.7-1.3-.6-4-2.3-5.4-2.3-1.7 0-3.5-2.9-5.2-2.9-1.4 0-4.3-4.1-6-4.6v-.6c1.4.4 4.3 2.7 5.4 3.8.4.4 2.6 1.2 2.6 1.7 0 .8 2.7 1.3 3.2 1.7.4.5 2.6 1.1 2.6 1.2 0 1 3.7 1.7 5 2 3 .4 5.7 1.6 8.8 1.2 3.3-.5 4.2-2.3.6-3.5-3-1-6.4-1.6-9.2-2.3-3-.7-6-2-8.7-2.9-1.2-.4-6.2-3.3-6.3-4.6 1.3.4 2.8 1.7 4 2.3L220 39c3 1.5 6.6 1.7 9.8 2.6 3 .8 6.1 2.3 9.5 2.3h4.3c1.7 0 2.8-1.2 4.6-1.2-.4-3.7-6-.2-7.7-2-.7-.7-3.7-.3-4.7-.3s-2.7-.9-3.7-1.1c-3.7-.8-13.5-1.9-15-5.8a51 51 0 0 0 23 6.4h9.6c3.5 0 6.6-1.5 9.5-3-6.4 0-13-.5-19.6-.5-4 0-18-.8-19-4.6 2.7.2 5 2.3 7.7 2.3s5.7.9 8.4 1.2c3.9.3 8 1 12.1.5l11.5-1.1c2.3-.2 5-1.8 7.3-1.8 2 0 4-2.5 6-2.8" style="fill:#5a3d1c;clip-rule:evenodd;fill-rule:evenodd"/><path d="M271.9 7c-3 .7-4.6 3.3-7 5.1q-4 3.1-8 5.8a22 22 0 0 1-5.5 2.8c-2.7 0-4.6 2.3-7.2 2.3.5-1.6 3.3-1.8 4.6-2.8 2.4-2 4.1-4.7 7-6 .2-.2 4-4.8 4-5.3 0-1.4 2.7-4.8 3.4-6-2.5 2.5-4.3 5-6.9 7.5-1 1-4.7 5.2-6 5.2-1 0-5 3.5-5.8 4.3a18 18 0 0 1-7.2 2.6c.5-2.3 5-3.6 6.9-5.2 2.2-2 3.5-4.1 5.5-6s3.5-6.4 4.3-9a32 32 0 0 1-12.7 14.4A44 44 0 0 1 220 23c-5.9.6-10.8 2.4-16.7 2.4-6.4 0-11.9-.7-18 .5-4.3 1-9.6 2.3-14 2.3-6.3 0-12 1.8-18.2 1.8-6 0-11.7 2-17.3 2.8-4.8.7-9.6-2.9-14.4-2.3 1.4 1.1 4.6 2 2.9 4 1.2-.1 2.6 0 1.7 1.2 1 0 1.4.4 2.3.6q-1.5 1-2.9 2.3c.9.6.7.7 0 1.7.8.6.8 1.3 1.2 1.8h-1.2c1.6 2.5-1.5 3.5-1.1 5.7l-.6-.5c-.3 1.8-3.9 3.2-5.2 4-1.6 1-3.8 2-5.2 3.4-1.3 1.4.7 1.2-1.7 1.8q-1.3 0-2.3-.6V57c-1.3-1-7-.3-6.4-2.8-1 .6-2.1-.4-1.1-1.8-1.7 1.4-3.5-1.2-3.5-2.3 0-1.8-5-.5-6.3-1.1-.6 1.9-2.9 4-5 4-1.9 0-3.7 1.6-5.4 2.3-1.2.5-4.2 2.9-5.5 2.9-2.8 0-4.2.8-6.6 2Q66.3 62 63 63.4c-1.5.7-4.8 4-6 4-1.8 0-3.7 2.5-5.5 2.9s-4.6-.4-5.2 1.7c1.4 0 2.3.7 1.2 1.8 7.2.6-.2 3.6-1.5 4.9-1.9 1.8-7.2 2.5-9.8 2.5-1.1 0-5.5-.6-6.3-1.4-2.1-2-8.5-2.1-9-6-.3 2.1 1.2 4 2.7 5.4q.7.6 1.4.9l2.3 1.7a25 25 0 0 0 12.7 3c-.5 4.2-11.6 3.4-15 3.4-6.7 0-10.9-5.2-16.7-7 .7 3.5 9.1 9.3 13 9.3 2 0 4.4 1 6.6 1.1.9.1 2.8.6 3.4.6s1.3-.6 2-.6c1 0 1.3 1.2.6 1.2-2.3 0-5 3-7.2 4-2.1 1-7.6 1.2-9.8 1.2-2.5 0-5.6-.6-8.3-.6S3.3 95.9.9 95c-.3 1.6.3 2.9 2 2.9s3 2.3 4.6 2.3c2.2 0 4.7 1.7 7 1.7H25c1.7-.2 2.6-.9 4-1.2-.4 1.9-5.2 5.2-7.2 5.2-1.1 0-2.5 1.8-3.7 1.8l-3.8 1.4c-1.2 1.3-5.5 2-6.9 2-1 0-2 1.2-3.5 1.2-1.2 0-2.2-.3-3.1.5a28 28 0 0 0 11.5 1.2q3.7-.6 7-2.3c1.5-.7 7.5-4.2 8.6-3.5-1.3.2-4.4 3.3-5.5 4.4Q20 114.9 17 117q-3 2.4-6.3 4.6c-2 1.1-4.8 3-7 3.4 4 1.5 10.3-.8 13.9-2.6 1.1-.5 1.7-1.7 2.9-2.3.7-.3 2.8-1.3 3.2-1.7 1.5-1.5 3.3-4.3 5.4-4.9-1.4 3-3.2 5.3-4.9 8.7-.6 1.2-2.6 2.3-3.4 4-1 2-4.4 2.8-5 5.2 3.6.4 8.5-5.6 11-7l-2.3 4.7q1.8-.4 3.8-.6c.7 0 1 1.2 1.7 1.2.4 0 .2-.6 1.1-.6.6 0 1-.6 1.5-.9 1.6-1.2.6-.3 1.7-.3 1 0 2 .8 2.9.6.7-.2 1-1.4 1.7-1.7 1.3-.6 2.6.2 3.8-.9 1.8-1.8.3-3.2 3.4-3.2l.9-.8c0-1.5 1.1-.8 2-1.7q1.7-1.9 4-2c.8 0 1.5-1.4 1.5-2 0-.8 1.3 0 1.7-.4 1.3-.9 2.5-2.9 3.6-2.9q2.2 0 2.6-1.8c.3-1 1.8-.2 2.5-1.6.9-1.9 1.9-1.6 3.4-2.3 1.2-.6 1.7-1.1 3.6-2q4.8-2 8.3-5.8c.9-1 1.5-.5 2.6-2 .3-.5.8-2.2 1.1-2.9 1-2 .6-2 .6-4 0-1.5 1-4 1.1-5.8.3-2.3.4-5.4 1.2-7.5 1.4-3.7 6.6-5.8 6.3-9.8h.6c.7 4.4 7.5 1.6 7.5 7.2 0 3 2.5 4 4 6 1.2 1.7 3 4.8 3.5 7q1-2.1 2.9-1.2-.7-1.9 1.1-1.7c-.7-.8-.4-1.2-.5-2.3q1 .2 1.7.6-2.1-1-2.9-2.9c1.9.1 1.7-2.8 2.9-4 .2.5.5.5.6 1.1q1.5-1 1.1-2.9h.6c.1.7.3.6.6 1.2.4-1 1-1 1.7-2.3 0 2.8.8 5.2 1.2 8q.3-2 1.1-2.8c.4-.5.8-.4 1.2-1.2h.5l.6 1.2c-.6-1.2-1.5-2-.6-3h.6c-1.2 4.2 5-.4 1.2-1 2.1-2.4 0-7.6 2.6-10.2 1.5-1.5 3.6-8.7 1.4-10 3.4.9 5.8 1 8 3.7 1.8 2 1.6 2 4.2 1.5 1.4-.2 2.3 1.5 3.4 1.7 1.6.2 2.4-1.3 4-1.2.6 0 1.3 1.2 2 1.2h3.2c-.6-1.2-4.7-9.8-4.9-9.8-1 0-1.9-.6-2.9-.6s-2 1-3.2.6c-1.3-.6-1.6-4.1-2.3-5.2 1.5-1.3 3.5-.1 5.2-.6 1-.2 2.7-1.5 4-2.3.6.9 2.6 1.4 4.1 1.2a5 5 0 0 1 1.7-1.2q1.7-.1 3.2 0c1.8 0 3-2.7 4.3-3.4.7-.4 1.6-.2 2.3-.6 1.1-.7 1.3-1.2 2-2 1-1 3.5-.3 5.2-.3 1 0 2-1.8 2.3-1.8q1.4.2 2.6 0 1.4 0 2.3-.5c.5-.3 1-2.3 2-2.3 1.8 0 4.7.6 5-1.8 2.1 1.5 5.3 0 7.7 0h3.8c1.5 0 3-1 4.6-1.1h4.3c1.2 0 2.7-1.2 4-1.2s3.2-.3 4.4-.5c.7-.2 1.8-1.1 2.3-1.2.1 0 1.2.6 1.7.6 1.3 0 2.8-.6 3.8-.6 3 0 5.5-.4 8.3-.6 2.1 0 8.7 1.1 10.1-.3.6-.5 4-.8 5-.8q2.7.1 5.1-.6a54 54 0 0 0 6.4-3.7c0-1 6.1-4.7 7.2-5.8 2.4-2.4 5.3-5 7.2-7.8" style="fill:#361f1c;clip-rule:evenodd;fill-rule:evenodd"/><path d="M223.5 27c-2 1-5 0-7 1.2 2 1.1 5.8 1 7.5-.5-.8.2-.3-.3-.5-.6m-2.9 2.9c-3-.5-5.6-1.7-8.7-1.2-2 .3-4.8 1.7-6.3 1.7-.6 0-8.5-.8-5 2 .3.2 5 3.7 5 1.8 0-2.2-.4-2.3-2.3-3.8 2.2.6 7.6 6.2 7.5 0 .3 1.1 3.2 2 4.6 1.8-1-1.2-2.6-1.5-3-3 2 .4 7 4.2 8.2.7" style="fill:#361f1c;clip-rule:evenodd;fill-rule:evenodd"/><path d="M217.1 20.7c-1.4 1.3-5.6 1.2-7.5 1.2l-8 .6c-6.8.7-14.7 1-21.4 1.7q-11.6 1-23 2.9l-5.8.6c-1.9.1-4.1 1.1-6 1.1h-10.8c-3 0-5.6.6-8.9.6-2.4 0-7.2-.3-9 1.1 2 .3 2.9-1 4.7-1.1 1.4 0 2.5 1.1 3.7 1.1 3.8 0 6.7 1.7 10.1 1.2q10.4-1.6 20.8-2.9c12.2-1.3 23.6-2 35.2-4.6 4.3-1 9.1.6 14 .6 3.3 0 11-.7 11.9-4" style="fill:#8b5c29;clip-rule:evenodd;fill-rule:evenodd"/><path d="M213 51.9c-3-.1-7.4-5-9.7-7-3-2.6-5-6-7.8-8.9l-2.6.3c-.6.1-1.1 1-1.7 1.2-1 .1-1.4-.8-2.3-.3-.8.3-3.5.5-3.5 1.1 0 .4.2 1.8 0 2-1.3 1.7-7.8 2.3-9.2.6.3 2.7-2.6 2.3-3.8 2.3-2 0-5.5-3.1-5.5.3 0 2.7-2.4 2-4 2.6-1.3.5-3.6 3.2-4.6 1.2-1.2.9-4.3 1.7-4.6 2.3-.6 1 .4 2.6.6 3.4.2 1.3 1.2 7.5 3.2 7.5 6.4 0 2-2 2-5.5 0-2.2-2.1-4.4-1.8-7.2h.6c-.4 3.1 1.1 8 2.9 10.4 2.1 2.8 5.5 1.7 7.5.6-1.8-1.8-6.7-9.5-4.6-11.5.5.6 1.1 3.2 1.1 4 0 1.3 1.6 3.5 2.3 4.6q3.6 5.1 9.2 2.3c-.7-1.4-1.3-1.8-2.3-2.9-1-1.2-1.5-3.3-2.6-4.3a18 18 0 0 1-3.7-8.4h.6c-.3 1.9 1.8 4.8 2.6 6.4.7 1.4 1.9 3.9 2.9 4.9 2.6 2.6 4.3 4.7 8.3 4.3.8 0 3.7-1 4-1.7.8-1.6-2.3-3.4-3.4-5.2-1.7-2.8-3.6-5-4-8a31 31 0 0 0 6.3 9.7c2.6 2.8 5.3 2.4 8 4 1.3-.7 3-.4 4.1-1.7-2.5-2.5-5-4.5-7-6.9-2.1-2.7-3.3-5.4-5.1-8 2.2.4 2.5 3.6 3.5 5.1 1.2 1.9 3.7 3.8 5.4 5.5 2.2 2.1 10.6 7.6 11.9 2-6-3-11.3-8.3-14.5-14.4 1.9 1.6 2.7 3.8 4.4 5.5l5.7 5.7c1.5 1.6 10.2 5.5 11.3 2" style="fill:#5a3d1c;clip-rule:evenodd;fill-rule:evenodd"/><path d="M199.8 31.1c-2-1-7.2.1-9.2.6-1.7.4-3.1-.2-4.6 0-.1 0-.7 1-1.2 1.1-.9.3-2-.2-2.9 0-1.2.5-1.6 1.6-2.8 2.4-1 .5-1.3.3-2.4.5-1.4.4-3.2 1.4-4.6 1.8-.9.2-2-.1-2.9 0-1.5.1-.7-.3-2.3.5s-2.2 3.1-4 3c1 1.7-.3 4.4 1.7 5.1 1.5-2.4 3.1-5 2.3-7.5h.6c-.2 1.8 2.7 3.7 4 4 4.5 1 3.5-2.6 3.5-5.7.7 3.4 6.5 7.1 2.9 1.1.9.5 1.4 1.1 2.3 1.8.4.3 1.7.8 2.3 1.7 2.4-1.6 2.5-2.8 1.2-5.8 2 .7 2.3 1.2 4.6 1.2-.3-1.3-1.2-2.4-1.8-3.5 1 .8 1.4 2.1 2.4 2.6 1.4.7.7.4 2.3.3 2.5-.1 4.5-.9 4-4 1.3 1 4.1.6 4.6-1.2m-36.9 13.3c-.4-2.4.2-3.4-1.7-3l-3 2.4c-2 3.8 3.7 3.4 4.7.6" style="fill:#361f1c;clip-rule:evenodd;fill-rule:evenodd"/><path d="M157.7 46.7c-1.6-4-3-2.6-5.8-1.2.8 1.5 1 2.3 2.6 2.3 1.4 0 2.4.2 3.2-1.1" style="fill:#361f1c;clip-rule:evenodd;fill-rule:evenodd"/><path d="M156 60c-1.6-3.3-4-8.1-3.5-12.2-2.1 2.4-.6 5-.6 7.8 0 1.5 2 7.7 4 4.3" style="fill:#5a3d1c;clip-rule:evenodd;fill-rule:evenodd"/><path d="M152 46.7c.6-4.8-11.4.2-5.2 4 2.4 1.5 3.7-2.4 5.2-4" style="fill:#361f1c;clip-rule:evenodd;fill-rule:evenodd"/><path d="M151.4 55.9q-.6-2.7-.6-5.8c-3.2 1-.4 4 .6 5.8" style="fill:#5a3d1c;clip-rule:evenodd;fill-rule:evenodd"/><path d="M145 46.7c-1-1-2.6-.3-4 0 .2 1.2.3 4 2.2 4 2.1 0 1.6-2.1 1.8-4" style="fill:#361f1c;clip-rule:evenodd;fill-rule:evenodd"/><path d="M144.5 88.2c-1-.5-5.9-2-7-1.2-1.4 1.1-.1 4.2-1.1 5.8 2.2-.8 8.5-1 8-4.6" style="fill:#6c5b60;clip-rule:evenodd;fill-rule:evenodd"/><path d="M143.9 61.7c-3.2-1.1-5.9.2-8-2.3-2.4-2.8-1.7-3-5.6-3.5-.6 0-1.2 6-1.3 6.8-.3 2.1-3 4.3-3.6 6.4q-.7 4.4 2.3 6.4c3.3 2.5 12.5 7.6 12.7 0 0-2-.5-2.6-1.7-4-.6-.8-.2-1.8-1.2-1.8q-.8.2-1.7 0c-2-.5-6.3-1.6-7.5-3.4 5.2 2.8 15 5.1 15-3.5-4.8.5-8 0-12.7-1.1V61c4.6.9 8.7 2.4 13.3.6" style="fill:#dcd7dc;clip-rule:evenodd;fill-rule:evenodd"/><path d="M137.5 83c-.9-2.3-3.4-4.6-6-4.6-1.1 0-5.5-4.7-5.5-1.8 0 1.9 9.2 10.3 11.5 6.4" style="fill:#dcd7dc;clip-rule:evenodd;fill-rule:evenodd"/><path d="M136.4 90.5c-1-1.4-1.4 1-1.2 2.3q.7-1.1 1.2-2.3" style="clip-rule:evenodd;fill-rule:evenodd"/><path d="M136.4 88.2c0-2.9-3.8-3-5-5.2-1.1-2.5-4.6-3.8-6.6-5.8-.3.3-1.4 1.2-1 2.1 1.2 2.2.6 1.9-.1 3.7-.4 1-1 .2-1.2 1.7q0 1.2 1 2c1.4 1.5 1.7-3.5 2.5-3.7 0 3.2-.4 5.7 2.9 6.3.4-2.2.4-3.5 0-5.7.1 1.5 2.9 1.3 2.9 2 0 2.7 3 1.1 2.3 3.7q1.7.2 2.3-1.1" style="fill:#ffb836;clip-rule:evenodd;fill-rule:evenodd"/><path d="M135.2 91.6A10 10 0 0 0 130 86c.3 1.4-.7 3.6-1.1 5.1-.6 2.3-.8 2.5-2.9 3.5l-.6-.6c1.3-1.4 1.8-5.1.3-6.6-1.8-1.8-5.5 1.5-7.2 2 .9 1.6 2.2 2.2 2.9 4 .5 1.4-.5 1.7.6 2.4.2 0 2.2-.6 2.9-.6 1.2 0 4 0 4.9-.9 1.4-1.4 4.3-.8 5.4-2.6" style="fill:#6c5b60;clip-rule:evenodd;fill-rule:evenodd"/><path d="M128.9 90.5c-1.2-1.8-1.5 1-1.7 2.3h.5a5 5 0 0 1 1.2-2.3" style="clip-rule:evenodd;fill-rule:evenodd"/><path d="M126.6 36.9q-1.7-.6-1.2-2.3c-2 1.2-1.4-1-2.6-2-.3-.4-.8-.2-.8-.6 0-1.4-1-.2-1.2-.3-1.8-.5-4.5-.3-6.3-1.2v.6c-1.1-1-2.6.6-3.8 1.4-1.1.6-3.9 1-4.6 1.8-1.1 1.1-3 3.5-4.3 3.7.3.7.2 1.7.6 2.3-2.6-.2-.6 1-.6 1.2 0 1.2-.2 2 .6 2.9-1.8.2-.2 2.4-1.2 4 1.1 0 2.5 1.2 3.2 2.2 1.7 2.6 2.7.3 3.7 3v-1.2h.6q.5 1 2.3 1.2v-1.7c1.8.5 2.6 0 4.3 0 .9 0 2-3 3.8-1.2.7-2 4.6-2.4 4.6-4.3 0-.7 1.2-5 2.3-5-1.6-1.1-1.3-3.3.6-4.5" style="fill:#fff;clip-rule:evenodd;fill-rule:evenodd"/><path d="M123.7 49c-.3.4-1 .2 0 1.1.9-1 .2-.8 0-1.1" style="clip-rule:evenodd;fill-rule:evenodd"/><path d="M123.7 80.7c.6-1.1-.7.6-.9.6-.5 0-.8-1.8-.8-2.4-.7 1-2.4 3.1-3.5 3.5v-3.7c0 .8-.3.7-.6 1.4l-.5-.6c-.3 3.5-3.3 2.3-4.7 1.8v.5c1 .1 1.5.7 2.4 1.2-.7.1-1 .6-1.8.6l.6 1.7h-1.2c2 3.7 2.6 4.6 6.5 3 2.5-1 3.3-.6 3.3-3.3 0-2 1.7-2.4 1.2-4.3" style="fill:#dcd7dc;clip-rule:evenodd;fill-rule:evenodd"/><path d="M123.7 41q-.8-.6-1.7-.7c.7.5.8.4 1.7.6-1 0-.2.2 0 0m-.6 28.8c-.3-.3.3-.8-.6-.5-.2.8.3.2.6.5m-.6-32.2h-1.1l1.1 1.1c.5-1 .2-.9 0-1.1m0 5.7q0-.7-.5-1.1zm0 7.5-2.3 1.2v.5c1.2.3 2-.6 2.3-1.7m-.5 19q-1 0 0 0m-.6 1.8q-1.3-.5-1.7-1.8c.5 2-.7 3.4-1.2 1.2q-.2 2.3 1.7 1.1c-.8-.3-.1 0-.5-.5 1 .9 1 0 1.7 0m0-36.9c-1-.3-3.8 1.1-3.5 2.3.3.8 1.4.6 2 .6.5 0 0-2.5 1.5-3m0-1.1-1.2.6c.7.1.7-.3 1.2-.6" style="clip-rule:evenodd;fill-rule:evenodd"/><path d="M120.8 93.4c-.3-1.2-3.7-4.4-4.9-3.2-.8.7-3-2.4-3.5-2.9-1-1-1.9.3-2.3.3-.8 0 1 2.2 1 2.6 0 .6.6.7.5 1.4-.2 2-.8.5-1.7 1.8-.7.8-3 4.3-1.2 4.6 1 .1 2.5-3.2 2.9-4 2 .4 1.6 1.4 2.3 3.4.2.6 1.7 2.1 1.7 3.2 0 .4 3.3.1.9-2.3-1-1-1.7-4.1-1.5-5.5 1.9.3 5.2 1.6 5.8.5" style="fill:#ffb836;clip-rule:evenodd;fill-rule:evenodd"/><path d="M119.7 36.3h-1.2c.2.6 0 .7.6 1.2.6-.4.4-.7.6-1.2" style="fill:#ffff7d;clip-rule:evenodd;fill-rule:evenodd"/><path d="M119.7 95.7c-.4-1-2-1.6-3.5-1.8-.6 2.6 1.7 3.3 3.5 1.8" style="fill:#6c5b60;clip-rule:evenodd;fill-rule:evenodd"/><path d="m119 42.6-1.7-.5v.5zm0 10.4c-.2.4-.8.7-.5 1.7-.3-.7-.5-.8-.6-1.7 0 1.2 0 1.5.6 2.3-.2-1.4 1.4-2 .6-2.3" style="clip-rule:evenodd;fill-rule:evenodd"/><path d="M119 41c-.1-1-4.5-5.4-5.7-4.7-2.2 1.4.7 3.8-2.9 4.6 2.8.7 1.6 3.3 3.5 5.2 0-3.4 2.7-4 5.2-5.2" style="clip-rule:evenodd;fill-rule:evenodd"/><path d="M118.5 41c-1.7-1.8-3-2.5-4-4.7h-.6c-.8 1.5 0 4.8-2.3 4.6v.6c2-.2 1.9 2.5 2.3 4a4 4 0 0 1 4.6-4.6" style="fill:#ffe910;clip-rule:evenodd;fill-rule:evenodd"/><path d="M118.5 77.8c-.2-4.3-3.5 1-4.6 1.1v-1.7c-.7 1.2-.7 4 1.2 4.6v-1.7l-.6.6h.6v.6c-1.8.1-1.3-1.3-.6-2.4l1.1 1.2c.7-1.2 1.2-2.2 2.3-1.2 0-.7.4-.6.6-1.1" style="fill:#856741;clip-rule:evenodd;fill-rule:evenodd"/><path d="m118.5 46.1-.6-.6c-.2.8.2.4.6.6m-1.1 10.4c-.3-.4-1.1 0-2.4 0q.9.9 2.4 0" style="clip-rule:evenodd;fill-rule:evenodd"/><path d="M117.4 98c-.4-.3.2-.8-.6-.6v1.1z" style="fill:#dcd7dc;clip-rule:evenodd;fill-rule:evenodd"/><path d="M116.8 46.7c-.2-1-.3.3-.6 1.1h.6zm0-12.1-1.2 1.1c.4-.7.8-.8 1.2-1.1m-.6 23.6c-.6-1.4-.8.7-1.7 1.2v-3c0 .8-.5 1.6-.6 2.4-.6-.7-1-1-1.2-1.7.3 1.2 0 1 1.2 1.7-.7.7-.9 2.2-1.7 2.3s-.7-1.4-1.8-1.7q.2-1 .6-1.8h-.6c0 1.8-1 1.4-1.7 0 .3 1.3 1.1 1.2 1.7 1.8 0 0 .9 1.2.6 1.1 2.3 1.1 2.1.2 2.9-1.7.8 2 1.8.7 2.3-.6m-.6-10.4-.6-2.3c.3 2-1.3 3-1.1 4.6q.6-1 1.7-2.3m-.6-15.5q-.9 1.6-.5 3.4z" style="clip-rule:evenodd;fill-rule:evenodd"/><path d="M114.5 51.9c-.2.6-.9.7-.6 1.7-.7-.5-1.6-.6-2.3-1.2q.3 1.4 1.1 1.8v.5l-4-1.1v1.1c-.8-.3-1.6-1.2-2.3-1.7-.3-.2-.2 1-.9.3s-.8-1.4-1.4-2-1.2.8-1.2-.6c0-.8-.2-.6-.8-.6-.3 0-1-.6-2-.5l1.1-3q-.7-.6-1.7-1c.3-.5 1.7-1.2 1.6-1.6-.3-1.3-.5-2.3-1.6-3 .6-.2.7-.7 1.7-.7-1.4-3 .3-1.7 1.2-2.8q.8-1.4 1.7-2.4c1.6-1.7 5-2.7 8-4-4.6.9-13.3 3.6-15.8 8.7-.8 1.6-3 3.2-4.3 4.6a22 22 0 0 1-4 3.4c-2.6 1.7-5.2 2.8-7.5 4.6-4.7 3.5-10.6 4.9-15.6 7.5-2.4 1.3-4.8 3.2-7 4.6-2.2 1.6-5 3.4-6.9 5.2 2-1 5-2 6.7-3.7 2.4-2.4 5-2.8 7.8-4.3 1.8-1.1 4.5-3.5 6.6-3.5.6 0 3.7-.4 4.3-.6C78 57 77.6 56 79.3 56c1.3 0 2.2-1 3.2-2 .8-.8 2.7-1.1 3.7-1.5s2.8-.5 3.5-1.1c.6-.6.5-2.9 2-2.9h2l.6-.6c.3 0 .8 1.2 1.1 1.2.8 0 3-2.1 3 .3 0 .8.8-.1 1 .3.3.2-.2 2 0 2.3 1.3.8 3.8-1.4 3 1.7.8-1 1.3-.5 1.7.6q-.5.6-1.2 1.1c2-.4 4.5-1.4 5.8.6 0-1.8 1.1-1.4 1.7 0 .6-1.4 3.2.5 2.3-2.3h.6v.6q1.3-.5 1.2-2.3" style="fill:#8b5c29;clip-rule:evenodd;fill-rule:evenodd"/><path d="M114.5 100.3c-.5-2.2-1.8-4.6-4.4-2-.2.2-2 .8-2 .8q-.4 1.1.6 1.2c1.5 0-.2.7.6 1.1 1.9 1.2 4.6 1 5.2-1.1" style="fill:#dcd7dc;clip-rule:evenodd;fill-rule:evenodd"/><path d="M113.9 35.7V34h-.6v1.2h-.6v-.6h-.5q.3 1.4 1.7 1.1" style="clip-rule:evenodd;fill-rule:evenodd"/><path d="M113.3 96.8c0-.6-.6-1-.6-1.7-1 .2-1.5 1.3-2.3 2.3 1.3 0 2.6.4 3-.6" style="fill:#6c5b60;clip-rule:evenodd;fill-rule:evenodd"/><path d="m112.2 38-1.8-1.7c-.3 1.6.2 2.7 1.8 1.7M111 79q-.8-1-1.7-1.8 0 1.9 1.7 1.7" style="clip-rule:evenodd;fill-rule:evenodd"/><path d="m110.4 91.6-1.1-3.4v.5q-.5-.3-1.2-1.1l-.6 6.3c1.6.3 3.7-2 3-2.3" style="fill:#dcd7dc;clip-rule:evenodd;fill-rule:evenodd"/><path d="M110.4 61c-.8 1.4-1.7 1.7-2.3 0-.4.7-1.3 1.1-1.7 1.8q-.4-.8-.6-1.7v2.3q1.8-.2 2.3-1.7l.6 1.1q1-.7 1.7-1.7m-.5-11c-.3-.3.2-.7-.6-.5q-.2 1 0 2.3zm-.6-8.6-1.7 1.7c1.3 0 2.6-1 1.7-1.7m0-.5H108zm0 6.8c-.6.4-1 .7-1.2 1.8.1-1 .6-1 1.2-1.8m-1.2 20.8q-1.4 2.1-2.3 0c.1 1.4 0 .7 1.2 1.1q-1 1.4-2.3 1.8v-1.2c0 1.1.2 1 .5 1.7zm0-9.8-.5.6c-.2-.8-.5-1-.6-1.8-.4.4-1.3 1-1.8 1.8-.5-.8-1-.9-1.1-1.8-.1 1.9 2.5 2.7 2.3.6h.6v1.2q.7 0 1.1-.6m0-11c-1.5 1-1.1 2.5-1.1 4q-.3-2.1 1.1-4m0 50.2q-.5.4-.5 1.1 0-.7.5-1.1" style="clip-rule:evenodd;fill-rule:evenodd"/><path d="M108.1 95q-4.3.8-8.6 1.2c1.2 1 3 .6 4.6.6 2.4 0 3 1.5 4-1.7" style="fill:#6c5b60;clip-rule:evenodd;fill-rule:evenodd"/><path d="M107.6 87.6v-1.2c-1.3.8-2.2 1.6-3.5 0-.2 1.6 0 5-1.7 4l-1.8 4.7c.8-.1 5.7-.2 5.8-.8z" style="fill:#dcd7dc;clip-rule:evenodd;fill-rule:evenodd"/><path d="M107.6 66.3c-1 .3-1.7.8-1.8-.6l-.6.6c1 1.4 1.8.7 2.4 0" style="clip-rule:evenodd;fill-rule:evenodd"/><path d="M106.4 84.1c-1.7-2-3.9-5-5.2-7.5q-1-1.5-1.1-3.1c0-2.2-3.6-3-5.2-3.8l-.6 11.4c-.1 2.4 4.3-3.4 4-3.3a12 12 0 0 0-2.3 5c0 5.6 2 2.3 3.5-1-.5 1-1.7 4.7-1.2 5.8 1.3 2.4 2.6.3 3-1.2h.5q-.5 2.2 1.1 3.5v-5.8c1.2.2 1.7 1.8 2.3 3z" style="fill:#856741;clip-rule:evenodd;fill-rule:evenodd"/><path d="M105.8 64c-1.4.9-2-.3-2.3-1.8 0 1 .6 1.4.6 2 0 .4 3 .4 1.7-.2" style="clip-rule:evenodd;fill-rule:evenodd"/><path d="M105.8 99.1c.2-1.6-4-2.4-5.2-1.7-1.6 1-2.5 5-1.1 6 3.4 2.6 4.8-1.6 6.3-4.3" style="fill:#dcd7dc;clip-rule:evenodd;fill-rule:evenodd"/><path d="M105.2 73.2q-1 1-2.3 1.1c-.1-.8-.4-.8-.5-1.1-.1-.2.9 1.7 1.1 1.7.6 0 2.9-1.4 1.7-1.7m0-28.8c-.3.2-.7-.2-.5.5zm0-4.1q-1.2.2-2.3 1.2c1.3 0 1.6-.7 2.3-1.2m0 20.7c-1.3.4-2.5.4-2.3-1-.1 1.7 1 2 2.3 1m-.5 7c-.5.4-1.3.4-1.8 1.2l-.5-1.8.5 1.8q1-.5 1.8-1.2m-.7-26q-.4.7-1 1.2h.5q0-.7.6-1.1M103 57c-.3.7-.2 1.2-1.2 1.2.1-1.2 0-1.5-.6-2.3q0 1.5.6 2.9c1-.1 1-.8 1.1-1.7" style="clip-rule:evenodd;fill-rule:evenodd"/><path d="M101.8 89.3c-4.2 2-2.7-3.5-4.6-2.9-1.1.4-2.4 5-3 5.8-2.6 4.3-6.7 7.4-2.2 12.1 3.3 3.6 6-1.7 6.9-4.6l.6-2.3c0-.4-1.2-.9-1.2-1.5 0-.8 1.5-.3 1.8-.8 1-2 .8-4 1.7-5.8" style="fill:#dcd7dc;clip-rule:evenodd;fill-rule:evenodd"/><path d="M101.8 55.3c-1-.1-1.5.1-1.2-1.1h-.5l.5 1.7z" style="clip-rule:evenodd;fill-rule:evenodd"/><path d="M96 87c-1.5-1.8-2.3-6.4-2.3-9.2-.4 1.2-1.2 5.2-2 6-1.5 1.6-1.4 3.2-2.9 4.7a20 20 0 0 0-3.4 4.9l-1.5 2.3c-.5 1-.7 3-1.4 3.7-1 1-.2 2.2.5 2.9.9.8 2-1 2.6-1.5 1.1-.6 1.9-.1 2.6-1.7l2-2.3c2.7-3.2 4.2-6.4 5.8-9.8" style="fill:#dcd7dc;clip-rule:evenodd;fill-rule:evenodd"/><path d="M94.3 69.2c-1.5.4-2 2.6-3.2 3.7-1.6 1.6-3.7 3.2-3.7 5.5a43 43 0 0 1-.6 6.9c-.2 1 .2 2-.3 2.9-.5 1-1.6 2.2-1.4 3.4 3.6-2.7 5.1-7.5 6.9-11.5.8-1.8 1.7-4.1 1.7-6.3 0-1.7-.2-3.8.6-4.6" style="fill:#dcd7dc;clip-rule:evenodd;fill-rule:evenodd"/></svg>