<svg xmlns="http://www.w3.org/2000/svg" xmlns:xlink="http://www.w3.org/1999/xlink" viewBox="0 0 605.8 376.4"><defs><linearGradient xlink:href="#a" id="c" x1="188" x2="186.7" y1="186.5" y2="120.1" gradientTransform="translate(-37.1 -269.3)scale(2.7267)" gradientUnits="userSpaceOnUse"/><linearGradient id="a"><stop offset="0" stop-color="#7694a2"/><stop offset="1" stop-color="#7694a2" stop-opacity="0"/></linearGradient><linearGradient xlink:href="#a" id="b" x1="58" x2="58" y1="188.3" y2="123.2" gradientTransform="translate(-37.1 -269.3)scale(2.7267)" gradientUnits="userSpaceOnUse"/></defs><path fill="#698999" fill-rule="evenodd" d="M211.7 45.8c-6.9-33.7-120.8-37-154.8 0-15 14-65.8 112.7-55.6 269.3 16.1 58 78.8 80.3 123.2 36l38.4-53c44.6 44.2 96 19.7 117.2-19.7h45.3c16.5 27.7 56.5 71.5 115.4 22.2l35.9 48.7c32.5 33 67.2 39.3 106 0 32.3-38.6 26.2-128.7 9.4-200.9-17.8-67-21.8-78.2-41.1-101.9-38.4-39-153.4-28.4-158.8-1-7 26.7-32.2 26.9-62 25.1H271c-51.8 4-46.7-13.8-59.3-24.8"/><path fill="#303432" d="M351.1 276a41 41 0 0 1 26.7-51.3 41 41 0 0 1 51.4 26.7 41 41 0 0 1-26.5 51.3 41 41 0 0 1-51.5-26.4"/><path fill="#404643" d="M350 270.9a42 42 0 0 1 27.5-52.7 42 42 0 0 1 52.7 27.4 42 42 0 0 1-27.2 52.7 42 42 0 0 1-52.8-27"/><path fill="#303432" d="M176.6 276a41 41 0 0 1 26.7-51.3 41 41 0 0 1 51.4 26.7 41 41 0 0 1-26.6 51.3 41 41 0 0 1-51.4-26.4"/><path fill="url(#b)" d="M39.5 183.2A90 90 0 0 1 98.4 70.4a90 90 0 0 1 113 58.6A90 90 0 0 1 153 242.1 90 90 0 0 1 39.7 184"/><path fill="#303432" d="M76.9 170.4a51.6 51.6 0 0 1 33.7-64.7 51.6 51.6 0 0 1 64.7 33.6 51.6 51.6 0 0 1-33.4 64.8A51.6 51.6 0 0 1 77 170.8"/><path fill="#404643" d="M125.8 103.4a52 52 0 0 0-15.2 2.3l-1.6.6.5 33-32.5.2a52 52 0 0 0-.1 30.9l32.6.1-.5 33a52 52 0 0 0 32.9.6l1.4-.5-.5-33 32.5-.2a52 52 0 0 0 0-31h-32.5l.5-33a52 52 0 0 0-17.5-3m49.8 167.5a42 42 0 0 1 27.4-52.7 42 42 0 0 1 52.7 27.4 42 42 0 0 1-27.2 52.7 42 42 0 0 1-52.8-27"/><path fill="url(#c)" d="M394 183.2a90 90 0 0 1 58.9-112.8 90 90 0 0 1 113 58.6 90 90 0 0 1-58.5 113.1A90 90 0 0 1 394.2 184"/><path fill="#ff0" d="M459.8 118.6a20 20 0 0 1 13-25 20 20 0 0 1 25.2 13 20 20 0 0 1-13 25.1 20 20 0 0 1-25.2-12.9"/><path fill="navy" d="M416.1 164.2a20 20 0 0 1 13.1-25 20 20 0 0 1 25.1 13 20 20 0 0 1-13 25 20 20 0 0 1-25.1-12.8"/><path fill="green" d="M459.8 209.8a20 20 0 0 1 13-25.1 20 20 0 0 1 25.2 13 20 20 0 0 1-13 25.1 20 20 0 0 1-25.2-12.9"/><path fill="red" d="M503.4 164.2a20 20 0 0 1 13.1-25 20 20 0 0 1 25.1 13 20 20 0 0 1-13 25 20 20 0 0 1-25.1-12.8"/><g fill="#404643"><path fill-rule="evenodd" d="M452.4 21.4 456 6.1c2.2-6.6 31.4-7.4 42.4 3.2l17.4 18c-19-5.2-40.4-7.3-63.4-5.9m-300.9-2L147.9 5c-2.2-6.6-31.4-7.4-42.3 3.2l-17.3 19c20-4.1 36.6-8.1 63.2-7.8"/><rect width="30.6" height="20.3" x="339.2" y="157.1" ry="9.4"/><rect width="30.6" height="20.3" x="236.8" y="157.1" ry="9.4"/><rect width="30.6" height="20.3" x="351.4" y="102.6" ry="9.4"/><rect width="30.6" height="20.3" x="224.4" y="102.6" ry="9.4"/><path d="M570.2 345a163 163 0 0 1-7.1-55.7c0-33 3.5-50 15.5-75.3 6-12.8 10.8-26.3 12.8-36.2l3.1-15.8 2.4 12.3c11.8 62.7 10.1 124.5-4.2 157-4 9.2-15 23.6-18 23.6-.8 0-2.8-4.5-4.5-10m-553.2.7C3.4 327 2 321.4 1 285.8a675 675 0 0 1 1.5-57c2.4-27.9 7.7-64.6 9.1-63.2.5.5 2 7 3.5 14.3 1.4 7.4 6.5 22.5 11.3 33.6s10 25.9 11.5 32.8c3.5 16.3 3.5 53 0 70.9-2.8 14.7-9.7 35-12.4 36.7-1 .6-4.7-3.2-8.5-8.3"/></g></svg>