<svg xmlns="http://www.w3.org/2000/svg" xmlns:xlink="http://www.w3.org/1999/xlink" version="1.0" viewBox="0 0 390.4 327.8"><defs><clipPath id="T" clipPathUnits="userSpaceOnUse"><path d="M146.9 84.3q-1.4 0-1.4.3c0 .7 23.5 5.3 43.6 16.8 19.7 11.4 24.7 19.2 27.7 32.5 3.3 14.2 6 22.3 10.6 31.7 2.4 4.8 5.7 14.5 7.3 21.5a251 251 0 0 0 32.7 75.9 80 80 0 0 1 10.6 21.3l1.2 1.8 4.3 2.5 1.5.6 4.8 6c1.3.7 2.8 2.6 5.5 6.2 9.3 12.3 12.3 21 13.5 39.4a123 123 0 0 0 4 25.5c1.9 6 3.2 14.7 3.6 23.8q.6 14.4 2.7 17c2.8 3.9 3.5 2 5.6-14.7 2.3-17.8 2.3-36.4.2-78.2-2.3-44.4-1.3-58.1 4.4-58.1q3.1-.1 4-3.2c.6-2.5 2-3.2 6-3.2 2.8 0 5.5-.8 6-1.7.5-1 2.8-1.4 5.3-1 3.5.7 4.4.3 5-2.2.5-2.3 1.8-3 6-3 4.7 0 5.7-.6 6.8-4q1.2-4.1 4.6-4c2.7 0 3.3-.7 3.3-4.1 0-4 .3-4.2 6-3.4 6.1.8 8.6-.7 8.6-5.4 0-2.2 1-2.9 4.7-2.9q9.7-.1 9.9-7c0-3 .5-3.6 2.5-3 3.5 1 8-2.2 8-5.7 0-2.4 1.5-3 8-3.7 9.6-1 10.6-1.8 10.6-7.4 0-3.4 1.1-5 5.3-7.9 3-2 5.3-4.2 5.3-5s5-8.5 11.3-16.9a170 170 0 0 0 11.3-16.4c0-1.5-12.8 1.8-33.8 8.7a403 403 0 0 1-26 8c-.4.4-9 1-19.1 1.5a229 229 0 0 0-22.7 1.8c-2.4.6-4.4.5-4.4-.2s1.8-5.2 4-10 5-11.3 5.9-14.4 3.5-9.2 5.8-13.5a29 29 0 0 0 3.6-8.4c-1.4-1.7-15.4 8.7-34 25.4-25.6 22.8-37 29.7-49.4 29.7h-8.9l-11.4-21c-17.6-32.5-17.6-32.6-24-37.6-6.9-5.5-12.5-6.7-28.8-6.1l-11.9.4-17.2-9.7a149 149 0 0 0-48.6-15.3" style="fill:#0a0"/></clipPath><clipPath id="R" clipPathUnits="userSpaceOnUse"><path d="M166.5 94.8q-1.2 0-1.2.3c0 .5 19 3.7 35.2 11.9 15.9 8 20 13.5 22.4 23a86 86 0 0 0 8.5 22.3 76 76 0 0 1 5.9 15.2 166 166 0 0 0 26.4 53.6c5.5 8 7.9 12.1 8.6 15.1.7 1.1.9 1.2.9 1.2l3.5 1.8 1.2.4 3.9 4.2c1 .6 2.2 1.9 4.4 4.5 7.5 8.7 10 14.9 10.9 27.8a74 74 0 0 0 3.2 18 64 64 0 0 1 3 16.8c.3 7 1 10.7 2.1 12.1 2.3 2.7 2.8 1.4 4.5-10.4 1.9-12.6 1.9-25.7.2-55.3-1.9-31.3-1-41 3.5-41q2.5-.1 3.2-2.3c.6-1.7 1.7-2.2 4.9-2.2 2.2 0 4.4-.6 4.8-1.3.5-.7 2.3-1 4.3-.6 2.8.4 3.6.1 4-1.6s1.5-2.2 5-2.2c3.7 0 4.5-.4 5.4-2.8q1-2.9 3.7-2.8c2.2 0 2.7-.5 2.7-3 0-2.7.2-2.8 4.7-2.3 5 .6 7-.5 7-3.8 0-1.6 1-2 3.9-2q7.8-.1 8-5-.2-3 2-2.1c2.7.7 6.5-1.6 6.5-4 0-1.7 1-2.2 6.3-2.7 7.8-.7 8.6-1.3 8.6-5.2 0-2.4 1-3.6 4.3-5.6 2.4-1.4 4.3-3 4.3-3.6s4-6 9-11.9 9.2-11.1 9.2-11.6c0-1-10.4 1.3-27.3 6.2a344 344 0 0 1-20.9 5.7c-.4.2-7.4.7-15.5 1s-16.4 1-18.3 1.3-3.6.3-3.6-.2 1.5-3.6 3.4-7 3.9-8 4.6-10.2c.8-2.2 2.9-6.5 4.7-9.5s3.1-5.7 3-6c-1.2-1.2-12.5 6.2-27.5 18-20.7 16.1-30 21-39.9 21H281l-9.2-14.9c-14.2-23-14.3-23-19.3-26.5-5.7-4-10.2-4.8-23.3-4.4l-9.6.3-14-6.8a133 133 0 0 0-39.2-10.9" style="fill:#0a0"/></clipPath><clipPath id="P" clipPathUnits="userSpaceOnUse"><use xlink:href="#a" style="fill:#0a0"/></clipPath><clipPath id="O" clipPathUnits="userSpaceOnUse"><path d="M116.9 59.7q-2 0-2 .4c0 .8 33.4 6.2 62 20 28 13.5 35 22.8 39.4 38.6a142 142 0 0 0 15 37.6c3.5 5.7 8.1 17.2 10.4 25.5 7.8 28.8 22 56.2 46.5 90.2 9.7 13.3 13.9 20.3 15.1 25.3 1.3 1.9 1.6 2 1.6 2l6.2 3.1 2.2.7 6.8 7v.1c1.8.9 3.9 3 7.8 7.4 13.2 14.6 17.5 25 19.2 46.8.9 11.7 3 23.3 5.6 30.3a103 103 0 0 1 5.2 28.2c.6 11.6 1.9 18 3.9 20.4 4 4.5 4.9 2.3 7.9-17.5 3.2-21.2 3.3-43.3.2-93-3.3-52.7-1.8-69 6.3-69 2.8 0 5-1.4 5.7-3.8.9-3 2.8-3.8 8.5-3.8 4 0 7.9-1 8.6-2 .7-1.3 3.9-1.7 7.4-1.1 5 .8 6.4.3 7.2-2.7.7-2.8 2.6-3.6 8.7-3.6 6.5 0 8-.7 9.5-4.7 1.3-3.3 3.2-4.7 6.6-4.7 3.8 0 4.7-1 4.7-5 0-4.7.4-4.9 8.4-4 8.8 1 12.3-.8 12.3-6.4 0-2.7 1.5-3.5 6.7-3.5q13.8-.2 14-8.3c0-3.5.8-4.3 3.6-3.5 5 1.2 11.5-2.6 11.5-6.8 0-2.8 2-3.6 11.2-4.5 13.7-1.2 15.2-2 15.2-8.6 0-4.1 1.6-6.1 7.5-9.5 4.2-2.3 7.6-5 7.6-6s7.2-10 16-20a201 201 0 0 0 16-19.5c0-1.8-18.2 2.2-48 10.4a640 640 0 0 1-36.8 9.5c-.8.5-13 1.3-27.4 1.8a398 398 0 0 0-32.3 2.1c-3.4.7-6.2.5-6.2-.3s2.6-6.1 5.8-11.8c3.3-5.7 7-13.4 8.3-17.1s5-11 8.2-16 5.5-9.6 5.1-10c-2-2-21.8 10.3-48.3 30-36.4 27.2-52.7 35.4-70.3 35.4h-12.6l-16.1-25c-25-38.5-25.1-38.7-34-44.6-10-6.5-18-8-41-7.3l-17 .5L186 78a244 244 0 0 0-69.1-18.2" style="fill:#0a0"/></clipPath><clipPath id="M" clipPathUnits="userSpaceOnUse"><use xlink:href="#b" style="fill:#0a0"/></clipPath><clipPath id="L" clipPathUnits="userSpaceOnUse"><use xlink:href="#a" style="fill:#0a0"/></clipPath><clipPath id="I" clipPathUnits="userSpaceOnUse"><use xlink:href="#b" style="fill:#0a0"/></clipPath><clipPath id="F" clipPathUnits="userSpaceOnUse"><use xlink:href="#b" style="fill:#0a0"/></clipPath><clipPath id="C" clipPathUnits="userSpaceOnUse"><use xlink:href="#b" style="fill:#0a0"/></clipPath><clipPath id="z" clipPathUnits="userSpaceOnUse"><use xlink:href="#b" style="fill:#0a0"/></clipPath><clipPath id="w" clipPathUnits="userSpaceOnUse"><use xlink:href="#b" style="fill:#0a0"/></clipPath><clipPath id="t" clipPathUnits="userSpaceOnUse"><use xlink:href="#b" style="fill:#0a0"/></clipPath><clipPath id="q" clipPathUnits="userSpaceOnUse"><use xlink:href="#b" style="fill:#0a0"/></clipPath><clipPath id="n" clipPathUnits="userSpaceOnUse"><use xlink:href="#b" style="fill:#0a0"/></clipPath><clipPath id="k" clipPathUnits="userSpaceOnUse"><use xlink:href="#b" style="fill:#0a0"/></clipPath><clipPath id="h" clipPathUnits="userSpaceOnUse"><use xlink:href="#b" style="fill:#0a0"/></clipPath><clipPath id="f" clipPathUnits="userSpaceOnUse"><use xlink:href="#b" style="fill:#0a0"/></clipPath><clipPath id="d" clipPathUnits="userSpaceOnUse"><path d="M24.8 31.6q-1 0-1 .2c0 .5 17.7 3.3 32.8 10.6 14.9 7.2 18.7 12.1 21 20.5 2.4 9 4.5 14 8 20 1.8 3 4.2 9.1 5.4 13.5a146 146 0 0 0 24.7 47.9 47 47 0 0 1 8 13.4q1 1.3 1 1.1l3.2 1.7 1.1.3 3.7 3.8c1 .4 2 1.6 4 4a35 35 0 0 1 10.3 24.8c.5 6.1 1.6 12.3 3 16 1.4 3.8 2.4 9.3 2.7 15q.6 9.1 2 10.8c2.2 2.4 2.7 1.3 4.3-9.3 1.7-11.2 1.8-23 .1-49.3-1.7-28-1-36.7 3.4-36.7q2.3 0 3-2c.5-1.5 1.5-2 4.5-2 2.1 0 4.2-.5 4.5-1 .4-.7 2.1-1 4-.7 2.7.5 3.4.2 3.8-1.3s1.4-2 4.6-2c3.5 0 4.3-.4 5-2.5q1-2.5 3.6-2.5c2 0 2.5-.5 2.5-2.6 0-2.5.2-2.6 4.4-2.1 4.7.5 6.6-.5 6.6-3.5 0-1.4.8-1.8 3.5-1.8q7.4 0 7.5-4.4-.2-2.7 1.9-1.9c2.6.7 6-1.4 6-3.6 0-1.5 1.1-1.9 6-2.3 7.3-.7 8-1.2 8-4.6 0-2.2 1-3.3 4-5 2.3-1.3 4-2.7 4-3.3s3.9-5.3 8.6-10.6 8.5-10 8.5-10.3c0-1-9.7 1.1-25.5 5.5a336 336 0 0 1-19.6 5c-.3.3-6.9.7-14.5 1s-15.3.8-17.1 1.1-3.3.3-3.3-.1 1.4-3.3 3-6.3 3.8-7.1 4.5-9.1c.6-2 2.6-5.8 4.3-8.5 1.8-2.7 3-5.1 2.7-5.3-1-1-11.6 5.5-25.6 16-19.3 14.4-28 18.7-37.3 18.7h-6.7l-8.6-13.2C110 54.2 110 54 105.3 51c-5.3-3.5-9.6-4.2-21.8-3.9l-9 .3-13-6.1c-12.5-5.8-32-9.7-36.7-9.7" style="fill:#0a0"/></clipPath><clipPath id="c" clipPathUnits="userSpaceOnUse"><use xlink:href="#a" style="fill:#0a0"/></clipPath><filter id="N" width="1.3" height="1.1" x="-.1" y="0"><feGaussianBlur stdDeviation="3.5"/></filter><filter id="J"><feGaussianBlur stdDeviation="1.2"/></filter><filter id="G"><feGaussianBlur stdDeviation="1.2"/></filter><filter id="D"><feGaussianBlur stdDeviation="1.2"/></filter><filter id="A"><feGaussianBlur stdDeviation="1.2"/></filter><filter id="x"><feGaussianBlur stdDeviation="1.2"/></filter><filter id="u"><feGaussianBlur stdDeviation="1.2"/></filter><filter id="r"><feGaussianBlur stdDeviation="1.2"/></filter><filter id="o"><feGaussianBlur stdDeviation="1.2"/></filter><filter id="l" width="1.1" height="1.2" x="-.1" y="-.1"><feGaussianBlur stdDeviation="1.2"/></filter><filter id="i" width="1.1" height="1.3" x="-.1" y="-.2"><feGaussianBlur stdDeviation="1.2"/></filter><filter id="g" width="1" height="1.2" x="0" y="-.1"><feGaussianBlur stdDeviation=".9"/></filter><filter id="e"><feGaussianBlur stdDeviation=".4"/></filter><linearGradient id="S" x1="240.4" x2="241.5" y1="115.9" y2="121.2" gradientUnits="userSpaceOnUse"><stop offset="0" style="stop-color:#fff"/><stop offset="1" style="stop-color:#fff;stop-opacity:0"/></linearGradient><linearGradient id="Q" x1="479.9" x2="468.7" y1="162.8" y2="139.3" gradientUnits="userSpaceOnUse"><stop offset="0" style="stop-color:green"/><stop offset="1" style="stop-color:green;stop-opacity:0"/></linearGradient><linearGradient id="K" x1="303.6" x2="312.6" y1="191.8" y2="203.3" gradientUnits="userSpaceOnUse"><stop offset="0" style="stop-color:#5f9"/><stop offset="1" style="stop-color:#5f9;stop-opacity:0"/></linearGradient><linearGradient id="H" x1="310.1" x2="322.1" y1="187.9" y2="201.9" gradientUnits="userSpaceOnUse"><stop offset="0" style="stop-color:#5f9"/><stop offset="1" style="stop-color:#5f9;stop-opacity:0"/></linearGradient><linearGradient id="E" x1="313.7" x2="325.5" y1="183" y2="200.4" gradientUnits="userSpaceOnUse"><stop offset="0" style="stop-color:#5f9"/><stop offset="1" style="stop-color:#5f9;stop-opacity:0"/></linearGradient><linearGradient id="B" x1="317.2" x2="334.8" y1="173.8" y2="193.6" gradientUnits="userSpaceOnUse"><stop offset="0" style="stop-color:#5f9"/><stop offset="1" style="stop-color:#5f9;stop-opacity:0"/></linearGradient><linearGradient id="y" x1="327.7" x2="342.7" y1="172.9" y2="190.9" gradientUnits="userSpaceOnUse"><stop offset="0" style="stop-color:#5f9"/><stop offset="1" style="stop-color:#5f9;stop-opacity:0"/></linearGradient><linearGradient id="v" x1="336.1" x2="353.2" y1="170.7" y2="187.3" gradientUnits="userSpaceOnUse"><stop offset="0" style="stop-color:#5f9"/><stop offset="1" style="stop-color:#5f9;stop-opacity:0"/></linearGradient><linearGradient id="s" x1="344.4" x2="364.2" y1="162.8" y2="182.7" gradientUnits="userSpaceOnUse"><stop offset="0" style="stop-color:#5f9"/><stop offset="1" style="stop-color:#5f9;stop-opacity:0"/></linearGradient><linearGradient id="p" x1="358.5" x2="371.7" y1="160.6" y2="175.9" gradientUnits="userSpaceOnUse"><stop offset="0" style="stop-color:#5f9"/><stop offset="1" style="stop-color:#5f9;stop-opacity:0"/></linearGradient><linearGradient id="m" x1="366.4" x2="383.1" y1="157.6" y2="170.1" gradientUnits="userSpaceOnUse"><stop offset="0" style="stop-color:#5f9"/><stop offset="1" style="stop-color:#5f9;stop-opacity:0"/></linearGradient><linearGradient id="j" x1="372.1" x2="397.6" y1="151.4" y2="157.6" gradientUnits="userSpaceOnUse"><stop offset="0" style="stop-color:#5f9"/><stop offset="1" style="stop-color:#5f9;stop-opacity:0"/></linearGradient><path id="a" d="M26.8 31.6q-3 0-3 .6c0 1.4 51.4 9.6 95.4 30.8 43.3 20.9 54.2 35.2 60.9 59.6a213 213 0 0 0 23.3 58c5.2 8.9 12.4 26.6 15.8 39.4 12 44.3 34 86.6 71.8 139 15 20.6 21.4 31.3 23.3 39.1 2 3 2.5 3.2 2.5 3.2l9.6 4.7 3.3 1 10.5 11a52 52 0 0 1 12 11.4c20.4 22.6 27 38.6 29.6 72.3 1.4 17.9 4.8 35.9 8.7 46.6 4.1 11 7 27 8 43.6 1 17.8 2.9 27.8 6 31.3 6 7 7.5 3.7 12.2-27 5-32.7 5-66.7.3-143.3-5-81.3-2.7-106.5 9.8-106.5 4.3 0 7.5-2.2 8.7-5.8 1.4-4.5 4.4-5.8 13-5.8 6.3 0 12.3-1.5 13.3-3.3 1.2-1.8 6-2.5 11.6-1.7 7.7 1.3 9.8.5 11-4 1-4.3 4-5.6 13.4-5.6 10 0 12.4-1.1 14.7-7.3 2-5 5-7.2 10-7.2 6 0 7.4-1.4 7.4-7.7 0-7.3.6-7.5 13-6.2 13.6 1.6 19-1.2 19-10 0-4 2.3-5.2 10.4-5.2 14 0 21.5-4.5 21.5-12.9 0-5.3 1.3-6.5 5.5-5.4 7.6 2 17.8-4 17.8-10.4 0-4.4 3-5.6 17.2-6.9 21.1-2 23.5-3.3 23.5-13.4 0-6.3 2.4-9.4 11.6-14.5 6.4-3.6 11.6-7.8 11.6-9.3s11.1-15.4 24.7-30.9a311 311 0 0 0 24.7-30c0-2.8-28 3.3-74 16-20.9 5.7-41.7 11-46.3 11.9s-9.4 2-10.5 2.7-20.1 2-42.2 2.8c-22 .8-44.5 2.3-49.8 3.3s-9.6.8-9.6-.5c0-1.2 4-9.4 9-18.2s10.7-20.7 12.7-26.4c2-5.8 7.8-16.9 12.7-24.7s8.5-14.9 7.9-15.5c-3-3-33.7 16-74.6 46.5-56.1 41.9-81.2 54.5-108.3 54.5H338l-25-38.5c-38.5-59.5-38.7-59.7-52.5-68.9-15.2-10-27.7-12.3-63.2-11.2l-26.2.8-37.8-17.7c-36.1-17-93-28.1-106.5-28.2"/><path id="b" d="M171.7 97.5q-1 0-1 .3c0 .4 17.7 3.3 32.9 10.6 14.8 7.1 18.6 12 20.9 20.4 2.5 9 4.5 14 8 20 1.8 3 4.3 9.2 5.5 13.6a146 146 0 0 0 24.7 47.8 47 47 0 0 1 8 13.5c.7 1 .9 1 .9 1l3.2 1.7 1.2.3 3.6 3.8c1 .5 2 1.7 4.1 4 7 7.7 9.3 13.3 10.2 24.8.5 6.2 1.7 12.4 3 16 1.4 3.9 2.4 9.3 2.7 15q.5 9.1 2.1 10.9c2.1 2.4 2.6 1.2 4.2-9.3 1.8-11.3 1.8-23 .1-49.4-1.7-28-.9-36.6 3.4-36.6q2.3-.1 3-2c.5-1.6 1.5-2 4.5-2 2.1 0 4.2-.5 4.6-1.1q.8-1.1 4-.6c2.6.4 3.3.2 3.7-1.4s1.4-2 4.6-2c3.5 0 4.3-.3 5.1-2.4q1-2.6 3.5-2.5c2 0 2.5-.5 2.5-2.7 0-2.5.2-2.6 4.4-2 4.7.4 6.6-.5 6.6-3.5 0-1.4.8-1.8 3.6-1.8q7.3 0 7.4-4.5-.2-2.6 1.9-1.8c2.6.6 6.1-1.4 6.1-3.6 0-1.5 1-2 6-2.4 7.2-.7 8-1.1 8-4.6 0-2.2.8-3.2 4-5 2.2-1.3 4-2.7 4-3.2a82 82 0 0 1 8.5-10.6c4.7-5.4 8.5-10 8.5-10.4 0-1-9.6 1.2-25.5 5.5a342 342 0 0 1-19.5 5c-.4.3-7 .7-14.5 1s-15.3.8-17.2 1.2-3.3.2-3.3-.2 1.4-3.3 3.1-6.3 3.7-7 4.4-9 2.7-5.9 4.4-8.6 2.9-5 2.7-5.3c-1-1-11.6 5.5-25.7 16-19.3 14.4-28 18.8-37.3 18.8h-6.7l-8.5-13.3c-13.3-20.5-13.4-20.5-18.1-23.7-5.3-3.5-9.6-4.2-21.8-3.9l-9 .3-13-6c-12.4-5.9-32-9.7-36.7-9.8"/></defs><path d="M26.8 31.6q-3 0-3 .6c0 1.4 51.4 9.6 95.4 30.8 43.3 20.9 54.2 35.2 60.9 59.6a213 213 0 0 0 23.3 58c5.2 8.9 12.4 26.6 15.8 39.4 12 44.3 34 86.6 71.8 139 15 20.6 21.4 31.3 23.3 39.1 2 3 2.5 3.2 2.5 3.2l9.6 4.7 3.3 1 10.5 11a52 52 0 0 1 12 11.4c20.4 22.6 27 38.6 29.6 72.3 1.4 17.9 4.8 35.9 8.7 46.6 4.1 11 7 27 8 43.6 1 17.8 2.9 27.8 6 31.3 6 7 7.5 3.7 12.2-27 5-32.7 5-66.7.3-143.3-5-81.3-2.7-106.5 9.8-106.5 4.3 0 7.5-2.2 8.7-5.8 1.4-4.5 4.4-5.8 13-5.8 6.3 0 12.3-1.5 13.3-3.3 1.2-1.8 6-2.5 11.6-1.7 7.7 1.3 9.8.5 11-4 1-4.3 4-5.6 13.4-5.6 10 0 12.4-1.1 14.7-7.3 2-5 5-7.2 10-7.2 6 0 7.4-1.4 7.4-7.7 0-7.3.6-7.5 13-6.2 13.6 1.6 19-1.2 19-10 0-4 2.3-5.2 10.4-5.2 14 0 21.5-4.5 21.5-12.9 0-5.3 1.3-6.5 5.5-5.4 7.6 2 17.8-4 17.8-10.4 0-4.4 3-5.6 17.2-6.9 21.1-2 23.5-3.3 23.5-13.4 0-6.3 2.4-9.4 11.6-14.5 6.4-3.6 11.6-7.8 11.6-9.3s11.1-15.4 24.7-30.9a311 311 0 0 0 24.7-30c0-2.8-28 3.3-74 16-20.9 5.7-41.7 11-46.3 11.9s-9.4 2-10.5 2.7-20.1 2-42.2 2.8c-22 .8-44.5 2.3-49.8 3.3s-9.6.8-9.6-.5c0-1.2 4-9.4 9-18.2s10.7-20.7 12.7-26.4c2-5.8 7.8-16.9 12.7-24.7s8.5-14.9 7.9-15.5c-3-3-33.7 16-74.6 46.5-56.1 41.9-81.2 54.5-108.3 54.5H338l-25-38.5c-38.5-59.5-38.7-59.7-52.5-68.9-15.2-10-27.7-12.3-63.2-11.2l-26.2.8-37.8-17.7c-36.1-17-93-28.1-106.5-28.2z" clip-path="url(#c)" style="stroke:#000;stroke-width:3.9868;fill:#0a0" transform="matrix(.55245 0 0 .55119 -13.1 -17.4)"/><path d="m76.7 58.3.1 1.3 1 3c2.5 9 4.6 14 8 20 1.9 3 4.3 9.1 5.5 13.5A146 146 0 0 0 116 144c6.3 8.7 8.6 11.6 8.6 14.4 1.7.8 7.6 5.3 12.5 9.8a33 33 0 0 1 9 16.6c.3-2.4.4-6.3-.2-9.3-.8-4.6-4.6-10.7-6.7-20.3-2-9.6-13.3-25-22.6-39.3s-14-28.8-21.3-42.8c-7.2-14-18.6-14.8-18.6-14.8" clip-path="url(#d)" style="filter:url(#e);fill:#fff" transform="matrix(1.60509 0 0 1.60143 -38.1 -50.6)"/><path d="M280.5 156.3q4.6 7.5 5.7 7.1c1-.4 56.8-11.6 65.1-12.1 8.4-.5 15.8-3 15.8-3s-9.5-.5-15.3 0-71.7 8-71.3 8" clip-path="url(#f)" style="opacity:.60385;filter:url(#g);fill-rule:evenodd;fill:#00d400" transform="matrix(1.60509 0 0 1.60143 -274 -156.2)"/><path d="m364.3 149-1.1.4 26.7 12.8q.9-1 3-2.2c2.2-1.2 4-2.7 4-3.2s2-3.2 6.8-8.6c-7.4 1.7-26 4-39.4.9" clip-path="url(#h)" style="filter:url(#i);fill-rule:evenodd;fill:url(#j)" transform="matrix(1.60509 0 0 1.60143 -274 -156.2)"/><path d="m358.2 150.5-1.2.2 20 19.4 3.8-.5c7.3-.6 8.1-1.1 8.1-4.6q0-.8.2-1.4c-7.7-.4-28-10.9-31-13.1" clip-path="url(#k)" style="filter:url(#l);fill-rule:evenodd;fill:url(#m)" transform="matrix(1.60509 0 0 1.60143 -274 -156.2)"/><path d="M348.2 151.7h-.8l19.8 24.2q.3-.7 1.6-.3c2.6.7 6.1-1.4 6.1-3.6q-.1-1 1-1.5c-5.7-.3-23.5-14.9-27.7-18.8" clip-path="url(#n)" style="filter:url(#o);fill-rule:evenodd;fill:url(#p)" transform="matrix(1.60509 0 0 1.60143 -274 -156.2)"/><path d="m336.3 153.7-1 .1 21 28.9q.4-.8 3.2-.8 7.3 0 7.4-4.5 0-.8.2-1.2c-4.5-.3-25.4-16.6-30.9-22.5" clip-path="url(#q)" style="filter:url(#r);fill-rule:evenodd;fill:url(#s)" transform="matrix(1.60509 0 0 1.60143 -274 -156.2)"/><path d="M325 155.8h-.5l21.3 31.2q.9-.2 3.5.1c4.7.6 6.6-.5 6.6-3.4v-.6c-5.3-1.5-28-22.5-31-27.3" clip-path="url(#t)" style="filter:url(#u);fill-rule:evenodd;fill:url(#v)" transform="matrix(1.60509 0 0 1.60143 -274 -156.2)"/><path d="M315 157.7h-.6l25.1 35.5q1-1.3 2.9-1.3c2 0 2.5-.5 2.5-2.7q0-1.2.3-1.8c-4.4-1.3-26.4-25.2-30.2-29.7" clip-path="url(#w)" style="filter:url(#x);fill-rule:evenodd;fill:url(#y)" transform="matrix(1.60509 0 0 1.60143 -274 -156.2)"/><path d="M305.3 159.6h-.4l26.3 37.5q1-.2 2.6-.2c3.5 0 4.3-.4 5.1-2.5l.4-.9a493 493 0 0 1-34-34" clip-path="url(#z)" style="filter:url(#A);fill-rule:evenodd;fill:url(#B)" transform="matrix(1.60509 0 0 1.60143 -274 -156.2)"/><path d="M298 161h-.2l25 39.2a8 8 0 0 1 2.6 0c2.7.4 3.4.1 3.8-1.4q.2-.9.8-1.3c-4.9-.4-31-34.9-32-36.5" clip-path="url(#C)" style="filter:url(#D);fill-rule:evenodd;fill:url(#E)" transform="matrix(1.60509 0 0 1.60143 -274 -156.2)"/><path d="m292 162.2 23.7 39.7h1.2c2.1 0 4.2-.5 4.6-1.2l.2-.1v-.1l.4-.2c-5-2.1-29.2-36.9-30-38" clip-path="url(#F)" style="filter:url(#G);fill-rule:evenodd;fill:url(#H)" transform="matrix(1.60509 0 0 1.60143 -274 -156.2)"/><path d="M288.4 164.5c.2.4 17 37.2 19.4 41.7h.1l1-.3q.3-.2.5 0 2.5-.1 3.2-2.2c-4.2-3.4-20.3-33-24.2-39.2" clip-path="url(#I)" style="filter:url(#J);fill-rule:evenodd;fill:url(#K)" transform="matrix(1.60509 0 0 1.60143 -274 -156.2)"/><path d="M303.7 460.2s-1 8 2.2 13.9c1.4 2.7 3.5 6.7 6.7 6.5 3.2-.1 7.2-2.3 9-3.1 1.9-.9-1-9.6-4.1-10.4s-4.2 2.1-4.2 2.1l3.2 3.6c-1.3.8-2.2 1.6-1.7 2.5-1-1.4-2-3.1-3.9-3.2 1.7-1.3 1.8-3.4 1.7-5.5l2.2-.5z" style="fill-rule:evenodd;fill:#803300" transform="matrix(.55245 0 0 .55119 -6 -50.2)"/><path d="M26.7 31.6q-3 0-3 .6c0 1.3 51.5 9.6 95.6 30.8 31.7 15.3 46 27.1 54 42 10.3-16.3 5.9-22.5 0-27.6H171l-37.8-17.7c-36.1-16.9-93-28-106.6-28.1" clip-path="url(#L)" style="fill-rule:evenodd;color:#000;fill:#000" transform="matrix(.55245 0 0 .55119 -13.1 -17.4)"/><path d="M249.6 113.6c8.7 16.8-24.6-10.7-16 6 12 3 43.8 56.1 45 61.7 8.7 11.5 14.2 15.3 17 33a570 570 0 0 0 2.7 49c2.6 6-.1 13 2 20.2 3.3 2.5-1.2 16 3 14 3-8.3 0-16.6 1.3-23.2-.1-7.7 4.4-13.8 2.7-21.3-2.6-8-.3-16.9-1.5-25.3-1.5-7.1.8-15.3.3-22.6-.6-7-10.5-10.7-11.7-17.8-8-14-14.3-28.5-22.4-42.4-4.6-8-18-23-22.4-31.3" clip-path="url(#M)" style="filter:url(#N);fill-rule:evenodd;fill:#050" transform="matrix(1.60509 0 0 1.60143 -274 -156.2)"/><path d="M256.7 103a6.5 6.5 0 1 1-13 0 6.5 6.5 0 1 1 13 0" clip-path="url(#O)" style="fill-rule:evenodd;color:#000;fill:#000" transform="matrix(.8521 0 0 .85016 -98 -50.7)"/><path d="M539.4 94c-6-.3-35.4 18.3-73.7 46.8-54 40.3-79.4 53.5-105.4 54.4l-1.3 1L499 180c.8-2.3 3.5-11.2 8-19.1 5-8.8 10.6-20.7 12.7-26.4 2-5.8 7.8-16.9 12.8-24.7s8.4-14.9 7.8-15.6z" clip-path="url(#P)" style="fill-rule:evenodd;fill:url(#Q)" transform="matrix(.55245 0 0 .55119 -13.1 -17.4)"/><path d="M243.8 119.8a2.2 2.2 0 1 1-4.5 0 2.2 2.2 0 1 1 4.5 0" clip-path="url(#R)" style="fill-rule:evenodd;color:#000;fill:url(#S)" transform="matrix(1.50145 0 0 1.42907 -248.3 -135.5)"/><path d="M245.7 120.3a5.1 5.1 0 1 1-10.2 0 5.1 5.1 0 1 1 10.2 0z" clip-path="url(#T)" style="color:#000;stroke:#000;stroke-linecap:round;stroke-width:2.8919;fill:none" transform="matrix(1.21158 0 0 1.00984 -176.3 -85)"/></svg>