<svg xmlns="http://www.w3.org/2000/svg" xml:space="preserve" viewBox="0 0 888.8 727.9"><g transform="matrix(2.6019 0 0 2.4767 -33.8 -57.1)"><linearGradient id="a" x1="213.3" x2="271.7" y1="226.2" y2="293.4" gradientUnits="userSpaceOnUse"><stop offset="0" style="stop-color:#fff"/><stop offset=".1" style="stop-color:#fcdbfb"/><stop offset=".3" style="stop-color:#f8aef6"/><stop offset=".4" style="stop-color:#f692f3"/><stop offset=".5" style="stop-color:#f587f2"/></linearGradient><path d="M220.4 222.2s67 4 64 70.5v8s-47.5 11-80-41.3l-8.9-20.7z" style="stroke:#d5d6d7;stroke-width:.19697;fill:url(#a)"/><linearGradient id="b" x1="153.5" x2="114.6" y1="250.7" y2="293" gradientUnits="userSpaceOnUse"><stop offset="0" style="stop-color:#fff"/><stop offset=".1" style="stop-color:#fcdbfb"/><stop offset=".3" style="stop-color:#f8aef6"/><stop offset=".4" style="stop-color:#f692f3"/><stop offset=".5" style="stop-color:#f587f2"/></linearGradient><path d="M134.6 234.3S112 247 110 301c0 0 41.1 14.8 57.4-39z" style="stroke:#d5d6d7;stroke-width:.19697;fill:url(#b)"/><linearGradient id="c" x1="13.5" x2="150" y1="224.8" y2="224.8" gradientUnits="userSpaceOnUse"><stop offset=".1" style="stop-color:#fff"/><stop offset=".2" style="stop-color:#fde8fc"/><stop offset=".3" style="stop-color:#fbcaf9"/><stop offset=".3" style="stop-color:#f9b1f7"/><stop offset=".4" style="stop-color:#f79ef5"/><stop offset=".5" style="stop-color:#f691f3"/><stop offset=".7" style="stop-color:#f589f2"/><stop offset="1" style="stop-color:#f587f2"/></linearGradient><path d="M150 227.3s-21 28.7-61.5 18.2-77.2-36.7-74.9-43.7" style="stroke:#d5d6d7;stroke-width:.19697;fill:url(#c)"/><linearGradient id="d" x1="236.1" x2="354.5" y1="198.9" y2="198.9" gradientUnits="userSpaceOnUse"><stop offset=".1" style="stop-color:#fff"/><stop offset=".1" style="stop-color:#fffeff"/><stop offset=".2" style="stop-color:#fcdafb"/><stop offset=".4" style="stop-color:#f9bcf8"/><stop offset=".5" style="stop-color:#f7a5f5"/><stop offset=".6" style="stop-color:#f694f3"/><stop offset=".8" style="stop-color:#f58af2"/><stop offset="1" style="stop-color:#f587f2"/></linearGradient><path d="M354.5 163.5s0 28.5-52.5 55.5-65.9 10-65.9 10" style="stroke:#d5d6d7;stroke-width:.19697;fill:url(#d)"/><linearGradient id="e" x1="172" x2="155.8" y1="151.2" y2="74.3" gradientUnits="userSpaceOnUse"><stop offset=".1" style="stop-color:#fff"/><stop offset=".3" style="stop-color:#fcdbfb"/><stop offset=".6" style="stop-color:#f8aef6"/><stop offset=".8" style="stop-color:#f692f3"/><stop offset="1" style="stop-color:#f587f2"/></linearGradient><path d="M140.5 156.5s-33.5-21-9-108c0 0 4.5-35 20-22.7C167 38 207 59 200.5 106.5L194 154z" style="stroke:#d5d6d7;stroke-width:.19697;fill:url(#e)"/><linearGradient id="f" x1="242.2" x2="325.5" y1="126.3" y2="126.3" gradientUnits="userSpaceOnUse"><stop offset=".1" style="stop-color:#fff"/><stop offset=".2" style="stop-color:#fde6fc"/><stop offset=".3" style="stop-color:#fac9f9"/><stop offset=".3" style="stop-color:#f8b1f7"/><stop offset=".4" style="stop-color:#f79ef4"/><stop offset=".5" style="stop-color:#f691f3"/><stop offset=".7" style="stop-color:#f589f2"/><stop offset="1" style="stop-color:#f587f2"/></linearGradient><path d="M325.5 76.5S310 152 266 176c0 0-17-3.3-23.8-24.6" style="stroke:#d5d6d7;stroke-width:.19697;fill:url(#f)"/><linearGradient id="g" x1="241.2" x2="304.5" y1="144.1" y2="83.1" gradientUnits="userSpaceOnUse"><stop offset=".1" style="stop-color:#fff"/><stop offset=".2" style="stop-color:#fde6fc"/><stop offset=".3" style="stop-color:#fac9f9"/><stop offset=".3" style="stop-color:#f8b1f7"/><stop offset=".4" style="stop-color:#f79ef4"/><stop offset=".5" style="stop-color:#f691f3"/><stop offset=".7" style="stop-color:#f589f2"/><stop offset="1" style="stop-color:#f587f2"/></linearGradient><path d="M238.5 113.5s2.5-27.5 53-37c0 0 36.5-7.5 34 0s-24 63-59.5 80-27.5-43-27.5-43z" style="stroke:#d5d6d7;stroke-width:.19697;fill:url(#g)"/><linearGradient id="h" x1="219" x2="245.8" y1="93.8" y2="93.8" gradientUnits="userSpaceOnUse"><stop offset=".1" style="stop-color:#fff"/><stop offset=".3" style="stop-color:#fcdbfb"/><stop offset=".6" style="stop-color:#f8aef6"/><stop offset=".8" style="stop-color:#f692f3"/><stop offset="1" style="stop-color:#f587f2"/></linearGradient><path d="M221 25.8s9.9-19.6 23.8 98.2l.2 2s8 19-26 37" style="stroke:#d5d6d7;stroke-width:.098483;fill:url(#h)"/><linearGradient id="i" x1="202.1" x2="223.3" y1="150.6" y2="35.3" gradientUnits="userSpaceOnUse"><stop offset=".1" style="stop-color:#fff"/><stop offset=".3" style="stop-color:#fcdbfb"/><stop offset=".6" style="stop-color:#f8aef6"/><stop offset=".8" style="stop-color:#f692f3"/><stop offset="1" style="stop-color:#f587f2"/></linearGradient><path d="M185.5 144.5S166 94 208.5 37c0 0 16.5-32.5 20 13s17.5 79-4.5 107.5l-5 5.5z" style="stroke:#d5d6d7;stroke-width:.19697;fill:url(#i)"/><linearGradient id="j" x1="214" x2="354.5" y1="186.3" y2="186.3" gradientUnits="userSpaceOnUse"><stop offset=".1" style="stop-color:#fff"/><stop offset=".1" style="stop-color:#fffeff"/><stop offset=".2" style="stop-color:#fcdafb"/><stop offset=".4" style="stop-color:#f9bcf8"/><stop offset=".5" style="stop-color:#f7a5f5"/><stop offset=".6" style="stop-color:#f694f3"/><stop offset=".8" style="stop-color:#f58af2"/><stop offset="1" style="stop-color:#f587f2"/></linearGradient><path d="M287.5 147s18.5-14.5 67 16.5c0 0-50.5 35.5-82.5 50S236.1 229 236.1 229L214 196.5z" style="stroke:#d5d6d7;stroke-width:.19697;fill:url(#j)"/><linearGradient id="k" x1="28.5" x2="110.1" y1="136.4" y2="136.4" gradientUnits="userSpaceOnUse"><stop offset=".1" style="stop-color:#fff"/><stop offset=".2" style="stop-color:#fde8fc"/><stop offset=".3" style="stop-color:#fbcaf9"/><stop offset=".3" style="stop-color:#f9b1f7"/><stop offset=".4" style="stop-color:#f79ef5"/><stop offset=".5" style="stop-color:#f691f3"/><stop offset=".7" style="stop-color:#f589f2"/><stop offset="1" style="stop-color:#f587f2"/></linearGradient><path d="M29.4 84.4s-5.9-1.2 12.1 32 42 74 68.6 71.9" style="stroke:#d5d6d7;stroke-width:.19697;fill:url(#k)"/><linearGradient id="l" x1="159" x2="21.5" y1="202.2" y2="197.7" gradientUnits="userSpaceOnUse"><stop offset=".1" style="stop-color:#fff"/><stop offset=".2" style="stop-color:#fde8fc"/><stop offset=".3" style="stop-color:#fbcaf9"/><stop offset=".3" style="stop-color:#f9b1f7"/><stop offset=".4" style="stop-color:#f79ef5"/><stop offset=".5" style="stop-color:#f691f3"/><stop offset=".7" style="stop-color:#f589f2"/><stop offset="1" style="stop-color:#f587f2"/></linearGradient><path d="M150 227.3s-123-4.8-133-19.6 0-10.7 20.5-26.2 55-5.2 63.5 8.7 49 37 49 37z" style="stroke:#d5d6d7;stroke-width:.19697;fill:url(#l)"/><radialGradient id="m" cx="178.8" cy="266.2" r="60.9" fx="180.2" fy="244.9" gradientTransform="matrix(1 0 0 2.5387 0 -409.6)" gradientUnits="userSpaceOnUse"><stop offset="0" style="stop-color:#fff"/><stop offset=".1" style="stop-color:#fcdbfb"/><stop offset=".3" style="stop-color:#f8aef6"/><stop offset=".4" style="stop-color:#f692f3"/><stop offset=".5" style="stop-color:#f587f2"/></radialGradient><path d="M135.5 239.5s-9.5 42.5 32 74c0 0 11.5 10 21-4.5s50.5-47.5 28-74.7-18.5-16.8-18.5-16.8l-48-2z" style="stroke:#d5d6d7;stroke-width:.19697;fill:url(#m)"/><linearGradient id="n" x1="137.8" x2="64.6" y1="181.3" y2="95" gradientUnits="userSpaceOnUse"><stop offset=".1" style="stop-color:#fff"/><stop offset=".2" style="stop-color:#fde8fc"/><stop offset=".3" style="stop-color:#fbcaf9"/><stop offset=".3" style="stop-color:#f9b1f7"/><stop offset=".4" style="stop-color:#f79ef5"/><stop offset=".5" style="stop-color:#f691f3"/><stop offset=".7" style="stop-color:#f589f2"/><stop offset="1" style="stop-color:#f587f2"/></linearGradient><path d="M136 126.6s-18.5-43.2-89.5-43.2c0 0-30-7-12 14.4s45 105.6 101.5 91l6-25.8z" style="stroke:#d5d6d7;stroke-width:.19697;fill:url(#n)"/><path d="M148 165.7s16.5 48.1 18.6 53.2c2 5 37.4 2.9 37.4 2.9l17.4-56.1s-33.5-38.8-73.4 0z" style="stroke:#f29d80;stroke-width:.098483;fill:#f6ea60"/><ellipse cx="184.7" cy="165.7" rx="36.7" ry="20.4" style="stroke:#f29d80;stroke-width:.098483;fill:#f6ea60"/><ellipse cx="184.7" cy="165.7" rx="28.4" ry="13.9" style="fill:#f6ae80"/><ellipse cx="166.6" cy="162.8" rx="6.4" ry="2.9" style="stroke:#f29d80;stroke-width:.098483;fill:#f6ea60"/><ellipse cx="174.1" cy="171.4" rx="6.4" ry="2.9" style="stroke:#f29d80;stroke-width:.098483;fill:#f6ea60"/><ellipse cx="195.5" cy="172.9" rx="6.4" ry="2.9" style="stroke:#f29d80;stroke-width:.098483;fill:#f6ea60"/><ellipse cx="185.8" cy="165.7" rx="6.4" ry="2.9" style="stroke:#f29d80;stroke-width:.098483;fill:#f6ea60"/><ellipse cx="204.1" cy="165.7" rx="6.4" ry="2.9" style="stroke:#f29d80;stroke-width:.098483;fill:#f6ea60"/><ellipse cx="194.4" cy="159" rx="6.4" ry="2.9" style="stroke:#f29d80;stroke-width:.098483;fill:#f6ea60"/><ellipse cx="179.4" cy="157.6" rx="6.4" ry="2.9" style="stroke:#f29d80;stroke-width:.098483;fill:#f6ea60"/><linearGradient id="o" x1="177.8" x2="165.8" y1="215.8" y2="152.7" gradientUnits="userSpaceOnUse"><stop offset=".1" style="stop-color:#fff"/><stop offset=".3" style="stop-color:#fcdbfb"/><stop offset=".6" style="stop-color:#f8aef6"/><stop offset=".8" style="stop-color:#f692f3"/><stop offset="1" style="stop-color:#f587f2"/></linearGradient><path d="M151 207.7s-25-37.2-6-79.2 51 32 56.2 47.5-13.7 41.5-13.7 41.5-16.5 12-36.5-9.8z" style="stroke:#d5d6d7;stroke-width:.19697;fill:url(#o)"/><linearGradient id="p" x1="209.9" x2="270.1" y1="202.6" y2="142.6" gradientUnits="userSpaceOnUse"><stop offset=".1" style="stop-color:#fff"/><stop offset=".1" style="stop-color:#fffeff"/><stop offset=".2" style="stop-color:#fcdafb"/><stop offset=".4" style="stop-color:#f9bcf8"/><stop offset=".5" style="stop-color:#f7a5f5"/><stop offset=".6" style="stop-color:#f694f3"/><stop offset=".8" style="stop-color:#f58af2"/><stop offset="1" style="stop-color:#f587f2"/></linearGradient><path d="M206 206s19.4-67.3 60.5-79.7c0 0 25.5-10.3 24.5-5.8s-16 64-53.3 75.5z" style="stroke:#d5d6d7;stroke-width:.19697;fill:url(#p)"/><linearGradient id="q" x1="186.8" x2="142.1" y1="219.6" y2="203.9" gradientUnits="userSpaceOnUse"><stop offset=".1" style="stop-color:#fff"/><stop offset=".1" style="stop-color:#fffcff"/><stop offset=".2" style="stop-color:#fcddfb"/><stop offset=".2" style="stop-color:#fac2f8"/><stop offset=".3" style="stop-color:#f8acf6"/><stop offset=".4" style="stop-color:#f79bf4"/><stop offset=".5" style="stop-color:#f690f3"/><stop offset=".6" style="stop-color:#f589f2"/><stop offset="1" style="stop-color:#f587f2"/></linearGradient><path d="M182.5 213.5S193 192 155 184s-67.5 2.3-67.5 2.3L82 176s-10 14 18 31.7 43 31.3 82.5 5.8z" style="stroke:#d5d6d7;stroke-width:.19697;fill:url(#q)"/><linearGradient id="r" x1="164.5" x2="268.5" y1="208.7" y2="208.7" gradientUnits="userSpaceOnUse"><stop offset=".1" style="stop-color:#fff"/><stop offset=".1" style="stop-color:#fffeff"/><stop offset=".2" style="stop-color:#fcdafb"/><stop offset=".4" style="stop-color:#f9bcf8"/><stop offset=".5" style="stop-color:#f7a5f5"/><stop offset=".6" style="stop-color:#f694f3"/><stop offset=".8" style="stop-color:#f58af2"/><stop offset="1" style="stop-color:#f587f2"/></linearGradient><path d="M164.5 218s18.5-20 87.5-14.5c0 0 8 4 12-10s-2.5-16.5-2.5-16.5 15 3 1 33-70.5 46.5-98 8z" style="stroke:#d5d6d7;stroke-width:.19697;fill:url(#r)"/></g></svg>