<svg xmlns="http://www.w3.org/2000/svg" viewBox="0 0 500 500"><path fill="#00a1a7" d="M326.8 212a76.7 76.7 0 1 1-153.5 0 76.7 76.7 0 0 1 153.5 0"/><path fill="#64345b" d="M315.7 51.3c-.3 0-9.3 21.8-21 50h-.4c11.2-28.8 19.5-50.6 19.3-50.8l-1.7 4 1.4-4c-.2 0-4.4 10-11 26.3 6.3-16.7 10-26.8 9.9-26.8a741 741 0 0 0-9.8 24.2c5.1-14 9-24.5 8.7-24.5l-10.4 26.5c6-16.9 9.5-27 9.3-27s-5.5 14.3-12.5 32.7c6.5-18.5 11.6-33 11.4-33a534 534 0 0 0-11 28.7c6.3-18.3 10-29.1 9.7-29.2 0-.1-3.6 9.6-8.3 22.9 4.4-13.3 7.7-23.1 7.5-23.2s-4.3 11-10.6 28.8c6-18.3 9.6-29.3 9.4-29.3-.3 0-7.9 22-17.8 51 9.4-29.1 16.4-51.4 16.1-51.5s-6.6 18.6-16 46.9c8.8-28.5 14.6-47.5 14.4-47.6 0 0-1 2.5-2.2 6.2a49 49 0 0 0 1.7-6.3c-.3 0-6.3 18.8-15.4 47.2a1256 1256 0 0 0 13.7-47.7l-3.8 11.8c2-7 3.3-11.9 3.2-11.9-.2-.1-6.9 21.6-15.6 50.3 8.5-30.5 14-50.8 13.8-50.9l-1.1 3.6c.5-2 .8-3.7.7-3.7s-5.8 19.1-13 44a2186 2186 0 0 0 11.6-44.3l-1 3 .7-3c-.3-.1-6.2 20.8-15 52 8.1-31.8 13.4-52.5 13.1-52.6-.2 0-3.1 10.8-7 25.1 3.5-14.4 6.2-25.4 6-25.4s-4.2 15.2-10.5 39a1072 1072 0 0 0 9-39.3l-3.6 13.4 3-13.6c-.2 0-4 15.2-10 39A1112 1112 0 0 0 289 43c-.2 0-2.6 9.7-5.8 23l4.6-21.6q0-.9.2-1.3v-.4c-.3 0-5.6 22.8-12.5 52.7h-.3c4.4-20.9 8-38.7 9.5-46.7l.9-4.8.2-1.3v-.3c-.2-.1-4.5 19.2-9.9 44 5-25 8.6-44.4 8.4-44.4s-2 8.1-4.5 19.8c2.3-11.6 3.8-19.9 3.6-20-.1 0-3.5 15.7-7.6 35.7 3.8-20.1 6.4-35.9 6.3-36l-4.1 20c2-11.8 3.4-20 3.2-20-.2-.2-4 19.9-9 45.7 3-17.2 5.3-31.6 6.5-38.9l1-7-.1.2-.3 1.3-1 4.8-8.6 46.8h-.1l7-46.5 1-7.1-.3.4-.2 1.3-.9 4.6c-.6 3.5-1.6 9.8-2.9 16.6 2-13.4 3.4-23 3.2-23-.2-.2-2.8 15.2-6.7 38.9 3.4-23.8 5.4-39 5.2-39.2l-2.3 13.5c1-8.2 1.7-13.6 1.6-13.7-.3 0-2.6 15.3-6.1 39.1 3-23.8 4.9-39 4.6-39.2-.1 0-1.7 10.6-3.7 24.9a556 556 0 0 0 2.7-25c-.2 0-3.4 22.8-7.4 53.7h-.3c3.3-30.8 5.7-54 5.5-54l-1 6.6.6-6.6a567 567 0 0 0-3.4 26.4 404 404 0 0 0 2.2-26.6c-.2 0-1.6 12.7-3.5 29.2 1.5-16.6 2.6-29.2 2.5-29.3-.2 0-1.3 10.5-3 26.5 1.4-16.8 2-26.6 1.8-26.6s-2 17.6-4.2 40.2l2.9-40.3a549 549 0 0 0-2.6 26.9 492 492 0 0 0 1.4-27c-.1 0-1.3 13.2-2.7 30.2 1-17 1.8-30.3 1.6-30.3s-1 10.8-2.3 26.9c1-16.5 1.4-27 1.2-27-.3 0-2 23.5-4.1 54 1.5-30.6 2.6-54 2.4-54s-1.6 20.6-3.5 51.5a1197 1197 0 0 0 1.2-48v-3.6c-.2 0-1.3 20.5-2.7 51.5.7-31 1-51.6.9-51.7-.1 0-.4 3.9-.7 9.2l.1-9.1c-.2 0-1 20.6-2.1 52.5.4-31.6.4-52.6.2-52.6l-.2 3.7c0-2 0-3.6-.2-3.6s-.6 18.8-1.2 46.5c0-27.6 0-46.6-.4-46.6v2.8l-.2-3c-.3 0-.6 22-.9 54.4a1587 1587 0 0 0-1-54.2c-.3 0-.4 11.3-.4 26.3-.2-15-.5-26.3-.7-26.3s-.2 15.2 0 38.7a796 796 0 0 0-1.6-38.6v15.2l-.6-15.3c-.3 0 0 15.2.3 38.7-.9-23.5-1.6-38.6-1.9-38.6l.6 24.1-1-16v-1.5l-.3-4.6v-.3l-.2-1.6-.1 2v5l.6 20 1 27-.1.1-1.9-28.9-1-17.2-.1-1.3-.5-4.6v-.4l-.1-1.6-.1 2 .1 5 .9 20 .9 19.4c-1.8-26.3-3.2-46.5-3.4-46.4-.2 0 0 7.6.6 18.2l-1.5-18.2c-.2 0 .8 17.7 2.2 40.4L237 39c-.2 0 .1 7.6.9 18.3L236 39.1c-.2.1 1.2 19.5 3 44.5l-1.2-14.1-.4-2.8-2-20.2-.6-5.4-.3-1.7v1.5l.3 4.7.1 1.9 1.3 15.9 2.5 30h-.3L236 69.6c0-1.2-.2-1.6-.3-2.7l-3.4-27.4.1 1.5.5 4.8v1.7l1.6 16c-1.7-13.8-3-24-3.2-24s1.1 14 3.3 36.2c-2.6-22.1-4.5-36-4.7-36l1.2 13.7c-1-8.3-1.8-13.7-2-13.7s1.4 14 3.9 36.2c-3-22-5.1-36-5.3-36s1 10.1 2.6 23.8l-3.6-23.8c-.3.1 2.6 23 6.6 54h-.1c-4.8-30.5-8.6-53.6-8.7-53.6q-.2 0 .4 4.3-.6-4.1-.8-4.2a479 479 0 0 0 3.6 26.7 502 502 0 0 0-4.8-26.5l3.4 24.3a503 503 0 0 0-4.4-24.2c-.2 0 1.4 10.5 4 26.7a551 551 0 0 0-5.1-26.4c-.2 0 2 14.6 5.1 33.3-3.5-18.6-6.2-33-6.4-33-.1 0 1.5 10.8 4.4 27.5a577 577 0 0 0-5.6-27.4c-.2 0 1.7 11 4.3 25.5-2.9-14.4-5-25.3-5.3-25.3-.2.1 1.8 10.9 4.8 27.6-3.5-17-5.9-27.4-6-27.4-.3 0 4 22.1 9.5 50.9-6.1-28.5-11-50.5-11.1-50.5-.3 0 3.8 20.7 10 51.8a1937 1937 0 0 0-11.9-51.5l.7 4.1-1-3.9c-.3.1 4 20.7 10.8 51.7-7.4-30.7-12.4-51.4-12.6-51.3-.1 0 .6 4 2 9.8-1.5-5.6-2.6-9.7-2.7-9.6-.3 0 4.1 19.2 11 48.9-7.5-29.3-12.6-48.6-12.8-48.5l.6 3.2c-.4-1.6-.8-3.2-1-3.2 0 0 3.9 17.2 10 41.7-6.6-24.2-11.3-41.3-11.5-41.3l.8 3.4q-1-3.2-1.2-3.3c-.2.1 5.2 21.2 13.3 52.6-8.9-31.7-14.7-52.1-15-52-.1 0 2.3 9.8 6 23.1-4-13.2-6.8-23-7-23a988 988 0 0 0 11 41.2 944 944 0 0 0-12.4-40.6l4.1 15.6c-3-9.7-4.7-15.6-4.8-15.5-.2 0 4.3 16.2 11.5 41a995 995 0 0 0-13-40.4s3.1 10.9 7.5 25.5a739 739 0 0 0-8-23.9l-.4-1.2c0 .6 3 10.5 7.7 26.2 2.1 7 5 16 7.8 25.5h-.3a2361 2361 0 0 0-17.2-51 1284 1284 0 0 0 14 45.1c-8.6-25.4-15.4-45-15.6-45-.2.1 2.3 8 5.8 19a296 296 0 0 0-6.7-18.6c-.2 0 4.4 14.2 10.8 33.5-6.7-18.7-11.8-33.1-12-33-.2 0 2.4 7.8 6 18.7a293 293 0 0 0-7-18.5c-.1 0 5.8 17.3 14.4 42l-6-16-7.1-18.7-1.8-5h-.2q-.6-1-.5-1.4l-.2-.3.3 1.3.1.4.1.4q.7 1.5 1.5 4l16 45h-.2l-9.8-25-7.3-18.8-2-4.7v-.2l-.6-1.4.2 1v.5l.2.3 1.6 4 6.7 18.6a603 603 0 0 0-9.9-24.4c-.2.1 5.3 14.8 14 37.4C192 65 186 50.6 185.8 50.7c0 0 2 5.7 5.7 15.2-4-9.4-6.2-15-6.4-15-.2.2 5.4 14.7 14.3 37.2a765 765 0 0 0-15.7-36.5c-.1 0 4.3 11.3 10.4 26.1-6.3-14.6-11.2-25.9-11.3-25.8s8.7 22 20.4 50.3h-.2c-12.6-28-22-49.5-22.3-49.4l1.6 4.1a20 20 0 0 0-2-3.8c-.1.1 3.8 9.3 9.7 23-6.5-14-10.5-22.7-10.7-22.6s5.3 12.6 12.4 28.8c-7.5-16-13.2-28.4-13.4-28.3s3.9 9.2 10 23a549 549 0 0 0-11-22.6c-.2 0 7 16.1 16.2 36.5-9.6-20.2-17.2-36-17.4-36-.2.1 4.6 10.7 12.2 27.2A578 578 0 0 0 175 55.5l13 27.6A667 667 0 0 0 174.2 56l12.5 27a645 645 0 0 0-13.6-26.5c-.2.2 10 21.3 23.5 49-14-27.4-24.9-48.2-25-48.1-.3 0 8.8 18.5 22.6 46.1a2407 2407 0 0 0-22.6-41.9l-2-3.3c-.3 0 9 18.3 23.3 45.8a1516 1516 0 0 0-25-45s2 4.2 5.1 10.1l-5.6-9.8c-.2.1 9 17.9 23.5 44.8-14.9-26.5-24.9-44-25-44-.2.1 1 2.4 2.7 5.7l-3.2-5.4c-.2.2 9 17 22.8 42.2a1498 1498 0 0 0-23.1-39.5l-1.2-1.9c-.2.2 10.4 19.3 26.3 47.5h-.2a1735 1735 0 0 0-28-46.4l14 24.4c-8.3-13.6-14.6-24-14.7-23.9-.3.1 8.1 14.8 20.4 35.6-13-21.2-21.5-35-21.7-34.8-.1 0 2.9 5.2 7.9 13.6-5.2-8.3-8.5-13.4-8.6-13.3-.2.1 8.5 14.7 21 35.3-13.3-21-22-34.6-22.2-34.4-.2 0 5.5 9.4 13.2 22l-10.3-16-3.7-5.2.7 1.2.2.4L169.7 86l1.5 2.3 2.9 4.5 11.5 18.7h-.1L159.2 72l-3.9-5.6v.3l.9 1.3.2.4c1.7 2.9 6.3 10 11.7 18.6l1.4 2.3 3 4.6L179 104a1156 1156 0 0 0-25-36.6c-.2 0 4.1 6.8 10.4 16.6a280 280 0 0 0-11.3-16s8.6 13.3 20 30.3a1527 1527 0 0 0-21-29.7c-.2 0 4.4 6.8 10.7 16.5a364 364 0 0 0-11.4-16c-.2.2 10.9 16.7 25.4 38-9.7-13.6-18-25.4-22.3-31.2q-1-1.5-2-2.5l-1.2-2-.6-.6-.6-.7.8 1.2 1.3 2.2 1.3 2q.6.6 1.2 1.6l10 14.6c4.4 6.1 10.3 14.8 16 23h-.2L151 74.8l-1.4-1.9-.6-.6-.6-.7.8 1.2 1.4 2.2 1.2 1.8 1.2 1.7 8.6 12c-8.1-10.8-14-18.5-14.1-18.4-.2 0 9.2 13.3 23.8 33.5-15-19.8-24.7-32.8-25-32.7 0 .1 3.2 4.8 8.4 11.9-5.4-7-8.9-11.5-9-11.4-.3 0 9.4 13.2 24.3 33.2a1058 1058 0 0 0-25.4-32.3c0 .1 5.7 8 13.8 18.8a671 671 0 0 0-14.6-18.2c-.3.2 13.8 18.5 32.7 43.2l-.2.2a1541 1541 0 0 0-31.8-38.6l-2.9-3.2c-.1.1 6.3 8.5 16.3 21.2l-17-20.4c-.3.2 7 9.3 16.6 21.4-10-12-17.4-20.9-17.6-20.8-.1.1 6.5 8.4 16.6 21A365 365 0 0 0 139 78.7c-.1 0 10.5 13.2 24.3 30-14-16.5-25-29.5-25.3-29.3 0 .1 7 8.9 18.4 22.4-11.9-13.5-19.1-21.7-19.3-21.6l17 20.6-17.7-20c-.1.2 7.1 8.8 18.5 22.2a986 986 0 0 0-19.5-21.5c-.1.2 14.3 17 33.1 38.8a1691 1691 0 0 0-34.4-37.5c-.1.2 13.5 15.7 34 39A1434 1434 0 0 0 132.8 84l2.7 3.4q-2.8-3-3-3c-.2.2 13.5 15.5 34.4 38.5a1546 1546 0 0 0-35.8-37.3l7.3 8c-4.4-4.5-7.6-7.7-7.7-7.6s13 14.3 33.2 36a1321 1321 0 0 0-34.5-34.7l2.4 2.8-2.7-2.5c-.1.1 12.6 13.6 32 33.7a1345 1345 0 0 0-31.7-31c-.7-.7-1.6-1.5-1.7-1.4s15 15.8 37.7 38.9c-23.5-23-38.9-37.7-39-37.6s8.1 8.4 19 19.3A623 623 0 0 0 125.6 91c-.2 0 10.6 11 27.5 27.7-17.3-16.3-28.4-26.8-28.6-26.7l10 10c-6.3-5.8-10.5-9.5-10.6-9.4s10.9 10.8 28 27.3a847 847 0 0 0-29-26.2l18.3 17.5-18.7-16.8.8 1 .4.3v.2l3.6 3.4 14.4 13.5 3.4 3.2 16.6 15.7h-.1A2018 2018 0 0 0 121.8 97l.5.5 3.7 3.5 14.5 13.2 3.4 3.2 7.7 7A1793 1793 0 0 0 120 97.2l13.1 12.1a336 336 0 0 0-13.7-11.5c-.2.2 11 10.2 26.4 23.8a863 863 0 0 0-27.3-22.7l13.3 12c-8-6.8-13.8-11.5-13.9-11.4-.1.2 13.5 12 32.8 28.7-18.9-15.5-33.6-27.7-33.8-27.5l.5.5-.5-.4c0 .2 7.2 6.5 18.3 15.8q8.6 7.5 20.9 17.8l2 1.7h-.1c-24-19.2-42.3-34-42.5-33.7l.5.5-.5-.3s6.4 5.6 15.8 13.3c-9.7-7.5-16.3-12.8-16.4-12.7-.2.2 11.6 10 30 25-18.7-14.6-30.9-24-31-23.8s4.2 3.6 10.9 9c-6.9-5.2-11.3-8.5-11.4-8.4-.1.2 11.8 9.8 30.5 24.5-19-14.3-31.4-23.5-31.4-23.3-.1.2 9 7.2 21 16.6-12.2-9.1-21.5-16-21.6-15.9-.2.2 18.5 14.7 42.9 33.4l-.3.3c-24.6-18-43.7-32.1-43.9-31.8l5 4-5.2-3.8c-.2.2 8.3 6.7 21.6 16.6-14-9.9-22.2-15.6-22.3-15.5s8.3 6.4 19.8 15a714 714 0 0 0-20.4-14.2c-.2.2 8.4 6.5 21.8 16.3a521 521 0 0 0-22.5-15.3c-.2.2 12.7 9.4 29 21.1l-29.8-20.2c0 .2 9 6.7 22.8 16.5a567 567 0 0 0-23.5-15.4l21.8 15.3c-12.6-8.3-22.3-14.7-22.4-14.5s9 6.5 23.1 16.2a566 566 0 0 0-23.6-15.2c-.2.2 19.3 13.4 44.7 30.6a1500 1500 0 0 0-45.8-29c-.1.2 17 11.6 43 28.7a1679 1679 0 0 0-43.9-27.2l5.3 3.6-5.6-3.4c-.1.3 17.1 11.5 43.3 28.3-26.4-16.1-44-26.9-44.2-26.7l8.8 5.9c-5.3-3.3-9.1-5.4-9.1-5.3-.2.2 16.5 10.7 42.3 26.7-26-15.3-43-25.3-43.3-25.1l5 3.1-5.2-2.9c-.1.2 15.2 9.7 37.6 23.2-21.5-12.3-38.3-22-38.4-21.8 0 .1 1.1.9 1.7 1.1-.7-.2-1.7-.9-1.8-.8 0 .2 18.6 11.5 46.4 27.9a1574 1574 0 0 0-47.4-26.2s9.7 5.9 22.8 13.4l-23.3-12.6c-.1.2 14 8.3 35.7 20.7a934 934 0 0 0-36.5-19.3l12.7 7.2-13-6.6c-.1.2 14.1 8.2 36 20.2-22.2-11.6-36.6-19-36.7-18.9s9 5 21.4 11.8c-6.7-3.4-12.5-6.4-16-8q-4.8-2.5-5.5-2.7l-.4-.2 1.6 1c4.6 2.6 23.2 12.5 46.1 24.7v.3c-19.2-9.6-35.4-17.8-42.8-21.3l-5.5-2.5 1.3.7c4.1 2.3 20.5 10.8 40.6 21.1-19.9-9.7-36.7-18-41.3-20l-1.6-.7c-.1.2 7.1 4 17.4 9.3-10.5-5-17.8-8.6-17.9-8.4s15 7.7 34.2 17.3l-33-15.5q-1.7-.8-1.8-.7c0 .2 7.3 4 17.6 9-10.4-4.8-18-8.2-18-8s17.8 8.8 40.7 19.8c-19-8.6-35.2-16-39.5-17.8q-1.7-.8-1.8-.7l.6.3-.7-.2c0 .2 21 10.2 49 23.4l-.2.2c-23-10.2-42.7-19-47.8-21l-1.9-.6c0 .2 7.3 3.6 18.2 8.6a345 345 0 0 0-18.6-7.7c0 .2 13.7 6.5 35.3 16.2-21.7-9.2-35.8-15-36-14.8l12.1 5.5c-7-2.9-12.2-5-12.2-4.8s13.8 6.3 35.5 15.7c-22-9-36-14.5-36.1-14.4-.1.2 8.8 4 21 9.2a320 320 0 0 0-21.4-8.2c-.1.2 21.7 9.2 50 21l-.2.3a2058 2058 0 0 0-50.6-19.3l7.4 3.2c-4.5-1.7-7.6-3-7.6-2.8-.1.2 9.1 4 23.3 9.7l-23.6-8.7a632 632 0 0 0 29 11.7 766 766 0 0 0-29.6-10.6c0 .1 9.3 3.9 23.5 9.4a768 768 0 0 0-23.7-8.4c0 .2 16 6.3 36.6 14.1a1191 1191 0 0 0-37.2-12.8c0 .1 9.6 3.8 24 9.1a561 561 0 0 0-24.3-8c0 .2 12 4.6 27.6 10.2a1058 1058 0 0 0-28-9.2c-.1.1 9.6 3.7 24 8.9a473 473 0 0 0-24.3-7.7c-.1.2 21.2 7.6 48.9 17.1C105 164.2 85 158 85 158.1c0 .3 21.9 7.6 51.2 17.4a2200 2200 0 0 0-51.6-15.8 86 86 0 0 0 8 2.9 78 78 0 0 0-8.4-2.3c0 .2 22.1 7.3 51.5 16.5A1423 1423 0 0 0 83.9 162l18 5.8c-11-3-18.3-5.2-18.3-5-.1.2 21.3 6.7 49.7 15.3-30-8.5-50.1-14-50.1-13.7-.1.1 2.7 1 6.5 2l-6.7-1.5c-.1.2 18.3 5.6 42.2 12.5-25-6.7-42.6-11.2-42.6-11l1.5.5-1.5-.3c0 .3 21 6.2 52 14.8-31.8-8-52.5-13-52.5-12.9-.1.2 9.4 2.8 22.5 6.2a467 467 0 0 0-22.8-5.3c-.1.1 15.6 4.4 39.8 10.7a1119 1119 0 0 0-40.2-9.2c0 .2 4.6 1.3 10.9 3l-11-2.4c0 .3 15.7 4.2 40 10.2A886 886 0 0 0 81 173l19 4.8-18.4-3.7-1-.2c0 .3 22.9 5.6 52.8 12.5v.2l-1.7-.4c-30.8-6.4-51.4-10.6-51.5-10.4l1 .4-1-.1c0 .2 19.6 4.5 45 10a1646 1646 0 0 0-45.4-8.6c0 .2 9 2.1 21.8 4.9l-22-3.9c0 .2 15.7 3.4 36 7.5-20.3-3.7-36.1-6.5-36.1-6.3 0 .1 8.9 2 21.6 4.6a371 371 0 0 0-21.8-3.6c-.1.2 19 3.8 43.4 8.5a972 972 0 0 0-43-6.8c1.5.5 23.4 4.4 52.6 9.6v.3a1574 1574 0 0 0-53-7.7c1.7.4 12.1 2.2 26.1 4.5a663 663 0 0 0-27-3.7c0 .1 16.6 3 42 7a2114 2114 0 0 0-42.2-5.6c0 .2 5.4 1.2 13.8 2.5-8.4-1.2-13.8-1.8-13.8-1.7-.1.2 16.6 2.8 42 6.5-25.5-3.2-42.2-5.2-42.3-5s11.8 1.8 27.1 4L77.8 190c0 .3 22.8 3.3 53.7 7.5v.3a1682 1682 0 0 0-54-5.6l6.2 1-6.3-.6c0 .2 10.5 1.6 27.2 3.5a493 493 0 0 0-27.2-2.3c0 .2 12.4 1.7 28.8 3.4a765 765 0 0 0-29-2.4c0 .2 10.6 1.4 27.2 3.2-17-1.4-27.2-2.2-27.2-2s16.3 1.9 37 3.9a1251 1251 0 0 0-37.1-2.6c0 .2 10.9 1.3 28.2 3-17.5-1.3-28.3-2-28.3-1.8s12.3 1.2 28.4 2.6c-16.1-1-28.5-1.8-28.5-1.6-.1.2 11 1.2 28.2 2.6-17.4-1-28.3-1.5-28.3-1.4s23 1.9 53 4c-30-1.5-53.1-2.5-53.1-2.3s20.7 1.7 51.8 3.5a1328 1328 0 0 0-51.9-1.5l4.4.3-4.4.1c0 .2 20.6 1.2 51.8 2.7-31-.8-51.9-1.2-51.9-1s4.7.4 11.7.7c-7 0-11.8-.2-11.8 0s23 1 53.6 2c-32.2-.3-53.5-.4-53.5-.2l4.2.3h-4.3c0 .3 20 .8 45.9 1.3a1391 1391 0 0 0-45.9.6c0 .3 21.9.6 54.3 1-33 .4-54.3.9-54.3 1.1l24.4.1c-14 .3-24.3.6-24.3.8s15.4.2 39.4 0c-24 .8-39.4 1.3-39.4 1.5h13.9c-8.3.3-14 .6-14 .7.1.3 15.6 0 39.6-.4-24 1-39.5 1.7-39.5 2 0 0 10-.1 23.4-.5-13.5.7-23.3 1.3-23.3 1.4h.7c1.7.2 23.8-.5 53.5-1.6v.2a1597 1597 0 0 0-54.1 3.7c0 .2 19-.6 43.4-1.8-24.3 1.7-43.3 3.1-43.3 3.3s8.4-.2 20.2-.8c-11.9 1-20.2 1.6-20.2 1.8s14.5-.6 33-1.8a804 804 0 0 0-32.8 3c0 .2 8.3-.3 20.2-1.1A334 334 0 0 0 77 226c0 .2 18.7-1 43-2.8-23.1 2-40.7 4-42.4 4.2l-.5.1c0 .2 9.7-.5 24.4-1.7l27.7-2.4h1.9v.2a1869 1869 0 0 0-53.9 6.2c0 .2 9.9-.8 24.6-2.2-14 1.7-24.5 3-24.5 3.2 0 .1 14.5-1.2 37-3.5a651 651 0 0 0-36.8 5c0 .1 5.4-.4 13.3-1.3-7.9 1.1-13.2 1.8-13 2 0 .2 14.2-1.4 36.9-4-22.6 3.1-36.9 5.3-36.9 5.5s8.2-.8 20-2.2a329 329 0 0 0-20 3c0 .3 23-2.6 54-6.6v.3a1515 1515 0 0 0-53.5 8.6l9.1-1.2-9 1.8s10-1.2 25.2-3.5a497 497 0 0 0-25.2 4.5c.1.2 13.5-1.9 30.7-4.5-17.2 3-30.5 5.4-30.5 5.6.1.2 10-1.3 25.2-3.7a428 428 0 0 0-25 4.8c.1.2 17.9-2.8 40.7-6.6a1226 1226 0 0 0-40.4 7.9c0 .2 10.7-1.6 27.2-4.4a611 611 0 0 0-27.1 5.5c0 .2 14-2.3 31.8-5.4-17.7 3.6-31.5 6.3-31.5 6.5s10.7-1.8 27.2-4.9c-16.6 3.4-27 5.8-27 6s23.2-4.2 53.3-10c-30 6.4-53 11.6-53 11.8s21.3-4 53.3-10.6c-31.6 7.2-52.8 12.2-52.8 12.4l4.2-.8-4.1 1.2c0 .2 21.1-4.2 53-11.2-31.5 7.5-52.7 12.7-52.7 12.9.1.2 4.6-.8 11-2.2-6.3 1.5-10.9 2.7-10.8 2.8 0 .3 22.7-4.9 52.7-11.8a1389 1389 0 0 0-52.3 13.7l3.9-.8-3.8 1c0 .3 19.3-4.3 44.2-10.4a1430 1430 0 0 0-43.7 12.1l2.3-.5-2.2.7a1449 1449 0 0 0 52.6-13.1c-31.7 8.9-52.2 14.8-52.2 15 .1.2 10.1-2.4 23.6-6.1a553 553 0 0 0-23.3 7c0 .3 15-3.8 38.2-10.2-23 7-37.8 11.5-37.8 11.8l13.1-3.6-13 4.1c.1.3 15-4 38.1-10.6a1010 1010 0 0 0-37.6 12.2c.1.1 9.6-2.7 22.7-6.6L85 263.5q-.6.1-.7.3c0 .2 10.4-3 26.8-8l25.1-7.4a2273 2273 0 0 0-50.5 17.2l-.8.3 26.8-8.3 17.8-5.7c-25 8.5-44.2 15.2-44.1 15.3 0 .2 8-2.4 19.4-6-11.3 4-19.2 6.8-19.2 7s16.2-5.1 36.8-12c-20.4 7.3-36.3 13-36.2 13.2s8-2.5 19.3-6.4a444 444 0 0 0-19.2 7.3c.1.3 18.3-6.1 41.6-14.3l-15.6 6c-15.5 5.8-25.4 9.5-25.3 9.7 0 .4 22.1-7.6 51-18l.1.1-3.1 1.3-22 8.6c-15.5 6-25.3 9.8-25.3 10v.1c.1.2 11.5-4 26.4-9.6l-26 10.6c0 .2 15.5-5.6 39-14.6a1093 1093 0 0 0-38.6 16c.1.1 4.9-1.6 11.6-4.2L89 276.9c.1.2 15.4-5.8 39-15.1a902 902 0 0 0-38.4 16.6l22.2-8.7c-12.6 5.3-22 9.3-21.9 9.5s22-8.8 50.3-20.5v.4c-28 12.3-49.4 21.9-49.3 22.1l4-1.6-4 2c.2.2 9.6-3.8 24.4-10a456 456 0 0 0-23.8 11c.1.2 11.8-4.9 26.9-11.5-15.1 7-26.6 12.4-26.5 12.5 0 .2 9.4-3.8 24.2-10.4-14.9 7-23.8 11.3-23.7 11.5l37.3-16.6c-20.7 9.8-36.9 17.6-36.8 17.8s10.2-4.5 25.8-11.6a605 605 0 0 0-25.2 12.6c0 .2 12-5.5 27.6-12.8a667 667 0 0 0-27.3 13.8c.1.2 10.1-4.6 25.8-12a432 432 0 0 0-25.1 13c0 .2 21.2-10 48.8-23.4-27.3 14-48.3 24.8-48.2 25 .1.3 19.4-9.3 48.1-23.6A1839 1839 0 0 0 96.1 292l3.8-1.8-3.8 2.1c.2.3 19.2-9.3 47.8-24.1-28.1 15.2-47 25.6-46.8 25.8 0 .1 4.8-2.3 11.7-6-6.8 3.9-11.5 6.5-11.4 6.6 0 .2 17.6-9 44.3-23.3a1207 1207 0 0 0-43.4 24.8l6-3-5.8 3.5c0 .2 15-8 36.3-19.6a961 961 0 0 0-35.5 21l1.3-.6-1.2.7c0 .3 19-10.4 47.2-26.3-28.2 16.8-46.4 28-46.3 28.1s9.6-5.2 22.2-12.6a739 739 0 0 0-21.6 13.5c0 .2 12.8-7.2 32.5-18.7a972 972 0 0 0-31.8 20s5.1-2.8 12.9-7.4c-7.7 4.8-12.6 8-12.5 8 0 .2 12.7-7.3 32.3-19.2a977 977 0 0 0-31.5 20.4c.1.1 9.4-5.4 21.8-13l-21.3 13.9.4-.2a2203 2203 0 0 0 45.7-28.3l.2.3c-25.8 17-45.3 30-45.1 30.1l.4-.3c1.4-.5 17.7-11 38.4-24.3a1480 1480 0 0 0-38 25.9c.1.1 7.4-4.6 17.9-11.4-10.3 7-17.4 12-17.3 12.2l32.2-21c-17.8 12.2-31.7 21.9-31.6 22s7.4-4.7 17.8-11.5c-10.2 7.2-17.3 12.2-17.2 12.3l26.2-17.1-9.5 6.7-14.3 10.6q-1 .6-1.1 1l20.4-13.9 24-16.7.1.3-18.4 13.4-9.5 7-14.1 10.6-1.2 1c.6-.2 7.8-5.4 18.5-13-10.7 8-18.3 13.9-18.2 14 0 .3 13-9 32.6-23a1149 1149 0 0 0-31.8 24.3l11.7-8.4c-6.9 5.4-11.3 8.8-11.3 9 .1.1 12.8-9.1 32.4-23.6a877 877 0 0 0-31.4 24.7l21.4-15.8a782 782 0 0 0-20.9 16.6c.2.2 18.5-13.7 43.3-32.8q0 .3.3.4c-24 19.2-42.3 34-42.2 34.1s2-1.4 4.8-3.6a29 29 0 0 0-4.4 4c0 .2 8.2-6.3 21.7-16.8a520 520 0 0 0-21 17.6c.1.2 9.7-7.4 22.2-17.4a577 577 0 0 0-21.5 18.4l21.5-17.2a485 485 0 0 0-20.8 18c.1.1 13.8-11.1 31.3-25.5a1572 1572 0 0 0-30.5 26.5c.1.2 8.3-6.5 20.8-17-12.3 10.8-20.2 17.7-20 17.9 0 0 10.2-8.3 23.2-19.3l-22.6 20c.1.3 8.3-6.6 20.6-17.1-12.1 10.9-20 18-19.8 18 .2.2 18-15.2 41.1-35.3-22.7 20.7-40.1 36.5-40 36.7.3.2 15.2-12.9 37.6-32.7a1313 1313 0 0 0-36.2 34l4.6-4-4.3 4.4c.1.2 14.8-13 37-33.2-21.7 20.5-36 34.4-35.8 34.6l10-9.1c-5.9 5.6-9.7 9.4-9.6 9.5.2.2 14.2-12.8 35.6-33-20.8 20.5-34.6 34-34.4 34.2q.2 0 3.2-2.6-2.9 2.9-2.8 3c.1.2 12.9-12 31.6-30a1288 1288 0 0 0-29.6 30.4l-.8.8a1367 1367 0 0 0 39-37.6c-23 23.5-37.8 39-37.6 39.2l16.4-16.1a407 407 0 0 0-15.7 16.6c.2.1 11.2-10.9 28.2-28.1a847 847 0 0 0-27 29.3l8.5-8.6-8 9c.1.1 11-11 27.8-28.6a875 875 0 0 0-26.8 29.7c.1.1 6.8-7 16-16.6l-15.2 17.2a1523 1523 0 0 0 37.3-39.3l-35.4 40.5-.3.4c.2.1 12.7-13.7 28.8-31.3a1439 1439 0 0 0-27.6 32.2c.1 0 5.6-5.8 13.4-14.5-7.6 8.8-12.9 15-12.8 15.1.2.1 10.6-11.4 23.8-26.4a939 939 0 0 0-22.7 27.3c.1 0 5.5-6 13.2-14.8a444 444 0 0 0-12.6 15.4c.1.1 13-14.5 29.3-33.5-16.5 20-28.2 34.4-28 34.5l.6-.7-.6.7c.2.2 15.3-17.7 35.2-41.2l.2.2a1583 1583 0 0 0-33.8 42.4l.8-.7c1.5-1.8 7.7-9 15.9-19-9.2 11.6-16 20.2-15.8 20.3s10.2-12 25.6-31a857 857 0 0 0-24.4 32.1s3.4-4 8.5-10.4c-5 6.4-8 10.7-8 10.8.2 0 10.1-12.3 25.3-31.4a966 966 0 0 0-24 32.4l14.3-18.2c-8 10.8-13.8 18.6-13.6 18.6a1737 1737 0 0 0 33.5-42.6 1640 1640 0 0 0-31.8 44l4.8-6.2-4.4 6.4c.2.2 6.4-8 16-20.6a462 462 0 0 0-15 21.4l17.2-23.2A669 669 0 0 0 149 353c.1.2 6.2-8 15.6-20.8a575 575 0 0 0-14.6 21.6c.2 0 10.3-14 23.2-32a1027 1027 0 0 0-22.2 32.8c.2 0 6.6-8.9 16.4-22.8a580 580 0 0 0-15.5 23.3c.2.1 7.8-10.6 17.4-24.5l-16.6 25.3c.2 0 6.5-9 16.3-23-9.5 14.4-15.3 23.3-15.2 23.4s13.4-19.3 30.6-44.7a1628 1628 0 0 0-29 45.8c.1.2 11.1-16.3 27.6-41.2a894 894 0 0 0-26 42.2l2.3-3.6a19 19 0 0 0-2.1 3.9c.2 0 11-16.5 27.2-41.7a1479 1479 0 0 0-25.6 42.6l6.4-9.7-6 10c.3.2 12.4-19.1 28.2-44.6a1199 1199 0 0 0-26.5 45.6l2.1-3.3c-1.2 2-2 3.5-1.8 3.5s10.8-17.4 24.6-40.3a1266 1266 0 0 0-23.2 41.1l1-1.6-.8 1.7c.1.1 11.3-18.5 27.8-46.5a1729 1729 0 0 0-26.2 47.5c.2.1 5.8-9.3 13-22a499 499 0 0 0-12 22.6c.1 0 8.3-14.2 20-34.8a853 853 0 0 0-18.8 35.4c.1.1 3.2-5.2 8.1-14a188 188 0 0 0-7.3 14.4c.2 0 8.1-14.3 19.5-35.1a1037 1037 0 0 0-18.3 35.7c.2.1 4.7-8.3 11.1-20l-.7 1.6-6.3 12.4-.5.8-1.9 3.8-.1.4-.7 1.5q.2 0 1.1-1.7l1.6-3 1.3-2.3c2.1-4 5.5-10.1 9-16.9l12.9-23.8.1.2-13.4 26.6-1.4 3-6.2 12.4-.4.8-1.8 3.7-.2.5q-.6 1.4-.5 1.5l1-1.8 1.5-2.9 1.3-2.4 8.7-16.9 8-15.2c-11 22.5-19.4 39.8-19.3 39.9.2 0 4-7 9.1-17.2-4.9 10.3-8.3 17.5-8.2 17.6s8.2-15.9 18.5-36.6c-9.8 20.9-17.5 37.1-17.3 37.2 0 0 3.8-7.1 8.8-17.4l-8 17.8c.3.2 9.3-18.6 21-43.1a1869 1869 0 0 0-19.6 43.7l.2-.3c.6-.8 10.5-21.3 23.2-48.6l.3.2c-12.4 28-22 49.6-21.7 49.7l.2-.2c.4-.6 4.3-8.8 9.7-20.5-5.3 12.2-9 21.1-8.8 21.1.2.1 6.4-13.6 16-35.1-9.2 21.7-15 35.6-14.7 35.7 0 0 2.6-5.4 6.6-14.7l-5.9 15c.2.1 6.2-13.7 15.6-35.3a970 970 0 0 0-14.3 35.9c.2 0 4.6-10.3 10.5-24l-9.6 24.4c.3 0 9.2-21.2 21.1-50l.3.1c-11 28.8-19.5 50.6-19.3 50.7l1.7-3.9-1.3 4c.1 0 4.2-9.6 10.4-25.1a451 451 0 0 0-9.4 25.6c.2 0 5.2-12.8 11.7-29.3a721 721 0 0 0-10.6 29.6c.1.1 4-9.7 10-25.3a557 557 0 0 0-9 25.8c.3 0 6.1-15.6 13.6-35.5-7 20.1-12.6 35.8-12.4 35.9.2 0 4.2-10.4 10.4-27l-9.2 27.4c.2 0 4.2-11 9.3-25.5a857 857 0 0 0-8.4 25.8c.2 0 4-10.5 10-27.2a651 651 0 0 0-8.8 27.7c.3 0 7.9-22 17.8-50.8-9.4 28.9-16.4 51.1-16.1 51.2s6.6-18.4 16-46.4a1974 1974 0 0 0-14.3 47l2-6.1c-1 3.6-1.7 6.2-1.6 6.3.3 0 6.3-18.6 15.3-46.6-8.3 28.2-13.8 47-13.5 47l4.3-13.3-3.8 13.6c.3.1 6-18.5 14.7-47-8 28.5-13 47.4-13 47.5q.2 0 1.4-4l-1 4.2c.3 0 5.7-18.1 13.6-45.2-7 25.5-12.2 45.4-12 45.5l.7-2-.5 2c.3.1 6.2-21.2 14.8-52h.2a1415 1415 0 0 0-13 52.6c.2 0 2.6-9 6-21.5a359 359 0 0 0-5.1 21.8c.2 0 4.4-16 10.8-40.4a903 903 0 0 0-9.2 40.6l3.3-12.6-2.8 12.8c.2.1 4.3-16 10.3-40.5a1014 1014 0 0 0-8.7 40.9c.2 0 2.4-9.6 5.6-22.6a630 630 0 0 0-4.7 22.8c.3 0 5.7-22.8 12.5-52.7h.3c-6.2 30.2-11 53.1-10.7 53.2l.2-.6-.1.6c.2 0 4.3-18.5 9.5-42.2-4.6 23.9-8.2 42.5-8 42.6.2 0 2-8.5 4.6-20.7a312 312 0 0 0-3.6 20.8c.1 0 3.2-14.5 7-33.2-3.4 18.7-6 33.5-5.7 33.5l4-20.6-3.4 20.8c.3 0 4-19.4 8.7-44.3-4.2 25-7.4 44.4-7.2 44.4l.2-.6c.5-1.6 4.6-23.3 9.8-52.5h.2c-4.8 30.4-8.3 53.5-8 53.5l.2-.6c.4-1.6 1.8-9.9 3.9-21.4-2 13-3.3 22.3-3 22.3s2.9-16.2 6.9-41c-3.5 24.9-5.7 41-5.5 41 0 .2 1-5.2 2.3-13.4l-1.6 13.7c.3 0 2.8-16.2 6.5-41.2-3.1 25-5.3 41.3-5 41.3.1 0 1.8-10.9 3.8-25.5-1.7 14.7-3 25.6-2.8 25.7s3.4-22.8 7.4-53.7h.3c-3.2 30.7-5.7 54-5.5 54l.7-4.2q-.4 4-.2 4.2c.1.1 1.4-9.9 3.3-25.2a482 482 0 0 0-2.2 25.4c.2 0 1.7-13.4 3.6-30.7a741 741 0 0 0-2.5 30.8l3-25.3c-1.4 15.7-2 25.4-1.8 25.4l4.1-41c-1.7 23-3 41-2.8 41 .1.2 1-10.7 2.6-27-1.2 16.6-1.7 27-1.5 27.2l3-32.3c-1.3 18.3-2.1 32.4-2 32.5.3 0 1-10.9 2.4-27.3a422 422 0 0 0-1.2 27.3c.3 0 2-23.5 4.2-54a2011 2011 0 0 0-2.5 54c.3 0 1.6-19.1 3.4-48.1a1114 1114 0 0 0-1.1 44.4v3.8c.2 0 1.3-19.2 2.7-48.2-.8 29-1 48.2-.8 48.3l.6-11.3v11.3c.2 0 1-19.5 2-49.5-.3 29.8-.4 49.6-.2 49.6l.3-4.3v4.2c.3 0 .8-17.7 1.3-43.5 0 25.6.2 43.5.5 43.5v-2l.1 2.1c.3 0 .6-22 .9-54.2.5 32.8 1 54.2 1.2 54.2 0 0 .2-10.6.2-25 .2 14.3.5 25 .7 25s.2-16.4 0-41.5c.8 25.1 1.3 41.4 1.6 41.4l-.1-13.9c.4 8.4.6 14 .8 14s0-16.5-.6-41.6c1 25.1 1.8 41.5 2.1 41.5.1 0 0-8.5-.3-20.6l1.1 18.9.1 1.3c.2-1.3-.5-24-1.5-53.8h.1c1.6 26.4 3 47.5 3.5 52.3q0 1 .2 1.4v.4c.2 0-.8-20.3-2-46.5 1.8 26.2 3.3 46.4 3.5 46.4s-.2-8.2-.8-19.8c1 11.5 1.7 19.8 1.9 19.8s-.8-14.6-1.9-33.2a872 872 0 0 0 3 33c.2 0-.2-8.2-1-19.8a303 303 0 0 0 2 19.8c.3-.1-1.1-18.7-2.9-42.8 2.2 23.2 4 41.4 4.5 42.3l-.1-1.3-.3-4.9-1.5-18.2-2.5-29.3.4-.1c3.2 29.6 5.7 52.5 6 53.5 0-.2.2-.3 0-1.3l-.3-4.9-1.7-18.2 3.1 24.8c.3 0-1.4-17.2-3.9-41.7 3.2 25.1 5.2 41.4 5.5 41.4l-1.2-13.3 1.8 13.2c.3 0-1.6-17.1-4.4-41.5a942 942 0 0 0 6 41.3l-2.7-22.8c2 13.2 3.4 22.8 3.6 22.8s-2.8-23.5-6.7-54h.2c4.8 30.5 8.6 53.7 8.8 53.6l-.9-6.4 1.3 6.3c.2 0-1.3-10.4-3.6-26.5a534 534 0 0 0 4.7 26.4c.1 0-1.5-11.9-3.9-27.4 2.7 15.4 4.8 27.2 5 27.2.1 0-1.4-10.5-4-26.6a527 527 0 0 0 5 26.4c.2 0-2.2-15.4-5.4-35 3.7 19.5 6.6 34.7 6.8 34.7.1 0-1.6-11-4.5-27.8a654 654 0 0 0 5.7 27.7c.1 0-2-12.8-5-29.3 3.2 16.4 5.8 29 5.9 29s-1.7-11-4.8-27.8a983 983 0 0 0 6 27.6c.4 0-4.2-23.2-10.1-53.3 6.6 30 11.7 53 12 53 .1 0-3.7-19.3-9.6-48.1a1396 1396 0 0 0 11.2 47.7l-1.4-7.2c1 4.2 1.8 7 1.9 7 .2 0-3.8-19.1-10.1-48 6.8 28.7 11.6 47.8 11.7 47.7s-.7-4.7-2.2-11.4c1.7 6.7 2.8 11.3 2.9 11.2.3 0-3.9-18.8-10.6-47.4a1651 1651 0 0 0 12.4 47q.2 0-.7-3.9l1.1 3.8c.2 0-3.8-17-9.8-41.5 6.5 24 11.2 41 11.4 41l-.5-2 .8 2c.1 0-5.2-21.3-13.3-52.5v-.1c9 31.6 14.8 52.1 15.1 52.1.1 0-2-8.6-5.3-20.5 3.6 12 6 20.3 6.1 20.2.3 0-4-16-10.7-40.4 7.2 24.2 12 40 12.3 39.9l-3.3-12.2c2.2 7.3 3.8 12.2 3.9 12.2.3-.1-4.3-16-11.3-40.4a926 926 0 0 0 12.9 39.8s-2.8-9.9-6.8-23.1c4.3 13.2 7.5 23 7.7 23l-.2-.7.3.6c.2-.1-6.6-22.6-15.6-52h.2c9.7 29.3 17 51.5 17.3 51.4v-.7l.1.6c.2 0-5-16.7-11.8-37.8 7.3 21 13 37.4 13.2 37.3.2 0-2.3-8-6-19.3 4 11.2 6.7 19 7 19 .1 0-4.4-13.8-10.3-31.5a826 826 0 0 0 11.4 31.1c.2 0-2.4-8-6.3-19.4 4.2 11.3 7.2 19.1 7.3 19.1s-6-17.8-14-40.6a1670 1670 0 0 0 15.3 40l-.1-.7.3.7c.2-.1-7.6-22-18-51 11.2 28.6 19.7 50.4 19.9 50.3l-.1-.7.2.6c.2 0-3.2-9.2-7.9-22a602 602 0 0 0 8.8 21.8c.3-.1-5.5-15.4-14.4-38.8a993 993 0 0 0 15.9 38.2s-2-5.7-5.7-15.2c3.8 9.4 6.1 15 6.3 15s-5.6-15.4-14.9-38.7a1315 1315 0 0 0 16.3 38c.2 0-3.8-10-9.2-23.4 5.7 13.3 10 23.2 10.2 23.2.1-.2-8.8-22-20.5-50.4h.3c12.5 28.2 22 49.6 22.2 49.5l-1.6-4.1q1.8 3.8 2 3.9c.1-.1-4-9.7-10.1-24.1l11 23.6c.2 0-5.2-12.8-12.3-29 7.5 16.1 13.2 28.6 13.4 28.6.2-.1-4-9.6-10.4-24 7 14.8 11.2 23.6 11.4 23.5s-7.3-16.7-17-38c10.2 21.1 18 37.5 18.2 37.4.2 0-4.2-10-11.2-25a516 516 0 0 0 12.3 24.5c.1-.1-5.5-12-12.8-27.6a616 616 0 0 0 13.8 27.2c.1 0-4.5-10-11.6-25a518 518 0 0 0 12.6 24.4c.2-.1-10-21.2-23.5-48.9a1492 1492 0 0 0 25.1 48.1c.2 0-8.8-18.6-22.7-46.3a2061 2061 0 0 0 24.3 45.6q.2-.1-1.7-4l2 3.7c.3 0-9-18.4-23.3-46 14.8 27.2 24.8 45.3 25 45.2 0-.1-2-4.5-5.5-11l6 10.7c.3-.1-8.9-17.5-23.1-44.2 14.7 26.2 24.5 43.5 24.7 43.3l-3.3-6.6c2 3.8 3.8 6.4 3.8 6.4.2-.2-8.4-15.8-21-38.7 12.9 22.3 22 38 22.3 37.8l-.7-1.4.8 1.4c.2-.1-10.3-19.2-26.2-47.4a1573 1573 0 0 0 28 46.4c.2 0-5.5-9.8-12.9-22.8a635 635 0 0 0 13.7 22.3c.2-.1-7.6-13.6-19.8-34.5 12.7 20.6 21 34 21.2 33.7l-7-12a222 222 0 0 0 7.6 11.7c.3-.1-7.8-13.6-20.3-34.3a905 905 0 0 0 21.6 33.4L329 337.8c7.8 12 13.5 21 13.7 21l-.3-.5.4.4c.1-.1-5.3-9-13.6-22.4l-.5-.6c-.7-1.2-1.7-3-2.6-4.2-3.3-5.3-7.7-12.2-11.8-19h.2c17 25.7 29.9 45.2 30 45l-.1-.4.3.5c.1-.1-5.5-9-14-22.3l-.3-.6c-.7-1.2-2-2.9-2.7-4.2-2-2.9-4.5-7-6.8-10.5 14 20.7 24.8 36.7 25 36.6l-11.4-18c7.1 10.3 12.1 17.6 12.2 17.5.2-.1-7.9-12.5-18.3-28.3 10.8 15.6 19.2 27.7 19.3 27.6s-4.5-7.3-11.6-17.8c7.3 10.2 12.3 17.4 12.4 17.3s-10.4-16-24.2-36.2l24.2 33.8 1.3 1.4c.2 0-5.3-8.1-13.6-20-4-6-11-16-17-24.7a2999 2999 0 0 0 32.2 43.2l.2.2s-4.7-7-11.7-16.8c7.3 9.7 12.4 16.4 12.5 16.3.2-.1-9-13-23.2-32.8 14.7 19.5 24.3 32 24.4 31.9s-3.1-4.7-8.2-11.6c5.3 6.8 8.7 11.3 8.8 11.2s-9-12.9-23.6-32.5c15 19.3 24.6 31.7 24.8 31.6 0-.1-5-7-12.4-16.9 7.7 9.6 13 16.4 13.1 16.3.2-.2-13.8-18.6-32.7-43.2l.2-.2c19.4 24 34.1 42.1 34.3 42l-4.2-5.6 4.6 5.3c.2-.1-6.3-8.5-16.3-21.2 10.7 13 17 20.6 17.1 20.4.2 0-7-9.2-16.6-21.2a485 485 0 0 0 17.5 20.6c.1-.1-6.4-8.4-16.5-21 10.9 13 17.2 20.3 17.4 20.2.1 0-10.3-13-23.7-29.3a849 849 0 0 0 24.7 28.5c0-.1-6.8-8.6-17.6-21.7 11.3 13 18.3 21.1 18.5 21s-8.2-10-19-22.8a682 682 0 0 0 19.7 22.1c.1-.2-6.9-8.5-17.8-21.4 11.5 12.8 18.7 20.8 18.8 20.7s-15.2-18.1-35.3-41.3c20.6 22.8 36.5 40.1 36.7 40s-13.6-15.7-34.2-38.8c21 22.6 35.3 37.7 35.5 37.6l-5.1-5.9c3 3.3 5.3 5.6 5.4 5.5S354 324.2 333 301.2a1230 1230 0 0 0 36 37.3l-8-8.8 8.3 8.3c.3-.2-13.7-15.3-35.5-38.4 21 21.4 36.6 37.4 36.8 37.2l-2.6-3 2.9 2.6c.2-.1-13-14-32.8-34.6 19 19 33.9 33.7 34 33.5 0 0-.8-.8-1-1.2a1645 1645 0 0 0-36.5-37.9 1888 1888 0 0 0 39 37.6c.1-.1-6.5-6.9-15.8-16.2 9.6 9.1 16.4 15.6 16.5 15.5.2-.2-10.8-11.1-28-28a795 795 0 0 0 29.1 26.9c.1-.1-3.9-4-10-10a190 190 0 0 0 10.6 9.5c0-.2-11.1-11-28.5-27.7a816 816 0 0 0 29.5 26.6c0-.2-8.3-8.1-19.6-18.7 11.4 10.3 20 18.2 20.2 18 0-.2-7.6-7.4-19.4-18.5l-20-18.8c23.1 20.4 40.6 35.8 40.8 35.6 0-.2-7.6-7.3-19.5-18.1-3-3-7.4-6.8-11.1-10.2 18.4 16 31.6 27.3 31.7 27.2s-5.9-5.7-14.5-13.4c8.8 7.5 15 12.8 15.2 12.7 0-.2-11.2-10.2-25.7-23.1a984 984 0 0 0 26.5 22.1c.1-.2-6-5.6-14.7-13.2a467 467 0 0 0 15.3 12.5c.2-.2-14.6-12.9-33.6-29.3 19.4 16 34.4 28.3 34.6 28l-.6-.5.6.5c.2-.3-17.6-15.3-41.2-35.1l.2-.3c23.9 19.3 42.2 34 42.4 33.8l-.6-.5.6.3-18-15.3a607 607 0 0 0 18.7 14.7c.1-.2-12-10.2-31-25.7a982 982 0 0 0 32 24.5c0-.1-4.7-4-12.6-10.3a285 285 0 0 0 13 9.7c.1-.2-12.2-10-31.3-25.2 19.5 14.8 32.1 24.2 32.2 24s-8.7-7-20.4-16.2a756 756 0 0 0 21 15.6c.2-.3-18.5-14.8-42.8-33.5l.2-.2c24.6 18 43.7 32 43.9 31.8 0 0-2.3-2-5.8-4.5l6 4.1c.2-.1-8-6.3-20.8-15.9a459 459 0 0 0 21.5 15c.1-.2-9.7-7.5-22.6-17a673 673 0 0 0 23.3 16.1c0-.2-8.3-6.2-21-15.6a567 567 0 0 0 21.6 14.7c.2-.2-13.2-9.8-30.4-22 17.4 11.8 31 21.1 31.2 21 0-.2-9.1-6.8-23.8-17a493 493 0 0 0 24.5 16s-10.2-7.4-23.6-16.7c13.6 9 24 16 24.2 15.8 0-.2-9.2-6.6-24-16.8a883 883 0 0 0 24.5 15.9c.2-.2-19.3-13.5-44.7-30.7 25.8 16.7 45.6 29.4 45.8 29.1s-17.6-12-44.3-29.5c27 16.9 45.2 28.2 45.2 28l-3.5-2.5q3.6 2.2 3.8 2.1c.1-.1-17.7-11.7-44.6-29 27.1 16.6 45.4 27.7 45.5 27.5 0-.1-4-2.9-10.2-6.8 6.3 3.8 10.5 6.4 10.6 6.2s-19.3-12.4-45-28.4c27.4 16.4 45.9 27.1 46 26.8l-3.6-2.3q3.6 2.2 3.7 2c.2-.1-17.7-11-41-25.1 24.7 14.3 41.7 24 41.9 23.8l-2-1.4 2 1.2c.2-.3-18.6-11.5-46.4-28 28.7 16 47.3 26.5 47.5 26.2 0 0-9.8-5.9-22.9-13.4l23.3 12.6c.2-.2-13.6-8-34.7-20a708 708 0 0 0 35.5 18.6l-12.6-7.2c7.8 4.2 12.9 6.7 13 6.6s-13.8-7.8-35-19.6a972 972 0 0 0 35.6 18.3c0-.2-9.4-5.4-22.3-12.4 13 6.7 22.7 11.7 22.8 11.5l-.4-.2.4.2-1.6-1-4.7-2.6-41.4-22 .1-.3c27.6 13.8 48.4 24.3 48.6 24l-.4-.2-1.3-.7-4.7-2.6c-6.3-3.4-19.3-10-34.1-17.6 23 11.3 41 20 41.2 19.8 0-.2-7.3-4-18-9.5 10.8 5.1 18.4 8.8 18.4 8.6 0-.1-14-7.3-32.4-16.4 18.5 8.7 33 15.4 33 15.3 0-.2-7.4-4-18-9.2 10.7 5 18.3 8.4 18.4 8.3.1-.3-17.6-8.8-40.5-19.8a1428 1428 0 0 0 41.2 18.3c0-.2-21-10.2-49-23.4l.1-.2a2263 2263 0 0 0 49.8 21.6c0-.2-7.2-3.6-18-8.5l18.4 7.7c0-.3-15-7.2-38.1-17.4a1319 1319 0 0 0 38.7 16c0-.1-5-2.5-12.9-6l13 5.2c.2-.1-15-6.8-38.2-16.8 23.5 9.5 38.8 15.7 39 15.5l-23.5-10.1c13.6 5.3 23.8 9.4 23.8 9.2l-4.6-2.1a2825 2825 0 0 0-45.3-19v-.3c28.8 11.2 50.6 19.6 50.7 19.4q0-.2-3.8-1.8l4 1.4c.1-.2-9.8-4.2-25.4-10.5 16.3 6.2 25.7 9.5 25.8 9.3l-1.6-.7-20-8c12.7 4.6 22 8 22 7.8.2-.2-9.8-4.1-25.5-10.1 16.3 5.8 25.7 9 25.8 8.9l-1.5-.7-31.5-12a894 894 0 0 0 33.6 11.6c0-.2-10.3-4.1-26.2-10a534 534 0 0 0 26.6 8.8l-1.9-.8c-3-1.2-12.2-4.5-23.5-8.5 14.6 5 25.7 8.5 25.7 8.3a473 473 0 0 0-26.4-9.5c16.5 5.4 26.7 8.6 26.8 8.4l-1.8-.7c-5-2-24.3-8.6-46.8-16.3 29.2 9.3 49 15.5 49.2 15.3 0-.2-22-7.5-51.4-17.3 31 9.5 51.8 16 52 15.7l-1.5-.6-4.7-1.5 6.4 1.6c0-.3-22.2-7.4-51.7-16.7a1718 1718 0 0 0 50.7 14.5c-1.5-.6-7-2.2-11.2-3.6a167 167 0 0 0 12.8 3.4c0-.3-21.4-6.7-49.9-15.4 30.3 8.5 50.3 14 50.4 13.7l-3.9-1.3 4 .9c0-.2-20-6-46.3-13.6 27.7 7.4 46.7 12.3 46.7 12 0 0-1.4-.5-2.2-.6l2.3.4c0-.2-21.2-6.2-52.2-14.8a1521 1521 0 0 0 52.6 12.9c.1-.1-9.4-2.7-22.5-6.2 13.2 3.2 22.8 5.5 22.8 5.3.1-.1-14.5-4.1-37.4-10.1 23 5.4 37.7 8.8 37.8 8.6l-11.6-3c7 1.5 11.7 2.5 11.8 2.4 0-.2-14.6-4-37.6-9.7 23 5.2 37.7 8.3 37.8 8.1l-21.5-5.3c13 2.7 21.8 4.7 21.8 4.5l-.5-.2.6.1c0-.3-21.3-5.3-52.8-12.6l1.6.2c2.3.6 3.8.7 6 1.2l21.4 4.5 24.2 4.7-.6-.2h.7c0-.2-18-4.2-43-9.6 24.3 4.8 43.2 8.3 43.2 8.1s-8.2-2-19.9-4.4c11.8 2.2 20.1 3.6 20.1 3.5 0-.3-15-3.4-34.4-7.2 19.4 3.5 34.6 6 34.6 5.9.1-.1-8.2-1.8-19.9-4 11.8 1.9 20.1 3.2 20.1 3 .1-.1-18.8-3.7-43-8.4a1516 1516 0 0 0 42.7 6.9h.6c0-.2-23-4.5-53.3-9.8v-.2c32 5 53.6 8.2 53.7 8l-.6-.2h.6l-26.7-4.7c15.3 2.3 26.8 4 26.8 3.7.1-.1-15.2-2.7-38.8-6.5a732 732 0 0 0 39 5l-15.4-2.4c9.7 1.2 15.5 1.9 15.6 1.7s-15.3-2.5-38.9-6c23.7 3 39 4.8 39 4.5l-23.7-3.5 23.9 2.6c0-.3-22.7-3.3-53.7-7.5v-.3c30.5 3.4 54 5.9 54 5.6l-3.5-.6 3.6.2c0-.2-11.2-1.6-29.5-3.8a673 673 0 0 0 29.5 2.6c0-.2-10.6-1.4-24.9-3a781 781 0 0 0 25 2c0-.2-11-1.5-29.3-3.5a703 703 0 0 0 29.4 2.3c0-.2-15.6-1.9-35.7-3.8 20 1.6 35.8 2.8 35.8 2.5s-11.2-1.3-29-3c18 1.3 29.1 2 29.1 1.9l-28.4-2.6 28.5 1.6c.1-.2-11.3-1.2-29.2-2.6 18.1 1 29.3 1.5 29.3 1.4 0-.3-23.4-2-54-4.2 30.7 1.5 54.1 2.7 54.1 2.4s-21.5-1.7-54.1-3.6a1616 1616 0 0 0 50.3 1.4h3.9c0-.3-21.5-1.4-54.1-3 32.3.8 54.2 1.4 54.2 1.1 0 0-4.6-.4-11.1-.6 6.5 0 11.2.2 11.2 0s-23.5-1-54.3-2c32.6.3 54.2.4 54.2.1l-3.8-.2c2.3 0 3.9 0 3.9-.2l-48.1-1.2c28.7 0 48-.1 48-.4l-1.8-.1 1.8-.1c0-.3-21.5-.6-53.6-.8 32.6-.5 53.7-1 53.7-1.2s-12.2-.2-28-.2c15.8-.3 28-.6 28-.8s-14-.2-36.2 0a886 886 0 0 0 36-1.5h-16.1c10-.3 16.3-.6 16.3-.7 0-.3-14 0-36.2.4 22-1 36-1.7 36-1.9s-10.5 0-24.6.4l16.3-.7 1.9-.1 4.3-.3.5-.1 1.3-.2h-1.8l-22.2.5c-1.7 0-3 0-5 .2H393l-23.7.9v-.2l29.5-1.9 16.4-1h1.7q2.9-.4 4.4-.4l.4-.1 1.4-.2h-1.8c-3.3 0-11.8.4-22.2.8l-5 .2h-1l-16 .8a1296 1296 0 0 0 46.2-3.4l-17.6.7c10.3-.8 17.6-1.5 17.6-1.6s-17.7.8-40.4 2.2c22.6-1.8 40.2-3.2 40.2-3.5 0-.1-7.3.3-17.5 1 10.3-1.1 17.4-1.8 17.4-2s-20 1.3-46 3.2l15.2-1.5c1.6 0 2.4 0 4-.3l18.6-1.9q.6 0 1-.2l5-.4h.3l1.7-.4h-2.6l-4.7.4h-.7l-16.6 1.4-29.3 2.5v-.3l23-2.5 4-.4 18.8-2.1 1-.3 5-.5h.3l1.6-.4h-1.9l-.7.1-4.8.3-.6.1-16.6 1.6c14-1.7 24.7-3 24.7-3.2 0-.1-13.6 1.2-35.2 3.4 21.6-2.8 35-4.7 35-4.8s-6.1.4-16.1 1.5c10-1.4 16-2 16-2.3-.1-.2-13.5 1.3-35 3.7 21.5-3 34.8-4.9 34.8-5.2 0 0-10.1 1-23.8 2.7 13.7-2 23.7-3.4 23.7-3.6s-22.9 2.6-54 6.6q.1 0 0-.2a1437 1437 0 0 0 53.6-8.6l-6 .7c3.5-.5 6-1 6-1.2s-10.2 1.2-25.7 3.5c16-2.7 25.5-4.4 25.4-4.6 0-.2-12.2 1.7-28.2 4 16-2.7 28.2-4.8 28.2-5-.1-.2-10.1 1.4-25.7 3.8 15.8-2.9 25.4-4.8 25.4-5s-16.8 2.5-38.2 6.1c21.4-4 38-7.2 38-7.4s-10.4 1.6-26.4 4.3c16-3.2 26.2-5.2 26.2-5.4s-13.5 2.2-30.8 5.4l30.6-6.4c0-.2-10.4 1.5-26.4 4.5 16-3.3 26.2-5.6 26.1-5.7S397 182 367 188c30-6.5 53-11.5 53-11.8 0-.2-20.2 3.8-50.5 10 30-6.9 50.1-11.5 50-11.7l-6.6 1.3 6.5-1.7c0-.3-20 4-50.2 10.5 30-7.2 50-12 49.8-12.2 0-.2-5 1-12.5 2.6l12.4-3.3c0-.2-22.8 5-52.8 12 31.4-8 52.5-13.6 52.4-13.9l-3.5.8 3.4-1c0-.3-20.2 4.6-46.3 11a1609 1609 0 0 0 43.1-12l2.7-1c0-.2-21 5.2-52.5 13.3 31.7-9 52-14.8 52-15-.1-.3-10.1 2.4-23.6 6l23.3-7c-.1-.3-15.2 3.8-38.6 10.3 23.2-7 38.2-11.6 38.2-11.8l-14.1 3.8 14-4.4c-.2-.3-15.3 4-38.6 10.8 23.2-7.3 38-12.1 38-12.3s-9.7 2.7-22.7 6.6a454 454 0 0 0 22-7.4l.4-.2c0-.2-10.2 2.8-26.5 7.7l-25.4 7.8v-.2L392 166l23-7.8-.7.1.6-.2c0-.2-10.2 3-26.4 8l-16.6 5.5c24-8.3 42.7-14.8 42.6-15s-7.4 2.3-17.7 5.6c10.2-3.6 17.4-6.3 17.3-6.4s-15.6 5-35.6 11.6a814 814 0 0 0 35.2-13l-17.5 5.9a255 255 0 0 0 17.3-6.7c-.1-.2-18.7 6.2-42.8 14.6l12.9-4.8 4.1-1.5 1.2-.4a527 527 0 0 0 24-9.3l-.5.1-50.7 17.9-.1-.2 21.4-8.3 4-1.6 1.3-.5c14.4-5.6 23.9-9.2 23.9-9.4h-.6c-1.3.3-9.7 3.3-22.4 8 13-5 22.5-8.9 22.5-9 0-.2-14.6 5.1-37.2 13.7 22.3-9 36.7-15 36.7-15.2l-12.7 4.7 12.4-5.3c-.1-.2-14.6 5.5-37 14.4a880 880 0 0 0 36.4-15.9c0-.2-11.1 4.3-25.5 10.1a900 900 0 0 0 25.1-11c0-.2-21.9 8.8-50.2 20.6v-.4c28.1-12.4 49.4-22 49.3-22.2l-3.9 1.5q3.8-1.6 3.8-2L383.7 153c15.7-7.2 24.9-11.4 24.8-11.6s-12.7 5.3-29 12.5c16.2-7.5 28.7-13.4 28.6-13.5s-9.8 4.1-25.3 11a478 478 0 0 0 24.8-12c0-.3-16 7-36.5 16.2 20.2-9.6 36-17.2 36-17.4-.1-.2-10.4 4.5-26.4 11.8 16-7.8 26-12.7 25.8-12.9L379 150c15.4-7.7 27.4-13.7 27.3-13.8s-10.3 4.6-26.3 12.2a543 543 0 0 0 25.6-13.2c0-.3-21.2 10-48.8 23.4 27.3-14 48.3-24.8 48.2-25.1-.1-.2-19.8 9.4-48.8 24 28.6-15.1 48-25.4 48-25.6l-3.6 1.6q3.1-1.7 3.3-2c-.1-.1-19.5 9.7-48.3 24.6 28.3-15.4 47.5-26 47.4-26.1l-11.4 5.7 11.1-6.3c0-.3-18 9.2-45.5 24 26.8-15.2 44.7-25.4 44.6-25.6l-5.3 2.7 5.1-3.2c-.2-.2-16.7 9-41.4 22.6 23-13.3 40.8-23.6 40.6-23.9l-1.8 1 1.7-1.1c-.2-.3-19.3 10.4-47.3 26.2 26.5-15.7 46.5-27.8 46.4-28s-11.3 6.2-25.9 14.7a907 907 0 0 0 25.2-15.6c0-.2-12.2 6.9-31.4 18.2 19-11.8 30.9-19.2 30.8-19.4s-6.7 3.7-16.5 9.6c9.7-6 16.2-10.2 16.1-10.3s-12.2 7.1-31.3 18.6c18.8-12 30.6-19.6 30.5-19.7-.1-.2-9.1 5.2-21.2 12.6 6.2-4 12-7.6 15.3-9.9l4-2.6 1.1-.9.2-.2-1.6 1h-.1l-4.6 2.7-13.3 8.4-4.2 2.5-2.7 1.6-19.5 12.4-.2-.3 1.1-.7 5.5-3.6 17.9-12 19.2-12.8 1.2-1 .1-.1-1.7 1h-.1l-4.4 2.9-13.2 8.5-4.2 2.5-2.6 1.8-15.7 10c23.4-15.6 41.3-27.8 41-28L378 126.5l16.1-11.2c0-.2-14.5 9.2-32.9 21.3a983 983 0 0 0 32.2-22.5c-.1 0-7 4.4-16.5 10.8l16-11.4c-.2-.2-15.7 10.2-35.7 23.8l12.6-9 15.5-11.1 1-.7 4-3 .2-.2 1.4-1.1-1.8 1-3.8 2.6-1.4.8-13.8 9.6-24 16.6v-.1l21.6-15.9 15.4-11.4.8-.6 4.1-3 .1-.3 1.5-1q-.2-.2-1.7 1-1.4.8-3.8 2.5l-1.3.9-13.6 9.6c11.4-8.5 20-14.9 19.8-15 0-.2-13 9-32.7 23.3a982 982 0 0 0 32-24.5c-.2 0-5.2 3.5-13.3 9.5 8-6.2 12.8-10 12.7-10.1 0-.2-12.7 9.2-32.3 23.7a926 926 0 0 0 31.4-24.9s-9.2 6.7-21.4 15.9a575 575 0 0 0 20.8-16.7c-.2-.2-18.5 13.6-43.3 32.7a1616 1616 0 0 0 38.5-32l3.1-2.7c0-.2-8.3 6.3-21.7 16.7 13.5-11 21-17.5 21-17.7-.1 0-9.8 7.5-22.3 17.5a585 585 0 0 0 21.6-18.3L362.6 119a447 447 0 0 0 20.7-18c-.1-.1-12.4 10-28 23 15.4-13.4 27.4-23.8 27.3-24-.2-.1-8.8 7-22.5 18.4 13.5-11.8 21.8-19 21.7-19.2s-9 7.2-20.6 17c11.4-10.1 20-17.7 20-17.9-.1 0-8.8 7.1-22.3 18.7 13.4-12 21.6-19.3 21.4-19.5s-17.6 14.8-40 34.4a1723 1723 0 0 0 38.9-35.8c-.2-.2-17.3 14.9-40 35 23.3-21.6 38.9-36.1 38.7-36.3l-3.3 2.8q3-3 3-3.2c-.2-.2-17 15.2-39.4 35.7 23-22 38.3-36.8 38.1-37l-7.7 7c4.3-4.3 7.5-7.4 7.4-7.5-.2-.1-14.5 13.1-36.4 33.7 21.3-20.9 35.3-34.8 35.2-35l-3 2.7c1.7-1.7 2.7-3 2.6-3-.1-.1-13.3 12.5-32.6 31a1167 1167 0 0 0 31.5-32.1l-1.1 1a1425 1425 0 0 0-38 36.6c23-23.6 37.8-39 37.6-39.2-.1-.1-5.7 5.4-14 13.6 8-8.4 13.3-14.2 13.2-14.3s-10.7 10.5-27 27.2c16-17 26.1-28 26-28.2l-10.2 10.2c6-6.4 9.7-10.6 9.6-10.7-.2-.2-10.6 10.6-26.8 27.5a990 990 0 0 0 25.8-28.5c-.1-.1-7.3 7.4-17 17.6l16.1-18.2-1.3 1.3v-.1l-3.7 3.9-.3.4c-6 6.3-18 19-31.8 33.9l-.1-.2L364.9 84l1-1-1.3 1.1v.1l-3.7 3.9-.3.4-23 25a1117 1117 0 0 0 27.2-31.7l-12.6 13.8 12-14.4c-.2-.1-10.6 11.5-23.8 26.4a939 939 0 0 0 22.7-27.2c-.1 0-5.3 5.7-12.5 14l12-14.6c-.3-.2-13 14.3-29.1 33.2l5-6.1 3.2-4 2.8-3.4A546 546 0 0 0 360.9 79c-1 .9-15.6 18-34.9 41l-.2-.2 11.3-14.1 3.2-4 2.8-3.4a795 795 0 0 0 16.1-20.6c-.6.5-7.3 8.5-16.3 19.3a432 432 0 0 0 15.8-20.3 821 821 0 0 0-24.2 29.3 864 864 0 0 0 23-30.3l-9.8 12 9.3-12.4a861 861 0 0 0-24 29.6 653 653 0 0 0 22.8-30.7c-.2 0-7.2 8.9-16.3 20.7 8.9-12 15.7-21 15.5-21a1534 1534 0 0 0-33.4 42.5h-.2c18-24.7 32-43.8 31.9-43.9-.1 0-1.8 2-4.1 5.1l3.7-5.4c-.2-.1-6.4 8.1-16.2 21.2a670 670 0 0 0 15.3-22c-.2 0-6.8 8.8-15.6 20.8C345 80 351.2 71 351.1 71s-6.3 8.1-15.9 21.4a442 442 0 0 0 15-22.2c-.3 0-9.5 13-21.5 29.5a975 975 0 0 0 20.4-30.2c-.2-.1-6.8 9.3-17.7 24.5 10.6-15.6 17-25 16.8-25.2-.1 0-7 9.5-15.8 22 8.6-12.7 15-22.5 14.9-22.6s-6.7 9.4-17.4 24.8a685 685 0 0 0 16.4-25.3 1801 1801 0 0 0-30.6 44.8c16.6-25.9 29.3-45.7 29-45.9-.1 0-11.2 16.6-28 42a1145 1145 0 0 0 26.5-43l-2.2 3.3c1.2-2 2-3.5 1.9-3.5s-11.1 16.7-27.6 42.3c15.8-25.9 26.3-43.1 26-43.3l-6.2 9.5c3.4-5.7 5.8-9.7 5.7-9.8-.2 0-10.8 16.7-26.9 42.6 15.4-26 25.6-43.4 25.3-43.5l-2.1 3.2q2-3.2 1.8-3.4c-.2-.2-9.2 14.5-22 35.6a1121 1121 0 0 0 20.6-36.4l-1 1.6.8-1.7c-.2-.2-11.4 18.4-27.8 46.5 16-28.8 26.4-47.4 26.2-47.5s-5.9 9.4-13.2 22.2c7-13 12.4-22.7 12.2-22.8-.1 0-8.1 13.8-19.8 34.3a719 719 0 0 0 18.5-35s-3.1 5.2-8 14a255 255 0 0 0 7.4-14.4c-.2-.1-8 14-19.4 34.6a951 951 0 0 0 18.1-35.3c-.2 0-4.6 8.1-10.8 19.5l7.2-14.2 1.8-3.7.2-.4.7-1.6-1.1 1.8-2.4 4.4c-4.1 7.3-12.5 23.1-22.3 41.6l-.2-.2L318 79.3v-.2q4.6-8.9 7.1-14.3c.4-.8.6-1 .8-1.7l1.9-3.8q0-.3.2-.5.6-1.4.5-1.5l-1 1.8-2.4 4.5-17.6 34c11.2-23 20-40.9 19.7-41l-9 17.3a355 355 0 0 0 8.1-17.7c-.2 0-8.1 16-18.4 36.6 9.8-20.8 17.5-37.1 17.3-37.2-.2 0-3.8 7.2-8.9 17.5 4.8-10.4 8.2-17.8 8-17.9s-9.2 18.7-21 43.1A1380 1380 0 0 0 323 54.6l-.2.3c-.7.8-10.5 21.4-23.3 48.6l-.2-.1c12.4-28.2 21.8-49.7 21.6-49.7l-.1.2c-.4.6-4.3 8.8-9.7 20.4 5.3-12.2 9-21 8.8-21.1s-6.5 14-16.3 35.8a770 770 0 0 0 15-36.4s-2.6 5.5-6.6 14.8l5.9-15c-.2-.1-6.3 14-15.9 36a844 844 0 0 0 14.6-36.6c-.2 0-4.5 10-10.2 23.3 5.5-13.6 9.4-23.7 9.3-23.8m-20 54.6a115.4 115.4 0 1 1-91.3 212.2 115.5 115.5 0 1 1 91.4-212.2"/><path fill="#4a0" d="m280.6 178.7-.2-.2v.8c0 1.3 1.1 2.4 2.4 2.4h.7q0-.2-.2-.2h-.2a2.5 2.5 0 0 1-2.5-2.4zm-1-.8-.1-.2v2.5q.1 2.2 2.4 2.4h2.5l-.1-.2H282a2.5 2.5 0 0 1-2.5-2.4zm-.9-.9-.2-.2v4.4q.1 2.1 2.4 2.3l4.3.1-.2-.3h-3.9c-1.3 0-2.4-1-2.4-2.4zm-1-.7v-.2 6c0 1.3 1 2.4 2.3 2.4h6q-.2 0-.2-.2h-5.6q-2.2-.1-2.4-2.5zm-1-.7v7.6c0 1.3 1.1 2.4 2.4 2.4h7.7l-.2-.2h-7.2a2.4 2.4 0 0 1-2.4-2.4v-7.3zm-.9-.7-.1-.2v9.3q.1 2.3 2.4 2.4h9.2l-.2-.2h-8.8a2.5 2.5 0 0 1-2.5-2.4zm-.9-.6-.2-.1v10.7c0 1.4 1.1 2.4 2.4 2.4H288l-.2-.2h-10.5a2.5 2.5 0 0 1-2.4-2.4zm13.5 13.8h-12c-1.3 0-2.4-1-2.4-2.5v-11.9q-.2 0-.2-.2V186q.2 2.1 2.4 2.3h12.3zm-15.3-15-.2-.1v13.9c0 1.2 1 2.4 2.4 2.4H289l-.1-.3h-13.5c-1.3 0-2.4-1-2.4-2.4zm-1-.5-.2-.2v15.4c0 1.3 1 2.4 2.4 2.4h15.3v-.2h-15a2.4 2.4 0 0 1-2.5-2.4zm-.9-.6h-.3v16.7c0 1.4 1.1 2.4 2.4 2.4h16.9l-.2-.2h-16.4a2.4 2.4 0 0 1-2.4-2.4zm-1-.4-.2-.1v18.1c0 1.4 1.1 2.4 2.4 2.4h18.3l-.2-.1h-17.9a2.5 2.5 0 0 1-2.4-2.5zm-1-.5v19.5c0 1.3 1 2.4 2.4 2.4H291l-.2-.2h-19.2c-1.3 0-2.4-1-2.4-2.4zm-.9-.5v21c0 1.3 1 2.4 2.4 2.4h20.9v-.3h-20.7c-1.3 0-2.5-1-2.5-2.4zm-.9-.3-.3-.1v22.3c0 1.3 1.2 2.4 2.4 2.4H292v-.2h-22a2.4 2.4 0 0 1-2.5-2.4zm-1-.4h-.2v23.5c0 1.4 1.1 2.4 2.4 2.4h23.6v-.1h-23.4a2.4 2.4 0 0 1-2.3-2.5zm-1-.4v24.9c0 1.3 1.1 2.4 2.4 2.4h25l-.2-.2H268a2.5 2.5 0 0 1-2.4-2.4zm-.9-.3v26q.1 2.4 2.4 2.5H293l-.1-.2h-26c-1.2 0-2.4-1-2.4-2.4zm-.9-.3-.2-.1v27.5c0 1.3 1 2.4 2.3 2.4h27.6l-.1-.3H266c-1.3 0-2.4-1-2.4-2.4zm-1-.3h-.2v28.6c0 1.3 1.1 2.4 2.4 2.4h28.7v-.2H265q-2.2-.1-2.4-2.4zm31.1 31.8h-29.6a2.5 2.5 0 0 1-2.4-2.4v-29.7h-.2v29.9c0 1.3 1.1 2.4 2.4 2.4h30zM260.8 168h-.2v31c0 1.4 1.1 2.4 2.4 2.4h31v-.2h-30.8a2.5 2.5 0 0 1-2.4-2.4zm-1-.2V200q.1 2.1 2.4 2.3h32.2v-.2h-32c-1.3 0-2.4-1-2.4-2.4zm-.8-.2-.2-.1-.1 33.4c0 1.3 1 2.4 2.5 2.4h33.3v-.2h-33.1c-1.3 0-2.4-1-2.4-2.4zm-1-.2h-.2V202c0 1.3 1 2.4 2.4 2.4h34.5v-.3h-34.3a2.4 2.4 0 0 1-2.4-2.3zm-.9-.2h-.3V203c0 1.3 1.1 2.4 2.4 2.4H295v-.2h-35.5a2.5 2.5 0 0 1-2.4-2.4zM295 206h-36.5a2.5 2.5 0 0 1-2.4-2.4v-36.4h-.2v36.6c0 1.4 1.1 2.4 2.4 2.4H295zm-39.8-38.9h-.2v37.6q.1 2.3 2.4 2.4H295v-.1h-37.5c-1.3 0-2.4-1-2.4-2.5zm-1-.2-.1 38.9c0 1.2 1 2.4 2.5 2.4h38.7v-.3h-38.6c-1.2 0-2.4-1-2.4-2.4zm-.9 0h-.3v39.8c0 1.3 1.1 2.4 2.4 2.4h39.9l-.1-.3h-39.5q-2.2-.2-2.4-2.3zm-1 0h-.2v40.7c0 1.4 1.1 2.4 2.4 2.4h40.8v-.2h-40.6a2.5 2.5 0 0 1-2.4-2.4zm-1 0h-.1v41.6q.2 2.3 2.4 2.4h41.8l-.1-.1h-41.5a2.5 2.5 0 0 1-2.4-2.5zm-2.3 0h-.2v41.4c0 1.3-1.1 2.5-2.4 2.5h-41.5l-.1.1h41.8c1.2 0 2.4-1 2.4-2.4zm46.4 46.3h-41.8a2.5 2.5 0 0 0-2.4 2.4v41.7h.2v-41.5c0-1.3 1-2.5 2.4-2.5l41.5.1zM248 166.9h-.2v40.5c0 1.3-1 2.4-2.5 2.4H205v.2h40.7c1.3 0 2.4-1.1 2.4-2.4zm47.3 47.3-40.8-.1a2.5 2.5 0 0 0-2.4 2.4v40.8h.3v-40.5q.2-2.2 2.3-2.4h40.6zM247 166.9h-.3v39.6q-.2 2.1-2.4 2.3H205l-.1.3h39.8c1.3 0 2.4-1.1 2.4-2.4zm48.2 48.2h-39.9c-1.3 0-2.4 1-2.4 2.4v39.8h.3v-39.6c0-1.3 1-2.4 2.4-2.4h39.5zM246 167h-.2v38.6c0 1.4-1.1 2.4-2.4 2.4H205v.3h38.7c1.4 0 2.4-1.2 2.4-2.4zm49 49.1h-38.7q-2.1.2-2.3 2.4v38.8h.1v-38.6c0-1.3 1.1-2.4 2.4-2.4h38.6zm-50-49v37.4c0 1.4-1.1 2.5-2.4 2.5H205v.1h37.7c1.3 0 2.4-1 2.4-2.3zm50 50h-37.7a2.4 2.4 0 0 0-2.4 2.4V257h.2v-37.5c0-1.3 1-2.5 2.4-2.5zM244.2 167l-.2.1v36.4c0 1.3-1 2.4-2.4 2.4h-36.5v.2h36.7c1.3 0 2.4-1 2.4-2.4zm50.8 51h-36.7a2.5 2.5 0 0 0-2.4 2.4V257h.2v-36.4c0-1.4 1.1-2.5 2.4-2.5zm-51.7-50.6h-.2v35.4c0 1.3-1 2.4-2.4 2.4h-35.4v.2H241c1.3 0 2.4-1 2.4-2.4zm51.5 51.5h-35.6a2.5 2.5 0 0 0-2.4 2.4V257l.3-.1v-35.3q.2-2.3 2.3-2.4h35.4zm-52.4-51.3h-.3v34.3q-.2 2.1-2.4 2.3h-34.2v.3H240c1.3 0 2.4-1.1 2.4-2.4zm52.3 52.3h-34.5c-1.3 0-2.4 1-2.4 2.4v34.5h.2v-34.3c0-1.3 1-2.4 2.4-2.4h34.2zm-53.3-52.2h-.2v33.2c0 1.3-1.1 2.4-2.4 2.4h-33.1v.2H239c1.3 0 2.5-1 2.5-2.4zm53.1 53.2h-33.3q-2.2.2-2.4 2.4v33.3h.2v-33.1c0-1.3 1-2.5 2.4-2.5h33.1zm-54-53h-.2v32c0 1.4-1.2 2.4-2.5 2.4h-32v.2H238q2.3-.2 2.4-2.3zm53.8 53.9h-32.2a2.4 2.4 0 0 0-2.4 2.4v32.2h.2v-32c0-1.3 1.1-2.4 2.4-2.4h32zM239.6 168h-.2v31c0 1.3-1.1 2.4-2.4 2.4h-31v.2h31c1.3 0 2.5-1 2.5-2.4zm54.5 54.6h-31a2.5 2.5 0 0 0-2.4 2.4v31.1h.2v-30.8q.2-2.3 2.4-2.4H294zm-55.5-54.3h-.2V198c0 1.3-1 2.4-2.4 2.4h-29.6v.2h29.8c1.3 0 2.4-1 2.4-2.5zm55.3 55.2H264a2.5 2.5 0 0 0-2.4 2.4v30h.3v-29.7q.2-2.3 2.3-2.4h29.6zm-56.2-55-.3.1V197c0 1.3-1 2.4-2.4 2.4h-28.3l-.1.2h28.7c1.3 0 2.4-1 2.4-2.4zm56 56h-28.8c-1.3 0-2.4 1-2.4 2.5v28.6h.3V227c0-1.3 1-2.4 2.4-2.4zm-57-55.7h-.2V196c0 1.4-1.1 2.4-2.4 2.4h-27.2v.3h27.4c1.4 0 2.5-1.1 2.5-2.4zm56.7 56.7h-27.6a2.4 2.4 0 0 0-2.3 2.4v27.4h.2v-27.2c0-1.3 1-2.4 2.4-2.4h27.2zM235.7 169v26c0 1.4-1.2 2.4-2.5 2.4h-25.9v.2h26.1q2.3-.2 2.4-2.3zm57.4 57.3h-26.2a2.4 2.4 0 0 0-2.4 2.4V255h.1v-26c0-1.3 1.2-2.4 2.5-2.4H293zm-58.3-57-.2.1v24.7c0 1.3-1 2.4-2.4 2.4h-24.6l-.1.2h25c1.2 0 2.3-1 2.3-2.4zm58 58h-25a2.5 2.5 0 0 0-2.4 2.3v25h.2V230q.2-2.3 2.4-2.5l24.6.1zm-59-57.6-.2.1.1 23.3c0 1.3-1.1 2.4-2.4 2.4H208l-.2.2h23.7c1.3 0 2.4-1 2.4-2.4zm58.5 58.5h-23.6a2.5 2.5 0 0 0-2.4 2.4v23.7l.3-.1v-23.4c0-1.3 1-2.4 2.3-2.4h23.4zm-59.3-58h-.3v22.1c0 1.3-1 2.4-2.4 2.4h-22v.2h22.3c1.3 0 2.4-1.1 2.4-2.4zm59 59h-22.4c-1.3 0-2.4 1-2.4 2.5V254h.3v-22.1c0-1.3 1-2.4 2.4-2.4h22zm-60-58.7-.2.1v20.7c0 1.4-1.2 2.4-2.4 2.4h-20.7l-.1.3h21c1.3 0 2.3-1.1 2.3-2.4zm59.6 59.7h-21a2.4 2.4 0 0 0-2.3 2.4v21l.1-.2v-20.6c0-1.3 1.2-2.4 2.4-2.4h20.7zM231 171l-.2.1v19.3q-.1 2.3-2.4 2.4h-19.2l-.2.2h19.6q2.3-.2 2.4-2.4zm60.2 60.1h-19.6a2.4 2.4 0 0 0-2.4 2.4v19.7l.2-.1v-19.4c0-1.3 1-2.4 2.4-2.4H291zm-61.1-59.6h-.2v18c0 1.2-1.1 2.4-2.4 2.4h-17.9l-.2.1h18.3c1.3 0 2.4-1 2.4-2.4zm60.7 60.6h-18.3a2.5 2.5 0 0 0-2.4 2.4v18.2h.2v-18c0-1.4 1.1-2.5 2.4-2.5h17.9zm-61.6-60.2-.3.1v16.5c0 1.3-1 2.4-2.3 2.4H210l-.1.2h16.8c1.3 0 2.4-1 2.4-2.4zm61.1 61h-16.9a2.5 2.5 0 0 0-2.4 2.5v16.8h.3v-16.5q.2-2.3 2.3-2.4h16.5zm-62-60.5q-.2 0-.3.2v15c0 1.3-1 2.4-2.4 2.4h-15l-.1.2h15.3c1.3 0 2.4-1.1 2.4-2.4zm61.4 61.6h-15.3c-1.3 0-2.4 1-2.4 2.4v15.3l.2-.1v-15c0-1.3 1-2.4 2.4-2.4h15zm-62.5-61h-.2v13.6q-.2 2.3-2.4 2.4h-13.5v.3h13.8c1.3 0 2.3-1.1 2.3-2.4zm62 62h-14q-2 .2-2.2 2.3v14q0-.2.2-.3v-13.5c0-1.3 1-2.4 2.4-2.4H289zm-62.9-61.5-.2.2v12c0 1.3-1 2.4-2.4 2.4h-12l-.1.1h12.3q2.3-.2 2.4-2.3zm62.3 62.4h-12.3a2.4 2.4 0 0 0-2.4 2.4v12.3l.2-.1v-12c0-1.3 1.1-2.5 2.4-2.5h12zm-63.2-61.7h-.2v10.5c0 1.3-1.1 2.4-2.4 2.4h-10.5q0 .2-.2.2H223c1.3 0 2.4-1 2.4-2.4zm62.7 62.6h-10.9a2.5 2.5 0 0 0-2.4 2.4V250l.2-.2v-10.4c0-1.3 1.1-2.3 2.4-2.3H288zm-63.6-62-.2.1v8.9c0 1.3-1.1 2.4-2.5 2.4H213l-.2.2h9.2c1.3 0 2.5-1 2.5-2.4zm63 63h-9.3a2.5 2.5 0 0 0-2.4 2.3v9.3l.2-.2v-8.8q.1-2.3 2.5-2.4h8.8zm-64-62.3h-.3v7.4c0 1.3-1 2.4-2.4 2.4h-7.2l-.2.2h7.7c1.3 0 2.4-1.1 2.4-2.4zm63.3 63.1H279a2.5 2.5 0 0 0-2.4 2.5v7.6l.3-.2v-7.2c0-1.3 1-2.4 2.4-2.4h7.2l.2-.2zm-64.3-62.5-.2.2v5.5q-.2 2.3-2.4 2.5h-5.5l-.2.2h5.9q2.3-.2 2.4-2.4zm63.6 63.5h-6a2.4 2.4 0 0 0-2.4 2.5v5.9l.2-.1v-5.7c0-1.3 1-2.4 2.4-2.4h5.6zm-64.5-62.8-.2.2v4c0 1.3-1.1 2.3-2.4 2.3h-4q0 .2-.2.3h4.3c1.4 0 2.4-1.1 2.4-2.4zm63.7 63.8h-4.2a2.4 2.4 0 0 0-2.5 2.4v4.2l.2-.1v-4c0-1.2 1.1-2.3 2.4-2.3h4zm-64.6-63-.2.3v2c0 1.4-1.1 2.5-2.4 2.5H216l-.1.2h2.5c1.2 0 2.4-1 2.4-2.4zm63.8 63.9H282a2.5 2.5 0 0 0-2.4 2.4v2.6l.2-.2v-2.1q.1-2.3 2.4-2.4h2.2zm-64.8-63-.2.2v.4c0 1.3-1 2.4-2.5 2.4h-.2q-.2 0-.2.2h.7c1.3 0 2.4-1 2.4-2.4zm64 64h-.8a2.5 2.5 0 0 0-2.4 2.3v.9l.3-.2v-.4q.2-2.3 2.3-2.4h.4zm-35.3-28.6q-.8-.8-1.8-.8h-41.8l.1.3h41.5c1.3 0 2.4 1 2.4 2.4v41.5h.2v-41.7q0-1-.6-1.7m-1 1q-.6-.8-1.7-.8H205v.3h40.6c1.3 0 2.4 1 2.4 2.4l-.1 40.4.3.1v-40.8q0-1-.8-1.7m-1 .8q-.6-.5-1.7-.6H205l.1.2h39.5q2.3.1 2.4 2.4v39.5h.3v-39.7q0-1-.8-1.8m-1 1q-.7-.6-1.6-.7H205v.2h38.5c1.3 0 2.5 1.1 2.5 2.4V257h.1v-38.7q0-1-.6-1.6m-.8 1q-.7-.8-1.8-.8h-37.7v.2h37.5c1.3 0 2.4 1.1 2.4 2.4v37.6h.2v-37.7q0-1-.6-1.7m-1 1q-.6-.8-1.7-.8h-36.7v.3l36.5-.1c1.3 0 2.4 1 2.4 2.5V257h.2v-36.7q0-1-.7-1.7m-1 .8q-.7-.6-1.6-.7h-35.7v.3h35.5c1.3 0 2.4 1 2.4 2.4l-.1 35.3h.3v-35.6q0-1-.8-1.7m-1 1q-.6-.6-1.6-.7h-34.5v.2h34.2c1.4 0 2.5 1.1 2.5 2.4v34.3h.2v-34.5q0-1-.7-1.7m-.8 1q-.7-.8-1.7-.8h-33.4v.2H239c1.3 0 2.4 1.1 2.4 2.4v33.2h.2v-33.3q0-1-.6-1.7m-1 1q-.6-.8-1.7-.8H206l.1.2h32c1.3 0 2.4 1 2.4 2.4v32h.2V224q0-1-.7-1.7m-1 .8q-.6-.7-1.6-.7h-31v.3H237c1.3 0 2.4 1 2.4 2.4V256l.2.1v-31q0-1-.8-1.8m-1 1q-.6-.8-1.6-.8h-29.9l.1.3H236c1.3 0 2.4 1 2.4 2.4V256h.2v-30q0-1-.7-1.6m-.8.9q-.6-.7-1.7-.7h-28.7v.2H235c1.4 0 2.4 1.1 2.4 2.4v28.5h.3V227q0-1.1-.7-1.8m-1 1q-.6-.7-1.6-.7h-27.5v.2h27.2q2.3.2 2.4 2.4v27.2h.2v-27.4q0-1-.7-1.8m-.9 1q-.7-.8-1.7-.8H207l.1.2h26c1.3 0 2.4 1 2.4 2.4v26h.2v-26.2q0-1-.7-1.7m-1 .9q-.6-.8-1.7-.8h-24.9l.1.3h24.6c1.3 0 2.5 1 2.5 2.3v24.7l.1.1v-25q0-1-.6-1.6m-1 .9q-.6-.8-1.6-.8h-23.6v.3h23.4q2.1.1 2.3 2.4v23.4h.3v-23.6q0-1-.7-1.7m-.9 1q-.6-.8-1.6-.8h-22.3v.3h22q2.3.2 2.4 2.4v22l.3.1v-22.3q0-1.1-.8-1.8m-.9 1q-.6-.8-1.7-.8h-21l.1.2h20.7q2.3.2 2.4 2.4v20.6l.3.1-.1-20.9q0-1-.7-1.7m-1 .9q-.6-.8-1.7-.8H209q0 .2.2.2h19.2c1.3 0 2.5 1.1 2.5 2.4v19.4h.1v-19.6q0-1-.6-1.6m-.8.9q-.7-.8-1.8-.8h-18.2l.1.2h18c1.2 0 2.3 1.1 2.3 2.5v18h.2v-18.2q0-1-.6-1.7m-1 1q-.6-.9-1.7-.8H210l.2.2h16.4q2.3.1 2.4 2.5V252l.3.1v-16.8q0-1-.8-1.7m-1 .8q-.7-.5-1.6-.6h-15.4v.2h15q2.4.2 2.5 2.4v15h.3v-15.2q0-1-.8-1.8m-1 1q-.7-.6-1.6-.7H211l.1.2h13.5c1.4 0 2.5 1.1 2.5 2.4V251l.1.2v-13.9q0-1-.6-1.6m-.8 1q-.7-.8-1.8-.8h-12.3v.2h12.1c1.3 0 2.4 1.1 2.4 2.4v12l.2.2v-12.3q0-1-.6-1.7m-1 1q-.6-.9-1.7-.8H212l.2.2h10.5c1.3 0 2.4 1 2.4 2.5v10.3l.2.2v-10.8q0-1-.7-1.7m-1 .8q-.6-.6-1.6-.7h-9.3l.2.3h8.9q2.1.1 2.3 2.4v8.8l.3.2V240q0-1-.8-1.7m-.9 1q-.6-.6-1.7-.7h-7.7l.2.2h7.3c1.3 0 2.4 1.1 2.4 2.4v7.2l.2.2V241q0-1-.7-1.7m-1 .9q-.6-.6-1.7-.7h-6l.3.2h5.5c1.4 0 2.4 1.1 2.4 2.4v5.7h.2V242q0-1-.6-1.7m-.9 1q-.6-.7-1.7-.7h-4.3l.2.2h3.9c1.3 0 2.4 1 2.4 2.4v3.9l.2.1V243q0-1-.7-1.7m-.9 1q-.6-.8-1.7-.8h-2.5l.1.3h2.2c1.3 0 2.4 1 2.4 2.3v2.2l.2.2v-2.6q0-1-.7-1.7m-1 .9q-.6-.8-1.7-.8h-.7q0 .2.2.3h.3c1.3 0 2.4 1 2.4 2.4v.4l.2.2v-.9q0-1-.7-1.6"/><path fill="#8f2a46" d="m247.9 132.6 2.1 27.2 2.2-27.2zm6.5 0-.1 27.4 4.4-27zm-9.5.2-4.3.3 4.7 27zm16.4.5-2.5 27.2 6.8-26.4zm-23.2.2-4.4.7 7 26.4zm-6.5 1.2-4.3 1.1 9.3 25.9zm36.8 0-5 27 9.3-25.9zm6.3 1.8-7.1 26.4 11.3-25zm-50 .2-4.1 1.5 11.3 24.8zm56.5 2.3-9.4 25.6 13.5-23.8zm-63.2.2-3.8 1.9 13.6 23.7zm-5.9 3-3.7 2.1 15.5 22.5zm75.8 0L276 166.7l15.5-22.5zm5.5 3.3-13.7 23.6 17.4-21.2zm-87.5.4-3.5 2.5 17.5 21zm93.2 3.7-15.7 22.2 19-19.5zm-98.7.4-3.4 2.9 19.3 19.3zm-5 4.3-3.1 3.1 20.8 17.7zm109.3 0-17.8 20.8 20.8-17.7zm4.5 4.8-19.5 19.1 22.3-15.8zm-119 .4-2.6 3.5 22.3 15.6zm123.4 5-21 17.4 23.4-14zm-127.7.4-2.4 3.7 23.6 13.6zm-3.6 5.6-2.2 3.7 24.7 11.6zm135.4 0-22.6 15.3 24.8-11.6zm3.2 5.6-23.8 13.6 25.7-9.6zm-142.1.7-1.9 4 25.8 9.4zm145 5.7L299 193.9l26.4-7.3zm-147.8.6-1.5 4.1 26.4 7.2zm-2.2 6.3-1.1 4.1 27 5zm152.4 0-25.8 9.1 27-5zm1.6 6.3-26.4 7 27.2-2.7zm-155.8.7-.7 4.3 27.3 2.5zm157 6.2-27 4.6 27.3-.3zm-158 .7-.4 4.3H198zm-.5 6.5v4.4l27.3-2.2zm159 0L302 212l27.4 2.2zm-27.4 6.5 27 4.5.3-4.4zm-104 .5-27.4.3.5 4.3zm103.3 4 26.6 6.8.7-4.3zm-102.8.4-27.1 2.8.8 4.3zm1 4.3-27 5 1.2 4.2zm100.8 0 25.8 9.2 1.1-4.2zm-1.2 4.1L324 241l1.5-4.1zm-98.2.4-26.3 7.4 1.5 4.1zm96.4 3.8 23.8 13.4 1.9-4zm-94.6.5-25.6 9.6 1.8 4zm2 3.8-24.7 11.7 2.2 3.8zm90.4 0 22.5 15.5 2.2-3.8zm-2.2 3.6 21 17.4 2.5-3.6zm-85.6.4L184 256l2.4 3.6zm82.8 3.3 19.5 19 2.7-3.3zm-80 .4L188 261.7l2.8 3.3zm2.8 3.1-20.7 17.7 3 3.2zm74 0 17.6 20.9 3.1-3.2zm-3.2 2.9 15.8 22.2 3.4-2.8zm-67.2.4-19.1 19.5 3.4 2.8zm63.6 2.4L294 278l3.5-2.4zm-60 .3-17.3 21.2 3.7 2.5zm3.7 2.3-15.5 22.6 3.7 2.2zm52.2 0L288 282l3.7-2.2zm-3.8 2 9.7 25.6 4-1.9zm-44.2.2-13.4 23.9 4 1.8zm40 1.6 7.3 26.3 4.1-1.5zm-35.8.1-11.2 25 4.2 1.4zm4.2 1.3-9.2 25.8 4.3 1.1zm27 0 5 26.9 4.2-1.1zm-4.1.9 2.6 27.3 4.3-.8zm-18.3 0-6.7 26.6 4.3.8zm13.7.6.4 27.4 4.2-.4zm-9.2.1-4.3 27 4.3.4zm4.4.2-2.1 27.2h4.3z"/><path fill="#ff542a" d="M250 16s-21.7 27.8-28.7 51.6a146 146 0 0 0-53 22c-22-11.9-56.9-16.2-56.9-16.2s4.3 35 16.2 56.9a145 145 0 0 0-22 53C81.8 190.3 54 212 54 212s27.8 21.6 51.6 28.7a144 144 0 0 0 22 53c-11.9 22-16.2 56.8-16.2 56.8s35-4.2 56.8-16a146 146 0 0 0 53 22C228.4 380.3 250 408 250 408s21.7-27.7 28.7-51.5a146 146 0 0 0 53-22c22 11.8 56.9 16 56.9 16s-4.3-34.9-16.2-56.8a144 144 0 0 0 22-53c23.8-7 51.6-28.7 51.6-28.7s-27.8-21.7-51.7-28.7a145 145 0 0 0-22-53c12-21.9 16.3-57 16.3-57s-35 4.4-56.8 16.3a146 146 0 0 0-53-22C271.6 43.8 250 16 250 16m-30.7 60.8q-.3 4.2 0 7.7c2.3 15.7 30.7 36.1 30.7 36.1s28.4-20.4 30.7-36q.3-3.7 0-7.8 23.4 5.4 43.1 18-3.1 2.5-5.3 5.4c-9.5 12.6-4 47.2-4 47.2s34.7 5.7 47.3-3.9q2.9-2.1 5.5-5.4a139 139 0 0 1 17.8 43.3q-2.7-.4-5.2-.3l-2.4.2c-15.7 2.2-36 30.7-36 30.7s20.3 28.4 36 30.6q3.6.5 7.6 0a138 138 0 0 1-17.8 43.3q-2.7-3.3-5.5-5.5c-5.6-4-15.3-5.4-24.4-5.5-12 0-22.8 1.7-22.8 1.7s-5.6 34.6 3.9 47.3q2.2 2.8 5.3 5.3-19.7 12.7-43.1 18 .3-4 0-7.7c-2.3-15.6-30.7-36.1-30.7-36.1s-28.4 20.5-30.7 36.1q-.3 3.6 0 7.7a136 136 0 0 1-43.1-18q3-2.5 5.4-5.3c9.4-12.7 3.8-47.3 3.8-47.3s-10.9-1.7-22.7-1.7c-9.2.1-19 1.4-24.5 5.5q-2.9 2.2-5.5 5.5-12.4-19.7-17.8-43.3 4 .5 7.7 0c15.6-2.2 36-30.6 36-30.6s-20.4-28.5-36-30.7q-2.4-.3-5 0v-.2l-2.7.3q5.4-23.4 17.8-43.3 2.7 3.3 5.5 5.4c12.6 9.6 47.2 3.9 47.2 3.9s5.6-34.6-3.8-47.2q-2.3-3-5.4-5.4 19.7-12.6 43.1-18"/><path fill="#ffcc12" d="M250 42.7S228.4 70.3 230.6 86c1.4 9.8 19.4 22.6 19.4 22.6s18-12.8 19.4-22.6c2.2-15.7-19.4-43.3-19.4-43.3M130.2 92.4s4.3 34.7 16.9 44.2c8 5.9 29.8 2.3 29.8 2.3s3.5-21.7-2.5-29.7c-9.4-12.6-44.2-16.8-44.2-16.8m239.6 0s-34.8 4.2-44.2 16.8c-6 8-2.5 29.7-2.5 29.7s21.8 3.6 29.8-2.3c12.6-9.5 16.9-44.2 16.9-44.2m-249 100.2c-16 .6-40.1 19.4-40.1 19.4s27.6 21.6 43.2 19.3c9.8-1.4 22.7-19.3 22.7-19.3s-13-17.8-22.7-19.2q-1.5-.2-3.1-.2m256.8 0-1.4.2c-9.9 1.4-22.8 19.2-22.8 19.2s13 18 22.8 19.3c15.5 2.3 43.1-19.3 43.1-19.3s-25.8-20.1-41.7-19.4M165 284.1c-6.4 0-14 .5-17.9 3.5-12.6 9.5-16.9 44.2-16.9 44.2s34.8-4.2 44.2-17c6-7.9 2.5-29.7 2.5-29.7s-5.5-.8-12-1m170 0c-6.4.2-12 1-12 1s-3.4 21.8 2.6 29.8c9.4 12.7 44.2 17 44.2 17s-4.3-34.8-16.9-44.3c-4-3-11.5-3.6-17.9-3.5m-85 31.3s-18 12.9-19.4 22.8c-2.2 15.6 19.4 43.2 19.4 43.2s21.6-27.6 19.4-43.2c-1.4-10-19.4-22.8-19.4-22.8"/><path fill="#00a1a7" d="M250.1 66.2s-10 15.8-8.9 24.7c.7 5.7 8.9 13 8.9 13s8-7.4 8.7-13c1-8.9-8.7-24.7-8.7-24.7M146.9 109s4.3 18.1 11.3 23.7c4.5 3.5 15.5 3 15.5 3s.5-11-3-15.5c-5.6-7-23.8-11.2-23.8-11.2m206.2 0s-18 4.1-23.7 11.2c-3.5 4.4-3 15.4-3 15.4s11 .6 15.4-3c7-5.6 11.3-23.6 11.3-23.6m-225.8 94.2c-9.2.2-23 9-23 9s15.8 9.7 24.6 8.6c5.7-.6 13.1-8.7 13.1-8.7s-7.4-8.2-13-8.9zm245.5 0h-1.7c-5.7.7-13 9-13 9s7.3 8 13 8.6c9 1 24.7-8.7 24.7-8.7s-13.8-8.7-23-9m-201 85.2c-3.3 0-10.3.3-13.6 3-7 5.6-11.3 23.7-11.3 23.7s18.2-4.2 23.7-11.3c3.6-4.4 3-15.3 3-15.3zm156.5 0-1.9.1s-.5 10.9 3 15.3c5.6 7 23.7 11.3 23.7 11.3s-4.2-18-11.2-23.7c-3.3-2.7-10.4-3-13.6-3M250 320s-8.2 7.4-8.9 13c-1 9 8.9 24.8 8.9 24.8s9.7-15.8 8.7-24.8c-.6-5.6-8.7-13-8.7-13"/><path fill="#64345b" d="M217.4 73.1a140 140 0 0 0-42.6 17.6c5.6 13 3.2 28.5-7.1 39a35 35 0 0 1-39 7.1q-12.1 19.7-17.7 42.6c13.1 5.3 22.5 18 22.5 32.7s-9.4 27.3-22.5 32.6q5.5 23 17.8 42.6 6.6-3 13.7-3a34.7 34.7 0 0 1 32.3 49q19.6 12.2 42.6 17.7c5.3-13.2 18-22.5 32.7-22.5s27.3 9.3 32.6 22.5q23-5.5 42.5-17.7a34.7 34.7 0 0 1 46-46q12.3-19.6 17.8-42.6a35 35 0 0 1-22.5-32.6c0-14.9 9.4-27.4 22.5-32.7a143 143 0 0 0-17.7-42.6 35 35 0 0 1-38.9-7.2 35 35 0 0 1-7.2-38.9q-19.5-12.1-42.5-17.6c-5.3 13-17.9 22.3-32.6 22.3s-27.4-9.2-32.7-22.3m32.6 68a71 71 0 1 1 0 142 71 71 0 0 1 0-142"/><path fill="#00a1a7" d="m247.1 105 1 12.3-4.9.2v-12.2l-5.9.5 2 12-4.3.5-1.1-12-5.8 1 3 11.8-3.7.8-2.2-11.9-5.8 1.5 4.1 11.5-4.4 1.5-3.4-11.9-5.3 2 5 11-4 1.8-4.4-11.3-5.2 2.5 6 10.4-3.5 1.9-5.2-11-5.1 3 6.8 10-3.9 2.6-6.2-10.6-4.8 3.5 7.8 9.3-3.4 2.7-7.2-9.9-4.4 3.9 8.5 8.5q-1.4 1.5-2.9 2.6l-7.8-9.2-4.2 4.2 9.3 7.9-3.3 3.5-8.7-8.4-3.7 4.5 10 7q-1.5 1.6-2.6 3.4l-9.5-7.8-3.4 5 10.6 6-2 3.3-10-6.9-3.1 5.1 11 5.2-2.2 4.3-10.7-6-2.4 5.4 11.4 4.2-1.5 4-11.2-5-1.9 5.5 11.8 3.2-1.2 3.7-11.5-4.1-1.5 5.6 12 2.4q-.7 2.2-1 4.5l-12-3-1 5.7 12.3 1.2-.7 4.3-12-2-.4 5.8 12.1.1v4L143 209v6l12.3-1.1.1 5h-12.1l.6 5.7 12-2q0 2.3.5 4.4l-12 1.2 1 5.7 11.6-3 1 3.8-12 2.2 1.5 5.7 11.5-4 1.4 4.4-11.7 3.2 2 5.5 11-5.1 1.7 4L152 255l2.5 5.3 10.6-6.1q.8 1.8 1.8 3.5l-11 5.3 3 5 10-6.9 2.6 4-10.4 6.2 3.2 4.8 9.4-7.7q1.4 1.6 2.7 3.4l-9.8 7 3.8 4.6 8.6-8.6q1.2 1.5 2.6 2.8l-9.3 8 4.2 4 7.8-9.2 3.6 3.3-8.5 8.6 4.6 3.8 7-10q1.5 1.5 3.3 2.6l-7.6 9.4 4.9 3.4 6-10.4 3.2 2-6.8 10 5 3 5.3-11 4.2 2.3-6 10.5 5.5 2.5 4-11.4 4.1 1.6-5 11.1 5.6 2 3-11.8 3.7 1.1-4 11.6 5.7 1.5 2.2-12 4.5 1-2.8 11.8 5.6 1 1.1-12.1q2.3.4 4.4.5l-1.9 12 5.9.5v-12.2l3.9.2-1 12.1h5.9l-1-12 4.8-.3.2 12.2 5.7-.6-2-12q2.2-.1 4.3-.5l1.2 12 5.8-1-3.1-11.7 3.7-.9 2.2 12 5.8-1.5-4.1-11.6 4.4-1.4 3.4 11.8 5.4-2.1-5-11 4-1.6L293 310l5.4-2.6-6-10.5 3.3-1.8 5.3 11 5-3-6.8-10 4-2.5 6 10.4 4.9-3.4-7.8-9.2 3.5-2.8 7 10 4.5-3.9-8.5-8.6 2.9-2.7 7.9 9.3 4.1-4.1-9.2-8 3.2-3.5 8.7 8.5 3.7-4.5-9.9-7 2.6-3.5 9.4 7.8 3.3-4.9-10.5-6.1q1.2-1.6 2.1-3.3l10 7 3-5.1-11-5.3 2.2-4.2 10.7 6 2.4-5.4-11.4-4.3 1.6-4 11 5 2-5.5-11.7-3.1q.5-2 1.2-3.7l11.4 4.1 1.5-5.7-12-2.2 1.1-4.7 11.9 3 1-5.8-12.2-1 .6-4.3 12 1.8.4-5.8h-12.1v-4l12.3 1v-6l-12.2 1.1-.2-4.8 12.1-.1-.5-5.8-12 2-.5-4.3 12-1.2-1-5.8-11.7 3.2-1-3.7 12-2.4-1.5-5.6-11.4 4-1.5-4.5 11.7-3.2-2-5.5-11 5.1-1.7-4L348 169l-2.5-5.4-10.6 6-1.8-3.4 11-5.2-3-5-10 6.8-2.5-4 10.3-6.1-3.2-4.8-9.4 7.7-2.7-3.5 9.9-7-3.8-4.6-8.6 8.7-2.6-3 9.2-7.8-4.1-4.2-8 9.2-3.5-3.1 8.5-8.7-4.6-3.8-7 10q-1.6-1.5-3.4-2.6l7.8-9.5-5-3.3-6 10.4-3.2-2 6.8-10-5-3-5.3 11-4.2-2.2 6-10.6-5.4-2.4-4.2 11.3-4-1.5 5-11.1-5.6-2-3.2 11.8-3.6-1.2 4-11.5-5.7-1.5-2.2 11.9-4.6-1 3-11.8-5.7-1-1.2 12.1-4.3-.5 1.9-12-5.9-.4v12H252l1-12.2zm3 15.4h1.7a57 57 0 0 1 7.5.5q3.6.3 7.2 1l.6.1 5 1 .4.2.8.2a114 114 0 0 1 13.5 4.7l2.1 1q.5 0 .8.3l.2.1 4.4 2.2 3 1.8 3.5 2.2.4.4q1.3.7 2.3 1.6a61 61 0 0 1 6.2 4.8l.1.2q2 1.5 3.7 3.3l.2.2 2.2 2.1v.1l2.8 3 2.4 2.7 2.7 3.7 2 2.7a66 66 0 0 1 4.4 7.2l1.9 3.6 1.5 3.1 1.8 4.3.2.5.5 1.3.4 1.4 2.1 6.8.2.8.2.5.9 4q.8 3.9 1.2 7.9v.6l.2 2.8.3 5v3.3q0 2.2-.2 4.3v2.1l-.2 1.3-1 7.2-.2.7-1 4.9q0 .3-.2.5l-.2.7-1.8 6-1.1 3.3-1.8 4.2-.9 2-.5 1-3 6-1 1.5-2.2 3.5q0 .3-.3.5l-1.6 2.3-2.9 3.6-2 2.5-.1.2q-1.6 1.9-3.4 3.6l-.1.3-2.2 2-.2.2q-1.3 1.5-3 2.8-1.2 1.2-2.6 2.2l-3.6 2.9-1.9 1.3-.9.6-4.2 2.7-.7.5-2.3 1.3a42 42 0 0 1-6.7 3.3l-4.2 1.8q-1.7.5-3.3 1.2l-7.6 2.3h-.4l-4 1a75 75 0 0 1-8 1.2l-.7.1q-1.4 0-2.6.2l-5 .2h-3.5l-4.1-.1-2.2-.2-1.3-.1A75 75 0 0 1 228 301l-.5-.1-.7-.2-6.2-1.9-.8-.2-2.3-1-4.3-1.6-2-1-1.1-.4-4.4-2.3-3-1.8-3.5-2.2-.2-.2-2.6-1.8-3.6-2.7-.3-.2-2.2-2h-.2l-3.6-3.4-.2-.2-2.1-2-.2-.3-2.7-3-2.3-2.6q-1.6-1.8-2.8-3.6l-2-2.8q-1.4-2-2.6-4.2l-1.9-3-1.9-3.7-.4-.8-.8-1.7-.2-.5-1.8-4.4-1.1-3-2.1-6.9-.2-.7-.2-.5-.8-4-.2-.8a60 60 0 0 1-1-7.2l-.1-.4-.2-2.1v-.9l-.3-5v-3.4l.2-4.2.2-2.2v-1.1q.4-4 1.2-8l1-4.8q0-.3.2-.5l.2-.8 1.8-6 .3-.8.8-2.5 1.8-4.1 1-2.2.4-1 2.3-4.4.6-1 1.2-2 2.2-3.5v-.2l2-2.6q1.2-2 2.7-3.6l.2-.3 1.7-2 .2-.3 3.5-3.8 2.2-2.2.2-.2 3-2.8q1.3-1 2.4-2.1.2 0 .2-.2l3.6-2.8 2.8-2 4.2-2.6 3-1.8 3.7-1.8.9-.5 1.5-.7.7-.3 4.3-1.7 3.1-1.2a59 59 0 0 1 7.6-2.3l.5-.2 4-.8q3.8-.8 8-1.3h.7q.9 0 1.7-.2h1l5-.3z"/><path fill="#ff542a" d="M250 109.3a102.7 102.7 0 1 0-.1 205.3 102.7 102.7 0 0 0 .1-205.3m0 31.6a71.2 71.2 0 1 1 0 142.3 71.2 71.2 0 0 1 0-142.3"/><path fill="#8f2a46" d="M250 122a90 90 0 1 0 .1 180 90 90 0 0 0-.1-180m0 8.8a81.2 81.2 0 1 1 .2 162.3 81.2 81.2 0 0 1-.2-162.3"/><path fill="#ffcc12" d="M250 126.4a85.7 85.7 0 1 0 0 171.3 85.7 85.7 0 0 0 0-171.3m0 16.4a69.2 69.2 0 1 1 0 138.4 69.2 69.2 0 0 1 0-138.4m51.2-54.6c-5.3-2.2-11.5.4-13.6 5.7a10.5 10.5 0 1 0 13.6-5.7m-94.5 0q-3.9-1.6-8 0a10.5 10.5 0 1 0 13.7 5.8 11 11 0 0 0-5.7-5.8m161.4 66.9q-4-1.6-8 0a10.4 10.4 0 0 0-5.6 13.6 10.5 10.5 0 1 0 13.6-13.6m-228.2 0c-5.3-2.2-11.5.4-13.7 5.6a10.5 10.5 0 0 0 19.3 8.1c2.2-5.4-.3-11.5-5.6-13.7m228.3 94.6a10.5 10.5 0 1 0-8.1 19.2 10.5 10.5 0 0 0 8-19.2m-228.3 0a10 10 0 0 0-8 0c-5.4 2.2-8 8.3-5.7 13.7 2.2 5.2 8.4 7.8 13.8 5.6a10.4 10.4 0 0 0-.1-19.2m161.4 66.8q-4-1.5-8 0a10.5 10.5 0 0 0 8 19.4c5.4-2.2 7.9-8.3 5.7-13.6a10 10 0 0 0-5.7-5.8m-94.5 0c-5.4-2.2-11.5.3-13.8 5.7-2 5.3.4 11.5 5.7 13.7a10.5 10.5 0 0 0 8-19.4"/><path fill="#8f2a46" d="M250 163.5c-3 0-5.6 2.5-5.6 5.7q.2 3.6 3.5 5l2.1 35.4 2.1-35.3c2-.9 3.6-2.8 3.6-5.1 0-3.2-2.6-5.7-5.7-5.7m-16.4 3.3q-1.1 0-2.2.3a6 6 0 0 0-3 7.4 6 6 0 0 0 5.1 3.5l15.5 31.8-11.5-33.5a6 6 0 0 0 1.3-6.1 6 6 0 0 0-3-3q-1.1-.5-2.2-.4m33 0a6 6 0 0 0-5.2 3.4c-1 2.2-.3 4.6 1.3 6.2L251 209.8l15.6-31.8q3.5 0 5.2-3.4a5.6 5.6 0 0 0-5.2-7.8m-47.2 9.3q-2.2 0-4 1.7a6 6 0 0 0 0 8c1.7 1.6 4.2 2 6.3 1.1l26.5 23.6-23.6-26.6c.9-2 .5-4.5-1.2-6.1a5 5 0 0 0-4-1.7m61.2 0q-2.4 0-4 1.7c-1.7 1.6-2 4-1.2 6l-23.5 26.7 26.4-23.6c2 .9 4.6.5 6.3-1.2a6 6 0 0 0 0-8 6 6 0 0 0-4-1.6M210 190a6 6 0 0 0-5.2 3.5 6 6 0 0 0 3 7.4c2.2 1 4.6.3 6.2-1.3l33.5 11.7-31.9-15.6a5.7 5.7 0 0 0-5.6-5.7m79.8.2q-1 0-2.1.5c-2.2.9-3.4 3-3.4 5.1l-32 15.5 33.6-11.6a5 5 0 0 0 6 1.3 5.6 5.6 0 0 0 3.1-7.3 6 6 0 0 0-5.2-3.5m-83 16.5c-3.1 0-5.7 2.5-5.7 5.6s2.6 5.7 5.6 5.7c2.4 0 4.3-1.5 5.1-3.6l35.4-2-35.4-2.2c-.8-2-2.7-3.5-5-3.5m86.3 0a6 6 0 0 0-5.1 3.5l-35.4 2.1 35.4 2a6 6 0 0 0 5 3.7c3.1 0 5.7-2.6 5.7-5.7s-2.6-5.6-5.6-5.6m-45.6 6.6L214 224.8a5 5 0 0 0-6-1.3 5.6 5.6 0 0 0-3.1 7.4 5.6 5.6 0 0 0 7.3 3c2.1-.8 3.4-3 3.4-5zm4.8 0 31.9 15.6a5.6 5.6 0 0 0 10.8 2.2 6 6 0 0 0-3-7.5 6 6 0 0 0-6.2 1.3zm-4.2.9-26.5 23.5c-2-.8-4.6-.5-6.2 1.1a6 6 0 0 0 0 8 5.6 5.6 0 0 0 8 0c1.6-1.7 2-4 1.1-6.1zm3.7 0 23.5 26.5c-.9 2-.5 4.4 1.2 6a5.6 5.6 0 0 0 8 0 6 6 0 0 0 0-7.9 6 6 0 0 0-6.3-1zm-3 .5-15.5 31.9a6 6 0 0 0-5.2 3.4 5.5 5.5 0 0 0 3 7.3 5.6 5.6 0 0 0 6.1-9zm2.1 0 11.5 33.6a6 6 0 0 0-1.3 6 5.7 5.7 0 0 0 7.4 3.1 5.7 5.7 0 0 0 3-7.3 5 5 0 0 0-5.1-3.4zm-1 .2-2.1 35.5c-2 .8-3.5 2.7-3.5 5 0 3.1 2.5 5.7 5.6 5.7s5.7-2.6 5.7-5.6c0-2.4-1.5-4.3-3.6-5.1z"/><path fill="#ff542a" d="M275.3 212a25.3 25.3 0 1 1-50.5.1 25.3 25.3 0 0 1 50.5 0"/><path fill="#ffcc12" d="M268.2 212a18.2 18.2 0 1 1-18.2-18.2c10.1 0 18.2 8.2 18.2 18.2"/><path fill="#00a1a7" d="M261.1 212a11 11 0 1 1-22.2 0 11.1 11.1 0 0 1 22.2 0"/><path fill="#ff542a" d="M249.7 425.2H248h3.3zm-4.6.4-.9.2h10.9l-.8-.2zm-2.3.6-.7.2h15l-.5-.2zm-1.6.6-.6.1h18l-.3-.1zm-1.3.5-.6.2H260l-.3-.2zm-1.2.5-.5.2h22.9l-.3-.1zm-1 .5-.5.3H262l-.2-.2zm-1 .6-.4.3 26.6-.1-.2-.1zm-1 .5q0 .2-.2.3h28.3l-.2-.2zm-.6.6-.3.3 29.7-.1-.2-.1zm-.7.6-.4.2h31.2l-.1-.2zm-.7.5-.3.3 32.5-.1-.2-.1zm-.6.6-.3.2h33.7l-.1-.1zm-.5.5-.3.3 34.7-.1zm-.6.6-.3.3 35.9-.1-.1-.1zm-.6.5-.1.3H268v-.2zm-.4.6-.2.3 37.7-.1-.1-.1zm-.5.5-.2.2H269h-.1zm-.4.6-.2.3 39.5-.1v-.1zm-.4.6-.2.2h40.3l-.1-.2zm-.4.4q0 .2-.2.3l41-.1zm-.4.7-.1.1h41.7v-.1zm-.2.4-.2.3h42.4zm-.4.6-.2.4 43-.2v-.1zm-.3.5-.2.4 43.7-.2zm-.3.6-.1.4 44.1-.2v-.1zm-.2.5-.1.3H272zm-.3.6-.1.3 45.2-.1zm-.2.6-.2.3 45.7-.2zm-.3.5v.3l46-.1zm-.2.6v.3l46.3-.1v-.1zm-.2.5v.3H273v-.2zm-.1.6-.1.3 47.1-.1v-.1zm-.1.5-.1.3h47.4v-.2zm-.2.6-.1.3 47.8-.1-.1-.1zm-.1.6-.1.2h48v-.2zm-.2.5v.3l48.2-.1v-.1zm0 .6-.2.2H274v-.1zm-.2.4v.4l48.6-.1zm0 .7v.3l48.6-.2zm-.2.5v.3l48.8-.2zm0 .5v.4l49-.1v-.1zm0 .5v.4l49-.2zm0 .6v.4l49-.2zm0 .6v.3l49-.2zm0 .5v.4l49-.2zm0 .6v.3l49-.1zm0 .5v.4l49-.2zm0 .6v.4l49-.2v-.1zm0 .5v.3H274zm.1.6v.3l48.7-.1zm.1.6v.3l48.6-.2zm0 .5.1.3 48.4-.1v-.1zm.2.6v.2h48.2v-.1zm.1.5v.3l48-.1zm0 .6q.2 0 .2.3l47.6-.1v-.1zm.3.5v.3h47.4v-.2zm0 .6q.2 0 .2.3l47-.1v-.1zm.3.5v.3H273l.1-.2zm.1.6.1.3 46.3-.1.1-.1zm.2.6.1.2h46v-.2zm.2.4.2.4 45.5-.1v-.1zm.3.6v.3l45.2-.1zm.3.6v.3l44.6-.2zm.2.5.1.4 44-.1v-.1zm.2.5.2.4 43.5-.2zm.3.6.2.4 42.9-.1v-.1zm.4.6.2.3 42.1-.2h.1zm.3.6.1.2 41.6-.1zm.3.6.2.2h40.9v-.2zm.4.4.2.3 40-.1zm.4.6.2.3 39.3-.1v-.1zm.3.6.3.2H269v-.2zm.5.5.3.3 37.5-.1v-.1zm.5.5.2.3H268l.1-.2zm.5.6.3.3 35.5-.1v-.1zm.6.6.2.2h34.4l.2-.2zm.5.5.3.3 33.3-.1v-.1zm.6.6.3.2h32l.2-.1zm.6.5.4.3 30.7-.1h.1zm.8.6.3.3 29.3-.1.1-.1zm.7.5.3.3h27.8l.2-.2zm.8.6.4.3 26-.1.2-.1zm.9.5.4.3h24.2q.1-.2.3-.2zm1 .6.5.3 22.2-.1.3-.1zm1 .6.6.1h19.9l.3-.1zm1.3.5.7.2h17.1l.5-.1zm1.5.6q.4 0 .7.2h14l.5-.2zm2 .5 1 .2h9.4q.5 0 .8-.2zm3.6.6h4.1z"/><path fill="#64345b" d="M250 415.4s-3.7 4.9-5 9q-5.1 1-9.3 3.8c-3.8-2-10-2.7-10-2.7s.8 6 2.9 9.9q-2.9 4.1-3.8 9.3c-4.2 1.2-9.1 5-9.1 5s4.9 3.8 9 5q1 5.2 3.9 9.4c-2 3.8-2.8 9.9-2.8 9.9s6.1-.7 9.9-2.8a27 27 0 0 0 9.4 4c1.2 4 5 8.9 5 8.9s3.7-4.8 5-9a27 27 0 0 0 9.3-3.9c3.8 2 10 2.8 10 2.8s-.8-6.1-2.9-10q2.9-4 3.8-9.3c4.2-1.2 9.1-5 9.1-5s-4.9-3.8-9-5q-1-5.2-3.9-9.3c2-3.8 2.8-10 2.8-10s-6 .8-9.9 2.8q-4.3-2.7-9.3-3.8c-1.3-4.1-5-9-5-9m0 5.4c.2 0 .3 5 .4 12.5h-.8c0-7.5.3-12.5.5-12.5m-5.3 5.2v1.4q.1 1.5 1.5 2.8l1 3.7-.3-3 1.4 1.4.3 1.4v-1.2q.5.6 1 .8v5.6q-4 .3-6.9 2.8l-3.9-4v.2l-.6.5c-5.3-5.3-8.7-9-8.6-9.1.2-.1 3.8 3.3 9.2 8.6l.1-1.2.8.7-.8-1 .1-2 1.8 2.2-1.9-3q0-2.2-.9-3.5-.3-.5-1-1h.4l4.6 6.6-3.5-7.4.6-.2 4.1 7-3-7.6.9-.4 3.4 7.5-2.2-8 .8-.2 2.8 7.8-1.5-8zm10.7 0 .3.1-.3 1.3-1.3 6.8 2.8-7.8q.4 0 .7.3l-2.2 7.8 3.5-7.4.7.3-2.9 7.7 4.1-7.1q.5 0 .8.3l-3.5 7.4 4.6-6.6h.3l-1 1a6 6 0 0 0-.8 3l-2 3.4 1.9-2.3v2l-.8 1.1.9-.8v1.4l-3.8 3.9a11 11 0 0 0-6.9-3v-5.5q.4-.1.8-.7v1.1l.2-1.2 1.5-1.4-.3 2.8 1-3.4q1.3-1.5 1.7-3zm15.1 3.3c.1.1-3.3 3.8-8.6 9.1l-.5-.5c5.3-5.3 9-8.7 9.1-8.6m-41 7.5q.4.5 1 .9 1.2.7 3 1l3.3 1.9-2.3-1.9h2l1.1.7-.8-.8h1.4l3.9 3.8a11 11 0 0 0-2.9 6.8h-5.5l-.8-.9h1.1l-1.2-.1q-.6-.8-1.4-1.4l2.8.1-3.4-.8a7 7 0 0 0-3-1.7h-1.5l.1-.3 8 1.5-7.7-2.8.3-.7 7.9 2.2-7.4-3.4.2-.8 7.7 2.9-7.1-4 .4-.9 7.4 3.6-6.7-4.7zm41.1 0 .1.2-6.8 4.7 7.5-3.6.3.7-7.1 4 7.7-2.9q0 .5.3.8l-7.4 3.5 7.8-2.3.3.9-7.7 2.8 8-1.5.2.3h-1.4q-1.4.2-2.8 1.4l-3.7 1 3-.3-1.4 1.5-1.4.2h1.2l-.9 1H261q-.3-4-2.9-6.8l4-3.9 1 .1-.7.7 1-.7 2 .1-2 1.7 2.9-1.8q2.1 0 3.5-1zm-20.5 2.7a10.2 10.2 0 0 1 0 20.4 10.2 10.2 0 0 1 0-20.4m0 2.2a8 8 0 1 0 0 16.1 8 8 0 0 0 0-16.1m-16.4 7.6v.9h5.5q.3 4 2.9 6.8l-3.9 4-1.2-.2.7-.7-1 .7h-2l2.2-1.8-3 1.8q-2.1 0-3.5 1l-1 .9v-.3l6.7-4.7-7.4 3.6-.3-.6 7-4.1-7.6 2.9-.3-.8 7.5-3.4-8 2.2-.3-1 7.8-2.7-6.8 1.3-1.3.3v-.3h1.3q1.5-.1 2.8-1.6l3.7-.9-2.9.3q.8-.7 1.3-1.5l1.4-.2H233l.9-1c-7.5-.1-12.5-.3-12.5-.5s5-.3 12.5-.4m32.7 0c7.6 0 12.6.2 12.6.4s-5 .4-12.6.5zm0 .9.7.8h-1l1.2.2 1.3 1.5-2.7-.3 3.4 1q1.5 1.3 3 1.7h1.5l-.1.3-8-1.6 7.6 2.8q0 .4-.2.7l-8-2.2 7.6 3.4-.3.8-7.7-2.9 7.1 4-.4 1-7.5-3.7 6.9 4.7-.2.3-1-1a6 6 0 0 0-3-.9l-3.3-1.9 2.3 1.9h-2l-1.1-.8.8.8-1.4.2c5.3 5.4 8.7 9.1 8.6 9.2-.2 0-3.8-3.3-9.1-8.6l.5-.6q-1.8-2-3.9-4 2.6-2.8 2.9-6.7zm-23.7 7.5q2.8 2.6 6.9 2.8v5.6l-1 .7v-1l-.1 1.2q-.8.5-1.4 1.3l.2-2.7-.9 3.4a7 7 0 0 0-1.7 3v1.4h-.4l1.6-8.2-2.8 7.8-.6-.2 2-8-3.2 7.5-.9-.2 2.9-7.7-4 7.1-.8-.5 3.5-7.4-4.6 6.8-.3-.1 1-1q.7-1.2.8-3l2-3.3-1.9 2.2v-2l.8-1.2-.9.9v-1.3zm14.7 0 3.9 3.9-.1 1.1-.8-.7.8 1-.1 2-1.8-2.1 1.8 3q0 2 1 3.5l1 .9h-.4l-4.6-6.7 3.5 7.4-.6.4-4-7.1 2.8 7.7-.8.2-3.4-7.4 2.2 8-.8.2-2.8-7.8 1.5 8.1-.3.1V472q-.1-1.3-1.5-2.7l-1-3.7.3 3-1.5-1.5-.2-1.4v1.3l-1-.9v-5.6q4-.2 6.9-2.8m-19.2 3.3.6.6c-5.4 5.3-9 8.7-9.2 8.6s3.3-3.8 8.6-9.2m11.4 5.1h.8c0 7.5-.2 12.5-.3 12.5-.2 0-.4-5-.5-12.5m121.3-40.9h-1.7 3.4zm-4.4.4-1 .2h10.9q-.5 0-.9-.2zm-2.3.6q-.5 0-.8.2h15l-.5-.2zm-1.7.6-.7.1h18.1l-.4-.1zm-1.4.5-.6.2h20.7l-.3-.2zm-1.1.5-.5.2h22.8l-.3-.1zm-1 .5-.5.3h24.8l-.2-.2zm-1 .6-.4.3 26.6-.1-.2-.1zm-.9.5-.4.3h28.3l-.1-.2zm-.7.6-.4.3 29.7-.1v-.1zm-.8.6-.3.2h31.2l-.2-.2zm-.6.5-.4.3 32.5-.1v-.1zm-.7.6-.2.2H388l-.2-.1zm-.5.5-.3.3 34.8-.1zm-.6.6-.2.3 35.9-.1-.2-.1zm-.4.5-.3.3h36.8v-.2zm-.5.6-.3.3 37.8-.1v-.1zm-.6.5-.1.2h38.7-.1zm-.3.6-.2.3 39.4-.1v-.1zm-.4.6-.3.2h40.4v-.2zm-.4.4-.2.3 41-.1zm-.3.7-.2.1H392v-.1zm-.4.4-.2.3h42.4zm-.3.6-.2.4 43-.2v-.1zm-.4.5v.4l43.6-.2h-.1zm-.2.6-.1.4 44.2-.2-.1-.1zm-.3.5-.1.3h44.6zm-.2.6-.2.3 45.2-.1zm-.3.6v.3l45.6-.2h-.1zm-.2.5v.3l46-.1zm-.2.6-.1.3 46.5-.1v-.1zm-.1.5-.1.3h46.7v-.2zm-.2.6-.1.3 47.1-.1v-.1zm-.2.5-.1.3h47.4v-.2zm-.2.6v.3l47.7-.1v-.1zm0 .6-.2.2h48v-.2zm-.3.5v.3l48.3-.1-.1-.1zm0 .6v.2h48.4l-.1-.1zm0 .4-.2.4 48.7-.1h-.1zm-.2.7v.3l48.7-.2zm0 .5v.3l48.8-.2zm0 .5-.1.4 48.9-.1v-.1zm-.1.5v.4l49-.2zm0 .6v.4l49-.2zm0 .6v.3l49-.2zm0 .5v.4l49-.2zm0 .6v.3l49-.1zm0 .5v.4l49-.2zm0 .6v.4l48.9-.2v-.1zm0 .5v.3h48.9zm0 .6.1.3 48.7-.1zm.1.6.1.3 48.6-.2zm.1.5.1.3 48.4-.1v-.1zm.1.6v.2h48.2v-.1zm.1.5.1.3 47.9-.1zm.2.6v.3l47.7-.1v-.1zm.1.5v.3h47.4v-.2zm.2.6v.3l47.1-.1v-.1zm.2.5v.3h46.7v-.2zm0 .6q.3 0 .2.3l46.4-.1v-.1zm.2.6.2.2h46v-.2zm.3.4.1.4 45.5-.1v-.1zm.2.6.2.3 45-.1zm.3.6v.3l44.6-.2zm.2.5.2.4 44-.1v-.1zm.3.5.1.4 43.5-.2zm.3.6.2.4 42.8-.1v-.1zm.3.6.2.3 42.2-.2zm.4.6.2.2 41.5-.1zm.2.6.2.2h40.9v-.2zm.4.4.2.3 40.1-.1h.1zm.4.6.3.3 39.2-.1.1-.1zm.5.6.1.2h38.5v-.2zm.4.5.2.3 37.5-.1.1-.1zm.5.5.3.3h36.5v-.2zm.4.6.3.3 35.6-.1v-.1zm.6.6.3.2h34.4l.1-.2zm.6.5.2.3 33.4-.1v-.1zm.5.6.4.2h32l.1-.1zm.7.5.3.3 30.8-.1zm.7.6.4.3 29.2-.1.2-.1zm.7.5.4.3h27.8l.2-.2zm.9.6.3.3 26.2-.1.2-.1zm.8.5.5.3h24.2q.1-.2.3-.2zm1 .6q.3 0 .5.3l22.2-.1.3-.1zm1.1.6.5.1h20l.3-.1zm1.3.5.6.2h17.2l.4-.1zm1.5.6q.4 0 .7.2h14l.5-.2zm2 .5 1 .2h9.4l.8-.2zm3.5.6h4.1z"/><path fill="#64345b" d="M371.5 415.4s-3.8 4.9-5 9q-5.2 1-9.3 3.8c-3.9-2-10-2.7-10-2.7s.8 6 2.9 9.9q-3 4.1-3.9 9.3c-4.2 1.2-9 5-9 5s4.8 3.8 9 5q1 5.2 3.9 9.4c-2.1 3.8-2.9 9.9-2.9 9.9s6.1-.7 10-2.8q4.1 2.8 9.3 4c1.2 4 5 8.9 5 8.9s3.8-4.8 5-9q5.2-1 9.3-3.9c4 2 10 2.8 10 2.8s-.7-6.1-2.8-10a27 27 0 0 0 3.9-9.3c4.1-1.2 9-5 9-5s-4.9-3.8-9-5a27 27 0 0 0-4-9.3c2.2-3.8 3-10 3-10s-6.2.8-10 2.8q-4.3-2.7-9.3-3.8c-1.3-4.1-5.1-9-5.1-9m0 5.4c.2 0 .4 5 .5 12.5h-.9c.1-7.5.2-12.5.4-12.5M366 426v1.4q.4 1.5 1.6 2.8l1 3.7-.4-3 1.5 1.4.2 1.4v-1.2l1 .8v5.6q-4 .3-6.7 2.8l-4-4v.2l-.7.5c-5.2-5.3-8.7-9-8.5-9.1s3.7 3.3 9.2 8.6v-1.2l.8.7-.6-1v-2l1.7 2.2-1.7-3q-.1-2.2-1-3.5l-.9-1h.2l4.6 6.6-3.4-7.4.6-.2 4 7-2.8-7.6.7-.4 3.4 7.5-2.2-8 1-.2 2.6 7.8-1.5-8zm10.8 0 .2.1-.2 1.3-1.2 6.8 2.7-7.8.7.3-2.1 7.8 3.4-7.4.6.3-2.8 7.7 4.1-7.1.8.3-3.6 7.4 4.7-6.6h.3l-1 1a7 7 0 0 0-.9 3l-2 3.4 2-2.3v2l-.8 1.1.8-.8.2 1.4c-1.2 1-2.7 2.6-4 3.9a11 11 0 0 0-6.8-3v-5.5l.9-.7v1.1l.2-1.2 1.4-1.4-.2 2.8.8-3.4q1.6-1.5 1.8-3zm15 3.3c.2.1-3.3 3.8-8.6 9.1l-.5-.5c5.5-5.3 9-8.7 9.2-8.6m-40.9 7.5q.4.5 1 .9a6 6 0 0 0 3 1l3.3 1.9-2.3-1.9h2l1.2.7-.9-.8h1.3l4 3.8a11 11 0 0 0-2.9 6.8h-5.5l-.8-.9h1l-1.1-.1-1.4-1.4 2.7.1-3.4-.8q-1.4-1.5-3-1.7h-1.3v-.3l8 1.5-7.7-2.8.2-.7 8 2.2-7.5-3.4.4-.8 7.6 2.9-7-4 .3-.9 7.4 3.6-6.8-4.7zm41 0 .2.2-6.7 4.7 7.4-3.6.3.7-7.2 4 7.8-2.9.3.8-7.5 3.5 8-2.3.2.9-7.8 2.8 8.1-1.5.1.3h-1.3q-1.4.2-2.8 1.4l-3.8 1 3-.3-1.3 1.5-1.5.2h1.2l-.8 1h-5.6q0-4-2.8-6.8l4-3.9 1 .1-.7.7 1-.7 2 .1-2.2 1.7 3-1.8q2.2 0 3.5-1zm-20.4 2.7a10.2 10.2 0 0 1 0 20.4 10.2 10.2 0 1 1 0-20.4m-.1 2.2c-4.5 0-8 3.6-8 8s3.5 8 8 8 8-3.5 8-8-3.6-8-8-8m-16.3 7.6v.9h5.5q.3 4 2.8 6.8l-3.9 4-1.2-.2.9-.7-1.2.7h-1.9l2.1-1.8-3 1.8q-2 0-3.4 1l-.9.9-.2-.3 6.8-4.7-7.4 3.6-.4-.6 7.1-4.1-7.6 2.9-.3-.8 7.4-3.4-7.9 2.2-.3-1 7.7-2.7-6.7 1.3-1.3.3v-.3h1.3q1.5-.1 2.7-1.6l3.7-.9-2.8.3 1.4-1.5 1.3-.2h-1.2l.9-1c-7.6-.1-12.6-.3-12.6-.5s5-.3 12.6-.4m32.7 0c7.6 0 12.6.2 12.6.4s-5 .4-12.6.5zm0 .9.6.8h-.9l1.1.2 1.4 1.5-2.7-.3 3.4 1q1.5 1.3 3.1 1.7h1.3v.3l-8.2-1.6 7.8 2.8-.2.7-8-2.2 7.6 3.4-.4.8-7.7-2.9 7.2 4-.4 1-7.4-3.7 6.7 4.7-.1.3-1-1a6 6 0 0 0-3-.9l-3.4-1.9 2.3 1.9h-1.9l-1.2-.8 1 .8-1.6.2c5.3 5.4 8.8 9.1 8.7 9.2s-3.7-3.3-9.2-8.6l.5-.6h.1l-3.9-4q2.6-2.8 2.8-6.7zm-23.6 7.5q2.7 2.6 6.7 2.8v5.6l-.8.7v-1l-.2 1.2-1.5 1.3.3-2.7-1 3.4a8 8 0 0 0-1.7 3v1.4h-.3l1.5-8.2-2.7 7.8-.7-.2 2.2-8-3.4 7.5-.8-.2 2.8-7.7-4 7.1-.7-.5 3.4-7.4-4.6 6.8-.2-.1 1-1q.7-1.2.9-3l1.8-3.3-1.8 2.2v-2l.7-1.2-.7.9-.2-1.3zm14.5 0 4 3.9-.1 1.1-.7-.7.6 1v2l-1.8-2.1 1.8 3q.1 2 1 3.5l.9.9h-.3l-4.7-6.7 3.6 7.4-.6.4-4-7.1 2.8 7.7-.7.2-3.5-7.4 2.2 8-.9.2-2.7-7.8 1.4 8.1-.2.1V472q-.3-1.3-1.5-2.7l-1-3.7.3 3-1.5-1.5-.2-1.4v1.3l-1-.9v-5.6q4-.2 6.8-2.8m-19.2 3.3.7.6c-5.5 5.3-9.1 8.7-9.2 8.6-.2-.1 3.3-3.8 8.5-9.2m11.5 5.1h.9c-.1 7.5-.3 12.5-.5 12.5s-.3-5-.4-12.5"/><path fill="#00a1a7" d="M189 425.2h-1.7 3.2zm-4.5.4-1 .2h10.9q-.5 0-.8-.2zm-2.4.6-.8.2h15.1l-.5-.2zm-1.6.6-.7.1H198l-.4-.1zm-1.4.5-.6.2h20.7l-.3-.2zm-1.2.5-.5.2h23l-.4-.1zm-1 .5-.4.3h24.8l-.2-.2zm-1 .6-.3.3 26.6-.1-.2-.1zm-.8.5-.3.3H203v-.2zm-.7.6-.4.3 29.7-.1v-.1zm-.8.6-.3.2h31.2l-.2-.2zm-.7.5-.3.3 32.5-.1v-.1zm-.6.6-.2.2h33.7l-.2-.1zm-.5.5-.3.3 34.8-.1h-.2zm-.6.6-.2.3 35.8-.1v-.1zm-.5.5-.2.3h36.8v-.2zm-.5.6-.2.3 37.8-.1v-.1zm-.5.5-.1.2h38.6zm-.3.6-.2.3 39.5-.1v-.1zm-.5.6-.2.2H209v-.2zm-.3.4-.2.3 41-.1zm-.3.7-.3.1h41.9l-.1-.1zm-.4.4-.2.3h42.4zm-.3.6-.2.4 43-.2v-.1zm-.4.5v.4l43.6-.2h-.1zm-.2.6-.2.4 44.2-.2v-.1zm-.3.5-.1.3h44.6zm-.2.6-.2.3 45.2-.1zm-.3.6v.3l45.5-.2zm-.2.5-.1.3 46-.1zm-.2.6-.1.3 46.5-.1v-.1zm-.1.5-.2.3h46.8v-.2zm-.2.6-.1.3 47-.1v-.1zm-.2.5v.3h47.3v-.2zm-.2.6v.3l47.7-.1v-.1zm0 .6-.2.2h48v-.2zm-.3.5v.3l48.2-.1v-.1zm0 .6v.2H213v-.1zm-.1.4v.4l48.5-.1zm0 .7-.1.3 48.7-.2zm-.1.5v.3l48.8-.2zm-.1.5v.4l48.9-.1v-.1zm0 .5v.4l49-.2zm0 .6v.4l49-.2zm-.1.6v.3l49-.2zm0 .5v.4l49-.2zm0 .6v.3l49-.1zm0 .5v.4l49-.2zm0 .6v.4l49-.2v-.1zm.2.5v.3h48.8zm0 .6v.3l48.7-.1zm0 .6v.3l48.6-.2zm.1.5v.3l48.4-.1v-.1zm.1.6v.2H213v-.1zm.1.5.1.3 48-.1zm.2.6v.3l47.7-.1v-.1zm.1.5.1.3h47.3v-.2zm.2.6v.3l47-.1.1-.1zm0 .5q.3.2.2.3h46.7v-.2zm.3.6v.3l46.5-.1v-.1zm.2.6v.2h46v-.2zm.2.4.1.4 45.5-.1v-.1zm.2.6q0 .2.2.3l45-.1zm.3.6v.3l44.6-.2zm.2.5.2.4 44-.1v-.1zm.3.5.1.4 43.5-.2zm.2.6.2.4 43-.1v-.1zm.4.6.2.3 42.2-.2zm.3.6.2.2 41.6-.1zm.4.6.1.2h40.9v-.2zm.3.4.2.3 40.1-.1h.1zm.4.6.2.3 39.4-.1v-.1zm.5.6.1.2h38.5v-.2zm.4.5.2.3 37.5-.1.1-.1zm.5.5.2.3h36.6v-.2zm.5.6.2.3 35.5-.1.1-.1zm.5.6.3.2h34.4l.1-.2zm.6.5.2.3 33.3-.1.2-.1zm.5.6.3.2H205l.1-.1zm.7.5.3.3 30.8-.1zm.7.6.4.3 29.2-.1.1-.1zm.8.5.3.3H203l.2-.2zm.8.6.4.3 26-.1.3-.1zm.8.5.5.3H201l.2-.2zm1 .6.5.3 22.2-.1.3-.1zm1 .6.6.1h20l.3-.1zm1.4.5.6.2h17.2l.4-.1zm1.4.6q.5 0 .8.2h14l.5-.2zm2 .5 1 .2h9.5l.8-.2zm3.6.6h4.1z"/><path fill="#64345b" d="M189.3 415.4s-3.8 4.9-5 9q-5.1 1-9.4 3.8c-3.8-2-9.9-2.7-9.9-2.7s.8 6 2.8 9.9q-2.7 4.1-3.8 9.3c-4.2 1.2-9 5-9 5s4.8 3.8 9 5q1 5.2 3.8 9.4c-2 3.8-2.8 9.9-2.8 9.9s6.1-.7 10-2.8a27 27 0 0 0 9.3 4c1.2 4 5 8.9 5 8.9s3.8-4.8 5-9a27 27 0 0 0 9.4-3.9c3.8 2 10 2.8 10 2.8s-.9-6.1-3-10q3-4 3.9-9.3c4.2-1.2 9-5 9-5s-4.8-3.8-9-5q-1-5.2-3.8-9.3c2-3.8 2.9-10 2.9-10s-6.2.8-10 2.8q-4.3-2.7-9.4-3.8c-1.2-4.1-5-9-5-9m0 5.4c.2 0 .4 5 .5 12.5h-.9c.1-7.5.2-12.5.4-12.5m-5.4 5.2v1.4q.3 1.5 1.6 2.8l1 3.7-.4-3 1.5 1.4.2 1.4v-1.2l1 .8v5.6a12 12 0 0 0-6.8 2.8l-4-4v.2l-.6.5c-5.2-5.3-8.7-9-8.5-9.1s3.7 3.3 9.2 8.6v-1.2l.8.7-.7-1v-2l1.8 2.2-1.7-3q-.1-2.2-1-3.5l-1-1h.3l4.6 6.6-3.5-7.4.7-.2 4 7-2.8-7.6.7-.4 3.4 7.5-2.2-8 1-.2 2.6 7.8-1.5-8zm10.8 0 .2.1-.2 1.3-1.2 6.8 2.7-7.8.7.3-2.1 7.8 3.4-7.4.6.3-2.7 7.7 4-7.1.8.3-3.5 7.4 4.6-6.6h.3l-1 1a6 6 0 0 0-.9 3l-2 3.4 2-2.3v2l-.8 1.1.8-.8.2 1.4h-.1l-3.9 3.9a11 11 0 0 0-6.7-3l-.1-5.5.8-.7v1.1l.3-1.2 1.4-1.4-.3 2.8 1-3.4q1.4-1.5 1.7-3zm15 3.3c.2.1-3.3 3.8-8.5 9.1l-.6-.5c5.4-5.3 9-8.7 9.2-8.6m-41 7.5 1 .9a6 6 0 0 0 3.1 1l3.3 1.9-2.3-1.9h2l1 .7-.7-.8h1.3l4 3.8a11 11 0 0 0-2.8 6.8H173l-.7-.9h1l-1.2-.1-1.4-1.4 2.8.1-3.5-.8q-1.5-1.5-3-1.7h-1.4v-.3l8.1 1.5-7.7-2.8.2-.7 8 2.2-7.5-3.4.3-.8 7.7 2.9-7.2-4 .5-.9 7.4 3.6-6.8-4.7zm41.2 0 .1.2-6.8 4.7 7.4-3.6.4.7-7.2 4 7.7-2.9.4.8-7.5 3.5 8-2.3.1.9-7.6 2.8 8-1.5.1.3h-1.4q-1.3.2-2.7 1.4l-3.8 1 3-.3-1.4 1.5-1.4.2h1.2l-.8 1H200q0-4-2.7-6.8l3.8-3.9 1 .1-.6.7 1-.7 2 .1-2.1 1.7 3-1.8q2 0 3.4-1 .5-.2 1-.8m-20.6 2.7a10.2 10.2 0 0 1 0 20.4 10.2 10.2 0 0 1 0-20.4m0 2.2a8 8 0 1 0 0 16.1 8 8 0 0 0 0-16.1m-16.3 7.6-.1.4.1.5h5.6q0 4 2.7 6.8l-4 4h.1l-1.2-.2.8-.7-1 .7h-2l2.1-1.8-3 1.8q-2.1 0-3.3 1-.6.3-1 .9l-.2-.3 6.7-4.7-7.3 3.6-.4-.6 7.2-4.1-7.7 2.9-.4-.8 7.5-3.4-7.9 2.2-.3-1 7.7-2.7-6.7 1.3-1.3.3-.1-.3h1.4q1.3-.1 2.8-1.6l3.7-.9-3 .3 1.4-1.5 1.4-.2H172l.9-1c-7.6-.1-12.6-.3-12.6-.5s5-.3 12.6-.4m32.7 0c7.6 0 12.6.2 12.6.4s-5.1.4-12.6.5zm0 .9.6.8h-1l1.2.2 1.4 1.5-2.8-.3 3.5 1a8 8 0 0 0 3 1.7h1.4v.3l-8.1-1.6 7.6 2.8-.1.7-8-2.2 7.5 3.4q0 .4-.3.8l-7.7-2.9 7.2 4-.4 1-7.4-3.7 6.7 4.7-.1.3-1-1a6 6 0 0 0-3-.9l-3.4-1.9 2.4 1.9h-2l-1.2-.8.8.8-1.3.2c5.2 5.4 8.7 9.1 8.6 9.2s-3.8-3.3-9.2-8.6l.6-.6-3.8-4a11 11 0 0 0 2.7-6.7zm-23.6 7.5q2.7 2.6 6.7 2.8v5.6l-.8.7v-1l-.2 1.2-1.5 1.3.2-2.7-.8 3.4a8 8 0 0 0-1.8 3v1.4h-.3l1.5-8.2-2.7 7.8-.7-.2 2.1-8-3.3 7.5-.7-.2 2.7-7.7-4 7.1-.8-.5 3.5-7.4-4.6 6.8-.3-.1 1-1q.8-1.2.9-3l2-3.3-2 2.2v-2l.8-1.2-.8.9-.1-1.3zm14.5 0 4 3.9-.1 1.1-.7-.7.6 1v2l-1.7-2.1 1.7 3q0 2 1 3.5l.9.9h-.3l-4.6-6.7 3.5 7.4-.7.4-4-7.1 3 7.7-.8.2-3.5-7.4 2.2 8-.9.2-2.7-7.8 1.4 8.1-.2.1V472q-.3-1.3-1.5-2.7l-1-3.7.2 3-1.3-1.5-.3-1.4v1.3l-1-.9v-5.6q4-.2 6.8-2.8m-19.2 3.3.7.6c-5.5 5.3-9 8.7-9.2 8.6s3.3-3.8 8.5-9.2m11.5 5.1h.9c-.1 7.5-.3 12.5-.5 12.5s-.3-5-.4-12.5"/><path fill="#ffcc12" d="M128.2 425.2h-1.7 3.3zm-4.5.4-1 .2h11l-1-.2zm-2.3.6q-.5 0-.7.2h15l-.6-.2zm-1.7.6-.6.1h18l-.3-.1zm-1.4.5-.5.2h20.6l-.2-.2zm-1 .5-.5.2h22.7l-.1-.1zm-1 .5-.6.3h24.9q-.2 0-.2-.2zm-1 .6q-.2 0-.5.3l26.7-.1-.3-.1zm-1 .5-.3.3h28.2v-.2zm-.7.6-.3.3 29.7-.1-.1-.1zm-.7.6-.3.2h31.1l-.2-.2zm-.7.5-.3.3 32.5-.1-.1-.1zm-.6.6-.3.2H145v-.1zm-.6.5-.3.3 34.9-.1h-.1zm-.4.6-.3.3 35.8-.1-.2-.1zm-.6.5-.3.3h36.9l-.1-.2zm-.5.6-.2.3 37.8-.1-.1-.1zm-.4.5-.3.2h38.7zm-.5.6-.2.3 39.5-.1v-.1zm-.4.6-.2.2h40.3v-.2zm-.3.4-.2.3 41-.1zm-.4.7-.2.1h41.8l-.1-.1zm-.4.4q0 .2-.2.3h42.5zm-.2.6-.2.4 43-.2v-.1zm-.4.5-.1.4 43.6-.2zm-.3.6v.4l44-.2v-.1zm-.3.5v.3h44.7-.1zm-.2.6-.1.3 45.2-.1zm-.2.6-.1.3 45.6-.2zm-.2.5-.1.3 46-.1zm-.2.6-.2.3 46.5-.1v-.1zm-.2.5v.3h46.7v-.2zm-.2.6v.3l47-.1v-.1zm-.2.5v.3H152l-.1-.2zm-.1.6v.3l47.7-.1v-.1zm-.1.6-.1.2h48v-.2zm-.1.5-.1.3 48.2-.1v-.1zm-.1.6-.1.2h48.4v-.1zm-.1.4-.1.4 48.6-.1zm-.1.7-.1.3 48.7-.2zm-.1.5v.3l48.8-.2zm0 .5-.1.4 49-.1v-.1zm-.1.5v.4l49-.2zm0 .6v.4l49-.2zm0 .6v.3l49-.2zm0 .5v.4l49-.2zm0 .6v.3l49-.1zm0 .5v.4l49-.2zm0 .6.1.4 48.9-.2v-.1zm.1.5v.3h48.8zm0 .6v.3l48.7-.1zm0 .6.2.3 48.5-.2zm.2.5v.3l48.4-.1v-.1zm0 .6.2.2h48l.1-.1zm.2.5v.3l48-.1zm.2.6v.3l47.7-.1v-.1zm0 .5.1.3H152v-.2zm.2.6.1.3 47-.1v-.1zm.2.5.1.3h46.7v-.2zm.1.6.2.3 46.3-.1v-.1zm.2.6.2.2h46v-.2zm.3.4v.4l45.5-.1.1-.1zm.2.6.1.3 45-.1zm.2.6.1.3 44.6-.2zm.2.5.2.4 44-.1v-.1zm.3.5.2.4 43.4-.2h.1zm.4.6q0 .3.2.4l42.7-.1.1-.1zm.2.6.2.3 42.3-.2zm.4.6.2.2 41.5-.1zm.4.6v.2h41v-.2zm.3.4.1.3 40.2-.1zm.4.6.2.3 39.3-.1v-.1zm.4.6.2.2h38.4l.1-.2zm.5.5.1.3 37.6-.1v-.1zm.4.5.3.3h36.5v-.2zm.5.6.3.3 35.5-.1.1-.1zm.5.6.3.2h34.5v-.2zm.6.5.3.3 33.3-.1.1-.1zm.6.6.3.2h32l.2-.1zm.7.5.3.3 30.7-.1h.1zm.6.6.4.3 29.3-.1.2-.1zm.8.5.4.3H142l.2-.2zm.8.6.4.3 26.1-.1.2-.1zm.9.5.4.3h24.3q0-.2.3-.2zm1 .6q.2 0 .4.3l22.3-.1.2-.1zm1 .6.5.1h20l.3-.1zm1.4.5.5.2H137l.3-.1zm1.5.6.6.2h14l.6-.2zm2 .5 1 .2h9.4q.4 0 .7-.2zm3.4.6h4.2z"/><path fill="#64345b" d="M128.5 415.4s-3.8 4.9-5 9q-5.1 1-9.2 3.8c-4-2-10-2.7-10-2.7s.7 6 2.8 9.9a27 27 0 0 0-3.9 9.3c-4.1 1.2-9 5-9 5s4.9 3.8 9 5q1 5.2 4 9.4c-2.2 3.8-3 9.9-3 9.9s6.2-.7 10-2.8q4.2 2.8 9.3 4c1.2 4 5 8.9 5 8.9s3.8-4.8 5.1-9q5.1-1 9.3-3.9c3.9 2 10 2.8 10 2.8s-.8-6.1-2.9-10q2.9-4 4-9.3c4-1.2 9-5 9-5s-5-3.8-9-5q-1.1-5.2-4-9.3c2.1-3.8 2.9-10 2.9-10s-6.1.8-10 2.8q-4.3-2.7-9.3-3.8c-1.3-4.1-5-9-5-9m0 5.4c.2 0 .4 5 .5 12.5h-.8c0-7.5.2-12.5.3-12.5m-5.2 5.2v1.4q.2 1.5 1.4 2.8l1 3.7-.3-3 1.5 1.4.2 1.4v-1.2l1 .8v5.6q-4 .3-6.8 2.8l-4-4v.2l-.6.5c-5.3-5.3-8.6-9-8.5-9.1s3.7 3.3 9.1 8.6l.1-1.2.8.7-.7-1v-2l1.8 2.2-1.8-3q0-2.2-1-3.5l-.8-1h.1l4.7 6.6-3.5-7.4.6-.2 4 7-2.8-7.6.7-.4 3.5 7.5-2.2-8 .9-.2 2.7 7.8-1.5-8zm10.7 0 .2.1-.2 1.3-1.3 6.8 2.8-7.8.6.3-2.1 7.8 3.4-7.4.7.3-2.8 7.7 4-7.1q.4 0 .8.3l-3.5 7.4 4.7-6.6h.2l-1 1a7 7 0 0 0-.9 3l-1.9 3.4 2-2.3v2l-.9 1.1.8-.8.2 1.4c-1.2 1-2.7 2.6-4 3.9a11 11 0 0 0-6.7-3v-5.5h-.1l1-.7v1.1l.1-1.2q.8-.6 1.4-1.4l-.2 2.8.8-3.4q1.5-1.5 1.9-3zm15 3.3c0 .1-3.3 3.8-8.6 9.1l-.6-.5c5.5-5.3 9.1-8.7 9.2-8.6m-41 7.5q.4.5 1 .9a6 6 0 0 0 3 1l3.4 1.9-2.3-1.9h2l1.1.7-.8-.8h1.3l3.9 3.8a11 11 0 0 0-2.8 6.8h-5.6l-.7-.9h1l-1.2-.1-1.3-1.4 2.7.1-3.4-.8q-1.5-1.5-3-1.7H105v-.3l8 1.5-7.6-2.8.2-.7 8 2.2-7.6-3.4.4-.8 7.7 2.9-7.1-4 .3-.9 7.4 3.6-6.7-4.7zm41 0q.2 0 .3.2l-6.8 4.7 7.4-3.6.3.7-7.1 4 7.8-2.9.2.8-7.5 3.5 8-2.3.3.9-7.8 2.8 8-1.5.1.3H151q-1.4.2-2.7 1.4l-3.8 1 3-.3-1.4 1.5-1.4.2h1.3l-1 1h-5.5q-.2-4-2.8-6.8l3.9-3.9 1 .1-.7.7 1-.7 2 .1-2.1 1.7 3-1.8q2 0 3.5-1zm-20.4 2.7a10.2 10.2 0 0 1 0 20.4c-5.6 0-10.2-4.6-10.2-10.2s4.6-10.2 10.2-10.2m0 2.2a8 8 0 0 0-8 8 8 8 0 1 0 16 0 8 8 0 0 0-8-8m-16.4 7.6v.9h5.6q.1 4 2.8 6.8l-4 4-1.1-.2.8-.7-1.1.7h-2l2.2-1.8-3 1.8q-2.2 0-3.4 1l-1 .9-.1-.3 6.7-4.7-7.4 3.6q0-.4-.3-.6l7-4.1-7.6 2.9q0-.4-.3-.8l7.4-3.4-7.8 2.2-.3-1 7.7-2.7-6.8 1.3-1.3.3v-.3h1.3q1.5-.1 2.9-1.6l3.6-.9-2.9.3 1.4-1.5 1.3-.2h-1.2l1-1c-7.7-.1-12.7-.3-12.7-.5s5-.3 12.6-.4m32.7 0c7.6 0 12.6.2 12.6.4s-5 .4-12.6.5zm0 .9.7.8h-1l1.2.2q.5.8 1.3 1.5l-2.6-.3 3.3 1q1.5 1.3 3.1 1.7h1.3v.3l-8.1-1.6 7.8 2.8-.2.7-8-2.2 7.5 3.4q0 .4-.3.8l-7.7-2.9 7.2 4-.5 1-7.4-3.7 6.8 4.7-.2.3-1-1a6 6 0 0 0-3-.9l-3.3-1.9 2.3 1.9h-2l-1.2-.8 1 .8-1.5.2c5.4 5.4 8.7 9.1 8.6 9.2s-3.7-3.3-9.2-8.6l.6-.6-3.8-4q2.6-2.8 2.8-6.7zm-23.6 7.5q2.8 2.6 6.8 2.8v5.6l-.9.7v-1l-.2 1.2-1.4 1.3.2-2.7-.9 3.4q-1.4 1.6-1.6 3v1.4h-.4l1.5-8.2-2.7 7.8-.8-.2 2.3-8-3.5 7.5-.7-.2 2.9-7.7-4.1 7.1-.8-.5 3.5-7.4-4.7 6.8-.1-.1.9-1q.6-1.2 1-3l1.8-3.3-1.9 2.2v-2l.7-1.2-.7.9q0-.8-.2-1.3zm14.5 0 4 3.9v1.1l-.8-.7.6 1v2l-1.7-2.1 1.7 3q.1 2 1 3.5l.9.9h-.2l-4.7-6.7 3.5 7.4-.5.4-4.1-7.1 2.8 7.7-.7.2-3.4-7.4 2.1 8-.8.2-2.8-7.8 1.5 8.1-.2.1V472q-.4-1.3-1.6-2.7l-1-3.7.4 3-1.5-1.5-.3-1.4.1 1.3-1.1-.9v-5.6q4-.2 6.8-2.8m-19.1 3.3.6.6c-5.4 5.3-9 8.7-9.1 8.6s3.2-3.8 8.5-9.2m11.5 5.1h.8c-.1 7.5-.3 12.5-.5 12.5z"/><path fill="#4a0" d="M310.4 425.2h-1.7 3.3zm-4.5.4-1 .2h11l-1-.2zm-2.3.6-.8.2h15l-.4-.2zm-1.7.6-.5.1h18l-.3-.1zm-1.4.5-.4.2h20.5l-.2-.2zm-1 .5-.5.2h22.8l-.2-.1zm-1.1.5-.5.3h24.9l-.2-.2zm-1 .6-.4.3 26.7-.1-.3-.1zm-.9.5-.3.3h28.3l-.2-.2zm-.6.6q-.3 0-.4.3l29.8-.1-.2-.1zm-.7.6-.4.2h31.1v-.2zm-.8.5-.3.3 32.6-.1-.2-.1zm-.5.6-.3.2h33.6v-.1zm-.7.5q0 .2-.2.3l34.8-.1h-.1zm-.4.6-.3.3 35.8-.1v-.1zm-.6.5-.3.3h36.9l-.1-.2zm-.5.6-.2.3 37.7-.1v-.1zm-.4.5-.2.2h38.6zm-.5.6-.2.3 39.6-.1-.1-.1zm-.4.6-.1.2h40.2v-.2zm-.3.4-.2.3 41-.1zm-.4.7-.2.1h41.8l-.1-.1zm-.4.4q0 .2-.2.3h42.6-.1zm-.3.6-.1.4 43-.2v-.1zm-.2.5-.2.4 43.6-.2zm-.4.6v.4l44-.2v-.1zm-.2.5q0 .2-.2.3h44.8-.1zm-.3.6-.1.3 45.2-.1zm-.2.6-.1.3 45.6-.2zm-.2.5-.1.3 46-.1zm-.2.6-.1.3 46.4-.1v-.1zm-.2.5v.3h46.7v-.2zm-.2.6v.3l47-.1v-.1zm0 .5-.2.3h47.5l-.1-.2zm-.3.6v.3l47.6-.1v-.1zm-.1.6-.1.2h48v-.2zm-.1.5-.1.3 48.2-.1v-.1zm-.1.6-.1.2h48.4v-.1zm-.1.4v.4l48.5-.1zm-.1.7v.3l48.6-.2s.1 0 0 0zm-.1.5v.3l48.8-.2zm0 .5v.4l48.9-.1v-.1zm0 .5-.1.4 49-.2zm-.1.6v.4l49-.2zm0 .6v.3l49-.2zm0 .5v.4l49-.2zm0 .6v.3l49-.1zm0 .5v.4l49-.2zm0 .6v.4l49-.2v-.1zm0 .5v.3h48.9zm.2.6v.3l48.6-.1zm0 .6v.3l48.6-.2zm0 .5.2.3 48.3-.1v-.1zm.2.6v.2h48.2v-.1zm0 .5q.3.2.2.3l48-.1zm.2.6.1.3 47.6-.1v-.1zm.1.5.1.3h47.5v-.2zm.2.6.1.3 47-.1v-.1zm.2.5.1.3h46.7v-.2zm.2.6v.3l46.4-.1v-.1zm.2.6v.2h46v-.2zm.2.4v.4l45.6-.1v-.1zm.2.6.1.3 45-.1h.1zm.2.6.2.3 44.5-.2zm.3.5.1.4 44-.1v-.1zm.3.5v.4l43.6-.2zm.3.6.1.4 42.8-.1.1-.1zm.2.6.2.3 42.3-.2zm.4.6.2.2 41.5-.1zm.4.6.2.2h40.7l.1-.2zm.4.4v.3l40.2-.1zm.3.6.2.3 39.3-.1v-.1zm.4.6.2.2h38.5v-.2zm.5.5.2.3 37.5-.1v-.1zm.4.5.3.3h36.5v-.2zm.6.6.2.3 35.5-.1.1-.1zm.4.6.3.2h34.5v-.2zm.6.5.4.3 33.2-.1.1-.1zm.6.6.3.2h32l.3-.1zm.7.5.3.3 30.7-.1h.2zm.6.6q.3 0 .4.3l29.3-.1.2-.1zm.8.5.3.3h27.8l.2-.2zm.8.6.4.3 26.1-.1.2-.1zm1 .5.3.3h24.3q0-.2.3-.2zm.9.6q.2 0 .4.3l22.3-.1.2-.1zm1 .6.6.1h20l.2-.1zm1.4.5.5.2h17.3l.3-.1zm1.5.6.7.2h14l.4-.2zm2 .5 1 .2h9.4l.7-.2zm3.5.6h4.1z"/><path fill="#64345b" d="M310.8 415.4s-3.8 4.9-5 9q-5.2 1-9.3 3.8c-3.8-2-10-2.7-10-2.7s.7 6 2.8 9.9a27 27 0 0 0-3.9 9.3c-4.1 1.2-9 5-9 5s4.9 3.8 9 5a27 27 0 0 0 4 9.4c-2.2 3.8-3 9.9-3 9.9s6.3-.7 10-2.8q4.3 2.8 9.3 4c1.3 4 5.1 8.9 5.1 8.9s3.8-4.8 5-9a27 27 0 0 0 9.4-3.9c3.8 2 9.9 2.8 9.9 2.8s-.8-6.1-2.9-10q3-4 3.9-9.3c4.2-1.2 9-5 9-5s-4.8-3.8-9-5q-1-5.2-3.9-9.3c2.1-3.8 2.9-10 2.9-10s-6.1.8-10 2.8q-4.1-2.7-9.3-3.8c-1.2-4.1-5-9-5-9m0 5.4c.1 0 .3 5 .4 12.5h-.8c0-7.5.2-12.5.4-12.5m-5.4 5.2v1.4q.3 1.5 1.5 2.8l1 3.7-.2-3q.6.9 1.4 1.4l.2 1.4v-1.2l1 .8v5.6q-4 .3-6.8 2.8l-3.9-4v.2l-.6.5a179 179 0 0 1-8.7-9.1c.1-.1 3.8 3.3 9.2 8.6l.1-1.2.8.7-.7-1v-2l1.8 2.2-1.8-3q0-2.2-1-3.5l-.8-1h.1l4.8 6.6-3.6-7.4.7-.2 4 7-2.9-7.6.7-.4 3.5 7.5-2.2-8 .9-.2 2.7 7.8-1.4-8zm10.8 0 .2.1-.2 1.3-1.3 6.8 2.8-7.8q.4 0 .7.3l-2.2 7.8 3.4-7.4.8.3-3 7.7 4.2-7.1.7.3-3.4 7.4 4.6-6.6h.2l-1 1a7 7 0 0 0-.8 3l-2 3.4 2-2.3v2l-.8 1.1.8-.8.1 1.4c-1.2 1-2.6 2.6-3.9 3.9a11 11 0 0 0-6.8-3v-5.5h-.1q.4-.1 1-.7v1.1l.1-1.2 1.5-1.4-.3 2.8.8-3.4q1.5-1.5 1.9-3zm15 3.3c.2.1-3.2 3.8-8.5 9.1l-.7-.5c5.5-5.3 9.1-8.7 9.2-8.6m-41 7.5q.4.5 1 .9 1.3.7 3.1 1l3.3 1.9-2.3-1.9h2l1.1.7-.8-.8h1.3q2 1.8 3.9 3.8a11 11 0 0 0-2.8 6.8h-5.6l-.7-.9h1l-1.2-.1-1.3-1.4 2.8.1-3.4-.8q-1.6-1.5-3.2-1.7h-1.3l.1-.3 8 1.5-7.7-2.8.3-.7 7.8 2.2-7.5-3.4.4-.8 7.7 2.9-7.1-4 .3-.9 7.4 3.6-6.7-4.7zm41.2 0v.2l-6.7 4.7 7.4-3.6.4.7-7.1 4 7.6-2.9.3.8-7.4 3.5 7.9-2.3.3.9-7.7 2.8 8-1.5v.3h-1.3q-1.4.2-2.7 1.4l-3.8 1 3-.3-1.4 1.5-1.4.2h1.2l-.9 1h-5.5q-.2-4-2.8-6.8l3.9-3.9 1 .1-.7.7 1-.7 2 .1-2.1 1.7 3-1.8q2.1 0 3.5-1zm-20.6 2.7a10.2 10.2 0 0 1 0 20.4c-5.6 0-10.2-4.6-10.2-10.2s4.6-10.2 10.2-10.2m0 2.2a8 8 0 1 0 0 16.1 8 8 0 0 0 0-16.1m-16.4 7.6v.9h5.6q0 4 2.8 6.8l-4 4-1-.2.7-.7-1 .7h-2l2-1.8-2.9 1.8q-2 0-3.4 1l-1 .9-.1-.3 6.7-4.7-7.4 3.6q0-.4-.3-.6l7-4.1-7.5 2.9-.4-.8 7.4-3.4-7.8 2.2-.3-1 7.8-2.7-6.9 1.3-1.3.3v-.3h1.3q1.5-.1 2.9-1.6l3.7-.9-3 .3 1.4-1.5 1.4-.2h-1.2l.8-1c-7.6-.1-12.6-.3-12.6-.5s5-.3 12.6-.4m32.7 0c7.6 0 12.6.2 12.6.4s-5 .4-12.6.5l.1-.5zm0 .9.8.8h-1l1 .2 1.4 1.5-2.6-.3 3.3 1q1.6 1.3 3.1 1.7h1.3v.3l-8-1.6 7.7 2.8-.2.7-8-2.2 7.5 3.4q0 .4-.3.8l-7.6-2.9 7 4-.4 1-7.4-3.7 6.8 4.7-.1.3-1-1q-1.2-.7-3-.9L324 459l2.3 1.9h-2.1l-1.2-.8 1 .8-1.4.2c5.3 5.4 8.7 9.1 8.5 9.2s-3.7-3.3-9.2-8.6l.7-.6q-1.8-2-4-4 2.7-2.8 2.9-6.7zm-23.6 7.5q2.9 2.6 6.8 2.8v5.6l-.9.7v-1l-.2 1.2-1.4 1.3.2-2.7-.8 3.4q-1.6 1.6-1.8 3v1.4h-.3l1.6-8.2-2.8 7.8-.7-.2 2.2-8-3.5 7.5-.7-.2 2.9-7.7-4.1 7.1-.8-.5 3.6-7.4-4.8 6.8-.1-.1.9-1q.8-1.2.9-3l1.9-3.3-1.9 2.2v-2l.7-1.2-.7.9q0-.8-.2-1.3zm14.5 0 4 3.9v1.1l-.8-.7.7 1v2l-1.8-2.1 1.7 3q.1 2 1 3.5l.9.9h-.2l-4.6-6.7 3.4 7.4-.6.4-4-7.1 2.8 7.7-.7.2-3.4-7.4 2.2 8-1 .2-2.6-7.8 1.5 8.1-.3.1V472q-.4-1.3-1.6-2.7l-1-3.7.4 3-1.5-1.5-.3-1.4.1 1.3-1.1-.9v-5.6q4-.2 6.8-2.8m-19 3.3.5.6c-5.4 5.3-9 8.7-9.2 8.6 0-.1 3.4-3.8 8.7-9.2m11.4 5.1h.8c-.1 7.5-.3 12.5-.4 12.5s-.4-5-.4-12.5"/></svg>