<svg xmlns="http://www.w3.org/2000/svg" xml:space="preserve" version="1.0" viewBox="0 0 286.2 233.1"><path d="M87 194.2q-.6 6.8-4.9 14.3c-3 5-6.8 11.5-12.5 15.6s-14.2 7.7-21.6 8.6-15 .5-22-3.6a54 54 0 0 1-20-21.5 92 92 0 0 1-6-34.2c0-10 3.5-18 5.9-24.6a34 34 0 0 1 8.2-14q-2.8.4-3.3-1.2c-.3-1.1-.6-2.5 1.3-4.8a55 55 0 0 1 20.4-15.4q-3-1.1-4-3.6-1.2-2.7 0-6.6-3.9-.7-6.1-2c-1.6-1-3.1-2-3.2-3.3-.2-1.5 1.5-3.6 2.4-4.8s1.4-1.7 3.3-2q2.9-.6 8.3 0l.5-1.7q-4 .3-7-1.4-3-1.5-4.9-5.1a21 21 0 0 1-2.6-10.6c.2-4.8 1.6-12 4.3-17.2 2.5-5.4 7.2-10 11.3-14.2Q41 34.8 48 30.1q.7-3.6-.7-6c-1-1.8-3.4-2.3-5-3.9-1.6-1.5-4-3.1-4.4-5-.5-2.3-.6-5 1.7-7.4S48 2 51.5 1.2c3.3-.9 6.7.1 8 1.7s.7 5.2-.1 7.4c-.9 2-3.9 3-4.6 5.4a18 18 0 0 0 .2 9.1q4.7-4.8 13.4-10.4c5.8-3.8 14.8-9.6 21-12 6-2.4 10.2-2.5 15-2.3 4.8 0 9.5.9 13.2 3.5s6.5 8.2 8.5 11.9c1.7 3.6 2.1 5.8 2.5 9.3q.6 5-.2 11.2l-2.2 1.5q-.1.5 1.1.5l3.9-.7q2.4-.2 5.8-.2l6.6-.2a5 5 0 0 1 3.3-1.6 15 15 0 0 1 6 0c2.5.4 6.5.7 9.4 2.2 2.8 1.3 5.6 3.8 7.2 5.8q2.3 3 2.2 5.9 1 1.3 2.9.7c1.3-.4 3-1 5-3 2-2.4 4.6-7.5 6.9-10a20 20 0 0 1 6-5c2.6-1.4 5.7-3.2 9.6-4q5.7-1.1 13.2-.5 4.3-7 8.8-12.5c2.8-3.9 5.5-8 9-9.8 3.4-1.8 7.6-1.8 12-1.3 4.4.3 10.2 1.3 14.5 3 4.1 1.6 7.4 4.6 10.2 6.7 2.7 2 5.2 3.8 6.3 5.7q1.5 2.8-.2 5.6 1.6 2.2 2.4 5.7c.4 2.4 1.6 3.6.4 8.4q-2 7-8.1 19.7l3 .9q4-1.1 6.7-.6 2.6.3 4 2.4c1 1.4 2 4.3 1.9 6.2-.5 1.9-2 3.8-3.7 4.6-1.7.5-3.5.2-6.4-.6q-4.5-1-11.4-3.6l-2.2 2.5-2 2.6v3.1q1.7-1.1 3.3-.7 1.3.1 3 2c1.1 1.4 3.7 3.9 4.5 6q1 3-.2 6L235.4 125q1.4 4.3.7 13a107 107 0 0 1-3.4 22 64 64 0 0 1-10 17 31 31 0 0 1-11.6 10.3 32 32 0 0 1-15.6.2 18 18 0 0 1-9.9-6Q182 177 181 170q-12.6 2-26 5.3a357 357 0 0 0-51.5 16.7c-6 2.4-9.2 4.8-11.9 5.3q-4.2.5-4.6-3.2zM227 23.7q7.9-3.6 14-5.1a75 75 0 0 1 21.3-1q-9.7-3.6-15.8-5.2c-4.2-1.2-6.6-2-9-1.2-2.6 1-4.7 4.5-6.2 6.7q-2.6 3.1-4.2 5.8z" style="stroke:#000;stroke-width:.036;stroke-miterlimit:10;fill-rule:evenodd"/><path d="M88.8 176q.5-3 .3-7.7c0-3.2-.3-7.8-.8-11.3q-.9-5.3-2.8-9.7l-2.4 7.2q1 3.5 1 8.5c0 3.2 0 6.5-.7 11.1q-1.2 7-4.3 16.4.7 2.8 2.1 2.4c.9-.2 2.4-1 3.7-3.7q1.9-4.3 3.9-13.2" style="fill-rule:evenodd;fill:#284146"/><path d="M29.9 155.6q-1 3.4-1.8 7c-.6 2.5-1 3.7-1.4 7.4-.5 3.5-1.4 9.4-1.2 14q-.2 6.8 1.6 13.3c1.2 4.4 3.4 9.2 6 12.8q3.9 5.3 9.2 7.7c3.5 1.4 8.1 1.4 12 .8a24 24 0 0 0 10.3-5 46 46 0 0 0 14.5-23.2 34 34 0 0 0 7.4-8.2q1.5-2.9 2.3-6.2-1.5 10.5-3.1 18c-1.1 5-1.4 8-3.2 11.8a52 52 0 0 1-7.9 11.1c-3.3 3.4-6.2 6.9-11.2 9.4-5.1 2.5-13 5-19 5.3-6.1 0-11.7-.9-17.3-4.3-5.8-3.6-13-9.8-17-16.8a81 81 0 0 1-7.2-25 51 51 0 0 1-.4-19c1-6.8 5.4-17.5 6.6-21q1.5-5.4 0 0 2.6 0 5.7 1.2a49 49 0 0 1 10.8 5.6q2.1 1.4 4.3 3.3" style="fill-rule:evenodd;fill:#506e6e"/><path d="M9.1 145.5q2.1-4.4 4.8-7.6 2.4-3.2 6-5.3 3.8-2.2 8.9-3c3-.7 7.5-.6 10.4 0s5 1.2 6.6 2.6a55 55 0 0 0-8 8.6c-2.2 2.9-4 6.6-5.4 9.2a26 26 0 0 0-2.5 6.2 53 53 0 0 0-9-5.8 92 92 0 0 0-11.8-5" style="fill-rule:evenodd;fill:#284146"/><path d="M16 196c-1.3-2.8-3.8-7.7-4.6-12.6a44 44 0 0 1-.4-16.2c1-4.9 5-11 7-12.3s5 .2 5.2 4c0 3.7-3.4 13-4.4 18.1-1 5-1.3 7.8-1.2 11.6 0 3.7 1.5 9.3 1.4 10.6-.4 1.3-1.8-.6-3-3.2" style="fill-rule:evenodd;fill:#78878c"/><path d="M14.2 164.8a10 10 0 0 1 2-5.9c1-1.2 3-1.9 4-1.1.7.7 1.6 3.5 1.1 5.5-.7 2-3.5 5.8-4.7 6.2-1.3.1-2.3-2.9-2.4-4.7" style="fill-rule:evenodd;fill:#a0afaf"/><path d="M126.9 23.7q-.5-4-2.4-7.8a49 49 0 0 0-5.2-8c-1.7-2-2.5-3.1-4.7-4-2.3-1-6-1.7-8.7-2q-4-.6-7.9-.2a27 27 0 0 0-8.8 2.2A75 75 0 0 0 77.5 10a53 53 0 0 0-10.3 7.5 53 53 0 0 0-11.3 17.3c-.8 2.2-1.5 4.6-.4 5.5 1 .7 4.1-.6 6.8-1 2.5-.5 4.5-1.4 8.4-1.5s11.7.1 15.3.6q5.1.4 5.6 1.7c.3 1-2.6 2.7-3.6 4q-1.5 1.6-2.2 2.9l14.4-7.4c6-3.3 16.9-8.7 21.5-11.4q6.7-4 5.1-4.6" style="fill-rule:evenodd;fill:#d7f0e6"/><path d="M85.8 47.1q3.6-1.2 7-2 3.2-1 6.2-1.5 4.4-3.3 8.1-5.5c2.4-1.5 5-2.8 6.7-3 1.5-.5 1.8.7 3 1q2 .6 4.6.6 2.7-.2 6-1.6.5-1 .3-3.8-.1-3-.8-7.6-12 5.4-20.2 10-8.4 4.6-13.5 8.2-5.2 3.3-7.4 5.2" style="fill-rule:evenodd;fill:#78878c"/><path d="M68.7 38a269 269 0 0 1 31.2-27.7q6.4-5 11.3-7.6 2.2.6 3.8 1.3a9 9 0 0 1 2.5 1.6 6 6 0 0 1 1.6 2q-8 4-16.2 9.3c-5.6 3.7-12.3 8.5-16.5 12.2a45 45 0 0 0-8.9 8.9l-5-.1q-2.3-.1-3.8.1" style="opacity:.54;fill-rule:evenodd;fill:#fff"/><path d="m49.4 29 4.8-3.7q-1.2-4.6-1-7.5c0-2 .6-3.1 1.5-4.3.8-1.3 2.5-2 3.3-3.4a13 13 0 0 0 1-5.3q-.5-2.2-3-2.6a26 26 0 0 0-14 5.9q-2.3 1.8-2.6 3.7c-.3 1.2-.4 2.2.8 3.8s4.8 3.9 6.4 5.5c1.4 1.3 1.8 1.8 2.3 3.2q.6 2 .5 4.7" style="fill-rule:evenodd;fill:#284146"/><path d="M53 24.4c0-1.2-1.2-4.2-1.2-6s1.4-3.4 1.3-4.2c0-.7-1-1-1.5-.2s-1 2.8-1 4.6.7 4.4 1.2 5.5q.8 1.4 1.2.3" style="fill-rule:evenodd;fill:#a0afaf"/><path d="M34.8 62.8a70 70 0 0 1 4-16 56 56 0 0 1 5.8-12l4.6-3.6c1.8-1.4 4.2-3.4 5.9-4.2q2.4-1.6 3-.8c0 .6-1.5 2.6-2.2 4.7-.9 2-2.1 5.4-2.4 7.3q-.6 2.4.7 3.2 1 .5 5-.1c2.7-.5 7.5-2 11.5-2.3a72 72 0 0 1 11.6.4c3 .2 5.8.1 6.3 1s-2.5 3-3.4 4.4c-1 1.3-2.3 3-2 3.7q.5 1 3.6.4 2.8-.5 7.7-2.7-9.3 4.7-18.8 10.6-9.5 5.7-19.3 12.8a16 16 0 0 0-12.3-7.7q-4.1-.4-9.3.9" style="fill-rule:evenodd;fill:#195ff5"/><path d="M39.8 52.4c.3-2.5.4-5.1 2.2-8.2 1.7-3.1 7-9.6 8.3-10.3 1.2-.5-1.2 4.5-.6 6.4.5 1.7.8 3.4 4.1 3.6 3.4 0 11.1-2.7 15.8-3 4.6-.4 10 0 11.6 1.3 1.3 1.3 1.2 3.6-3 7a157 157 0 0 1-22 13.5c-4.2 1.4-1.1-3.4-2.7-4.1-1.9-.9-5-.9-7.1-.9-2.2 0-4.7 1.3-5.7.6-1.1-1-1.1-3.6-.9-6" style="fill-rule:evenodd;fill:#4ca7ff"/><path d="M20.8 69q-.8 6 .7 10.3 1.6 4.4 5.5 6.9c2.3 1.4 5 1.6 8.6 2s8.3.2 12.4.5c4 .4 8.9.9 12 1.8q4.5 1.2 6.3 3.1 4.4 0 12.6-.6c5.4-.6 12.6-.6 19.7-2 6.9-1.4 17.3-3.8 22-5.8s5.6-4.5 5.8-5.7q0-1.5-4.8-1.3c-3.4-.2-3.3 0-15 .8l-55.7 4.4a15 15 0 0 1-7.5 2c-3 0-7.6-.3-10.5-1.6-3.1-1.5-6-4.3-7.2-6.8s-1.2-5.3 0-8.3z" style="fill-rule:evenodd;fill:#195ff5"/><path d="m41 37.7-6.3 5.5-3.4 3.8q-1.9 1.8-3.4 3.7c-.9 1.2-1.6 2-2.2 3.5q-1.3 2-2.2 4.4-1 2-1.6 4.6Q21 66 20.8 69a16 16 0 0 0 .3 5.2q.5 1 2-.5c.7-1 1.6-3.7 2.6-5q1.3-2 3.2-3.2 2-1.6 4.6-2.7l.5-4.4q.1-2.2.6-4.4.6-2.4 1.7-4.8.7-2.7 1.6-4.8c.5-1.5 1.1-2.3 1.6-3.4zM56.9 71q3-2.2 8.7-5.8a619 619 0 0 1 32-19.5l9.4-5.4q-.3 1.2-.3 2.5v2.4q-5.3 3-9.4 6.8c-3 2.4-5.3 5.7-7.3 8-2.1 2.4-3.6 3.7-4.9 5.9s-2.4 5-2.4 7.3c0 2.1.3 4.5 3 5.6s8.6.7 13.3.6c4.6-.1 10.7-1 14.1-1.2q4.9-.4 5.2 0-4.4 3-14.4 5.2C97 85 85.3 86.2 77.7 87.1c-7.6.7-13.6 1-19 .8q-8-.5-13-2.8 3.6-.2 6.3-2.7a27 27 0 0 0 4.5-7q1.3-2.9.4-4.4" style="fill-rule:evenodd;fill:#4ca7ff"/><path d="m107.8 68.5 9.8 2.4c3.5.8 8.3 1.7 10.4 2.6 1.9.7 1.1.6 1.4 2.4s-.5 5.8.3 8.2c.5 2.1 1 3.2 3.5 5.6 2.6 2.4 8 7 11.1 9 2.7 1.7 4 1.7 5.8 2s3.1-.6 5.3.3q3 1.7 7 5.4c2.7 2.3 6.2 6 8 8.1 1.6 2 1.5 2.6 2 4.2q.7 2.6.7 6.1-13.4.1-28.9-1c-10.5-.7-30.3-1.7-32.7-3.3-2.3-1.8 15.7-5 19-7 3.1-2.3 3.2-5 .2-6.2-3.3-1.3-10.5-.8-18.4-1-8-.2-20.7-.2-28.2-.3q-11.2-.2-16.5-.5l-.3-4.4-.3-6a178 178 0 0 0 50.5-7.4q6-2.4 8.7-4.7c1.5-1.7 1.5-3.7.9-4.7q-1.5-1.4-5.3-1.4a55 55 0 0 0-16.4 1q1.1-3.2 1.7-5.6t.7-3.8m-.3 86.7-2 2.6c-1.3 1.7-4 5-5.8 7.9a101 101 0 0 0-10.5 16.8c-1 2.6-1.2 6-1.5 7.8q-.4 2.5 0 2.5 5.5-4.5 18.2-9.3a359 359 0 0 1 32.5-10c10.5-2.8 22.5-5.1 30.2-7a186 186 0 0 0 15.1-4.6c3.3-1.4 4.3-2.6 5.1-3.4q.9-1.4-.6-1.3c-1 .1-2.9 1.3-5.3 2.2-2.5.9-6.4 2.5-9.2 3-2.9.5-6.5 1.2-7.3 0-1-1.6 1.6-5.2 2.5-8.1q1.6-4.4 3-9.2 1.1-5 1.5-10.4-15.8 6.5-27.5 11c-8 2.8-13.1 5-19.6 6.6s-12.5 2.5-18.8 3" style="fill-rule:evenodd;fill:#195ff5"/><path d="M67.6 104.7q-.3 1.8.6 3.7c.5 1.3 1 2.2 2.7 3.9 1.7 1.8 3.4 3.7 7.2 6.3 3.8 2.3 9.8 5.4 15.9 7.7s13 3.7 20.2 5.4c7.3 1.7 15.6 3.8 23 4.8 7 .7 16.5.2 19.7.4 3 .2 1.9.7-1.3 1.1-3.2.3-10.3 1-17.4 1.2l-25.3-.3q-9.3 0-11.7.2 6.5 2 9.4 3.4c1.8.9 2 .5 2.1 1.8 0 1.1-.6 3.3-1.6 5.5q-1.6 3-4.8 7 7.4-.7 16-2.7c5.6-1.5 11.2-3.5 17.7-5.7s15.2-5.2 20.9-7.3q8.3-3.3 12.5-5.6v-7.6l-.2-3.7q-5 .3-16.4 0c-7.7-.6-21.9-1.3-29.2-2a90 90 0 0 1-14-1.7c-1.3-.7 2.7-1 6.4-2 3.6-1.2 11-3 15.1-4.4 4-1.7 8-3.4 8.7-4.8.6-1.5.4-3.3-5-4-5.8-.7-20.4-.6-28.5-.6z" style="fill-rule:evenodd;fill:#4ca7ff"/><path d="M75 116.3q.9.6 4.8 4.1c2.7 2.3 8 7.2 11 10 2.7 2.5 4.1 4.6 6.3 6.2q3.4 2.4 7 3.4l18.4-.2c7.7 0 21.1.4 27.6 0 6.3-.6 10.4-2.3 10.3-3-.2-.7-6.6-.7-11-1-4.4-.5-8.8-.6-14.8-1.4a356 356 0 0 1-21.5-4 275 275 0 0 1-19.2-5.3c-5.1-1.8-8-3.4-11.1-4.9q-4.8-2.2-7.8-4" style="fill-rule:evenodd;fill:#87b9f0"/><path d="M95.1 106.3q-1 1.6-.8 4c0 1.5-.4 3.3.7 4.8 1 1.4 3.8 3.2 5.7 3.6q2.8.5 5.4-1.2c1.6-1 4-3.3 4.2-5 0-1.8-1.7-3.8-3.6-5.2-2-1.3-5.7-2.6-7.7-2.7q-2.8 0-3.9 1.7z" style="stroke:#000;stroke-width:.036;stroke-miterlimit:10;fill-rule:evenodd"/><path d="M95.9 108.2q-.5 1.7-.3 3.8c.1 1-.1 2 .9 3s2.8 2.4 4.5 2.7c1.7.2 4.5-.6 5.3-1.2s-.2-1.5-1-2.8a46 46 0 0 0-5-5.2q-1.8-1.7-2.9-1.6-1.1-.1-1.5 1.3" style="fill-rule:evenodd;fill:#fef787"/><linearGradient id="a" x1="102.1" x2="102.1" y1="116.8" y2="105.8" gradientUnits="userSpaceOnUse"><stop offset="0" style="stop-color:#ffe47f"/><stop offset="1" style="stop-color:#f70"/></linearGradient><path d="M105.3 116.8q1-.1 1.7-1c.5-.5 1.4-1.4 1.5-2.3q-.2-1.8-1.8-3.8a15 15 0 0 0-4.4-3.3 8 8 0 0 0-4.4-.5q-1.5.2-1.9 1.5c-.4.7-.4 1.9 0 2.7q.5 1.2 2 2.4l4 3q1.8 1.1 3.2 1.3" style="fill-rule:evenodd;fill:url(#a)"/><path d="M184.5 164.2c1.3-1 1.5-1.5 2.4-2.3.7-1 2-3 2-3.5s-.5.3-2.2 1-3.7 1.7-8.1 3c-4.7 1.2-10.8 2.3-18.6 4.3-8 1.9-18.5 4.2-28 7-9.7 2.7-22 6.4-29 9s-10 4.2-12.5 6c-2.7 1.7-2.9 3.2-3 4.5q-.2 2 2 2.7 2 0 6.2-1.4c2.5-1 3.9-2.4 9.7-4.6a332 332 0 0 1 48.2-15.7c7-1.9 13.9-3 18.2-4s5-1.2 7.3-2.1c2-1 4-3 5.4-4" style="fill-rule:evenodd;fill:#4ca7ff"/><path d="M193 166.7q1 1.5 2.9 2.7c1.2.7 2.3 1.3 4.3 1.6 2 .2 5 .3 7.5-.5 2.3-.8 4-2.2 6.5-4.4a74 74 0 0 0 13.6-21.5 6 6 0 0 1 2.5-2c.9-.4 1.7-.6 2.5.4q.9 1.2 1.3 4.5a46 46 0 0 1-1.8 9.3 75 75 0 0 1-4.6 11.3c-2.2 3.7-5 7.6-7.7 10.7q-4.2 4.7-9 7.2a24 24 0 0 1-20.4-1.7q-4.1-3-6.8-8.6.2-4.8 1.5-7.1c.9-1.7 2.5-2.2 3.8-2.4q1.9-.5 3.9.5" style="fill-rule:evenodd;fill:#506e6e"/><path d="m229.5 133.3 5.1-7.2q1 4.4.9 9.9-.2 5.2-1.4 11.5-.2-2.4-1.7-3.1t-4.6.2q.8-2 1.2-4.8.4-2.9.4-6.5m-47.6 35.8 2.2-2.1 4.7-4.8c1-1.3 1-1.9 1.5-1.8s.5 1.6 1 2.7l1.7 3.6a42 42 0 0 0-9 9q-.9-1.5-1.3-3.1-.6-1.6-.8-3.5" style="fill-rule:evenodd;fill:#284146"/><path d="M31 157q-1.2 2.5-2.2 8.8c-.7 4-1.8 10.3-2 15.5q-.3 8 1.3 15.2a31 31 0 0 0 5.3 12.1 23 23 0 0 0 10 7.8c3.7 1.2 8.2 1.3 12.1.2q6-1.8 11-6.6a54 54 0 0 0 12.7-23.7 72 72 0 0 0 2.7-30l-2.2 4.9q0 7.5-.8 14.4-.9 6.6-3 13.1a62 62 0 0 1-6.4 13.5 27 27 0 0 1-9.2 8.5 26 26 0 0 1-12.4 1.9 15 15 0 0 1-8.8-4.5 26 26 0 0 1-7.1-10.8 55 55 0 0 1-1.3-15.7c0-4.9 1-9.1 1.8-12.7q1.2-5.4 2.7-8.5-1-2.4-2-3.2-1-1-2.3-.2" style="fill-rule:evenodd;fill:#b3c3c0"/><path d="M36 161a50 50 0 0 0-3.2 11.7 59 59 0 0 0-1 14c.3 4.8.5 9.7 3 14 2.3 3.9 7 9 11.3 10.3s10.4-.2 14.5-2.3c3.8-2.3 6.9-6.7 9.3-10.6a64 64 0 0 0 7.8-23.2q.7-5.3.4-10.1l-2.3 7.4a71 71 0 0 1-6 20 32 32 0 0 1-6.5 8c-2.6 1.8-6 3.7-8.7 3.6-2.8-.2-6.2-1.9-8-4.3a22 22 0 0 1-3.2-10.2 69 69 0 0 1 1-20.3 18 18 0 0 0-3.7-7.1q-2.1-2-4.7-1" style="fill-rule:evenodd;fill:#d3ddc5"/><path d="M46.5 133.2A71 71 0 0 0 30.9 157l2.4 1.8 2 1.6a60 60 0 0 1 14.2-23.5q-.6-1.2-1.3-2-.8-1-1.7-1.7" style="fill-rule:evenodd;fill:#97adca"/><path d="M50.3 137.8a13 13 0 0 1 2.3 3.4q.8 1.6.9 3.7 0 2-.3 4.9-3.3 2.9-5.6 7.7-2.4 4.7-3.5 11.4l-3.5-3.7-4.6-4q2.4-6.7 5.3-11.7c1.9-3.4 4.3-6.2 5.9-8.2q2.1-3 3.1-3.5" style="fill-rule:evenodd;fill:#bcc7bf"/><path d="m38.7 205.8 7.3-6.9 2.3 2.3q1 .9 2 1.3l-.5 9q-2 0-3.8-.4-1.8-.6-3.5-1.7-1.8-1.3-3.8-3.6" style="opacity:.54;fill-rule:evenodd;fill:#fff"/><path d="M45.8 170.3q.1-3 1.2-6.2a29 29 0 0 1 6.2-11.8q-.5 6-.5 10.2c0 2.8-.4 4.9.4 6.8q1.3 2.9 3.7 4.6 2 1.3 4.1 1.3-.3 3.4.1 5.8c.3 1.5.2 2.8 1.3 3.4 1 .5 3 1.3 5-.2q3-2.6 6.6-9.8.4 1.3-.5 4.9c-.7 2.4-1.8 6.4-3.3 9.4q-2.4 4.5-6.4 8.4a33 33 0 0 1-12.6-10.8q-4.5-6.9-5.3-16" style="fill-rule:evenodd;fill:#a088a0"/><path d="M45.8 170.3q-.7 3.3-1 8c-.2 3-.8 6.8-.2 10.1a24 24 0 0 0 3 9.8A8 8 0 0 0 53 202c2.1.3 4.7-.8 6.7-1.6q2.5-1.2 4-3.2-1.6-3.7-3.8-7.8-2.4-4.1-5.1-8a143 143 0 0 0-9.1-11" style="fill-rule:evenodd;fill:#ca9a9a"/><path d="M55 169.5q.9 1.5 2.4 2.3c1 .5 2.5 1.5 3.8.7 1.1-1 2.1-2.4 3.6-5.6 1.5-3.3 3.4-8.5 5.3-13.5l4.9-16.7 2.8-10-4.4-3.6q-4 13.8-7.1 23c-2.2 6-3.9 9.5-5.7 13.4a86 86 0 0 1-5.6 10" style="fill-rule:evenodd;fill:#195ff5"/><path d="M47.6 130.4q4.3 4 6.4 8.2a22 22 0 0 1 2 8.3c.3 2.9-.4 6-.5 9-.4 2.9-.8 6.3-.9 8.6q-.2 2.8.1 4.2.3 1.6 1.1 2.1 2-1.6 4.5-6a94 94 0 0 0 5.2-11.6c1.8-5.1 4-13.2 5.4-18.2q2-7.4 2.9-11.6-.8-1-2.5-2-1.8-1.3-4.6-2.8a37 37 0 0 0-13 4.4q-4.9 3-6 7.4" style="fill-rule:evenodd;fill:#4ca7ff"/><path d="M68.2 119.3a44 44 0 0 0-7.4-3.2q-4-1.7-9.2-2.5c-3.7-.5-8.3-.4-12 .1a31 31 0 0 0-10 2.9 49 49 0 0 0-10.1 6.2 25 25 0 0 0-6 6.3c-1 1.6-.7 2.7-.3 3.3s.5.6 2.6 0c2-.7 5.6-2.8 9-3.8 3.3-1 7.2-2.1 10.5-2.2q4.7-.1 8.2 1.3 3.3 1.2 5 3.6a29 29 0 0 1 6.5-4.8 71 71 0 0 1 15.3-6z" style="fill-rule:evenodd;fill:#87b9f0"/><path d="M194.2 165.3q.8 1.5 2.7 2.7c1.2.7 2.6 1.7 4.7 1.8 2 0 5-.2 7.5-1.5q3.8-2.4 7.5-6.9c2.5-3 5-8 6.8-11 1.6-3 2.4-4.4 3.3-7a53 53 0 0 0 1.9-9.2l-2.1 2.3q-1.2 4.6-2.8 8.5a42 42 0 0 1-4 7c-2 2.7-5 6.8-7.5 9a16 16 0 0 1-7.7 3q-3.5 0-6.2-2-1.8-.6-2.9.2-1 .7-1.2 3" style="fill-rule:evenodd;fill:#d3ddc5"/><path d="M195 153.6a4 4 0 0 0-2.7 2.1q-.8 1.2-.4 3.5.5 2.4 2.3 6l2.3-2 1.8-1.2c-1-1-2-2-2.4-3-.6-1.2-.7-2.6-.8-3.4q-.3-1.4-.2-2" style="fill-rule:evenodd;fill:#b3c3c0"/><path d="m208.5 163 .3 5.5 2.2-1.4 2.6-2.3-2-3.5-1.5 1z" style="opacity:.54;fill-rule:evenodd;fill:#fff"/><path d="m196 152.9 7.2-4.9 10-6.8 5-3.8q1.8.5 3.7.5 1.7 0 3.5-.9-.5 2.3-2 5.7-1.6 3.2-4.4 7.5a77 77 0 0 1-9.9 7q-4.8 2.6-9.2 3.9-2-1.4-2.8-3.3-1-2.1-1-5" style="fill-rule:evenodd;fill:#a088a0"/><path d="M199.8 161q3-2.4 6.2-4.3t6.8-3.4l6.4-3.4a31 31 0 0 1-10.4 11.3 9 9 0 0 1-4.7 1.2q-2.3-.1-4.4-1.4" style="fill-rule:evenodd;fill:#bcc7bf"/><path d="M174.7 160q3.3-.2 8.3-2.3c3.4-1.4 7.7-3.7 12-6.3s9.3-5.6 13.6-8.8c4.5-3.2 7.7-4.7 10.4-8 2.6-3 .3-5 .3-5a123 123 0 0 1-28.1 22.2c-4.3 2.6-7.5 4-10.4 5.4-3 1.1-5.7 1.8-6.8 2.3q-1.5.6.7.4" style="fill-rule:evenodd;fill:#b3c3c0"/><path d="M219.6 130q.3 0-.3-.4c-.4-.3-1.1-1.5-2-1.3-1 0-1.4.5-3.5 2l-9 7.3-13.2 9.8a39 39 0 0 1-7.5 4.3 61 61 0 0 0-6.4 4.5 14 14 0 0 0-3.3 3.5l5.4-1.8q3.8-1.6 7.7-3.6c2.6-1.5 5-3 8-5 2.8-1.8 5.7-3.3 9-5.8 3.5-2.7 8.1-6.8 10.8-9.1a33 33 0 0 0 4.3-4.3" style="fill-rule:evenodd;fill:#d3ddc5"/><path d="M228.6 120.6a6 6 0 0 0-1.7-2.1q-1.4-1.2-3.2-2.2a12 12 0 0 0-4.1-1.6c-1.7-.4-3.9-.6-5.6 0q-2.6.9-4.7 3.4-.6 1.9-.7 5.1 0 3.3.5 7.9 3-2.7 5.3-3.8t4.1-.6 2.7 3.2q3.7-2 5.6-4.3a8 8 0 0 0 1.7-5" style="fill-rule:evenodd;fill:#d3ddc5"/><path d="m221.2 129.9.1 2.1-.7 2.7q-.6 1-1.4 1.8a7 7 0 0 0 6-.7c1.2-1 3.2-3 4.1-4.6q1.4-2.7 1.2-5.4a11 11 0 0 0-2-5.2z" style="fill-rule:evenodd;fill:#b3c3c0"/><path d="M214.7 127.2q0-3-.4-5.1a9 9 0 0 0-1.2-3.5 5 5 0 0 0-2.2-2q1-1.1 2.6-1.7 1.5-.6 3.2-.6 1.6-.1 2.7.4a34 34 0 0 0-2.2 11.8q-1 0-1.7.3t-.8.4m5.6.9q1.1 0 3-2.2c1.3-1.5 2.5-3.7 4.4-6.7l.9 1.4.7 1.4a8 8 0 0 1-2.2 4.8 17 17 0 0 1-5.8 3.6l-.3-1.1z" style="opacity:.54;fill-rule:evenodd;fill:#fff"/><path d="M207.3 120.8v4.3l.7 6.6-8.4 7.3c-2.1 1.6-3.3 3.4-3.7 3a55 55 0 0 1 6-16 13 13 0 0 1 5.4-5.2" style="fill-rule:evenodd;fill:#a088a0"/><path d="m214.5 112.6 47.2-35a2 2 0 0 1 2 0q.9.3 2.1 1.8l2.7 3.4q1 1.4 1.5 2.6l-20.3 17.1-20 16.6q-1.4-3-3.5-4.5a9 9 0 0 0-4.8-2q-3-.5-6.9 0" style="fill-rule:evenodd;fill:#d3ddc5"/><path d="M229.7 119q9.7-8.3 19.9-16.7L270 85.2q.8 1.8 0 3.7c-.7 1.2-.8.9-3.6 3.6L253 105.8a260 260 0 0 0-22 22.8q.8-.9.4-3.3c-.4-2.4-.8-3.7-1.8-6.3" style="fill-rule:evenodd;fill:#b3c3c0"/><path d="m228.2 116.6 41.1-32.7.7 1.3q.1.6.4 1.1l-27.8 25.8a199 199 0 0 1-11.8 10.2l-1.1-3.2q-.7-1.5-1.5-2.5" style="opacity:.54;fill-rule:evenodd;fill:#fff"/><path d="M179.4 148q-2.8 2.5-5.1 5.2c-1.7 1.7-4.3 4.2-4.6 5.2-.3.8 0 1.5 2.7-.2q4-2.7 13.3-10.6 2.2-3.9 5.3-11.5c2-5.4 4.4-15 7-19.4 2.3-4.6 3.9-4 7.8-7.1a286 286 0 0 1 15.9-11.9c4.2-3 9.5-5.2 10-6.1.3-1-2.4-.4-7 .3a308 308 0 0 0-20.1 2.5c-6.7 1-13.8 3-19 3.5-5.3.6-8.7.6-12.4 0-3.8-1-6.6-3.2-10.2-4.8-3.9-1.6-9-3.4-12-4.5s-5.6-2.3-5.7-2c-.2.5 2.1 2.2 5 4.4l11.6 7.8 10.6 7.2a125 125 0 0 1 6.5 23.2q1.5 10.4.4 18.8m-1.1-45q5.4 5.3 9.4 8.1 3.9 3 6.4 3.7-1.5 8-3.8 14.8a73 73 0 0 1-5.5 12q-3-12.1-4.6-21.7t-1.9-16.9m8.5-3.1q1.8 3.5 4.7 6 3 2.7 7.4 4.4l11-9.4 6.8-6.2Q206.4 96 199 97.4t-12.2 2.5" style="fill-rule:evenodd;fill:#ef4633"/><path d="M144.8 85.8q-.8.2.8 1l5.4 2 10.7 4.3c3.5 1.5 6.8 3.8 10.6 4.8 3.9.8 7.6 1 12.5.5 4.7-.5 9.7-2.1 16-3.2 6-1 15.4-2.1 20.6-2.8q7.7-1.2 9.6-1.1c1 0-1.3 1.2-2.9 2.3l-6.5 4c-3.1 2.1-8 5.2-11.2 7.7a95 95 0 0 0-8.4 6.4c-2.1 1.6-3 2.2-4 3.8-1.1 1.7-1.2 2.4-2.4 6-1.4 3.5-3.6 10.6-5.3 15-1.8 4.3-3 7.5-4.6 10.2-1.7 2.4-3.4 3.3-5 4.7q-2.8 2.1-4.8 4c-1.5 1-3.3 2.3-3.1 2.3q.7-.2 4.6-2.7c2.3-1.7 7.2-4.7 9.3-7 2-2.4 1.7-3.3 3-6.6 1.4-3.5 3.3-9 5.3-13.2 1.9-4.5 3.7-9.1 5.8-12.1s3-2.7 6.5-5.1c3.3-2.4 9-6.5 13.5-9.5q6.4-4.8 13.1-9.3c4.7-3.2 13.4-8 14.6-8.8 1-1-5.4 2.4-7.8 3.3-2.5 1-2 1-6.8 1.7-5 .8-15.5 1.5-22 2.5s-10.6 1.7-16 2.4c-5.6.6-11.2 1.6-16.6 1.3-5.5-.6-10.2-2.3-15.3-3.8-5.3-1.5-12.1-4.3-15.3-5.1s-3.5-.3-4 0" style="fill-rule:evenodd;fill:#ff5b00"/><path d="M108.6 39.9a8 8 0 0 1 3.6-2.5c1-.4 1.5.2 3.3.3 1.9 0 5.5-.7 7.2-.1 1.5.5 1 2.4 2.3 3.4q2 1.7 5.4 2.6c2.3.5 5 1.5 7.7.4 2.6-1.2 5-6 8-7.1 2.8-1.2 5.6-.7 9 .2 3.2.9 8.2 3.4 10.6 5.1a7 7 0 0 1 2.6 5.4 8 8 0 0 1-2.9 5.4c-2.1 1.9-5.3 5.4-9 5.7-3.8 0-9.6-3-13.2-4.7-3.7-1.8-5.8-4.6-8.8-6s-6.7-2-8.8-2c-2.2-.2-2.3 1.4-4 1.3-2-.2-5-1.7-6.8-2.2s-2.4-.9-3.5-1q-1.7 0-3.2.3V42q.1-1.2.5-2" style="fill-rule:evenodd;fill:#284146"/><path d="m139.7 44 2.6-1.8c1-1 2.1-3 3.9-3.7 1.6-.7 5.8-1 6.3-.8.3 0-2.5.5-3.7 1-1.1.4-1.8.7-3 1.6s-3.1 3-4.3 3.9a8 8 0 0 1-3 .9c-.3-.2.5-.6 1.2-1m19.5 12c-.5.3-1.8 1.4-3.4 1.3a32 32 0 0 1-11.4-4c-.3-.2 1.6.1 3 .8 1.6.4 4 1.4 5.6 1.9q1.9.4 3.2.2c.9-.3 2-1.2 2.5-1.2s1 .5.5 1" style="fill-rule:evenodd;fill:#a0afaf"/><path d="M142.5 38c.9.6-2.2 2.4-3.4 3.3a7 7 0 0 1-4.3 1.6c-2.2-.2-7.2-1.6-8.3-2.2s.1-1 1.4-1.5c1.1-.5 3.4-.9 5.9-1a31 31 0 0 1 8.7-.1" style="fill-rule:evenodd;fill:#195ff5"/><path d="M97.2 54.2q2.4-2 5.1-3.9c2.7-1.9 3.9-3.4 5.7-4 1.7-.7 2.7-.4 4.7.2 2 .4 5 2.3 7.2 2.5 2 0 3-1.5 5.3-1.4 2 0 5 .8 7.5 1.9 2.3.9 3.7 2.3 6.4 4 2.8 1.3 6.3 4.1 9.6 5.1q4.6 1.6 8.8 1c2.7-.5 5.3-2.2 7.5-3.8q3-2.4 5-5.5 2.3 1.6 3.6 4a8 8 0 0 1 1 5.2c-.4 2.4-2.6 7.3-3.5 9.8-1.1 2.5-2 3-2.2 5.2-.3 2.1 1 5.1.4 7.8q-1 3.8-4.7 7.4-3.8-1.8-7.7-3.1t-8-2.6q3-2.5 3.5-4c.3-1 .3-.8-1.1-2-1.7-1.4-5.2-3.4-8-5.6l-9-7.3a9 9 0 0 0 1.2-3.6c0-.8.4-.8-1.2-1.5-1.8-.9-6-2.2-9-3.3-3-1.3-6-3-8.8-3.7s-4.8-.6-7.9-.3q-4.9.1-11.4 1.5" style="fill-rule:evenodd;fill:#4ca7ff"/><path d="M99 52.8q3.5-.8 7.8-.8a35 35 0 0 1 9 .3c3.4.4 7.6 2 11.5 2.7 3.7.6 7.9.8 11 1.7s3.2 3.1 6.9 3.9c3.6.5 9.9-.8 14.6 0q7 1 13.2 4.2l-1.3 3.1-1.5 3.3a195 195 0 0 0-30.6-1.7l-2.2-1.7L134 65q1-1.8 1-3c0-.6.6-.9-.5-1.4-1.3-.7-4-1.4-6.6-2.3l-9.4-2.8c-2.6-.7-4-1-6.4-1.2q-3.8-.1-8 .2-3.9 0-7.6.4z" style="fill-rule:evenodd;fill:#195ff5"/><path d="M105.3 64q-.4 1.6-.3 2.7.2 1 1 1.4.5 1.4 0 3.7t-1.9 5.9l-11.3.3q-4.6.2-6.4-.5c-1.3-.7-2.6-2.1-1.4-3.7 1-1.7 4.8-4.4 8.2-6a50 50 0 0 1 12.1-3.8" style="fill-rule:evenodd;fill:#506e6e"/><path d="M86.2 68.4q1.3-3.5 3.6-6 1.9-2.6 5-4.3c2.1-1.1 5.6-2.3 8-2.6q3.6-.7 6.5.3a10 10 0 0 1-3 5.7c-1.7 1.2-4 1.3-6.7 2.3s-7.1 2.7-9.4 3.9c-2.3 1-3.6 2.7-4.1 2.9q-1 .1.1-2.2" style="fill-rule:evenodd;fill:#97adca"/><path d="M108.4 63c-.5 1.6-.6 2 1.1 3 1.6.9 6 2 8.8 2.9 2.8.7 5.6 2.5 8 1.5 2.2-1 4.7-5.6 5.5-7.3s.8-2-1.2-2.8a67 67 0 0 0-11.4-3.3c-3-.7-5.1-1.6-6.8-.6-1.9 1-3.5 5-4 6.7" style="fill-rule:evenodd;fill:#87b9f0"/><path d="M131.2 75q-.8 3.6 0 6.7c.5 2 1 3.5 3 5.7 1.7 2.1 5 5 7.5 7a37 37 0 0 0 6.5 4c1.4.5 2.3 0 2.3-.4-.2-.6-.7-1.3-2.6-3s-7-4-9-6.9q-3-4.2-2.6-9.8zm-1.5-4q2.2 2 5.5 4.4l7.4 5q3 1.8 4.5 2.5l3.4-3.5L140 72l-7.8-5.6z" style="fill-rule:evenodd;fill:#d7f0e6"/><path d="M171.1 74.8a152 152 0 0 1 24.2.6L189 84l-5.7 8.2q-2.1.7-4.8.5-2.9-.3-6.1-1.4 1-3.2.6-6.5c-.4-2.4-2-5.5-2.3-7.2q-.5-2.5.4-3m2.3-23q2.4-.5 4-1.2t2.4-1.5q5.6 6.7 14.4 7.8c6 .6 14.4-1.5 20.9-3.5 6.2-2 10.8-4.5 16.6-8a161 161 0 0 0 18-13.1q2.9 1.7 3.4 4.9c.3 2 0 5.4-1.7 7.4-2 2-6 3-9.5 4.5-3.6 1.3-8.3 2-11.4 3.8-3.2 1.7-4.4 3.7-7.3 6.5s-6.4 7.4-10.4 9.9c-4.3 2.2-10 3.5-14.7 4.1s-9-.6-13.4-.6l-14 .1q3.2-4.5 4.4-8.4.9-4.2.4-7.4t-2-5.3" style="fill-rule:evenodd;fill:#284146"/><path d="M179.8 48.9q0 2.3 3.4 4.4c2.2 1.5 5.2 3.7 9.8 4.4 4.5.4 10.9.1 17.1-1.6a88 88 0 0 0 19.7-8.8q9.8-6 20-15.2l-3.8-1q-10 4.4-22 7.1c-8.2 1.7-19.6 3-26 3.6q-9.7.7-12.2-.6l-4 5.2z" style="fill-rule:evenodd;fill:#506e6e"/><path d="M185.8 41.2q2.5-3.6 4.8-5.8a13 13 0 0 1 4.3-3A70 70 0 0 0 229 29q7.2.2 11.5.7 4.1.7 5.5 1.5-2.9 2.3-10.1 4.7c-5 1.6-12 3.6-19.3 5-7.4 1-19 1.9-24.2 2q-7.8 0-6.7-1.6" style="fill-rule:evenodd;fill:#a0afaf"/><path d="M194.9 32.4q2.6-2 6.7-2.8 4.4-1 9.9-1.2a81 81 0 0 1 9.9.2q4.3 0 7.7.3-2.2 1.5-6.4 2.6c-2.9.8-6.8 1.9-10.6 2.2-4 .3-9.5-.1-12.3-.3q-4.4-.4-5-1" style="fill-rule:evenodd;fill:#bcc7bf"/><path d="M225.2 26.3q5-2.1 10-3.6c3.3-1 6-1.8 10-2.4a60 60 0 0 1 12.7-1.3q4.9.2 6.5 2.7c.7 1.9 0 5.1-1.6 8.1a33 33 0 0 1-7.7 8.8q-1.5-5.7-4.4-8.5c-2.1-1.8-3.6-2-7.7-2.6q-6.4-1-17.8-1.2" style="fill-rule:evenodd;fill:#506e6e"/><path d="M222.8 26.3q3-4.9 6-8.5c2-2.5 3.7-5 5.7-6.3a7 7 0 0 1 5.7-1.5q3.8.1 9.5 2c3.8 1 10.6 2.2 13.3 4.6 2.5 2.3 2.5 6.6 2.4 9.5q-.2 4-2.9 7.4c-1.9 2.4-6.2 5-7.5 7.1-1.4 2-1.3 4.2-.5 5.1s2.5 1.5 5-.6c2.2-2.2 6.7-8.9 9.3-12.5 2.6-3.7 5.7-6.6 6.5-9 .8-2.6.5-3.5-1.8-6A43 43 0 0 0 261 8.8 70 70 0 0 0 244 5a18 18 0 0 0-9.6.6c-2.6 1-3.7 2.7-5.9 5.2a80 80 0 0 0-11 16.5q2 .3 3.3.2 1.4-.3 2-1.1" style="fill-rule:evenodd;fill:#284146"/><path d="m274.9 27.3-7.6 10.3q-1.5 7.8-5.6 15.8C259 58.7 256 64.7 251.3 69c-5 4.2-11.6 7.7-18.5 9.7q-10.4 2.9-22.5 1.9l-6.7 10q13.2-1.5 21.8-3c5.6-.9 8-.9 12.8-2.6a92 92 0 0 0 15.4-8.2 45 45 0 0 0 9.8-9.5 92 92 0 0 0 13.8-28.2c.9-3.9.5-6 .1-8q-.6-3-2.4-3.9" style="fill-rule:evenodd;fill:#195ff5"/><path d="M252.5 46q-.1.8 1.3 1.5c.8.3 2.1 1.5 3.8 1q2.5-1 6-4-3.7 10.4-9 17.7a41 41 0 0 1-12.7 11.2c-5.3 2.8-12.7 4.1-18 5.2q-8.1 1.5-14.1.8l-8.5 11.3a39 39 0 0 1-15.9 1.5 83 83 0 0 1 12.4-16.5q7.5-1.2 13-3.7c3.7-1.8 6.2-3.8 9.2-6.5 2.8-2.7 5.3-7.1 8.4-9.4 3.3-2.2 7.2-3.2 10.7-4.3l9-3q3.4-1.6 4.4-2.8" style="fill-rule:evenodd;fill:#5f87be"/><path d="m270.1 59.6-1.9 3.5-2.6 3.8q3.3 1.4 5.9 2c1.7.5 3 1 4.3.6 1.2-.7 3.6-2.8 3.5-4 0-1.3-2.3-2.2-3.8-3.1q-2.3-1.6-5.4-2.8" style="fill-rule:evenodd;fill:#bcc7bf"/><path d="M275.5 60.4q2.7-.7 4.7-.3t3.3 1.7c.8.9 1.1 2.5 1.4 3.7q.4 1.7-.2 3.1c-.6 1-2 2.2-3 2.7s-2 0-3 0a12 12 0 0 1-3.2-.9q2.8-1.4 4-2.7 1.3-1.2.9-2.4c-.4-1-2.2-2.6-3-3.3z" style="fill-rule:evenodd;fill:#c20000"/><path d="m89.4 132 3.3 2.7q0 4.5-1 8c-1 2.2-2.6 5.6-3.3 5.6-.8-.3-1-3.5-.8-6.2q.3-4.1 1.8-10.2" style="fill-rule:evenodd;fill:#506e6e"/><path d="m94 136.4 1.8 1.9q-.2 4-1.3 8.9-1.2 4.8-3.2 10.5-.2-2.7-.8-4.7-.5-2.1-1.4-3.5 2.4-3 3.6-6.4c1.2-3.4 1.2-4.4 1.2-6.7m3.9 3.4-3.3 13c-.9 3.1-2.2 5.4-2.1 6.7 0 1.3 1.3 1.8 2.3.8 1-1.2 2.5-4.4 3.5-7.6a79 79 0 0 0 2.3-11.7zm4 2.3 2.6.6.2 2.6q0 1.9-.4 4.7-.3 2.6-1 5.5c-.6 1.7-1.2 3.9-2 5.2-1 1.2-2.4 2.6-3.1 2.7q-1.6 0-1.6-2.5c.2-1.8 2-4.5 3-7.7q1.2-4.7 2.3-11m4.8 1.4q2.2-.2 3 .8c.5.6.8 1 0 3q-1.2 3-4.7 8.7 1.3-5 1.6-8.2c.3-3.2.3-3.5 0-4.3M93.2 163q2.7 1.2 2.9 3c0 1.2-1.8 2.8-2.7 4.3l-2.7 4.3.8-6.8c0-2-.5-4.4-.2-5.2s.8-.7 1.9.5M64.8 96.8q-1.7 2.2-3 6.3t-2.2 10.2q5.8 2 10.6 4.9 4.6 2.8 8 6.6l.8-3.2a42 42 0 0 1-9.6-8.3c-2.3-3-2.8-5.5-3.5-8.3q-1.3-4.2-1.1-8.2m-10.5-4.7Q52.1 91 49 90.8q-3.2-.3-7.4.3-2.7 4.7-4.8 9c-1.4 2.6-3.3 5.5-3.7 7.6q-.7 3.2 1 5.1a97 97 0 0 1 15.4-1.7 48 48 0 0 1 5-19" style="fill-rule:evenodd;fill:#506e6e"/><path d="M35.7 91.1q-2.6 2.6-4.2 5.8a20 20 0 0 0-2.3 7c-.3 2.2.4 4.8.8 6.1q.5 2 1.3 1.4-.6-1.6.4-4.5c.7-2 2.2-4.2 3.5-6.9l3.7-9zM56 93.4l-2.8 7.4q-1.2 2.9-1.7 5.2-.4 2.6-.1 5.1l3.5.6 2 .4q1.5-7.6 3-11.8 1.2-4.3 2.3-5.2-2.2-.9-3.7-1.2-1.6-.5-2.5-.5m25.1 30.5 6.2 6.3q-1.4 10.3-4.3 19.6c-2 6.2-5.4 12.8-7.4 17.6-2.2 4.6-3.4 7.9-5 10.5q-3.1 3.8-5.5 4.4c-1.4.2-2.2-1-2.8-2.5q-.7-2-.1-5.7 4-5.2 7.2-12.3c2-4.7 3.4-9.4 5.4-15.7q3-9.5 6.3-22.2" style="fill-rule:evenodd;fill:#ca9a9a"/><path d="M85.6 132.2c0 .6-2.2 10.7-3.9 16.2q-2.7 8.3-6.4 16.2c-2.6 5-6.2 12-8 14.3-2 2.2-3.4 1.3-2.8-.9.8-2.3 4.3-7.2 7.2-12.6 2.8-5.5 7-14.5 9.4-20 2.4-5.8 4.3-13.7 4.5-13.2" style="fill-rule:evenodd;fill:#a088a0"/><path d="M23.7 93.8q-1.8 1.2-2.2 2.4c-.3.9-.5 1.6.7 2.6q1.6 1.4 6 2.9l.8-2.3.4-1-4.8-3.6q-1.5-1.2-1-1" style="fill-rule:evenodd;fill:#fef787"/><linearGradient id="b" x1="27.8" x2="27.8" y1="98.8" y2="92" gradientUnits="userSpaceOnUse"><stop offset="0" style="stop-color:#ffe47f"/><stop offset="1" style="stop-color:#f70"/></linearGradient><path d="M22.9 94.3a4 4 0 0 1 1.4-1.3c.6-.5 1-.9 2.5-1q2-.1 6 .3-1.7 2.2-2.5 4-1 1.5-1 2.5l-3.8-2.5z" style="fill-rule:evenodd;fill:url(#b)"/><path d="M28.3 68.3q1.7-2.1 4.8-3.2c2-.8 5.3-1 7.5-1.2q3-.4 5.6.3 3 .7 5.6 2.4c1.4 1 2.8 2.8 3.3 4.2q.6 2-.8 4.3a13 13 0 0 0-5.2-6.9 17 17 0 0 0-8.7-1.7c-3 0-6.5.8-8.7 1.5-2.2.5-3.7 2-4.2 2q-1 .1.8-1.7" style="fill-rule:evenodd;fill:#d3ddc5"/><linearGradient id="c" x1="40" x2="40" y1="77.8" y2="67.4" gradientUnits="userSpaceOnUse"><stop offset="0" style="stop-color:#feff7f"/><stop offset="1" style="stop-color:#bfe9ff"/></linearGradient><path d="M37.2 67.6c-2.6.3-4.1.8-5.4 1.3S28.8 70 28 71s-1.1 2.6-1 3.7.6 2.1 1.5 3c4-2 7.7-3.3 12-3.6q5.8-.5 12.6 1.8-1.5-4-4.2-6.1t-6.7-2.3s-2.4-.3-5 0" style="fill-rule:evenodd;fill:url(#c)"/><linearGradient id="d" x1="38.1" x2="38.1" y1="72.7" y2="68.2" gradientUnits="userSpaceOnUse"><stop offset="0" style="stop-color:#fdff3f"/><stop offset="1" style="stop-color:#5fb1ff"/></linearGradient><path d="M28.6 71.7c.9-.7 3.1-2.2 5.6-2.7a27 27 0 0 1 8.6-.7c2.5.4 5.1 2 5.6 2.6.4.2-1.7-.3-3.5-.3q-3.2-.3-7.4 0c-2.7.3-7.3 1.9-8.8 2.1-1.5.1-1-.3 0-1" style="fill-rule:evenodd;fill:url(#d)"/><linearGradient id="e" x1="40.7" x2="40.7" y1="84.1" y2="73.4" gradientUnits="userSpaceOnUse"><stop offset="0" style="stop-color:#ffdfeb"/><stop offset="1" style="stop-color:#fff67f"/></linearGradient><path d="M28.2 77.3q.9 1.5 2.4 2.7c.8.8 1.5 1.6 3 2.3s3.5 1.7 6 1.8a27 27 0 0 0 8-1q3.3-1.4 5-3.6 1.1-2 .1-4.4a33 33 0 0 0-18.4-.7q-3.8.9-6.1 3" style="fill-rule:evenodd;fill:url(#e)"/><linearGradient id="f" x1="40.9" x2="40.9" y1="82.1" y2="76.7" gradientUnits="userSpaceOnUse"><stop offset="0" style="stop-color:#ed9fff"/><stop offset="1" style="stop-color:#fff67f"/></linearGradient><path d="M33.6 77.4c-1.4.4-1.2 1.6-.1 2.4s3.6 1.9 5.8 2.2c2.1.2 5.2-.2 7-1 1.5-.8 3.3-2.9 2.7-3.7-.7-.8-4.4-.6-7-.6s-7 .2-8.4.7" style="fill-rule:evenodd;fill:url(#f)"/><path d="M38.3 75.1q-2.1.3-2.6 1.4c-.2.7-.3 2.2 1.2 3 1.5.5 5.8.9 7.6.5 1.6-.4 2.3-2.5 2.3-3.2-.2-.9-2-1.5-3.3-1.7a16 16 0 0 0-5.2 0" style="fill-rule:evenodd;fill:#ffee9f"/></svg>