<svg xmlns="http://www.w3.org/2000/svg" viewBox="0 0 618.5 1118" xmlns:xlink="http://www.w3.org/1999/xlink"><defs><filter id="c" color-interpolation-filters="sRGB"><feGaussianBlur stdDeviation="2.6"/></filter><filter id="i" width="1.2" height="1.5" x="-.1" y="-.2" color-interpolation-filters="sRGB"><feGaussianBlur stdDeviation="2.4"/></filter><filter id="h" width="1.2" height="1.7" x="-.1" y="-.4" color-interpolation-filters="sRGB"><feGaussianBlur stdDeviation="2.4"/></filter><filter id="g" width="1.2" height="1.9" x="-.1" y="-.5" color-interpolation-filters="sRGB"><feGaussianBlur stdDeviation="2.4"/></filter><filter id="f" width="1.2" height="2" x="-.1" y="-.5" color-interpolation-filters="sRGB"><feGaussianBlur stdDeviation="2.4"/></filter><filter id="e" width="1.2" height="2.5" x="-.1" y="-.8" color-interpolation-filters="sRGB"><feGaussianBlur stdDeviation="2.4"/></filter><filter id="m" width="1.2" height="2.3" x="-.1" y="-.6" color-interpolation-filters="sRGB"><feGaussianBlur stdDeviation="2.4"/></filter><filter id="l" width="1.2" height="2.1" x="-.1" y="-.6" color-interpolation-filters="sRGB"><feGaussianBlur stdDeviation="2.4"/></filter><filter id="k" width="1.2" height="2.4" x="-.1" y="-.7" color-interpolation-filters="sRGB"><feGaussianBlur stdDeviation="2.4"/></filter><filter id="j" width="1.2" height="1.9" x="-.1" y="-.5" color-interpolation-filters="sRGB"><feGaussianBlur stdDeviation="2.4"/></filter><filter id="q" width="1.1" height="2.3" x="-.1" y="-.7" color-interpolation-filters="sRGB"><feGaussianBlur stdDeviation="2"/></filter><filter id="p" width="1.2" height="2.4" x="-.1" y="-.7" color-interpolation-filters="sRGB"><feGaussianBlur stdDeviation="2"/></filter><filter id="o" width="1.2" height="2.1" x="-.1" y="-.5" color-interpolation-filters="sRGB"><feGaussianBlur stdDeviation="2"/></filter><filter id="n" width="1.2" height="2.2" x="-.1" y="-.6" color-interpolation-filters="sRGB"><feGaussianBlur stdDeviation="2"/></filter><filter id="d" color-interpolation-filters="sRGB"><feGaussianBlur stdDeviation="1.7"/></filter><filter id="b" color-interpolation-filters="sRGB"><feGaussianBlur stdDeviation="3.6"/></filter><filter id="r" width="1.3" height="1.3" x="-.2" y="-.1" color-interpolation-filters="sRGB"><feGaussianBlur stdDeviation="1.5"/></filter><radialGradient id="a" cx="344.4" cy="648.5" r="290.5" gradientTransform="matrix(.99347 -.30968 .62024 1.9898 -453.9 -605.8)" gradientUnits="userSpaceOnUse"><stop offset="0" style="stop-color:#fff"/><stop offset="1" style="stop-color:#50adcb"/></radialGradient></defs><path d="M3.7 268.8c27 21.6 23.4 29.9 18.6 42.8 57.3-31.6 119.5-78.5 178.6-81.2 54 .9 99 25 178.9-40.8 15.7-65.3-7.5-84.3-29.2-105 21.3-20.8 44.6-15.3 76.6-11 4.7 3 21.1 20.3 3.1 16.8 8 4.3 21.7 11 0 15.5 22.4-2.2 23.5 10.6 8.4 14.8 9.6 4.4 33.4 5.4 9.1 18.3 10.7 6 20.9 12.1-.7 14.4 8.4 5.2 22 10.4 4 15.6 13.2 3 23.5 8.9 6.4 12.8 9.2 6.5 7.3 10.7 0 13.6-20.7 6.2-41.5 10-62.2-2-14.4-4.6-19.8 1.7-25.3 7.8-37.4 30.8-46 62.5-57.2 81a204 204 0 0 0-24.4 59c-8.1 20-21.6 38.8-21.4 60.3a74 74 0 0 0-5.9 37c-13.2 33.8.8 54 4 79.7 2.2 19.8-9.4 24.2 23.3 77.8-4.6 38 31.5 59.7 62.2 83.6 17.6 11 35.6 21.5 62.2 25.3 7.6 6.2 9.4 15.3 9.7 25.2a110 110 0 0 0 2 54.5c-4 5.6-12 7.4-5.9 23.3a39 39 0 0 0-1.9 35c-11.1.3-11.2 18.9-11.7 37-16.7 4-9.9 22.8-13.6 35-9.5 6-9.1 15.5-7.8 25.2-21.3 5.4-17.1 18.7-15.5 31.2-19.2 1.9-18 12.4-15.6 23.3q-18.6-2.3-9.7 17.5c-7.8-8.6-13.2-7.6-15.6 5.8-6.4-1-13-8.6-19.4 2-9.5-7.1-17.6-3.7-25.3 2-9-5.9-16.2-3.3-23.3 0-26 1.2-30.2-4-38.9-7.9-27.9-19-22.9-35.1-31.1-52.5-6-26.2 1.6-36.1 3.9-52.5 12.7-22.6 26.4-40 42.8-40.8 27.9-14.2 35.2-2 42.7 2 28 15.4 25.4 24.7 37 36.9 14.9 8.4 6.2-19.6 2-40.9-3.6-12.8-16.8-23.8-29.2-35-42.9-16-50.6.2-74 2-49.4 23.8-50.7 47.7-57.4 60.4-4.8 16.7-14.3 42-14 62.2-4.3 29.4 5 55.8 17 81.6a149 149 0 0 0 76 63.2c41.5 24.8 75 7.5 85.4 4.8 34.3-2.1 47-23.2 68-37 21.3 6.4 17.4-8.2 17.6-19.4 19-4.1 18.1-13.7 17.5-23.3 7.8-4.5 21.4-3.2 17.5-19.4 14-1.5 14-15.2 11.6-31.2 13.5-5.5 20.6-14.5 17.5-29.1 17.3-10.2 16-16.8 4-21.4 9.6-5 20-9.6 13.5-25.3 14.6-13.1 15.4-23.5 11.7-33 3.4-10.2 14-16.3 5.8-33.1 14.2-7.7 13.8-22 11.7-37 8.7-7.7 10-17.7 5.8-29.1 13-14 8.6-33.1 9.8-50.6 8.6-15.1-.8-25.1-4-37 11.7-5 10.7-14.7 7.9-25.2-15.2-10.6-14.6-31-15.6-50.6 6.4-27.2 12.3-54.1 9.7-77.7 4-9.8 7.5-19.5 7.8-29.2-3.8-12.3.9-24.6 2-37q10-16.7 17.4-38.8c4.1-6 13.6-8.8 5.9-21.4 11.3-9.5 14.8-19.8 7.8-31.2 8.9-20.8 1.3-28.5-7.8-35 6.1-13.2 23.1-25.8 3.9-40.8 3.8-15.2 17.9-31.2-2-44.7 6.4-9 11.6-17.9 0-23.3 10-9.2 6.2-16-5.8-21.4-.8-10.6 15.1-19.2-15.6-33 6.9-19-2.6-31-21.4-39 6.4-13.3 13.7-26.7-17.5-31.1 10.6-15.5-.7-18.4-11.6-21.4 8.6-9.5 5.2-17.5-15.6-23.3-.6-9.7 4-22.1-17.5-21.4-9.7-14.2-19.4-24.2-29.1-5.8C424 13.5 415 9.5 405 22.3c-7.9-20.6-13.1-8.8-19.4-9.7-8.7-15-12.3-8.3-15.6 0-13.6-7-14.4.6-15.5 7.8-7.7-6-15.3-11.8-17.5 2-10.4-3.7-21.8-9.9-23.4 7.7-9-10-15.5-11.3-15.5 9.7-11-1.2-21.7-2-27.2 5.9-32.2 17.2-14.7 38.1-40.9 60.2-7.4 4.5-11.7 2.7-13.6-3.9-.5-11.1 8-37.5-3.9-29.1-4.5 1.1-9 7.4-13.6 21.4-11.4 24.3-8.4 34.3-11.7 50.5 1.4 13.8-6 20.7-13.6 27.3-46.4 29.5-60 50.4-170 96.7" style="stroke-linejoin:round;stroke:#154e73;stroke-linecap:round;stroke-width:7.3;fill:url(#a)"/><path d="M538.7 502.8c.2-28.3 48.5-9.6 65.6-14.5 13.6 1.5 7 13.8 1 26 7.6 7.7 13.8 15-2 15.5 10.8 15.3 16.3 28.6-3.8 31.2 19.7 13.3 19 23.2 5.8 31-1.5 6.5 20.1 20.4-7.8 17.6 6 11.7 16.8 23-3.7 26.3 18.4 28 6.2 25.3-8 26.2-22.7-.8-38.6-5.5-48.5-13.6-34.2-11.7-6-122.5 1.3-145.7" style="stroke-linejoin:round;stroke:#154e73;stroke-linecap:round;stroke-width:7.3;fill:#3c8ca7"/><g style="stroke-linejoin:round;filter:url(#b);stroke:#154e73;stroke-linecap:round;stroke-width:8" transform="translate(-53.9 -79.8)"><path d="M509.5 174c32.7 40.4 58.7 85.3 64.1 144-1.1 33.3 0 67.4-11.6 97.2 2.2 20.3 7.8 41.5-4 58.3-.5 28.2-7.7 51-19.4 70 .3 31.3-6.7 53.5-13.6 75.9 2.5 24.9 8.2 50.6 4 73.8" style="stroke-linejoin:round;stroke:#154e73;stroke-linecap:round;stroke-width:8;fill:none"/><path d="M406.4 312.1c3.7 11.5 12.5 16.4 21.6 20.7 32.5 35.1 60.3 14.6 85.6 9.7a78 78 0 0 0 58.1-24.5c24.7 3.5 36.2-3.2 45-8.5" style="stroke-linejoin:round;stroke:#154e73;stroke-linecap:round;stroke-width:8;fill:none"/><path d="M449.2 284.9c-10.3 12.3-20 25-19.5 42.8-19.9 18.6-36.6 38.6-33 68-26.4 23.2-23.5 42.6-23.3 62.3-8 21.8-15.7 43.7-4 60.2q-10.4 49 4 95.3c4.9 24.5-8.5 39.1 36.9 85.6" style="stroke-linejoin:round;stroke:#154e73;stroke-linecap:round;stroke-width:8;fill:none"/><path d="M367.5 378.2c9.6 8.5 18 21 31.1 17.5 23.8 21.5 52.5 21.4 81.7 19.5 27 16 55 25.6 87.5 0 25.6 3.6 38.6-6.1 50.1-13m-276.5 26.9a50 50 0 0 0 31.1 29.2c34.8 20.3 60.3 13.5 82.5-.3 27.6 35 60.5 37.4 97.2 17.5 28.6 8.6 60-.2 67-13m-298.3 51.9c7.8 19.5 22.4 24.7 48.6 5.8 16.8 31.2 44.3 32.2 73.9 27.2 39.2 11.2 66.6 2.6 95.2-3.9 17.4 9 34.7 11.6 52 4.2M319 596c16.2 15.8 28.2 40.7 58.2 27.2 23.5 10.5 43.8 5 63.5-4.7 31.7 14.3 61.5 12.9 91.4 5.9 10.8 7.7 27.9 6.4 55.2-20.6m-239.8 80.6c17.7 6.8 46.6 26.4 60.9 8.8 30.1 18.3 44.1 8.4 60.2 2 34 17 43.7 2.9 61.9-2.9 19 13.7 34.7 6 47 1" style="stroke-linejoin:round;stroke:#154e73;stroke-linecap:round;stroke-width:8;fill:none"/><path d="M496.5 279.5c11.4 19 18 39.1 13 61.8-12.4 24.2-25.6 48-29.2 75.8-7 12.3-8.2 20-23.3 39-9 26.9-22.7 42.5-23.4 89.4 2.5 21.7-12 31.7 11.7 68 6 26.6 5.7 53.2 23.3 79.7-4 33.6 17.6 48.8 38.5 64.6" style="stroke-linejoin:round;stroke:#154e73;stroke-linecap:round;stroke-width:8;fill:none"/><path d="M402.2 753.4c42 10.2 75.3 16.1 101 1.4 39 5.5 63.6 1.9 73.5-13M478.4 806c26.8 12.2 58.4 27.2 102.8-.9m-98.9 63.2c22.5 14.4 46.2 26.8 79.7 21.4M472.3 931c16.7 15.6 40.7 28.9 70.2 20.9M450.8 987c17 13.4 40.4 33.5 64.5 27.1m-81.7 42.8c5 21.6 30.2 27.4 50.6 37m-87.5 3.8c-.5 28.4 17.8 40 33 54.4m-66.1-48.6c-8 28.8-7.7 56.5 11.7 81.7m-58.3-77.8c-20 17-27.6 40-33.1 64.2m-7.8-73.9c-26.7-3.6-46.4 4.9-60.3 23.3m29.2-79.7c-13.5-3.2-31.5-14.7-41.6-1.3m39.6-47.7c-1-19-10.3-24-24.2-21m70.9-23.3a52 52 0 0 0-20.9-31.7m67.6 37.5c7.4-9.6 6-23.7 2.5-38.8" style="stroke-linejoin:round;stroke:#154e73;stroke-linecap:round;stroke-width:8;fill:none"/></g><g style="stroke-linejoin:round;filter:url(#c);stroke:#154e73;stroke-linecap:round;stroke-width:2.9" transform="translate(-53.9 -79.8)"><path d="M597 603.8c17-.4 35.1-16.7 50.5 5.8m-58.3 27.3c19-4.6 37.6-13.2 58.3-4m-60.2 25.4c29 1.1 50 9.2 66 21.3m-68.6 19.1c15.2-8.4 67.6 2.3 62.3 8.4" style="stroke-linejoin:round;stroke:#154e73;stroke-linecap:round;stroke-width:2.9;fill:none"/></g><path d="M239.2 120.6c22.1 8.1 15.6 20.5 18 34-4.2 19-13.7 22.8-29.1 21.3-21.6-5-17.2-15.6-19.7-31 7-23.2 20.3-27.7 30.8-24.3" style="filter:url(#d);fill:#2d6a7e"/><path d="M545 507.3c17.2-8.1 35.1-11 54.2-2.7" style="stroke-linejoin:round;color:#000;filter:url(#e);stroke:#154e73;stroke-linecap:round;stroke-width:2.9;fill:none"/><path d="M538 541c20.2-10.7 40.4-16.2 60.6 2" style="stroke-linejoin:round;color:#000;filter:url(#f);stroke:#154e73;stroke-linecap:round;stroke-width:2.9;fill:none"/><path d="M534 568.5c23.2-3.3 46.5-6.7 68 9.7" style="stroke-linejoin:round;color:#000;filter:url(#g);stroke:#154e73;stroke-linecap:round;stroke-width:2.9;fill:none"/><path d="M531.9 597.4c21.3-.6 47.4 2.2 56.3 15.8" style="stroke-linejoin:round;color:#000;filter:url(#h);stroke:#154e73;stroke-linecap:round;stroke-width:2.9;fill:none"/><path d="M533.2 630.4c22.4 4.3 47.2 6.8 53.7 23.4" style="stroke-linejoin:round;color:#000;filter:url(#i);stroke:#154e73;stroke-linecap:round;stroke-width:2.9;fill:none"/><path d="M387 72.2a49 49 0 0 0-32.2 12.2c6 7.7 14.1 14.2 19.6 22.6a66 66 0 0 1 12.3 41.8q.6 19.6-3.7 38.5c.8 3.5 5.7 1.3 8.2 2.7 8.7 2 16.4 7.4 25.5 8a90 90 0 0 0 39.3-5c2.3-.6 7-2.6 4-5.4-1.1-2.1-5.3-3.6-4.6-6.3 1.2-3 6.4-1.9 6.5-5.3-3.2-3.5-9.2-2.8-12.7-5.9-1.6-3 3.2-4.3 5.2-5 2.8-.7 1.7-3.9-.6-4.6-3-2.4-7.6-3.7-9.2-7.4 2-4 8.4-1.4 10.8-4.7 0-3.7-5.2-4.4-7.4-6.6-2-1-3.7-3.5-1.1-4.9 2.2-2.5 7.7-3.1 7.8-7-2.7-3.6-8.2-3.3-12-5.2-2-1-7.5-1.6-6-5 2.6-3 8.8-3.2 9.2-7.9-1.8-3.7-7.2-2.7-10.7-3.3-2.2-.5-6.9.6-7.1-2.7 1-3.3 6-2.9 8.5-4.6 3-1.2.9-4.2-1.2-5-2.4-2-7.2-3.2-7.4-6.7 2-2.3 7.8.5 7.4-3.3-3.2-4.8-6.8-10.4-13.1-10.7a213 213 0 0 0-35.3-3.3" style="color:#000;fill:#3c8ca7"/><path d="M427.5 180q19.8-17.6 56.2-10.5" style="stroke-linejoin:round;color:#000;filter:url(#j);stroke:#154e73;stroke-linecap:round;stroke-width:2.9;fill:none" transform="translate(-53.9 -79.8)"/><path d="M436.7 192.8c13.7-7 36.8-12.6 52.4-2.9" style="stroke-linejoin:round;color:#000;filter:url(#k);stroke:#154e73;stroke-linecap:round;stroke-width:2.9;fill:none" transform="translate(-53.9 -79.8)"/><path d="M440.1 222c18-3.2 30-13 67 4.6" style="stroke-linejoin:round;color:#000;filter:url(#l);stroke:#154e73;stroke-linecap:round;stroke-width:2.9;fill:none" transform="translate(-53.9 -79.8)"/><path d="M439.5 254.6c16.5-3.7 26-12.2 70.4 3.2" style="stroke-linejoin:round;color:#000;filter:url(#m);stroke:#154e73;stroke-linecap:round;stroke-width:2.9;fill:none" transform="translate(-53.9 -79.8)"/><path d="M416 167.8c15-11.9 39.7-7.4 61.8-7" style="stroke-linejoin:round;color:#000;filter:url(#n);stroke:#154e73;stroke-linecap:round;stroke-width:2.9;fill:none" transform="translate(-53.9 -79.8)"/><path d="M439.3 207.6c14.6-6.3 28.9-13.4 48.8-5.5" style="stroke-linejoin:round;color:#000;filter:url(#o);stroke:#154e73;stroke-linecap:round;stroke-width:2.9;fill:none" transform="translate(-53.9 -79.8)"/><path d="M444.1 235.1c17.7-6.5 35.3-11.5 53 0" style="stroke-linejoin:round;color:#000;filter:url(#p);stroke:#154e73;stroke-linecap:round;stroke-width:2.9;fill:none" transform="translate(-53.9 -79.8)"/><path d="M438.6 262c28.5 10.8 48.6 6.8 70.1 5.4" style="stroke-linejoin:round;color:#000;filter:url(#q);stroke:#154e73;stroke-linecap:round;stroke-width:2.9;fill:none" transform="translate(-53.9 -79.8)"/><path d="M294.5 228.1a14.1 16.5 0 1 1-.2-.5" style="color:#000;filter:url(#r);fill:#1e4653" transform="translate(-53.9 -80.8)"/></svg>