<svg xmlns="http://www.w3.org/2000/svg" version="1.0" viewBox="0 0 431.3 310.1"><g style="stroke-width:.31019"><path d="m-35.2 483.3-.5-1.5v-2l.3-2.2.5-.6.3-.4-.3-2.5.8-3.6.9-1.9.3-1.7.9-2.7.5-1-.3.2.2-1.2.3-1 .3-.1-.6-1.2-.2-2.7v-4.7l1.2-1 .8 1.9.9 2.6 1.5 1h1.4l2-1 2.3-1.4 1.6-1.4 1.3-1.8 1-1.3 1-1.2 1.5 1 1.3 3.7 1.1 2.7.8 1.8-.4 2.3 1-2.8.3-2.9-.4-4-.3-2.3-.2-1.1.7-1.3.9-.2 1.1 1.6.1 3.7.4 3.1v3.4l.1 1.7h1.4l1.9 1.6 2 3.1.3 1.2 1.7 1 2 2.8 1.4 1.6 3.5 1.8 2.6.7.3.6 2 .5h2.2l2.7-.7 2.1.1 1.3 1.1.9 1.2.5.2.2 3.4-2.2 1.8-5.3 2.5-4.7 1.3-4.8.6-4.4.2-3.2-.2-4.6-.6-3.9-.2-3.6.2-6.7-.2h-6.2l-3.2-.6z" style="fill-rule:evenodd;stroke:#000;stroke-width:.31019;fill:#fff" transform="rotate(.6 317407.7 27550.1)scale(7.6458)"/><path d="m-33.4 477.7-.5-2.2.7-3.9.8-2.6.8-1.8.5-2.7.5-.8m-1.2-.3 3.2.3 3.4.5 5.1-.1 4.4.2 3-.1 2.2-.3v-.5l-2.4-.6-3.2-.1h-6l-4.4-.1-3.3-.2h-1.7z" style="stroke:#000;stroke-width:.31019;fill:none" transform="rotate(.6 317407.7 27550.1)scale(7.6458)"/><path d="m-31.8 462.4 6 .2 4.4.2 3.6-.4 3.7.3 3.8-.1 1-1.5h-8.4l-4.9-.2h-3.8l-4.9.3z" style="stroke:#000;stroke-width:.31019;fill:none" transform="rotate(.6 317407.7 27550.1)scale(7.6458)"/><path d="m-10.1 462.4 1-1.7.8-.1 2.4 2 .9 2.7 1.3 3.7-1 1.4L-7 469l-1-1.8-.3-2.5-.2-2z" style="stroke:#000;stroke-width:.31019;fill:none" transform="rotate(.6 317407.7 27550.1)scale(7.6458)"/><path d="m-8.6 463 2.2 1.6 1.4 1.6.5 2.5v1.7" style="stroke:#000;stroke-width:.31019;fill:none" transform="rotate(.6 317407.7 27550.1)scale(7.6458)"/><path d="m-10.2 462.7.2 2.8.4 2.8 1.6 2.3 1.2.8 1.9-.1 1.2-1.2.7-.8.5 2.7.6-.2-.6-2.7v-2l-1-2.5-1.9-3.4-1.6-1.5-1.6-.2-.9.6.1 1" style="stroke:#000;stroke-width:.31019;fill:none" transform="rotate(.6 317407.7 27550.1)scale(7.6458)"/><path d="m-3 467.7 2 1.8L.4 471l.1.9 1 .4.2-1-.3-1-1.9-.6" style="stroke:#000;stroke-width:.31019;fill:none" transform="rotate(.6 317407.7 27550.1)scale(7.6458)"/><path d="m1.4 470.9 4 2.4 2.6.3m-43 3.9 2.7.8 4.8.8 4.8.2 5.9.4 6 .4 4.5 1.1 5.5.6h4.5l3.6-.7 5.6-1.3 4-1.8 2.7-2" style="stroke:#000;stroke-width:.31019;fill:none" transform="rotate(.6 317407.7 27550.1)scale(7.6458)"/><path d="M17.5 473.7 16 475l-4.6 1.5-4.3.2-3 .2-2.3-.7-.6-1.5.9-1.8-.4-1m-2-1.5-1.6 3.2-1.8 2.9-1.5 2.5-1.2 2m-26.1-11.5 4.5 1.6 2.2.9 4.2 1.7 2.2 2.4.8 2.2.5 1.2m.6-15.5-2.4 1.7-.3.6 1.7 2 1.3.4 4.3-2.7 1.8-1 1 .3m-21 1.1h2.3l3.3-1.1 1.3-1m3.2-3.3 1-2 1.4-1.4 1.8-1 .6-.4 1.4 1.4.7 2.3.1 1m-15.8-.1 2.6-1.2 2.5-1.6 1.6-2v-.3" style="stroke:#000;stroke-width:.31019;fill:none" transform="rotate(.6 317407.7 27550.1)scale(7.6458)"/></g><path d="m37.4 727-5.7 13v20.2l-1.5 21.6 4.3 13 5.8 8.6 27.3 8.6 18.8 2.9 20.1 2.9 26 1.4h33l47.5-1.4h36l38.9 1.4 31.6-2.9 31.7 1.5 30.2 1.4 36 5.8 51.8 2.8 36-4.3 59-5.7 38.9-10.1 34.5-13 36-18.7 27.3-18.7 15.9-15.8L711 704l-5.7-1.4-11.5 8.6-14.4 15.9-24.5 8.6-27.3 14.4-30.3 10-47.5 10.2-27.3 4.3-33.1 4.3L452 776l-41.8-4.3-37.4-4.3-26-7.2-15.8-4.3h-38.8l-38.9-1.5-30.2-2.9-43.2-1.4-37.4-2.9-33.1-2.8-30.2-5.8-27.4-5.8z" style="fill-rule:evenodd;stroke:#000;stroke-width:3.8;fill:#000" transform="rotate(1.3 9417.5 -395.3)scale(.6241)"/><path d="M82 525.6 76.3 540l41.7 7.2 40.3-3 43.2 4.4 34.6-2.9 38.8-1.4 49 1.4 17.2-2.9 11.5-18.7-28.8 3h-30.2l-36 1.4-37.4-3H119.4L92.2 527z" style="fill-rule:evenodd;stroke:#000;stroke-width:3.8;fill:#c6dde3" transform="rotate(1.3 9417.5 -395.3)scale(.6241)"/><path d="M76.3 557.2v-15.8l44.6 4.3h188.6l27.3 7.2v5.8L308 563l-37.4 1.4L236 566l-38.8-3h-38.9l-34.5-4.2-34.6-1.5zm263.4-15.8 4.3 51.8 5.8 18.7 17.2 27.4 14.4 10 20.2-1.4 13-5.7 11.4-17.3 10.1 31.7 7.2-1.5-11.5-34.5 5.8-18.7-11.6-27.4-10-21.6-11.6-20.1-14.3-18.7-14.4-10.1-14.4-1.5-8.7 4.4-4.3 7.1 1.5 4.4 13-1.5 21.5 17.3 8.6 8.6 8.7 28.8 18.7 49-8.7 15.8-17.2-7.2-18.7-7.2-5.8-20.2-5.8-21.5-4.3-34.6z" style="fill-rule:evenodd;stroke:#000;stroke-width:3.8;fill:#c6dde3" transform="rotate(1.3 9417.5 -395.3)scale(.6241)"/><path d="m342.6 541.4 28.7 10 23 23.1 13 24.5 1.5 30.2 5.7 4.3 5.8-13-15.9-38.8-11.5-37.4-14.4-14.4-15.8-11.5-10 1.4zm84.9 31.6 21.6 13 31.6 46 13 10.2 27.3 11.5 46.1 15.8v8.6l-20.2-5.7-13-1.5-30.1-14.3-21.6-10.1v-10.1l-23-5.8-24.5-20.1 2.9-11.5z" style="fill-rule:evenodd;stroke:#000;stroke-width:3.8;fill:#c6dde3" transform="rotate(1.3 9417.5 -395.3)scale(.6241)"/><path d="m460.6 633.5 20.1 1.5 3 17.2-1.5 8.7-13-10.1v-8.6z" style="fill-rule:evenodd;stroke:#000;stroke-width:3.8;fill:#c6dde3" transform="rotate(1.3 9417.5 -395.3)scale(.6241)"/><path d="M309.5 525.6 318 504l5.7-26 1.5-37.3-4.3-33.2-4.4-36-2.8-18.6 10-11.6 10.1-2.8 14.4 15.8 2.9 46 4.3 47.5v53.3l-7.2 8.6 1.5 7.2-1.5 7.2z" style="fill-rule:evenodd;stroke:#000;stroke-width:3.8;fill:#d8ce76" transform="rotate(1.3 9417.5 -395.3)scale(.6241)"/><path d="m37.4 725.6 24.5 8.7-2.9-11.5L49 704l8.6-20.1 2.9-20.2 5.7-24.4L80.6 599l1.4-26 10.1-15.8-15.8-1.4-13 36-4.3 28.8-10 18.7-5.8 24.4-4.3 24.5 5.7 27.4z" style="fill-rule:evenodd;stroke:#000;stroke-width:3.8;fill:#fff" transform="rotate(1.3 9417.5 -395.3)scale(.6241)"/><path d="m244.7 751.5 73.4 3h24.5l48.9 15.7 21.6-41.7 37.4-61.9 7.2-17.3-20.1-18.7 5.7 21.6-11.5 4.3-5.8-25.9-11.5 14.4-10 4.4-18.8-1.5-17.2-7.2-15.9-17.3-10-23L341 576l-11.5-4.3-72 44.7-18.7-1.5-20.1-33.1 31.6-14.4-79.1-2.9-15.8 11.5-27.4 13-17.3 4.3H80.6L72 622l-4.4 10 113.8 39 24.4 12.9 21.6 23 11.5 23z" style="fill-rule:evenodd;stroke:#000;stroke-width:3.8;fill:#d8ce76" transform="rotate(1.3 9417.5 -395.3)scale(.6241)"/><path d="m365.6 586 40.3 28.8 4.3 15.8-1.4 3L377 622l-5.8-13zm120.9 69.1 7.2-2.9 40.3 20.2 27.3 2.9 30.3 8.6 30.2-1.4 17.3-7.2 21.6-3 20.1 4.4-14.4 14.4-10 4.3-21.7 7.2-23 7.2-38.9 2.9-25.9 2.9-23 2.8-24.4-7.2-10.1-5.7-7.2-15.8 10-26z" style="fill-rule:evenodd;stroke:#000;stroke-width:3.8;fill:#d8ce76" transform="rotate(1.3 9417.5 -395.3)scale(.6241)"/><path d="m434.7 627.8 24.5 21.6 4.3-13-24.5-23-5.8 7.2zm-28.8-13-1.4-14.4-4.4-13-7.2-14.3-30.2-23 2.9 21.5V586zm-187.1-31.7 20.1 30.3 23 2.9 66.3-47.5 14.4 8.6-3-17.3v-15.8l-23 1.4 18.8 7.2 1.4 4.3-57.6 8.7-31.6 1.4zM85 591.8l-5.8-17.3 14.4-17.3 54.7 7.2h24.4l-21.6 13-28.8 10-24.4 5.8zm11.4-67.7 43.2-15.8 20.2-18.7 20.1-23 4.3-8.7 21.6-18.7 20.2-21.6 11.5-17.2 15.8-17.3 7.2-8.7 10 8.7 7.3 8.6 15.8 46 20.2 47.6 2.8 10-4.3 15.9-2.8 11.5L295 524l-8.7-31.6-7.2-17.3-14.4-8.6L246 478l-27.3 23-8.7 20.2-1.4 4.3-28.8-3-27.3 1.5h-56z" style="fill-rule:evenodd;stroke:#000;stroke-width:3.8;fill:#000" transform="rotate(1.3 9417.5 -395.3)scale(.6241)"/><path d="m210.1 525.6 11.6-18.7 8.6-14.4 18.7-13 17.3-13 13 11.6 7.1 20.1 7.2 24.5-14.4 1.4h-60.4z" style="fill-rule:evenodd;stroke:#000;stroke-width:3.8;fill:#d8ce76" transform="rotate(1.3 9417.5 -395.3)scale(.6241)"/></svg>