<svg xmlns="http://www.w3.org/2000/svg" xmlns:xlink="http://www.w3.org/1999/xlink" style="enable-background:new" version="1.0" viewBox="0 0 1427.2 666.8"><defs><radialGradient id="D" cx="42.6" cy="602.1" r="141.7" gradientTransform="matrix(1.4138 -.28783 .09791 .48094 -65.7 -1112)" gradientUnits="userSpaceOnUse"><stop offset="0" stop-color="#090a1c"/><stop offset=".4" stop-color="#090b1a"/><stop offset=".6" stop-color="#0f1233"/><stop offset=".7" stop-color="#545385"/><stop offset=".8" stop-color="#a2add6"/><stop offset="1" stop-color="#090a1c" stop-opacity="0"/></radialGradient><radialGradient id="E" cx="433.4" cy="519.7" r="141.2" gradientTransform="matrix(2.8231 -1.7525 .25708 .41412 -944.1 -370.9)" gradientUnits="userSpaceOnUse"><stop offset="0" stop-color="#10101c"/><stop offset=".5" stop-color="#42447b"/><stop offset=".5" stop-color="#4f4f7a"/><stop offset=".7" stop-color="#6a6f9b"/><stop offset="1" stop-color="#ced2e3"/><stop offset="1" stop-color="#eceffb"/></radialGradient><radialGradient id="I" cx="-36" cy="746.8" r="45" gradientTransform="matrix(1.8746 -1.5664 .77627 .92904 -588.5 -27.6)" gradientUnits="userSpaceOnUse"><stop offset="0" stop-color="#f1eea8"/><stop offset="1" stop-color="#c3cde6"/><stop offset="1" stop-color="#fcfaff"/></radialGradient><radialGradient xlink:href="#a" id="q" cx="866.9" cy="675.3" r="44.2" gradientTransform="matrix(1.1351 -.51133 .65759 1.4598 -579 14)" gradientUnits="userSpaceOnUse"/><radialGradient xlink:href="#a" id="t" cx="866.9" cy="675.3" r="44.2" gradientTransform="matrix(1.0453 -.51133 .60559 1.4598 -662.6 23)" gradientUnits="userSpaceOnUse"/><radialGradient id="o" cx="836.1" cy="544.5" r="34" gradientTransform="matrix(1.546 -.28126 .14594 .8022 -470.3 -1158.1)" gradientUnits="userSpaceOnUse"><stop offset="0" stop-color="#191c26"/><stop offset="1" stop-color="#14135f"/></radialGradient><radialGradient id="c" cx="517.5" cy="861.5" r="107.4" gradientTransform="matrix(1 0 0 1.3378 0 -291)" gradientUnits="userSpaceOnUse"><stop offset="0" stop-color="#110a12"/><stop offset=".7" stop-color="#291d2b"/><stop offset=".8" stop-color="#1b0f1b"/><stop offset=".9" stop-color="#1a0e1a"/><stop offset="1" stop-color="#0c050d"/></radialGradient><radialGradient id="d" cx="522.3" cy="861.5" r="108.2" gradientTransform="matrix(1 0 0 1.3355 0 -289)" gradientUnits="userSpaceOnUse"><stop offset="0" stop-color="#110a12"/><stop offset=".7" stop-color="#463545"/><stop offset=".8" stop-color="#57485b"/><stop offset=".9" stop-color="#2b1d2e"/><stop offset="1" stop-color="#2e1f32"/></radialGradient><radialGradient id="e" cx="522.3" cy="861.5" r="108.2" gradientTransform="matrix(1 0 0 1.3355 0 -289)" gradientUnits="userSpaceOnUse"><stop offset="0"/><stop offset="1" stop-color="#2e1f32"/></radialGradient><radialGradient id="S" cx="983.6" cy="801.2" r="28.5" gradientTransform="matrix(1.1529 .06566 -.20222 3.5509 127.4 -3676.3)" gradientUnits="userSpaceOnUse"><stop offset="0" stop-color="#1c1714"/><stop offset=".8"/><stop offset=".9" stop-color="#594e5e"/><stop offset="1" stop-color="#68626e"/></radialGradient><radialGradient id="T" cx="1055.1" cy="736.1" r="18.6" gradientTransform="matrix(1.1561 0 0 3.0945 -126.6 -1543.1)" gradientUnits="userSpaceOnUse"><stop offset="0" stop-color="#bdbfd6"/><stop offset=".9" stop-color="#d0cedc"/><stop offset=".9" stop-color="#9693a0"/><stop offset="1" stop-color="#bec0d6"/></radialGradient><radialGradient id="ad" cx="849.9" cy="-960.4" r="47.9" gradientTransform="matrix(1.2004 .134 -.0669 .59932 -219 -473.6)" gradientUnits="userSpaceOnUse"><stop offset="0" stop-color="#fff"/><stop offset=".8" stop-color="#777779" stop-opacity="0"/><stop offset=".9" stop-opacity=".2"/><stop offset=".9"/><stop offset="1" stop-color="#0f0f31"/></radialGradient><radialGradient id="ae" cx="851.4" cy="-960.8" r="47.9" gradientTransform="matrix(1.2078 .06245 -.03971 .76809 -197.2 -250.5)" gradientUnits="userSpaceOnUse"><stop offset="0" stop-color="#fff" stop-opacity="0"/><stop offset=".9" stop-color="#bfbfbf" stop-opacity="0"/><stop offset="1"/></radialGradient><radialGradient xlink:href="#b" id="i" cx="836.1" cy="-1113.2" r="689.2" gradientTransform="matrix(3.1192 -.80529 .07105 .27522 -1721 235.6)" gradientUnits="userSpaceOnUse"/><radialGradient xlink:href="#b" id="u" cx="153" cy="-808" r="317.7" gradientTransform="matrix(1.4169 -.53919 .09182 .24129 10.4 -530.5)" gradientUnits="userSpaceOnUse"/><radialGradient id="J" cx="483.6" cy="-1257.8" r="241.8" gradientTransform="matrix(2.0372 -1.2701 .28429 .456 -26 235.4)" gradientUnits="userSpaceOnUse"><stop offset="0" stop-color="#fff" stop-opacity=".3"/><stop offset=".5" stop-color="#fff" stop-opacity=".2"/><stop offset=".5" stop-color="#fff" stop-opacity=".3"/><stop offset=".8" stop-color="#fff" stop-opacity=".8"/><stop offset="1" stop-color="#fff" stop-opacity="0"/></radialGradient><radialGradient id="ah" cx="180.8" cy="-670.5" r="264.8" gradientTransform="matrix(2.7005 -1.0286 .11231 .29488 -219.8 -437.5)" gradientUnits="userSpaceOnUse"><stop offset="0" stop-color="#161b40"/><stop offset=".5"/><stop offset=".6" stop-color="#3c3867"/><stop offset=".6" stop-color="#454276"/><stop offset=".8" stop-color="#fff"/><stop offset="1" stop-color="#131525"/></radialGradient><radialGradient id="ag" cx="311.3" cy="479.6" r="234.6" gradientTransform="matrix(.98406 -.01996 .01819 .89667 -3.5 -36.5)" gradientUnits="userSpaceOnUse"><stop offset="0" stop-color="#090a1c"/><stop offset=".6" stop-color="#090b1a"/><stop offset=".8" stop-color="#161b4c"/><stop offset=".8" stop-color="#545385" stop-opacity=".9"/><stop offset=".8" stop-color="#a2add6"/><stop offset="1" stop-color="#090a1c" stop-opacity=".8"/></radialGradient><radialGradient id="af" cx="174.1" cy="-677.4" r="230.3" gradientTransform="matrix(.43233 .01016 -.01001 .42612 92 -406.4)" gradientUnits="userSpaceOnUse"><stop offset="0" stop-color="#ebebeb"/><stop offset="1" stop-color="#ebebeb" stop-opacity="0"/></radialGradient><radialGradient id="v" cx="324.6" cy="-353.1" r="227.8" gradientTransform="matrix(.99973 -.02305 .00808 .35016 3 -379.9)" gradientUnits="userSpaceOnUse"><stop offset="0" stop-color="#0e0910"/><stop offset=".6" stop-color="#100813"/><stop offset="1" stop-color="#291c2d"/></radialGradient><linearGradient id="a"><stop offset="0" stop-color="#9893aa"/><stop offset=".5" stop-color="#9e99b0"/><stop offset=".7" stop-color="#bab9ce"/><stop offset=".9" stop-color="#caccdd"/><stop offset="1" stop-color="#cacddc"/></linearGradient><linearGradient id="b"><stop offset="0" stop-color="#090b1a"/><stop offset=".5" stop-color="#2b2759"/><stop offset=".6" stop-color="#444075"/><stop offset=".8" stop-color="#9c9ac6"/><stop offset=".8" stop-color="#686cac"/><stop offset="1" stop-color="#131525"/></linearGradient><linearGradient id="f" x1="938.6" x2="1242.6" y1="638.4" y2="401.2" gradientTransform="translate(-1694.1 -147)" gradientUnits="userSpaceOnUse"><stop offset="0" stop-color="#fff"/><stop offset="1" stop-color="#fff" stop-opacity="0"/></linearGradient><linearGradient id="w" x1="310.9" x2="410.9" y1="762" y2="757.1" gradientTransform="translate(-12 -.3)" gradientUnits="userSpaceOnUse"><stop offset="0" stop-color="#d48f0e"/><stop offset=".7" stop-color="#e1b400"/><stop offset="1" stop-color="#f4d04d"/></linearGradient><linearGradient id="x" x1="401.3" x2="412.9" y1="739.7" y2="757.1" gradientTransform="translate(-12 -.3)" gradientUnits="userSpaceOnUse"><stop offset="0" stop-color="#d48f0e"/><stop offset="0" stop-color="#e1b400"/><stop offset="1" stop-color="#f4d04d"/></linearGradient><linearGradient id="C" x1="-171.4" x2="-122.1" y1="802.1" y2="796" gradientTransform="translate(6.1 -1447.7)" gradientUnits="userSpaceOnUse"><stop offset="0" stop-color="#312344"/><stop offset=".1" stop-color="#251d50"/><stop offset=".6" stop-color="#413d7b"/><stop offset="1" stop-color="#736e98"/></linearGradient><linearGradient id="z" x1="-189.9" x2=".7" y1="916.6" y2="884.7" gradientTransform="translate(17.8 -1544.6)" gradientUnits="userSpaceOnUse"><stop offset="0" stop-color="#c5cbe8"/><stop offset="0" stop-color="#5a5ea7"/><stop offset=".2" stop-color="#484d8d"/><stop offset=".3" stop-color="#2f2d6e"/><stop offset=".6" stop-color="#050c29"/><stop offset="1" stop-color="#080b1a"/></linearGradient><linearGradient id="A" x1="-180.6" x2="305.7" y1="999.1" y2="1006.7" gradientTransform="translate(6.5 -1576.9)" gradientUnits="userSpaceOnUse"><stop offset="0" stop-color="#100c22"/><stop offset="1" stop-color="#170e3b"/></linearGradient><linearGradient id="B" x1="213.7" x2="177.7" y1="877.1" y2="886.3" gradientTransform="translate(0 -1500)" gradientUnits="userSpaceOnUse"><stop offset="0" stop-color="#fff"/><stop offset="1" stop-color="#fff" stop-opacity="0"/></linearGradient><linearGradient id="r" x1="485.3" x2="487.8" y1="536.7" y2="550.8" gradientTransform="translate(9 -1463.2)" gradientUnits="userSpaceOnUse"><stop offset="0" stop-color="#2d2e40"/><stop offset="1"/></linearGradient><linearGradient id="s" x1="567.6" x2="619.9" y1="536.7" y2="536.7" gradientTransform="translate(1 -1470.1)" gradientUnits="userSpaceOnUse"><stop offset="0" stop-color="#444053"/><stop offset="1" stop-color="#191826"/></linearGradient><linearGradient id="K" x1="1289.8" x2="1227.5" y1="615.5" y2="615.5" gradientTransform="translate(-135.7 -1522.5)" gradientUnits="userSpaceOnUse"><stop offset="0" stop-color="#41345c"/><stop offset="1" stop-color="#131838"/></linearGradient><linearGradient id="M" x1="822.7" x2="842.2" y1="655.7" y2="625.6" gradientTransform="translate(-46 -10)" gradientUnits="userSpaceOnUse"><stop offset="0" stop-color="#6e659e"/><stop offset=".7" stop-color="#8180b9"/><stop offset="1" stop-color="#6c629d"/></linearGradient><linearGradient id="p" x1="762" x2="762.8" y1="524.3" y2="595.8" gradientTransform="translate(58.8 -1502.9)" gradientUnits="userSpaceOnUse"><stop offset="0" stop-color="#5f57c7"/><stop offset=".1" stop-color="#2c2584"/><stop offset=".3" stop-color="#0a0d1e"/><stop offset=".6" stop-color="#0a0c21"/><stop offset="1" stop-color="#11131f"/></linearGradient><linearGradient id="N" x1="945.1" x2="938.9" y1="476" y2="482.2" gradientTransform="translate(-12.3 -1449.9)" gradientUnits="userSpaceOnUse"><stop offset="0" stop-color="#e7e2fd"/><stop offset=".3" stop-color="#b6bde3"/><stop offset="1" stop-color="#9dadda"/></linearGradient><linearGradient id="P" x1="390.4" x2="445.9" y1="903" y2="903" gradientTransform="translate(68.8 -1482.3)" gradientUnits="userSpaceOnUse"><stop offset="0" stop-color="#b4a5aa"/><stop offset=".5" stop-color="#867b84"/><stop offset=".5" stop-color="#675563"/><stop offset=".8" stop-color="#443749"/><stop offset=".8" stop-color="#978b99"/><stop offset="1" stop-color="#776a71"/></linearGradient><linearGradient id="O" x1="441.9" x2="474.2" y1="-644.7" y2="-644.3" gradientUnits="userSpaceOnUse"><stop offset="0" stop-color="#736470"/><stop offset=".6" stop-color="#a79aa0"/><stop offset="1" stop-color="#958890"/></linearGradient><linearGradient id="ai" x1="147.9" x2="240.9" y1="-1221.7" y2="-872.2" gradientUnits="userSpaceOnUse"><stop offset="0" stop-color="#161b40"/><stop offset=".5"/><stop offset=".6" stop-color="#3c3867"/><stop offset=".6" stop-color="#454276"/><stop offset=".8" stop-color="#fff"/><stop offset="1" stop-color="#131525"/></linearGradient><path id="l" fill="url(#c)" d="M624.9 861.5c0 79.4-48.1 143.7-107.4 143.7S410 940.9 410 861.5s48-143.7 107.4-143.7c59.3 0 107.4 64.3 107.4 143.7"/><path id="m" fill="url(#d)" stroke="url(#e)" d="M624.9 861.5c0 79.4-48.1 143.7-107.4 143.7S410 940.9 410 861.5s48-143.7 107.4-143.7c59.3 0 107.4 64.3 107.4 143.7z"/><path id="n" fill="#fcfbfd" d="M609.6 861.1c0 65.6-40.4 118.7-90.3 118.7s-90.4-53.1-90.4-118.7 40.5-118.6 90.4-118.6 90.3 53 90.3 118.6"/><path id="F" fill="#2d1924" d="M268 722.6c0 7.5-3.7 13.6-8.4 13.6s-8.5-6.1-8.5-13.6 3.8-13.6 8.5-13.6 8.5 6 8.5 13.6"/><path id="G" fill="#4f3f5b" d="M266.3 725.2c0 3.7-2 6.7-4.6 6.7s-4.6-3-4.6-6.7 2-6.8 4.6-6.8 4.6 3 4.6 6.8"/><path id="Q" fill="#291f2a" d="M447.6 851.8q-.1 1.5-1.5 1.6-1.4-.1-1.5-1.6.1-1.6 1.5-1.7c1.4 0 1.5.8 1.5 1.7"/><path id="R" fill="#e9e2ea" d="M446.4 851.3q0 1.2-.6 1.3-.7-.1-.5-1.3c.2-1.2.2-1.3.5-1.3s.5.6.5 1.3"/><path id="U" fill="gray" d="M1104.9 745.3c0 4-2 7.4-4.3 7.4-2.4 0-4.3-3.3-4.3-7.4s2-7.4 4.3-7.4c2.4 0 4.3 3.3 4.3 7.4"/><path id="V" fill="#d8d7d7" d="M1105.3 746.4c0 3.3-1.6 6-3.6 6s-3.6-2.7-3.6-6 1.6-6 3.6-6 3.6 2.7 3.6 6"/><path id="W" fill="#eaeaea" d="M1102.8 745.6c0 2.5-1 4.5-2.4 4.5s-2.3-2-2.3-4.5 1-4.4 2.3-4.4 2.4 2 2.4 4.4"/><path id="X" fill="#7f7f7f" d="M1104.3 745.2c0 2.6-.9 4.7-2 4.7s-2-2.1-2-4.7.9-4.7 2-4.7 2 2 2 4.7"/><path id="Y" fill="#634c56" d="M510 840.9c0 5.5-2.7 9.9-6 9.9-3.4 0-6.1-4.4-6.1-10s2.7-9.8 6-9.8c3.4 0 6.1 4.4 6.1 9.9"/><path id="Z" fill="#fff2ff" d="M534.7 835.2c0 4.2-2.5 7.6-5.7 7.6s-5.7-3.4-5.7-7.6 2.5-7.6 5.7-7.6 5.7 3.4 5.7 7.6"/><path id="aa" fill="#6f5f6c" d="M534 835c0 2.8-1.9 5-4.2 5s-4.2-2.2-4.2-5 1.9-5 4.2-5 4.2 2.2 4.2 5"/><path id="ab" fill="#13140f" d="M532.9 835c0 1.6-1.2 2.9-2.7 2.9s-2.8-1.3-2.8-3 1.3-2.8 2.8-2.8 2.7 1.3 2.7 2.9"/><path id="ac" fill="#f5e8f2" d="M532.7 835.4c0 1.6-1.2 2.9-2.8 2.9s-2.8-1.3-2.8-3 1.2-2.8 2.8-2.8 2.8 1.3 2.8 2.9"/><filter id="y"><feGaussianBlur stdDeviation="1"/><feBlend in2="BackgroundImage" mode="screen"/></filter><filter id="L" width="1.4" height="1.3" x="-.2" y="-.2"><feGaussianBlur stdDeviation="1.1"/><feBlend in2="BackgroundImage" mode="darken"/></filter><filter id="g" width="1.1" height="1.3" x="0" y="-.1"><feGaussianBlur stdDeviation="20.4"/><feBlend in2="BackgroundImage" mode="lighten"/></filter><filter id="H" width="1.2" height="1.3" x="-.1" y="-.1"><feGaussianBlur stdDeviation="4.9"/></filter></defs><g fill-rule="evenodd"><path fill="url(#f)" d="M-635.4 406.5s162-104.1 187-123.4c25.1-19.3 2-81 2-81s-23.2 32.8-56 65.6c-28.9 23-52 42.4-96.4 79-44.3 44.4-36.6 61.7-36.6 59.8" transform="translate(186.1 1045.4)"/><path fill="#fff" fill-opacity=".4" d="M-432.1 1473.2s57.7-38.2 69.6-42.5c12-4.2 23-11 31.5-16.1s25.5-4.3 25.5-4.3l-2.6 6s-11.9-1.7-25.5 6c-13.6 7.6-31.4 17-41.6 24.6a188 188 0 0 1-36.5 20.4c-4.3.8-15.3 8.5-15.3 8.5z"/></g><path d="M1006.5-671s19-138.7 21-142.7 54.8-95.8 54.8-95.8l52.9-17 50.8 63.9-9 72.8-12.9 45-160.6 77.7zm-378.7 80.9-239.9 80.4-42.3-158 103-156.6 163.6-32.4 55 138.2-12.6 91.7z" style="enable-background:accumulate" transform="translate(186.1 1045.4)"/><path d="M-59.8-635.2c-36 79.8-139.7 111.8-16 131.7s231.4 47.9 355.1 36 275.3-24 299.3-40 71.8-32 147.6-59.8 179.5-40 247.4-59.9 135.6 0 151.6-28S985.5-882.4 786-826.6-51.9-635.2-59.9-635.2" filter="url(#g)" style="enable-background:accumulate" transform="matrix(1.0466 0 0 1.071 194.7 1108.3)"/><path fill="url(#i)" d="M566.7-1041.3c-53.5.6-69 5.3-96.5 12.7 0 0-71.4 37.7-100.8 56.3-17.8 11.2-56 39.3-87.2 64.2l-47.9 12.6s-114.6 2.2-140.3 3.8c-24.6 1.5-103.6 18.7-124 26a402 402 0 0 0-100.6 61c-16 13.8-38.9 40-43.3 58-4.5 18-12.7 97.8-.3 138.1 0 0 53.9 25 114.7 42 60.8 16.9 301.9 59.4 301.9 59.4s143.7 0 155.3-5.8 0-14.5 1.5-27.5c1.4-13.1-2.4-52.8-4-92.3s8.1-98.8 42-137.7c33.7-39 62.2-47.6 108-46.3 45.7 1.2 84.4 50.3 89 72.5 7 34.3 9.4 74.1 6.5 93s-16.6 58.5-16.6 58.5l7.3 4.4s48-7.3 92.9-21.8 181.5-47.9 206.1-53.7c24.7-5.8 98.7-24.7 107.4-30.5a13 13 0 0 0 5.8-14.5s2.7-36.5 7-64c3.3-21 7.5-42.5 17.8-67.2s22.7-53.4 56-54c33.8 2.4 41.2 51.1 42.7 71.5 1.6 20.7-9.6 77.1-9.6 77.1s16.6-10.7 22.4-18a79 79 0 0 0 17.6-51.4c.1-13 .8-79.3-2.1-98.2s-20.3-49-32-56.3-127.1-8.7-127.1-8.7c-33.4.3-52.7 15.3-95.6 1.5 0 0-23.4-5.8-32.2-7.3-8.7-1.4-7.2 2-20.3-6.7s-29-8.6-46.3-5.7-15 19.6-15 19.6l-43.5 1 26.4-47.5s-8-11.2-24-15.6c-16-4.3-60-6.9-124.8-6.6z" style="enable-background:accumulate" transform="translate(186.1 1045.4)"/><use xlink:href="#l" style="color:#000;enable-background:accumulate" transform="matrix(.5343 0 0 .77732 1007 -392.4)"/><use xlink:href="#m" stroke-width="1.5" style="color:#000;enable-background:accumulate" transform="matrix(.5343 0 0 .75618 1020.4 -374.2)"/><use xlink:href="#n" style="color:#000;enable-background:accumulate" transform="matrix(.4956 .07195 -.04841 .75464 1080.3 -408.2)"/><path fill="url(#o)" d="M895.6-983.6s5.8-1.5 14.9 0c9 1.4 43.9 16.3 45.7 18.9S941-953.1 941-953.1s-11.3-2.6-13.1 2.1-9 14.2-9 14.2l-30.6 8z" style="color:#000;enable-background:accumulate" transform="translate(186.1 1045.4)"/><path fill="url(#p)" d="M766.8-977.8 840-979l-13 71.1-97.3 12.7z" style="color:#000;enable-background:accumulate" transform="translate(186.1 1045.4)"/><path fill="#918ea5" d="M823-941.9s-10.9 7.3-19.6 17.4c-8.7 10.2-18.1 24.3-18.1 24.3h31.2z" style="color:#000;enable-background:accumulate" transform="translate(186.1 1045.4)"/><use xlink:href="#l" style="color:#000;enable-background:accumulate" transform="matrix(1.0473 0 0 1.0253 142 -482.9)"/><use xlink:href="#m" stroke-width="1.5" style="color:#000;enable-background:accumulate" transform="matrix(1.0473 0 0 .99742 168.2 -458.9)"/><use xlink:href="#n" style="color:#000;enable-background:accumulate" transform="matrix(.97143 .0949 -.0949 .99538 285.7 -503.7)"/><path fill="#bac5d5" d="M813.5 570.2s10-42.4 13.2-49.7c3.4-7.5 6.2-13 17.7-16.2a71 71 0 0 1 36.4-1.5c11.6 3.2 17.1 8.4 20.3 15.4 7.8 21 13.6 37.7 17.5 59.8.8 6-106.7-6-106.7-6z" style="enable-background:accumulate" transform="translate(186.1 -454.6)"/><path fill="url(#q)" d="M898.7 585.5s-1-53.8-3-60.3-7-19-15.4-23-23-4.4-27.4-3.5c-4.5 1-17.5 3-21.5 7S815 551.1 814 557.1s-6 18-2 22 86.7 8.4 86.7 6.4" style="enable-background:accumulate" transform="translate(186.1 -454.6)"/><path fill="#09080b" d="m574.1-917.4-20.4 1.4 1.4-26.8 91-22.6-10.6 57.2z" style="enable-background:accumulate" transform="translate(186.1 1045.4)"/><path fill="url(#r)" d="M428.5-913.6c2-.5 60.8-16 85.2-20.4 24.5-4.5 47.4-8 47.4-8l.5 28.4L427-911z" style="enable-background:accumulate" transform="translate(186.1 1045.4)"/><path fill="url(#s)" d="m570.6-924 .5-17.4 56.3-8-1.5 4.5s-45.9 4.5-46.9 6.5 38.7 9 38.7 9l-49.1 12z" style="enable-background:accumulate" transform="translate(186.1 1045.4)"/><path d="M305.4-913.9s18.3-6.3 51.5-5c33.2 1.5 59.2-4.1 71.2-2.7s21.2 2.8 70.6-7 237.7-49.5 237.7-49.5l50-52.9s-16.2-10.5-56.4-11.2-159.4 3.5-184 4.2c-24.8.7-74.8 10.6-74.8 10.6L393.6-981l-97.4 69.1 12.7-2z" style="enable-background:accumulate" transform="translate(186.1 1045.4)"/><path fill="#bac5d5" d="M620.4 577.3s9.2-43.7 13-50.4c4-6.7 7.5-12 17.7-15.2s18.7-5 29-1.7c10.2 3.1 15.8 7 18.6 14s5 6 5.3 12.4c.4 6.4 6.7 47.6 7.4 53.6S619 579 619 579z" style="enable-background:accumulate" transform="translate(186.1 -454.6)"/><path fill="url(#t)" d="M698.3 594.5s-1-53.9-2.8-60.3c-1.8-6.5-6.4-19-14.2-23a49 49 0 0 0-25.3-3.5c-4.1 1-16 3-19.8 7-3.6 4-15.1 45.4-16 51.4s-5.5 18-1.9 22 80 8.4 80 6.4" style="enable-background:accumulate" transform="translate(186.1 -454.6)"/><path fill="#2d2e40" d="M296.2-907.5s0-8.5 33.9-12.7 77.6-2.1 97.3-2.1 119.2 3.5 127.7 3.5 21.9-.7 42.3-6.4 24.7-12 45.9-12 40.2 2.9 50 10c10 7 10.6 10.5 5.7 21-5 10.7-8.5 15.6-8.5 15.6l-143.9-4.2-201.7-7.8z" style="enable-background:accumulate" transform="translate(186.1 1045.4)"/><path fill="url(#u)" d="M-135.3-708.9s-9 0-16.7-6.2a35 35 0 0 1-12.7-17c-1.5-5.2-5.2-11.8-5.2-15 0-3 20-30.2 23.1-34.3s7.7-9.3 7.7-9.3l38.5-10.7 17-24.2 30.8 15S20.5-869.8 52.4-877c31.8-7.2 135-24.1 135-24.1l-24.7 9.2 77.5-8 69.5-6.6 28.3-.2 5 6.1h51.7l17.4.5 58.6-7.4L256-856.6l-175.6 69-97.6 41-33.8 38z" style="color:#000;enable-background:accumulate" transform="translate(186.1 1045.4)"/><path fill="#1e1448" d="m117-594.7 81.9-44-88.6-8.9z" style="color:#000;enable-background:accumulate" transform="translate(186.1 1045.4)"/><path fill="url(#v)" d="m401.4-552.3-110.2-6.9-212.2 9-133-18.5S77.3-527.3 161.4-516c84.2 11.3 158.4 13 184 9.9 25.7-3.1 53.6-4.8 53.6-4.8s1.8-2 2.4-12.2 0-30.3 0-29.2" style="color:#000;enable-background:accumulate" transform="translate(186.1 1045.4)"/><path fill="#080c16" d="M-56.6-568.6a4825 4825 0 0 0-103.7-42.7c3.7-10.5-10.8-44.5-11.2-63.5s-2.4-19.5-2.4-19.5l30.6 24.4 32.8 17.4 19.8 38.3 34.8 21.5z" style="color:#000;enable-background:accumulate" transform="translate(186.1 1045.4)"/><path fill="url(#w)" stroke="url(#x)" stroke-width="2" d="M297.5 762.1s30.8-8 48.7-13.4 29-7.7 37.6-8.8 15.1-.4 15.1-.4-1 16-8.8 20.1c-7.9 4-40 8.6-51.4 10.2-11.5 1.5-36.8 5.1-39.3 4.6s-8.3-3.3-6.5-7c1.7-3.6 4.8-5.3 4.6-5.3z" style="color:#000;enable-background:accumulate" transform="translate(186.3 -423.9)"/><path fill="#fbfbfb" d="m403.8 708.2-11-9.5-6.4 13.2 2.7-14.4-14.6 1.1 13.8-4.9-8.2-12 11 9.5 6.4-13.2-2.7 14.4 14.6-1.1-13.8 4.8z" filter="url(#y)" opacity=".8" style="color:#000;enable-background:accumulate" transform="translate(88.4 -516.5)scale(1.2182)"/><path d="M176.6-638s-6 30.6-5.3 34.5c.8 4 1.2 9.6 4.9 10s30.4 1.5 40.4 1.7 46.9-1.3 57.8-2.1c11-.8 17.8-1.2 21.1-3.5 3.3-2.4 7-5.3 4.3-10.8s-11.7-20.1-11.7-20.1-3.5-5.9-10-7.6-29.9-4.1-35.1-4c-5.3.3-67.4 1.8-67.4 1.8z" style="color:#000;enable-background:accumulate" transform="translate(186.1 1045.4)"/><path fill="#73667e" d="M230.5-634.7s-5.1 1.9-5.1 8.5c0 6.7-.8 13 .8 15.7 1.5 2.7 7.8 5.8 12.9 6.6 5 .8 50 2.4 50 2.4l1.1-18.4s-7.4-10.2-12-12.9c-4.8-2.7-4.8-3.1-14.1-3.1s-33.2 2-33.6 1.2" style="color:#000;enable-background:accumulate" transform="translate(186.1 1045.4)"/><path fill="#fff" d="M181-633.4s-8.7 25.6-7.8 31.5c1 5.8-1.5 9.3 6.7 9.7s96.3-1.1 102-2.1c5.6-1 12.2-1 13.6-4.5s2.3-6-.2-12.3a83 83 0 0 0-18.4-22c-3-1.8-22.2-4-33-3.2-10.7.8-62.7 2.5-62.9 3" opacity=".5" style="color:#000;enable-background:accumulate" transform="translate(186.1 1045.4)"/><path fill="#f2f2f2" d="M231.5-634c-.8.1-5.5 5.8-5.5 5.8l-.8 8.2 28.6-1.6-.5 3.7-4 6.3-6.3 3.9-.6-2.2-8.8 2.2-.3 2.1s13.2 3 14.4 3l32.4.2 1.8-6.7 3.1 7.2.8-8 2.5 6.5 2-16.6-2.2 3-5.3.1 5.3-5.7-6.6-6-.2 8.8-3.3 3.9-2.6 10.5-20.5.6 8.2-7.4 1 4.7 9.8-9.6 2.9-3 .6-3.8-4.9-.4-1.4 4.7-3.5 1-2.3 4.2-2 2.2 2.5-9.8 5.1-1.2-.7-3-36.2.5-4.9-1.2zm24.4 11.8h4.9l1 5.4-10.4 11-4.3.6 7-6.9z" style="color:#000;enable-background:accumulate" transform="translate(186.1 1045.4)"/><path fill="url(#z)" d="M-149.9-632.7s-20.7-3-21.7.4c-1.1 3.2-2.2 1.8.7 6.1s1.8 10.5 31.6 20c29.7 9.4 69.7 21 69.7 21l128.4 9.5 8-8.4L-65.3-595z" style="color:#000;enable-background:accumulate" transform="translate(186.1 1045.4)"/><path fill="url(#A)" d="M-161.6-610.6c284 96.7 69.3 24 106.6 36.6l248.3 6.3s106.2-4 120.6 4.3c14.4 8.2 10.8 16.2 10.8 16.2s-103.7-2-137.5 0c-34 2.1-175.5-6.1-192-8.2l-77-9.2s-79.8-44.6-79.8-46" style="color:#000;enable-background:accumulate" transform="translate(186.1 1045.4)"/><path fill="url(#B)" d="M213-633.1h-29l-6.3 38.8 36-7.8z" opacity=".5" style="enable-background:accumulate" transform="translate(186.1 1045.4)"/><path d="m-138.9-670.6 23.7 23.4-.6 5-40.7 13.1 45 26.2 52.3 15.2 111 9 76.2 4 19 1.5-1.5-9.4s-8-4.7-11.7-6.2c-3.6-1.4-12.5 2-9-3 3.7-5.1 8.3-40.2 8.3-40.2l-13.4-10-190.2-10.2z" style="color:#000;enable-background:accumulate" transform="translate(186.1 1045.4)"/><path fill="url(#C)" d="m-172-675 10.3 45.1 7.7 2.4 15.2-7.3 22.7-7.3q.8-2.4.6-5.2l-17.9-17.6-24.7-3.5z" style="color:#000;enable-background:accumulate" transform="translate(186.1 1045.4)"/><path fill="#170e48" d="m260.2-639.6-54.4-3.3h-35.2l-8.1 16.8-14.8 14.8-10.2 5-5.1 17.2 58.8 4 17.8-1.7-34-3.8-4.2-5 3 .8-1.4-7.8-5.1 2.2 4.3-33 8 1 1.5-4 31.4-4.7z" style="color:#000;enable-background:accumulate" transform="translate(186.1 1045.4)"/><path fill="#362c69" d="m170.2-634.9-5 36.3 2.4 5.8 1.9-5 2.5-3.3 4-30.2zm-11.6-5.8s-8.4 2.2-15.6 5.8-12 5-12 5c-2.3 13-5.1 29.6-9 39.6.9 5.4 15 1.3 23.2 8l31.9 1.5 64.2-3.3L265-587l-20.3-1.8 48.2-4.4s7.7-2.5 7.7-5.4-1.8 2.5-7 4-55 4.7-55 4.7-44.6-1.4-49-.7-18.6-5.5-18.6-5.5l-1.4 4s5.8 4 17.7 4 12 2.2 12 2.2l-66-4.4 7.6-16 14.1-6.8 3.7-5.5 11.2-21.7z" style="color:#000;enable-background:accumulate" transform="translate(186.1 1045.4)"/><path fill="#cbc3f4" d="m172-598.6-2.2 3.3 7 4.7s70.9 1.1 71.6 0l49.5-4 2.8-9s-2 6.6-12 8-101.8 2.7-101.8 2.7c-3.3-.2-12.7-.1-14.9-5.7" style="color:#000;enable-background:accumulate" transform="translate(186.1 1045.4)"/><path fill="#030e2c" d="m238-585.5 11.3-2.2-10.9-1.5 18.5-2.5 38.5-2.2 4.7-8 3 3.3-3.4 5.8s37-3.6 47.2-3.6 32-1.5 32-1.5 0 4.4-3 5.1c-2.9.7-48.2 8.4-48.2 8.4L238-570l-4.3-2.2-86.4-.7c-6.5 0-29.7-4.7-29.7-4.7l9-7.3 47.2 2.9z" style="color:#000;enable-background:accumulate" transform="translate(186.1 1045.4)"/><path fill="#9498d9" d="M173.5-583.4s24 1.6 76.9-3.2c55.9-5.1 100.5-5.8 100.5-5.8l-44.6 11.6-71.1 7.2-67.5 1.1 46-5.4 45-3.6s-72.5 1.4-75.4 1-9.8-2.9-9.8-2.9" style="color:#000;enable-background:accumulate" transform="translate(186.1 1045.4)"/><path fill="url(#D)" d="M117.2-878.4c-24 8.7-129.9 46.5-148 60.3l-57.4 43.5 3.6-26.1 25.4-51.6S-38-864 3.3-879c37.4-13.6 146.4-17 192-14.9-49.6 10-62.6 11.3-78 15.6" style="color:#000;enable-background:accumulate" transform="translate(186.1 1045.4)"/><path fill="url(#E)" d="m401.5-903 43.9-41.4s22.4-20 28-24.4c5.4-4.5 29.8-25.5 33.8-31.4s12-11.5 21.5-15.5 27.9-19.5 27.9-19.5-30 .5-44.4 2.5c-14.5 2-44.9 6.5-49.9 9s-51.3 30-51.3 30-55.4 29.9-65.4 39.3c-10 9.5-71.3 54.4-71.3 54.4s26.4-2 54.4-1.5c27.9.5 72.8-.5 72.8-1.5" opacity=".5" style="enable-background:accumulate" transform="translate(186.1 1045.4)"/><path fill="#4d436b" d="M160.6-760.3s-14 9-16 14-.5 10.9 6.5 10.4 63.4-3.5 83.3-5c20-1.5 87.3-12 99.3-18s42.9-35.4 48.3-44.8c5.5-9.5 9-16 9.5-19.5s-5.5-9.7-14-10c-17.4-.5-54.8 5.5-77.7 13.5-14.5 5-76.4 25.4-97.3 36.4-21 11-42.4 23.4-41.9 23" style="enable-background:accumulate" transform="translate(186.1 1045.4)"/><path fill="#0d1023" d="M170-758.4s6-5.4 29.5-15c23.4-9.4 61.8-27.4 79.8-32.3 18-5 39.5-12.8 59.5-17.7 20-5 41.8-5 45-4.5 5.2.8 6.3 4.7 3.4 10.2-3 5.5-10.1 19.4-25.1 33.4-9.3 8.7-28.7 22.6-41.1 26a593 593 0 0 1-95.6 16.4c-12.4.8-62.8 2-67.8 2s-7.2-6.6-2.5-10c5.5-4 15-9 15-8.5" style="enable-background:accumulate" transform="translate(186.1 1045.4)"/><path fill="#7b7ab7" d="m222-780.3-11.5 7.5 25-.5.9 11s-25 4-30 5-34.3 10-36.3 10-7 1.4-5-1 17-12.5 17-12.5 15.4-9.5 21.9-12 16.4-7 18-7.5" style="enable-background:accumulate" transform="translate(186.1 1045.4)"/><path fill="#6d6faa" d="M265.6-794.5s6.7-5.3 11.7-7 8.2-4.2 8-.5c-.3 3.7-11 20.4-11 20.4zm36.9-2.3s10-6.7 15.5-9 11.2-7.2 12.4-4 1.3 12.5-2.2 15.5-14 13.5-16 15-2.5 0-3.2-2.5a76 76 0 0 0-6.3-12c-1-1.2 1.3-3.2 1.3-3.2z" style="enable-background:accumulate" transform="translate(186.1 1045.4)"/><use xlink:href="#F" style="enable-background:accumulate" transform="translate(182.9 -454.1)"/><use xlink:href="#F" style="enable-background:accumulate" transform="translate(219.3 -455.8)"/><use xlink:href="#G" style="enable-background:accumulate" transform="translate(183.9 -456.1)"/><use xlink:href="#G" style="enable-background:accumulate" transform="translate(220 -458.3)"/><path fill="#8982b1" d="M271.9-774.7s-3.8 3.5-2.8 5.7 2.8 2 5.8 2.3 5 1 5 1v2.7s-17.7 3.5-18 2.5c-.2-1 2.5-7.5 4.7-10.4s18.2-20.5 18.2-20.5-.5 4.2-.5 9.7 2.3 12.2 3.3 13.5c1 1.2-1.5 1.7-2.8-.5s-2-17.5-2-17.5z" style="enable-background:accumulate" transform="translate(186.1 1045.4)"/><path fill="#fefaf9" d="M259.4-792.1h6s4.4 4.3 4.6 6.6c.3 2.2 2.1 3.5-.6 6.8s-4.8 6.4-4.8 6.4 1-5.4.2-8.6-4.5-8.8-4.8-9.4c-.3-.7-.3-1.7-.6-1.9m36.5-1.1 5.4.2s4.4 4.3 4.9 6.8.3 4.4-.4 4.8c-.8.4-4.5.9-4.5.9s-.2-4.3-1.7-6.4-3.7-4.5-3.7-4.5z" style="enable-background:accumulate" transform="translate(186.1 1045.4)"/><path fill="#f1f86e" fill-opacity=".4" d="M354-815.5s-12.3 5.8-14.2 10.4c-2 4.6-10 9.6-8.6 13.4 1.4 4 .1 6.7 4.9 6.7s15.7-2.8 16.4-.3.7 9 3 7.7a84 84 0 0 0 12-9.5l1.4-3.5s6.7-4.2 8.1-8.3 3.5-7.4 1.6-10.2c-2-2.8-5.5-7.3-12-8.1-6.5-1-14 2.6-14 2.6z" style="enable-background:accumulate" transform="translate(186.1 1045.4)"/><path fill="#fefaf9" fill-opacity=".6" d="m386.2-827.5-60 32s-25.7 20.2-37.5 28.9l-20.1 14.8c-1.8 1.2-16.4 6.3-16.4 6.3s39.3-7.3 48.1-8.8a110 110 0 0 0 40.6-15c5-3.3 21-12.7 24.3-16.5 3.3-4 15.2-18.4 17.4-23.8 2.3-5.5 6.2-10.8 5.5-14.2s-1.8-3.3-2-3.7" filter="url(#H)" style="enable-background:accumulate" transform="translate(186.1 1045.4)"/><path fill="none" stroke="#000" stroke-linejoin="round" stroke-width="2" d="M-147.4-784s-3.2 2.2 0 7.4 9.5 13 14.5 13.8c5 .7 12 1.7 16.4-1.8a918 918 0 0 0 45.2-44.1c5.7-6.8 14.7-21.7 15-30 .2-8.2.4-10.2-2.6-11.2s-3.2-.2-3.2-.2" style="enable-background:accumulate" transform="translate(186.1 1045.4)"/><path fill="#2d1924" d="M-92 682c-4.7 0-8.5 6-8.5 13.5 0 5.9 2.3 10.8 5.5 12.8l.1-.1q1.3-1.5 2.7-2.7l2.3-1.7 3.3-2.3 2.6-1.8q.5-2 .5-4.2c0-7.5-3.9-13.6-8.5-13.6" style="enable-background:accumulate" transform="translate(186.1 -454.6)"/><path fill="#4f3f5b" d="M-89 689.4c-2.5 0-4.5 3-4.5 6.8s2 6.7 4.6 6.7h.2l2.1-1.4 1-.7a9 9 0 0 0 1.3-4.6c0-3.8-2-6.8-4.6-6.8" style="enable-background:accumulate" transform="translate(186.1 -454.6)"/><path fill="#fefaf9" d="M-88 682.6c.3.1.4 1.1.7 1.8s4 6.3 4.7 9.5q.5 2.2.3 4.7l.8-.7 4-3.8 1-1.1c.1-1.4-.7-2.4-.8-3.8-.3-2.2-4.7-6.6-4.7-6.6z" style="enable-background:accumulate" transform="translate(186.1 -454.6)"/><path fill="#eae57f" d="M-102.8 705.7s-8.1.3-9 3c-.9 2.6-6.7 5.5.2 4.6s10 1 10 1 1-3.3 1-5.8-2-2.6-2.2-2.8" style="enable-background:accumulate" transform="translate(186.1 -454.6)"/><path fill="#f1eea8" d="M-73 662s10.8.5 8 4-7 8.8-12.4 10.4-19.4 4.3-23.6 8.7-18 14.8-23.1 18.8-12.2 7-13.4 11-1.3 7.5 1 10.2 6.7 8.5 2 5.8-10.4-7.2-9.7-10.7c.7-3.6 5.6-13.8 8.2-14.3a99 99 0 0 0 16.6-9.7c2.3-1.8 5.5-5.8 11.5-11.1s12-13.4 16.6-16.4a79 79 0 0 1 14.2-6.2z" style="enable-background:accumulate" transform="translate(186.1 -454.6)"/><path fill="url(#I)" d="M-65.6 651.2s1.6-1.8 3-1c1.4.6 4.2.8 4.2 3.8s1 11.5-.3 13.8-9 11.3-10.8 15.3c-1.7 4-2 4-2 4l-8.2 10.7c-2.6 3.5-14 11.8-21 19.7-7 8-10.2 12.5-16.2 15.9-6 3.3-8.3 4.2-12.4 2.3s-13-2.7-15-8c-1.9-5.3-4.7-7.6-3.3-9.8a200 200 0 0 1 37-38c8.2-6 25.6-18 32.5-21.6s12.2-7.1 12.5-7.1" opacity=".4" style="enable-background:accumulate" transform="translate(186.1 -454.6)"/><path fill-opacity=".7" d="M420-903.5s177.5 1 208.4 1 65.5-1.8 65.5-1.8l70.2-108s-37-6.9-87.8-6.9c-50.9 0-221.4 3-221.4 3l28.4-13.5s139.1-10.6 177-10.6 111.5 5.4 130.2 10.5c-7.5 16.7-8.5 15.6-19.4 35.5s-66.9 100.8-66.9 100.8-17 3-88.7 2c-71.9-1-196.5-10-195.5-12" style="enable-background:accumulate" transform="translate(186.1 1045.4)"/><path fill="url(#J)" d="M291.8-907.8c33-30.5 67.1-57.4 96.9-75.6 14.4-8.8 47.8-33.3 89.1-43.7 26.4-6.6 79-3.9 86.3-9.3 0 0 63.3-2.8 101.2-4s71.8 2.8 98.7 6.4-3 15.6-3 15.6L703.6-951s-59.1 56.6-72 60.4c-13 3.7-324.3-11.7-339.7-17.3" style="enable-background:accumulate" transform="translate(186.1 1045.4)"/><path fill="#dfe2ed" fill-opacity=".7" d="m790.7-1028.8-15.5-5s-12.7 7.1-14.8 13.5c-2.2 6.3-7.1 10.5-11.3 16.9S709.6-966 704.6-959s-24 29.7-29.6 34.6-46.5 33.8-46.5 33.8l45.1.8 31.7-4.3z" style="enable-background:accumulate" transform="translate(186.1 1045.4)"/><path fill="#4a4172" d="M1109.5-892c14.1-1.8 14.1-4.2 25 1.8s22.3 19.4 25.4 31.7 6.7 27.8 6.4 50c-.4 23 .4 10.1 1.2 23.5.5 10.6.2 39.7 4.4 29.1s1-14.8 1.4-29.2c.4-14.5 1.8-36.4 0-45.9s-3-23.9-13.4-39.1c-3-4.5-8-17-22.2-22.3s-19.7-8-30.3-.7c-10.6 7.4 3.2 1.5 2.1 1.1" style="enable-background:accumulate" transform="translate(186.1 1045.4)"/><path fill="url(#K)" d="M1085.7-895c15.5-9.6 17-12 31.4-12s29 7 33 12.4 9.4 15.5 8.4 20-3.5 2-3.5 2-6.5-13-18-18-17.4-9-28.9-3-17.4 11-17.4 11z" style="enable-background:accumulate" transform="translate(186.1 1045.4)"/><path fill="#960406" d="M1215.6 582.3s-10.2 4.9-12 10.5c-1.8 5.7 1 10 2.8 9.2 1.8-.7 15.5-.3 17.7-2.1s4.9-8.5 2.4-11c-2.4-2.4-5.6-6.6-10.9-6.6" style="color:#000;enable-background:accumulate" transform="translate(143.6 -454.1)"/><path fill="#ececec" d="M1205.6 589.5s-2.5 3.2-2.5 5.3.9 0 2.3-1.4c1.2-1 2.7-2.9 2.7-2.9z" style="color:#000;enable-background:accumulate" transform="translate(143.6 -454.1)"/><path fill="#980207" d="M1184 593.3c0 4.5-3.2 8-7 8-4 0-7.1-3.5-7.1-8s3.2-8.1 7-8.1c4 0 7.1 3.6 7.1 8" filter="url(#L)" style="color:#000;enable-background:accumulate" transform="matrix(1.2091 0 0 1.3221 -60.4 -646.6)"/><path fill="#9b93a7" d="m808.8-1021.5-9-6.8-41.5 68.7-6.6 58.3 15.1-1.5 11.5-66.8z" style="color:#000;enable-background:accumulate" transform="translate(186.1 1045.4)"/><path fill="#afadc3" d="m790.5-1029.8-87.8 135.7 27-4.4 42-71.8 32.1-55z" style="color:#000;enable-background:accumulate" transform="translate(186.1 1045.4)"/><path fill="#958fa9" stroke="#000" stroke-width=".2" d="m770.1-966-45.9 71.4 36.4-3.1z" style="color:#000;enable-background:accumulate" transform="translate(186.1 1045.4)"/><path fill="#7d6e91" stroke="#000" stroke-linejoin="round" stroke-width=".2" d="m816.5-909.2-49 2.5-.7 4-63.2 7.3-34 4.3 56.5-1.8 88.6-12z" style="color:#000;enable-background:accumulate" transform="translate(186.1 1045.4)"/><path fill="none" stroke="#000" stroke-linejoin="round" stroke-width=".8" d="m727.2-896.9 2.2 3.6 4.4 9.5 2.9 4.3 16.6 59.5-5 24 2.9 16-5.1 77.6 11.6 22.5-2.2 30.5 241.7-67.5 47.2-12.3" style="color:#000;enable-background:accumulate" transform="translate(186.1 1045.4)"/><path fill="none" stroke="#000" stroke-linejoin="round" stroke-width=".8" d="M996.5-716.9s26.1-55.2 32.6-95" style="color:#000;enable-background:accumulate" transform="translate(186.1 1045.4)"/><path fill="none" stroke="#b9b9b9" stroke-linejoin="round" stroke-width=".8" d="M1027-806.2s8-26.8 4.4-55.1" style="color:#000;enable-background:accumulate" transform="translate(186.1 1045.4)"/><path fill="none" stroke="#050505" stroke-linejoin="round" stroke-width=".8" d="m1024.8-940.8 19.6-5.4s2.2-.8 4.4 0c2.1.7 6.1 5.4 7.6 11.6 1.4 6.1 5.4 21.4 5 25-.3 3.6-8.7 7.6-12 8.4-3.2.7-11.5.7-11.5.7s-13.1-35.2-14.2-37.4 2.6-4.4 1.1-2.9z" style="color:#000;enable-background:accumulate" transform="translate(186.1 1045.4)"/><path fill="#8b8dc2" d="M1019.7-939.8s12.8 28.7 13 31.8c.3 3.1 1.4 7.7-.4 9.3s-8.5.7-8.5.7-3.3-15.9-6.2-22c-2.8-6.2-7.1-16.5-7.1-16.5z" style="color:#000;enable-background:accumulate" transform="translate(186.1 1045.4)"/><path fill="#21213b" d="m1010-937.5 3 7.5s6.8-6.2 6.8-7.7-.3-2.6-.3-2.6z" style="color:#000;enable-background:accumulate" transform="translate(186.1 1045.4)"/><path fill="none" stroke="#050505" stroke-width=".8" d="M999.7-945.4c0-1.2 8.5 4.3 9.8 7.4" style="color:#000;enable-background:accumulate" transform="translate(186.1 1045.4)"/><path fill="none" stroke="#050505" stroke-linejoin="round" stroke-width=".8" d="M1009.2-935.7s-3.3 0-2.3 3 4.6 8.8 6.1 14.2c1.6 5.4 4.2 15.1 5.7 17.2s3.6 4.1 4.6 4.1" style="color:#000;enable-background:accumulate" transform="translate(186.1 1045.4)"/><path fill="none" stroke="#f1f1f1" stroke-linejoin="round" stroke-width=".8" d="M965.3-950s-4.6 2.2 7.5 2.8l27.4 1.2" style="color:#000;enable-background:accumulate" transform="translate(186.1 1045.4)"/><path fill="url(#M)" d="M794.9 608s-4.5 2.5-5.8 4.3-6.7 3.2-6.7 3.2-4.5 6.2-4.9 10c-.3 3.9-4.1 16.9-1.9 19s3.5 4.2 3.5 4.2l26.6-25.7s-7.1-4.1-9.3-7-2.2-7.5-2.2-7.5z" style="color:#000;enable-background:accumulate" transform="translate(186.1 -454.6)"/><path fill="#021046" d="M784.4 627.6s3.9-1 8-2.6l10.2-3.8s6.2 4.3 10.8 3.8 7.2-1.5 7.2-1.5 2.3 4.3-.3 8.2-5 11-8 13.3q-4 3.2-12 4.1c-5.4.8-15.9.5-18.2.3s-5.1-.8-4-3.6 6.8-18 6.3-18.2" style="color:#000;enable-background:accumulate" transform="translate(186.1 -454.6)"/><path fill="none" stroke="#000" stroke-linejoin="round" stroke-width=".8" d="M789 612.3s-2.6 2-1.4 6.4c1.8 6.4 6.1 5.8 6 6.2" style="color:#000;enable-background:accumulate" transform="translate(186.1 -454.6)"/><path fill="#756f8b" d="M910.1-928.8s40.9-12.7 49.2-17.8c6.2-3.8 26.6-9.2 34.5-18.3 5.1-6-30.5-11-30.5-11l-23.6-1.1s26.1 2.6 31.8 4.4 11.3 2.3 10 6.1c-1.7 5.2-27.5 16.7-27.5 16.7l-49.2 17.2z" style="color:#000;enable-background:accumulate" transform="translate(186.1 1045.4)"/><path fill="#0f0f31" d="M794.3-890.4s1 5 3 7.3 4.4 7.5 14.1 8c9.8.6 11.2-3 11.2-3 1.9-2.1 12.4-18 17-22.4s4.7-6.6 11.9-6.9c7.2-.2 10.7.8 26.9 0s23.3-1.3 29-4.1 12.5-9.3 11.8-18.8c-.8-9.4-4.2-14.8-11.3-18a82 82 0 0 0-26.7-3.2c-6.4 0-25.7-1.3-35.2 2.8a50 50 0 0 0-22.6 19 190 190 0 0 1-18 25.6c-4.3 5.2-10.7 11.3-10.4 11z" style="color:#000;enable-background:accumulate" transform="translate(186.1 1045.4)"/><path fill="#888bc2" d="m1009.7-593 14.5-15.3 8 2.5s-1.8-1.8-5 2.2-11.7 14.1-12 16.3l-.4 3z" style="color:#000;enable-background:accumulate" transform="translate(186.1 1045.4)"/><path fill="url(#N)" d="M918.5-979.6s9.4 16.7 16 18.5 11.2-.4 10-4c-1-3.6-10.8-8.4-14.4-10.2-3.7-1.8-12-4.3-11.6-4.3" style="color:#000;enable-background:accumulate" transform="translate(186.1 1045.4)"/><path fill="none" stroke="#000" stroke-width="1.5" d="m707.7-895.7 85.2-135s-18.5-8.1-25.7-7.6-83.6-5.7-93.4-5.7c-9.7 0-162.1 6.7-162.1 6.7" style="color:#000;enable-background:accumulate" transform="translate(186.1 1045.4)"/><path d="m449.3-573 1.8-1.7c1.5 1.1 18.6 23.7 24 27.6 10.3 7.4 12.1 9.5 27.6 12.9 15.8 3.5 21.5.5 21.5.5s2.9-1.5 2-6.9-14.8-69.3-14.8-69.3 2.1 5.8 5.8 7q7.3 2 9.6-4.6c2.3-6.6 2-7.8 2-7.8l.7-2.6s9.4 76.6 10.5 78 4.4 0 7.7-1.8a136 136 0 0 0 32.6-33c7.6-12.7 15.4-31 15.4-35.2 0-2.5-1.2-6.2-1.2-6.2l13.2-4.1c.5-.2-7.6 31-22 52.4-12.2 18.2-36.5 40.8-61.8 42.3-25 1.5-42.3-10-51.3-16.9-8.3-6.5-23.8-28.8-23.3-30.6m87.2-77.7 21.8 7.1s-6.7 0-8 1.8-4.2 5.1-4.2 7.5 1 4.9-1.8 6.9-11.2 2.3-11.2 2.3l73.3 4.2 2.5-12.2 1-4.1-1.3-17.5-7.3.6-1 13s3.9 1 3.9 2.6-.5 3.3-.5 3.3l-67.2-17.1zm-46.1 30.3-1 7-13.1 7-10.2 8.9-3.8 6.3-3.8 5.8 48.5-31.5 5 2.9 1.5-2.2-7.5-3.4-5.6 5-6.2-.3zm-9.8-34.3-2 18 12-5.3 4.6 1-44.7 44 4-.1 42.7-42.5 1.6-3.6-7.6-2.2zm21.6 7.1-2.1 10 14.8-1.1-4.3-4.9 10-.4.3 3.8 2.2-.5-.5-4.9 6.7-2.4.5 3.1 5.5-2.7-3.1-7.4h-5.7l-6.9-6.7-6.8.1-.2 7.3-5.3 6.5z" style="color:#000;enable-background:accumulate" transform="translate(186.1 1045.4)"/><path fill="#1f1f1f" d="m521.7-744.3-.4 4.4-3.5 2.1s16.2 7 16.4 6.2 3.4-4 3.4-4l-1.4-8.2s-4.6-1.4-8.2-1.4-6.3-.4-6.3-.4z" style="color:#000;enable-background:accumulate" transform="translate(186.1 1045.4)"/><path fill="#0f0e10" d="m472.8-719.6 4 6.9s2.2-2.4 13-4.6c10.6-2.1 8-6 21.1-1.8s19.6 5.8 19.6 5.8l6.6-2.9 2-14.3-5.8-1.8s-7.3-3.8-13.8-4.4c-6.6-.5-16.7 1-16.7 1v-1.9s8.8-.6 10.5-3.5c1.6-3-1.5-3.3-1.5-3.3s-15.7 4.1-22.4 9.2a152 152 0 0 0-16.6 15.6" style="color:#000;enable-background:accumulate" transform="translate(186.1 1045.4)"/><path fill="#786d7c" d="M477.3-713s21.3 30.4 22.6 30c1.2-.6 18-4.2 18-4.2s-.2 10.3.7 9.4 6.1-12 6.1-12l7.4-22.4s-5.8-4.7-17.4-7.6-19-2.3-26.4 1c-7.4 3.1-11.3 6-11 5.7" style="color:#000;enable-background:accumulate" transform="translate(186.1 1045.4)"/><path fill="#866d80" d="M511.7-744.5s3 1.7-2.4 4.2-7.2 3-7.2 3l.5 1.7s10.5-1.6 15.8-.2l15.6 5-.6-2.8-13.8-5 3-1.9.1-5z" style="color:#000;enable-background:accumulate" transform="translate(186.1 1045.4)"/><path fill="#1f2521" d="m559.6-714.7-20.4 47.9 4.4 13-4 1.9.4.3 42.4 9-1-2-2.2-1.5.7-3 1.8-.3-1-2.9s-2.3-25-8-38.5-12-23.2-13.1-24" style="color:#000;enable-background:accumulate" transform="translate(186.1 1045.4)"/><path fill="#120e11" d="m536.7-620 43.2 1.8-.4 3.3h-2.2l-.7 3.6 2.6 1s-12.7 25.5-16.4 32a69 69 0 0 1-15.6 18.5c-4 2.6-7.2 2.6-7.2 2.6l-8-59.5zM454-576.1l36.6-27.2 17 12.3 2.6-4 8.8 39-4.3 9.8s-21.4 1.8-29.8-.8a69 69 0 0 1-24.3-16c-3.6-4.3-7.3-11.5-6.5-13m3.1-123.5 4.4-.7 24.7 41.7-7.3.8-2.9 26-25.6 21-8.9 5.6s-3.6-28.3-.7-48c2.9-19.5 16.3-46 16.3-46.4" style="color:#000;enable-background:accumulate" transform="translate(186.1 1045.4)"/><path fill="url(#O)" d="M456.7-695.1s-10.4 19.7-12.5 32c-2.2 12.3-5 22.3-3.2 34.3s4.4 21.8 4.4 21.8l12.9-8.6c7-4.7 8.7-8.2 8.7-8.2s-1.3-15.9-.4-25.4c1-9.3 7.6-21.1 7.6-21.1L462.6-691z" style="color:#000;enable-background:accumulate" transform="translate(186.1 1045.4)"/><path d="m652.4 354.5-5.2 1.5"/><path fill="#48383f" d="m466.5-691.4-5.7 1.3 15.7 22.8s-6.7 3-8.5 16.7-.2 24.4 0 24.9 7.2-6 7.2-6l2-3 2.4-23.9 3.3.5 3.6-1.2z" style="color:#000;enable-background:accumulate" transform="translate(186.1 1045.4)"/><path d="m642.6 351.7-2.3 37"/><path fill="#554446" d="m485.7-597.7-5.6 3s4.4 5.7 13 6.7c8.8 1 14.2-.8 14.2-.8l-1.5-3.8-2.9-2s-3.6 3.8-17.2-3.2" style="color:#000;enable-background:accumulate" transform="translate(186.1 1045.4)"/><path fill="url(#P)" d="m459.8-581.3 20.5-15.2c-1 0 5.6 7.2 12.9 8.2 4 .6 14-1.2 14-1.2l7.3 24c2 .6-18.2 4.2-27.7 3.2-12.7-1.4-31.2-16.9-27-19" style="color:#000;enable-background:accumulate" transform="translate(186.1 1045.4)"/><use xlink:href="#Q" style="color:#000;enable-background:accumulate" transform="translate(195.7 -478)"/><use xlink:href="#R" style="color:#000;enable-background:accumulate" transform="translate(196.7 -477.4)"/><use xlink:href="#Q" style="color:#000;enable-background:accumulate" transform="translate(193.1 -485.2)"/><use xlink:href="#R" style="color:#000;enable-background:accumulate" transform="translate(194.1 -484.6)"/><use xlink:href="#Q" style="color:#000;enable-background:accumulate" transform="translate(201.5 -495.4)"/><use xlink:href="#R" style="color:#000;enable-background:accumulate" transform="translate(202.5 -494.8)"/><use xlink:href="#Q" style="color:#000;enable-background:accumulate" transform="translate(202.2 -487)"/><use xlink:href="#R" style="color:#000;enable-background:accumulate" transform="translate(203.2 -486.3)"/><use xlink:href="#Q" style="color:#000;enable-background:accumulate" transform="translate(203.6 -480.7)"/><use xlink:href="#R" style="color:#000;enable-background:accumulate" transform="translate(204.6 -480.1)"/><use xlink:href="#Q" style="color:#000;enable-background:accumulate" transform="translate(229.2 -511.2)"/><use xlink:href="#R" style="color:#000;enable-background:accumulate" transform="translate(230.2 -510.6)"/><use xlink:href="#Q" style="color:#000;enable-background:accumulate" transform="translate(231.2 -518.6)"/><use xlink:href="#R" style="color:#000;enable-background:accumulate" transform="translate(232.2 -518)"/><use xlink:href="#Q" style="color:#000;enable-background:accumulate" transform="translate(236.5 -506.8)"/><use xlink:href="#R" style="color:#000;enable-background:accumulate" transform="translate(237.5 -506.2)"/><use xlink:href="#Q" style="color:#000;enable-background:accumulate" transform="translate(239.8 -513)"/><use xlink:href="#R" style="color:#000;enable-background:accumulate" transform="translate(240.8 -512.4)"/><use xlink:href="#Q" style="color:#000;enable-background:accumulate" transform="translate(242.3 -518.4)"/><use xlink:href="#R" style="color:#000;enable-background:accumulate" transform="translate(243.3 -517.8)"/><use xlink:href="#Q" style="color:#000;enable-background:accumulate" transform="translate(247.4 -510.6)"/><use xlink:href="#R" style="color:#000;enable-background:accumulate" transform="translate(248.4 -510)"/><use xlink:href="#Q" style="color:#000;enable-background:accumulate" transform="translate(250.5 -516)"/><use xlink:href="#R" style="color:#000;enable-background:accumulate" transform="translate(251.5 -515.3)"/><use xlink:href="#Q" style="color:#000;enable-background:accumulate" transform="translate(255.2 -520.2)"/><use xlink:href="#R" style="color:#000;enable-background:accumulate" transform="translate(256.2 -519.6)"/><use xlink:href="#Q" style="color:#000;enable-background:accumulate" transform="translate(255 -506)"/><use xlink:href="#R" style="color:#000;enable-background:accumulate" transform="translate(256 -505.3)"/><use xlink:href="#Q" style="color:#000;enable-background:accumulate" transform="translate(259.4 -510.1)"/><use xlink:href="#R" style="color:#000;enable-background:accumulate" transform="translate(260.3 -509.5)"/><use xlink:href="#Q" style="color:#000;enable-background:accumulate" transform="translate(263.5 -513.2)"/><use xlink:href="#R" style="color:#000;enable-background:accumulate" transform="translate(264.5 -512.6)"/><use xlink:href="#Q" style="color:#000;enable-background:accumulate" transform="translate(197.6 -472)"/><use xlink:href="#R" style="color:#000;enable-background:accumulate" transform="translate(198.6 -471.4)"/><use xlink:href="#Q" style="color:#000;enable-background:accumulate" transform="translate(190.4 -468.8)"/><use xlink:href="#R" style="color:#000;enable-background:accumulate" transform="translate(191.4 -468.2)"/><use xlink:href="#Q" style="color:#000;enable-background:accumulate" transform="translate(193.3 -463.2)"/><use xlink:href="#R" style="color:#000;enable-background:accumulate" transform="translate(194.3 -462.6)"/><use xlink:href="#Q" style="color:#000;enable-background:accumulate" transform="translate(199.5 -458.1)"/><use xlink:href="#R" style="color:#000;enable-background:accumulate" transform="translate(200.5 -457.5)"/><use xlink:href="#Q" style="color:#000;enable-background:accumulate" transform="translate(185.8 -455.1)"/><use xlink:href="#R" style="color:#000;enable-background:accumulate" transform="translate(186.8 -454.5)"/><use xlink:href="#Q" style="color:#000;enable-background:accumulate" transform="translate(190.2 -449.5)"/><use xlink:href="#R" style="color:#000;enable-background:accumulate" transform="translate(191.2 -449)"/><use xlink:href="#Q" style="color:#000;enable-background:accumulate" transform="translate(194.2 -446.1)"/><use xlink:href="#R" style="color:#000;enable-background:accumulate" transform="translate(195.2 -445.5)"/><use xlink:href="#Q" style="color:#000;enable-background:accumulate" transform="translate(184 -440.6)"/><use xlink:href="#R" style="color:#000;enable-background:accumulate" transform="translate(185 -440)"/><use xlink:href="#Q" style="color:#000;enable-background:accumulate" transform="translate(188.3 -436.3)"/><use xlink:href="#R" style="color:#000;enable-background:accumulate" transform="translate(189.3 -435.7)"/><use xlink:href="#Q" style="color:#000;enable-background:accumulate" transform="translate(193.7 -433.4)"/><use xlink:href="#R" style="color:#000;enable-background:accumulate" transform="translate(194.7 -432.8)"/><use xlink:href="#Q" style="color:#000;enable-background:accumulate" transform="translate(188.2 -425.5)"/><use xlink:href="#R" style="color:#000;enable-background:accumulate" transform="translate(189.2 -425)"/><use xlink:href="#Q" style="color:#000;enable-background:accumulate" transform="translate(193.7 -423.2)"/><use xlink:href="#R" style="color:#000;enable-background:accumulate" transform="translate(194.7 -422.6)"/><use xlink:href="#Q" style="color:#000;enable-background:accumulate" transform="translate(205 -390.3)"/><use xlink:href="#R" style="color:#000;enable-background:accumulate" transform="translate(206 -389.7)"/><use xlink:href="#Q" style="color:#000;enable-background:accumulate" transform="translate(211.2 -393.7)"/><use xlink:href="#R" style="color:#000;enable-background:accumulate" transform="translate(212.2 -393.1)"/><use xlink:href="#Q" style="color:#000;enable-background:accumulate" transform="translate(216.2 -396.4)"/><use xlink:href="#R" style="color:#000;enable-background:accumulate" transform="translate(217.2 -395.8)"/><use xlink:href="#Q" style="color:#000;enable-background:accumulate" transform="translate(214.5 -381.7)"/><use xlink:href="#R" style="color:#000;enable-background:accumulate" transform="translate(215.5 -381.1)"/><use xlink:href="#Q" style="color:#000;enable-background:accumulate" transform="translate(219.5 -385.7)"/><use xlink:href="#R" style="color:#000;enable-background:accumulate" transform="translate(220.5 -385.1)"/><use xlink:href="#Q" style="color:#000;enable-background:accumulate" transform="translate(224.2 -390.2)"/><use xlink:href="#R" style="color:#000;enable-background:accumulate" transform="translate(225.1 -389.6)"/><use xlink:href="#Q" style="color:#000;enable-background:accumulate" transform="translate(224.4 -376)"/><use xlink:href="#R" style="color:#000;enable-background:accumulate" transform="translate(225.4 -375.3)"/><use xlink:href="#Q" style="color:#000;enable-background:accumulate" transform="translate(229.7 -380.7)"/><use xlink:href="#R" style="color:#000;enable-background:accumulate" transform="translate(230.7 -380.1)"/><use xlink:href="#Q" style="color:#000;enable-background:accumulate" transform="translate(233.4 -386.6)"/><use xlink:href="#R" style="color:#000;enable-background:accumulate" transform="translate(234.4 -386)"/><use xlink:href="#Q" style="color:#000;enable-background:accumulate" transform="translate(236.8 -378)"/><use xlink:href="#R" style="color:#000;enable-background:accumulate" transform="translate(237.8 -377.4)"/><use xlink:href="#Q" style="color:#000;enable-background:accumulate" transform="translate(240.3 -383.3)"/><use xlink:href="#R" style="color:#000;enable-background:accumulate" transform="translate(241.3 -382.7)"/><use xlink:href="#Q" style="color:#000;enable-background:accumulate" transform="translate(242.5 -390)"/><use xlink:href="#R" style="color:#000;enable-background:accumulate" transform="translate(243.5 -389.3)"/><use xlink:href="#Q" style="color:#000;enable-background:accumulate" transform="translate(247 -376.6)"/><use xlink:href="#R" style="color:#000;enable-background:accumulate" transform="translate(248 -376)"/><use xlink:href="#Q" style="color:#000;enable-background:accumulate" transform="translate(249.8 -383.8)"/><use xlink:href="#R" style="color:#000;enable-background:accumulate" transform="translate(250.8 -383.2)"/><path fill="#432f38" d="m491.9-694.4 7.6 10.2 18.2-4.2.5 9.6 6.9-12.7s-5-5.4-16-5.4-16.8 2.5-17.2 2.5m60.1-2.9s3.2-1 5.8 2a67 67 0 0 1 5.8 15.4l1.6 32.1-20.7-5.4-.5-23.6z" style="color:#000;enable-background:accumulate" transform="translate(186.1 1045.4)"/><path fill="#291f27" d="m554.3-685.3-7 6 .5 26.3 21 5.8-1.4-35.2-9 1.6z" style="color:#000;enable-background:accumulate" transform="translate(186.1 1045.4)"/><path fill="#463548" d="m549.4-675.9 2.7.6s8.4-3.3 10.7-5.1 5.7-3.8 5.7-3.8l-7.1-.8s-3.5 4.8-5.6 6.4-6.6 3-6.4 2.7" style="color:#000;enable-background:accumulate" transform="translate(186.1 1045.4)"/><path fill="#493c50" d="m558.1-668 9 .6 3.5 11.8-6 6-9.8-1.6z" style="color:#000;enable-background:accumulate" transform="translate(186.1 1045.4)"/><path fill="#735f74" d="m551.4-676.2-.2 7.8 9.6.1s6 1.7 5.7 7.1c-.4 5.5-2 10.2-5.7 10.5-3.6.4-6.9.4-6.9.4l22 4.9s1-15-1.3-22.9-3-13-4.5-14.8-3.8-3.5-5.6-.4-4.8 4.7-8.4 6-4.7 2-4.7 1.3m22.3 56.9s-4.7 16.9-6 18.3-3.8 2.6-4.5.8a100 100 0 0 0-14.5-10.4l1.3-6.1 12.5.5 1.6-3.3z" style="color:#000;enable-background:accumulate" transform="translate(186.1 1045.4)"/><path fill="#524853" d="M536.9-614.4 533-610l3.8 29.2 6.7-8-1.8-5.6-3.1-.7-1.4-9.5 3.4-1.3z" style="color:#000;enable-background:accumulate" transform="translate(186.1 1045.4)"/><path fill="#150b13" d="M541.6-618.7h28.7s-8.4 20-9.5 23-10.1 9.8-10.1 9.8l-4.2-.4s-3.4-.7-4.4-3.8c-.9-3-4.7-9-4-11.4s3.7-16.9 3.5-17.2" style="color:#000;enable-background:accumulate" transform="translate(186.1 1045.4)"/><path fill="#403543" d="M544.5-620.4s-4 14-1.6 17.4c2.3 3.5 3.6 4.4 3.6 4.4l-2.5 6.4 7.2-2-2.2 4.7s6 .9 7.3-1.3 9.8-13.6 9.8-13.6h-18.3l-1-15.8z" style="color:#000;enable-background:accumulate" transform="translate(186.1 1045.4)"/><path fill="url(#S)" d="M1105.8-842.7a35 35 0 0 0-15.4 13.9c-2.6 4.6-16.2 56.2-15.1 64.6 1 8.5 4.3 46 7.7 54 3.3 7.9 10.2 18.1 13.6 19.2 3.3 1 5.6.7 9.5-3.6 3.8-4.4 16.1-14.7 20.5-30.6s7.2-44.1 4.6-57.4-10.3-42.4-14.4-48.8-5.9-11-7.7-10.8c-1.8.3-3.3-.7-3.3-.5" style="color:#000;enable-background:accumulate" transform="translate(186.1 1045.4)"/><path fill="#3f2426" d="m1151.1-743.3-6 2s-1.5 19.5-6.2 30.2a53 53 0 0 1-11.1 18.4l-6.5 6.2.6 5s12.3-8.2 17.8-21a126 126 0 0 0 10-29.3c1.2-8.3 1-11.3 1.4-11.5m-59.5 50.1s1.7 4.6 7 8.3a36 36 0 0 0 9.6 5l-.5-4.9s-9.1-1.2-16.1-8.4" style="color:#000;enable-background:accumulate" transform="translate(186.1 1045.4)"/><path fill="url(#T)" d="M1090.3 679.3c-3.2 0-4.4 4.8-7.2 7.3-6 13.7-5.6 27.1-5.6 46.2 0 21-.5 37.4 6.8 51.7-2.8 1.5 3.5 6 6 6 13.5 0 24.4-25 24.4-55.6s-11-55.6-24.4-55.6" style="color:#000;enable-background:accumulate" transform="translate(186.1 -454.6)"/><use xlink:href="#Q" style="color:#000;enable-background:accumulate" transform="matrix(.60359 0 0 .75448 1002 -316)"/><use xlink:href="#R" style="color:#000;enable-background:accumulate" transform="matrix(.60359 0 0 .75448 1002.6 -315.6)"/><use xlink:href="#Q" style="color:#000;enable-background:accumulate" transform="matrix(.60359 0 0 .75448 1005.1 -314.4)"/><use xlink:href="#R" style="color:#000;enable-background:accumulate" transform="matrix(.60359 0 0 .75448 1005.7 -314)"/><use xlink:href="#Q" style="color:#000;enable-background:accumulate" transform="matrix(.60359 0 0 .75448 1007.3 -317.5)"/><use xlink:href="#R" style="color:#000;enable-background:accumulate" transform="matrix(.60359 0 0 .75448 1007.9 -317)"/><use xlink:href="#Q" style="color:#000;enable-background:accumulate" transform="matrix(.60359 0 0 .75448 1008.4 -313.7)"/><use xlink:href="#R" style="color:#000;enable-background:accumulate" transform="matrix(.60359 0 0 .75448 1009 -313.2)"/><use xlink:href="#Q" style="color:#000;enable-background:accumulate" transform="matrix(.60359 0 0 .75448 1011.5 -317)"/><use xlink:href="#R" style="color:#000;enable-background:accumulate" transform="matrix(.60359 0 0 .75448 1012 -316.5)"/><use xlink:href="#Q" style="color:#000;enable-background:accumulate" transform="matrix(.60359 0 0 .75448 1015.3 -321.7)"/><use xlink:href="#R" style="color:#000;enable-background:accumulate" transform="matrix(.60359 0 0 .75448 1015.9 -321.2)"/><use xlink:href="#Q" style="color:#000;enable-background:accumulate" transform="matrix(.60359 0 0 .75448 1017.4 -405.9)"/><use xlink:href="#R" style="color:#000;enable-background:accumulate" transform="matrix(.60359 0 0 .75448 1018 -405.4)"/><use xlink:href="#Q" style="color:#000;enable-background:accumulate" transform="matrix(.60359 0 0 .75448 1015 -410.4)"/><use xlink:href="#R" style="color:#000;enable-background:accumulate" transform="matrix(.60359 0 0 .75448 1015.5 -410)"/><use xlink:href="#Q" style="color:#000;enable-background:accumulate" transform="matrix(.60359 0 0 .75448 1019.8 -400)"/><use xlink:href="#R" style="color:#000;enable-background:accumulate" transform="matrix(.60359 0 0 .75448 1020.4 -399.6)"/><path fill="#c3c1cf" d="m1150.3-757.1-33.6-18.1s6.5-25.7 9-33.4c2.6-7.7 10.3-28.3 10.3-28.3l-4.5-5.4s-20.3 52.2-21.7 53.5-4.2 1.8-4.6.4l-14.8-43.3-6.1 14s8.6 33 9.9 36.2c1.2 3.2 5.3 11.7 5.3 11.7L1079-736l1.1 12 20.2-25.2 5.2-1.4 10.6 69.7 6-2.5s-3-19.6-4.8-35.2a641 641 0 0 1-2.3-35l37.1 6z" style="color:#000;enable-background:accumulate" transform="translate(186.1 1045.4)"/><path fill="#100e0f" d="m1153.2-776.8-5.4.6-.2 4.3-14 .6-.5 5 12.1 2.6 5.5 7.3-18.5-9.1-.6 1.4 11 6.2-.6 9.3 9.4 2s2.3-7.9 1.8-12.8 0-17 0-17.4" style="color:#000;enable-background:accumulate" transform="translate(186.1 1045.4)"/><path fill="#fefdfd" d="m1088.2-780.7-2.3 17.4-1.8 7.2-8 15.4 1.6 5.2 22.3-30.8-14.9-53.4-7 23.6 7-5.6 3.6 22z" style="color:#000;enable-background:accumulate" transform="translate(186.1 1045.4)"/><path fill="#2d1b19" d="M1082.3-812.3s7.7 25 7 29-1.4 3.1-1.4 4.4 1-3 2.9-2 4 1.2 4 1.2l-9.7-34.4zm7.6 34.8-1 12.5s2.5-2.2 5.7-2.9 5.8-.3 5.8-.3zm12.2 6.2-1 7.4 7.9-.5-2.7-3.3 7-.7 2.2-2.6-6.9-10.5-2 9.4z" style="color:#000;enable-background:accumulate" transform="translate(186.1 1045.4)"/><path fill="#fefdfd" d="M1112.1-843.3s.8 3.3-.8 5.1-2 4.1-2 4.1l2.8 3.6 5.4.5-4.6 17.2-4.1 16.2-2-2.8-6 2.5 6.2 12 23.8-56.4-6.4 2.9z" style="color:#000;enable-background:accumulate" transform="translate(186.1 1045.4)"/><path fill="#2d1b19" d="M1112.4-812.7s-8 12.3-9 13.6c-1.2 1.3 4.3-.5 4.3-.5l.9 4.7 4.9-17.6zm-23.2 79.8-3 4.2s10.8-1 11.2-2.9-4.4.4-8.2-1.3" style="color:#000;enable-background:accumulate" transform="translate(186.1 1045.4)"/><path fill="#2d1b19" d="m1094.1-737.8-.7 1.3 6.1 6.9 5.1 24.7-1-28.1-2.2 2zm-6.9-25.4 1 6.2-10.4 16.9.9 1 11.4-18.4zm38.6-73.4 6-5.1-22.7 55.9-.5-1.5 19.2-48.8zm-8.8 62.9 29.8 16.5-1.9 1-28.6-16z" style="color:#000;enable-background:accumulate" transform="translate(186.1 1045.4)"/><path fill="#fefdfd" d="m1114.7-753 37.5 7.7-.6 3.3-6.6 1.3-13.1-1 4.9-3.3-22.4-5.7zm-20.3 13.9 8 8.4 1.8-2 2 37.2-6.7 2.6 1.6 4s4.3 4.4 8 3.7c3.5-.8 4-5.7 4-5.7l-8.2-57.5-1.5-1.5z" style="color:#000;enable-background:accumulate" transform="translate(186.1 1045.4)"/><use xlink:href="#U" style="color:#000;enable-background:accumulate" transform="translate(186.1 -454.6)"/><use xlink:href="#V" style="color:#000;enable-background:accumulate" transform="matrix(.9273 0 0 1.0645 265.3 -504.3)"/><use xlink:href="#W" style="color:#000;enable-background:accumulate" transform="translate(185.8 -455.3)"/><use xlink:href="#X" style="color:#000;enable-background:accumulate" transform="translate(185.6 -454.8)"/><use xlink:href="#U" style="color:#000;enable-background:accumulate" transform="translate(195.8 -441.9)"/><use xlink:href="#V" style="color:#000;enable-background:accumulate" transform="matrix(.9273 0 0 1.0645 275 -491.6)"/><use xlink:href="#W" style="color:#000;enable-background:accumulate" transform="translate(195.4 -442.6)"/><use xlink:href="#X" style="color:#000;enable-background:accumulate" transform="translate(195.2 -442)"/><use xlink:href="#U" style="color:#000;enable-background:accumulate" transform="translate(205 -460.7)"/><use xlink:href="#V" style="color:#000;enable-background:accumulate" transform="matrix(.9273 0 0 1.0645 284.2 -510.4)"/><use xlink:href="#W" style="color:#000;enable-background:accumulate" transform="translate(204.6 -461.4)"/><use xlink:href="#X" style="color:#000;enable-background:accumulate" transform="translate(204.5 -460.9)"/><use xlink:href="#U" style="color:#000;enable-background:accumulate" transform="translate(199.4 -482.7)"/><use xlink:href="#V" style="color:#000;enable-background:accumulate" transform="matrix(.9273 0 0 1.0645 278.6 -532.4)"/><use xlink:href="#W" style="color:#000;enable-background:accumulate" transform="translate(199 -483.4)"/><use xlink:href="#X" style="color:#000;enable-background:accumulate" transform="translate(198.8 -482.9)"/><use xlink:href="#U" style="color:#000;enable-background:accumulate" transform="translate(188.1 -479.3)"/><use xlink:href="#V" style="color:#000;enable-background:accumulate" transform="matrix(.9273 0 0 1.0645 267.3 -529)"/><use xlink:href="#W" style="color:#000;enable-background:accumulate" transform="translate(187.8 -480)"/><use xlink:href="#X" style="color:#000;enable-background:accumulate" transform="translate(187.6 -479.5)"/><use xlink:href="#Y" style="color:#000;enable-background:accumulate" transform="matrix(1.209 0 0 1 79.8 -455)"/><use xlink:href="#Z" style="color:#000;enable-background:accumulate" transform="matrix(1 0 0 .92857 159.8 -388)"/><use xlink:href="#aa" style="color:#000;enable-background:accumulate" transform="translate(159.1 -447.6)"/><use xlink:href="#ab" style="color:#000;enable-background:accumulate" transform="translate(159 -448.1)"/><use xlink:href="#ac" style="color:#000;enable-background:accumulate" transform="translate(159.6 -446.8)"/><use xlink:href="#Y" style="color:#000;enable-background:accumulate" transform="rotate(4.5 6587.2 1965.6)scale(1.20901 1)"/><use xlink:href="#Z" style="color:#000;enable-background:accumulate" transform="matrix(.99698 .07772 -.07217 .92577 247.3 -433)"/><use xlink:href="#aa" style="color:#000;enable-background:accumulate" transform="rotate(4.5 6451.8 2981.7)"/><use xlink:href="#ab" style="color:#000;enable-background:accumulate" transform="rotate(4.5 6459 2979.7)"/><use xlink:href="#ac" style="color:#000;enable-background:accumulate" transform="rotate(4.5 6442.2 2988.4)"/><use xlink:href="#Y" style="color:#000;enable-background:accumulate" transform="matrix(.9706 .72084 -.59622 .80282 737.6 -629.7)"/><use xlink:href="#Z" style="color:#000;enable-background:accumulate" transform="matrix(.80239 .5968 -.55417 .74508 763 -528.6)"/><use xlink:href="#aa" style="color:#000;enable-background:accumulate" transform="rotate(36.6 1269.9 916.5)"/><use xlink:href="#ab" style="color:#000;enable-background:accumulate" transform="rotate(36.6 1270.8 916.4)"/><use xlink:href="#ac" style="color:#000;enable-background:accumulate" transform="rotate(36.6 1268.5 917)"/><use xlink:href="#Y" style="color:#000;enable-background:accumulate" transform="matrix(1.209 0 0 1 98.8 -406.9)"/><use xlink:href="#Z" style="color:#000;enable-background:accumulate" transform="matrix(1 0 0 .92857 178.9 -340)"/><use xlink:href="#aa" style="color:#000;enable-background:accumulate" transform="translate(178.2 -399.5)"/><use xlink:href="#ab" style="color:#000;enable-background:accumulate" transform="translate(178 -400)"/><use xlink:href="#ac" style="color:#000;enable-background:accumulate" transform="translate(178.7 -398.7)"/><use xlink:href="#Y" style="color:#000;enable-background:accumulate" transform="matrix(1.01895 .65072 -.53823 .8428 624.1 -616)"/><use xlink:href="#Z" style="color:#000;enable-background:accumulate" transform="matrix(.8428 .53823 -.49978 .7826 655.6 -516.6)"/><use xlink:href="#aa" style="color:#000;enable-background:accumulate" transform="rotate(32.6 1314.3 892.6)"/><use xlink:href="#ab" style="color:#000;enable-background:accumulate" transform="rotate(32.6 1315.3 892.5)"/><use xlink:href="#ac" style="color:#000;enable-background:accumulate" transform="rotate(32.6 1312.8 893.1)"/><path fill="#fff" d="m1567.4-778.8-3.5 10.1 11.6 3.5-4 7.5 3.2 1.3.4 1.6 9.9-8.2h11.4l1.5-1.3h7.7l13.7-7.4-.5-4.4-30.5 1.5-4 4.8 1.6-4.6z" style="color:#000;enable-background:accumulate" transform="translate(-1422.4 1073.5)"/><path fill="#ff2a2a" d="m1591.3-774.4-8.6 7.5 12.3-.9 1.1-1.3h8l12.5-6.6z" style="color:#000;enable-background:accumulate" transform="translate(-1422.4 1073.5)"/><path fill="none" stroke="#000" stroke-width="1.5" d="m1619.7-773.5-12.5 6-9.5 1-1.3 1.6-11.4.2-9.2 7" style="color:#000;enable-background:accumulate" transform="translate(-1422.4 1073.5)"/><path fill="#8d8d8d" d="m1566.9-778.6-2.4 9 14.7 4 5.3-8.8z" style="color:#000;enable-background:accumulate" transform="translate(-1422.4 1073.5)"/><path fill="#b3b3b3" stroke="#000" stroke-width="1.5" d="m1581.6-766-7 5.5" style="color:#000;enable-background:accumulate" transform="translate(-1422.4 1073.5)"/><path fill="#ffd42a" d="m1586.7-769.1 4.6-2.4 3 1.3-3.4 2.2zm15.9-1.9 3.4-4h3.3l-2.4 3.4z" style="color:#000;enable-background:accumulate" transform="translate(-1422.4 1073.5)"/><path d="m1566.5-772.3-.7 2.2 3.2.3 1-2zm4.4 1.7-.7 2.1 3.2.4 1-2zm6 1.4-.7 2.2 3.2.3 1-2z" style="color:#000;enable-background:accumulate" transform="translate(-1422.4 1073.5)"/><path d="m1574.8-772-.7 2.1 3.2.3 1-2zm-4.9-1.7-.7 2.2 3.2.3 1-2zm-2-3.4-.7 2.2 3.2.3 1-2z" style="color:#000;enable-background:accumulate" transform="translate(-1422.4 1073.5)"/><path d="m1573.9-775.3-.7 2.2 3.2.4 1-2zm4.5 1.3-.7 2.1 3.2.4 1-2z" style="color:#000;enable-background:accumulate" transform="translate(-1422.4 1073.5)"/><path fill="url(#ad)" d="M854.7-907.4c7.2-.2 10.7.8 26.9 0s23.3-1.3 29-4.1 12.6-9.3 11.8-18.8-4.1-14.8-11.3-18a82 82 0 0 0-26.7-3.2c-6.4 0-25.6-1.3-35.1 2.8a50 50 0 0 0-22.6 19c1.5 6.8 3.6 10.7 8 14.3s12.1 6 20 8" style="color:#000;enable-background:accumulate" transform="translate(186.1 1045.4)"/><path fill="url(#ae)" d="M856.7-907.4c7.2-.2 10.7.8 26.9 0s23.3-1.3 29-4.1 12.5-9.3 11.8-18.8c-.8-9.4-4.1-14.8-11.3-18a82 82 0 0 0-26.7-3.2c-6.4 0-25.7-1.3-35.2 2.8a50 50 0 0 0-22.6 19c1.5 6.8 3.6 10.7 8 14.3s12.2 6 20 8" style="color:#000;enable-background:accumulate" transform="translate(186.1 1045.4)"/><path fill="url(#af)" d="M-172.6-749.1c-3.3 12.3-2.6 26.2-2.2 37.4.8 14.8 3.7 34.4 3.7 34.4s21.9 8.1 33.7 10.6a980 980 0 0 0 66 11.3c24 3 .4.1.4.1a6853 6853 0 0 0 241.7 8.8l114.7-16-.7-47s-105 16.2-127.7 15l-74.7-4-142.7-7.6s-73.1-3.6-85.3-8c-12.2-4.3-21.9-20.8-27-35z" style="color:#000;enable-background:accumulate" transform="translate(186.1 1045.4)"/><path fill="url(#ag)" d="M13.5 302.2a129 129 0 0 0-2.1 37.3c.7 15 3.6 34.5 3.6 34.5s22 8 33.7 10.5a980 980 0 0 0 66.1 11.3c24 3 .4.2.4.2v-.1c79.6 4.8 160.6 6.8 241.6 8.9l114.7-16-.6-47s-105.2 16.1-127.8 15l-74.7-4-142.6-7.7s-73.2-3.6-85.4-8-21.8-20.7-26.9-35z" style="color:#000;enable-background:accumulate"/><path fill="none" stroke="#000" d="m280.3-907.6 322.4 16.4S403.4-856.4 334-836.9c-69.5 19.4-147.8 62.4-147.8 62.4l-260-16S19.5-840.6 60-857s220.3-50.6 220.3-50.6z" style="enable-background:new" transform="translate(186.1 1045.4)"/><path fill="url(#ah)" d="m297.2-909 22.6-5.7 111.9 4.7 44.9 16.2s-137.2 29.3-206.4 50.3S25-738 25-738l20.2-29.4-46.8-3.2-77.3 30.8S86.3-849.4 145.6-869s151.6-40 151.6-40" transform="translate(186.1 1045.4)"/><path fill="url(#ai)" d="m308-916 122.4 4.7L233-855l-74 4.7s4-22.4 24.3-30.2c57-19 66.6-20.5 124.8-35.4" style="enable-background:new" transform="translate(186.1 1045.4)"/><path fill="none" stroke="#000" d="m163.9 257.8 122.2 7.8"/><path fill="#1c1c20" d="m184 273.3 46.2 4.6-4.9 8.1-42.2-4.5z"/><path fill="none" stroke="#000" stroke-width=".4" d="m107.6 305.5 71.2-22.7"/><path fill="none" stroke="#000" stroke-width="2" d="M297.7-707.2s30.8-8 48.7-13.4 29-7.7 37.6-8.8 15.1-.4 15.1-.4-1 16.1-8.8 20.1-40 8.7-51.4 10.2c-11.5 1.5-36.8 5.2-39.3 4.6s-8.3-3.2-6.5-6.9c1.7-3.6 4.8-5.4 4.6-5.4z" style="color:#000;enable-background:accumulate" transform="translate(186.1 1045.4)"/></svg>