<svg xmlns="http://www.w3.org/2000/svg" overflow="visible" viewBox="0 0 273.9 376.3"><switch><foreignObject width="1" height="1" x="0" y="0" requiredExtensions="http://ns.adobe.com/AdobeIllustrator/10.0/"/><g><g fill-rule="evenodd" clip-rule="evenodd"><path d="m137.2 39.7-6.9 13q-.5-5.6-2-8.3t-3.8-2.5l-3.4 6.9-5.9-5-3 7.4q0-3.9-1.9-5.8-1.8-2-5.4-2l-9.2 7.8A427 427 0 0 0 77 31.7C69.1 23.8 57 9.3 48.7 4.4c-8.2-5-14.8-5.8-21-2.5a45 45 0 0 0-16.6 22.5c-3 8.4 0 19.5-1 27.8-1 8.2-4.9 12.5-5.3 21-.5 8.4.2 17.8 2.4 29.3a310 310 0 0 0 10.3 39 57 57 0 0 0-12.2 12.7 27 27 0 0 0-5 12.7l10.8-6.3q-6 9-8.8 18A50 50 0 0 0 0 196.2l8.3-5.9q-2.8 11-3.9 19.6a65 65 0 0 0-.5 14.6l7.8-5.3q-.1 8.4-.5 14.6-.4 6-1 9.8l10.8-5q-.7 7.3-2.1 12.7-1.4 5.2-3.4 8.8 6 1 10.2-1 4.4-2 7-6.7a22 22 0 0 0-2.5 9.2 48 48 0 0 0 1 12.7q4 0 6.9-1.5 2.8-1.5 4.3-4.3-1.6 5-1.4 9.2t2.4 7.4q5.2 1.3 7.8 1 2.6-.6 2.5-3-2.2 5.3-1.5 11.7.9 6.4 4.4 13.7l4.9-6.9q1.5 8.6 3.4 13.7 1.8 5.2 4 6.9l7.2-8.3a31 31 0 0 1 4.4 11.7q.5 4.9-2.4 8.3l11.7-4.9a60 60 0 0 1 4.4 18.5q.1 7.2-4 9.8l14.3-3.9q4.7 4.1 5.8 8.8 1.1 4.6-1.4 9.8 7.8-4.8 11.2-4c2.1.6-3.4 6 2 7.4a123 123 0 0 0 29.7 0c5.2-1.4-.3-6.8 2-7.3q3.2-.9 11.2 3.9a14 14 0 0 1-1.5-9.8q1.2-4.6 5.9-8.8l14.2 4q-4.1-2.8-4-9.9.1-7 4.4-18.5l11.8 4.9q-3-3.3-2.5-8.3t4.4-11.7l7.3 8.3a16 16 0 0 0 4-6.9q1.7-5.2 3.4-13.7l4.8 6.9q3.6-7.4 4.4-13.7a24 24 0 0 0-1.4-11.7q0 2.4 2.4 3 2.6.3 7.8-1 2.1-3.2 2.5-7.4.1-4.2-1.5-9.2 1.5 2.9 4.4 4.3a15 15 0 0 0 6.8 1.5q1.3-7.2 1-12.7t-2.4-9.2q3 4.5 7.3 6.3t9.7.5q-1 1.8-2.4-3.4t-3-17.1l10.8 4.9a266 266 0 0 1-1.4-24.4l7.8 5.3q.5-6.1-.5-14.6-1.2-8.6-4-19.6l8.4 5.9q.3-8.7-2.5-17.6t-8.8-18l10.8 6.3a28 28 0 0 0-5-12.7q-4.2-6.4-12.1-12.7a337 337 0 0 0 10.2-39c2.2-11.5 2.9-21 2.5-29.3-.5-8.5-4.4-12.8-5.4-21-1.2-8.3 2-19.4-1-27.8A46 46 0 0 0 246 1.9c-6.2-3.3-12.9-2.6-21 2.5-8.3 5-20.5 19.4-28.3 27.3Q185 43.4 178.2 51.2l-9.3-7.8q-3.6 0-5.4 2t-2 5.8l-2.8-7.3-6 4.9-3.3-6.9q-2.5-.2-4 2.5-1.4 2.6-1.9 8.3z"/><path fill="#613308" d="M86.8 78.1c2.3-.8 6.5-2.6 9-4.4 2.4-1.8 6-3 5.6-6.3q-.8-5.1-8.3-14.2c-5-6.2-15-15.6-21.2-22.2-6.3-6.6-10.8-12.6-15.4-16.8a41 41 0 0 0-12-8.8c-4-1.8-7.9-3-12-1.5s-12.3 9.1-12 10.3c.1 1 9-3 13.4-3.7 4.1-.7 7.4-2.7 12.2 0s11 10 16.8 16.4C68.6 33 77.1 42.3 80.6 48c3.4 5.7 2.9 12.3 2.2 12.7-.7.2-5.4-10.7-6.3-11.2-1-.5.1 4.8 1 7.8.8 2.8 1.9 7.5 3.9 9.2s6.3-.1 7.6.5c1 .7.7 1.3-.5 3.2-1.3 2-6.9 6-7.1 7.6-.3 1.3 2.8.8 5.4.2"/><path fill="#A1A1A1" d="M64 37.6q-2.8-4.5-8.5-6.8a30 30 0 0 0-14.1-3c-4.5.6-13 5.1-12.5 6.4.4 1 14.2 0 15.1.7.7.9-10 2.5-10.2 4.2-.2 1.4 10.6 3.1 9.5 4.6q-1.6 2-16.1 3.7 1.7.9 5.6 2l9.8 1.9q-1 3-4.4 4.4c-3.4 1.4-5.4 1.2-9.3 1q3.1 3.4 8.3 5a42 42 0 0 0 12.4 1.8q-.8 1.6-3.4 2.2-2.6.5-6.8.2 4.2 3 7.6 4.2 3.3 1 5.8.2a5 5 0 0 1-3.2 4.1q-2.7 1-7.5 0 2 2 4.9 3.2t6.8 1.5q0 3.2-1.5 4.6-1.4 1.5-3.9 1.3 3 3.2 7.4 2.4c3-.6 6.6-2.3 10-5.6q4.8-5 9.2-14.4l-6-3.2q-1.6-.9 0 0 2.6-.1 3.8-1.7t.5-4.6l-11.2-2.2a6 6 0 0 0 3.7-2.5c1-1.5 1.3-3.3 1.7-5.8q-.6 2.2-3 1.7-2.3-.6-6.8-4 2.5.7 4.1-1.1 1.6-2 2.2-6.4"/><path fill="#692F08" d="M56.5 106.7q-5.1-.5-9.5-4.6c-3-2.8-5.7-8-8-12-2.5-4.2-3.7-9.4-6.4-13a31 31 0 0 0-10.3-8.5q3.5 3.1 4.9 5.9 1.5 2.5.7 4.8-1.4-2.2-3-3.4a7 7 0 0 0-3.6-1.2Q22 78 24 82.3a67 67 0 0 0 5.4 9l-6.6-3q.2 4.8 3.4 8.6 3 3.8 9 6.9-3.3.8-5.6 1c-2.3.1-2.5-.3-3.1-.8a11 11 0 0 0 3.9 6q3 2.7 8.5 4.3-3 1-5.9 1.2-3 0-6-.8a30 30 0 0 0 11.4 8.6q-2.5 0-5.4 1.4a22 22 0 0 0-6 4l6.8.7-8 7.5 21.6-9.7-3.8-4.7 6.8-.7-3.2-4.1 8.3-2.7-5.6-3.7q6.4-.4 9.8-1.5 3.2-1 3.4-2.6z"/><path fill="#A16121" d="M19.6 70.3a17 17 0 0 0-7.3-9.3 15 15 0 0 0-3 6.6c-.6 2.7-1.3 4.7-1 10.3a249 249 0 0 0 12.3 60.5l2.7-1.2 3.9-5.6-3.4-1.5q2.3-4.3 4.4-6 2-2 4.1-1.3-3.2-.5-5.6-3.2a22 22 0 0 1-4.4-7.3l7.6 1a10 10 0 0 1-4-4.2q-1.6-3-2.6-7.5l5.1.7a21 21 0 0 1-6-5.1c-1.5-2-1.6-3.8-2.5-5.9q-1.6-3.1-4-6.6l6.7.3q-2.8-1.3-3.4-5-.8-3.6.4-9.7"/><path fill="#613308" d="M188 78.1a38 38 0 0 1-9-4.4c-2.6-1.8-6.1-3-5.7-6.3q.7-5.1 8.3-14.2c5-6.2 15-15.6 21.2-22.2s10.8-12.6 15.4-16.8c4.6-4.4 8-7.1 12-8.8s7.8-3 12-1.5c3.9 1.5 12.3 9.1 12.1 10.3-.2 1-9.1-3-13.4-3.7s-7.4-2.7-12.2 0c-5 2.8-11 10-16.8 16.4A159 159 0 0 0 194 48c-3.3 5.7-3 12.3-2.2 12.7.7.2 5.4-10.7 6.4-11.2s-.3 4.8-1 7.8c-.9 2.8-2 7.5-3.9 9.2-2 1.6-6.3-.1-7.5.5s-1 1.3.4 3.2c1.2 2 6.8 6 7.1 7.6.2 1.3-3 .8-5.3.2z"/><path fill="#A1A1A1" d="M210.6 37.6q3-4.5 8.6-6.8c3.8-1.7 9.6-3.6 14.2-3 4.3.6 12.8 5.1 12.4 6.4-.5 1-14.4 0-15.1.7-.9.9 10 2.5 10.2 4.2.1 1.4-10.7 3.1-9.5 4.6q1.6 2 16.1 3.7-1.7.9-5.6 2l-9.8 1.9a7 7 0 0 0 4.4 4.4 22 22 0 0 0 9.3 1q-3 3.4-8.3 5-5.2 1.8-12.5 1.8 1 1.6 3.5 2.2 2.6.5 6.8.2-4.2 3-7.6 4.2-3.4 1-5.8.2a5 5 0 0 0 3.1 4.1q2.8 1 7.6 0-2 2-4.9 3.2t-6.8 1.5a7 7 0 0 0 1.5 4.6c1 1 2 1.4 3.9 1.3q-3 3.2-7.3 2.4c-3-.6-6.8-2.3-10-5.6a53 53 0 0 1-9.3-14.4l6-3.2q1.5-.9 0 0-2.6-.1-3.8-1.7t-.5-4.6l11.2-2.2a5 5 0 0 1-3.7-2.5q-1.4-2.1-1.7-5.8.5 2.2 3 1.7a22 22 0 0 0 6.8-4q-2.6.7-4.2-1.1-1.6-2-2.2-6.4"/><path fill="#692F08" d="M218.2 106.7a16 16 0 0 0 9.5-4.6c3-2.8 5.7-8 8.1-12 2.4-4.2 3.6-9.4 6.3-13q4.2-5.3 10.3-8.5-3.5 3.1-4.9 5.9a6 6 0 0 0-.7 4.8 9 9 0 0 1 2.9-3.4q1.6-1.1 3.7-1.2a38 38 0 0 1-2.7 7.6 81 81 0 0 1-5.4 9l6.6-3a15 15 0 0 1-3.4 8.6 27 27 0 0 1-9 6.9q3.3.8 5.6 1 2 0 3.1-.8-.8 3.5-3.9 6-3 2.7-8.5 4.3a20 20 0 0 0 12 .4 30 30 0 0 1-11.5 8.6q2.4 0 5.3 1.4 3 1.4 6.2 4l-6.9.7 8 7.5-21.7-9.7 4-4.7-6.9-.7 3.2-4.1-8.3-2.7 5.6-3.7q-6.6-.4-9.8-1.5-3.3-1-3.4-2.6z"/><path fill="#A16121" d="M255 70.3q.9-2.8 2.8-5.1 1.7-2.4 4.6-4.2a17 17 0 0 1 3 6.6c.5 2.7 1.1 4.7.9 10.3-.3 5.5-1.6 15.5-2.7 22.7q-1.7 10.4-3.9 19.7c-2.2 9.3-3.5 12.4-5.6 18.1l-2.7-1.2-3.9-5.6 3.4-1.5q-2.4-4.3-4.4-6-2-2-4.1-1.3 3.1-.5 5.6-3.2 2.4-2.6 4.4-7.3l-7.6 1a11 11 0 0 0 4-4.2q1.5-3 2.6-7.5l-5.1.7q4-2.4 6.1-5.1c1.4-2 1.3-3.8 2.4-5.9q1.5-3.1 4-6.6l-6.7.3q2.7-1.3 3.5-5 .6-3.6-.5-9.7"/><path fill="#A1A1A1" d="M137.6 68.4 132.2 83q.7-4.8-.7-7.3-1.5-2.5-4.9-2.7a7 7 0 0 1 .5 6q-1.2 3.3-5.1 6.7l-1.8-7.8q-.8-2.9-1.1-3.2.9 3.9.4 7.3-.5 3.3-2.4 6.1-1 .3-2-2a44 44 0 0 1-2.4-7 38 38 0 0 1-7.8 5.9q-3 1-3-1c0-2 1.1-3.6 3.2-6.9q-6 3.5-8 3.5-2.2 0-.5-3.5 3.8-2 5.8-4.3t2.2-4.7c.2-2 .3-4.1-.7-6.6q-1.5-3.8-5.4-8.3l6.9-6q3.6 2.8 4.8 5.8a7 7 0 0 1 0 5.6l4.7-7.8 6.6 4.9 3.9-8.3q1.5 1.4 2.4 3.9a24 24 0 0 1 1.3 5.8l9-10.2 7.3 10.2a21 21 0 0 1 1.2-5.8q.9-2.5 2.4-4l4 8.4 6.6-4.9 4.6 7.8a7 7 0 0 1 0-5.6q1.2-3 4.9-5.9l6.8 6.1q-3.9 4.5-5.4 8.3-1.3 3.8-.7 6.6c.2 1.8.9 3 2.2 4.7q2 2.2 6 4.2 1.6 3.5-.5 3.5-2.2 0-8-3.5 3 5 3 6.9t-2.8 1q-2.7-1.3-7.9-6-1.3 5-2.4 7.2-1.2 2.2-2 2-1.9-3-2.4-6.2t.5-7.3q-.4.4-1.2 3.2-.7 2.7-1.7 7.8a17 17 0 0 1-5.2-6.6q-1.2-3.2.6-6-3.6.1-5 2.6t-.7 7.3z"/><path fill="#A16121" d="M85.4 150.8a37 37 0 0 0-12.2 1.5c-1.6.8-.8.3 2.6 3.3 3.4 3.1 13.1 10.6 17.4 14.7 4 3.8 6.3 4.6 7.3 8.5q1.3 5.8-2 14.7l5.6-2.7-4.8 8-3.7 6.1 6.4-1.8-3.2 5.1-5.6 7.6q2.3.7 4.1-.3a9 9 0 0 0 3.2-3.6q.8 2.7-1.2 6.6a40 40 0 0 1-7.4 8.8q4 1.4 6.4.4t3.4-4.4q-2.2 4.9-5.1 8.1-3 3.2-6.6 4.7.7.9 3.4.4t7.3-2.4q1 3.9-1 7-1.8 3.2-6.3 6a19 19 0 0 0 8.6-3.2c2.3-1.8 3.8-4.2 5.6-6.9s3-7.1 4.4-8.5q1.6-1.9 2.7.7-1 1.4-.8 3.7 0 2.2 1.2 5.1-.9-1 .7-2.7t5.7-3.9q-4.7-3.3-5.4-6.8-.7-3.7 2.4-7.3l-7.8 1.9q0-2.6 1.5-5.9 1.4-3.3 4.2-7 1.5-.9 0 0l-6.9 3.6q-.2-3.9 1.5-6.8 1.5-3 5.1-5.1l-6.8 1a24 24 0 0 1 12.5-8.3q-6.3-1.4-7.9-3.5-1.6-2.2 1.2-5.4-3-.3-2.4-2.4a17 17 0 0 1 4.9-6.1q-3.8.6-3.4-1.2.2-2 4.6-6.4-3.8.9-5.1-.5c-1-1 .9-2.7-.3-4.8-1.1-2.2-2.2-6-6.8-7.6a62 62 0 0 0-21.2-2"/><path fill="#A1A1A1" d="M116.4 161.6q2.3-1 6.3-4c2.7-2 7.8-5.1 9.7-8.1 1.8-3.3 3-7.4 1.3-10.5q-2.8-4.4-12-7 2.3 1.9 2.7 3.4.5 1.3-1 2.2l-2.7-2.5-5-4.9q2 3.5 1.9 5.6-.2 2.2-2.5 3 0-1.9-3.1-3.2a35 35 0 0 0-9.3-2q3 .8 3.6 2.5t-1.2 4.4q0 .7-3.1-1-3.2-1.8-9.6-6 0 2 1.2 4 1.4 2.1 4.2 4.2-4.4 1-8.6-.3a22 22 0 0 1-8-4.8q4 4.2 4.9 6.6.8 2.3-1.2 2.6-4.5-1.4-7.9-1.4c-3.4 0-4.1.2-5.6 1l4.7 3.7c8.4-1.1 14.8-1.7 20-1.7 4.9 0 7.2.7 10.2 2 3.2 1.3 6.6 3.7 8.4 5.8q2.5 3 1.6 6.4"/><path fill="#404040" d="M74.3 152q-3.1 1.3-7.3 2-4.3.6-9.5.5l5.8-2 9-2.9-7.3.3h-4q2.7-1.3 4.6-2.5t3-2.4q-5 3-10.8 4.1c-4 .7-9.2-.1-13 .8-3.7 1-6.6 3-9.7 5.1q-4.8 3-9.5 6.8 4.8.3 8-.2 3.4-.6 5.2-2-2 3.8-7 7.6-5.2 3.7-13 7.6 7.2.9 13.1.4t10-2.2a66 66 0 0 1-20.2 22.2q1.3 1.3 5.8.8t12-3q-6.5 6.6-11.7 11a83 83 0 0 1-9.3 6.9q3.4 2 6.6 1.7 3.1-.2 6.1-2.7l-5.9 14q4.6-.3 8.8-4.4c2.9-2.9 4.3-8.7 8-12.3a50 50 0 0 1 14-9.5q.6 4.5-.2 7.4-1 2.7-3.5 3.8 4.8.2 8.3-1.2 3.7-1.4 6.1-4.4.9 2.6-.2 5.6c-.8 2-3.4 5.5-4.1 6.6q-1.2 1.5 0 0 7.2 1 11.7-3.4 4.2-4.5 5.6-14.1l-9.3 1.2a22 22 0 0 1 3.4-6.4q1.7-2 3.4-2-4.6-.2-8 .3t-5.6 2q.7-4.1 2.4-6.8t4.2-4.2q-4-.7-7.1-.5-3.2.1-5.4 1.2 2-4.3 4.1-8c1.4-2.7 1.6-4.6 4.4-7.1q4.3-3.7 12.7-7.8z"/><path fill="#A1A1A1" d="M74.8 160.6q-1.8-.2-3.7 2a27 27 0 0 0-3.9 6.8 73 73 0 0 0-3.6 9.5q.4-.5 3.4 0l8.3 1.7q-2.2 2.6-3.2 4.4c-1 1.8-1 2.2-1 3q0-.3 2.7 0 2.5.1 7.6 1l-4.9 6.5q2 1.2 4 1 1.6-.2 3-2 0 3-.9 6.4-.9 3.3-2.7 7 3.6-1.1 7.1-4.3c2.4-2.4 5.2-5.7 7-8.8 1.9-3.1 2.4-6.2 3.7-9.3l3.7-9.3z"/><path d="M53.5 160.8c2-1 6.4-3 11-4.2a104 104 0 0 1 30.6-3.4 20 20 0 0 1 9.6 5c2.1 2 3 3.7 3.6 7.2.3 3.4-.7 10.5-1 13.3-.3 2.7 0 3.1-.7 3.3-.8.2-2-1.4-3.3-2-1.3-.8-2.2-2-4.3-2-2.2-.1-5.3 1.6-8.1 1.3a18 18 0 0 1-9.5-4c-2.6-2.6-4.5-8.5-6.6-11-2.2-2.5-3.2-4.3-6.6-4-3.5.5-12.4 5.7-14 6.2-1.8.1 3.5-3.6 3.4-4.4-.3-.7-4.3.2-5 0s-1.2-.5.9-1.3"/><path fill="#E3C300" d="M92.7 156.6c5.4 0 9.8 4.2 9.8 9.4s-4.4 9.4-9.8 9.4-9.8-4.2-9.8-9.4 4.4-9.4 9.8-9.4"/><path fill="#AB9300" d="m92.7 166.1-2.2 4.2-2 4 1.4.5zm0 0-4 2.7-3.7 2.4 1 1.2zm0 0-4.8.4-4.4.3.3 1.6zm0 0-4.4-2-4-1.9-.5 1.6zm0 0-2.8-3.9-2.7-3.6-1.1 1.2zm0 0-.6-4.8-.6-4.4-1.5.5zm0 0 1.8-4.5 1.6-4-1.6-.5zm0 0 3.7-3 3.5-2.9-1.2-1zm0 0 4.7-.9 4.4-.8-.5-1.5zm0 0 4.5 1.5 4.2 1.5.3-1.6zm0 0 3.2 3.5 3 3.3 1-1.2zm0 0 1.1 4.7 1 4.3 1.5-.6zm0 0-1.3 4.6-1.2 4.3 1.6.2z"/><path d="M94 161c2.5 0 4.5 1.8 4.5 4s-2 3.8-4.5 3.8-4.4-1.7-4.4-3.9c0-2.1 2-3.8 4.4-3.8"/><path d="m92.6 155.5.2 2.9.1 4 1.5.4h1q0-2 .6-3.5a5 5 0 0 1 2.2-2.4z"/><path fill="#A1A1A1" d="M91.9 204.3q-1.5 2.7-7.8 6.6-6.5 3.7-17.9 8.6 4.9 2.7 8.1 2.9t4.9-2.2a27 27 0 0 1-5.6 6.8q-3.6 3.1-8.8 5.9 3 2 6 1.7 3.3-.4 7-3.2-.5 6.8-2 11-1.6 4-4.4 5.6 4.1-1.4 6.8-3.2t3.7-4.4a24 24 0 0 1 0 9.4q-1 3.8-4 5.9 2.3.1 5.7-.5t7.8-2.2q-.8 4.3-2.7 7.6a18 18 0 0 1-5.4 5.3q4 2.4 7.6 2.5 3.5 0 6.6-2.2.3 3.4-.5 6.6-.9 3-3.1 5.6 3.7 1 10.7 0c4.6-.7 12.9-1.6 16.8-4.4 3.8-3.1 4.6-9.7 6.1-13.7s3-6.8 3.2-10c0-3.2-1.3-7.1-2.2-9s-2.4-1.7-3.4-2.7q-1.6-1.7-2.4-4.1a17 17 0 0 0-6.2 6q-2-1-3.4-2.1c-1-.8-1.2-2.7-2-2-.8.6-1.3 4.1-2.6 5.9-1.5 1.6-2.7 3.1-5.6 4.4q-4.5 1.7-12.3 2.6 2.3-3.2 3-5.6t0-4.1q-1.4 1-4.1.2-2.8-.8-6.7-3.4a18 18 0 0 0 9.3-5.6 10 10 0 0 1-4.9-1.2q-1.8-1.2-2.2-3.5 3.3-1.3 5.6-3.1 2.5-2 4-4.4-2.5 0-4-.5a4 4 0 0 1-2.1-1.5 12 12 0 0 0 3.2-5.4q.8-3 .2-7z"/><path fill="#404040" d="M50.7 203.3a50 50 0 0 0-6.2 7.2c-2 2.7-3.6 6-5.4 8.8-1.8 2.6-2.7 4.7-5 7.4a91 91 0 0 1-9.2 8.9q.9 3.5 0 8.6-.8 4.8-3.2 10.9 2.4-.6 5.6-3.6 3-3 6.8-8.5 1.9 2.4 2 8c.1 3.6-1.3 10.9-1.4 14.1q-.2 4.8.6 4.8a58 58 0 0 1 5-5.6q2.9-3 6.5-6-.9 6.5-1.2 11.9-.2 5.3.3 9.5 5.9.4 9.8-1.2c2.6-1.2 3.8-3.4 6.2-5.7s3.9-5.4 8.3-8a91 91 0 0 1 17.7-7.6l-13.6.9q1.2-1.4 2-3.6 1.1-2.1 1.9-4.7-5.3.6-8.3.3-3-.5-4.2-1.8 3-1.8 4.5-4.4a11 11 0 0 0 .9-6.3q-3 1.1-6-.3t-5.9-5.3l6-3.5q2.7-1.9 5-3.9-2.5.5-5.7-1.1a31 31 0 0 1-6.8-5.4l3.3-6.8a39 39 0 0 1-7.4 3q-3.2.8-5.3.3 0-3.7.6-6.5.6-2.9 1.8-4.7zm67.7 69.5q-2 2.5-4.6 3.8a15 15 0 0 1-6 1.3q1.8 1.4 1.1 5c-.7 2.4-4.8 7.5-4.7 9.5 0 1.8 2 .6 5.3 1.7l14.5 4.5c3.6 1 4.6 1.4 7.4 1.8q4.3.6 9.2.4c3-.4 4.7-1.2 8.7-2.3l14.5-4.4c3.4-1.2 5 0 5.3-1.8 0-2-4.3-6.8-4.8-9.4q-.8-4 1.5-6.3-2.3.1-5.6-.8-3.4-1.1-7.7-3.3z"/><path fill="#404040" d="M105 281.7q-.5 2-2 5l-4.1 6.8q7.6 3 12.7 5.7c3.2 1.7 4.3 3.3 7 5.3l9.5 6.5v6c-.2 3 .3 9-.3 12.3-.6 3-.7 4.1-3.2 6.2-2.8 2-8.2 3.4-12.4 6.1a95 95 0 0 0-12.7 9.4q2.4-2.3.8-9.1-1.6-7-7-18.3l-7.8 3q.4-3.7-1.1-7.5a33 33 0 0 0-5-8.3q4.8-3.4 6.1-7.6 1.3-4.3-1.1-9.5l-8 5.9q1-3 3.2-7.7l5.4-11q2.1-5 3.5-9.7v9.5q4.5 1.8 8.6 2a21 21 0 0 0 8-1z"/><path fill="#613308" d="M81.4 263.2q-1.5-1.2-6.8 3.3c-3.5 2.8-11.4 8.6-14.2 14.2a30 30 0 0 0-2.7 18.6q2.5-3.3 4.5-5 1.9-1.7 3.2-1.8.3 4.1 1.2 9.8 1 5.5 2.7 12.4a72 72 0 0 0 11.2-13l-8.2 2q-.4-6.5 2.9-14.7 3-8.4 9.8-18.4a8 8 0 0 1-3.3-.9 5 5 0 0 1-1.5-1.8q-.3-.4 0 0zM34.7 137q-6-.2-13 5.1a73 73 0 0 0-14.8 16l9.4-1.8a157 157 0 0 0-11.5 30.8l7.1-1.2q-2.2 10.6-3 17.8c-.4 4.8-.4 8 0 10.6l5.7-.6q-.7 6.9-.3 12.1.3 5.3 1.8 9.2l8-6.5q-2.8-.2-2.7-3.3t3-8.8q-3.6-1.2-5.7-2.7a7 7 0 0 1-2.6-3.6l6.2-5.6q2.9-2.6 5.3-5.3-6 1.2-8.6.3t-1.5-3.8l9.2-10 6.8-7.8q-6.4 1-11 .6t-7-2.3a50 50 0 0 1 11-11.3l-6.3-.3q2.6-6.3 6.8-10c2.7-2.6 6.6-4.3 10-5.4s7.6-1 10.7-1.7q4.5-1.3 7-3.6a43 43 0 0 1-20.3-.3l11.8-6.2zM137 81.6 132.3 92l-2.7-6.8q-1.3 4.8-2.7 6.8-1.4 1.8-3 .9l-2.3-2.7q-1.2 4.6-3.5 3.9-2.5-.8-6.2-6.8l-5.3 2.6 8.2 8a14 14 0 0 0-8-1.5 11 11 0 0 0-6.8 3.6q4.2 1 8.6 4.4 4.4 3.3 9 8.9L105 112q6.7 1.4 11.5 3.6 4.9 2.1 8 5-5.2-.9-7.7-.3-2.6.4-2.7 2.4 3.8.3 8 2.6c4.2 2.3 6.4 4 9 6.5 2.4 2.5 4.9 4.3 5.5 8.3s-.5 11.8-2.6 15.7a15 15 0 0 1-10.7 7 7 7 0 0 0 5 2.2q2.7-.2 5.7-2.7-.6 3-3.6 5.3-3 2.4-8.3 4.2l9.5 1.4a33 33 0 0 0-8.6 6c-1.4 1.5-.7 2.9-.3 3.8.2.9-.3 2 2 1.8 2.5-.5 9.7-3.3 12.2-3.9 2.2-.7-.3-.7 2 0s9.6 3.4 12 3.9c2.3.3 1.8-.9 2.1-1.8s1-2.3-.3-3.9a34 34 0 0 0-8.5-5.9l9.4-1.4a28 28 0 0 1-8.3-4.2 9 9 0 0 1-3.5-5.3 10 10 0 0 0 5.6 2.7 7 7 0 0 0 5-2.1 15 15 0 0 1-8.4-7.7c-2.1-4-3.8-11.7-3.6-15.7s2.9-5.7 5-8c2.3-2.4 5.5-4.7 8.2-6.2q4-2.2 8-2.6-.1-1.9-2.6-2.4-2.6-.6-7.8.3 3.2-2.9 8-5 4.8-2.2 11.6-3.6l-12.5 1.2q4.5-5.6 9-8.9 4.3-3.3 8.5-4.4-3.1-3-6.8-3.6-3.7-.5-8 1.5l8.3-8-5.3-2.6q-3.8 6-6.2 6.8-2.6.7-3.6-3.9L152 93q-1.6.9-3-.9-1.5-2-2.7-6.8l-2.6 6.8-4.8-10.4z"/><path fill="#692F08" d="M114 126.9q.4-1.5-4.2-3-4.6-1.4-14.2-2.6.1 2.4 4.7 3.8A60 60 0 0 0 114 127"/><path fill="#613308" d="M99.5 129.6q-1-3.8-8.6-6a99 99 0 0 0-22.2-2.6q1.5 4 9.2 6.2a93 93 0 0 0 21.6 2.4"/><path fill="#A1A1A1" d="m78.4 132.2-5.6-1.4-18.3-4.8 4.7 3.9-11 2 6 4.2-6.2 4.4q-1.5 1 0 0a49 49 0 0 0 13.3 1.2c3.5-.4 5.4-3 8-3s6.3 3.1 7.7 3q1.7-.5-.6-4.8zm9.8-14.5q.1-2.3-5.6-2.6-5.9-.5-17.7 1.1a52 52 0 0 0 13.3 3 22 22 0 0 0 10-1.5"/><path fill="#616161" d="M101.5 114.8q-6.3-5-15.6-8-9.5-3-22-3.8 3.8-3.2 7.5-3.6 3.6-.5 7.4 1.8-1.2-3.6-3.6-6a15 15 0 0 0-6.2-3.5q3.6-1.4 7.1-1.2 3.3.2 6.5 2-2.3-2.6-4.4-4.3a14 14 0 0 0-4.5-2.4q5.5-1.1 10-.6 4.7.4 8.4 2.4l-3.6-6.2q5.7 1 9.5 4.1t5.6 8q-4.3 0-6.2 1.2t-1.5 3.5q4 3.5 5.3 5.6 1.4 2.2.3 3l-6.8-.9z"/><path fill="#9F6021" d="M79.3 109.4q-.6-1.5-3.8-2t-8.9 0q1 2.7 4.2 3.2t8.5-1.2"/><path fill="#A1A1A1" d="M136.4 185.4q-3.6 0-7.4 2.1a31 31 0 0 0-8 6.8q-2.9 3.4-3.5 6.8l7-.9q-4 6.8-5.5 10-1.6 3.3-1 3.4l5.7-1.5q-2.3 3.9-2.7 7.4c-.4 2.2-.4 2 1.2 6.5s5.5 16.2 9 19.7c3.5 3.3 8.2 3.1 11.8.4 3.4-3 7-13 9-17.4 1.7-4.5 2.5-6.5 2.4-9.2q-.1-4.2-2.6-7.4l5.6 1.5q.8 0-.9-3.3-1.7-3.4-5.6-10l7.1.8q-.7-3.4-3.6-6.8c-2-2.4-5.3-5.3-8-6.8q-3.8-2.2-7.3-2z"/><path fill="#A16121" d="M189.1 150.2q9.8.2 12.2 1.5c1.6.7.7.3-2.6 3.2-3.5 3.1-13.2 10.7-17.4 14.7-4.1 3.8-6.4 4.7-7.3 8.6q-1.5 5.8 2 14.6l-5.7-2.7 5 8 3.6 6.2-6.4-1.9q1 2 3.2 5.2l5.6 7.5q-2.3.7-4.1-.2a8 8 0 0 1-3.2-3.7q-.9 2.7 1.2 6.6a29 29 0 0 0 7.4 8.8q-4 1.4-6.4.5-2.4-1-3.4-4.4 2.2 4.9 5.1 8 2.9 3.2 6.6 4.7-.8 1-3.4.5-2.7-.5-7.3-2.5a9 9 0 0 0 1 7.1q1.7 3.2 6.3 5.9-5-.8-8.6-3.2c-2.4-1.8-4-4.3-5.6-6.8-1.8-2.7-3.1-7.3-4.4-8.6q-1.7-2-2.7.8a7 7 0 0 1 .8 3.6q-.1 2.2-1.2 5.1.8-1-.8-2.7a25 25 0 0 0-5.6-3.8q4.6-3.4 5.4-6.9.7-3.6-2.5-7.3l7.9 2q0-2.7-1.5-6-1.4-3.1-4.2-7-1.7-.9 0 0l6.9 3.7a13 13 0 0 0-6.6-12l6.8 1a26 26 0 0 0-12.4-8.3q6-1.4 7.8-3.5 1.6-2.2-1.2-5.3 3-.3 2.4-2.5a18 18 0 0 0-4.9-6q3.7.6 3.4-1.3t-4.6-6.3q3.8.9 5.1-.5c1-1-1-2.8.3-4.9 1-2 2.1-6 6.8-7.6a64 64 0 0 1 21.3-2z"/><path fill="#A1A1A1" d="M158.2 161q-2.5-1.1-6.4-4c-2.8-2-8-5.1-9.7-8.1-2-3.3-3.1-7.6-1.3-10.5q2.6-4.5 12-7.1-2.2 2-2.7 3.4t1 2.2l2.7-2.4 5-5q-2 3.4-1.9 5.7.1 2.1 2.5 3 0-2 3.1-3.3c3.1-1.3 5.2-1.5 9.3-2q-3 .8-3.6 2.5-.7 1.8 1.2 4.4 0 .8 3.1-1 3.2-1.7 9.6-6 0 2-1.2 4.1-1.4 2-4.2 4.2 4.4 1 8.6-.3 4-1.3 8-4.9-4 4.2-4.9 6.6c-.9 2.4-.2 2.4 1.2 2.7q4.5-1.5 7.9-1.4 3.3-.2 5.6 1l-4.7 3.7q-12.4-1.8-20-1.7c-5 0-7.3.6-10.2 2a22 22 0 0 0-8.4 5.8q-2.4 3-1.7 6.3z"/><path fill="#404040" d="M200.2 151.4q3 1.2 7.3 2 4.3.5 9.5.5a287 287 0 0 0-14.9-5l7.4.3h4.1l-4.6-2.4q-1.9-1.3-3-2.5a35 35 0 0 0 10.8 4.2c4 .7 9-.2 13 .7 3.7 1 6.5 3 9.7 5.1q4.8 3 9.5 6.9-4.7.2-8-.2-3.4-.5-5.2-2 2.1 3.8 7.1 7.5t13 7.6q-7.5 1-13.2.5-5.9-.4-10-2.2a69 69 0 0 0 20.2 22.2q-1.5 1.2-5.8.8-4.5-.6-12-3 6.4 6.5 11.7 11a74 74 0 0 0 9.3 6.8 12 12 0 0 1-6.6 1.8q-3.2-.3-6.1-2.7l5.9 13.9a14 14 0 0 1-8.8-4.4c-3-3-4.4-8.6-8-12.2a51 51 0 0 0-14-9.5q-.7 4.5.2 7.3a6 6 0 0 0 3.5 3.9q-4.7 0-8.3-1.2-3.7-1.5-6.1-4.4-1 2.5.2 5.6c.7 2 3.4 5.4 4.2 6.6q.9 1.5 0 0-7.4 1-11.7-3.4-4.4-4.5-5.7-14.2l9.3 1.2a23 23 0 0 0-3.4-6.3q-1.7-2.2-3.4-2 4.5-.4 8 .3c2.4.3 4 1 5.6 2q-.8-4.1-2.4-7a11 11 0 0 0-4.2-4q4-.8 7.1-.5 3.2 0 5.4 1.2l-4.1-8c-1.5-2.7-1.7-4.6-4.4-7.2q-4.3-3.7-12.7-7.8z"/><path fill="#A1A1A1" d="M199.7 160q1.7-.4 3.7 2c1.3 1.4 2.5 3.9 3.9 6.7q1.9 4.1 3.6 9.6-.5-.5-3.4 0-3 .3-8.3 1.7 2 2.4 3.2 4.4 1 1.7 1 3 0-.5-2.7 0-2.5 0-7.6.9l4.9 6.6a7 7 0 0 1-4 1 5 5 0 0 1-3-2q0 3 .9 6.3t2.7 7.1q-3.6-1-7.1-4.4a43 43 0 0 1-7-8.7c-2-3.2-2.6-6.3-3.7-9.3l-3.7-9.3z"/><path d="M221 160.1c-2.1-1-6.5-3-11-4.1s-10.6-2.5-15.7-3a54 54 0 0 0-14.9-.4c-4 .8-7.5 2.9-9.6 5a10 10 0 0 0-3.6 7.1c-.5 3.5.6 10.6 1 13.4.2 2.6 0 3 .7 3.2s2-1.3 3.3-2 2.2-2 4.3-2 5.1 1.6 8.1 1.3 6.7-1.5 9.5-3.9c2.5-2.6 4.4-8.5 6.6-11 2.1-2.6 3.2-4.4 6.6-4s12.3 5.7 14 6.1c1.7.2-3.7-3.5-3.4-4.3.1-.8 4.2.2 5 0 .6-.2 1.1-.5-.8-1.4z"/><path fill="#E3C300" d="M181.8 156c5.4 0 9.8 4.2 9.8 9.4s-4.4 9.4-9.8 9.4-9.8-4.2-9.8-9.4 4.4-9.4 9.8-9.4"/><path fill="#AB9300" d="m181.8 165.5 2.2 4.2 2 4-1.4.5zm0 0 4 2.6 3.7 2.4-1 1.2zm0 0 4.8.4 4.4.2-.3 1.6zm0 0 4.4-2 4-1.9.5 1.6zm0 0 2.8-3.9 2.7-3.6 1.1 1.2zm0 0 .6-4.8.6-4.4 1.5.4zm0 0L180 161l-1.6-4.1 1.6-.4zm0 0-3.7-3.1-3.5-2.8 1.2-1zm0 0-4.7-1-4.4-.7.5-1.5zm0 0-4.5 1.5-4.2 1.4-.3-1.6zm0 0-3.2 3.5-3 3.3-1-1.3zm0 0-1.1 4.6-1 4.4-1.5-.7zm0 0 1.3 4.6 1.2 4.3-1.6.2z"/><path d="M180.4 160.3c2.5 0 4.5 1.8 4.5 4s-2 3.8-4.5 3.8-4.4-1.7-4.4-3.9 2-3.9 4.4-3.9"/><path d="m181.9 154.9-.2 2.8-.1 4-1.5.4h-1q0-2-.6-3.4-.7-1.6-2.2-2.5z"/><path fill="#A1A1A1" d="M182.6 203.7q1.5 2.7 7.8 6.5 6.4 3.8 17.9 8.6a20 20 0 0 1-8.1 3q-3.3 0-4.9-2.3 2 3.7 5.6 6.9 3.6 3 8.8 5.8-3 2.1-6 1.7-3.3-.3-7-3.1.5 6.8 2 11a10 10 0 0 0 4.4 5.6q-4.2-1.5-6.8-3.2a10 10 0 0 1-3.7-4.4q-.9 5.5 0 9.4 1 3.7 4 5.8-2.4.2-5.7-.4t-7.8-2.2q.6 4.3 2.7 7.5a17 17 0 0 0 5.4 5.4 16 16 0 0 1-7.6 2.4q-3.6 0-6.6-2.2-.5 3.6.5 6.6.9 3.1 3.1 5.6-3.8 1.2-10.7 0c-4.7-.6-13-1.5-16.8-4.4s-4.7-9.6-6.1-13.6c-1.6-4.1-3-6.8-3.2-10-.1-3.3 1.2-7.2 2.2-9 1-2 2.3-1.8 3.4-2.7q1.5-1.8 2.4-4.2 2.2 1.4 3.7 3 1.6 1.5 2.5 3.1l3.4-2.2c.8-.7 1.1-2.7 2-2 .7.7 1.2 4 2.6 5.9 1.4 1.6 2.6 3.2 5.6 4.4q4.4 1.6 12.3 2.7-2.3-3.2-3-5.6-.7-2.5 0-4.2 1.5 1 4.1.3 2.7-.8 6.7-3.4a17 17 0 0 1-5-2q-2.3-1.4-4.3-3.7 3 0 4.9-1.2a5 5 0 0 0 2.2-3.4q-3.2-1.4-5.6-3.2-2.5-1.8-4-4.4 2.4 0 4-.5 1.5-.5 2.1-1.4a11 11 0 0 1-3.2-5.4 16 16 0 0 1-.2-7z"/><path fill="#404040" d="M223.9 202.7q3.2 3 6.1 7c2 2.7 3.5 6.2 5.4 9 1.7 2.6 2.6 4.6 5 7.3q3.5 4.1 9.2 9-.9 3.6 0 8.5.7 4.8 3.2 11-2.5-.6-5.6-3.6a53 53 0 0 1-6.8-8.6q-2 2.4-2 8c-.2 3.7 1.1 11 1.4 14.2q.2 4.7-.6 4.7a69 69 0 0 0-11.5-11.5q.9 6.4 1.2 11.8t-.3 9.5q-6 .5-9.8-1.2c-2.7-1.2-3.9-3.4-6.2-5.6-2.4-2.3-4-5.5-8.3-8a93 93 0 0 0-17.7-7.7l13.6.9q-1.1-1.5-2-3.6-1.1-2-1.9-4.7 5.2.7 8.3.3 3-.4 4.2-1.8a11 11 0 0 1-4.5-4.4q-1.3-2.7-.9-6.2 3 1 6-.3 2.9-1.4 5.9-5.3a65 65 0 0 1-11-7.4 9 9 0 0 0 5.7-1.2q3-1.7 6.8-5.3l-3.3-6.8q4.2 2.1 7.4 3 3.2.7 5.3.2 0-3.6-.6-6.5-.6-2.7-1.8-4.7zM169.4 281q.5 2.1 2.1 5 1.5 3 4.1 6.9-7.7 2.9-12.7 5.6c-3.3 1.8-4.4 3.3-7 5.3l-9.5 6.5v6c0 3-.5 9.1.3 12.4.5 3 .6 4 3.2 6.2 2.7 2 8.1 3.3 12.4 6a100 100 0 0 1 12.7 9.5q-2.5-2.3-.8-9.2 1.5-6.8 7-18.3l7.8 3q-.4-3.6 1.1-7.4 1.5-4 5-8.3a15 15 0 0 1-6.1-7.7q-1.3-4.2 1.1-9.5l8 6q-1.1-3.1-3.2-7.8c-1.6-3.1-3.8-7.4-5.4-10.9a78 78 0 0 1-3.5-9.8v9.5a28 28 0 0 1-8.6 2q-4.2.4-8-1"/><path fill="#613308" d="M193 262.6q1.5-1.2 6.9 3.2c3.5 2.9 11.3 8.7 14.2 14.2a30 30 0 0 1 2.7 18.7 36 36 0 0 0-4.5-5q-2-1.8-3.2-1.9-.3 4.2-1.2 9.8-1 5.5-2.7 12.4a63 63 0 0 1-11.2-13l8.2 2q.3-6.4-2.9-14.7a96 96 0 0 0-9.8-18.3q2.1-.3 3.3-1c.7-.4 1.2-1.5 1.5-1.7q.3-.4 0 0zm46.8-126.2q6-.1 13 5 7 5.3 14.8 16l-9.4-1.7q3.8 8 6.8 15.7 2.8 7.6 4.7 15l-7.1-1.1q2.2 10.4 3 17.7.6 7.1 0 10.6l-5.7-.6q.7 6.8.3 12.2-.4 5.2-1.8 9.1l-8-6.5q2.9-.3 2.7-3.2 0-3.2-3-8.9 3.6-1.1 5.7-2.7 2-1.5 2.6-3.5l-6.2-5.6q-3-2.8-5.3-5.4 6 1.3 8.6.3 2.4-.8 1.5-3.8l-9.2-10-6.8-7.7q6.4 1 11 .5 4.4-.4 7-2.3a57 57 0 0 0-11-11.3l6.3-.3q-2.7-6.2-6.8-10a27 27 0 0 0-10-5.3c-3.6-1.2-7.7-1-10.7-1.8q-4.5-1.3-7-3.6a43 43 0 0 0 20.3-.2l-11.8-6.3z"/><path fill="#692F08" d="M160.6 126.3q-.6-1.6 4.1-3t14.2-2.7q-.1 2.5-4.7 3.9-4.7 1.5-13.6 1.7"/><path fill="#613308" d="M175 129q1-3.9 8.6-6a99 99 0 0 1 22.2-2.6q-1.4 4-9.2 6.1A94 94 0 0 1 175 129"/><path fill="#A1A1A1" d="m196 131.6 5.7-1.5 18.3-4.7-4.7 3.8 11 2-6 4.2 6.2 4.5q1.5 1 0 0-8 1.5-13.3 1.1c-3.6-.3-5.5-3-8-3-2.7 0-6.4 3.2-7.7 3q-1.8-.5.6-4.7zm-9.7-14.6q-.2-2.3 5.6-2.6 5.9-.5 17.7 1.2-7.5 2.6-13.3 3t-10-1.5"/><path fill="#616161" d="M173 114.1q6.2-5 15.6-8t22-3.8a14 14 0 0 0-7.5-3.6q-3.6-.4-7.4 1.8 1.2-3.5 3.6-5.9t6.2-3.6q-3.8-1.4-7.1-1.1-3.5.2-6.5 2 2.3-2.7 4.4-4.4t4.5-2.4q-5.6-1-10-.5-4.7.4-8.4 2.3l3.6-6.2q-5.9 1.1-9.5 4.2a17 17 0 0 0-5.6 8q4.3-.1 6.2 1.1 1.9 1.1 1.5 3.6a28 28 0 0 0-5.3 5.6q-1.5 2.1-.3 3l6.8-1z"/><path fill="#9F6021" d="M195.2 108.8q.6-1.5 3.8-2t8.9 0q-1 2.6-4.2 3.2-3.2.5-8.5-1.2"/><path d="M134.9 281.3c-4 .5-6.7.2-9.8-1.7-3.4-2-7.4-6.3-9.5-10-2.2-3.9-4.2-8.7-3.2-12.5s4.7-7.1 8.5-9.7c3.6-2.7 9.2-5.2 13.5-5.6q6.3-.9 12 2.7a28 28 0 0 1 9.7 10.7c1.4 3.7.2 7.6-1 11.2-1.2 3.7-3 7.4-6.3 10a38 38 0 0 1-14 5"/><path fill="#212121" d="M135 244c-3-.1-5.4 1.4-7 2.7a6 6 0 0 0-2.7 4.6c0 1.3.6 2.5 3 3.4 2.3.8 7.2 1.7 11 1.5 3.6-.4 9.7-1.4 11-3 1-1.6-1.7-4.8-4.2-6.3a27 27 0 0 0-11-3"/><path fill="#613308" d="M137.7 311q-3.2 7.7-5 14c-1 4.3 1.5 7-1.9 11.3q-5.4 6.2-19.5 13.7 3 3.6 3.9 6.8.9 3.4 0 6.4 6-.6 8.3 1c1.4 1-.5 3.6.5 4.8.8 1 1.4 1.7 4.9 2s12.4.3 16 0 4-1 5-2c.9-1.2-1.2-3.9.4-4.9q2.2-1.5 8.3-1a10 10 0 0 1 0-6.3q1-3.2 4-6.8-14.3-7.5-19.6-13.7c-3.6-4.2-1-7-2-11.2q-1.3-6.4-3.3-14.2"/></g></g></switch></svg>