<svg xmlns="http://www.w3.org/2000/svg" viewBox="0 0 400 400" fill="none" stroke="#1a1a1a" stroke-width="8" stroke-linecap="round" stroke-linejoin="round">
  <path d="M190,150 C120,110 60,140 70,190 C80,235 150,220 190,180 Z" fill="#cc8bff" />
  <path d="M210,150 C280,110 340,140 330,190 C320,235 250,220 210,180 Z" fill="#a78bfa" />
  <path d="M190,215 C140,220 100,260 120,290 C140,315 185,285 195,240 Z" fill="#54a0ff" />
  <path d="M210,215 C260,220 300,260 280,290 C260,315 215,285 205,240 Z" fill="#4ecdc4" />
  <ellipse cx="200" cy="205" rx="12" ry="95" fill="#2d2a4a" />
  <path d="M195,120 Q178,88 162,94 M205,120 Q222,88 238,94" />
  <circle cx="150" cy="165" r="7" fill="#ffd93d" />
  <circle cx="250" cy="165" r="7" fill="#ffd93d" />
</svg>
