<svg xmlns="http://www.w3.org/2000/svg" viewBox="0 0 400 400" fill="none" stroke="#1a1a1a" stroke-width="8" stroke-linecap="round" stroke-linejoin="round">
  <path d="M100,140 L140,40 L170,130 Z" fill="#ffb454" />
  <path d="M300,140 L260,40 L230,130 Z" fill="#ffb454" />
  <circle cx="200" cy="210" r="110" fill="#ffb454" />
  <circle cx="160" cy="190" r="12" fill="#1a1a1a" />
  <circle cx="240" cy="190" r="12" fill="#1a1a1a" />
  <path d="M190,220 L210,220 L200,235 Z" fill="#ff6b6b" />
  <path d="M200,235 Q185,250 165,240" />
  <path d="M200,235 Q215,250 235,240" />
  <path d="M130,222 L58,212" />
  <path d="M130,234 L55,234" />
  <path d="M130,246 L58,258" />
  <path d="M270,222 L342,212" />
  <path d="M270,234 L345,234" />
  <path d="M270,246 L342,258" />
</svg>
