<svg xmlns="http://www.w3.org/2000/svg" viewBox="0 0 400 400" fill="none" stroke="#1a1a1a" stroke-width="7" stroke-linecap="round" stroke-linejoin="round">
  <circle cx="152" cy="45" r="9" fill="#ffffff" />
  <circle cx="152" cy="64" r="9" fill="#ffffff" />
  <circle cx="248" cy="45" r="9" fill="#ffffff" />
  <circle cx="248" cy="64" r="9" fill="#ffffff" />
  <rect x="162" y="32" width="76" height="40" rx="6" fill="#8d6e63" />
  <rect x="176" y="60" width="48" height="73" fill="#8d6e63" />
  <path d="M200,112 C252,112 272,152 266,192 C260,224 298,240 298,288 C298,338 254,366 200,366 C146,366 102,338 102,288 C102,240 140,224 134,192 C128,152 148,112 200,112 Z" fill="#ffb454" />
  <path d="M176,82 L224,82 M176,102 L224,102 M176,122 L224,122" />
  <circle cx="200" cy="268" r="48" fill="#ff6b6b" />
  <circle cx="200" cy="268" r="34" fill="#8d6e63" />
  <rect x="160" y="325" width="80" height="22" rx="6" fill="#8d6e63" />
  <line x1="186" y1="66" x2="180" y2="332" />
  <line x1="195" y1="66" x2="193" y2="332" />
  <line x1="205" y1="66" x2="207" y2="332" />
  <line x1="214" y1="66" x2="220" y2="332" />
</svg>
