<svg xmlns="http://www.w3.org/2000/svg" viewBox="0 0 400 400" fill="none" stroke="#1a1a1a" stroke-width="7" stroke-linecap="round" stroke-linejoin="round">
  <circle cx="88" cy="140" r="55" fill="#b0bec5" />
  <circle cx="312" cy="140" r="55" fill="#b0bec5" />
  <circle cx="200" cy="215" r="120" fill="#b0bec5" />
  <circle cx="70" cy="130" r="30" fill="#ffb3c9" />
  <circle cx="330" cy="130" r="30" fill="#ffb3c9" />
  <circle cx="112" cy="258" r="16" fill="#ffb3c9" />
  <circle cx="288" cy="258" r="16" fill="#ffb3c9" />
  <circle cx="148" cy="196" r="20" fill="#ffffff" />
  <circle cx="252" cy="196" r="20" fill="#ffffff" />
  <circle cx="148" cy="196" r="11" fill="#1a1a1a" />
  <circle cx="252" cy="196" r="11" fill="#1a1a1a" />
  <ellipse cx="200" cy="250" rx="40" ry="50" fill="#1a1a1a" />
  <ellipse cx="188" cy="232" rx="10" ry="8" fill="#ffffff" />
  <path d="M200,302 L200,314 M200,314 Q184,328 170,318 M200,314 Q216,328 230,318" />
  <path d="M150,110 Q162,88 174,108 M226,108 Q238,88 250,110" />
</svg>
