<svg xmlns="http://www.w3.org/2000/svg" viewBox="0 0 400 400" fill="none" stroke="#1a1a1a" stroke-width="7" stroke-linecap="round" stroke-linejoin="round">
  <path d="M152,70 L44,42 L44,98 Z" fill="#ffd93d" />
  <path d="M248,70 L356,42 L356,98 Z" fill="#ffd93d" />
  <path d="M35,366 Q70,320 120,332 L280,332 Q330,320 365,366 Z" fill="#8d6e63" />
  <path d="M135,332 L152,122 L248,122 L265,332 Z" fill="#ffffff" />
  <path d="M148,172 L252,172 L255,212 L145,212 Z" fill="#ff6b6b" />
  <path d="M141,262 L259,262 L263,302 L137,302 Z" fill="#ff6b6b" />
  <circle cx="200" cy="145" r="14" fill="#ffd93d" />
  <circle cx="200" cy="238" r="16" fill="#ffd93d" />
  <path d="M180,332 L180,300 Q200,274 222,300 L222,332 Z" fill="#8d6e63" />
  <rect x="124" y="102" width="152" height="20" fill="#ffd93d" />
  <rect x="152" y="58" width="96" height="44" fill="#a8e6ff" />
  <path d="M176,58 L176,102 M224,58 L224,102 M152,80 L248,80" />
  <path d="M146,58 L254,58 L200,30 Z" fill="#ff6b6b" />
  <path d="M60,352 Q90,338 120,352 M280,352 Q310,338 340,352" />
</svg>
