<svg xmlns="http://www.w3.org/2000/svg" viewBox="0 0 400 400" fill="none" stroke="#1a1a1a" stroke-width="8" stroke-linecap="round" stroke-linejoin="round">
  <circle cx="200" cy="90" r="55" fill="#cc7a3d" />
  <circle cx="264.6" cy="110" r="55" fill="#cc7a3d" />
  <circle cx="304.6" cy="166" r="55" fill="#cc7a3d" />
  <circle cx="304.6" cy="234" r="55" fill="#cc7a3d" />
  <circle cx="264.6" cy="289" r="55" fill="#cc7a3d" />
  <circle cx="200" cy="310" r="55" fill="#cc7a3d" />
  <circle cx="135.4" cy="289" r="55" fill="#cc7a3d" />
  <circle cx="95.4" cy="234" r="55" fill="#cc7a3d" />
  <circle cx="95.4" cy="166" r="55" fill="#cc7a3d" />
  <circle cx="135.4" cy="111" r="55" fill="#cc7a3d" />
  <circle cx="200" cy="200" r="95" fill="#e0a868" />
  <circle cx="170" cy="190" r="11" fill="#1a1a1a" />
  <circle cx="230" cy="190" r="11" fill="#1a1a1a" />
  <path d="M188,215 L212,215 L200,228 Z" fill="#a9714f" />
  <path d="M200,228 Q188,242 170,236" />
  <path d="M200,228 Q212,242 230,236" />
  <path d="M150,220 L90,212 M150,232 L88,232 M150,244 L90,254" />
  <path d="M250,220 L310,212 M250,232 L312,232 M250,244 L310,254" />
</svg>
