<svg xmlns="http://www.w3.org/2000/svg" viewBox="0 0 400 400" fill="none" stroke="#1a1a1a" stroke-width="8" stroke-linecap="round" stroke-linejoin="round">
  <path d="M50,320 A150,150 0 0 1 350,320" stroke="#ff6b6b" stroke-width="18" />
  <path d="M72,320 A128,128 0 0 1 328,320" stroke="#ff9f43" stroke-width="18" />
  <path d="M94,320 A106,106 0 0 1 306,320" stroke="#ffd93d" stroke-width="18" />
  <path d="M116,320 A84,84 0 0 1 284,320" stroke="#6bcb77" stroke-width="18" />
  <path d="M138,320 A62,62 0 0 1 262,320" stroke="#54a0ff" stroke-width="18" />
  <path d="M160,320 A40,40 0 0 1 240,320" stroke="#a78bfa" stroke-width="18" />
  <circle cx="55" cy="330" r="30" fill="#fff6e0" />
  <circle cx="90" cy="315" r="38" fill="#fff6e0" />
  <circle cx="130" cy="332" r="26" fill="#fff6e0" />
  <circle cx="345" cy="330" r="30" fill="#fff6e0" />
  <circle cx="310" cy="315" r="38" fill="#fff6e0" />
  <circle cx="270" cy="332" r="26" fill="#fff6e0" />
</svg>
