<svg xmlns="http://www.w3.org/2000/svg" viewBox="0 0 400 400" fill="none" stroke="#1a1a1a" stroke-width="8" stroke-linecap="round" stroke-linejoin="round">
  <path d="M200,80 L200,50" />
  <circle cx="200" cy="42" r="10" fill="#ff6b6b" />
  <rect x="140" y="80" width="120" height="100" rx="16" fill="#a8e6ff" />
  <rect x="163" y="113" width="22" height="22" fill="#4ecdc4" />
  <rect x="215" y="113" width="22" height="22" fill="#4ecdc4" />
  <rect x="173" y="153" width="54" height="10" fill="#2d2a4a" />
  <path d="M188,153 L188,163 M212,153 L212,163" stroke="#a8e6ff" />
  <rect x="130" y="200" width="140" height="110" rx="14" fill="#74c7ec" />
  <circle cx="200" cy="248" r="20" fill="#ffd93d" />
  <rect x="160" y="278" width="20" height="20" fill="#4ecdc4" />
  <rect x="220" y="278" width="20" height="20" fill="#4ecdc4" />
  <rect x="88" y="210" width="30" height="90" rx="10" fill="#a8e6ff" />
  <rect x="282" y="210" width="30" height="90" rx="10" fill="#a8e6ff" />
  <rect x="150" y="310" width="30" height="55" rx="8" fill="#b8c1cc" />
  <rect x="220" y="310" width="30" height="55" rx="8" fill="#b8c1cc" />
</svg>
