<svg xmlns="http://www.w3.org/2000/svg" viewBox="0 0 400 400" fill="none" stroke="#1a1a1a" stroke-width="7" stroke-linecap="round" stroke-linejoin="round">
  <path d="M70,225 L34,186 L34,264 Z" fill="#b0bec5" />
  <path d="M100,186 L60,130 L126,156 Z" fill="#ff6b6b" />
  <path d="M100,264 L60,320 L126,294 Z" fill="#ff6b6b" />
  <ellipse cx="200" cy="225" rx="138" ry="72" fill="#ffd93d" />
  <rect x="168" y="122" width="72" height="64" fill="#ff6b6b" />
  <circle cx="204" cy="152" r="16" fill="#a8e6ff" />
  <rect x="222" y="88" width="14" height="36" fill="#b0bec5" />
  <path d="M229,92 L264,92" />
  <circle cx="135" cy="228" r="25" fill="#a8e6ff" />
  <circle cx="200" cy="238" r="25" fill="#a8e6ff" />
  <circle cx="265" cy="228" r="25" fill="#a8e6ff" />
  <path d="M312,186 Q326,228 312,270" />
  <circle cx="296" cy="108" r="16" fill="#a8e6ff" />
  <circle cx="330" cy="74" r="11" fill="#a8e6ff" />
  <circle cx="354" cy="46" r="8" fill="#a8e6ff" />
</svg>
