<svg xmlns="http://www.w3.org/2000/svg" viewBox="0 0 400 400" fill="none" stroke="#1a1a1a" stroke-width="7" stroke-linecap="round" stroke-linejoin="round">
  <circle cx="296" cy="76" r="23" fill="#ffffff" />
  <circle cx="334" cy="47" r="16" fill="#ffffff" />
  <circle cx="360" cy="26" r="10" fill="#ffffff" />
  <rect x="40" y="285" width="316" height="26" fill="#8d6e63" />
  <rect x="52" y="130" width="110" height="155" fill="#54a0ff" />
  <rect x="76" y="156" width="64" height="52" fill="#a8e6ff" />
  <rect x="162" y="185" width="170" height="100" fill="#ff6b6b" />
  <rect x="314" y="176" width="26" height="118" fill="#ffd93d" />
  <path d="M196,186 Q196,148 226,148 Q256,148 256,186 Z" fill="#ffd93d" />
  <rect x="266" y="130" width="48" height="58" fill="#b0bec5" />
  <rect x="256" y="110" width="68" height="22" fill="#1a1a1a" />
  <circle cx="100" cy="325" r="40" fill="#1a1a1a" />
  <circle cx="200" cy="332" r="33" fill="#1a1a1a" />
  <circle cx="290" cy="332" r="33" fill="#1a1a1a" />
  <circle cx="100" cy="325" r="17" fill="#ffd93d" />
  <circle cx="200" cy="332" r="14" fill="#ffd93d" />
  <circle cx="290" cy="332" r="14" fill="#ffd93d" />
</svg>
