<svg xmlns="http://www.w3.org/2000/svg" viewBox="0 0 400 400" fill="none" stroke="#1a1a1a" stroke-width="7" stroke-linecap="round" stroke-linejoin="round">
  <path d="M150,152 L250,152 L285,330 L115,330 Z" fill="#ffffff" />
  <path d="M138,152 Q200,52 262,152 Z" fill="#ff6b6b" />
  <circle cx="200" cy="122" r="12" fill="#a8e6ff" />
  <rect x="94" y="330" width="212" height="34" fill="#6bcB77" />
  <rect x="178" y="262" width="48" height="68" fill="#8d6e63" />
  <circle cx="216" cy="298" r="6" fill="#ffd93d" />
  <rect x="132" y="270" width="32" height="34" fill="#a8e6ff" />
  <rect x="236" y="270" width="32" height="34" fill="#a8e6ff" />
  <path d="M124,240 L276,240" />
  <polygon points="186,164 214,136 115,37 87,65" fill="#ffd93d" />
  <polygon points="214,164 186,136 285,37 313,65" fill="#ffd93d" />
  <polygon points="186,136 214,164 115,263 87,235" fill="#ffd93d" />
  <polygon points="214,136 186,164 285,263 313,235" fill="#ffd93d" />
  <circle cx="200" cy="152" r="18" fill="#1a1a1a" />
</svg>
