<svg xmlns="http://www.w3.org/2000/svg" xml:space="preserve" overflow="visible" viewBox="0 0 471.6 477"><g fill-rule="evenodd" clip-rule="evenodd"><path fill="#FF7F00" d="M233.5 203.8c5-7.9-2-15.4-5-22q-5-10.7-9-22c-5.7-16.3-7.7-32.7-11-51-2-11.3-7.4-21.8-9-33-2.2-15.5-2.2-32 0-48 7.6.8 4.9 11.8 8 17-6.3 48 16 91.5 28 129 3 9.1 3.8 17.7 6 27 2.1 8.7 7.4 16.2 8 25-12.6 11.2-19.9-8.5-26-16-.2-22.2-13.3-37.8-22-59q-5.2-12.4-10-26c-5.8-16.9-9-33.3-13-52-2.2-10.3-6.7-18.7-8-29-.5-4.1.4-9.6 0-15-.4-6.7-3.2-13.9-1-19 .9-.8.6-2.7 2-3 10.6-2.2 7.6 12.3 8 23 .8 19.2 5 38.3 9 57 3.3 15.3 4.5 27.9 10 40 1.6 3.5 4.3 6.3 6 10 11 23.7 12 51.6 29 67"/><path fill="#FF7F00" d="M159.5 40.8c8.8 1.3 4 11.4 4 16 0 8.8.2 20.4 2 28 1.7 6.9 6.9 13 9 20 3 9.7 3.3 20.3 7 30 3.5 8.9 8 17 11 26a131 131 0 0 0 11 26c4.8 8.3 7.5 16.7 12 24 6.6 10.5 17 17.6 18 30-5.5.4-7.3-5.6-10-9a282 282 0 0 1-36-58c-4.2-9.4-5.1-18.3-8-29-3.2-12.2-9.9-23.5-13-36-1.7-7-1.5-14.4-3-22-2.4-12.9-6.4-26.7-6-43v-3zm64 19c-5.2 16 2.2 29 6 44 4.8 18.6 8 34.3 13 52 2.1 7.5 3.7 16 6 23 2.4 7 6.7 13 9 20 2.4 7 2.5 16.3 10 19-3-12-4-23.5-6-36-2.3-15-11.5-29-15-45-1-4.3 0-8.8-1-13-1.2-5.5-3.5-11.3-5-17-3-10.9-6.7-21.2-4-35 15.4.9 7.1 14.3 8 27 .7 9.9 8 21.7 11 34 6 24.7 7.3 46.7 15 68 3.4 9.3 10.5 17.4 5 27q-6.1 1.8-14 2c-.4-10-8.4-18.4-11-27-2.7-8.8-2.6-17.7-5-27-3-11.8-7.2-23.5-11-37-1.2-4.3-1.8-8.8-3-13-3.5-12.2-11.3-23.5-14-36-1.3-6.3-.7-12.7-2-19-1-4.7-3.2-8.8-4-14-.3-1.6 1-1.7 1-3a12 12 0 0 1 11 6"/><path fill="#9DC8BA" d="M225.5 58.8q6.4 4 12 9c-.3 3-3.8 2.8-4 6-1.5 17.8 6 31.5 10 50 2.2 10.1 3.1 20.4 6 29 3.2 9.5 8.2 18.2 10 28 1.9 10.2 1.4 20.8 5 31-3.6-4.4-5-10.5-7-16a947 947 0 0 1-15-47c-5.2-17.4-8.2-34.6-13-52-3.9-14-8.4-21-4-38"/><path fill="#FF7F00" d="M281.5 115.8c1.5 15.7 0 33 1 48 .5 8 4 16.5 5 25 1.3 10-4 21.7 7 25 .3-26 15-46.2 10-77q4.5.4 8 2c3 16.4 3.3 28.3-2 44-1.7 5-5.4 10.1-7 15-3.5 10.3-1.5 20.8-6 30-5.3.6-7.6-1.8-13-1-3.8-22-6-43.6-9-66-2-14.2-1.1-32-5-45q.9-1 1-3c5.4-1 6.3 2.4 10 3"/><path fill="#006857" d="M284.5 118.8c8 3.6 7.7 15.6 19 16-1.7 13.5 1 26.8-2 40-2.3 10.5-10.5 22.3-8 37-7-4.5-3.2-14.6-4-22-1.6-15-8.8-31.6-4-48 0-2.8-2.7 2.4-2-2-.4-7.8 1.8-12.9 1-21m30 22c8.2 4.4 16.7 9.8 18 19 2.6 19-23.2 42.3-29 55-1.8-10 4.3-18.8 7-27 1-3.2 1-6.7 2-10 1.5-4.5 4.7-8 5-13 .4-7.9-4.5-14.5-3-24"/><path fill="#FF7F00" d="M374.5 201.8c-14.3 14.6-31.5 26.5-40 47 4 .1 8.6-3.4 13-6 7.4-4.4 15.4-7.6 19-16 4.7-2.2 7.7-2.2 12-5 6-4 10.5-16.3 16-15 2.8.7 5.6 3.8 4 10-1.1 4.2-8.7 6.3-14 10s-12.6 11.3-23 17c-4.1 2.2-8.9 4.2-13 7-7.5 5-12.3 13.3-22 7-2-3.7-.3-11-2-15a170 170 0 0 0 41-53c6.8.1 6.1 7.8 9 12"/><path fill="#9DC8BA" d="M373.5 192.8c8.5 2.8 17.7 4.9 22 12-1.5-1.2-2.5-1.2-4 0-6 4-7.3 11.1-13 15-3.7 2.5-9.2 3-13 6-3.6 2.8-5.1 7.4-9 10-6 3.9-14.5 5.3-20 11 10.5-16.9 24.7-30 39-43 .7-5-1.4-7.3-2-11"/><path fill="#FF7F00" d="M424.5 237.8c-7.6 10.3-22.1 13.2-35 18-12.7 4.7-26.8 8.2-38 14 3.5 6.3 11.1 1 16 1 4 0 7.7 1.8 12 2 6.8.2 14-3 22-4 12.7-1.8 24-.8 37-3 1.1 3.5 5 4.3 5 9-19.6-.4-38.2 4-56 5-9.7.5-19.2-2.1-29-2-9.2 0-19.3 4.9-28 0 1.4-4.9 6-6.8 8-11 18.6-9.1 46.2-13.6 65-25 4.5-2.8 14-11.3 21-4"/><path fill="#9DC8BA" d="M425.5 239.8c6.6 5.7 13.1 11.5 13 24-3.1-.2-7.4.7-9-1-4.8 3.8-12.8 2.3-22 3-6 .4-11.8 3.2-18 4-11.6 1.4-24-3-35 1 8.4-4.3 18.9-7 29-11 15.5-6.2 33.2-8.3 42-20"/><path d="M316.5 303.8q-50.6-22.4-101-45c2-2.3 7.3.9 12 3 24.4 10.8 52.1 23.4 78 35 3.7 1.6 9.4 2.7 11 7m7-1q-46.4-21.7-92-44c1.7-2.6 7.5 1.3 11 3 21.8 10.6 47.9 22.8 71 34 3.4 1.6 8.5 3.2 10 7m-114-25c0-1 1.2-.8 2-1q44.9 18.6 90 37c-3.2 2.3-7.8-.7-11-2-24.9-10.1-54.7-23.5-81-34"/><path fill="#FF7F00" d="M7.5 405.8c-2.4-5.6 3.9-7.3 7-10 9.1-8.1 20-16.7 31-24 14.8-10 29.3-20.3 45-29 23.5-13 47.4-26.4 73-38 4.3-2 8-5.2 12-7s10-1.2 12-6c-14.5.4-29 .4-42 3-.7.1-2 .6-3 1-13.5 4.8-26.1 8.1-38 13-34 14-57.7 42.8-86 65 7.6-19 25.5-34.5 43-47 5.9-4.2 11.4-9.5 17-13 12.7-7.9 29.4-13.9 45-20 11.7-4.6 23-7.3 38-10 4.5-.8 9.8-3 13-3 6 0 10.5 3.5 14 4 9.3 1.3 18.3-2.7 19 5 .6 5.9-16.7 12.9-20 14-3.8 1.2-7.9.8-12 2-19 5.5-38.3 17.5-57 27a347 347 0 0 0-52 31c-4.9 3.7-9.2 8.3-14 12q-10.5 8.3-22 16c-2.6 1.6-5.5 2.2-8 4-4.8 3.4-8 10.2-15 10m459-103c-40.9 2.6-82.7-7.5-123-6 4.2 5.3 13 6.5 20 8 7.4 1.5 15.3 3.8 23 5 6 .9 12.6 0 19 1 8.6 1.2 16.9 3.6 25 4 12 .5 24.7-3 34 3-5.3 8.4-18 3.4-27 3-4.4-.2-8.8.3-13 0-14-1-28-6.2-41-7-4.4-.3-8.9.6-13 0-7.3-1.1-14.4-5-21-7-7.3-2.3-15.5-2.1-19-8 .8-6.1 5-10.8 11-10a1225 1225 0 0 0 73 8c4.2.3 9.6.3 14 0 16.2-1 34.9-9.2 38 6"/><path fill="#006857" d="M467.5 305.8c0 3.3-1.7 5-1 9-4.4-.4-7.8-2.4-13-3-11-1.3-21.5 1.6-33 0-22.3-3.1-45.6-7.2-65-11 30.8-3.6 74.4 6.8 112 5"/><path fill="#FF7F00" d="M240.5 312.8c-2 8.8-11.7 10.8-18 14-7 3.5-15 6.6-22 10-6 3-10.8 8.6-17 12-5.3 2.9-11.8 4-17 7-8.5 5-16.2 11.3-25 16-18 9.4-34.1 19.4-50 32-7.3 5.8-15 15.3-26 13-.7-8.8 8.7-12.2 14-16 39.5-28.8 88.9-51.6 133-77-4.9-3.9-10.3.1-15 1-12.8 2.4-22.9 3.4-33 8-4.8 2.2-8.6 6-13 8-5.9 2.5-12.5 2.9-18 5-5.4 2-11 4-16 7-8.4 5-15.4 13.4-25 20-18.4 12.5-41.2 20.3-54 36-5.3 6.4-7 16.9-21 12-.5-5.9 6.1-9.7 10-13 8.8-7.6 19.2-13.3 30-20 5-3.1 8.2-7.5 13-11 6.5-4.8 15.6-7.9 23-13 7-4.9 13.1-12.1 20-16 2.5-1.4 7.4-2.2 11-4 4.9-2.5 9-7.4 14-10 13.2-7 30-9.3 46-13 17-4 35.3-6.5 50-11 3.1-1 3.6 1.1 6 3"/><path fill="#006857" d="M383.5 317.8c11.8-2.7 24 4 37 5s24.8-.2 37 2c4.3 1.6 6.6-4 8-2 .3 6.6-2.2 10.4-6 13-29.7-1.7-50.1-12.6-76-18"/><path fill="#FF7F00" d="M419.5 420.8c-10.8 3.8-13.7-8.2-19-13-3-2.7-7.1-4.3-10-7-9.2-8.8-13.8-22.6-25-30-4.2-2.8-11.6-6.2-16-10-6.7-6-11-15.5-20-19 6.8 18.6 20.5 33.5 34 47 8.1 8 12 13.3 18 24q2.8 5.2 6 10c4.2 6 12 10.4 11 19-6 5.6-13-1.4-13-8-18.5-18.9-28.6-46.2-49-63-4.6-15.5-15-25-22-38a9 9 0 0 1 4-4c15.5 1.8 22.5 12.1 31 21 11.9 4 17 11.8 28 21 5.8 4.8 12.7 9.9 17 15 2.8 3.3 4.2 8 7 11 7 7.2 19.6 8.5 18 24m-41 29c-.7 6.3-6.5 7.5-12 9-2.7-4.8-2.6-8.5-5-13-2.7-5.2-7.7-8.3-10-13-2.8-5.8-3-12.5-6-18-5.2-10-13.7-18.5-20-28-3.3-5-5.7-10.4-9-15-3.4-4.8-8.6-7.4-12-12-3.7-5-4.3-12.3-10-16-5 6.3.6 13.6 3 19 2.9 6.5 3.8 12.8 6 19 3 8.4 10 16 14 25l6 13c4.3 8.9 5.6 19 10 30 2.2 5.4 7.3 10 8 16q-3.7 3.8-12 3a285 285 0 0 0-21-53c-6.2-12.1-8.5-25.1-13-38-4.3-12.4-12.8-22.1-13-40 3-7.4 9.6-5.5 18-4 11 13.7 19 30.7 30 46 3.5 4.9 8 8.5 11 13 3.4 5 5 10.2 8 16 2.5 4.8 6.3 9.8 9 15 5.3 10.1 9.3 20.4 20 26m-141-112c.3 5.4.9 6 0 11-11.4 4.9-19.2 14.8-28 24-3.5 3.7-8.7 6.4-12 10-6.3 6.9-7 16.1-12 24-2.8 4.5-11 9.2-16 14-5.4 5.1-8.5 13.2-16 14-.4-2.6-.6-5.3-1-10 3.5-5.8 10.5-8.3 15-13 4.3-4.6 6.3-11.2 10-16 4.3-5.7 10.7-10.5 16-16 10-10.3 17.8-20.7 28-31-14.9.8-26.4 8.6-37 15a215 215 0 0 0-45 35c-7.9 8.2-14.1 16.8-29 18-3-6.5 3.4-9.8 7-13 8.7-7.8 16.3-15 26-22 4.8-3.5 10-5.9 15-9 19.7-12.4 39.2-26.9 62-33 2.3-1.7 5-3 7-5 5-.8 6 2.7 10 3m36 7c4.8 6.1 4.5 13.9 7 22 2 6.2 6 12.6 8 20 2.2 7.9 1.6 17.2 3 26l4 24a57 57 0 0 0 3 12c3.3 7.8 10.7 11.6 13 19-10.7 18.2-23.5-11.4-24-29 0-3.4 1.3-7.8 1-12-.6-9.6-6-17.3-8-26-2.5-10.8 1.6-23.2-6-28-4 15.1-6.9 35.4-1 53-3.9 11.2 2.9 23.7 0 34-4.9.1-9.6.2-12-2-3-5.7 2-9.5 3-15 2-10.7-.8-25.5 0-39 .3-5.2 1.6-9.5 2-15 1.5-20.3-6.6-38.5 7-44"/><path fill="#9DC8BA" d="M294.5 346.8c4.4 2.7 4.4 7 7 11 3.9 5.9 10.2 9.6 14 15 3.2 4.5 4.7 11 8 16 3 4.5 6.8 8.7 10 13a84 84 0 0 1 16 30c1.4 5.1 8.4 9.6 11 15 2.1 4.3 1.3 9.9 4 14-7.7 1.9-13.3 6-21 8-4.8-.2 1.7-1.8 0-5-8.1-13-13.8-33.6-21-49-2.5-5.5-4.9-11.4-8-17-2.8-5-7.2-10.3-9-15-1.9-5-2.5-11.3-5-17-3-6.9-6-10.8-6-19"/><path fill="#FF7F00" d="M244.5 350.8q1.8-.2 2 1c-.7 9.1-6.4 16.3-10 24-10.4 22.4-21.7 43.7-32 67-4.2 1-10.1 1.7-13-1 1.7-7.3 9.3-10.2 13-16 1.6-2.4 2.4-6.3 4-9 11.1-19 22.2-43 33-64 .8-.9 2.7-.6 3-2"/><path fill="#006857" d="M244.5 363.8c-5 30.6-5.5 74.5-38 81-2-.5 1-4.9 3-9 3-6.3 6-13.4 10-20 8.7-14.5 15.8-36.4 25-52"/><path fill="#9DC8BA" d="M274.5 375.8c4.7 1.8 2.2 10 3 18 1 10.3 7.9 20.4 9 30 1 7.9-.9 15.6 0 23 1.4 11.3 7.8 19.7 12 28-15.7.6-29.3-.8-32-13 3.7 2 6.5-.1 9-2 .7-27.2-7-55.6-1-84"/><path fill="#006857" d="M200.5 24.8c-7.5 13.5-4.7 35.9-2 54 1.6 10.3 6.2 21.1 8 32 3.9 22.8 7.5 43.4 16 62 4.3 9.3 11 18 11 28-6.5-5-9.7-14-13-22s-5.8-17.2-9-26c-6-16.3-15.8-32.8-19-50-1.1-6-.6-12.2-2-18-2.6-11-5.9-21.7-8-37-1-7.8 1.7-43.4-9-43-8 .3-5.8 11.5-5 18 1 8-.7 12.8 1 24 1.1 7.1 5.2 13.6 7 21 2 8 1.3 16.5 3 25s5.9 18.2 9 28c6 18.3 14.2 35.3 22 52 4.2 8.9 9.8 18.9 11 26 .6 3.1-.4 8.4 0 10 3.2 11.6 21 33.4 31 16-9.8-26.1-15.7-52.3-25-78a302 302 0 0 1-20-82c-.6-8.7 1.9-18.5 0-27 3 3 2.4 9.6 6 12-1.6 2.8-4.1 5.2-4 7 4.6 10 4 20.1 6 31 1.7 9.1 6.2 19.2 10 29a523 523 0 0 1 18 59c2.8 10.8 3.6 21.9 7 31 3.1 8.2 9.3 15.1 9 24 5.5 2 9.6-.4 16 0 8.3-15.5-2.8-27.6-7-43-2.5-9.3-5.4-19.2-7-29-1.7-10.6-2.2-21.3-5-31-4.2-14.7-15-27-8-44 4.2 4.8 5.7 12.3 8 19 3.5 3.2 9.7 3.6 14 6-.1 3.9-1.3 9.2-1 14 .4 5.8 3.4 11 4 17 .2 2.5-1 5.7-1 8 0 10.7 4.1 21.4 5 32 1.4 16.9 1.2 34 6 49 3.7.7 11.6 2.4 14 1 3 .9 2.7 5.3 7 5 5.8-2 9.3-7.8 13-12 10.9-12.4 23.5-25 36-37 4.3 0 9-.3 12 1-8.5 10.6-12.7 23.7-21 34-6.4 7.9-15.1 13-21 21v14c2.7 3.6 4.7 6.9 12 6 5-.6 10.8-6.8 16-10s10.9-5.7 16-9c7.5-4.9 14-12.2 22-17 6.2-3.7 12.2-5.3 11-15 7.5 4.4 2.5 21.4 15 21-14.6 11.8-35.7 17.4-56 25-13.3 5-25.8 7.4-31 20 4.2 8.1 13.5 5 22 4 12-1.3 25.9 1.9 40 1 16.1-1 32.1-5.8 50-4 4.4 1.1 3.6-3 5-5a51 51 0 0 1 17 19 410 410 0 0 1-87-1c-13.5-1.3-46.2-13.6-46 9 1 3.3-3.1 1.5-5 2 1.1 5.8 6 8 10 11-48-18.4-99-42.4-148-63 17.6-11.2 28.6 10.8 44 8 .7-8.5-6-14.6-11-20-5.1-5.7-10.6-10.8-15-17-26.1-36.9-41.5-86.2-47-146 5.3 12 4.4 25.1 8 38 3.3 11.8 10.2 22.7 13 34 1.6 6.2 1 12.9 3 19s6.1 13.5 10 19 8.8 16 13 23a197 197 0 0 0 13 19c4.5 5.8 7.7 15 16 16 5.1-10.2-6.8-18.9-12-26-5.7-8-10-18-15-27-5.2-9.3-8.2-19-12-30-3.5-10.2-9.6-19.4-13-29-3-8.7-3.2-20.5-7-31-3.4-9.5-8.1-17-9-26-1.1-12.3 3.3-25.5-2-35-3.8-2.1-5.9.8-9 2 1.4-11.3 3.2-29.7 12-35 15-9.1 25.5 10 34 19m105 272c-25.9-11.6-53.6-24.2-78-35-4.7-2.1-10-5.3-12-3q50.4 22.7 101 45c-1.6-4.3-7.3-5.4-11-7m8-1c-23.1-11.2-49.2-23.4-71-34-3.5-1.7-9.3-5.6-11-3q45.6 22.3 92 44c-1.5-3.8-6.7-5.4-10-7"/><path d="M259.5 98.8c16.3 6.7 31.5 14.5 39 30 14.8 4.1 38.5 15.3 39 33 .4 17-18.9 39.8-28 53-3.6 5.2-9 10.8-5 17 4.8-.4 8.7-7.4 13-12q5.9-6.1 13-13c7.6-7.6 17.5-23.5 28-25 7.6-1 11.4 4 18 7 6.7 3.1 13.9 3.9 19 8a41 41 0 0 1 15 27c15.4 8.6 31.5 16.5 32 40 8.6 8 20.7 15.2 26 29 4.2 11 4.9 36.9-3 43-7.4 5.7-24.2-.3-35-3-33.9-8.8-71-20.6-101-29-.7 4.6 9.8 6.8 11 13 1.6 3.2.4 6.2-1 9 23.2 16.3 51 32.3 76 49 12.2 8.1 25.2 23.1 15 43-1.8 3.4-7 7-10 11-4.4 5.5-9.1 15.7-14 20a63 63 0 0 1-23 12c-5.6 1.3-11.3-.2-17 1-11.1 2.2-15.6 9.7-30 10-5 0-8.9-2.4-14-2-4.4.3-8.5 3.7-13 5-16.8 4.5-41.3 3-46-13-39.3-11.3-3-78.1-7-110-7 2-7.6 14.5-9 22-3.2 17.4-4.4 34.4-11 49-6.2 13.7-21.1 30.8-43 23-5.5-2-9-7.9-15-9-5.2-1-11 1-16 1a47 47 0 0 1-36-15c-15.3 3-25.2 8-40 7-9.9-.7-15.8-8.4-23-9-8.4-.8-19.6 6.4-31 6-20.8-.8-35.6-14.4-32-38 5-32.3 34.6-55.7 62-76 33.7-25 70-39.6 121-39-1.2-4.6-7.6-8-6-17 1.8-10.2 15.9-14 28-11 9.6 2.4 13.5 11.9 22 10 1.1-8.6-8.7-15.8-14-22a211 211 0 0 1-40-72 339 339 0 0 1-15-60c-3.2-22-7.2-47.7-5-69 1.6-15.5 12.5-39.6 32-31 5.3 2.3 18.2 17.8 22 24 4.6 7.5 7.4 16.2 10 23 20.9 9.8 36.6 24.7 42 50m-93-93c-8.8 5.3-10.6 23.7-12 35 3.1-1.2 5.2-4.1 9-2 5.3 9.5.9 22.7 2 35 .9 9 5.6 16.4 9 26 3.8 10.5 4 22.3 7 31 3.4 9.6 9.5 18.8 13 29 3.8 11 6.8 20.7 12 30 5 9 9.3 19 15 27 5.2 7.1 17.1 15.8 12 26-8.3-1.1-11.5-10.2-16-16a220 220 0 0 1-13-19c-4.2-7-9-17.4-13-23-3.9-5.5-8-13-10-19s-1.4-12.8-3-19c-2.8-11.3-9.6-22.2-13-34-3.6-12.9-2.7-26-8-38 5.5 59.8 20.9 109.1 47 146 4.4 6.2 9.9 11.3 15 17 5 5.4 11.7 11.5 11 20-15.4 2.8-26.4-19.3-44-8 49 20.6 100 44.6 148 63-4-3-8.9-5.2-10-11 1.9-.5 6 1.3 5-2-.2-22.6 32.5-10.3 46-9a410 410 0 0 0 87 1 51 51 0 0 0-17-19c-1.4 2-.6 6.1-5 5-17.9-1.9-33.9 3-50 4-14.1.9-28-2.3-40-1-8.5 1-17.8 4.1-22-4 5.2-12.6 17.7-15 31-20 20.3-7.6 41.4-13.2 56-25-12.5.4-7.5-16.6-15-21 1.2 9.7-4.8 11.3-11 15-8 4.8-14.5 12.1-22 17-5.1 3.3-10.9 5.8-16 9-5.2 3.2-11 9.3-16 10-7.3.9-9.3-2.4-12-6v-14c5.9-8 14.6-13.1 21-21 8.3-10.3 12.5-23.4 21-34-3-1.3-7.7-1-12-1a623 623 0 0 0-36 37c-3.7 4.2-7.2 10-13 12-4.3.3-4-4.1-7-5-2.4 1.4-10.3-.4-14-1-4.8-15-4.6-32.1-6-49-.9-10.6-5-21.3-5-32 0-2.3 1.2-5.5 1-8-.6-6-3.6-11.2-4-17-.3-4.8.9-10.1 1-14-4.3-2.4-10.5-2.8-14-6-2.3-6.7-3.8-14.2-8-19-7 17 3.8 29.3 8 44 2.8 9.7 3.3 20.4 5 31 1.6 9.8 4.5 19.7 7 29 4.2 15.4 15.3 27.5 7 43-6.4-.4-10.5 2-16 0 .3-9-5.9-15.8-9-24-3.4-9.1-4.2-20.2-7-31a523 523 0 0 0-18-59c-3.8-9.8-8.3-19.9-10-29-2-10.9-1.3-21-6-31-.1-1.8 2.4-4.2 4-7-3.6-2.4-3-9-6-12 1.9 8.5-.6 18.3 0 27a302 302 0 0 0 20 82c9.3 25.7 15.2 51.9 25 78-10 17.4-27.8-4.4-31-16-.4-1.6.6-6.9 0-10-1.2-7.1-6.8-17.1-11-26-7.8-16.7-16-33.7-22-52-3.1-9.8-7.3-19.6-9-28-1.7-8.5-1-17-3-25-1.8-7.4-5.9-13.9-7-21-1.7-11.2 0-16-1-24-.8-6.5-3-17.7 5-18 10.7-.4 8 35.2 9 43 2.1 15.3 5.4 26 8 37 1.4 5.8.9 12 2 18 3.2 17.2 13 33.6 19 50 3.2 8.8 5.6 18 9 26s6.5 17 13 22c0-10-6.7-18.7-11-28-8.5-18.6-12-39.2-16-62-1.8-10.9-6.4-21.7-8-32-2.7-18.1-5.5-40.5 2-54-8.4-9-19-28.1-34-19m38 131c-1.7-3.7-4.4-6.5-6-10-5.5-12.1-6.7-24.7-10-40-4-18.7-8.2-37.8-9-57-.4-10.7 2.6-25.2-8-23-1.4.3-1.1 2.2-2 3-2.2 5.2.6 12.3 1 19 .4 5.4-.5 10.9 0 15 1.3 10.3 5.8 18.7 8 29 4 18.7 7.2 35.1 13 52q4.8 13.6 10 26c8.7 21.2 21.8 36.8 22 59 6.1 7.6 13.4 27.2 26 16-.6-8.8-5.9-16.3-8-25-2.2-9.3-3-17.9-6-27-12-37.5-34.3-81-28-129-3.1-5.2-.4-16.2-8-17-2.2 16-2.2 32.5 0 48 1.6 11.2 7 21.7 9 33 3.3 18.3 5.3 34.7 11 51 2.6 7.4 5.8 15 9 22 3 6.6 10 14.1 5 22-17-15.4-18-43.3-29-67m-47-96v3c-.4 16.3 3.6 30.1 6 43 1.5 7.6 1.3 15 3 22 3.1 12.5 9.8 23.8 13 36 2.9 10.8 3.8 19.6 8 29a282 282 0 0 0 36 58c2.7 3.4 4.5 9.4 10 9-1-12.4-11.4-19.5-18-30-4.5-7.3-7.2-15.7-12-24a131 131 0 0 1-11-26c-3-9-7.5-17.1-11-26-3.7-9.7-4-20.3-7-30-2.1-7-7.3-13.1-9-20-1.8-7.6-2-19.2-2-28 0-4.6 4.8-14.6-4-16zm55 13c0 1.3-1.3 1.4-1 3 .8 5.2 3 9.3 4 14 1.3 6.3.7 12.7 2 19 2.7 12.5 10.5 23.8 14 36 1.2 4.2 1.8 8.7 3 13 3.8 13.5 8 25.2 11 37 2.4 9.3 2.3 18.2 5 27 2.6 8.6 10.6 17 11 27q7.9-.2 14-2c5.5-9.5-1.6-17.7-5-27-7.7-21.3-9-43.3-15-68-3-12.3-10.3-24.1-11-34-.9-12.7 7.4-26.1-8-27-2.7 13.8 1 24.1 4 35 1.5 5.7 3.8 11.5 5 17 1 4.2 0 8.7 1 13 3.5 16 12.7 30 15 45 2 12.5 3 24 6 36-7.5-2.7-7.6-12-10-19-2.3-7-6.6-13-9-20-2.3-7-3.9-15.5-6-23-5-17.7-8.2-33.4-13-52-3.8-15-11.2-28-6-44a12 12 0 0 0-11-6m17 43c4.8 17.4 7.8 34.6 13 52 5.6 18.7 9.9 32.7 15 47 2 5.5 3.4 11.6 7 16-3.6-10.2-3.1-20.8-5-31-1.8-9.8-6.8-18.5-10-28-2.9-8.6-3.8-18.9-6-29-4-18.5-11.5-32.2-10-50 .2-3.2 3.7-3 4-6a82 82 0 0 0-12-9c-4.4 17 .2 24.1 4 38m42 16q-.1 2-1 3c3.9 13 3 30.8 5 45 3 22.4 5.2 44 9 66 5.4-.8 7.7 1.6 13 1 4.5-9.2 2.5-19.7 6-30 1.6-4.9 5.3-10 7-15 5.3-15.7 5-27.6 2-44q-3.6-1.6-8-2c5 30.8-9.7 51-10 77-11-3.3-5.7-15-7-25-1-8.4-4.5-17-5-25-1-15 .5-32.3-1-48-3.7-.6-4.6-4-10-3m12 27c-.7 4.4 2-.8 2 2-4.8 16.4 2.4 33 4 48 .8 7.4-3 17.5 4 22-2.5-14.7 5.7-26.5 8-37 3-13.3.3-26.5 2-40-11.3-.4-11-12.4-19-16 .8 8.1-1.4 13.2-1 21m34 25c-.3 5-3.5 8.5-5 13-1 3.3-1 6.8-2 10-2.7 8.2-8.8 17-7 27 5.8-12.7 31.6-36 29-55-1.3-9.2-9.8-14.6-18-19-1.5 9.5 3.5 16.1 3 24m48 25a170 170 0 0 1-41 53c1.7 4 0 11.3 2 15 9.7 6.3 14.5-2 22-7 4.1-2.8 8.9-4.8 13-7 10.4-5.7 17.7-13.3 23-17s12.9-5.8 14-10c1.6-6.2-1.2-9.3-4-10-5.5-1.3-10 11-16 15-4.3 2.8-7.3 2.8-12 5-3.6 8.4-11.6 11.6-19 16-4.4 2.6-9 6.1-13 6 8.5-20.5 25.7-32.4 40-47-2.9-4.2-2.2-11.9-9-12m10 14a207 207 0 0 0-39 43c5.5-5.7 14-7.1 20-11 3.9-2.6 5.4-7.1 9-10 3.8-3 9.3-3.5 13-6 5.7-3.9 7-11 13-15 1.5-1.2 2.5-1.2 4 0-4.3-7.1-13.5-9.2-22-12 .6 3.7 2.7 6 2 11m28 38c-18.8 11.4-46.4 15.9-65 25-2 4.3-6.5 6.1-8 11 8.7 4.9 18.8 0 28 0 9.8-.1 19.4 2.5 29 2 17.8-1 36.4-5.4 56-5 0-4.7-3.9-5.5-5-9-13 2.2-24.3 1.2-37 3-8 1-15.2 4.2-22 4-4.3-.2-8-2-12-2-4.9 0-12.5 5.3-16-1 11.2-5.8 25.3-9.3 38-14 12.9-4.8 27.4-7.7 35-18-7-7.3-16.5 1.2-21 4m-20 18c-10.1 4-20.6 6.7-29 11 11-4 23.4.4 35-1 6.2-.8 12-3.6 18-4 9.2-.7 17.2.8 22-3 1.6 1.7 5.9.8 9 1 .1-12.5-6.4-18.3-13-24-8.8 11.7-26.5 13.9-42 20m-196 0c.3-3-11.1-4.6-6-3 44 21.2 92.5 39.7 137 59 6.1 2.6 11.8 7.8 19 7-50.7-20.3-98.7-43.3-150-63m26 26c28 10.9 57.5 21.9 85 33 12 4.8 26 11.3 37 7-51.8-22.2-102.7-45.3-156-66q-1.1-.2-1 1c4.4 14.4 21.2 19.6 35 25m136 61c3.7 2.8 9 4 13 7 5.4 4.2 10 11.1 16 16 6.8 5.5 13.6 9.5 18 15 2.2 2.8 2.7 6.5 5 9 5 5.4 13.4 8 17 14 2.9 4.8 4.4 13.1 0 16-8.5 5.4-12.6-8.3-15-11-3.7-4.2-9.6-5.7-14-10-5.8-5.7-9.4-14.3-15-21-11.5-13.9-33.6-22.1-41-36-1-.4-2.4-1.2-1 0 6.5 14.4 18.3 23.6 26 37a74 74 0 0 1 20 20c6.7 13 16.8 24.6 23 38a13 13 0 0 1-9 6c-5.2-1.8-7.2-6.8-9-12-12.9-13-19.8-29-31-43-6.4-8-14-15.6-19-24-2.6-4.3-3.4-9.6-6-14-3.9-6.7-12-11.1-14-19-2.6-5 5.7-7.4 1-8-34.7-14.3-70.7-27.3-106-41 .3 2.3 1.6 3.7 1 7-14.1 13-34.9 14.3-53 23a766 766 0 0 0-72 39c-5 3-10.8 5-15 8-5 3.6-9 9-14 13q-8 6.2-16 12c-5 3.7-11.7 6.2-17 10-4.8 3.5-9.2 12.1-17 9 .3-11.1 12.9-17.5 19-22 17.6-13.1 36-27 54-38 16.4-10.1 34.7-17.7 52-27 17.7-9.6 34.6-19.7 53-27-12.6 3.1-29.3 1.6-42 5-5.8 1.5-12 5-18 7-6.4 2-13.2 3.7-19 6-24 9.7-41.3 27-59 42-4.4 3.7-9.7 7-14 11s-6.9 11.5-14 12c-.6-8.9 6.2-16.5 12-23 10-11.2 19-18.8 31-27 4.4-3 8.6-6.9 13-10 9.5-6.8 20.4-11.4 31-16a243 243 0 0 1 52-17c7.2-1.4 14.7-4.2 20-4 6.9.3 13 6.2 20 4-7.8-7.6-20.6-6.1-34-5-46.1 3.7-84.2 26.8-113 48-11 8-22.5 17-29 25-13.2 16-31 55-6 69 11.9-18.6 35.5-28.8 53-42 5-3.8 11-5.8 16-9 2.3-1.5 3.6-4.4 6-6 4.8-3.3 8.7-5.2 12-8 4-3.4 9.2-8 13-10 3-1.6 7-1.5 10-3 9-4.6 14.6-10.8 23-14 9.1-3.5 18.6-4.6 30-7 19.2-4.1 39-10 62-13 9.8 17.2-19 18-27 27-11.4 1.3-18.6 10-28 15-10.3 5.5-20.4 9.6-30 16-9.8 6.5-19.8 11.1-30 17-19.5 11.2-35 28.7-56 38 10.2 8 29.5 7.7 44 4 5.3-1.4 9-4.5 13-4 9.8 1.2 15 16.4 26 13a31 31 0 0 1-1-10c11-7.1 17.6-18.1 25-28 2.9-3.9 6.7-7.5 10-11 9.3-10.1 18-21 27-29 1.5-1.4 8.4-4 4-5-9.3 2-14.4 5.5-21 9-7.8 4.1-12.2 7-18 11-8.6 6-17.7 11-25 17-14.7 12.1-22 32-44 30-1.6-11.3 2.6-10.8 10-17 4-3.4 7.4-7.7 10-10 18.7-16.4 41.1-26.7 61-39 4.1-2.6 8.1-6 12-8 4.1-2.1 11.3-3.4 18-6 9-3.6 12.1-8 19-1 5.9 16-9 17.8-18 26-4.2 3.8-8.2 10.1-13 15-3.7 3.6-8.4 5.7-11 9-3.9 4.9-6.3 15.4-9 20-4.9 8.1-17 15.6-23 22-2 2-7.5 6.5-4 7 10-.8 23.7-3.4 27 5a100 100 0 0 0 21-27c2.7-5 4.2-10.9 7-16 3.2-5.9 8.5-10.5 11-16 5.2-11.5 7.2-25.6 18-33 5 3.3 7.1-2 13 1 2.5 10.4-1.3 25.6-4 41-4.3 24.3-15.8 59.4 7 68-3.5-7.6 2-14.5 3-22 1-9-1.5-19.5-1-30 .9-19.3 5.3-37 1-55 2.6-3.7 4.3-8.4 9-10 7.3 5.2 7.7 16.7 11 27 3 9.4 8 19.4 9 30 1 10.4 1.6 16.3 3 25 1 6.2 1.3 11.9 2 17 1.6 11.6 12.2 17 16 25 1 3.7-2.5 2.8-2 6 4.5-2.1 11.8-4.8 16-4-5-11.2-6.5-22.3-11-33-4.3-10.3-11-19.6-15-30-4.2-11-5.9-23-11-34s-11-22.1-9-36c4.1-5.9 11.9-5 20-3 7.2 10.1 16.2 23.6 23 34 2.7 4.2 4.1 9 7 13 4.6 6.3 11 11 15 18 4.3 7.4 6.4 14 10 20 4.2 7 9.6 20.4 14 25 2.6 2.7 9.4 3.8 10 8 1 6.9-8.4 7.9-5 10a52 52 0 0 0 35-23c4.9-7.7 14.6-16.9 17-23 9-23-11.4-33-25-42l-47-31c-8.4-5.6-16.7-14-25-10 8.3 2 11.9 10.5 19 16m-327 49c2.5-1.8 5.4-2.4 8-4 7.8-5 14.9-10.6 22-16 4.8-3.7 9.1-8.3 14-12a347 347 0 0 1 52-31c18.7-9.5 38-21.5 57-27 4.1-1.2 8.2-.8 12-2 3.3-1.1 20.6-8.1 20-14-.7-7.7-9.7-3.7-19-5-3.5-.5-8-4-14-4-3.2 0-8.5 2.2-13 3-15 2.7-26.3 5.4-38 10-15.6 6.1-32.3 12.1-45 20-5.6 3.5-11.1 8.8-17 13-17.5 12.5-35.4 28-43 47 28.3-22.2 52-51 86-65 11.9-4.9 24.5-8.2 38-13 1-.4 2.3-.9 3-1 13-2.6 27.5-2.6 42-3-2 4.8-8 4.2-12 6s-7.7 5-12 7c-25.6 11.6-49.5 25-73 38-15.7 8.7-30.2 19-45 29a295 295 0 0 0-31 24c-3.1 2.7-9.4 4.4-7 10 7 .2 10.2-6.6 15-10m406-99c-4.4.3-9.8.3-14 0a1285 1285 0 0 1-73-8c-6-.8-10.2 3.9-11 10 3.5 5.9 11.7 5.7 19 8 6.6 2 13.7 5.9 21 7 4.1.6 8.6-.3 13 0 13 .8 27 6 41 7 4.2.3 8.6-.2 13 0 9 .4 21.6 5.5 27-3-9.3-6-22-2.5-34-3-8.1-.4-16.4-2.8-25-4-6.4-1-13-.1-19-1-7.7-1.2-15.6-3.5-23-5-7-1.5-15.8-2.7-20-8 40.3-1.5 82.1 8.7 123 6-3.1-15.2-21.7-7-38-6m-73 4c19.4 3.8 42.7 7.9 65 11 11.5 1.6 22-1.3 33 0 5.2.6 8.6 2.6 13 3-.7-4 1-5.7 1-9-37.6 1.8-81.2-8.6-112-5m-121 9c-14.7 4.5-33 7-50 11-16 3.7-32.8 6-46 13-5 2.6-9.1 7.5-14 10-3.6 1.8-8.5 2.6-11 4-6.9 3.9-13 11.1-20 16-7.4 5.1-16.5 8.2-23 13-4.8 3.5-8 7.9-13 11-10.8 6.7-21.2 12.4-30 20-3.9 3.3-10.5 7.1-10 13 14 4.9 15.7-5.6 21-12 12.8-15.7 35.6-23.5 54-36 9.6-6.6 16.6-15 25-20 5-3 10.6-5 16-7 5.5-2.1 12.1-2.5 18-5 4.4-1.9 8.2-5.8 13-8 10.1-4.6 20.2-5.6 33-8 4.7-.9 10.1-4.9 15-1-44.1 25.4-93.5 48.2-133 77-5.3 3.9-14.7 7.2-14 16 11 2.3 18.7-7.2 26-13a312 312 0 0 1 50-32c8.8-4.7 16.6-11 25-16 5.2-3 11.7-4.1 17-7 6.2-3.4 11-9 17-12 7-3.4 15-6.5 22-10 6.3-3.2 16-5.2 18-14-2.5-1.9-3-4-6-3m225 26c3.8-2.5 6.3-6.4 6-13-1.4-2-3.7 3.6-8 2-12.2-2.2-24.1-1-37-2-13-1-25.2-7.7-37-5 25.9 5.4 46.3 16.3 76 18m-377 61c8.3-6.5 17.3-12 25-17 9-5.8 16.6-9.5 24-14q14.2-8.8 28-16c17-8.7 34-16.7 48-25 1.7.2 2.5-1.2 0-1-11.6 4.3-23 3.3-34 7-8.4 2.8-15 9-23 12-9.7 3.7-20.7 5.2-30 10-6.7 3.4-12.7 10-19 15-22.4 17.7-55.5 27.2-68 53-1.5 1.4-4.6 1.3-6 3 13.6 2.9 25-3.3 37-5-3.6-12.7 10.8-16.3 18-22m319 0c-2.8-3-4.2-7.7-7-11-4.2-5.1-11.2-10.2-17-15-11-9.2-16.1-17-28-21-8.5-8.9-15.5-19.2-31-21a9 9 0 0 0-4 4c7 13 17.4 22.5 22 38 20.4 16.8 30.5 44.1 49 63 0 6.6 7 13.5 13 8 1-8.6-6.8-13-11-19q-3.2-4.8-6-10a93 93 0 0 0-18-24c-13.5-13.5-27.2-28.4-34-47 9 3.5 13.3 13 20 19 4.4 3.8 11.8 7.2 16 10 11.2 7.4 15.8 21.2 25 30 2.9 2.7 7 4.3 10 7 5.3 4.8 8.2 16.8 19 13 1.6-15.5-11-16.8-18-24m-43 27c-2.7-5.2-6.5-10.2-9-15-3-5.8-4.6-11.1-8-16-3-4.5-7.5-8.1-11-13-11-15.3-19-32.3-30-46-8.4-1.5-15-3.4-18 4 .2 17.9 8.7 27.6 13 40 4.5 12.9 6.8 25.9 13 38a285 285 0 0 1 21 53q8.3.7 12-3c-.7-6-5.8-10.6-8-16-4.4-11-5.7-21.1-10-30l-6-13c-4-9-11-16.6-14-25-2.2-6.2-3.1-12.5-6-19-2.4-5.4-8-12.7-3-19 5.7 3.7 6.3 11 10 16 3.4 4.6 8.6 7.2 12 12 3.3 4.6 5.7 10 9 15 6.3 9.5 14.8 18 20 28 3 5.5 3.2 12.2 6 18 2.3 4.7 7.3 7.8 10 13 2.4 4.5 2.3 8.2 5 13 5.5-1.5 11.3-2.7 12-9-10.7-5.6-14.7-15.9-20-26m-131-89c-2 2-4.7 3.3-7 5-22.8 6.1-42.3 20.6-62 33-5 3.1-10.2 5.5-15 9-9.7 7-17.3 14.2-26 22-3.6 3.2-10 6.5-7 13 14.9-1.2 21.1-9.8 29-18a215 215 0 0 1 45-35c10.6-6.4 22.1-14.2 37-15-10.2 10.3-18 20.7-28 31-5.3 5.5-11.7 10.3-16 16-3.7 4.8-5.7 11.4-10 16-4.5 4.7-11.5 7.2-15 13 .4 4.7.6 7.4 1 10 7.5-.8 10.6-8.9 16-14 5-4.8 13.2-9.5 16-14 5-7.9 5.7-17.1 12-24 3.3-3.6 8.5-6.3 12-10 8.8-9.2 16.6-19.1 28-24 .9-5 .3-5.6 0-11-4-.3-5-3.7-10-3m39 54c-.4 5.5-1.7 9.8-2 15-.8 13.5 2 28.3 0 39-1 5.5-6 9.3-3 15 2.4 2.2 7.1 2.1 12 2 2.8-10.3-3.9-22.8 0-34-5.9-17.6-3-37.9 1-53 7.6 4.8 3.5 17.2 6 28 2 8.7 7.4 16.4 8 26 .2 4.2-1 8.6-1 12 .5 17.6 13.3 47.2 24 29-2.3-7.4-9.7-11.2-13-19a57 57 0 0 1-3-12l-4-24c-1.4-8.8-.8-18.1-3-26-2-7.4-6-13.8-8-20-2.5-8.1-2.2-15.9-7-22-13.6 5.5-5.5 23.7-7 44m34-23c2.5 5.7 3.1 12 5 17 1.8 4.7 6.2 10 9 15 3.1 5.6 5.5 11.5 8 17 7.2 15.4 12.9 36 21 49 1.7 3.2-4.8 4.8 0 5 7.7-2 13.3-6.1 21-8-2.7-4.1-1.9-9.7-4-14-2.6-5.4-9.6-9.9-11-15a84 84 0 0 0-16-30c-3.2-4.3-7-8.5-10-13-3.3-5-4.8-11.5-8-16-3.8-5.4-10.1-9.1-14-15-2.6-4-2.6-8.3-7-11 0 8.2 3 12.2 6 19m-59-13c-10.8 21-21.9 45-33 64-1.6 2.7-2.4 6.6-4 9-3.7 5.8-11.3 8.7-13 16 2.9 2.7 8.8 2 13 1 10.3-23.3 21.6-44.6 32-67 3.6-7.7 9.3-14.9 10-24q-.2-1.3-2-1c-.3 1.4-2.2 1.1-3 2m-22 63c-4 6.6-7 13.7-10 20-2 4.1-5 8.5-3 9 32.5-6.5 33-50.4 38-81-9.2 15.5-16.3 37.5-25 52m56 44c-2.5 1.9-5.3 4-9 2 2.7 12.2 16.3 13.6 32 13-4.2-8.2-10.6-16.7-12-28-.9-7.4 1-15.1 0-23-1.1-9.5-8-19.6-9-30-.8-8 1.7-16.2-3-18-6 28.4 1.7 56.8 1 84"/><path fill="#006857" d="M337.5 322.8c-7.2.8-12.9-4.4-19-7-44.5-19.3-93-37.8-137-59-5.1-1.6 6.4 0 6 3 51.3 19.7 99.3 42.7 150 63m-7 8c8.3-4 16.6 4.4 25 10l47 31c13.6 9 34 19 25 42-2.4 6.1-12.1 15.3-17 23a52 52 0 0 1-35 23c-3.4-2.1 6-3.1 5-10-.6-4.2-7.4-5.3-10-8-4.4-4.6-9.8-18-14-25-3.6-6-5.7-12.6-10-20-4-7-10.4-11.7-15-18-2.9-4-4.3-8.9-7-13-6.8-10.4-15.8-23.9-23-34-8.1-2-15.9-2.9-20 3-2 13.9 3.9 25 9 36s6.8 23 11 34c4 10.4 10.7 19.7 15 30 4.5 10.7 6 21.8 11 33-4.2-.8-11.5 1.9-16 4-.5-3.2 3-2.3 2-6-3.7-8-14.4-13.4-16-25-.7-5.2-1-10.8-2-17-1.4-8.7-2-14.6-3-25-1-10.6-6-20.6-9-30-3.3-10.3-3.7-21.8-11-27-4.7 1.6-6.4 6.2-9 10 4.3 18 0 35.7-1 55-.5 10.5 2.1 21 1 30-1 7.5-6.4 14.4-3 22-22.8-8.6-11.3-43.8-7-68 2.7-15.4 6.5-30.6 4-41-5.8-3-8 2.3-13-1-10.8 7.4-12.8 21.5-18 33-2.5 5.5-7.8 10.1-11 16-2.8 5.1-4.3 11-7 16a100 100 0 0 1-21 27c-3.3-8.4-17-5.8-27-5-3.5-.5 2-5 4-7 6-6.4 18.1-13.9 23-22 2.8-4.6 5.1-15.1 9-20 2.6-3.4 7.3-5.4 11-9 4.9-4.9 8.8-11.2 13-15 9-8.3 24-10 18-26-6.8-7-10-2.6-19 1-6.6 2.6-13.9 3.9-18 6-3.8 2-7.9 5.4-12 8-19.8 12.3-42.3 22.6-61 39-2.6 2.3-6 6.6-10 10-7.4 6.2-11.5 5.7-10 17 22 1.9 29.3-17.9 44-30 7.3-6 16.4-11 25-17 5.8-4 10.3-6.9 18-11 6.6-3.6 11.7-7 21-9 4.5 1-2.4 3.6-4 5-9 8-17.7 18.9-27 29-3.3 3.5-7.1 7.1-10 11-7.4 9.9-14 20.9-25 28a31 31 0 0 0 1 10c-11 3.4-16.2-11.8-26-13-4-.5-7.7 2.6-13 4-14.5 3.7-33.8 4-44-4 21-9.3 36.5-26.8 56-38 10.2-5.9 20.2-10.5 30-17 9.7-6.4 19.7-10.5 30-16 9.4-5 16.7-13.7 28-15 8-9 36.8-9.8 27-27-23 3-42.7 8.9-62 13-11.4 2.4-20.9 3.4-30 7-8.3 3.2-14 9.3-23 14-2.9 1.5-7 1.4-10 3-3.7 2-9 6.6-13 10-3.3 2.8-7.2 4.7-12 8-2.4 1.6-3.7 4.5-6 6-5 3.2-11 5.2-16 9-17.5 13.2-41.1 23.4-53 42-25-14-7.1-53 6-69 6.5-8 18-17 29-25 28.8-21.2 66.9-44.3 113-48 13.4-1.1 26.2-2.7 34 5-7 2.2-13.1-3.7-20-4-5.3-.2-12.8 2.6-20 4a243 243 0 0 0-52 17c-10.6 4.6-21.5 9.2-31 16-4.4 3.1-8.6 7-13 10a161 161 0 0 0-31 27c-5.8 6.5-12.6 14-12 23 7.1-.5 9.7-8 14-12s9.6-7.3 14-11c17.7-15 35-32.3 59-42 5.8-2.3 12.6-4 19-6 6-2 12.2-5.5 18-7 12.7-3.4 29.4-1.9 42-5-18.4 7.3-35.3 17.4-53 27-17.3 9.3-35.5 16.9-52 27-18 11-36.3 24.9-54 38-6 4.5-18.7 10.9-19 22 7.8 3.1 12.2-5.5 17-9 5.3-3.8 12-6.3 17-10q8-5.8 16-12c5-4 9-9.4 14-13 4.3-3 10-5 15-8a765 765 0 0 1 72-39c18.1-8.7 38.9-10 53-23 .6-3.3-.7-4.7-1-7 35.3 13.7 71.3 26.7 106 41 4.7.6-3.6 3-1 8 2 7.9 10.1 12.3 14 19 2.6 4.3 3.4 9.7 6 14 5 8.4 12.6 16 19 24 11.2 14 18.1 30 31 43 1.8 5.2 3.8 10.2 9 12 2.9-.4 6.9-2.3 9-6-6.2-13.4-16.3-25-23-38a74 74 0 0 0-20-20c-7.7-13.4-19.5-22.6-26-37-1.4-1.2 0-.4 1 0 7.4 13.8 29.5 22.1 41 36 5.6 6.7 9.2 15.3 15 21 4.4 4.3 10.3 5.8 14 10 2.4 2.7 6.5 16.4 15 11 4.4-2.9 2.9-11.2 0-16-3.6-6-12-8.6-17-14-2.3-2.5-2.8-6.2-5-9-4.4-5.5-11.2-9.5-18-15-6-4.9-10.6-11.9-16-16-4-3-9.3-4.2-13-7-7-5.5-10.7-14-19-16"/><path fill="#9DC8BA" d="M64.5 418.8c-12 1.7-23.4 7.9-37 5 1.4-1.7 4.5-1.6 6-3 12.5-25.8 45.6-35.3 68-53 6.3-5 12.3-11.6 19-15 9.3-4.8 20.3-6.3 30-10 8-3 14.6-9.2 23-12 11-3.7 22.4-2.7 34-7 2.5-.2 1.7 1.2 0 1-14 8.3-31 16.3-48 25a412 412 0 0 0-28 16c-7.4 4.5-15 8.2-24 14-7.7 5-16.7 10.5-25 17-7.2 5.7-21.6 9.3-18 22"/><path fill="#006857" d="M178.5 260.8q-.1-1.2 1-1c53.3 20.7 104.2 43.8 156 66-11 4.3-25-2.2-37-7-27.5-11.1-57-22.1-85-33-13.8-5.4-30.6-10.6-35-25m112 51c3.2 1.3 7.8 4.3 11 2q-45.2-18.4-90-37c-.8.2-2 0-2 1 26.3 10.5 56.1 23.9 81 34"/><path fill="none" stroke="#000" stroke-width="3" d="M190.6 246.5s-19.3-20.7-25.5-32.3-36-78.5-36-78.5m50.3 122.9s-23.8-11.3-37.1-13.5-83.5-2.3-83.5-2.3"/></g></svg>