<svg xmlns="http://www.w3.org/2000/svg" xmlns:xlink="http://www.w3.org/1999/xlink" version="1.0" viewBox="0 0 718 403.3"><defs><linearGradient id="a"><stop offset="0" style="stop-color:#fff"/><stop offset="1" style="stop-color:#fff;stop-opacity:0"/></linearGradient><linearGradient id="b" x1="-169" x2="-206.5" y1="408.9" y2="343.4" gradientUnits="userSpaceOnUse"><stop offset="0" style="stop-color:#000"/><stop offset="1" style="stop-color:#000;stop-opacity:0"/></linearGradient><linearGradient id="e" x1="1275" x2="1275" y1="144.6" y2="199.6" gradientTransform="matrix(.38456 0 0 2.6004 -29.4 3.4)" gradientUnits="userSpaceOnUse" spreadMethod="reflect"><stop offset="0" style="stop-color:#6f736f"/><stop offset="1" style="stop-color:#333535"/></linearGradient><linearGradient id="i" x1="51.9" x2="16.6" y1="713" y2="519.6" gradientTransform="scale(2.7034 .3699)" gradientUnits="userSpaceOnUse"><stop offset="0" style="stop-color:#f8fffb;stop-opacity:.69681"/><stop offset="1" style="stop-color:#f8fffb;stop-opacity:0"/></linearGradient><linearGradient id="k" x1="8.9" x2="15.6" y1="512.2" y2="493.8" gradientTransform="scale(2.3361 .42807)" gradientUnits="userSpaceOnUse"><stop offset="0" style="stop-color:#fff"/><stop offset="1" style="stop-color:#fff;stop-opacity:0"/></linearGradient><linearGradient id="l" x1="5.9" x2="57.6" y1="382" y2="381" gradientTransform="scale(1.6983 .58881)" gradientUnits="userSpaceOnUse" spreadMethod="reflect"><stop offset="0" style="stop-color:#fdfffd"/><stop offset=".2" style="stop-color:#fdfffd;stop-opacity:.49804"/><stop offset="1" style="stop-color:#fdfffd;stop-opacity:0"/></linearGradient><linearGradient xlink:href="#a" id="o" x1="442.7" x2="443.1" y1="1158.6" y2="1197.3" gradientTransform="scale(2.075 .48193)" gradientUnits="userSpaceOnUse"/><linearGradient xlink:href="#a" id="p" x1="442.7" x2="443.1" y1="1158.6" y2="1197.3" gradientTransform="matrix(2.075 0 0 -.48193 .5 1255.3)" gradientUnits="userSpaceOnUse"/><linearGradient id="q" x1="868.4" x2="973.6" y1="248.3" y2="248.3" gradientUnits="userSpaceOnUse" spreadMethod="reflect"><stop offset="0" style="stop-color:#a0a394"/><stop offset="1" style="stop-color:#e8e0e0"/></linearGradient><radialGradient id="d" cx="1025" cy="1004" r="479" gradientTransform="matrix(-.00259 -.08844 .97397 0 -743.7 1010)" gradientUnits="userSpaceOnUse"><stop offset="0" style="stop-color:#252622"/><stop offset="1" style="stop-color:#252622;stop-opacity:0"/></radialGradient><radialGradient id="h" cx="915.5" cy="627.7" r="1.1" gradientUnits="userSpaceOnUse" spreadMethod="reflect"><stop offset="0" style="stop-color:#58595a"/><stop offset=".5" style="stop-color:#636363"/><stop offset=".6" style="stop-color:#3e3e3e"/><stop offset="1" style="stop-color:#58595a"/></radialGradient><radialGradient id="j" cx="733" cy="1148.3" r="267.4" gradientTransform="matrix(.00613 -.15524 1.2124 .02665 -663.7 996.2)" gradientUnits="userSpaceOnUse"><stop offset="0" style="stop-color:#5c5b5f"/><stop offset="1" style="stop-color:#5c5b5f;stop-opacity:0"/></radialGradient><radialGradient id="n" cx="798.8" cy="405.6" r="22.2" gradientTransform="scale(.74935 1.3345)" gradientUnits="userSpaceOnUse"><stop offset="0" style="stop-color:#ffffdf;stop-opacity:.64894"/><stop offset="1" style="stop-color:#ffffdf;stop-opacity:0"/></radialGradient><radialGradient id="s" cx="1041.4" cy="288.1" r="7.4" gradientUnits="userSpaceOnUse"><stop offset="0" style="stop-color:#344948"/><stop offset="1" style="stop-color:#1a2424"/></radialGradient><path id="c" d="M-143.5 295.9a30 30 0 1 1-60 0 30 30 0 0 1 60 0"/><path id="f" d="M928.5 627.8a14 14 0 1 1-28 0 14 14 0 0 1 28 0"/><path id="m" d="M802.1 553.4a151.6 151.6 0 1 1-303.1 0 151.6 151.6 0 0 1 303.1 0"/><path id="r" d="M946.5 250.2a7.4 7.4 0 1 1-14.8 0 7.4 7.4 0 0 1 14.8 0"/></defs><g transform="translate(132.5 -95)scale(.54203)"><path d="M-205 308.9s-21.5 47.5-27.5 60-9 33.5 8 36.5 24.5 5 36.5 4.5 19.5-14.5 20-16.5 1-31-1.5-36.5-8.5-40-8.5-40l-10 3s11 45 10 49.5-3.5 22.5-8 25-23.5 2.5-26 0-4-13.5-.5-22.5 24.5-53 24.5-53z" style="fill-rule:evenodd;fill-opacity:.99617;stroke:url(#b);stroke-width:1px;fill:#c8c6bf"/><use xlink:href="#c" style="fill-rule:evenodd;color:#000;fill-opacity:.99608;fill:#dbe0dd" transform="translate(-2 2.5)"/><use xlink:href="#c" style="fill-rule:evenodd;color:#000;fill-opacity:.99608;fill:#9e9f99" transform="translate(11)"/><path d="M326.3 877c-264.3 0-478.8 9.5-478.8 21.2S62 919.4 326.3 919.4c109.2 0 208.7-1.7 289.3-4.4-115.7-4.1-203.6-19.2-212-37.6-25.4-.2-50.8-.4-77.3-.4" style="fill-rule:evenodd;color:#000;fill:url(#d)"/><path d="m580.6 373.5 56.4-20.9s230.5 5.5 272.8 6.8c42.3 1.4 81.9 23.7 94.6 32.3s-423.8-18.2-423.8-18.2" style="fill-rule:evenodd;fill:#2c2c29;fill-opacity:.99608"/><path d="M938.8 359.5h-59.6v-16.7l51 .1c8.4 0 8.6 7.2 8.6 8.3z" style="fill-rule:evenodd;fill-opacity:.99608;stroke:#fff;stroke-width:.3;fill:#5c5b5f"/><path d="M842 284h27.6L887 385.7l-27.5.3z" style="fill-rule:evenodd;fill:#3b3c39"/><path d="m468.8 380.8-1 15.6 542 8.8-5.9-10.7z" style="fill-rule:evenodd;fill:#656a6c"/><path d="M507.7 386.7c1-20.7 6-26.7 19.6-32.7l323-159.6c20.2-13 60.5-19 68.7-19 8.1 0 38.6 0 57.2 6.5s35.4 13 46.3 21.2l15.8 20.2-292 51.7z" style="fill-rule:evenodd;fill:#b8bab7"/><path d="M507.2 381.2s-1.7-11.4 5.4-14.1 7.6-3.3 7.6-3.3l352.5-174.3s22.9-8.2 39.2-9.3c16.3-1 37 0 45.8 1.7l8.7 1.6L738 279.4 526.2 380.7z" style="fill-rule:evenodd;fill:#747675"/><path d="M892 343.4c-3.6-.4-5.4 3.6-6.2 5.7-2-.5-4.2-.1-3.2 2.4.7 2.2-.4 6.2 1.4 7 16.5.6 33.3.5 49.7 1 .2-3.7.1-6.7.4-10.5-2.2-.4-6 .9-7-.7-.4-4-5.6-6.5-8.8-4-2.8 1.1-1.3 5.9-4.7 4.7h-16c0-3-2.6-5.7-5.6-5.6m-3.5 5.7c2.2.3 5.6-.6 7 .5-.3 3.3-5 4-6.4 1zm29.5 0c2 .6 6.7-1.4 6.8 1.3-1 3-5.4 2.6-6.4-.2z" style="fill-rule:evenodd;color:#000;fill-opacity:.36872;fill:#000"/><path d="m527.9 376.9 394.9-191.2 28.3-5s33.2 3.9 48.5 11.5 44.1 25.6 53.9 37 26.7 33.3 26.7 37.6-11.4 7.1-11.4 7.1l-272.4-6L566 385.6z" style="fill-rule:evenodd;fill:#2f302f"/><path d="M561.6 372.5s12.6-8.7 16.4-7.6 6.5 5.5 9.8 4.4l3.2-1.1 263.2-138.4s3.8-2.2 6-2.2c0 0 15.2 3.3 15.2 9.8s125.3-.5 125.3-.5l12-11 20.1.6s16.4 12 22.9 24.6 21.8 33.7 14.7 51.2c-7.1 17.4-26.7 25.6-40.3 20.1s-21.8-18-25.1-25.6c-3.2-7.6-4.9-9.8-4.9-9.8s-166.1 1.6-181.4 1.6c-15.2 0-9.8-3.8-13-8.7s-9.8-7.6-18.5-3.3c-8.8 4.4-204.3 105.2-204.3 105.2z" style="fill-rule:evenodd;fill:#3b3d3c"/><rect width="47.5" height="321.2" x="438.9" y="376" rx="7.6" ry="7.6" style="color:#000;display:block;fill:url(#e)"/><path d="m960 521.2-500.8 7.5v50.7l323.6 101.3 228.4-17.8 66.6-116.1s-3.9-6.2-4.6-14c-.8-7.7 3.8-7.7 3.8-7.7z" style="fill-rule:evenodd;stroke:#000;stroke-width:.25pt;fill:#000"/><path d="M499.4 531.3h-41s1.5-120 1.5-132.4 2.3-12.4 25.6-12.4 518.7 10.8 518.7 10.8 34.1 15.5 54.2 55.8 20.2 77.4 20.2 77.4l-85.2-.8-2.3 102.2-138.6 15.5-90.6 1.6z" style="fill-rule:evenodd;fill:#363839"/><path d="m457.6 536.7 77.4 1.5 226.9 113 229.2-1.5s2.3-1.5 2.3-8.5 3.9-84.4 3.9-95.2 0-10.9 17.8-10.9 65 .8 65 .8 0 24.8-1.5 38.7c-1.6 14-18.6 69.7-44.9 93-26.4 23.2-68.2 49.5-106.1 50.3-38 .8-416.6-1.6-442.9-1.6s-27.1-3-27.1-26.3z" style="fill-rule:evenodd;fill:#474a48"/><path d="M993.5 630.9a74.5 74.5 0 1 1-149 0 74.5 74.5 0 0 1 149 0" style="color:#000;display:block;fill:#3b3d3c"/><use xlink:href="#f" style="color:#000;display:block;fill:url(#h)" transform="translate(-2559.7 -1757.4)scale(3.8029)"/><use xlink:href="#f" style="color:#000;fill-opacity:.8719;display:block;fill:#4a4c4b" transform="translate(-1093.7 -753.2)scale(2.2042)"/><use xlink:href="#f" style="color:#000;fill-opacity:.84298;display:block;fill:#d7d8d2" transform="translate(4.4 1.7)"/><path d="M759.7 555.3a107.4 107.4 0 1 1-214.9 0 107.4 107.4 0 0 1 214.9 0" style="color:#000;fill-opacity:.69421;fill:#ffffdf" transform="rotate(-131.1 653.7 554.4)"/><path d="m-158.8 247.3 117.7 1.9-7.5 22.4 226 1.9-1.8-54.2 265.2-7.5 1.9 109.7-89.5 1-2.2-75.2H203.6l-9.3 72.9-293.3-9.4z" style="fill-rule:evenodd;fill:#000"/><path d="m440.8 211.8-263.6 16.6 10.8 24.5h13.2l149.8-5.6 2.2 75.2 89.5-1z" style="fill-rule:evenodd;fill:#676c6f"/><path d="m-152.2 281.9-18.7-14 1-18.7c.9-20.6 7.4-24.3 22.3-26.2s65.4-6.5 65.4-6.5l330.6-26.2s152.3-5.6 175.6-5.6 20.6 14 20.6 14l-269 2.8-315.7 36.5z" style="fill-rule:evenodd;stroke:#000;stroke-width:.25pt;fill:#a6a7a2"/><path d="M367.5 189.3c-39.9 1.8-130.8 4.6-155 7.4s-294.2 24.1-322 28.8-42.7 9.2-42.7 9.2l-1 11.2 34.4 21.3s10.2 3.7 48.3 0 256.1-28.7 271.9-30.6 95.6-12 111.4-13c15.7-1 81.6-5.6 88.1-5.6h28.8c7.4 0 8.3 5.6 8.3 16.7v91l7.5 1s-1-105-1-122.6-10.2-17.6-37-16.7c-27 1-40 1.9-40 1.9" style="fill-rule:evenodd;fill:#696c6a"/><path d="M367.5 189.3c-39.9 1.8-130.8 4.6-155 7.4s-294.2 24.1-322 28.8-42.7 9.2-42.7 9.2l-1 11.2 34.4 21.3s10.2 3.7 48.3 0 256.1-28.7 271.9-30.6 95.6-12 111.4-13c15.7-1 81.6-5.6 88.1-5.6h28.8c7.4 0 14.8 3.7 14.8-13.9s-10.2-17.6-37-16.7c-27 1-40 1.9-40 1.9" style="fill-rule:evenodd;fill:url(#i)"/><path d="M-54 265.1s-10.3-7.9-16.4-21.8-4.3-22.5-7.9-23.7-11.5-2.4-11.5-2.4 8.5-3 11.5-3 38.8-1.9 47.3-4.3 157.8-15.8 165.1-15.8 83.2-4.8 91.7-4.8h32.8c4.8 0-43.1 4.2-46.2 5.4-3 1.2-32.7 48-32.7 48l-18.9 35.8-202 3.6z" style="fill-rule:evenodd;fill:#83898c"/><rect width="217.2" height="98.4" x="206" y="807.4" rx="19.5" ry="19.5" style="color:#000;display:block;fill:#252622"/><path d="M1001.9 881.8c0 17.2-119.7 31.2-267.3 31.2s-267.3-14-267.3-31.2 119.7-31.1 267.3-31.1 267.3 14 267.3 31.1" style="fill-rule:evenodd;color:#000;fill:url(#j)" transform="matrix(1.0349 0 0 1.3405 -80.9 -307.6)"/><path d="M-173.6 410.2a19.4 19.4 0 0 0-19.4 19.4v12.8l15.7 4-15.7 6v263.2l15.7 5.4-15.7 6v23.8a19.4 19.4 0 0 0 39 0V429.6c0-10.8-8.8-19.4-19.6-19.4" style="color:#000;display:block;fill:#595a57"/><path d="M38 257.7c14.5.6-45.9-1.4-56.4-4a57 57 0 0 1-16.4-6.5s2-27 2.6-37.4 6.6-11.2 15.8-13.8 46-6 71.5-6c25.6 0 68.3 2.7 76.8 5.3s13.1 9.2 13.1 9.2l4.6 41.3s-7.2 6-13.8 7.3-53.1 4.6-70.8 5.2c-17.8.7-27-.6-27-.6" style="fill-rule:evenodd;fill:#bdbfbd"/><path d="M110.3 199c0 4-24.7 7.5-55.2 7.5S0 203 0 198.9s24.7-7.5 55.1-7.5 55.2 3.3 55.2 7.5" style="color:#000;display:block;fill:#b6b9b6" transform="matrix(1 0 0 1.1304 0 -27)"/><path d="M98.4 198.3c0 3.4-17.7 6.2-39.7 6.2-21.9 0-39.7-2.8-39.7-6.2s17.8-6.3 39.7-6.3 39.7 2.8 39.7 6.3" style="color:#000;display:block;fill:#e2e4de" transform="matrix(1.0496 0 0 1.2632 -4.9 -53.8)"/><rect width="308.1" height="581" x="137.3" y="310.8" rx="12.4" ry="12.4" style="color:#000;display:block;fill:#2f2f2f"/><rect width="141.2" height="119" x="237.7" y="241.2" rx="9.8" ry="9.8" style="color:#000;display:block;fill:#1f201d"/><path d="M281.7 253.5c1.3 0 51-4 54.4-4s10.1-.7 13.3.5c3.2 1.3 9.2 5.1 11.4 8.6s5.4 6.6 5.7 13c.3 6.3 1.6 49.3 1.6 52.2 0 2.8 1 7.9-.7 10.7-1.5 2.9-8.2 2.3-15.4 4.2s-28.2 5.3-33 6.6c-4.7 1.3-19.6 6.3-24.3 6.6-4.8.4-25.7-.3-29.8-.3s-10.1-.6-11-3.8.6-39.2 0-47.8.6-27.8 1.5-29.7 3.5-8.6 8.9-11.7c5.4-3.2 12-4.8 17.4-5" style="fill-rule:evenodd;fill:#3b3d3c"/><path d="m247.4 317.4-42.6 4-46.7 52.4-34.7 105.7 16.4 414h107s3.2.7 7.2-2c3.9-2.5-7.2-48.5-10.5-95-3.3-46.7-8.6-130-7.3-188.4 1.4-58.4 2-139.8 8-165.4 5.8-25.6 17-52.5 28.1-63s27.6-23.6 32.9-27.6c5.2-3.9-1.4-1.3-9.2.7a88 88 0 0 1-23 2.6c-8.5 0-17.7 0-20.3-3.9-2.7-4-2-28.9-2-28.9z" style="fill-rule:evenodd;fill:#21221f"/><path d="M435 223.5S193 242 189 245.8s-2.6 9.9-2.6 9.9l.6 24.3s1.3 5.9-3.3 9.2-237.5 2.6-237.5 2.6-2.6 2-6-2-3.9-7.2-3.9-7.2 1.4-11.8-2.6-14.4c-4-2.7-42.6-3.3-57-9.9-14.5-6.6-27.6-13.8-26.3-18.4s9.2-9.2 23.6-11.1l46-6s-71 6-74.9 10c-4 3.9-5.2 11-2 15.7s15.1 6.5 6.6 11.1-22.3 159.5-22.3 159.5-3.3 349.8-3.3 363.5 4.6 81.4 4.6 81.4.7 6.6 2.6 8.5 15.1 9.2 53.2 11.9c38 2.6 264.5 9.8 264.5 9.8l-9.2-498 28.8-17.8s4.7-9.8 17.8-21.7 42-28.2 46-30.1 12.4-4.6 13.7-6.6 2.6-5.3 2-12.5-1.3-28.2 0-34.1a39 39 0 0 1 10.5-18.4 100 100 0 0 1 28.2-7.2c7.8-.6 57-5.2 57-5.2s13.2 2 17.1 6.5 11.8 8.6 12.5 19 .7 42 .7 42l57 .7s5.3 0 6.6-1.3.7-80 .7-80z" style="fill-rule:evenodd;fill:#30312d"/><path d="M-53 297.8h221s7.4 0 11.1 3.8 7 94.6 7 94.6-21.1 17.7-27.4 53.9-9.3 63.5-4.6 180.5c4.6 116.9 10.2 178.1 10.2 178.1 0 9.8-12.1 19-18.6 20s-16.7.5-19.5-1.9C100 821.2 11.5 657.5-12.4 585.3-36.2 513.6-55.2 443-58.9 385.6c-3.7-55.6-9.7-87.9 6-87.8" style="fill-rule:evenodd;fill:#444543"/><path d="m108.1 298.8 59.9-1s7.4 0 11.1 3.8 7 94.6 7 94.6-21.1 17.6-27.4 53.8c-6.3 36.3-9.3 63.6-4.6 180.6 4.6 116.9 10.2 178.1 10.2 178.1 0 9.8-12.1 19-18.6 20s-16.7.5-19.5-1.9c-1.4-15.7-16.7-198.6-19.5-248.7s-2.3-223.6 1.4-279.3" style="fill-rule:evenodd;fill:#843327"/><path d="m116 298.8 52-1s7.4 0 11.1 3.8 4.7 61.2 4.7 61.2-22.3 15.8-29.7 46.4c-7.5 30.6-18.6 81.7-14 198.6s14 216.3 14 216.3-1.9 3.7-8.4 4.6c-6.5 1-10.2-2.8-10.2-2.8s-18.6-198.6-21.3-248.7a4005 4005 0 0 1 1.8-278.4" style="fill-rule:evenodd;fill:#933c32"/><path d="m155.8 242.9-.6 5.9c0 5.4-4.4 9.8-9.9 9.8-15 9.2-33 10.2-83.1 10.8-49.7.7-90-3.1-90-3.3l-2-6.7c-9.6.4-25.5-1.2-29 1.2-3.9 5.7-1.2 13-1.6 19.7a9.7 9.7 0 0 0 9.9 9.8h225.7c5.5 0 9.9-4.4 9.9-9.8v-33.5c0-5.4-4.4-9.8-9.9-9.8z" style="color:#000;display:block;fill:#585f64"/><path d="M421.3 344.3c5.6 0-15.3-.5-33.8 0s-67.8 9.2-87.7 24.5-48.8 55.3-50.6 118c-1.9 62.5-.5 187.4.5 226.3s7.4 135.5 8.8 143-1.9 21.8 13 21.8 136.9-1.4 149.4-1.4 12.5-7 12-21.8 2.4-350.8 2.8-382c.5-31-.4-91.8-.4-107.6s-5.1-20.4-14-20.9" style="fill-rule:evenodd;fill:#4f5155"/><rect width="164.2" height="126.3" x="254.8" y="532.6" rx="9.6" ry="9.6" style="stroke-linejoin:round;color:#000;display:block;stroke:#000;stroke-linecap:round;stroke-width:2.9168;fill:#242522"/><path d="M267.3 549.7h10l8 24 4.6-24h8.4l-6.7 34.6h-10l-8-24-4.6 24h-8.4zm49.9 14q-3.3 0-5.3 2.9-2.1 3-2.1 7.4 0 2.4 1 3.8 1.3 1.2 3.4 1.2 3.2 0 5.3-2.9 2-3 2-7.5 0-2.4-1-3.7-1.2-1.2-3.3-1.3m.6-5.9q6 0 9.2 3c3.2 3 3.3 4.6 3.3 8a16.3 16.3 0 0 1-16.9 16.3q-5.7 0-9-3t-3.3-8q0-3 1-5.7 1.2-2.8 3.1-5.1 2.4-2.7 5.5-4.1 3.3-1.4 7.1-1.4m22.7-9.5h8.3l-3.8 19.6 11.2-9.5h9.8l-15.1 12 11 14h-9.5l-8.4-11.2-2.2 11.2h-8.3zm29.7 10h8.3l-5 26H365zm2-10h8.3l-1.3 6.7h-8.3zm38.5 20.3-3.1 15.8h-8.3l2.6-13.5.6-3.7q0-1.5-.9-2.3-.8-.9-2.3-.8-2.6 0-4.4 2t-2.5 5.5l-2.6 12.8h-8.3l5-26h8.4l-.7 3.8q2.2-2.2 4.6-3.3t4.8-1q3.6 0 5.6 1.8a7 7 0 0 1 1.9 5.3l-.1 1.6z" style="fill:#c5cccc"/><path d="M270.1 597.7h3l4.8 7.3 5-7.3h2.8l-6.3 9.5 6.7 10.2h-2.9l-5.5-8.4-5.6 8.4h-2.9l7-10.5zm22.4 0h2.6v19.7h-2.6zm13.6 2.2v7.4h3.3q1.9 0 2.9-1t1-2.7c0-1.8-.3-2-1-2.7a4 4 0 0 0-2.9-1zm-2.7-2.2h6q3.3 0 5 1.5t1.7 4.4q0 3-1.7 4.4t-5 1.5h-3.3v8h-2.7zm19.3 0h2.6v17.5h9.6v2.2h-12.2zm25 1.8q-2.8 0-4.6 2.2a9 9 0 0 0-1.7 5.9q0 3.7 1.7 5.9a6 6 0 0 0 4.6 2.1q3 0 4.6-2.1a9 9 0 0 0 1.7-6q0-3.7-1.7-5.8a6 6 0 0 0-4.6-2.2m0-2.1q4.2 0 6.6 2.7 2.5 2.9 2.5 7.5c0 4.6-.8 5.6-2.5 7.4a8 8 0 0 1-6.6 2.8q-4.1 0-6.6-2.8t-2.5-7.4c0-4.7.8-5.6 2.5-7.5a9 9 0 0 1 6.6-2.7m24.3 2.1q-3 0-4.7 2.2a9 9 0 0 0-1.7 5.9q0 3.7 1.7 5.9a6 6 0 0 0 4.7 2.1q2.8 0 4.5-2.1a9 9 0 0 0 1.7-6q0-3.7-1.7-5.8a6 6 0 0 0-4.5-2.2m0-2.1q4.1 0 6.6 2.7 2.5 2.9 2.5 7.5c0 4.6-.9 5.6-2.5 7.4a8 8 0 0 1-6.6 2.8q-4.2 0-6.7-2.8-2.4-2.7-2.5-7.4c0-4.7.9-5.6 2.5-7.5a9 9 0 0 1 6.7-2.7m31 1.8v2.8a9 9 0 0 0-6.1-2.5q-3.4 0-5.2 2.1t-1.8 6c0 3.9.6 4.6 1.8 6q1.8 2 5.1 2a9 9 0 0 0 6.1-2.5v2.8a11 11 0 0 1-6.2 1.9q-4.6 0-7-2.7-2.6-2.9-2.6-7.5c0-4.6.8-5.7 2.5-7.5q2.6-2.7 7-2.7a12 12 0 0 1 6.3 1.8M303 627l-6.8 10.6h6.8zm-.7-2.3h3.3v12.9h2.8v2.2h-2.8v4.6H303v-4.6h-9v-2.6zm16 0h10.5v2.3h-8v4.8l2.3-.4q3.4 0 5.2 1.8c1.8 1.8 2 2.8 2 4.9q0 3.2-2 5a8 8 0 0 1-5.6 1.7 16 16 0 0 1-5.2-.8v-2.7a11 11 0 0 0 5.1 1.3q2.4 0 3.6-1.2c1.2-1.2 1.4-2 1.4-3.3q0-2.1-1.4-3.3c-1.4-1.2-2-1.2-3.6-1.2a10 10 0 0 0-4.3 1zm28.4 1.8q-2 0-3.1 2c-1.1 2-1 3.4-1 6s.3 4.8 1 6.2q1 2 3 2 2.1 0 3.2-2 1-2 1-6.1c0-4.1-.3-4.7-1-6s-1.8-2.1-3.1-2.1m0-2.1q3.3 0 5 2.6t1.8 7.6c0 5-.6 5.8-1.8 7.6q-1.7 2.6-5 2.6c-3.3 0-4-.9-5.1-2.6q-1.7-2.7-1.7-7.6c0-5 .5-5.9 1.7-7.6a6 6 0 0 1 5-2.6m22.7 2q-2 0-3 2.1-1.2 2.1-1.1 6c0 4 .3 4.8 1 6.2q1.1 2 3.1 2t3.1-2q1-2 1-6.1c0-4.1-.3-4.7-1-6s-1.7-2.1-3-2.1m0-2.1q3.2 0 5 2.6t1.7 7.6c0 5-.6 5.8-1.7 7.6q-1.8 2.6-5 2.6c-3.3 0-4-.9-5.1-2.6q-1.8-2.7-1.8-7.6c0-5 .6-5.9 1.8-7.6a6 6 0 0 1 5-2.6" style="fill:#c5e7d8"/><path d="M146.6 204.6c0 9-39.6 16.2-88.6 16.2s-88.6-7.2-88.6-16.2S9 188.3 58 188.3s88.6 7.3 88.6 16.3" style="color:#000;display:block;fill:url(#k)"/><path d="M127.3 194.6q4.2 1 7.5 2l-2.9-1.3zm-146.7 2.2c-7.4 2-12.2 3.7-12.8 13-.6 10.4-2.6 37.4-2.6 37.4s6 3.9 16.4 6.5c10.5 2.6 70.9 4.6 56.5 4 0 0 9.1 1.3 26.9.6 17.7-.6 64.3-4 70.8-5.2s13.8-7.3 13.8-7.3l-4.3-38.6c-7 7.7-43.4 13.6-87.3 13.6-49 0-88.6-7.3-88.6-16.2 0-2.9 4.3-5.4 11.2-7.8" style="fill-rule:evenodd;fill:url(#l)"/><use xlink:href="#m" style="color:#000;fill:#2b2e2d" transform="translate(-15 -14.4)scale(1.0265)"/><use xlink:href="#m" style="color:#000;fill:#dadbdb" transform="translate(2)scale(1.0003)"/><use xlink:href="#m" style="color:#000;fill:#4a4b4b" transform="translate(20.1 15.4)scale(.97258)"/><use xlink:href="#m" style="color:#000;fill:#767277" transform="translate(50.2 41)scale(.92637)"/><use xlink:href="#m" style="color:#000;fill:#363739" transform="translate(74.2 61.5)scale(.8894)"/><use xlink:href="#m" style="color:#000;fill:#4c4948" transform="translate(93.3 77.7)scale(.86013)"/><use xlink:href="#m" style="color:#000;fill:#282624" transform="translate(114.3 95.6)scale(.82779)"/><use xlink:href="#m" style="color:#000;fill:#282926" transform="translate(222.4 187.5)scale(.66156)"/><use xlink:href="#m" style="color:#000;fill:#232220" transform="translate(323.5 273.5)scale(.50626)"/><use xlink:href="#m" style="color:#000;fill:#232321" transform="translate(456.3 386.4)scale(.30216)"/><use xlink:href="#m" style="color:#000;fill:#282927" transform="translate(421.4 356.7)scale(.35583)"/><path d="M608.9 525.8a43 43 0 0 0-11.3 28.7l.3 3.3a18 18 0 0 0 11-32" style="color:#000;fill:url(#n)"/><use xlink:href="#m" style="color:#000;fill:#282826" transform="translate(532.8 451.5)scale(.18459)"/><use xlink:href="#m" style="color:#000;fill:#282823" transform="translate(575.2 487.6)scale(.11933)"/><use xlink:href="#m" style="color:#000;fill:#2b2c27" transform="translate(587 497.6)scale(.10117)"/><path d="m575.6 459.7 9.4-7.2 1 1.2-.5 15.2 7.8-6 1 1.5-9.8 7.4-.9-1.2.4-15.2-7.4 5.7zm19.9-12q-1.9 1.2-2.3 3.2a7 7 0 0 0 1 4.6q1.5 2.6 3.4 3.3 2 .8 4-.3 1.9-1.1 2.2-3.1.3-2.1-1-4.6-1.5-2.5-3.4-3.3a4 4 0 0 0-4 .2m-.7-1.4q2.8-1.5 5.5-.6c2.7.9 3.2 2 4.4 4q1.8 3 1.1 6a7 7 0 0 1-3.4 4.3 7 7 0 0 1-5.4.6q-2.7-1-4.5-4-1.7-3.2-1.1-6a7 7 0 0 1 3.4-4.3m17.5-6.3a4 4 0 0 0-2.7 2.8 7 7 0 0 0 .3 4.7 7 7 0 0 0 2.8 3.8q1.8 1 4 .3c2.1-.7 2.2-1.5 2.6-2.8q.6-2.1-.3-4.7-1-2.6-2.8-3.8a4 4 0 0 0-4-.3m-.5-1.5q3-1.2 5.5.2 2.6 1.3 3.8 4.7 1.2 3.3.2 6-1 2.6-4 3.7t-5.5-.2-3.8-4.6q-1.3-3.5-.2-6 1-2.7 4-3.8m12-3.8 3-.6 5.8 9.3 1.8-10.8 3-.6 3 14.8-2 .4-2.6-13-1.8 11-2 .3-5.8-9.4 2.6 13-2 .4zm34.5 4.3q.7.3 1.3 1l1.2 2 2 4.2h-2.2l-1.9-4q-.7-1.4-1.4-2-.6-.5-1.9-.5H653l-.1 6.4h-2l.1-15.2h4.7q2.6.2 3.8 1.2c1.2 1 1.3 1.8 1.2 3.3a4 4 0 0 1-.7 2.4q-.6.9-1.9 1.2m-5-6.4-.1 5.4h2.6q1.5 0 2.2-.6 1-.8.8-2 0-1.4-.7-2-.8-.7-2.3-.7zm20.3 1.1q-2.1-.3-3.7 1.1-1.5 1.5-2 4.3t.6 4.7c1 1.9 1.8 2 3.2 2.1q2.2.4 3.8-1c1.6-1.5 1.7-2.4 2-4.3q.4-2.9-.6-4.7t-3.3-2.2m.3-1.6q3.2.5 4.7 2.9t1 6a8 8 0 0 1-2.8 5.3 7 7 0 0 1-5.3 1.3q-3.2-.5-4.7-3-1.6-2.3-1-5.8c.6-3.5 1.3-4.2 2.7-5.4a7 7 0 0 1 5.4-1.3m12 2.7 2 .6-1.9 6 8.4-4 2.5.7-9.2 4.6 5.3 10-2.6-.8-4.8-9-2.1 7-2-.7zm14.7 4.8 2 .9-2.7 5.8 8.8-3 2.4 1-9.7 3.4 4 10.6-2.4-1-3.7-9.7-3 6.7-1.8-.9zm13.5 6.5 1.8 1-7.4 13.2-1.8-1zm6.7 3.8 2.2 1.6-1.8 14.2 7.3-10.3 1.6 1.1-8.7 12.4-2.2-1.6 1.8-14.2-7.3 10.3-1.6-1.1z" style="fill:#9aa4a5"/><path d="m584.8 469.5 2.7-2-7-9.2-2.5 2.8-1.1-1.4 2.4-2.8 1.6-1.3 8.2 10.6 2.6-2 1 1.4-6.8 5.3zM595 461l1.9-1.1 1.3 2.2-1.8 1zm-4.3-7 1.8-1.1 1.4 2.2-1.8 1.1zm12.3 3.2 6.4-3.2.7 1.5-8.5 4.3-.8-1.5 2.4-7.8q.4-1.4.4-2.3t-.3-1.5q-.6-1-1.7-1.4-1-.2-2.3.3-.8.4-1.6 1.3l-1.6 1.9-1-1.9 1.8-1.7q.7-.7 1.6-1 2.1-1.2 3.9-.7t2.7 2.1l.4 1.8-.2 2.3-.7 2.3zm10.2-5.7 2-.8.9 2.4-2 .8zm9.3-9.3q-1.3.3-1.9 1.5-.4 1 0 2.7.4 1.5 1.5 2.2c1 .7 1.5.6 2.4.3q1.2-.3 1.8-1.5.4-1.2 0-2.7t-1.5-2.2c-1-.6-1.4-.6-2.3-.3m2-7.3.6 1.8a8 8 0 0 0-3.2.1 4 4 0 0 0-2.6 2.2q-.6 1.6 0 4.3a4 4 0 0 1 2.8-2.7q2.3-.6 3.9.3c1.6.9 1.9 1.7 2.3 3.2q.6 2.3-.3 4a5 5 0 0 1-3.1 2.4q-2.5.7-4.4-.8-2-1.6-3-5.2-.9-3.4 0-6c1-2.6 2-2.8 3.9-3.3l1.5-.3zm6.2 7 5.3-1 .3 1.7-5.3 1zm8.4-10.2 8-.7.1 1.7-6.1.5.3 3.7.9-.3.9-.2q2.5-.2 4 1a5 5 0 0 1 1.9 3.7q.3 2.4-1.2 3.9c-1.5 1.5-2.3 1.5-4.1 1.7a13 13 0 0 1-4-.3l-.2-2a8 8 0 0 0 4 .6 4 4 0 0 0 2.7-1.2q1-1 .8-2.6-.2-1.5-1.3-2.3a4 4 0 0 0-2.8-.7 8 8 0 0 0-3.2 1zm14.5 11.6h2.1v2.6h-2.1zm7.1 1 3.3.3 1-11.5-3.6.4.2-1.9 3.6-.4 2 .2L666 445l3.4.4-.2 1.7-8.7-.8z" style="fill:#9aa4a5" transform="rotate(-101.2 653.6 553.2)"/><path d="m576 459.4 7.6-5.9.6.7 4.3 14.6-1.7 1.3-4-13.7-5.8 4.4zm18.9 1.7 1.8-1.1 1.3 2.2-1.8 1.1zm7.6-9.7q-1.4.7-1.7 1.8-.4 1.3.2 2.3.6 1.2 1.7 1.5c1.1.3 1.6 0 2.4-.4q1.4-.6 1.7-1.7.4-1-.2-2.3t-1.7-1.5c-1.1-.3-1.6-.1-2.4.3m-2.2.2q-1.4.3-2.4-.2t-1.7-1.6q-.8-1.6-.2-3.1t2.7-2.6 3.7-.7 2.4 2q.6 1.1.4 2.3-.3 1.1-1.3 2 1.5-.3 2.7.2c1.2.5 1.4 1 1.8 1.8q1 2 .4 3.6t-3 2.8q-2.1 1.1-3.9.7-1.6-.5-2.7-2.4-.6-1.3-.4-2.6a4 4 0 0 1 1.5-2.2M598 449q.6 1.1 1.5 1.3 1 .3 2.1-.3c1.1-.6 1.3-1 1.6-1.5q.4-1-.2-2t-1.5-1.3a3 3 0 0 0-2.1.4q-1.2.6-1.6 1.5-.4 1.2.2 2m10.5-9.3 7.5-2.7.6 1.6-5.8 2.1 1.3 3.5 1.6-.9q2.3-.9 4.2 0c1.9.8 2.1 1.5 2.7 3q.8 2.2-.2 4a6 6 0 0 1-3.5 2.8l-2 .5-2 .2-.7-2a8 8 0 0 0 4-.3q1.8-.6 2.3-1.9c.5-1.3.5-1.7.1-2.7q-.5-1.4-1.8-2a4 4 0 0 0-2.9.1 8 8 0 0 0-2.8 1.9zm14.8 4 5.3-1.3.4 1.6-5.3 1.4zm15-4.8q1.5 0 2.4.9 1 .9 1.2 2.3.5 2.3-1 3.6-1.2 1.4-4 2h-2l-2.2-.2-.3-2q1 .5 2 .5h2q2-.4 2.9-1.3t.6-2.3q-.1-1.3-1.2-2a4 4 0 0 0-2.7-.3l-1.8.3-.2-1.6 1.8-.3q1.5-.3 2.2-1a2 2 0 0 0 .5-1.8 2 2 0 0 0-1.1-1.6q-.9-.6-2.4-.3-.9 0-1.8.5l-2 .8-.3-1.8 4-1.2q2.3-.4 3.8.4t1.8 2.7q.2 1.2-.4 2.2-.6.9-1.8 1.5m9.9 5.4 7.1-.2v1.7l-9.5.3v-1.7l5.4-6q1-1.1 1.3-2t.4-1.5q0-1.2-1-1.9-.8-.7-2.2-.7l-2 .4-2.2 1.1-.1-2 2.3-.9 2-.3q2.3 0 3.7 1c1.4 1 1.5 1.8 1.5 3.1q0 .9-.3 1.8t-1.2 2l-1.5 1.8zm21.1-6.6a5 5 0 0 1 1.9-1.7q1-.4 2.3-.3 1.8.2 2.6 1.6.8 1.3.5 3.6l-.8 6.8-1.9-.2.9-6.8q0-1.6-.3-2.5-.5-.8-1.7-1-1.4 0-2.4.7-1 .9-1.1 2.5l-.8 6.4-1.8-.2.8-6.8q.1-1.6-.3-2.4-.5-1-1.7-1-1.4-.3-2.4.7-1 .8-1.1 2.4l-.8 6.4-1.8-.2 1.3-11.3 1.9.2-.2 1.8q.7-.9 1.7-1.3c1-.4 1.3-.4 2.2-.3q1.1.2 2 .9.7.7 1 2m21.4 4.7q1-.9 2.1-1.2t2.4.1q1.7.6 2.2 2 .6 1.5-.2 3.7l-2 6.5-1.8-.6 2-6.4q.5-1.5.2-2.5t-1.4-1.3q-1.4-.4-2.5.2-1 .7-1.6 2.3l-2 6-1.7-.5 2-6.5q.5-1.5.2-2.4-.3-1-1.4-1.3-1.4-.4-2.5.2-1 .6-1.6 2.2l-1.9 6.1-1.8-.5 3.4-10.8 1.8.5-.5 1.7q1-.8 2-1t2 .2q1.4.4 1.9 1.2.7 1 .7 2.1" style="fill:#9aa4a5" transform="rotate(133.5 655 553.8)"/><path d="M871 590h94.7v33.6H871z" style="color:#000;fill-opacity:.52893;display:block;fill:#fafdff"/><path d="M918.7 568.4a63.4 63.4 0 1 0 0 126.7 63.4 63.4 0 0 0 0-126.7m-32.5 28.2h64.4c4.2 0 7.6 3.3 7.6 7.5v55.2c0 4.2-3.4 7.6-7.6 7.6h-64.4a7.6 7.6 0 0 1-7.6-7.6v-55.2c0-4.2 3.4-7.5 7.6-7.5" style="color:#000;display:block;fill:#1e1e1a"/><path d="M993.5 630.9a74.5 74.5 0 1 1-149 0 74.5 74.5 0 0 1 149 0z" style="stroke-opacity:.33884;color:#000;display:block;stroke:#000;stroke-width:3.2594;fill:none" transform="translate(73.1 50.2)scale(.92041)"/><path d="M912 558.7a73 73 0 0 0-39.4 16.6c3.3 2.2 7-4.3 10.9-5.3a70 70 0 0 1 80.4 6.6c2.2-3.2-5.6-5.8-8.2-8.1a72 72 0 0 0-43.7-9.8" style="color:#000;display:block;fill:url(#o)"/><path d="M912.5 696.6a73 73 0 0 1-39.4-16.6c3.3-2.2 7 4.3 11 5.4a70 70 0 0 0 80.3-6.6c2.2 3.2-5.6 5.8-8.2 8a72 72 0 0 1-43.7 9.8" style="color:#000;display:block;fill:url(#p)"/><path d="M878 219.7a68 68 0 0 0-3 58.7h126.6a69 69 0 0 0-3-58.7z" style="color:#000;display:block;fill:url(#q)"/><path d="M866.7 219.7h143.6v58.7H866.7z" style="color:#000;fill-opacity:.15642;display:block;fill:#fff"/><use xlink:href="#r" style="color:#000;fill-opacity:.15642;display:block;fill:#fff"/><use xlink:href="#r" style="color:#000;fill-opacity:.15642;display:block;fill:#fff" transform="translate(-988.5 -263.4)scale(2.0526)"/><use xlink:href="#r" style="color:#000;fill-opacity:.15642;display:block;fill:#fff" transform="translate(-2224.2 -592.6)scale(3.3684)"/><path d="M919.4 219.7a36.3 36.3 0 0 0-3 58.7h45.5a36.2 36.2 0 0 0-3-58.7z" style="color:#000;fill-opacity:.15642;display:block;fill:#fff"/><path d="M897.7 219.7a51 51 0 0 0-1.8 58.7h86.4a51 51 0 0 0-1.7-58.7z" style="color:#000;fill-opacity:.15642;display:block;fill:#fff"/><path d="M914.4 623.8a3 3 0 1 1-6 0 3 3 0 0 1 6 0" style="color:#000;fill-opacity:.79339;display:block;fill:#fff"/><path d="M465.9 385.2v-11.5s154.4 0 283.3 4.1c129 4.3 232.5 12.8 239.8 12.8 14.7 0 20.7 3.3 26.2 8.2s14.7 15.3 14.7 15.3-17.4-15.8-25.1-16.4l-7.6-.5-308.8-9.3z" style="fill-rule:evenodd;fill:#878987"/><path d="M555.3 373.2s23.5 13 33.3 13h9.8s115.7 3.4 119.5 2.3 10.4-7.7 11-10.4-173.6-4.9-173.6-4.9" style="fill-rule:evenodd;fill:#000;fill-opacity:.36872"/><path d="M873.3 393c7.3-1.5 12.2-8.8 12.2-8.8-8.4-2.6-17.9-1.3-26.8-2a54 54 0 0 0-24.8 9.3c10.7 5.4 37 1.5 39.4 1.5" style="fill-rule:evenodd;color:#000;fill-opacity:.36872;fill:#000"/><path d="M1054.4 290.9c0 5-2.7 9.8-7.1 12.4a14.4 14.4 0 1 1 0-24.9c4.4 2.6 7.1 7.3 7.1 12.5z" style="stroke-opacity:.59218;fill-rule:evenodd;color:#000;stroke:#000;stroke-width:1.4;fill:#2b3d3b" transform="translate(.8 1.5)"/><path d="M1047.7 291.8a8 8 0 0 1-4.1 7.1 8 8 0 0 1-8.2 0 8 8 0 0 1-4.1-7 8.2 8.2 0 1 1 16.4 0" style="fill-rule:evenodd;color:#000;fill:url(#s)" transform="translate(1.3 .6)"/><path d="M1040.9 285.1a7.2 7.2 0 1 0 7.2 7.3c0-4-3.2-7.3-7.2-7.3m-1.6 2.4a5.2 5.2 0 1 1 0 10.3 5.2 5.2 0 0 1 0-10.3" style="fill-rule:evenodd;color:#000;fill-opacity:.6257;fill:#84c6ba"/><path d="m-207 313.9-15-4.5-22.5 43 16 7s1-4.5 8-10 16-13.5 16-18-2.5-17.5-2.5-17.5m13 8-3.5 15.5s7 4.5 8 8 2 11.5 6 11.5 12 4 12 4l7.5-4.5-3.5-34.5-13.5 2z" style="fill-rule:evenodd;fill:#4a4c47;fill-opacity:.99608"/></g></svg>