<svg xmlns="http://www.w3.org/2000/svg" xml:space="preserve" viewBox="-43 -29.4 2006 1370.8"><path stroke="#000" stroke-width=".3" d="M1061.5 421.2c1.7 2 3.6 4.6 3.4 7.2 3 4 3.7 9 5.5 13.4 5.7 17.3 7.7 35.8 4.8 53.8.7 3-.7 6-1.4 9h-.6a116 116 0 0 1-105.2 90q-11.2 1.6-22.3-.9c-10.6-.5-21-3.6-30.8-7.6a117 117 0 0 1-67.3-75.2c-2.4-5.2-2.8-11-4-16.6-.6-7.8-1.5-15.6-.5-23.4.3-6 .3-12.5 2.9-18 1.1-7.1 4-13.9 6-20.8q1.3-4 3.6-7.1c1.9-4.1 4.9-7.5 7-11.4s5.5-6.7 7.7-10.4a118 118 0 0 1 25.7-22.7c2.1.2 3.8 1.8 5.5 3 2.5 2 5.8 2.6 8.7 4a120 120 0 0 0 43.8 11.2c7.7 1.2 15.4 0 23.2-.4 16.2-2 32.1-6.8 46.3-15 .9-.3 2-1.5 3-.8a114 114 0 0 1 35 38.6z"/><path fill="#99FE00" stroke="#99FE00" stroke-width=".3" d="M1512 308.2q81-5.5 162-2.9c48.2 2.3 96.5 6.4 143.5 17.2a283 283 0 0 1 62.6 21.4 92 92 0 0 1 21.4 14.3l.3.3a46 46 0 0 1 18.2 29v13c-2.4 6.2-4.5 12.6-8.4 18.1a147 147 0 0 1-41 39 532 532 0 0 1-107.1 53q-29.1 10.8-58.8 20.2c-5.3 1.6-10.5 3.7-16 4.5q.5-1.6 2-2.4c-3.1 1-6.5 1.7-9.6 3q3.6-1 7.2-1.4l-.1 1.1c-19.7 6.5-39.9 11.4-59.9 16.6-8.9 2-17.6 5-26.7 6l.2-1.1 3.3-.8q-6.7.5-13 2.5c3-.5 6.1-1.5 9.3-1.2-.1 1.9-2.6 1.4-3.9 2q-67.2 15.3-135.4 25.7c-5.8.5-11.6 2.4-17.5 2V586l19.5-2.6c-11.4.3-22.5 4-34 4.2-7.1 1-14.2 2.7-21.5 2.8l-.5.5c10.2-.3 20.2-3.7 30.4-3.3-.5 1.9-2.8 1.3-4.2 1.8a1974 1974 0 0 1-110.3 11.9c-12.6 1.5-25.3 1.4-38 2.7-24.5 1.2-49.1 2.5-73.7 2.6-6.7-1-13.5-.2-20.3-.5-6.8.3-13.6-.5-20.3.5h-5.5a76 76 0 0 0-17.2-1.1c-4.4.2-8.6-1-13-1-4.5-.1-9.2.3-13.7-.5-5-.8-10.2-.2-15.3-.5-4.6 0-9.1-1.4-13.8-1-12.6.2-25-2.1-37.5-3.3a282 282 0 0 0-22-27.3c3-3.7 7-6.4 10.2-10 22.1-21.8 35-52.8 34.5-83.9.2-28.3-10.5-56.4-29.2-77.7 3.8-.3 7.2-2.2 10.7-3.3q37-13.7 74.9-24.4 69.4-20 140.4-33.5c3-.5 6.3-2 9.4-.9 3.1 1 6.5.3 9.3-1l-6.3 1.2c-1.3.1-2-2-.1-1.7l11.4-2c5.8-.8 11.9-3.4 17.6-.7l.2-.6-3-.5 1-1Q1394.8 318 1476 311c12-1.3 24-1.6 36-3"/><path fill="#99FE00" stroke="#99FE00" stroke-width=".3" d="M1764.9 339.9c-7.6 2.3-14.3 8.5-15.5 16.5-2.2 6.3 0 13-1.6 19.3-8.1.6-16.3-3-24.2-.2-4.6 1.6-9.2 5.2-10 10.3a34 34 0 0 0 3.4 25.2c3.6 7 11.5 9.9 17.2 14.8 1.5 4.7-1.9 9.1-2.8 13.6-2.3 6-.6 12.9 3.9 17.3 5.5 6 13.9 8.2 21.7 8.7 4.8-.8 10.2-1 14.1-4.3 6.2-4.8 9-12.4 13.2-18.7l1.1.2c5 6 12 10.1 19.2 12.8 6.9 2.5 14.2-.2 20.4-3.4 3.7-2 8-4.2 10-8.1 2-3.7 4.5-7.5 5-11.9 1.4-6.5-2.9-12.4-7.3-16.7-2-2.2-4.8-4-5.4-7.1 4.6-4.4 10.7-7.1 14.8-12 5.1-8.2 4.5-19-.1-27.2-3.1-5-9-7.3-14.6-8.4-8-.9-16.2 1.3-22.6 6.2a8 8 0 0 1-6.4 1.9c-1.5-4.6-1.3-9.6-3-14a28.5 28.5 0 0 0-30.6-14.8m-190.1 18.7c-12.6 6-17.3 22.8-11.4 35 1 2 1.6 4.7 4 5.2a9 9 0 0 0 3 2.9c.3 1.8 2 2.6 3.5 3.4a20 20 0 0 0 21.2-2.1c10.7-8.4 12.3-25 5.4-36.3.1-1.2-.2-2.2-1.6-2.1-5.8-7-15.9-9.5-24.1-6m-171.3 8c-5 1.6-9.3 5.2-12 9.7-7 11-5.2 27.7 5.6 35.7a19 19 0 0 0 19 3 25 25 0 0 0 14.4-17.4q.7-6.2.1-12.4a26 26 0 0 0-11-16.5 20 20 0 0 0-16.1-2m-265 34.9A23 23 0 0 0 1121 417a32 32 0 0 0-1.3 14 24 24 0 0 0 16 20.2c6.1 1.5 13 .5 18-3.6 5.5-4.9 9.6-12 9.1-19.6.7-7.7-2.1-15.7-7.8-20.9-4.5-4-10.6-6.4-16.6-5.5m486.8 41.6c-3 3.9-.8 9-2.5 13.4-5.4.6-11.7-1.9-16 2-4.4 4.5-3.3 11.5-1 16.7 1.8 4.4 6.6 6 10 9 .2 4.4-3.2 8.3-2 12.7 3.6 9.5 18.8 11.9 24.5 3.2 1.7-2 2.4-4.9 4.8-6.1 4.3 2.3 8 6.3 13.2 6.5 4.5.4 8.3-2.3 12-4.4 4.4-4 6.4-11.7 2-16.3-1.2-1.9-4.1-3-3.8-5.5 3.2-3.1 8.2-5 9.1-9.7.1-3.4.8-7-1-10-2.4-5.4-9.2-6.9-14.3-5.4-3.6.3-6.1 3.8-9.9 3.4-.8-2.3-.6-5-1.9-7-2.6-4.6-7.2-8.3-12.6-8.2-4.3-.5-8.7 1.8-10.6 5.7m-326.8 3.4c-8.1 2-14.8 8.8-16.8 16.8-2.7 8.7-1.2 19 5.2 25.8 3.8 4.3 9.2 7.8 15.2 7.4 5.8.7 11.2-2.4 15-6.5a27.7 27.7 0 0 0 0-37.2 20 20 0 0 0-18.6-6.3m124 60c-12 3.6-18.6 17.4-16.2 29.3 1.1 9.2 7.7 17.9 17 19.9 5.3 1.5 11.1.1 15.6-3 6.7-4.3 10-12.3 10.8-19.9.2-6.7-1.7-13.5-5.7-18.9-5.1-6-13.6-9.8-21.5-7.4m-211 19q-4.3 1-7.7 4.1c-11.5 9.4-12 28.9-1.8 39.3 3.3 2.6 6.8 5.5 11 5.9a20 20 0 0 0 20.4-8.5c8-11 6.8-28.1-4-36.7-4.6-4.9-11.8-5-18-4.2zM258.9 308.7c34-1.5 68-.8 102 .9q11.7 0 23.4.9c17.5 1.2 35 1.8 52.6 3.7q38.7 3 77.2 7.9c12.3 1.7 24.7 2.7 36.9 5.2l.4 1.1c-4.5.1-8.8-1.4-13.3-1.2l.5.4c9.3 0 18.2 3.6 27.5 3l-14.5-1.6v-1.3c3.8-.5 7.7.5 11.6 1q10.5 1.5 20.7 3.5l.5.7-3.2.6c1.8 1 4.4-1.5 6.7-.8q11.3 1.6 22.5 3.7c1.4.5 3.2.3 4 1.7l-3.4.4c4.7.6 9.3 2 14 2.1l-3.3-.7v-1.1c6.7.5 13.3 2.2 20 3.4q38.1 7.2 75.9 16.2c17.5 4.4 35 8.4 52.3 13.7q-.4 1.2-1.6 2l2.4-.9q46.8 13 92.4 29.5c1 .6 2.6.9 3 2.1A118.7 118.7 0 0 0 890.3 575c-3.7 5-8 9.4-11.8 14.4-2.7 3.4-4.7 7.3-7.8 10.4-10.1 1.8-20.3 4.3-30.6 4.7q-1.5.2-3 .7c-11.1 2.4-22.6 2.3-34 3.1-31.6 2.2-63.3 2.2-95 2-72-.8-144-7.1-215.5-16.2-.6-2.2 3.3-1.3 4.5-1.6q-2.9-.5-5.6 0c-4.6 1.3-9.3-.2-13.9-.4v-1c2-1.3 4.9-.1 7.3-.3-4-1.7-9.2.7-13.6 0q-48.6-7-96.8-16.4c-9-2-18.3-3.3-27.3-5.8l-.4-1h5.3q-6-1.3-12-.5a1430 1430 0 0 1-121.4-31.6c-50-15.8-99.7-34-145.5-59.6-2.5-1.4-5.2-2.7-7.2-4.7l1.7-.7-7.4-4.5c1.4 1.4 3.9 2 4.2 4.2q-2-.7-4-1.8A228 228 0 0 1 23 440.1a94 94 0 0 1-17.5-22.7c-2.3-4.1-3.6-8.7-5.5-13v-15.9c2-5 3.7-10.2 7-14.5a91 91 0 0 1 34-27 283 283 0 0 1 74.4-23.2l-.1 1.2-3.2.5.6.3c7.3-.8 14.3-3.1 21.6-3.7 1.2-.3 2.6 0 3.6-1l-10.6 1.6c-4 .7-7.7 2.4-11.8 1.7l.5-1c5-1.4 10.2-2 15.3-3a924 924 0 0 1 127.6-11.7"/><path fill="#99FE00" stroke="#99FE00" stroke-width=".3" d="M99.5 357.6c-2.6 6.6.2 14-2.1 20.7-1.4.4-3 .1-4.4 0-6-1-12-.9-18-.6a14 14 0 0 0-10.4 7c-4 9.1-2.6 20 2 28.7 3.6 6.4 10.5 9.6 16 14 2.7 1.8 1.8 5.4.8 8a30 30 0 0 0-2.9 16.3 23 23 0 0 0 17 14.7 28 28 0 0 0 24.3-3.6c5.2-4.8 8.3-11.3 11.6-17.4h1.3c6 5.4 12.6 10.2 20.3 12.7a33 33 0 0 0 28.3-9.8 30 30 0 0 0 6.4-16.3c.5-6.3-4.4-11.1-8.5-15.2-1.6-2-4.9-4.2-3.5-7 5-4.3 12-6.8 15-13.1 2.6-4.1 2-9.1 2-13.7 0-6-2.3-12.7-7.7-16-5.4-4.2-12.6-3.6-19-3.3a28 28 0 0 0-12.3 5c-2.3 1.3-4.5 3.4-7.3 3q-1.4-4-1.9-8.3c-.6-7.3-5.8-13.4-11.9-17-5.4-3.3-12-5.7-18.4-4.1a22 22 0 0 0-16.7 15.3m236.9-3c-5.7 1.3-10 5.9-13.2 10.5-6.4 11.1-4.3 27.5 6.4 35.2a19 19 0 0 0 23 .4c13.8-9.1 14.5-31.8 1.6-42-4.6-4.7-11.6-5.2-17.8-4.1m165.5 13.3a27.6 27.6 0 0 0 0 40.3 19 19 0 0 0 20 3.7c2.4-1.1 5.3-1.9 6.3-4.5l.7-.5.5-.7c3-1.3 4.1-4.6 5.4-7.3 2.4-5.1 2.1-11 1.6-16.5-1.4-8-6.9-15.3-14.4-18.3a20 20 0 0 0-20.1 3.8m278.5 30.7a24 24 0 0 0-19 20.6c-.4 5.5-.4 11.3 2.1 16.4 3.3 7.5 11 14 19.5 13.2 10.3.8 18.7-8.4 21-17.7 1.7-8.7.8-18.7-5.8-25.3a20 20 0 0 0-17.8-7.2m-165 45.9q-3.1 1.1-5.6 3.2c-13.7 10-12.8 33.9 1.5 43 6 4.2 14.5 4 20.6.2 5-2.5 8.3-7.5 10.3-12.5 2-4.5 1.4-9.5 1.3-14.2-1.2-8.2-6.4-16-14.2-19.4a22 22 0 0 0-14-.4m-286.1 7.8c-4.5 5-3.6 12.2-3.6 18.4-5.1.3-10.2-.5-15.3-.2-3.1.5-6.3 2.3-7.3 5.6a22 22 0 0 0 4.2 21.8c2.8 3 8 4 9.2 8.2-1.1 5-4.5 10.3-1.8 15.4 5 9.3 18.2 11.4 26.7 5.9 2.9-3.3 4.8-7.3 7.2-11q1.8-.5 3.2 1a32 32 0 0 0 13.2 7c5.8.7 11.2-2.5 15.8-5.6a20 20 0 0 0 5.6-12.7c-.4-5-5-7.8-7.7-11.6-1-1.7.3-3.3 1.8-4 3.3-2.6 7.8-4.7 8.8-9.2 1.1-5.7.8-12.5-3.6-16.8-6.2-5.2-15.6-4.2-22 .2-1.6.8-3.4 2.5-5.2 1.1-.9-3-.6-6.2-2.1-9-3-5.7-9.2-9-15.3-10-4.4.3-9.1 1.7-11.8 5.5m150.6 59.7a27.7 27.7 0 0 0 4.2 37 19.5 19.5 0 0 0 24.4.5 27.3 27.3 0 0 0 6-36c-1.3-1.5-2.2-4-4.5-4.2l-1-1c-2.4-4.5-8.4-5-13-5-6.5-.4-12.1 3.8-16 8.7m221.8 10.9c-2.7 1.4-6.4 2.3-7.5 5.4l-1 1c-2.2.5-3.1 3-4.2 4.8a27.4 27.4 0 0 0 6.8 34.2 19 19 0 0 0 23 .6c7.2-4.7 11-13.4 10.8-21.8.3-7.4-3.2-14.5-8.1-19.9q-1-2.3-3.6-2.7a25 25 0 0 0-16.2-1.6zM615.8 339c-2-.8 1.4-1.8 2-1.2q2-.2 3 1-2.5.5-5 .2z"/><path fill="#FF00FE" stroke="#FF00FE" stroke-width=".3" d="M1764.9 339.9c12-2.7 24.8 4 30.4 14.8 1.8 4.4 1.6 9.4 3.1 14q3.6.5 6.4-1.9c6.4-5 14.7-7 22.6-6.2 5.6 1 11.5 3.3 14.6 8.4 4.6 8.2 5.2 19 .1 27.2-4 4.9-10.2 7.6-14.8 12 .6 3 3.4 5 5.4 7 4.4 4.4 8.6 10.3 7.2 16.8-.4 4.4-2.8 8.2-5 11.9-2 4-6.2 6-9.9 8.1-6.2 3.2-13.5 6-20.4 3.4a45 45 0 0 1-19.2-12.8l-1.1-.2c-4.2 6.3-7 13.9-13.2 18.7-4 3.3-9.3 3.5-14 4.3a32 32 0 0 1-21.9-8.7 17 17 0 0 1-3.8-17.3c1-4.5 4.3-9 2.8-13.6-5.7-5-13.6-7.8-17.2-14.8-4-7.6-6-16.8-3.3-25.2.7-5.1 5.3-8.7 9.9-10.3 8-2.7 16 .8 24.2.2 1.6-6.3-.6-13 1.6-19.3 1.2-8 8-14.2 15.4-16.5"/><path fill="#FF00FE" stroke="#FF00FE" stroke-width=".3" d="M1763.8 368.8c-3.4 5.8-2 12.9-4 18.9-7.5 1-16-2.3-22.4 2.7-2.5 3.3-2.1 7.8-1.5 11.6.3 1.6.3 3.4 1.5 4.7q5.1 6 11.3 10.7c3 5.2-1.1 11-.4 16.6-.5 4.1 2.4 8 6 9.4 6 1 12.5 2 18-1.1 3-3.2 4.7-7.2 7.2-10.8 2.6-2.6 6.8-1.5 9.4.6 2.7 2.4 5.2 5.6 9 5.9a21 21 0 0 0 18.2-6c2.4-3.2 4.8-7.8 2.5-11.7-1.8-5-6.6-8.2-7.9-13.3 2.3-3.8 6.6-5.6 9.6-8.8 3.9-5.6 3.5-14.9-2.6-18.9-5.4-3.1-12-1.3-17.2 1.2-2.7 1.2-5 3.7-8.1 3.2-3-1.4-2.5-5-2.9-7.6-.3-5.8-4.7-10.3-9.2-13.2-3.3-1-6.8-.5-10.1-.4-3.4.3-4.9 3.8-6.4 6.3zM99.5 357.6c2.2-7.7 8.8-14 16.7-15.3 6.4-1.6 13 .8 18.4 4 6 3.7 11.3 9.8 12 17.1q.3 4.3 1.8 8.2c2.8.5 5-1.6 7.3-3a28 28 0 0 1 12.2-5c6.5-.2 13.7-.8 19.1 3.4 5.4 3.3 7.7 10 7.7 16 0 4.6.6 9.6-2 13.7-3 6.3-10 8.8-15 13-1.4 3 1.9 5.2 3.5 7 4.1 4.2 9 9 8.5 15.3 0 6-3 11.5-6.4 16.3a33 33 0 0 1-28.3 9.8 59 59 0 0 1-20.3-12.6h-1.3c-3.3 6-6.4 12.5-11.7 17.3-6.8 5-16 6.1-24.1 3.6a23 23 0 0 1-17.1-14.7 30 30 0 0 1 2.8-16.3c1.1-2.6 2-6.2-.7-8-5.5-4.4-12.4-7.6-16-14-4.6-8.7-6-19.6-2-28.8a14 14 0 0 1 10.4-7c6-.2 12-.4 18 .7 1.5.1 3 .4 4.4 0 2.3-6.6-.5-14 2.1-20.7"/><path fill="#FF00FE" stroke="#FF00FE" stroke-width=".3" d="M116 367.1c-5.6 6.3-5 15-6.2 22.7-5.1 1.5-10.5-.6-15.8.3-3.1.4-7.2 1.3-8 5-2.3 5-.6 10.6 1.8 15.2 3 4.6 7.6 8 11.6 11.7q.3 2 0 4a43 43 0 0 0-.8 14.6c2 4.8 7.4 7.1 12.4 7 4.6 0 10.5.2 13.5-4 3.4-3.5 2.6-10.7 8.5-11.3 5 1.4 8.2 6.2 13.2 7.5 5 2 10.3.5 14.8-1.8 4-2.6 7.8-6.8 7.1-12 .3-6.1-5-10-7.4-15.1-.8-4.5 5-5.2 7.4-7.8 4.6-3.6 5.3-10 4.1-15.5-.6-3.8-4.4-5.7-7.5-7.2-4.8-.6-9.8-.2-14 2.3-3 1.7-7.1 5.5-10.3 1.9-1.6-5.6-2.4-12-6.7-16.2a18 18 0 0 0-17.6-1.3z"/><path fill="#380AC0" stroke="#380AC0" stroke-width=".3" d="M336.4 354.6c6.2-1 13.2-.6 17.8 4.2 13 10.1 12.2 32.8-1.5 41.9-6.6 5-16.6 4.7-23-.4-10.8-7.7-12.9-24-6.5-35.2 3.3-4.6 7.5-9.2 13.2-10.6"/><path fill="#380AC0" stroke="#380AC0" stroke-width=".3" d="M334.4 356.5a19 19 0 0 0-5.8 4 26 26 0 0 0 2 39 18 18 0 0 0 21.8-.1c12.5-8.8 13-29.5 1.6-39.3-5.1-5-13-5.6-19.6-3.7z"/><path fill="#FF00FE" stroke="#FF00FE" stroke-width=".3" d="M334.4 356.5c6.5-2 14.5-1.5 19.6 3.6 11.5 9.8 10.9 30.5-1.6 39.3a18 18 0 0 1-21.8 0c-12.2-8.6-13.3-29-2-38.8a19 19 0 0 1 5.8-4.2z"/><path fill="#380AC0" stroke="#380AC0" stroke-width=".3" d="M1574.7 358.6c8.2-3.5 18.3-1 24.1 6l.3 1.7c-4.7-4.4-10.3-8.9-17.1-8.1-6.7-.4-11.6 4.7-15.5 9.4a24 24 0 0 0-4.3 16.5c-.2 5.4 2.7 10 5.1 14.7-2.4-.5-3-3.3-4-5.1-6-12.3-1.2-29 11.4-35z"/><path fill="#FF00FE" stroke="#FF00FE" stroke-width=".3" d="M1566.5 367.6c4-4.7 8.8-9.8 15.5-9.4 6.8-.8 12.4 3.7 17 8l-.2-1.7q2 .2 1.6 2.2l-1.2.4a29 29 0 0 1 4 18c-.9 10.3-9 21-20.2 20.8-4.7.5-8.9-2-12.8-4.2a9 9 0 0 1-2.9-3c-2.4-4.5-5.3-9.2-5.1-14.6-.5-5.8.7-11.9 4.3-16.6z"/><path stroke="#000" stroke-width=".3" d="m1901.5 358.2.3.3z"/><path fill="#380AC0" stroke="#380AC0" stroke-width=".3" d="M1763.8 368.8c1.5-2.5 3-6 6.4-6.3 3.3-.1 6.8-.5 10 .4 4.6 3 9 7.4 9.3 13.2.4 2.6 0 6.2 2.9 7.5 3 .6 5.4-2 8-3 5.3-2.6 12-4.4 17.3-1.3 6 4 6.5 13.2 2.6 19-3 3.1-7.3 4.9-9.6 8.7 1.3 5 6 8.4 7.9 13.3 2.3 4 0 8.5-2.5 11.8a21 21 0 0 1-18.1 5.9c-4-.3-6.4-3.5-9.1-5.9-2.5-2.1-6.8-3.2-9.4-.6-2.5 3.6-4.2 7.6-7.3 10.8-5.4 3-12 2.1-17.8 1-3.7-1.4-6.6-5.2-6-9.3-.8-5.5 3.3-11.4.3-16.6q-6.2-4.7-11.3-10.7c-1.2-1.3-1.1-3.1-1.5-4.7-.6-3.9-1-8.3 1.5-11.6 6.4-5 15-1.7 22.3-2.7 2.2-6 .7-13.1 4-18.9"/><path fill="#380AC0" stroke="#380AC0" stroke-width=".3" d="M1778.3 385.4c-5 .8-9.9 2.8-13 6.9-7.2 8.6-3.8 23.3 6.2 28.2a19 19 0 0 0 22.8-4.2c6.8-8.1 5-21.8-3.5-28a16 16 0 0 0-12.5-2.9zM501.9 367.9c5.3-5 13.4-6.2 20-3.8 7.6 3 13 10.4 14.5 18.3.5 5.5.8 11.4-1.6 16.5-1.3 2.8-2.4 6-5.4 7.3a32 32 0 0 0 5-26.6 22 22 0 0 0-14.8-15c-5-.9-10.4-.7-14.6 2.4a26 26 0 0 0-8.2 32.3c3.2 7 10.2 13 18.2 12.6 4.9.4 9.1-2.3 13.2-4.5-1 2.6-4 3.4-6.2 4.5a19 19 0 0 1-20.1-3.8 27.6 27.6 0 0 1 0-40.2z"/><path fill="#FF00FE" stroke="#FF00FE" stroke-width=".3" d="M505 367c4.2-3 9.7-3.3 14.6-2.4 7.2 1.8 12.6 8 14.8 15 2.8 9 .1 19-5 26.6l-.5.7-.7.5c-4.1 2.2-8.3 5-13.2 4.6-8 .3-15-5.7-18.2-12.7A26 26 0 0 1 505 367z"/><path fill="#380AC0" stroke="#380AC0" stroke-width=".3" d="M116 367.1c5.6-3 12.6-2.2 17.7 1.3 4.3 4.3 5 10.6 6.7 16.2 3.2 3.6 7.2-.2 10.3-2 4.2-2.4 9.2-2.8 14-2.2 3 1.5 6.9 3.4 7.6 7.2 1.1 5.4.4 11.9-4.2 15.5-2.4 2.6-8.2 3.3-7.4 7.8 2.4 5 7.7 9 7.4 15.1.7 5.2-3 9.4-7.1 12-4.5 2.3-9.9 3.9-14.8 1.9-5-1.4-8.3-6.2-13.2-7.6-6 .6-5 7.8-8.5 11.2-3 4.3-8.9 4.1-13.5 4.1-5 .1-10.5-2.2-12.4-7a43 43 0 0 1 .7-14.6q.5-2 0-4c-4-3.8-8.5-7-11.5-11.7-2.4-4.6-4.1-10.2-1.8-15.2.8-3.7 4.9-4.6 8-5 5.3-1 10.7 1.2 15.8-.3 1.3-7.7.6-16.4 6.3-22.7"/><path fill="#380AC0" stroke="#380AC0" stroke-width=".3" d="M125.4 388.5c-4.7 1.1-9.2 4-11.7 8.1-5.8 9.5-1.1 23.6 9.4 27.3a20 20 0 0 0 20-3.9c7.3-7.7 6.3-21.5-1.7-28.4-4.2-4-10.6-4.7-16-3.1zm1278-21.9c5.4-1.6 11.2-.7 16 2 5.7 3.9 10 9.8 11.1 16.6q.6 6.2-.1 12.4A25 25 0 0 1 1416 415a19 19 0 0 1-19-3c-10.8-8-12.6-24.6-5.7-35.7 2.8-4.5 7-8.1 12.1-9.7"/><path fill="#380AC0" stroke="#380AC0" stroke-width=".3" d="M1405.4 367.4q-6.5 1.5-10.7 6.3a27 27 0 0 0 1 35.6c3.4 3 7.6 5.6 12.2 5.6 6.6.7 13-3 16.9-8.1a27 27 0 0 0 3.2-25.7c-3.1-9-13-16-22.6-13.7z"/><path fill="#FF00FE" stroke="#FF00FE" stroke-width=".3" d="M1405.4 367.4c9.6-2.4 19.5 4.7 22.6 13.7a27 27 0 0 1-3.2 25.7c-4 5.1-10.3 8.7-16.9 8.1-4.6 0-8.8-2.6-12.2-5.6a27 27 0 0 1-1-35.6q4.3-4.8 10.7-6.3z"/><path fill="#380AC0" stroke="#380AC0" stroke-width=".3" d="m1599.2 367 1.2-.3c6.9 11.3 5.3 27.9-5.4 36.3a20 20 0 0 1-21.1 2.1c-1.5-.9-3.3-1.6-3.7-3.4 4 2.2 8.1 4.7 12.8 4.2 11.1.2 19.3-10.5 20.3-20.9.8-6.3-1.2-12.4-4.1-18z"/><path fill="#FF00FE" stroke="#FF00FE" stroke-width=".3" d="M890.3 384.3q2.6-2.4 5.7-3.7c2.1.2 3.8 1.8 5.5 3 2.5 2 5.8 2.6 8.7 4a120 120 0 0 0 43.8 11.2c7.7 1.2 15.4 0 23.2-.4 16.2-2 32.1-6.8 46.3-15 .9-.3 2-1.5 3-.8a114 114 0 0 1 35 38.6c-1 2.9-4.9 2-7.2 3.3-8.9 4.3-18.8 5.4-28.2 7.7a261 261 0 0 1-43 6.4c-15.7.4-31.5 0-47.2 0l-33-3c-7.7-.4-15-2.8-22.7-3.7-8-1.6-16.2-2.1-24.2-4l-.4-2.9c1.9-4 4.9-7.4 7-11.3s5.5-6.7 7.7-10.4c5.6-7.4 12.9-13.2 20-19z"/><path fill="#0FF" stroke="#0FF" stroke-width=".3" d="M1778.3 385.4c4.3-.6 9 0 12.5 2.8 8.4 6.3 10.3 20 3.5 28.1a19 19 0 0 1-22.8 4.2c-10-5-13.4-19.6-6.2-28.2 3.1-4 8-6.2 13-6.9zm-1652.9 3.1c5.4-1.6 11.8-1 16 3.1 8 7 9 20.7 1.6 28.4a20 20 0 0 1-19.9 4c-10.5-3.8-15.2-18-9.4-27.4 2.5-4 7-7 11.7-8.1z"/><path fill="#380AC0" stroke="#380AC0" stroke-width=".3" d="M780.4 398.6a20 20 0 0 1 17.8 7.2c6.6 6.6 7.5 16.6 5.9 25.3-2.4 9.3-10.8 18.5-21.1 17.7-8.6.7-16.2-5.7-19.5-13.2-2.5-5-2.5-10.9-2-16.4a24 24 0 0 1 19-20.6"/><path fill="#380AC0" stroke="#380AC0" stroke-width=".3" d="M778.3 400.5a22 22 0 0 0-14.7 15c-4.5 12.3 1.9 28.2 14.8 32 4.4.6 9.3.6 13.3-1.9 7.6-4.2 12.3-13 11.8-21.6a24 24 0 0 0-11-21.5 20 20 0 0 0-14.2-2z"/><path fill="#FF00FE" stroke="#FF00FE" stroke-width=".3" d="M778.3 400.5c4.8-.9 10-.7 14.2 2a24 24 0 0 1 11 21.5c.5 8.7-4.2 17.4-11.8 21.6-4 2.5-8.9 2.5-13.3 1.8-13-3.7-19.3-19.6-14.8-31.8a22 22 0 0 1 14.7-15.2z"/><path fill="#380AC0" stroke="#380AC0" stroke-width=".3" d="M1138.4 401.6c6-.9 12.1 1.6 16.6 5.5a25 25 0 0 1 7.8 20.9c.5 7.6-3.6 14.8-9.2 19.6-5 4-11.8 5.1-17.9 3.6a24 24 0 0 1-16-20.2c-.3-4.7-.5-9.5 1.3-14a23 23 0 0 1 17.4-15.4"/><path fill="#380AC0" stroke="#380AC0" stroke-width=".3" d="M1136.4 403.5c-4 1.2-7.7 3.4-10.2 6.7-7.3 9-7.6 22.9-.7 32.3 4.7 6.4 13.6 10.1 21.4 7.3 6.2-1.7 10.5-7 13-12.8 2.2-4.3 1.6-9.3 1.5-14-.5-12-12.9-23.4-25-19.5z"/><path fill="#FF00FE" stroke="#FF00FE" stroke-width=".3" d="M1136.4 403.5c12.1-3.9 24.5 7.5 25 19.5 0 4.7.7 9.7-1.4 14-2.6 5.7-7 11-13.1 12.8-7.8 2.8-16.7-.9-21.4-7.3a27 27 0 0 1 .7-32.3c2.5-3.3 6.3-5.5 10.2-6.7z"/><path stroke="#000" stroke-width=".3" d="m528.9 406.9.5-.7zm-.7.5z"/><path fill="#380AC0" stroke="#380AC0" stroke-width=".3" d="M1061.5 421.2c1.7 2 3.6 4.6 3.4 7.2-4.2 1.8-7.7 4.8-11.8 6.8a127 127 0 0 1-42.1 10.4c-9.3 1.2-18.7.3-28 1.7q-25 .4-50 .1c-10 .2-20-1.3-30-2.2-15.4-2-30.9-4.5-45.6-9.6q-3-1.2-5.3-3.4 1-3.9 3.5-7.2l.4 3c8 1.8 16.2 2.3 24.2 3.9 7.7 1 15 3.3 22.7 3.8q16.5 1.2 33 2.9c15.7 0 31.5.4 47.2 0a272 272 0 0 0 43-6.4c9.4-2.3 19.3-3.4 28.2-7.7 2.3-1.3 6.2-.4 7.2-3.3z"/><path fill="#FF00FE" stroke="#FF00FE" stroke-width=".3" d="M1053 435.2c4.2-2 7.7-5 12-6.8 2.8 4 3.6 9 5.4 13.4 5.7 17.3 7.7 35.8 4.8 53.8a20 20 0 0 0-8.5 1c-24.3 8.7-50 12.5-75.6 15q-20.1.8-40.1.2c-9.7-.4-19.4.4-29-1-7.4-.5-14.6-2.1-22-2.7-18-2.4-35.9-6.2-54-8-3.4-8.9-2.2-18.7-2.5-28-.3-6.5 2-12.7 2.5-19 1.1-7.2 4-14 6-20.9q2.4 2.2 5.4 3.4c14.7 5.1 30.2 7.6 45.6 9.6 10 1 20 2.4 30 2.2q25 .3 50 0c9.3-1.5 18.7-.6 28-1.8 14.3-1.9 29-3.8 42-10.4zm572.2 8c2-4 6.3-6.2 10.6-5.7 5.4-.1 10 3.6 12.6 8.1 1.3 2.2 1.1 4.8 2 7.1 3.7.4 6.2-3.1 9.8-3.4 5-1.5 11.9 0 14.2 5.3 1.9 3 1.2 6.7 1.1 10-1 4.9-6 6.7-9 9.8-.4 2.4 2.5 3.6 3.6 5.5 4.5 4.6 2.5 12.4-2 16.3-3.6 2-7.5 4.8-11.9 4.4-5.2-.2-9-4.2-13.2-6.5-2.4 1.2-3 4.2-4.8 6.1-5.7 8.7-20.9 6.3-24.4-3.2-1.4-4.4 2-8.3 1.8-12.6-3.3-3-8-4.7-9.9-9-2.3-5.3-3.4-12.3 1-16.8 4.3-3.9 10.6-1.4 16-2 1.7-4.3-.5-9.5 2.5-13.4"/><path fill="#FF00FE" stroke="#FF00FE" stroke-width=".3" d="M1630.6 454.4c-.4 3-.2 6.1-1.2 9-4.2.9-8.6-.4-12.6 1.3-.8 2.3-.5 4.7-.4 7 .9 4.4 5.7 6 7.9 9.3.5 3.5-1 7.1.1 10.6q3 2.3 6.6 2.3c2-.1 4.9.4 6-1.8 2-2 2.9-6.9 6.7-5.7 3.2 1.5 6.2 5 10.2 3.8 3.4-.8 8.3-3 7.7-7.1.2-4-4.3-6.2-4-10 2.3-2.4 6.7-4.1 6-8 .4-2.7-1-5.1-3-6.7q-3.7-.4-7.2.1c-1.9.8-3.5 2.1-5.4 2.7-1.4 0-2.7-1-2.8-2.3-1.2-3.2-1.8-7.2-5.3-8.8-3.5-2.1-8.2.5-9.3 4.3z"/><path fill="#380AC0" stroke="#380AC0" stroke-width=".3" d="M615.4 444.5c4.4-1.5 9.5-1.3 14 .3a25 25 0 0 1 14.1 19.4c.1 4.7.7 9.7-1.3 14.2-2 5-5.3 10-10.3 12.5-6.1 3.8-14.6 4-20.6-.2-14.3-9.1-15.2-33-1.5-43q2.5-2 5.6-3.2"/><path fill="#380AC0" stroke="#380AC0" stroke-width=".3" d="M616.4 445.4a23 23 0 0 0-14.2 15.8A26 26 0 0 0 611 489c8 6.3 20.8 3.6 26.5-4.6 7.6-10.1 6.7-26.3-3-34.8a18 18 0 0 0-18.1-4.2z"/><path fill="#FF00FE" stroke="#FF00FE" stroke-width=".3" d="M616.4 445.4a18 18 0 0 1 18 4.2c9.8 8.5 10.7 24.7 3.1 34.8-5.7 8.2-18.4 10.9-26.5 4.6a26 26 0 0 1-8.8-27.8 23 23 0 0 1 14.2-15.8z"/><path fill="#380AC0" stroke="#380AC0" stroke-width=".3" d="M1298.4 446.6c6.8-1.3 14.2 1 18.7 6.3a27.7 27.7 0 0 1 0 37.2c-3.9 4-9.3 7.2-15.1 6.5-6 .4-11.4-3-15.2-7.4-6.4-6.7-7.9-17-5.2-25.8 2-8 8.7-14.9 16.8-16.8"/><path fill="#380AC0" stroke="#380AC0" stroke-width=".3" d="M1296.4 448.5a23 23 0 0 0-13.7 15.1 29 29 0 0 0 2.7 22c3.6 5.2 9 9.6 15.6 9.8 7.4.8 14.5-3.9 18.3-10.1 7-11 4.2-27.6-7-34.7a19 19 0 0 0-16-2.1z"/><path fill="#FF00FE" stroke="#FF00FE" stroke-width=".3" d="M329.2 452.2c2.7-3.8 7.4-5.2 11.8-5.5 6.2 1 12.3 4.3 15.3 10 1.5 2.8 1.2 6 2.1 9 1.8 1.4 3.6-.3 5.2-1.1 6.4-4.4 15.8-5.4 22-.2 4.4 4.3 4.7 11.1 3.6 16.8-1 4.6-5.5 6.6-8.8 9.2-1.5.7-2.8 2.3-1.8 4 2.6 3.8 7.3 6.5 7.7 11.6-.2 4.7-2.3 9.4-5.6 12.7-4.6 3-10 6.3-15.7 5.6a32 32 0 0 1-13.2-7 3 3 0 0 0-3.3-1c-2.4 3.7-4.3 7.7-7.2 11-8.5 5.5-21.7 3.4-26.7-5.9-2.7-5.1.7-10.4 1.8-15.4-1.2-4.2-6.4-5.1-9.2-8.2A22 22 0 0 1 303 476c1-3.3 4.2-5.1 7.4-5.5 5-.4 10 .4 15.2.1 0-6.2-1-13.4 3.6-18.4"/><path fill="#FF00FE" stroke="#FF00FE" stroke-width=".3" d="M335.6 465.5c-2.9 3.7-1.3 8.8-3.7 12.6-4 1-8.2-.4-12.2.7-3.8 1.6-3.7 6.4-3.1 9.8q1.6 3.6 4.3 6.5c1.6 1.8 4.2 2.4 5.8 4.3.6 3.8-.9 7.6-.5 11.4.3 2.2 2 4.3 4.1 4.8 4 1 8.5 1 12.2-1.2 2-1.8 2.7-4.6 4.6-6.5 1.7-.6 4-.7 5.2.8a16 16 0 0 0 8.7 4.8q4.6-1.1 8.2-4.3c4-3 3-9.2.2-12.7-1.3-1.9-4.1-4.5-1.6-6.7 2.7-1.8 6-3.3 7.4-6.5a10 10 0 0 0-3.6-10.8c-4.1 0-9-1.4-12.3 1.7-1.4 1-3.3 2.5-5 1.5-3-4-1.7-10.6-7.2-12.8-3.8-1-9.4-1.7-11.5 2.6zm960.8-17a19 19 0 0 1 16 2c11.1 7.2 13.8 23.8 6.9 34.8-3.8 6.2-10.9 10.8-18.3 10.1-6.5-.2-12-4.6-15.6-9.8a29 29 0 0 1-2.7-22c2-6.7 7-12.9 13.6-15.1z"/><path fill="#380AC0" stroke="#380AC0" stroke-width=".3" d="M1630.6 454.4c1-3.8 5.8-6.4 9.3-4.3 3.5 1.5 4 5.6 5.3 8.8.1 1.4 1.4 2.3 2.8 2.3 2-.6 3.5-1.9 5.4-2.7q3.6-.5 7.2 0c2 1.5 3.4 4 3 6.5.7 4-3.7 5.7-6 8-.3 3.9 4.2 6.2 4 10 .6 4.3-4.3 6.4-7.6 7.2-4.1 1.2-7-2.3-10.3-3.8-3.8-1.2-4.7 3.6-6.6 5.7-1.2 2.2-4 1.7-6.1 1.8q-3.7-.2-6.6-2.3c-1.1-3.5.4-7-.1-10.6-2.2-3.3-7-4.9-7.9-9.2-.1-2.4-.4-4.8.4-7 4-1.8 8.4-.5 12.6-1.3 1-3 .8-6.1 1.2-9.1"/><path fill="#380AC0" stroke="#380AC0" stroke-width=".3" d="M1638.4 462.4c-3.4.7-6.5 3.2-7.6 6.4s-.4 7 1.6 9.8c3.8 5.3 13.1 5 16.5-.6 2.6-4.6 1.6-11-2.7-14.2-2.2-1.9-5.2-1.8-7.9-1.4zM843 471c.4-6 .4-12.6 3-18-.6 6.4-2.8 12.6-2.5 19 .3 9.4-1 19.2 2.5 28.1 18.1 1.8 36 5.6 54 8 7.4.6 14.6 2.2 22 2.7 9.6 1.4 19.3.6 29 1q20 .6 40-.2c25.7-2.5 51.4-6.3 75.7-15a20 20 0 0 1 8.5-1c.7 3-.7 6-1.4 9h-.6c-1.6-1.4-3.3.2-4.8.9-4.2 2.5-8.8 3.9-13.2 5.8-6.6 3.2-14 4.1-21.1 5.5-9.3 2-19 2.5-28.4 3.5-4.9.6-9.8 0-14.7.6-6.3 1-12.7.6-19 .7l-50-.2c-6.9-1.3-14-.5-20.9-2-10.3-2-20.8-3.2-31-5.7-7.6-1.9-14.9-4.5-22.3-6.7l-.2 4c-2.4-5.2-2.8-11-4-16.6-.6-7.8-1.5-15.6-.5-23.4zm-507.4-5.5c2-4.3 7.7-3.6 11.5-2.6 5.5 2.2 4.2 8.8 7.2 12.9 1.7 1 3.6-.7 5-1.6 3.3-3 8.2-1.7 12.3-1.6a9.4 9.4 0 0 1 3.5 10.7c-1.3 3.2-4.6 4.7-7.3 6.5-2.5 2.2.2 4.8 1.6 6.7 2.8 3.5 3.8 9.8-.2 12.7a18 18 0 0 1-8.2 4.3 16 16 0 0 1-8.7-4.8c-1.3-1.5-3.5-1.4-5.2-.8-1.9 2-2.7 4.7-4.6 6.6-3.7 2-8.2 2.1-12.2 1a6 6 0 0 1-4-4.7c-.5-3.8 1-7.6.4-11.4-1.6-2-4.2-2.5-5.8-4.3q-2.7-3-4.3-6.5c-.6-3.4-.7-8.2 3.1-9.8 4-1 8.2.3 12.2-.7 2.5-3.8.8-8.9 3.7-12.6"/><path fill="#380AC0" stroke="#380AC0" stroke-width=".3" d="M345.4 477.4q-5.1.7-8.6 4.4c-3.7 4.3-3.4 11 0 15.4 4.6 6.8 16.5 6.2 20.2-1.2 5-7.7-1.9-20.6-11.6-18.6z"/><path fill="#0FF" stroke="#0FF" stroke-width=".3" d="M1638.4 462.4c2.6-.4 5.6-.5 7.8 1.4 4.3 3.2 5.3 9.6 2.7 14.2-3.4 5.6-12.7 5.9-16.5.6-2-2.8-2.6-6.5-1.6-9.8 1.1-3.2 4.2-5.7 7.5-6.4zm-1293 15c9.7-2 16.6 10.9 11.7 18.6-3.8 7.4-15.7 8-20.3 1.2a12.5 12.5 0 0 1 0-15.4q3.5-3.7 8.6-4.4z"/><path fill="#380AC0" stroke="#380AC0" stroke-width=".3" d="M479.8 511.9c4-4.9 9.6-9.1 16.2-8.7 4.5 0 10.5.5 12.8 5a22 22 0 0 0-14.8-3.9c-9.2 1.4-16.2 9.9-17.6 18.9-.6 6.2-.6 13 3 18.4 4.2 8 14.2 12.6 23 9.7 11.8-4.3 17.5-19 13.9-30.6-1-4.4-3.9-8-6.4-11.5 2.3.2 3.2 2.7 4.5 4.3a27.3 27.3 0 0 1-6 35.9c-7 5.6-17.6 5.2-24.4-.5a27.7 27.7 0 0 1-4.2-37z"/><path fill="#FF00FE" stroke="#FF00FE" stroke-width=".3" d="M476.4 523.2c1.4-9 8.4-17.5 17.6-18.9 5.3-.8 10.4 1.2 14.8 3.9l1 1c2.6 3.5 5.5 7.1 6.5 11.5 3.6 11.7-2 26.3-14 30.6-8.7 3-18.7-1.6-22.9-9.7-3.6-5.4-3.6-12.2-3-18.4zm592-17.7c1.5-.7 3.2-2.3 4.8-1A116 116 0 0 1 968 594.7q-11.2 1.6-22.3-.9c-10.6-.5-21-3.6-30.8-7.6a117 117 0 0 1-67.3-75.2l.2-4c7.4 2.2 14.7 4.9 22.3 6.8 10.2 2.4 20.7 3.6 31 5.6 7 1.5 14 .7 21 2q25 .4 50 .2c6.2 0 12.6.3 18.9-.7 4.9-.6 9.8 0 14.7-.5 9.5-1.1 19-1.5 28.4-3.6 7.1-1.4 14.5-2.3 21-5.5 4.5-2 9.1-3.3 13.3-5.8z"/><path fill="#380AC0" stroke="#380AC0" stroke-width=".3" d="M1422.4 506.6c8-2.4 16.4 1.3 21.5 7.4 4 5.4 6 12.2 5.7 19-.9 7.5-4 15.5-10.8 19.8a19 19 0 0 1-15.6 3c-9.3-2-15.9-10.7-17-19.8-2.4-12 4.2-25.8 16.2-29.4"/><path fill="#380AC0" stroke="#380AC0" stroke-width=".3" d="M1424.3 507.5c-9.3 1.7-15.8 10.6-17.1 19.5a27 27 0 0 0 2.2 15.6 21 21 0 0 0 19.6 12.6c4.2-.3 8-2.4 11.2-5 11.6-10.3 10.8-32.3-3.1-40.3a17 17 0 0 0-12.8-2.4z"/><path fill="#FF00FE" stroke="#FF00FE" stroke-width=".3" d="M1424.3 507.5c4.4-.8 9.1-.3 12.8 2.4 14 8 14.7 30 3.1 40.4a21 21 0 0 1-11.2 4.9c-8.3.5-16.4-5-19.6-12.6a27 27 0 0 1-2.2-15.6c1.3-9 7.8-17.8 17.1-19.6z"/><path fill="#380AC0" stroke="#380AC0" stroke-width=".3" d="M701.7 522.8a25 25 0 0 1 16.2 1.6l1.2 2c-3.9-1.6-7.8-3.7-12-3.2-4.8 0-9 2.6-12.9 5 1-3 4.8-4 7.5-5.4z"/><path fill="#FF00FE" stroke="#FF00FE" stroke-width=".3" d="M694.2 528.3c4-2.4 8-5.1 12.8-5.1 4.3-.4 8.2 1.6 12.1 3.2l-1.2-2q2.5.4 3.6 2.7h-1.8c3 3.5 6.2 7.1 7.4 11.7 2 8 1.5 17-3.5 23.8-3.8 5-10 9-16.6 8.5-4.7 0-9.3-2.2-12.5-5.6-3.6-3.2-4.7-8-6.6-12.2-2.5-8.4.5-17.2 5.4-24z"/><path fill="#380AC0" stroke="#380AC0" stroke-width=".3" d="M1211.4 525.6c6.1-.9 13.3-.8 17.9 4.1 10.8 8.6 12 25.8 4 36.6a20 20 0 0 1-20.3 8.6c-4.3-.4-7.8-3.3-11-5.9-10.3-10.4-9.8-30 1.7-39.3q3.4-3 7.7-4.2"/><path fill="#380AC0" stroke="#380AC0" stroke-width=".3" d="M1212.4 526.5c-7.1 2-13 7.9-15.2 14.9-1.5 4.3-1.1 9-1 13.6 1 8.6 7.7 16.2 16 18.6 4.5.4 9.5.8 13.5-1.9 13.8-8.1 15.7-30.4 3.2-40.6-4.1-4.6-10.7-5.6-16.5-4.6z"/><path fill="#FF00FE" stroke="#FF00FE" stroke-width=".3" d="M1212.4 526.5c5.8-1 12.4 0 16.5 4.6 12.5 10.2 10.6 32.5-3.2 40.6-4 2.7-9 2.3-13.6 2a23 23 0 0 1-15.8-18.7c-.2-4.5-.6-9.3 1-13.6 2.2-7 8-12.9 15-14.9z"/><path fill="#380AC0" stroke="#380AC0" stroke-width=".3" d="m719.8 527 1.7.1c5 5.4 8.4 12.5 8.1 20 .3 8.3-3.6 17-10.8 21.7a19 19 0 0 1-23-.6A27.4 27.4 0 0 1 689 534c1-1.8 2-4.3 4.3-4.8-5 6.9-8 15.7-5.4 24 2 4.3 3 9.1 6.6 12.3a18 18 0 0 0 12.5 5.6 20 20 0 0 0 16.6-8.5c5-6.8 5.6-15.8 3.5-23.8-1.2-4.6-4.4-8.2-7.4-11.8z"/><path stroke="#000" stroke-width=".3" d="M344.3 567.1c3-1.4 0 3.3 0 0z"/><path fill="#FF00FE" stroke="#FF00FE" stroke-width=".3" d="M1022.5 579.3c3.2-1.8 5.8-4.7 9.3-6 5.3 4.7 9.4 10.6 13.9 16a320 320 0 0 1 44.5 82.7v2.8q-1.7 1.6-4 2.2c-6.6 1.8-12.8 5-19.6 5.9-15.2 4.6-31 6.7-46.6 9-8.1.5-15.9 3-24 2.8-23 1.6-46 .2-69-.2q-25.2-1.8-50-5.8c-13.8-3.2-28-5-42-6.7l-1.8-1c5.5-13 10-26.5 16.5-39 6-12.5 12.3-24.8 19.9-36.4a192 192 0 0 1 22.5-29c3.5 1.3 6.4 3.8 9.8 5.5a113 113 0 0 0 59 14.6c21.8.6 43.1-6.3 61.6-17.4z"/><path fill="#0FF" stroke="#0FF" stroke-width=".3" d="M800.1 616.9c23-6.2 46.2-12.4 69.8-15.9-2.4 4.5-5.4 8.6-7.9 13a400 400 0 0 0-34.2 76.8q-11.1 33.5-18 68c-.2 2.2-2.5 3-4.1 4-10.2 5.5-20.1 11.4-30.6 16.5-4 2.3-8.5 3.8-12 6.8-4.2 1.2-7.7 3.8-11.6 5.5-7.8 3.4-15.3 7.4-23 11-48.7 23.2-98.5 44-149.5 61.5a948 948 0 0 1-105 30.2 454 454 0 0 1-57 9.1q-2.1.1-4.1.8l-.8.2q-5.5-.4-11.1-.1c-6 .3-12.1-.4-18.1.1l-.8-.1q-4-1.4-8.3-1.7a52 52 0 0 1-21-8.5l-1-1c-2.7-4.5-5.3-9.6-4.4-15.1a59 59 0 0 1 13.6-28c2.5-3.5 5.8-6.4 8-10.1l.8-1q6.1-5 11-11.2l2-1.8a23 23 0 0 0 8-7.2q10.3-9.8 22-17.8c3.2-1.4 5.8-3.6 8.6-5.6a1009 1009 0 0 1 137-82c7.2-4.5 15.3-7.4 22.8-11.3 18.7-9.6 38.1-18 57.3-26.6a1333 1333 0 0 1 161.6-58.5"/><path fill="#0FF" stroke="#0FF" stroke-width=".3" d="M752.4 697.4c-7.1 2.2-11 10.5-9.3 17.5 1.3 6.7 8.3 13 15.4 10.6 8.7-2.6 12-14 7.6-21.6-2.3-5.1-8.3-8-13.7-6.5m-86.1 25a21 21 0 0 0-13 15c-2.5 9.4 2 20.9 11.3 25a17 17 0 0 0 15.3-1.5 22 22 0 0 0 9-20c0-11-11.2-22.1-22.6-18.5m-98 32c-12.3 3.4-20 16.2-20 28.6a31 31 0 0 0 13.7 26c4 2.2 8.3 4 13 3.6 8.7-.6 16.5-6.3 20.7-13.9 6.5-12.3 4.8-29-5.8-38.6a23 23 0 0 0-21.6-5.7m-103 42a32 32 0 0 0-21.7 15.2 41 41 0 0 0 2 45.7 31 31 0 0 0 24.4 12.8 31 31 0 0 0 21.8-10.3 40.4 40.4 0 0 0-.6-54 29 29 0 0 0-25.9-9.4zM1065.2 605c22.4-3.1 45 0 67.3 3.3q33 5.6 65.3 14.6c41.3 11.2 81.7 25.1 121.4 40.7a1484 1484 0 0 1 113 50q12.9 6 25.3 12.8c7.7 4 15.5 7.6 23 12.1a865 865 0 0 1 120 76.9c7.3 5 13.2 11.8 20.6 16.5l1.1.9c5.7 7 13 12.4 18.4 19.6 7.8 9.2 15.6 19.2 18 31.3a19 19 0 0 1-3.6 16.3c-6.3 7-16 9.7-25 11.2-10.3 2-20.7 1.3-31 1.3a493 493 0 0 1-80.2-13.1c-41-9.9-81-23-120.5-37.5A1404 1404 0 0 1 1178.1 758a765 765 0 0 1-70.6-46.3l-2.7-3.6c-3.3-9.8-6.2-19.8-10-29.4l-.7-1.9c-8.6-24.4-19.8-48-33.4-70q2-1.5 4.5-2"/><path fill="#0FF" stroke="#0FF" stroke-width=".3" d="M1205.3 682.3a14 14 0 0 0-9.8 14.7c-.5 7.3 6 14.5 13.5 14 7.1-.9 11.9-8.2 11.7-15 0-7.8-7.3-15.9-15.4-13.7m83 25a20 20 0 0 0-12.9 13.3c-3.6 10 1.1 22.7 11.2 26.8 5 1.8 11.4 1.5 15.6-2.2a22.6 22.6 0 0 0 2-33.4c-4-4-10.2-6.4-15.9-4.5m96 31.9a26 26 0 0 0-17 14 33 33 0 0 0 2.2 33.4c4.5 6.1 11.6 11 19.5 10.8 7.2.3 14.2-3.3 18.6-8.8 10-11.8 9.7-31-1-42.2a24 24 0 0 0-22.3-7.2m104.1 42.3a33 33 0 0 0-23.7 20.3c-7 16-2.6 37.2 12 47.5a28 28 0 0 0 27.2 3.7c7-2.8 12.7-8.3 16.4-14.8 9-15 6.7-36.2-6.1-48.4a29 29 0 0 0-25.8-8.3z"/><path fill="#380AC0" stroke="#380AC0" stroke-width=".3" d="M1090.2 672q1.4 2.9 3.9 4.9l.7 2-.7 3.1c-7 6.1-15.7 9.4-24.2 12.8q-13.5 4-27.7 6.2c-16 2.7-32.1 3-48.2 4.6h-65c-16.3-1.7-32.6-2-48.7-5-7-1.2-14-2-20.8-4.3-6.3-2.4-13.2-2.4-19.3-5.5-3.1-1-6.2-4-9.6-2.3q1-3.9 2.6-7.5l1.8 1c14 1.7 28.2 3.5 42 6.7 16.5 2.9 33.2 4.5 50 5.8 23 .3 46 1.8 69 .2 8.1.2 15.9-2.3 24-2.7 15.6-2.4 31.4-4.5 46.6-9.1 6.8-1 13-4.1 19.5-6q2.4-.5 4-2.1z"/><path stroke="#000" stroke-width=".3" d="m1094 682 .8-3.2c3.8 9.6 6.7 19.6 10 29.4 21.5 74.8 30 153 28.9 230.7a813 813 0 0 1-17.1 155.8c-9 41-21.3 81.5-39.8 119.2-13.8 27.8-31 54.8-55 74.9a100 100 0 0 1-51.4 23.2h-12.8a92 92 0 0 1-35.2-11.4 148 148 0 0 1-43.5-39.5 342 342 0 0 1-47.7-92.2 654 654 0 0 1-31.1-134.9 883 883 0 0 1-6.2-146.9l2 1.2c-1.8 52.5.1 105.2 7.6 157.2 0 4.3 1.1 8.5 2 12.7 4 23.7 8.6 47.4 15.4 70.5a462 462 0 0 0 17.9 54.6 367 367 0 0 0 29.6 59.3c5 8.1 11 15.6 16.8 23.2a121 121 0 0 0 20.6 20.5c2.6 2 4.8 4.6 7.6 6.3 5.7 3.4 11 7.8 17.3 10a75 75 0 0 0 59.4 2.5c16.5-6.2 31-17.1 43.2-29.8 26.8-28.7 44.6-64.4 58.2-100.9 14.3-38 23.7-77.6 30.2-117.6.2-2.3 1.3-4.8-.2-6.9q3.2-2.9 2.6-7.1c.6-11 2.9-21.8 3.6-32.7 5-51.2 5.2-102.9 1.5-154.2q-1.7-18.9-3.8-37.8c-3.7-23.8-7-47.6-12.6-71-4.8-18.5-9.5-37-15.6-55q-1.7-5-3.1-10.1z"/><path fill="#FF00FE" stroke="#FF00FE" stroke-width=".3" d="M1070 694.8c8.4-3.4 17.1-6.7 24-12.8l3.2 10c6.1 18 10.8 36.6 15.6 55 5.5 23.5 9 47.3 12.6 71.1l3.8 37.8c3.7 51.3 3.5 103-1.5 154.2-.7 11-3 21.7-3.6 32.7-8-1.3-15.1 2.8-22.5 5a210 210 0 0 1-35.8 9.3c-9.4 1.6-18.8 3.6-28.4 4.6-12.7 2.2-25.7 2.7-38.5 4.7-13.3.4-26.6 0-40 0a386 386 0 0 0-38-1.9 860 860 0 0 1-34-3.8c-10.9-2.8-22.2-3.6-33.2-6.2q-25-4.7-50.2-9c-7.5-52-9.4-104.7-7.6-157.2a237 237 0 0 0 30 10.6q34.1 8.3 69 11.2c4.9.4 9.8 0 14.6.7 6.4 1.1 13 .2 19.5 1.4a742 742 0 0 0 76.6.2c7.4-1.6 15-.5 22.4-1.2 7.3-1.2 14.7-.5 22-1.5 19.2-2.2 38.4-5.3 56.5-12.3 7.5-3.8 15.6-7 21.7-13.1 1.3-1.4 2.6-3.2 2-5.1-1.8-2.5-5.4-1.7-8-1.2q-10 2.8-19.8 6.3a399 399 0 0 1-65.4 13.2c-13.3 1.4-26.6 3.4-40 3.2-15.3 1.4-30.7-.3-46-.1-6.7-.2-13.4.3-20-.7q-24-1-48-4.2c-5.7-.3-11.1-1.8-16.6-2.9-11.7-1.7-23.3-4-35-6-11.7-3-24-3-35.7-5.7 1-4.6.7-9.4 1.5-14 1-23.7 4.5-47.1 7.5-70.5 2.3-10.4 3.3-21 5.6-31.4a782 782 0 0 1 20.3-76.7c3.4-1.6 6.5 1.3 9.6 2.3 6 3 13 3.1 19.3 5.5 6.8 2.2 13.8 3 20.8 4.3 16 3 32.4 3.3 48.7 5h65c16-1.7 32.3-2 48.2-4.6q14-2.2 27.7-6.2z"/><path fill="#380AC0" stroke="#380AC0" stroke-width=".3" d="M1205.3 682.3c8.1-2.1 15.4 6 15.4 13.7.2 6.9-4.6 14.1-11.7 15-7.5.5-14-6.7-13.5-14a14 14 0 0 1 9.8-14.7zm-452.9 15.1A12 12 0 0 1 766 704c4.5 7.6 1.1 19-7.6 21.6-7.1 2.5-14.1-4-15.4-10.6-1.8-7 2.2-15.3 9.3-17.5zm535.9 9.9c5.6-1.9 11.8.5 15.9 4.5a22.6 22.6 0 0 1-2 33.4c-4.2 3.7-10.5 4-15.6 2.2-10-4.1-14.8-16.9-11.2-26.9a20 20 0 0 1 13-13.2zm-622 15.1c11.4-3.6 22.6 7.4 22.6 18.5.8 7.6-2.6 15.6-9 20-4.4 3-10.4 3.3-15.3 1.5-9.2-4.1-13.8-15.6-11.3-25a21 21 0 0 1 13-15zm718 16.8c8-2.1 16.7 1.3 22.3 7.2a32.5 32.5 0 0 1 1 42.2 23 23 0 0 1-18.6 8.8c-7.9.1-15-4.7-19.5-10.8-6.6-9.7-7.8-23-2.2-33.3a26 26 0 0 1 17-14zm-816 15.2c7.6-2 16 .3 21.6 5.7a33 33 0 0 1 5.8 38.6 27 27 0 0 1-20.8 14A23 23 0 0 1 562 809a31 31 0 0 1-13.7-26c0-12.4 7.7-25.2 20-28.6zm920.1 27.1a29 29 0 0 1 25.8 8.3 40 40 0 0 1 6 48.4c-3.6 6.5-9.3 12-16.3 14.8-9 3.5-19.6 2.2-27.2-3.7-14.6-10.3-19-31.4-12-47.5a33 33 0 0 1 23.7-20.3zM465.3 796.4a29 29 0 0 1 26 9.3 40.4 40.4 0 0 1 .5 54 31 31 0 0 1-21.8 10.4 31 31 0 0 1-24.3-12.8 41 41 0 0 1-2-45.7 32 32 0 0 1 21.6-15.2zm657 81.6c2.5-.5 6-1.3 7.9 1.2.6 1.9-.7 3.7-2 5-6 6.1-14.2 9.4-21.7 13.2-18 7-37.3 10.1-56.4 12.3-7.4 1-14.8.3-22 1.5-7.5.7-15.1-.4-22.5 1.2a742 742 0 0 1-76.6-.2c-6.5-1.2-13-.2-19.5-1.4-4.8-.7-9.7-.2-14.5-.7a446 446 0 0 1-69.2-11.2 235 235 0 0 1-30-10.6L794 887c-1.3-2.1-.5-4.3.6-6.3l1.2.3c11.7 2.7 24 2.7 35.7 5.7 11.6 2 23.3 4.3 35 6 5.5 1.2 11 2.6 16.6 3q24 3 48 4c6.6 1.1 13.3.6 20 .8 15.3-.2 30.7 1.5 46 .1 13.4.2 26.7-1.8 40-3.2 22-3 44.1-6.5 65.4-13.2q9.8-3.5 19.9-6.3zm-20.6 169.8c7.3-2.2 14.5-6.3 22.4-5q.6 4.2-2.6 7.1a71 71 0 0 1-24.1 14.3 236 236 0 0 1-67.4 12.1c-6 1.7-12 1-18 2.1q-37.5.2-75 .1c-4.4 0-8.7-1.2-13-1-4.5.2-8.8-1-13.2-1.3-30.4-2-60.9-6.8-90-16.2-5-1.5-9.5-5.4-14.9-5.2l-.4 3.3c-.9-4.1-2-8.3-2-12.6q25.2 4.3 50.2 9c11 2.6 22.3 3.4 33.3 6.2q17 2.2 34 3.8 19 0 38 2c13.3 0 26.6.3 39.9-.1 12.8-2 25.8-2.5 38.5-4.7 9.6-1 19-3 28.4-4.6q18.3-3 35.9-9.3z"/><path fill="#FF00FE" stroke="#FF00FE" stroke-width=".3" d="M1097.4 1064.2a71 71 0 0 0 24.1-14.3c1.5 2 .4 4.6.2 6.9-6.5 40-15.9 79.7-30.2 117.6-13.6 36.5-31.4 72.2-58.2 101A120 120 0 0 1 990 1305c-19 7.5-41 6.4-59.3-2.6-6.4-2.1-11.6-6.5-17.3-10-2.8-1.7-5-4.1-7.6-6.2a127 127 0 0 1-20.6-20.5c-5.7-7.6-11.8-15-16.8-23.2a367 367 0 0 1-29.6-59.3c-6.7-18-13.4-36-17.9-54.6a619 619 0 0 1-15.4-70.5l.4-3.4c5.4-.2 9.9 3.7 15 5.2 29 9.4 59.4 14.2 90 16.2 4.3.4 8.6 1.5 13 1.3s8.7 1 13 1q37.5.2 75 0c6-1.1 12.2-.5 18-2.2a236 236 0 0 0 67.5-12.1z"/><path fill="#FFF" d="M909.2 283.4a82 82 0 0 1-82.5-10.2h-.8c-4.4-5-9.7-9.1-13.7-14.5a83 83 0 0 1-16.6-40.7 171 171 0 0 1 0-19c2.1-16.4 9.1-32 20-44.5a84 84 0 0 1 42-25 84 84 0 0 1 43.1 1.3 82 82 0 0 1 56.3 65.3 81.4 81.4 0 0 1-47.8 87.3m28-85.7c-5.1-12.4-20.2-18.5-32.8-15-10.1 2.6-19.3 11.5-19.7 22.3a23 23 0 0 0 7 18.2 29 29 0 0 0 39.8.3c7-6.2 9.7-17.2 5.7-25.8"/><path fill="#FFF" d="M959 198.1a82 82 0 0 1 50.3-67l10.2-3.7a92 92 0 0 1 39-.2 84 84 0 0 1 38 20.3c7.9 8.6 15.2 18 19.3 29a84 84 0 0 1 5 40.4 91 91 0 0 1-9.5 29.4l-.4.5h.1a87 87 0 0 1-17.8 21.4 85 85 0 0 1-38.7 18.3 83 83 0 0 1-46.5-5.4c-7.7-2.8-14-8-21-12.1-5.7-6-11.7-12-15.9-19.2A81 81 0 0 1 959 198m62.4-14.4a30 30 0 0 0-25-4.1c-8.4 2.5-16 9-18.2 17.7a23 23 0 0 0 6.7 22.8c10 10 27.7 10.3 38.2 1 5.4-4.3 9-11 8.7-18.1.3-7.7-4.3-14.9-10.4-19.3"/><path d="m1111 246.9.3-.6zm-.1-.1.3-.5z"/><path fill="#380AC0" d="M987 269c7 4.2 13.3 9.3 21 12.1a83 83 0 0 0 46.5 5.4 85 85 0 0 0 38.7-18.3q.3 5-.7 10 0-3.2-.3-6.5-2.2.1-3.9 1.6a84 84 0 0 1-38.6 15.2 98 98 0 0 1-27.9-1.5q-5.4-1.4-10.6-3.2a63 63 0 0 1-12.9-6.2c-4-2.6-8.3-4.8-11.2-8.7"/><path fill="#FFF" d="M1006.5 205.6c-1 5-8.5 6.5-11.4 2.3-3-3-.5-7.9 3.2-8.7 4-1.5 9.1 2 8.2 6.4"/><path d="M996.4 179.6a30 30 0 0 1 25 4c6 4.5 10.7 11.7 10.4 19.4.4 7-3.3 13.8-8.7 18.2A29 29 0 0 1 985 220a23 23 0 0 1-6.7-22.8 26 26 0 0 1 18.2-17.7m-1.3 28.3c3 4.2 10.3 2.7 11.4-2.3 1-4.4-4.2-8-8.2-6.4-3.7.9-6.2 5.8-3.2 8.7"/><path fill="#FF00FE" d="M1023.2 24.2a120 120 0 0 0-30.4 54.6 199 199 0 0 0-6.9 34l-7.1-1c1.2-16.1 6.4-31.6 11-47a101 101 0 0 1 35.4-50.6 63 63 0 0 1 27.6-11.5c13.3-3 28-1.3 39.8 5.7a48 48 0 0 1 22.9 32.8 44.7 44.7 0 0 1-40.5 52 41.7 41.7 0 0 1-44.3-33.7A40 40 0 0 1 1042 26a36 36 0 0 1 21-10 36 36 0 0 1 37 24 30 30 0 0 1-5.7 27.3 29 29 0 0 1-34.4 9c-11.8-5.5-17-21-12.4-32.8a20 20 0 0 1 20.4-12c1.1 2.6-.1 6.5-3.2 7-4.3 1.3-8.6 3.6-10.2 8-4 8.2 0 19 8.3 22.9a23 23 0 0 0 29.5-12.1c3-8.5.9-18.6-5-25.3a28 28 0 0 0-33.6-5.4 31 31 0 0 0-13.7 38.5 35 35 0 0 0 41.8 19.8c5.3-1.3 9.5-5 13.8-8.3 10-7.3 13.7-20.7 12.7-32.5a37 37 0 0 0-16.6-27.6 46 46 0 0 0-26.6-7.8 68 68 0 0 0-41.8 15.6M941 260a83 83 0 0 0 17-38.9l1 .1c1 2.9 1.4 6 2.2 8.8a84 84 0 0 0 13.4 26.4c3.8 4.6 7.4 9.5 12.5 12.6 2.9 3.8 7.3 6 11.2 8.6q6 3.9 12.9 6.2l-8.9 22.7c-1.1 0-2.1.2-2 1.6a40 40 0 0 1-27.4 34.7c-6.4 2.4-13.2 1.8-19.9 1.7a43 43 0 0 1-25.3-12.2 35 35 0 0 1-10.3-25.8l-2.3-.1.4-25.2A82 82 0 0 0 941 260m17-68.3c-1.6-2.4-2-5.4-2.7-8.2a84 84 0 0 0-44-49.7c-3.2-1.5-6.6-2.5-9.5-4.6 2.7-2 5.8-3.3 8.9-4.7 9.3-4 18.9-8 29-9.3 10.6-2 21.6-3.2 32.4-2q10.4.5 20.6 3.7a97 97 0 0 1 22.8 7.8l.5 2.3c-7.8 3.2-15.8 6.4-22.6 11.4a82 82 0 0 0-31 39.8c-1.8 4.4-2.4 9.2-4.3 13.5"/><path fill="#FFF" d="M911.4 200.2c3.5-1.9 9-.5 9.6 4 1.2 5.7-7.3 8.8-10.9 4.7-3-2.3-2-7.2 1.3-8.7"/><path d="M929.9 340.2a40 40 0 0 1-17.6-33.8l5.1.1c-.6 9.5 3.8 19 10.3 25.8a42 42 0 0 0 25.3 12.2c6.6.1 13.5.7 19.8-1.7a40 40 0 0 0 27.6-34.7c-.2-1.4.8-1.6 1.9-1.6h1.7c2.2 1.3.8 4.2.7 6.1a44 44 0 0 1-18.4 28.6 49 49 0 0 1-56.4-1m-19.8-131.3c3.6 4 12 1 11-4.8-.7-4.4-6.2-5.8-9.7-3.9-3.3 1.5-4.2 6.4-1.3 8.7m-5.7-26.2c12.7-3.5 27.7 2.6 32.8 15 4 8.6 1.3 19.6-5.7 25.8a29 29 0 0 1-39.7-.3 23 23 0 0 1-7.1-18.2c.4-10.8 9.6-19.7 19.7-22.3"/><path fill="#380AC0" d="M911.3 133.8a84 84 0 0 1 44 49.7c.8 2.8 1.1 5.7 2.8 8.2 1.9-4.3 2.5-9 4.3-13.5a82 82 0 0 1 31-39.8c6.8-5 14.8-8.2 22.6-11.4l-.5-2.3q2 1.2 4 2.7l-10.3 3.8A82 82 0 0 0 959 198l-.1-2.8-1.9.8a83 83 0 0 0-56.3-65.2l1-1.7c3 2 6.4 3.1 9.6 4.6"/><path fill="#FF00FE" d="M834.7 279.8a76 76 0 0 0 40.3 10.7c14.1 1 28.2-2.6 40.6-9.3l-.5 25.2h-2.8a40 40 0 0 0 17.6 33.8 49 49 0 0 0 56.4 1 44 44 0 0 0 18.4-28.6c.1-2 1.5-4.8-.7-6l-1.7-.1 8.9-22.7q5.2 1.8 10.6 3.2a98 98 0 0 0 28 1.5 84 84 0 0 0 38.5-15.2 7 7 0 0 1 3.9-1.6q.3 3.3.3 6.5a127 127 0 0 1-5 21.1 140 140 0 0 1-53.2 75 126 126 0 0 1-77.3 23 127 127 0 0 1-49.8-13.4 137 137 0 0 1-67.3-78c-2.6-8.6-6-17.2-6.3-26.3zM894.4 9.6a86 86 0 0 1 30.2 30.8 127 127 0 0 1 13.3 32.8c3.4 12.7 6.6 25.4 8.3 38.5L939 113a276 276 0 0 0-10.3-45.7 106 106 0 0 0-24.8-42.2 60 60 0 0 0-66.3-12.5 38.5 38.5 0 0 0 6 70.9A37 37 0 0 0 884 67c4-7.3 4.2-16.2 2.2-24.2a30 30 0 0 0-17.8-19.2c-9-3.5-19.9-1.7-27.4 4.4a25 25 0 0 0-9 21 24 24 0 0 0 13 19c8.5 4.4 19.6.7 24.9-7.1a16 16 0 0 0-3.4-21.4c-2.6-2-6-2.2-9-3q-.4-3.1-.1-6.2c8-1.6 16.6 3 19.8 10.4 6.1 13.2-1 30.8-15 35.3-9.8 2.5-21 .4-28.4-6.8A32 32 0 0 1 830 29a35 35 0 0 1 39-13 38 38 0 0 1 25.2 28.7 40 40 0 0 1-23.8 43.7 45 45 0 0 1-45-6.7 51 51 0 0 1-15.2-25.8 44 44 0 0 1 8-35.6A52 52 0 0 1 852.6 0h17a86 86 0 0 1 25 9.6"/><path d="M826.7 273.2a82 82 0 0 0 118.8-20.8A81 81 0 0 0 957 196l1.9-.8v2.8a81 81 0 0 0 12.2 51.7c4.2 7.3 10.2 13.2 16 19.1-5.1-3-8.7-8-12.5-12.5a84 84 0 0 1-13.4-26.4c-.8-2.9-1.2-6-2.3-8.8h-.8a83 83 0 0 1-42.6 60 76 76 0 0 1-40.5 9.3c-14.2.8-28-4-40.3-10.7l-1.1-.2c.4 9 3.7 17.7 6.3 26.3a137 137 0 0 0 67.3 78c15.4 8 32.5 12.2 49.8 13.4 27.3 1.1 55-7.1 77.2-23a140 140 0 0 0 53.3-75 127 127 0 0 0 5-21.1q1-5 .7-10A87 87 0 0 0 1111 247c-3.1 8-9.7 13.8-15 20.3-1.3 6-1.4 12-2.8 18-7.4 39-31.2 75-65.3 95.8q11.7 8.4 21.3 19.3a118 118 0 0 1 29.2 77.7c.4 31.1-12.4 62-34.5 84-3.2 3.5-7.3 6.2-10.3 9.9a282 282 0 0 1 26 33.3l1 1.6a358 358 0 0 1 33.5 70.1q-2.5-2-3.9-4.9a320 320 0 0 0-44.5-82.7c-4.5-5.4-8.6-11.3-14-16-3.4 1.3-6 4.2-9.2 6-18.5 11-39.8 18-61.5 17.5-20.6.6-41.2-4.6-59.1-14.7-3.4-1.7-6.3-4.1-9.8-5.5a192 192 0 0 0-22.5 29c-7.6 11.6-13.9 24-19.9 36.4-6.6 12.5-11 26-16.5 39q-1.6 3.7-2.6 7.5a782 782 0 0 0-20.3 76.8c-2.3 10.3-3.3 21-5.6 31.3-3 23.4-6.5 46.8-7.5 70.4-.8 4.7-.4 9.5-1.5 14.1l-1.2-.3a765 765 0 0 1 14.3-118.3l-.5.1.4-1.7a3 3 0 0 0 1-2q7-34.7 18.1-68.1a397 397 0 0 1 34.2-76.8c2.5-4.4 5.5-8.5 7.9-13h-.2l.6-1.2h.3c3-3.1 5-7 7.8-10.4 3.7-5 8-9.5 11.9-14.4A118.7 118.7 0 0 1 866.2 405l.7-1.6h.1q2.8-2.3 5.1-5.2a118 118 0 0 1 21.5-18.5l.3-.6c-5-4-10.5-7.3-15.1-11.7A147 147 0 0 1 831 280c0-3-2.5-4.8-4.4-6.8"/><path d="M939.7 115.2a112 112 0 0 0-29 9.3c-3 1.4-6.2 2.7-9 4.7l-1 1.7a84 84 0 0 0-43-1.4 84 84 0 0 0-42.1 25 85 85 0 0 0-20 44.5 171 171 0 0 0 0 19 83 83 0 0 0 16.6 40.7c4 5.4 9.3 9.5 13.7 14.5a81 81 0 0 1-23-100.5 82 82 0 0 1 87.5-44.9c3 .4 6.5 2.1 9.3 0A131 131 0 0 1 939 113l7.2-1.3q16.4-1.4 32.6.1l7.1 1a142 142 0 0 1 34.2 12.1c2.7 1.8 6 .5 8.8.2a82 82 0 0 1 70.3 24.6 78 78 0 0 1 22.5 57.3c.8 9.9-1.6 19.7-5 28.9-1.5 3.6-2.7 7.4-5.4 10.4a91 91 0 0 0 9.6-29.4 86 86 0 0 0-5.1-40.5 90 90 0 0 0-19.3-28.9 84 84 0 0 0-38-20.3 92 92 0 0 0-39 .2q-2-1.6-4-2.7a97 97 0 0 0-22.9-7.8c-6.7-2-13.5-3.5-20.6-3.6-10.7-1.3-21.7-.1-32.3 2"/><g fill="none" stroke-width=".3"><path stroke="#FF00FE" d="M939 113a276 276 0 0 0-10.3-45.7 106 106 0 0 0-24.8-42.2 60 60 0 0 0-66.3-12.5 38.5 38.5 0 0 0 6 70.9A37 37 0 0 0 884 67c4-7.3 4.2-16.2 2.2-24.2a30 30 0 0 0-17.8-19.2c-9-3.5-19.9-1.7-27.4 4.4a25 25 0 0 0-9 21 24 24 0 0 0 13 19c8.5 4.3 19.6.6 24.9-7.1a16 16 0 0 0-3.4-21.4c-2.6-2-6-2.2-9-3q-.4-3.1-.1-6.2c8-1.6 16.6 3 19.8 10.4 6.1 13.2-1 30.8-15 35.3-9.8 2.5-21 .4-28.4-6.8A32 32 0 0 1 830 29a35 35 0 0 1 39-13 38 38 0 0 1 25.2 28.7 40 40 0 0 1-23.8 43.7 45 45 0 0 1-45-6.7 51 51 0 0 1-15.2-25.8 44 44 0 0 1 8-35.6A52 52 0 0 1 852.6 0h17a86 86 0 0 1 25 9.6 86 86 0 0 1 30 30.8A127 127 0 0 1 938 73.2c3.4 12.7 6.6 25.4 8.3 38.5m32.5.1c1.2-16.1 6.4-31.6 11-47a101 101 0 0 1 35.4-50.6 63 63 0 0 1 27.6-11.5c13.3-3 28-1.3 39.8 5.7a48 48 0 0 1 22.9 32.8 44.7 44.7 0 0 1-40.5 52 41.7 41.7 0 0 1-44.3-33.7A40 40 0 0 1 1042 26a36 36 0 0 1 21-10 36 36 0 0 1 37 24 30 30 0 0 1-5.7 27.3 29 29 0 0 1-34.4 9c-11.8-5.5-17-21-12.4-32.8a20 20 0 0 1 20.4-12c1.1 2.6-.1 6.5-3.2 7-4.3 1.3-8.6 3.6-10.2 8-4 8.2 0 19 8.3 22.9a23 23 0 0 0 29.5-12.1c3-8.5.9-18.6-5-25.3a28 28 0 0 0-33.6-5.4 31 31 0 0 0-13.7 38.5 35 35 0 0 0 41.8 19.8c5.3-1.3 9.5-5 13.8-8.3 10-7.3 13.7-20.7 12.7-32.5a37 37 0 0 0-16.6-27.6 46 46 0 0 0-26.6-7.8 68 68 0 0 0-41.8 15.6 120 120 0 0 0-30.4 54.6 199 199 0 0 0-6.9 34"/><path stroke="#000" d="M900.7 130.9a84 84 0 0 0-43-1.4 84 84 0 0 0-42.2 25 85 85 0 0 0-20 44.5 171 171 0 0 0 0 19 83 83 0 0 0 16.7 40.7c4 5.4 9.3 9.5 13.7 14.5a81 81 0 0 1-23-100.5 82 82 0 0 1 87.4-44.9c3.1.4 6.6 2.1 9.4 0A131 131 0 0 1 939 113l7.2-1.3q16.4-1.4 32.6.1l7.1 1a142 142 0 0 1 34.2 12.1c2.7 1.8 6 .5 8.8.2a82 82 0 0 1 70.3 24.6 78 78 0 0 1 22.5 57.3c.8 9.9-1.6 19.7-5 28.9-1.5 3.6-2.7 7.4-5.4 10.4a91 91 0 0 0 9.6-29.4 86 86 0 0 0-5.1-40.5 90 90 0 0 0-19.3-28.9 84 84 0 0 0-38-20.3 92 92 0 0 0-39 .2"/><path stroke="#FF00FE" d="M901.8 129.2c2.7-2 5.8-3.3 8.9-4.7 9.3-4 18.8-8 29-9.3 10.6-2 21.5-3.2 32.3-2q10.6.5 20.6 3.7a97 97 0 0 1 22.9 7.8"/><path stroke="#380AC0" d="M957 196a83 83 0 0 0-56.3-65.1l1-1.7c3 2 6.4 3.1 9.6 4.6a84 84 0 0 1 44 49.7c.8 2.8 1.1 5.7 2.8 8.2 1.9-4.3 2.5-9 4.3-13.5a82 82 0 0 1 31-39.8c6.8-5 14.7-8.2 22.6-11.4l-.5-2.3q2 1.2 4 2.7-5.2 1.8-10.3 3.8A82 82 0 0 0 959 198"/><path stroke="#000" d="M996.4 179.6a30 30 0 0 1 25 4c6 4.5 10.7 11.7 10.4 19.4.4 7-3.3 13.8-8.7 18.2A29 29 0 0 1 985 220a23 23 0 0 1-6.7-22.8 26 26 0 0 1 18.2-17.7zm-92 3.1c12.7-3.5 27.7 2.6 32.8 15 4 8.6 1.3 19.6-5.7 25.8a29 29 0 0 1-39.7-.3 23 23 0 0 1-7.1-18.2c.4-10.8 9.6-19.7 19.7-22.3zM866 405l.2-.1A118.7 118.7 0 0 0 890.3 575c-3.8 5-8.2 9.4-11.9 14.4-2.7 3.4-4.7 7.3-7.8 10.4h-.3l-.6 1.3h.2c-2.4 4.4-5.4 8.5-7.9 12.9a400 400 0 0 0-34.2 76.8q-11.1 33.5-18 68a3 3 0 0 1-1.1 2l-.4 1.8.5-.1a765 765 0 0 0-14.3 118.3l1.2.3c1-4.6.7-9.4 1.5-14 1-23.7 4.5-47.1 7.5-70.5 2.3-10.4 3.3-21 5.6-31.4a782 782 0 0 1 23-84.2c5.4-13 9.8-26.5 16.4-39 6-12.5 12.3-24.8 19.9-36.4a192 192 0 0 1 22.5-29c3.5 1.3 6.4 3.8 9.8 5.5a113 113 0 0 0 59 14.6c21.8.6 43.1-6.3 61.6-17.4 3.2-1.8 5.8-4.7 9.3-6 5.3 4.7 9.4 10.6 13.9 16a320 320 0 0 1 44.5 82.7q1.4 2.9 3.9 4.9-13-36.8-33.5-70l-1-1.7-3.9-6a282 282 0 0 0-22-27.3c3-3.7 7-6.4 10.2-10 22.1-21.8 35-52.8 34.5-83.9a118 118 0 0 0-50.5-97 145 145 0 0 0 65.3-95.9c1.4-5.9 1.5-12 2.7-17.9 5.4-6.5 12-12.3 15.1-20.3"/><path stroke="#000" d="M987 269c-5.7-6-11.7-12-15.9-19.2A81 81 0 0 1 959 198l-.1-2.8-1.9.8a81.4 81.4 0 0 1-130.3 77.1c2 2 4.4 3.8 4.4 6.8a147 147 0 0 0 47.7 87.3c4.6 4.4 10.2 7.7 15.1 11.7l-.2.6a118 118 0 0 0-21.6 18.5c-1.6 1.7-3 3.8-5 5.3h-.1l-.8 1.4M1111 246.9a87 87 0 0 1-17.8 21.3"/><path stroke="#FFF" d="M998.3 199.2c4-1.5 9.1 2 8.2 6.4-1 5-8.5 6.5-11.4 2.3-3-3-.5-7.8 3.2-8.7zm-86.9 1c3.5-1.9 9-.5 9.6 4 1.2 5.7-7.3 8.8-10.9 4.7-3-2.3-2-7.2 1.3-8.7z"/><path stroke="#FF00FE" d="M1092.5 278.2a127 127 0 0 1-5 21.1 140 140 0 0 1-53.2 75 126 126 0 0 1-77.3 23 127 127 0 0 1-49.8-13.4 137 137 0 0 1-67.3-78c-2.6-8.6-6-17.2-6.3-26.3l1.1.2a76 76 0 0 0 40.3 10.7c14.1 1 28.2-2.6 40.6-9.3a82 82 0 0 0 42.5-60"/><path stroke="#FF00FE" d="m958 221.1 1 .1c1 2.9 1.4 6 2.2 8.8a84 84 0 0 0 13.4 26.4c3.8 4.6 7.4 9.5 12.5 12.6"/><path stroke="#380AC0" d="M987 269c7 4.2 13.3 9.3 21 12.1a83 83 0 0 0 46.5 5.4 85 85 0 0 0 38.7-18.3q.3 5-.7 10 0-3.2-.3-6.5-2.2.1-3.9 1.6a84 84 0 0 1-38.6 15.2 98 98 0 0 1-27.9-1.5q-5.4-1.4-10.6-3.2a63 63 0 0 1-12.9-6.2c-4-2.6-8.3-4.8-11.2-8.7z"/><path stroke="#000" d="M1002.3 306.5h1.7c2.2 1.3.8 4.2.7 6.1a44 44 0 0 1-18.4 28.6 49 49 0 0 1-56.4-1 40 40 0 0 1-17.6-33.8l5.1.1c-.6 9.5 3.8 19 10.3 25.8a42 42 0 0 0 25.3 12.2c6.6.1 13.5.7 19.8-1.7a40 40 0 0 0 27.6-34.7c-.2-1.4.8-1.6 1.9-1.6z"/></g></svg>