<svg xmlns="http://www.w3.org/2000/svg" viewBox="0 0 600 395.6" xmlns:xlink="http://www.w3.org/1999/xlink"><defs><filter id="a" color-interpolation-filters="sRGB"><feOffset dx="4" dy="4" in="SourceGraphic" result="result11"/><feGaussianBlur result="result8" stdDeviation="4"/><feComposite in="SourceGraphic" in2="result8" operator="in" result="result9"/><feBlend in="result9" in2="result8" mode="darken"/></filter></defs><path d="M343.5 622.6c-5-2.2-11-8.3-11-11.3 0-2.4.6-2.7 7.7-3.8 13.4-2.1 20.6-6.7 10.6-6.7-2.2 0-7.5-1-11.7-2.2-10.1-2.8-12-2.7-12 .3 0 3.2-1.1 7.2-2 7.2-.4 0-2.3-3-4.2-6.9-2.7-5.3-3.5-8-3.2-11.5.3-4.3.5-4.5 3.5-4.5 1.8.1 4.5.5 6 1 2.6.7 2.8.5 3.4-3.7q2.2-15.8 15.2-5.3c2.9 2.4 6.5 5 8.2 6 3.3 1.6 12.1 2 13.1.4 1.1-1.8-2.2-7.8-8.5-15.3-5-5.9-6.6-7.2-9.2-7.2s-3.4-.6-4.3-3.2c-1-2.7-1.7-3.2-4.8-3.2s-3.8-.5-4.7-2.6c-.8-2.2-1.7-2.7-4.7-2.7-3.7 0-3.8 0-3.8-4.4v-4.4l-3.8.6c-3.5.6-3.8.4-4.4-2.5-.5-2.5-1.2-3.2-3.1-3.2-2.2 0-2.6-.5-2.6-3.6 0-3.3-.3-3.8-3-4-2.4-.3-3-1-3.2-4-.2-1.9-1-3.7-1.9-4q-1.5-.6-1.5-5.3c0-2.6-.3-4.7-.8-4.7l-8.8-2.2a87 87 0 0 0-29.7-1.6c-2.6.8-3.8 3.6-2.3 5.4.6.7 4.8 3.5 9.3 6.2 13.7 8 16 12 8.8 15.8a25 25 0 0 1-17.2.9c-2-1.1-2-1.2.6-3.7 3.5-3.2 3.4-4-.3-8.2-3-3.2-3.4-3.4-11.5-3.5-11.8-.1-16.3-3.1-17.7-11.7q-.3-2.2-3.8-2.8c-1.9-.4-5.6-2.7-8.2-5.1a21 21 0 0 0-6.1-4.5c-.8 0-4 2.8-7 6a31 31 0 0 1-6.1 5.7c-.8-.9 1.8-23 2.8-24.2a4 4 0 0 1 2.7-1.3c1.7 0 9.8 5.3 14.4 9.5q5.5 5 2.9-2.8c-.8-2.2-1.4-7.6-1.5-11.8 0-7-.2-7.9-2.3-8.4-1.3-.3-3.4 0-4.7.7q-4.7 2.3-2.1-2.7c2-4 7-8.6 11.1-10.6 5.6-2.6 7-2.2 7 1.9 0 2 .3 3.8.6 4.1s2.4-.3 4.5-1.4c5.2-2.7 12.1-2.6 15.4 0 2.3 2 2.4 2.3 1 4.6Q248 472.6 248 480c0 10.5 5.7 11.2 23.5 3.2 6.6-3 15-6.2 18.7-7.2 5.8-1.5 7-2.2 8.4-5.3 1-1.9 2.4-3.5 3.3-3.5q1.6.1 1.6-3.6c0-2 .7-4.2 1.6-4.9.8-.7 1.6-2.8 1.8-4.6.3-3 .7-3.4 3.4-3.4 2.4 0 3-.5 3.6-3 .5-2.5 1-2.9 4.2-2.9s3.6-.3 3.6-3.3c0-3.3 0-3.4 4.2-2.7 3.9.6 4.3.5 5-2 .4-2 1.4-2.6 4-2.9 2.7-.3 3.4-.8 3.8-3.5.5-2.7 1.1-3.3 4-3.5 4.2-.4 4.3-1.2.8-5.4-4.6-5.5-10.9-7.8-23.2-8.4-14.8-.8-19.2-3.3-27.9-15.8-2.5-3.7-8.2-6-13.3-5.7-3 .3-4 .8-4.2 2.8s.1 2.4 2.6 2.4c5.4 0 11.6 3.8 17.5 10.6 6.2 7.1 11.4 10.4 18.3 11.6 6.2 1 5.5 2.8-1.2 3.2-8.4.5-9.6 0-18.6-8.2-9.4-8.6-13.6-10.8-21.8-11.6q-9.7-1-9.8-5.7c0-1.4-1.3-2-5.4-2.5-13.6-1.8-18.2-8.3-12.3-17.6 2.6-4.2 10-9.4 16.5-11.7 5.9-2 6.2-1.8 5.8 3.8-.6 7.3.3 8.2 7.2 6.9 5.7-1 6.6-.8 7.7 2.5q.6 1 6-.4c4.8-1.3 5.8-1.2 7.4.1 1.2 1.2 4 1.6 9.5 1.5 4.3 0 7.8-.3 7.8-.7 0-.7-2.6-2-18.2-9.4-6.2-3-14-7.5-17.6-10.2a62 62 0 0 0-44.6-14c-9.7.6-13-.8-5.3-2.4 5.3-1 28-1 36.3 0 6 .9 6.7.8 7.2-1 .4-1 1.5-3.7 2.6-5.8 1.7-3.1 1.9-4.6 1-8.3-.7-3.3-.6-5.4.6-8 2.1-5.3 4.6-6.2 13.9-5.4 6.7.6 8.3 1.2 10.7 3.7q6.6 6.9-3 11.5c-4.5 2.1-5 2.8-4.8 5.3s.9 3 4.4 3.2q4.2.4 6.2-1.5c2-1.8 2.3-1.8 5.1 0 2.7 1.5 3.2 1.5 4.4.1s1.6-1.4 3.8 0c3.5 2.3 4.6 2 5.8-1 1.5-4 6.2-3.6 10.2.6 3.9 4.1 11.3 7.7 14 6.6 4.9-1.8 6-6.7 1.6-6.7-6 0-10-1.4-13.6-4.8-4.7-4.4-4.6-7.3.1-12 3.5-3.4 4.2-3.7 8.6-3.2a17 17 0 0 1 9 3.9c2.3 1.8 4.4 3.3 4.7 3.3s2.8-1.5 5.7-3.3A53 53 0 0 1 384 313c7.7-.8 10-2.4 12.7-8.8 1-2.5 2.4-4.5 3-4.5 1.4 0 3.3 3.6 3.3 6.3q.1 2 1.4 2.2a63 63 0 0 0 17.3-10.7c4-3.9 4.8-4 4.8-.2 0 7.4-9.6 17.2-21 21.5-3.2 1.2-10.5 3-16.2 4-14.8 2.5-23 6.8-13 6.8 4.9 0 9.6 3.6 9.6 7.4 0 4.3 2.4 3.1 12-6.3a93 93 0 0 1 10.7-9.6q1.3.2 3.3 6.5c1 3.3 5.2.8 16-9.7 10-9.6 10.6-10 12-8.1 1.7 2.3 2 7.8.6 11.5a54 54 0 0 1-15.6 15.6c-3 2-10.5 6-16.8 9-12 5.8-14.2 8.5-7.6 9.1 2.6.3 4.8-.7 9.7-4.3 20.8-15.3 39.6-17.5 60.8-7l8.7 4.3 5-3c2.7-1.7 6.3-4.2 8-5.6 3.1-2.5 3.2-2.5 3.2-.3 0 1.2-1 4.9-2.3 8.1s-2 6.3-1.7 6.5c1.3 1.3 4-1.3 5-4.7 1.5-5.3 8-16 14.5-24 5-6.1 20.2-17.7 21.5-16.4 1 1.1-3 5.7-7.1 8a26 26 0 0 0-7.3 7C515 328.3 510 341 511 342c1.5 1.5 6.9-2 8.6-5.7 3.3-6.9 9.4-13.1 22.2-22.8q12.6-9.5 18-11c3.1-1 5.8-1.5 6-1.3s-2 2.1-4.9 4.2-6.1 5-7.1 6.6-4 4-6.8 5.3c-5 2.5-10 7.3-13.2 12.4-2.1 3.6-1.6 4 3.4 3.4 3.3-.4 5.8-2.2 13.1-9.3a53 53 0 0 1 42.2-17.4q4.4.2 6.7-1.8c1.8-1.7 2.2-1.8 2.2-.3 0 3-6.1 7-12.6 8.2a64 64 0 0 0-24.8 8.8c-4.7 3.7-8.4 8.8-7.2 10 1.7 1.7 8.5-1 14.4-5.9a35 35 0 0 1 25-8.6c9.2 0 12.9-1.3 18.5-6.5a28 28 0 0 1 14.8-6.3c2 0 2 0 0 2.2a128 128 0 0 1-22.2 16.4c-2.3 1-8.4 2.6-13.5 3.3-8.7 1.3-15.2 3.6-16 5.6a57 57 0 0 1-11.8 7.7q-.9.2-1 1.2c0 2 8.5.1 16.1-3.6 6-3 8.4-3.5 18.7-4 6.4-.4 12.6-1 13.7-1.6q2.2-1 1.6.6c-.9 2.5-9.5 6.2-19 8-11 2.2-24 7-28.3 10.6l-3.2 2.6h6.9c3.8 0 9.8-.6 13.3-1.5 10-2.4 15.7-2.1 19.1 1 1.6 1.4 4.6 3 6.8 3.3 6.8 1.1 7.5 1.5 5.2 2.8q-2 1.2-11.2.4c-15.4-1.4-17.4-1.2-24.4 1.9l-6.5 3-9.2-2.4c-6.8-1.7-10.1-2-12.6-1.3-5 1.4-4.6 2.9 1.6 6a30 30 0 0 0 22.2 2.6c8.7-2.4 12.4-3 16-2.2q7 1.4-2.3 3.4c-3 .7-8.8 2.7-13 4.6-6.8 3-8.3 3.3-14.6 2.7-4-.4-10.6-2.1-15.4-4-17.3-6.8-30.2-5.1-41 5.4-6.1 6.1-8.2 11-7.4 17.7q1.2 9.9 12.4 15.3c5.4 2.5 7.2 2.8 17.8 2.7q11.7-.2 20.8-2.3c35.6-8.5 37.9-9 52.9-9.6a89 89 0 0 1 36.5 4.3 72 72 0 0 1 35 26c2.2 3.2 4.5 5.6 5.2 5.4.6-.2 1.6-1.9 2.2-3.8.5-1.8 1.3-3.4 1.7-3.4 1.4 0 4.2 10 4.9 17.3.4 4 1 7.3 1.2 7.3 1.2 0 3.4-4 3.4-6.2q.1-4.8 4 .6c2.8 4.3 2.5 16-.7 23.5-1.4 3.1-2.2 6-1.9 6.3s2.4-.5 4.5-1.8 4-2.1 4.4-1.9c1 1.1-3.3 10.2-7.7 16a57 57 0 0 0-4.7 6.7c0 .3 1.4.6 3.2.6s3.2.4 3.2 1c0 2.9-11.6 12-21.9 17.1q-6.3 3.2.5 4.3l3.7.5-3.4 2.8c-3.9 3.3-9.6 5.3-22.7 8-10 2-11.9 3.5-17.4 12.5-2.5 4.2-4.4 5.7-11 8.8a71 71 0 0 0-13 8.2 28 28 0 0 1-16.8 7.8c-6.7 1-8.3 2.2-7.4 5.7 1 3.8 2.2 4.4 10.3 4.4 8.5 0 22.2 2.7 24.2 4.7q3.5 3.4-5.4 10.3c-3 2.4-5.6 4-5.9 3.8-.2-.2.3-2 1.2-3.7 1-1.8 1.7-3.5 1.7-3.9 0-1.5-8-3.8-15.5-4.4s-8.2-.6-9.8 1.7c-2.1 3-7.6 5.4-13 5.4-2.5 0-4.7.7-5.5 1.7a84 84 0 0 1-17 11.4c-2.2 1-6 2.3-8.8 3-5.3 1.5-6.6 3.7-5.4 9.7.5 2.5.3 2.8-1.9 2.2-3.1-.8-11.7-9-11.7-11.3 0-1-2.6-4.7-5.9-8.3-6-6.7-7-9.4-4.3-11.5.8-.7 1.8-4 2.2-7.3s1.2-7.2 1.7-8.5l1-2.5 7.2 3.7c15.2 7.7 29.2 9.2 35 3.7 2.5-2.3 2.8-3.2 2.4-8.2-1-11-8-15.9-25.1-17.4-11.2-1-16.2-2.3-20.8-5.4-3.7-2.7-4.7-2.5-9.3 1.1-5.8 4.6-12.3 6-21 4.5-3.8-.7-7.4-1-8-.6-.5.3-1 2-1 3.7 0 3 .3 3.2 4 3.2 4.7 0 13.8 4 16.7 7.3 1.7 2 1.9 2.7.8 5-1.5 3.5-7.3 6.9-11.5 6.9h-3.4l2.3-4.2q4.5-8-4-8.4c-3.1-.3-5.4.4-9.4 3a21 21 0 0 1-8.2 3.2 50 50 0 0 0-20.1 5c-2.6 1.5-5.5 2.5-6.7 2.2-3.7-1-5.7 1.6-5 6.5.4 3.8.2 4.4-1.4 4.4-1.1 0-3.4-1.2-5.1-2.6l-3.2-2.7-3 4.6c-3.3 5.1-6.9 9.3-8 9.3-.4 0-1-1.5-1.4-3.4-1-4.7-2.5-6.2-6.3-6.2a47 47 0 0 0-19.5 10.1 27 27 0 0 1-17.3 5.9c-6 0-16 3.9-19.8 7.6-2.5 2.5-3 3.6-2.3 6.3.3 1.7.5 3.1.3 3zm196-18.6c6.4-1.7 4.2-3.4-4.9-3.6-7.3-.2-7.3-.1-7.7 2.9-.6 5.4.4 6.3 4.3 4a40 40 0 0 1 8.2-3.3m-2.1-11.5c0-1.4-11-8.8-13-8.8-1.7 0-2 .7-1.7 4l.3 4 5.9.6 7.2.8q1.2 0 1.3-.6M353.2 590q-.6-.9-2-1c-.8 0-3.5-1.7-6-3.8-5.3-4.3-9.9-4.7-10.4-.8-.4 2.9 3.6 5.8 9.2 6.7 4.8.8 10 .2 9.2-1.1m48.3-5.3 12.8-2.8q2.2-.6 4 2c1.5 2 1.9 2.2 2.8.9.5-1 1-2.6 1-3.8 0-4.1 1.4-4.7 11.8-5 8.1-.2 10.1-.6 10.1-1.9 0-3.6-20.6-5.7-24.2-2.5-2 1.7-2 1.7-2.7-.5-.7-2.8-1.7-2.8-11.7-.7-13.5 2.8-17.4 5-17.4 10.2 0 3.5 1 6.3 2 6.3zm8.3-18.3c3.3-1 4.7-2.3 6.1-5.3 2.5-5.2 5.3-6 10.3-2.8 7.4 4.9 15.5 6.9 21 5.3l3.2-1-3.8-1.6c-4-1.7-8.5-6.4-8.5-9 0-1.8-1-1.8-5.7.2-6.3 2.7-7 2.3-7-3.7 0-3-.4-5.4-.9-5.3a22 22 0 0 0-4.4 5.4 43 43 0 0 1-18.3 14.8c-4.1 2.1-7.1 4.3-6.7 4.7 1 1.1 9.2.2 14.7-1.7m185.5.2c2.2-.6 6.4-3.1 9.5-5.6 9.4-7.7 11.9-9.3 17.6-10.9q11.3-3.5 11-9c-.4-2.6-.8-2.8-5.9-2.7a13 13 0 0 0-9.2 2.9c-2.1 1.6-7 4-10.8 5.4-7 2.5-18.2 9.2-20.7 12.3-2 2.3-1.6 6.3.5 7.5 2.4 1.4 3.2 1.4 8 0m-195-7.9c5.9-2.8 14-10.5 12.8-12.3-.8-1.3-3.8-1.6-3.8-.3 0 1.5-10 8.5-14.1 9.8q-4.1 1.3-4 3.3c0 2.8 2.5 2.6 9-.5m-25.4-1.5c1.5-1.9 1.8-7.3.4-8.1q-1-.3-2.3 2c-.7 1.5-3.5 3.5-6 4.5-5.6 2.3-5.9 3.3-1.2 3.8s7.5-.2 9-2.2m216.7-7.9 10.4-6c1.2-.6 4-2 6.2-2.8 4.8-1.9 4.3-3.8-1-3.8-3.5 0-13 4-16.4 7-.9.7-4.4 2.2-7.7 3.3-6.6 2-10.1 4.8-8.8 6.9 1.4 2.2 8.8.3 17.3-4.6M459 552q3.7-4-3.3-13c-3.8-4.9-4.5-7-2.6-8.1q1-.7 1-1.6c0-1-19.5 5.2-20.8 6.6-.3.3 1.3 1.7 3.7 3 3.2 1.9 5 4 7 8a18 18 0 0 0 4 6.2c3 1.2 9.3.6 11-1m-60.6-3 4-3.7h-8.2c-4.6 0-8.6.5-9 1-.3.7.1 2.4 1 3.8 2.7 4 7.3 3.5 12.2-1m105.2 1.4q4.7-2.4 2.7-4.8-2.5-2.9-10 .3c-2.2 1-6 2-8.4 2.5-4.3.8-4.3.9-1.7 2a33 33 0 0 0 17.4 0m-138.4-4.2c.8-.7 1.4-3.3 1.4-5.9v-4.7l-4.6 4.8c-2.7 2.9-5.6 4.9-7 4.9-1.2 0-2.3.4-2.3 1 0 2.3 9.7 2.2 12.5-.1m210-3c4-3.1 5.3-3.6 14.5-5 5.7-.8 9.2-2.4 7.9-3.6-2.7-2.6-31.9-11-48.3-13.9-18-3.1-17.9-3.2-9.2 5 8.2 7.6 20.9 17.4 25 19.3s6 1.6 10.1-1.8m-77.4-2.3c1.8-.7 3.3-1.6 3.3-2s-1.9-2.2-4.3-3.8-6-4.8-8-7-4.1-4.2-4.6-4.2c-2.4 0-4.7 15.4-2.6 17.4 1.1 1.2 12.5.9 16.2-.4m40.4 0q5.7-1.8 3.3-8.5c-1.1-3.3-3-3.3-3 0 0 1.1-1.2 3.5-2.7 5.2-4 4.7-3.5 5.4 2.4 3.3m-181-6.6c2-1.6 3.3-8.2 2-10.3-.7-1.1-1.2-1-2.3 1.1q-2.8 5.3-9.3 7.5c-3.4 1-3.6 1.4-1.8 2 3.3 1.4 9.6 1.2 11.4-.3M384 527c.5-3.7-2.4-7.7-6.3-8.7s-4.2-.2-1.4 3.6a16 16 0 0 1 2.7 7.8l.4 5c.2 1.6 4.2-5.1 4.6-7.7m142.2 6.5a6 6 0 0 0 2.7-8.3c-1.3-2.4-3.2-2-3.2.7 0 1-1.2 3.3-2.7 5.3q-4.5 6 3.2 2.3M398.6 529q4.5-7.4-.7-11.4a10 10 0 0 0-4.6-2.2c-1.7 0-1.6.5.6 4.8 1.7 3.5 2.3 5.9 1.8 8.5q-1.1 7 3 .3m252.5-.6c6.9-1.3 2.6-2.7-9.8-3.2-6-.3-11.3-1-11.7-1.5-.7-1.1 3.1-4.6 7.6-7l3.2-1.7-3.5-1.4c-5.7-2.4-15-2.1-21 .6-4.7 2-5.9 2.2-10.4 1.1-2.8-.7-5-1.7-5-2.2s2.4-2.2 5.5-3.6l5.6-2.5-3-1.1c-1.6-.7-8.2-1.2-14.7-1.2a37 37 0 0 1-11.6-1c0-1.2 4.8-4.3 6.9-4.3q1.5-.1 1.6-1.1c0-1.7-6.3-5.2-13.7-7.5-7.2-2.2-20.5-3-20.5-1 0 2.2 15.8 17.5 23.4 22.6a89 89 0 0 0 40.7 15.3c10.3 1.5 24 1.8 30.4.7M419 519.6c0-3.4-3.5-7.4-6.6-7.4-2.4 0-2.4.4-.2 3.8 1.1 1.6 1.8 4.7 1.7 7.7v5l2.5-3a11 11 0 0 0 2.6-6m97 5.8c2.3-1.6 3-5 1.7-8.3-1-2.4-2.6-2.2-2.6.3 0 1.1-1.2 3.5-2.7 5.2s-2.6 3.5-2.6 3.9c0 1.2 3.8.6 6.1-1m-170.2-1.8c2.2-1.7 3.8-11.4 1.8-11.4q-1 0-1.2 1c0 2-7.6 8.3-10.9 9q-4 .7-1.9 1.7c2.3 1.5 10 1.3 12.2-.3m88.6-3.4c3.3-5 1.8-10.4-3.6-13.3-2.8-1.6-3.5-.1-1.4 3 1 1.7 1.8 4.9 1.8 7.9 0 5.7.7 6.2 3.2 2.4m18.7-6.6c1.2-1.5 2.2-4 2.2-5.3 0-3.6-4.7-7.9-8.8-7.9h-3.3l2.2 2.4q5.2 5.8 4.2 10.6-1 5.7 3.5.2m50.3 1.2c2.4-1.2 3.2-2.4 3.2-4.7 0-6.7-2.6-8.7-3.7-2.9-.3 2-1.6 4.5-2.8 5.5-4 3.7-2.1 4.9 3.3 2.1m-169.2-3.1c1.4-1.5 2.6-3.3 2.6-4.2s.3-2.3.7-3.3c.9-2.3-1-2-4 .6-3 2.7-8.6 5.2-11.6 5.2-3.4 0-2.6 2 1.3 3.1 5.7 1.7 8.2 1.3 11-1.4m324-2.2q1.1-12.2-10.1-12.3c-5 0-12.7 3-11.7 4.5.3.5 2.6.9 5.1.9 5.2 0 12.8 4.6 14 8.5.8 2.6 2.4 1.7 2.7-1.6m-102.6-3-.1-3.4-1.5 3.2c-2 4.5-2 6.5 0 4.8 1-.7 1.6-2.8 1.6-4.7m-84.6 2.3c4-3.8 3-8.9-2.3-11.9q-1-.3-1.1 6.8c0 4 .2 7.4.5 7.4s1.5-1 2.9-2.3m-80.8-1c3.8-.6 15.3-3.7 25.6-6.9a756 756 0 0 1 79.9-19.7 87 87 0 0 1 47 7c8.6 4 9.1 4.2 8.2 2.7-2-3.3-18.8-10.3-27.5-11.4-2.8-.4-5.1-1-5.1-1.5a34 34 0 0 1 8.3-4.8 42 42 0 0 1 15-4.5l6.8-.6-1.7 3.3c-2.8 5.5-2.3 6.6 3 6.6 2.6 0 7.1-.6 10-1.2 5.3-1.2 13.3-.6 16.3 1.2 1.3.8 1.2 1.3-.8 2.7q-2.2 1.6-2.4 2.5c0 .5 6.6 2.5 14.6 4.5 12.4 3 16.6 3.6 26.5 3.6 14.1 0 21.3-2.6 25.6-9 3.8-5.4 3.6-13.7-.3-21.5a16 16 0 0 0-8.8-8.7c-11.6-5.8-26-6.1-49.1-1.2-46 9.8-62 10.7-87 4.7-13.1-3.1-17.5-5-22.5-9.6a52 52 0 0 0-11.3-7.3q-9.8-4.4-10.7-8.7c-.3-1.2.7-1.4 4.2-1.2 5.4.3 5.7-.8 1.6-6.2a96 96 0 0 1-6.7-10.7c-4.3-8.1-8.7-11.5-15.8-12.3l-12-1.6c-3.7-.6-7-.9-7.1-.7-.2.1 1.1 2.9 2.9 6a23 23 0 0 1 3.2 12c0 6.5-.4 7-3.7 4.5-5.1-4-7.3-1.5-8.5 9.9-.8 7-2.5 13-3.7 13-.4 0-1.5-1.4-2.5-3.2-2.9-5-5-3.7-8.3 5.4-3 8.4-7.1 16-8.5 16-.5 0-1.1-2-1.4-4.4-1.3-9.5-5.7-8-8.7 3-3.7 13.8-4.6 14.7-7 7.6-2.6-7.2-4.6-6.6-3.7 1.2.6 5.1.4 7-1 9.1-2.1 3.2-3.9 3.5-3.9.7 0-3-2.8-5-4.8-3.3-2.3 1.9-2 6.7.6 10s7.7 3.8 11.1 1.2c2-1.5 6-2.2 6-1.1 0 .3-1.3 2.2-2.7 4.4s-2.7 5-2.7 6.5c0 4 4 3 13.3-3.4 10.5-7.3 11.5-7.4 9.6-1.2-2.5 8.5.3 8.2 10.8-1.3 4.5-4 10-8.4 12.2-9.7l4-2.2-.5 6.4c-.5 6-.4 6.4 1.6 6.4q2.3-.1 8-7.3c5.6-6.9 14.5-14 17.4-14q1.5-.2-.7 5.3c-2.5 6.5-2.5 8.4-.4 9.2 1.2.5 4.2-2 10-8 4.4-4.8 8.7-8.7 9.4-8.7q1.4 0 1.4 5.2c0 8.3 1.9 8.3 14.2-.1 6.7-4.5 15.5-8.8 16.4-8q.4.8-.7 2.9c-.7 1.2-1 3.6-.9 5.1.5 3.9 3.2 3.5 13.7-2a65 65 0 0 1 11.7-4.8l3.6-.8-2.5 3.5a13 13 0 0 0-2.4 6.5l.1 3-16.7.5c-16.3.5-17.4.7-41.3 7.1-57.7 15.4-65.1 17.2-74.9 17.9-11.7.7-16 0-21.1-3.4-4.7-3.2-5-3.2-4.9-.8.2 7.6 15.3 11.6 33 8.7m98-1c2.8-2.6 3-6 .7-9.3q-3.8-5.5-3.5 2.1c.1 2.5-.2 5.6-.6 7q-1.4 4.4 3.4.2m52.6-1c3.7-3.6 4-6.7 1-11.5q-4.2-6.9-4.3.4c0 2-1.2 6.2-2.6 9l-2.6 5.3h2.7c1.5 0 4-1.4 5.8-3.2m138-2.5a46 46 0 0 0 5.8-27.3c-.4-10.3-3.8-21.5-6.4-21.5q-.9.1-.3 1.9a42 42 0 0 1 4.5 22.7 60 60 0 0 1-6.8 25q-2.5 3.8-.5 3.8c.6 0 2.2-2 3.7-4.6m-153.2-.6a18 18 0 0 0 2.3-6.3c0-3.1-3.2-6.5-7.2-7.7-4-1-5.5.2-3 2.7 1.8 1.9 3.8 8.2 3.8 12.5q0 6 4-1.2M327 495.5c1.7-1 3.1-2.2 3.1-2.6s-2.4-.9-5.3-1.2c-3.3-.3-7-1.6-9.6-3.3-2.4-1.6-4.3-2.4-4.3-1.7 0 2 4.1 9.3 5.6 9.9a14 14 0 0 0 10.5-1.1m341-3.3q-2-13.2-12-11.5c-3.6.7-8.5 3.5-8.6 5 0 .5 2.6.8 5.8.8 5 0 6.4.5 9.6 3.4 2.1 1.8 3.8 4 3.8 4.8q0 1.3 1.2 1.4 1.3 0 .4-4m-320.7-5.7a19 19 0 0 1 1-15.4c1.1-1.9 8-7.7 15-12.9 21.6-15.7 41.5-34.9 41.5-39.8 0-.7-4.9 3.3-11 8.8a289 289 0 0 1-31.3 25.8 90 90 0 0 0-19.6 18.8c-1.7 4-.8 10.6 2.2 15.4 2.7 4.5 3.9 4.2 2.2-.7m-105.3-16.6c1.5-2.7 2.4-5.3 2-5.8-.7-1.2-8-1.2-9.9 0-1.2.8-1.3 2.8-.8 9.6a51 51 0 0 0 2 11.4c1.2 2.6 1.3 2.5 2.6-3.8.8-3.6 2.6-8.7 4-11.4m88 9.2c3.7-1.4 4.4-3.1 1.1-3.1-3 0-9.6-3.6-12.6-6.8q-5.5-5.6-2.6 3c2.5 7.5 6.6 9.5 14 6.9m340.2-12.7c-3.3-6.3-12.2-6.8-17.1-.9-3.2 3.7-3.5 5.7-.8 4.6 6.4-2.7 14.2-2 17.7 1.6 2 2 2.1-1.6.2-5.3m-327.3-2c0-.6-1.1-1.8-2.5-2.7a23 23 0 0 1-5.6-7.8l-3-6-1 3.5c-1 4.1-.1 10.3 1.7 11.4 1.2.7 6.7 2.2 9 2.4q1.3 0 1.4-.9m13.7-13q6-2.2-1-3.6c-1.9-.4-5-2.4-7-4.5s-3.9-3.6-4.2-3.3c-1.2 1.1 2 9.3 4.1 10.8 2.8 2 3.7 2 8.1.5m182.9-3.6a330 330 0 0 0 23.1-6.5c23.7-7.5 30.2-8.6 50.4-8.5 21 0 33.5 2.4 52.2 9.7 3.7 1.5 7 2.4 7.3 2 .4-.3.1-2.4-.6-4.6-1.2-3.8-5.3-7.7-15.9-15-4-2.8-5.7-2.3-3.6 1 2.4 3.8.6 3.4-7.7-2-7.4-4.9-13.1-7.4-14.2-6.3-.3.2.1 1.7.8 3.3q2.5 5.8-2.8 1.9a41 41 0 0 0-18.4-6.6h-4l3.5 3.1c5.1 4.7 4.7 7.2-.7 3.5a33 33 0 0 0-16.8-5.6h-5l1.8 2.7c3.5 5.3 2.3 5.9-5.5 3.1a44 44 0 0 0-14-2.5h-7l3.5 3.5q7 7.5-.6 4.4a37 37 0 0 0-17.5-2.8c-2.1.8-2.1.8 0 3.3 2.8 3.2 3 5.8.4 5a89 89 0 0 0-23.2-3.8h-7.5l3 2.6c1.5 1.4 2.9 3.3 2.9 4.3 0 1.3-1 1.1-5.7-1.2-6-3-14.7-5.7-18.7-5.7h-2.5l2.7 3.2c2.7 3.2 4.6 8 3.6 9.1-.3.3-4-1.2-8.4-3.2a66 66 0 0 0-12-4.4c-3.8-.7-4-.6-3.7 1.7.5 3.5 10 9 20.2 11.7a103 103 0 0 0 40.6-.4m-166.2-8.8q3.9-1.6-1.8-3c-2-.4-5.2-2.5-8.1-5.6l-4.8-5 .6 5.2q.5 5.3 3 7.2c2.3 1.8 7.8 2.5 11 1.2m108.4-18c1.5-.8 4.3-1.7 6.3-2 5-.8 5.2-1.4.6-3.3-4.2-1.7-9.8-2.2-11.8-.8-1.8 1.2-3.4 4.7-3.6 8.2-.4 5.1-.2 5.3 2.9 2.2a29 29 0 0 1 5.6-4.3m-92.8.5c2.3-1.2 4.2-2.6 4.2-3.2s-3-1-6.5-1q-9.4 0-15.1-5.2c-3-2.5-3.5-.6-1.3 3.7q6.4 12 18.7 5.7m-32.1-6c3.6-4.1 4.4-10.9 1.6-13.2-1-.8-9-1.9-19.5-2.7-9.8-.8-20.3-2.2-23.2-3-9.6-3-11.2-2-6.4 4.2 2.7 3.6 8.2 5.8 18.7 7.4a36 36 0 0 1 17 8.2c5.6 4.3 7.3 4.2 11.8-1m122.9-13.2c2 0 4.7.7 6 1.6 3.7 2.7 4-.2.3-3.9-2.9-2.8-3.9-3.2-7.2-2.7-4.6.8-8.4 4.3-9.4 8.7l-.8 3.2 3.7-3.4c2.7-2.6 4.6-3.5 7.4-3.5m-23.6 1a36 36 0 0 0-4.4-4.8 27 27 0 0 1-3.6-5.7l-2.6-5.1-6.7-.7c-19.5-1.9-27.9-2-27-.8a46 46 0 0 0 19 8.1c7.4 1 12.7 3.9 16.9 9 3 3.7 4 4.3 7.6 4.3h4.2zm-70.3.3c2.6-2.7 6-10.5 5-11.5-.3-.2-1.9.8-3.6 2.4a25 25 0 0 1-14.5 7.1l-6.8 1.5 3.7 1.7c2 1 6 1.7 8.6 1.7 4 0 5.4-.5 7.6-2.9M373.5 392a15 15 0 0 0 3.3-8c1.2-7.5-.1-9.2-2.9-3.7a29 29 0 0 1-15.3 11.7c-1.7.3-3 1-3 1.4q.1 2.1 9.6 1.6c4.2-.4 6.4-1.1 8.3-3m113.4-5.1c0-7.1-8.4-10.9-14.2-6.3-3.3 2.6-4 6-1 4.7 5-2.1 7.5-1.8 11.1 1.5l3.9 3.3c.1 0 .2-1.4.2-3.2M332.4 381c3.9-2.8 4.4-10.9.9-14-3.4-3-4.5-2.3-4.2 2.4.3 3.9-3.1 11.4-5.2 11.4q-.8.1-1.5 1.8c-.6 1.4 0 1.6 3.4 1 2.2-.4 5.2-1.6 6.6-2.6m113.7 1.7c1.6-5.5 1.5-5.5 4-2.5q2.1 2.9 4.4 2.6c2-.3 2.3-1 2.3-5.2v-4.8l-6.4-.3c-3.7-.2-9.5.5-13.8 1.6s-11 1.9-15.8 1.8c-6.2 0-8 .3-7.2 1.2 1.4 1.8 12 4.8 20.3 5.8 10.3 1.3 11.7 1.3 12.2-.2m48.8-12c4-1.5 8.8-2.7 10.5-2.7 4.5 0 4.8-1.8.5-3.3-3-1.1-3.7-1.9-3.7-4.4s-.3-2.9-2-2a80 80 0 0 0-13.2 13.4c-1.2 2.2-.8 2.1 8-1m-134.7-1.8 3.7-2.4-5.6-.7c-10-1.3-13-7.3-6.6-13.5 3.1-3 3.2-3.2 1-3.8-3.5-1-9.1 1.2-10.6 4-.9 1.6-1.2 4.5-.8 7.7 1 9.8 10.3 14 18.9 8.7m63.5.8c3-.8 7.3-2.3 9.6-3.2 5.7-2.1 12.7-2 19.4.3 5.5 1.9 5.6 1.9 6.1-.3.8-2.8-.5-4-6-5.6a29 29 0 0 0-23.6 2.3c-3.9 2-9.2 4.3-11.9 5-2.6.6-5 1.6-5.4 2.1-.9 1.4 5.9 1 11.8-.6M318.3 363c.4-3.3.3-3.4-6-4.5-7-1.2-14.4-4.6-24-11a43 43 0 0 0-7-4c-1 0-5.5 3.9-5.4 4.9a18 18 0 0 0 4 4.2 61 61 0 0 0 35 13.9c2.7-.1 3.2-.6 3.4-3.5m92.1-1c3.4-.8 12-4 18.9-7 12-5.1 13-5.4 20-5 6.6.4 8.4 1 14 4.7l7.7 5q1.4 1 3.4-4c1.2-2.8 2.2-5.4 2.2-6 0-1.4-13.5-5.3-23-6.5a35 35 0 0 0-27.3 5.8c-3.7 2.4-11.3 6.4-16.7 8.8a122 122 0 0 0-10.7 5.2c-1.2 1.2 5.2.7 11.5-1m126.3-5c5-1.6 6-2.8 6-6.4 0-8.6-13.9-8-23.3 1-4.8 4.6-4.9 4.8-2.8 6.4 2.4 1.7 13.6 1.2 20-1" filter="url(#a)" transform="translate(-152.6 -261.6)"/><path fill="red" d="M190.9 361c-5.1-2.2-11.1-8.3-11.1-11.3 0-2.3.6-2.7 7.7-3.8 13.4-2.1 20.6-6.7 10.6-6.7-2.1 0-7.4-1-11.6-2.1-10.2-2.9-12-2.8-12 .2 0 3.2-1.2 7.2-2 7.2-.4 0-2.3-3-4.3-6.9-2.6-5.3-3.4-8-3.1-11.5.3-4.3.5-4.5 3.5-4.4 1.7 0 4.4.4 6 .8 2.6.8 2.8.6 3.3-3.6q2.3-15.8 15.2-5.2c3 2.4 6.6 5 8.2 5.8 3.3 1.7 12.2 2 13.2.5 1-1.8-2.3-7.8-8.5-15.2-5-6-6.6-7.2-9.3-7.2-2.5 0-3.3-.7-4.3-3.2-.9-2.8-1.6-3.3-4.7-3.3-3 0-3.9-.5-4.7-2.6-.8-2.2-1.7-2.7-4.8-2.7-3.7 0-3.7 0-3.7-4.4V277l-3.8.6c-3.5.6-3.8.4-4.4-2.5-.5-2.4-1.2-3.2-3.2-3.2-2.2 0-2.5-.5-2.5-3.6 0-3.2-.4-3.7-3-4-2.4-.3-3-1-3.2-4-.2-1.9-1-3.7-1.9-4q-1.5-.6-1.5-5.3c0-2.6-.4-4.7-.8-4.7l-8.8-2.2a87 87 0 0 0-29.7-1.6c-2.7.8-3.9 3.6-2.4 5.4.6.7 4.9 3.5 9.4 6.2 13.7 8 16 12 8.8 15.8-4.2 2.3-13.8 2.7-17.2.9-2.1-1.1-2.1-1.2.6-3.7 3.4-3.2 3.4-4-.3-8.2-3-3.2-3.4-3.4-11.5-3.5-11.9-.1-16.4-3.1-17.7-11.7q-.4-2.2-3.8-2.8c-2-.4-5.7-2.7-8.3-5.1a21 21 0 0 0-6-4.4c-.8 0-4 2.7-7 6a31 31 0 0 1-6.1 5.6c-.8-.9 1.8-23 2.8-24.2a4 4 0 0 1 2.6-1.3c1.7 0 9.8 5.3 14.5 9.5q5.5 5 2.9-2.8c-.8-2.2-1.4-7.6-1.5-11.8 0-7-.3-7.9-2.4-8.4-1.2-.3-3.3 0-4.6.7q-4.6 2.3-2.2-2.7c2.2-4 7.1-8.6 11.2-10.6 5.6-2.6 7-2.2 7 1.9 0 2 .3 3.8.6 4.1s2.3-.3 4.5-1.4c5.1-2.6 12-2.6 15.3 0 2.3 2 2.4 2.3 1 4.6q-6.4 10.4-6.4 17.9c0 10.5 5.6 11.2 23.5 3.2 6.6-3 15-6.2 18.7-7.2 5.8-1.5 7-2.2 8.4-5.3.9-1.9 2.4-3.5 3.3-3.5q1.6.2 1.6-3.6c0-2 .7-4.2 1.5-4.9s1.7-2.8 1.9-4.6c.3-3 .7-3.4 3.3-3.4s3.1-.5 3.6-2.9c.5-2.6 1.1-3 4.2-3 3.3 0 3.6-.2 3.6-3.3 0-3.3 0-3.4 4.3-2.7 3.8.6 4.3.5 4.9-2 .5-1.9 1.5-2.6 4-2.9 2.8-.2 3.5-.8 3.9-3.5.5-2.7 1.1-3.3 4-3.5 4.2-.4 4.3-1.2.8-5.4-4.6-5.5-11-7.8-23.2-8.4-14.8-.8-19.2-3.3-27.9-15.8-2.5-3.6-8.3-6-13.3-5.7-3.1.3-4 .9-4.3 2.8-.2 2 .2 2.4 2.7 2.4 5.4 0 11.5 3.8 17.5 10.6 6.2 7.1 11.4 10.4 18.3 11.6 6.2 1 5.5 2.8-1.2 3.2-8.4.5-9.7 0-18.6-8.2-9.5-8.6-13.6-10.8-21.9-11.6q-9.6-1-9.8-5.7c0-1.4-1.3-2-5.3-2.5-13.6-1.8-18.2-8.3-12.4-17.6a37 37 0 0 1 16.6-11.7c5.8-2 6.2-1.8 5.7 3.8-.6 7.3.3 8.2 7.3 6.9 5.7-1 6.6-.8 7.7 2.5q.4 1 6-.4c4.8-1.2 5.8-1.2 7.3.1 1.3 1.2 4.1 1.6 9.6 1.5 4.2 0 7.7-.3 7.7-.7 0-.6-2.6-2-18.1-9.4a123 123 0 0 1-17.7-10.2 62 62 0 0 0-44.5-14c-9.7.6-13-.8-5.4-2.4 5.4-1 28-1 36.3 0 6 1 6.8.8 7.3-1a47 47 0 0 1 2.6-5.8c1.6-3 1.8-4.6 1-8.3-.8-3.3-.6-5.3.5-8 2.2-5.3 4.6-6.2 14-5.4 6.7.6 8.3 1.2 10.7 3.7q6.6 6.9-3 11.5c-4.5 2.1-5.1 2.8-4.8 5.3s.8 3 4.4 3.3q4.2.3 6.2-1.6c2-1.8 2.2-1.8 5.1 0 2.7 1.5 3.2 1.5 4.4.1s1.6-1.4 3.8 0c3.4 2.3 4.6 2 5.8-1 1.4-4 6.1-3.6 10.2.7 3.8 4 11.2 7.6 14 6.6 4.9-1.9 6-6.8 1.5-6.8-6 0-10-1.4-13.6-4.8-4.6-4.4-4.6-7.2.2-12 3.4-3.4 4.1-3.7 8.6-3.2a17 17 0 0 1 9 3.9c2.2 1.8 4.3 3.3 4.6 3.3s2.9-1.5 5.8-3.2a53 53 0 0 1 22.9-7c7.7-.8 9.9-2.4 12.7-8.7 1-2.5 2.4-4.6 3-4.6 1.4 0 3.3 3.6 3.3 6.4q.1 2 1.4 2.2A63 63 0 0 0 269 35.9c4-3.9 4.8-3.9 4.7-.2 0 7.4-9.6 17.2-21 21.5-3.2 1.3-10.4 3-16.1 4-14.9 2.5-23.1 6.8-13 6.8 4.9 0 9.6 3.6 9.6 7.4 0 4.3 2.3 3.1 12-6.3a93 93 0 0 1 10.6-9.6q1.3.1 3.4 6.6c1 3.3 5.2.7 16-9.7 10-9.7 10.6-10.1 12-8.2 1.7 2.3 2 7.8.6 11.5A54 54 0 0 1 272 75.3c-2.9 2-10.5 6-16.8 9-12 5.9-14.2 8.5-7.5 9.1 2.6.3 4.8-.7 9.7-4.3 20.8-15.3 39.5-17.5 60.7-7l8.8 4.3 5-3a117 117 0 0 0 8-5.6c3-2.4 3.1-2.5 3.1-.3 0 1.2-1 4.9-2.2 8.2s-2 6.2-1.7 6.4c1.3 1.4 4-1.3 5-4.7 1.4-5.3 8-16 14.5-24 5-6.1 20.2-17.7 21.4-16.4 1.2 1.1-2.9 5.7-7 8a26 26 0 0 0-7.4 7c-3.4 4.9-8.3 17.4-7.3 18.5 1.5 1.4 7-2.1 8.7-5.8 3.2-6.9 9.3-13.1 22.1-22.7 8.6-6.5 14.4-10 18.2-11.2 3-.9 5.7-1.4 5.9-1.2s-2 2.1-5 4.2-6 5.1-7 6.6-4.1 4-6.8 5.3a35 35 0 0 0-13.2 12.5c-2.2 3.5-1.7 4 3.4 3.3 3.3-.4 5.7-2.2 13-9.3A53 53 0 0 1 440 44.8q4.6.3 6.7-1.8c1.9-1.7 2.2-1.7 2.2-.3 0 3-6 7-12.5 8.2a64 64 0 0 0-24.9 8.8c-4.6 3.7-8.3 8.8-7.1 10 1.7 1.7 8.4-1 14.4-5.8a35 35 0 0 1 25-8.7c9.2 0 12.8-1.3 18.4-6.5 3.3-3 10.9-6.3 14.9-6.3 2 0 2 0 0 2.3A128 128 0 0 1 454.8 61c-2.3 1-8.4 2.6-13.5 3.3-8.7 1.3-15.3 3.6-16.1 5.6-.5 1-10.6 7.7-11.8 7.7q-.8.1-.9 1.2c0 2 8.5.1 16-3.6 6.1-3 8.4-3.5 18.7-4a72 72 0 0 0 13.8-1.6q2.2-1 1.5.6c-.8 2.5-9.5 6.2-19 8-11 2.2-24 7-28.3 10.6l-3.2 2.6h7c3.8 0 9.8-.6 13.3-1.5 10-2.4 15.7-2 19 1 1.6 1.5 4.7 3 6.9 3.3 6.7 1.1 7.5 1.5 5.2 2.8q-2.1 1.3-11.2.4c-15.5-1.4-17.5-1.2-24.4 1.9l-6.6 3-9.2-2.4c-6.7-1.7-10-2-12.5-1.3-5 1.4-4.7 3 1.6 6a30 30 0 0 0 22.2 2.6c8.7-2.4 12.4-2.9 16-2.2q7 1.4-2.3 3.4a99 99 0 0 0-13 4.6c-6.8 3-8.4 3.3-14.6 2.7-4-.4-10.7-2-15.5-4-17.3-6.8-30.1-5-40.9 5.4-6.1 6.1-8.2 11-7.4 17.8q1.2 9.8 12.4 15.2c5.4 2.5 7.1 2.8 17.7 2.7q11.7-.2 20.8-2.3c35.6-8.5 38-9 53-9.6a89 89 0 0 1 36.4 4.3 72 72 0 0 1 35.1 26c2.2 3.2 4.5 5.6 5.1 5.4.7-.2 1.7-1.9 2.2-3.8s1.4-3.4 1.8-3.4c1.4 0 4.2 10 4.9 17.4.3 4 .9 7.2 1.2 7.2 1.2 0 3.3-4 3.4-6.1q.1-4.8 3.9.5c2.9 4.3 2.6 16-.7 23.5-1.3 3.1-2.2 6-1.8 6.3.3.3 2.3-.5 4.5-1.8s4-2.1 4.3-1.8c1.1 1-3.2 10-7.7 16a57 57 0 0 0-4.6 6.6c0 .3 1.4.6 3.2.6s3.2.4 3.2 1c0 3-11.6 12-22 17.1q-6.2 3.2.6 4.3l3.6.5-3.3 2.9c-3.9 3.2-9.7 5.2-22.7 8-10 2-12 3.4-17.4 12.5-2.5 4-4.4 5.6-11 8.7a71 71 0 0 0-13 8.2c-5.8 5-9.5 6.7-16.8 7.8-6.7 1-8.3 2.2-7.5 5.7 1 3.9 2.2 4.4 10.4 4.4 8.4 0 22.1 2.7 24.2 4.7q3.4 3.4-5.4 10.3c-3 2.4-5.6 4-5.9 3.8s.3-2 1.2-3.7c1-1.8 1.7-3.5 1.7-3.9 0-1.5-8-3.8-15.5-4.4s-8.2-.6-9.8 1.7c-2.2 3.1-7.7 5.4-13 5.4-2.5 0-4.7.7-5.6 1.7a84 84 0 0 1-17 11.4c-2 1-6 2.3-8.7 3-5.4 1.5-6.6 3.8-5.5 9.7.5 2.6.3 2.8-1.8 2.2-3.2-.8-11.7-9-11.7-11.2 0-1-2.7-4.7-5.9-8.4-6-6.7-7-9.3-4.4-11.5.8-.7 1.8-4 2.2-7.3s1.2-7.1 1.7-8.5l1-2.5 7.2 3.7c15.2 7.7 29.3 9.2 35 3.7 2.6-2.3 2.8-3.2 2.4-8.2-.9-11-8-15.8-25-17.4-11.2-1-16.3-2.3-20.8-5.4-3.8-2.6-4.7-2.5-9.4 1.1-5.7 4.6-12.2 6-20.9 4.5-3.8-.7-7.4-1-8-.6-.6.3-1 2-1 3.7 0 3 .3 3.2 4 3.2 4.6 0 13.7 4 16.7 7.3 1.7 2 1.8 2.8.8 5-1.6 3.5-7.3 6.9-11.6 6.9h-3.4l2.4-4.2q4.5-8-4.1-8.4c-3-.3-5.4.5-9.3 3a21 21 0 0 1-8.2 3.2 50 50 0 0 0-20.2 5c-2.5 1.5-5.5 2.5-6.6 2.2-3.8-1-5.8 1.6-5.1 6.5.5 3.8.3 4.4-1.4 4.4-1 0-3.3-1.1-5-2.6l-3.2-2.7-3 4.6c-3.3 5.1-7 9.3-8 9.3-.4 0-1-1.5-1.4-3.4-1-4.7-2.6-6.2-6.3-6.2s-13 4.8-19.5 10.1a27 27 0 0 1-17.3 5.9c-6 0-16.1 3.9-19.9 7.6-2.4 2.5-2.9 3.7-2.3 6.3.4 1.7.6 3.1.4 3zm195.9-18.6c6.5-1.7 4.3-3.4-4.8-3.6-7.3-.1-7.4-.1-7.7 2.9-.6 5.4.3 6.3 4.3 4a40 40 0 0 1 8.2-3.3m-2-11.5c-.1-1.4-11-8.8-13.1-8.8-1.6 0-2 .7-1.7 4l.4 4 5.8.6 7.3.8q1.2.2 1.3-.6m-184.3-2.5q-.6-.9-2-1c-.8 0-3.5-1.7-6-3.7-5.2-4.4-9.8-4.8-10.4-.9-.4 2.9 3.6 5.8 9.3 6.7 4.8.8 10 .2 9.1-1.1m48.3-5.3 12.8-2.8q2.3-.6 4 2c1.5 2 2 2.2 2.8.9a8 8 0 0 0 1-3.8c.1-4.1 1.5-4.7 11.9-5 8-.2 10-.6 10-1.9 0-3.6-20.6-5.7-24.2-2.5-1.9 1.7-2 1.7-2.6-.5-.7-2.8-1.7-2.8-11.8-.7-13.4 2.8-17.4 5.1-17.4 10.2 0 3.5 1 6.3 2.1 6.3zm8.4-18.3c3.2-1 4.7-2.3 6.1-5.3 2.5-5.2 5.3-6 10.3-2.8 7.4 4.9 15.5 6.9 21 5.3l3.2-1-3.9-1.6c-4-1.7-8.4-6.4-8.4-9 0-1.8-1-1.8-5.7.2-6.4 2.7-7.1 2.3-7.1-3.7 0-3-.4-5.3-.8-5.3a22 22 0 0 0-4.5 5.4c-4.3 6.4-8.1 9.4-18.3 14.8-4 2.1-7 4.3-6.6 4.7 1 1.1 9.1.2 14.7-1.7m185.5.2c2.1-.6 6.4-3.1 9.4-5.6 9.5-7.7 12-9.2 17.6-10.9q11.4-3.4 11-9c-.3-2.6-.7-2.8-5.8-2.7a13 13 0 0 0-9.3 2.9c-2 1.6-6.9 4-10.7 5.4-7 2.5-18.3 9.2-20.7 12.3-2 2.4-1.7 6.3.5 7.5 2.4 1.4 3.1 1.4 8 0M247.6 297c6-2.8 14-10.5 12.9-12.3-.9-1.3-3.8-1.5-3.8-.3 0 1.5-10 8.5-14.2 9.8q-4.1 1.3-4 3.3c0 2.8 2.5 2.6 9.1-.5m-25.4-1.5c1.6-1.9 1.8-7.2.5-8-.5-.4-1.6.5-2.3 2a14 14 0 0 1-6 4.4q-8.4 3.3-1.2 3.8 6.9.7 9-2.2m216.8-7.9 10.4-6 6.2-2.8c4.8-1.9 4.3-3.8-1-3.8-3.5 0-13 4-16.4 7-1 .7-4.4 2.2-7.8 3.3-6.5 2-10 4.8-8.7 6.9s8.8.3 17.3-4.6m-132.7 2.7c2.5-2.5 1.4-7.1-3.2-13-3.8-4.9-4.5-7-2.7-8.1q1-.7 1.1-1.6c0-1-19.5 5.2-20.8 6.6-.4.3 1.3 1.7 3.7 3 3.2 1.9 5 4 7 8a18 18 0 0 0 4 6.2c3 1.2 9.2.6 11-1m-60.6-3 4-3.7h-8.2c-4.6 0-8.5.5-8.9 1-.4.7.1 2.4 1 3.8 2.6 4 7.2 3.5 12.1-1M351 289q4.7-2.5 2.6-5-2.4-2.7-10 .4c-2.2 1-6 2-8.4 2.5-4.2.8-4.2.9-1.7 2a33 33 0 0 0 17.5 0m-138.5-4.3c.8-.7 1.5-3.3 1.5-5.9V274l-4.7 4.9c-2.7 2.8-5.5 4.8-6.9 4.8q-2.1 0-2.3 1c0 2.3 9.6 2.2 12.4-.1m210.1-3c4-3.1 5.3-3.6 14.5-5 5.7-.8 9.1-2.4 7.9-3.6-2.7-2.5-32-10.9-48.4-13.8-17.9-3.2-17.8-3.3-9.1 4.9 8.1 7.6 20.8 17.4 25 19.3s5.9 1.6 10.1-1.8m-77.5-2.3c1.9-.6 3.4-1.5 3.4-2s-2-2.1-4.3-3.8-6-4.8-8-7-4.1-4.2-4.7-4.2c-2.4 0-4.7 15.4-2.6 17.5 1.2 1.1 12.6.8 16.2-.5m40.5 0q5.6-1.9 3.3-8.5c-1.2-3.3-3-3.3-3 0 0 1.1-1.2 3.5-2.7 5.2-4 4.8-3.5 5.4 2.4 3.3m-181-6.6c2-1.6 3.3-8.2 2-10.3-.7-1.1-1.2-.9-2.3 1.1q-2.8 5.3-9.4 7.5c-3.3 1-3.6 1.4-1.7 2 3.3 1.4 9.5 1.2 11.4-.3m26.7-7.5c.6-3.7-2.3-7.7-6.2-8.7s-4.2-.2-1.4 3.6a16 16 0 0 1 2.7 7.8l.3 5c.3 1.6 4.2-5 4.6-7.7m142.2 6.5a6 6 0 0 0 2.8-8.2c-1.3-2.5-3.3-2-3.3.6 0 1-1.2 3.4-2.7 5.3q-4.5 6 3.2 2.3M246 267.4q4.4-7.3-.7-11.4a10 10 0 0 0-4.6-2.2c-1.7 0-1.6.5.6 4.8a14 14 0 0 1 1.8 8.6q-1.1 7 2.9.2m252.5-.6c6.9-1.3 2.6-2.7-9.8-3.2-6.1-.3-11.4-1-11.7-1.5-.7-1.1 3-4.6 7.6-7l3.2-1.7-3.5-1.4c-5.7-2.4-15-2.1-21 .6-4.8 2-6 2.2-10.4 1.1-2.8-.7-5.1-1.7-5.1-2.2s2.5-2.2 5.6-3.6l5.6-2.5-3-1.1c-1.7-.7-8.3-1.2-14.7-1.2a37 37 0 0 1-11.7-1c0-1.2 4.9-4.3 7-4.3q1.4-.1 1.6-1.1c0-1.7-6.4-5.2-13.8-7.5-7.1-2.2-20.4-2.9-20.4-1 0 2.2 15.7 17.5 23.3 22.6a89 89 0 0 0 40.8 15.3 122 122 0 0 0 30.4.7M266.3 258c0-3.4-3.6-7.4-6.6-7.4-2.4 0-2.4.4-.2 3.8 1 1.6 1.7 4.7 1.7 7.7v5l2.5-3a11 11 0 0 0 2.6-6m96.9 5.9c2.3-1.7 3-5 1.7-8.4-.9-2.4-2.5-2.2-2.5.3 0 1.2-1.2 3.5-2.7 5.3s-2.7 3.4-2.7 3.8c0 1.2 3.9.6 6.2-1M193 262c2.3-1.6 3.9-11.3 1.9-11.3q-1.1 0-1.2 1c0 2-7.6 8.3-11 9-2.7.6-3 1-1.8 1.7 2.3 1.5 10 1.3 12.1-.3m88.6-3.3c3.3-5 2-10.4-3.5-13.3-2.8-1.5-3.5 0-1.5 3 1 1.7 1.8 5 1.8 7.9 0 5.7.7 6.2 3.2 2.4m18.8-6.6c1.2-1.5 2.2-3.9 2.2-5.3 0-3.6-4.8-7.9-8.8-7.9h-3.3l2.1 2.4q5.3 5.8 4.2 10.6-.9 5.7 3.6.2m50.3 1.2c2.4-1.2 3.1-2.4 3.1-4.7 0-6.7-2.5-8.7-3.6-2.9a11 11 0 0 1-2.8 5.5c-4 3.7-2.1 5 3.3 2.1m-169.3-3.1c1.5-1.5 2.7-3.3 2.7-4.2s.3-2.3.6-3.2c1-2.4-1-2.2-4 .5s-8.6 5.2-11.5 5.2c-3.4 0-2.6 2 1.3 3.1 5.7 1.7 8.2 1.3 11-1.4m324-2.2q1.2-12.2-10-12.3c-5 0-12.7 3-11.8 4.5.3.5 2.7.9 5.2.9 5.2 0 12.7 4.6 14 8.6.8 2.5 2.3 1.6 2.7-1.7m-102.6-3v-3.4l-1.5 3.2c-2 4.5-2 6.5 0 4.8 1-.7 1.6-2.8 1.5-4.7m-84.5 2.3c4-3.8 3-8.9-2.4-11.8-.7-.4-1 2.1-1 6.7 0 4 .2 7.4.4 7.4s1.6-1 3-2.3m-80.9-1a267 267 0 0 0 25.7-6.9 756 756 0 0 1 79.9-19.7 87 87 0 0 1 47 7c8.6 4 9 4.2 8.2 2.7-2-3.3-18.8-10.3-27.5-11.4-2.8-.4-5.1-1-5.1-1.5a34 34 0 0 1 8.2-4.8 42 42 0 0 1 15-4.5l6.9-.6-1.7 3.3c-2.9 5.5-2.4 6.6 3 6.6 2.6 0 7-.5 10-1.2 5.3-1.2 13.3-.6 16.2 1.2 1.4.9 1.2 1.3-.8 2.7-1.3 1-2.4 2-2.4 2.5s6.6 2.5 14.7 4.5c12.4 3 16.5 3.6 26.4 3.6 14.2 0 21.4-2.6 25.7-8.9 3.7-5.5 3.6-13.8-.3-21.6a16 16 0 0 0-8.8-8.7c-11.6-5.8-26-6.1-49.1-1.2-46 9.8-62 10.7-87 4.7-13.2-3.1-17.6-5-22.6-9.6a52 52 0 0 0-11.3-7.3q-9.8-4.3-10.7-8.7c-.2-1.1.7-1.4 4.2-1.2 5.5.3 5.8-.8 1.6-6.2a96 96 0 0 1-6.6-10.7c-4.4-8.1-8.7-11.5-15.9-12.3l-11.9-1.6c-3.8-.6-7-.9-7.2-.7-.1.1 1.2 2.9 3 6a22 22 0 0 1 3.1 12c0 6.5-.3 7-3.6 4.5-5.2-4-7.3-1.5-8.5 9.9-.8 7-2.5 13-3.7 13-.4 0-1.5-1.4-2.6-3.2-2.8-5-4.9-3.7-8.2 5.4-3.1 8.4-7.2 16-8.6 16-.4 0-1-2-1.4-4.4-1.3-9.5-5.6-8-8.6 3-3.7 13.8-4.6 14.7-7.1 7.6-2.6-7.2-4.5-6.6-3.6 1.2.5 5.1.3 7-1 9.2-2.2 3.1-4 3.4-4 .6 0-3-2.7-5-4.7-3.3-2.3 1.9-2 6.7.6 10a8 8 0 0 0 11 1.2c2-1.5 6-2.2 6-1.1 0 .3-1.2 2.3-2.7 4.4-1.4 2.2-2.6 5-2.6 6.5 0 4 4 3 13.3-3.4 10.5-7.3 11.5-7.4 9.6-1.1-2.6 8.4.2 8 10.8-1.4 4.5-4 10-8.4 12.2-9.6l4-2.3-.5 6.4c-.6 6-.5 6.4 1.5 6.4q2.3-.1 8.1-7.3c5.6-6.9 14.4-14 17.4-14q1.4-.2-.7 5.3c-2.5 6.5-2.6 8.4-.4 9.3 1.2.4 4.2-2 9.9-8 4.5-4.9 8.8-8.8 9.5-8.8q1.3 0 1.3 5.3c0 8.2 2 8.2 14.3-.2 6.7-4.5 15.5-8.8 16.3-8q.4.8-.6 2.9a11 11 0 0 0-1 5.2c.5 3.8 3.2 3.4 13.8-2a65 65 0 0 1 11.7-5l3.6-.7-2.5 3.5a13 13 0 0 0-2.4 6.5v3l-16.7.5c-16.3.6-17.3.7-41.3 7.1-57.6 15.4-65 17.2-74.8 17.9-11.7.8-16 0-21.2-3.4-4.6-3.2-4.9-3.2-4.8-.8.1 7.6 15.3 11.6 33 8.7m98-1c2.8-2.6 3-6 .7-9.3q-3.7-5.5-3.4 2.1a27 27 0 0 1-.7 7q-1.3 4.5 3.5.2m52.7-1c3.6-3.6 3.9-6.7 1-11.5q-4.3-6.8-4.3.4c0 2-1.2 6.2-2.6 9l-2.7 5.3h2.7c1.6 0 4-1.3 5.9-3.2m138-2.5a46 46 0 0 0 5.8-27.3c-.5-10.2-3.8-21.5-6.4-21.5-.6 0-.7.9-.3 1.9a42 42 0 0 1 4.5 22.7 60 60 0 0 1-6.8 25q-2.6 3.8-.5 3.8c.5 0 2.2-2 3.6-4.6m-153.3-.6a18 18 0 0 0 2.4-6.3c0-3.1-3.3-6.5-7.2-7.7-4-1-5.5.2-3 2.7 1.8 1.9 3.7 8.2 3.8 12.5q0 6 4-1.2m-198.2-7.3c1.7-1 3-2.2 3-2.5 0-.4-2.3-1-5.3-1.3-3.2-.3-7-1.5-9.6-3.3-2.3-1.6-4.3-2.3-4.3-1.7 0 2 4.2 9.3 5.6 10 2.9 1 7.6.6 10.6-1.2m341-3.2q-2.3-13.3-12.2-11.5c-3.7.7-8.6 3.5-8.6 5 0 .5 2.6.8 5.8.8 5 0 6.3.5 9.6 3.4 2 1.8 3.8 4 3.8 4.8q.1 1.4 1.1 1.5 1.2 0 .5-4m-320.7-5.8a19 19 0 0 1 .9-15.3c1.2-2 8-7.8 15.1-13 21.5-15.7 41.5-34.9 41.5-39.8 0-.7-5 3.3-11 8.9a289 289 0 0 1-31.3 25.7 90 90 0 0 0-19.7 18.8c-1.7 4-.8 10.6 2.2 15.4 2.8 4.5 4 4.2 2.3-.7M89.5 208.2c1.5-2.6 2.5-5.3 2.2-5.8-.8-1.2-8-1.2-10 0-1.2.8-1.4 2.8-.8 9.6a51 51 0 0 0 2 11.4c1.2 2.7 1.3 2.5 2.6-3.8.7-3.6 2.5-8.7 4-11.4m88 9.2c3.8-1.3 4.5-3.1 1.2-3.1-3 0-9.6-3.6-12.7-6.8q-5.3-5.6-2.6 3c2.6 7.5 6.7 9.5 14.1 6.9m340.2-12.7c-3.2-6.3-12.1-6.8-17-.9-3.2 3.7-3.5 5.7-.9 4.6 6.5-2.7 14.2-2 17.8 1.6 2 2 2-1.5.1-5.3m-327.2-2c0-.6-1.2-1.7-2.6-2.7-1.4-.9-3.9-4.4-5.5-7.8l-3-6-1 3.5c-1 4.1-.2 10.3 1.6 11.4 1.3.7 6.8 2.2 9.2 2.4q1.2 0 1.3-.8m13.7-13q6-2.2-1-3.6c-1.9-.4-5-2.4-7-4.5s-4-3.6-4.2-3.3c-1.2 1.2 1.9 9.3 4 10.9 2.9 1.9 3.8 2 8.2.4M387 186a330 330 0 0 0 23.2-6.5c23.6-7.4 30.2-8.6 50.4-8.5 21 0 33.5 2.4 52.1 9.8 3.7 1.4 7 2.3 7.4 2 .3-.4 0-2.4-.6-4.6-1.3-4-5.4-7.8-16-15.1-4-2.8-5.6-2.3-3.6 1 2.4 3.8.7 3.4-7.6-2-7.4-4.9-13.2-7.4-14.3-6.3-.2.2.2 1.7.9 3.3q2.5 5.8-2.9 1.9a40 40 0 0 0-18.4-6.6h-3.9l3.5 3.1c5.1 4.7 4.6 7.2-.7 3.5a33 33 0 0 0-16.9-5.5h-4.9l1.8 2.6c3.4 5.3 2.3 6-5.5 3.1a44 44 0 0 0-14.1-2.5H410l3.4 3.5q7 7.5-.6 4.4a37 37 0 0 0-17.4-2.8c-2.2.8-2.2.8 0 3.3 2.7 3.2 3 5.8.3 5a89 89 0 0 0-23.2-3.8H365l3 2.6c1.6 1.4 3 3.4 3 4.3 0 1.3-1.1 1.1-5.7-1.2-6-3-14.7-5.7-18.8-5.7H344l2.8 3.3c2.7 3.1 4.6 8 3.6 9-.3.3-4-1.1-8.4-3.2a66 66 0 0 0-12-4.4c-3.9-.7-4-.6-3.8 1.8.5 3.4 10 8.9 20.2 11.6a103 103 0 0 0 40.6-.4m-166.2-8.8q4-1.7-1.7-3c-2-.4-5.2-2.5-8.2-5.6l-4.7-5 .6 5.2c.4 3.7 1.3 5.8 3 7.2 2.2 1.9 7.8 2.5 11 1.2m108.5-18c1.4-.8 4.3-1.6 6.2-2 5-.8 5.2-1.4.7-3.3-4.2-1.7-9.9-2.1-11.8-.8-1.9 1.2-3.4 4.7-3.7 8.2-.3 5.1-.1 5.3 3 2.2a24 24 0 0 1 5.6-4.3m-92.9.5c2.4-1.2 4.3-2.6 4.3-3.2s-3-1-6.5-1q-9.4 0-15.2-5.1c-2.8-2.6-3.5-.7-1.2 3.6q6.4 12 18.6 5.7m-32-6c3.6-4.1 4.4-10.8 1.6-13.2-1-.7-9-1.9-19.5-2.7-9.9-.8-20.3-2.2-23.2-3-9.6-3-11.2-2-6.5 4.2 2.8 3.6 8.3 5.8 18.7 7.4a36 36 0 0 1 17 8.3c5.6 4.2 7.4 4 11.9-1m122.8-13.2c2 0 4.8.7 6 1.6 3.8 2.7 4-.2.4-3.9-3-2.8-3.9-3.2-7.3-2.7-4.6.8-8.4 4.3-9.4 8.7l-.7 3.3 3.6-3.5c2.7-2.6 4.7-3.5 7.4-3.5m-23.5 1a36 36 0 0 0-4.4-4.8c-.6-.3-2.2-3-3.6-5.7l-2.7-5-6.7-.7c-19.5-1.8-28-2-27-.8a46 46 0 0 0 19 8.1q10.8 1.4 16.8 9c3 3.8 4 4.4 7.6 4.4h4.2zm-70.3.3c2.5-2.7 5.9-10.5 5-11.5-.3-.2-2 .9-3.7 2.4a25 25 0 0 1-14.4 7.1l-6.9 1.5 3.8 1.7c2 1 5.9 1.7 8.6 1.7 4 0 5.4-.5 7.6-2.9M221 130.7a15 15 0 0 0 3.4-8c1.2-7.5-.1-9.2-3-3.7a29 29 0 0 1-15.3 11.7c-1.6.3-3 1-3 1.4 0 1.4 3.5 2 9.6 1.6 4.3-.3 6.4-1.1 8.3-3m113.5-5c0-7.2-8.4-11-14.3-6.4-3.2 2.6-3.9 6-1 4.7 5-2 7.6-1.7 11.2 1.5l3.8 3.3c.2 0 .3-1.4.3-3.2m-154.8-6.3c3.9-2.8 4.4-10.9.9-14s-4.6-2.3-4.2 2.4c.2 3.9-3.2 11.5-5.2 11.5q-.9.1-1.5 1.7c-.6 1.4-.1 1.6 3.3 1 2.2-.4 5.2-1.6 6.7-2.6m113.6 1.7c1.7-5.5 1.6-5.5 4-2.4q2.2 2.8 4.5 2.5c2-.3 2.3-1 2.3-5.1v-4.9l-6.4-.3a54 54 0 0 0-13.9 1.6c-4.3 1.1-11 1.9-15.7 1.8-6.3 0-8 .3-7.3 1.2a54 54 0 0 0 20.3 5.8c10.3 1.3 11.8 1.3 12.2-.2m48.9-12c4-1.5 8.8-2.7 10.4-2.7 4.6 0 4.9-1.7.6-3.3-3-1.1-3.8-1.9-3.8-4.4s-.2-2.9-1.9-2a80 80 0 0 0-13.3 13.4c-1.2 2.2-.7 2.1 8-1m-134.7-1.8 3.7-2.4-5.7-.7c-10-1.3-12.9-7.3-6.5-13.5 3-3 3.1-3.2 1-3.8-3.6-1-9.1 1.2-10.7 4-.8 1.6-1.1 4.5-.8 7.7 1.1 9.8 10.4 14 19 8.7m63.5.8c3-.8 7.2-2.2 9.6-3.1a29 29 0 0 1 19.4.2c5.5 2 5.5 2 6.1-.3.7-2.8-.5-4-6-5.6a29 29 0 0 0-23.7 2.3c-3.8 2-9.2 4.3-11.8 5-2.7.6-5.1 1.6-5.4 2.1-1 1.4 5.8 1.1 11.8-.6m-105.4-6.6c.3-3.3.3-3.4-6-4.5-7-1.2-14.4-4.6-24-11a43 43 0 0 0-7-4c-1.1 0-5.5 3.9-5.5 4.9 0 .5 1.8 2.4 4 4.2a61 61 0 0 0 35 13.9c2.7-.1 3.2-.6 3.5-3.5m92-1c3.5-.8 12-4 19-7 11.9-5.1 12.9-5.4 20-5 6.6.5 8.4 1 14 4.7l7.6 5q1.4 1 3.5-4c1.2-2.8 2.1-5.4 2.1-6 0-1.4-13.4-5.2-23-6.5a35 35 0 0 0-27.3 5.8c-3.7 2.4-11.2 6.4-16.7 8.8s-10.2 4.8-10.6 5.2c-1.2 1.2 5.1.7 11.5-1m126.3-5c5-1.6 6.1-2.8 6.1-6.4 0-8.6-14-8-23.4 1-4.7 4.6-4.8 4.8-2.7 6.4 2.3 1.7 13.5 1.2 20-1"/></svg>