<svg xmlns="http://www.w3.org/2000/svg" version="1.0" viewBox="0 0 218.8 641.8"><g transform="matrix(1.6228 -.01432 .01422 1.6121 -766.4 138.4)"><path fill="#999" fill-rule="evenodd" stroke="#000" d="m554.6-34.3.3.6 5.8 1.6v-7.3l-6.2 2-.3.9h-2.5v2.3zm-.1-12.2.3.7 5.7 1.5v-7.3l-6.1 2-.4 1h-2.5v2.3zm.2-14.2.3.6 5.7 1.5v-7.3l-6.1 2-.4 1h-2.5v2.3zm-36.4 27.8-.3.7-5.8 1.5V-38l6.2 2 .3 1h2.5v2.2zm2.1-13.7-.3.6-5.7 1.6v-7.4l6.1 2 .4 1h2.5v2.3zm-1.6-13.1-.3.7-5.7 1.5v-7.3l6.1 2 .4 1h2.5v2.3z"/><path fill="maroon" fill-rule="evenodd" stroke="#000" d="M544.9 141.8c1.7 5.9 3.6 11.3 4 16.2 5.8 19.5 17.8 12.5 30.7 1.5 5 6 4.8 14.7-3.5 27.8-1.6 9.6-6.3 10.9 3.5 25.2 12.6 18.5 32.2 35.6 21.7 63.7-6.3 16.9-14.3 34-38.3 38.4a105 105 0 0 1-51-2.6 60 60 0 0 1-33.4-25.2 44 44 0 0 1-2.5-47c6.4-13 18.8-23 23.2-37.4.4-13.2-7-21.7-9.6-31.8a18.4 18.4 0 0 1 10.6-21.7c4.7-2.1 11.1-4.1 16.2-1.5 2.3 1.1 2.4 5 4 7"/><path fill="#fff6d5" fill-rule="evenodd" stroke="#000" d="M545.8 175.5v-9.9l11 9.3c9.2 19.4 14 37.7 21 56.5-1 3 .3 7.3-7 7.3l-18.2-3.8-.2-16.4-1-1.4h-5.2v-22.5h5.2l1.2-1.3v-15.7l-1-1.7z"/><rect width="37.5" height="19.1" x="515.5" y="216.5" fill="#fff6d5" fill-rule="evenodd" stroke="#000" ry="2"/><rect width="37.5" height="19.1" x="515.3" y="175.5" fill="#fff6d5" fill-rule="evenodd" stroke="#000" ry="2"/><rect width="27.1" height="15" x="520.6" y="177.3" fill="#e3dedb" fill-rule="evenodd" stroke="#000" ry="2"/><rect width="27.1" height="15" x="520.1" y="219" fill="#e3dedb" fill-rule="evenodd" stroke="#000" ry="2"/><rect width="39.2" height="9.1" x="514.2" y="256.6" fill="#e3dedb" fill-rule="evenodd" stroke="#000" ry="4.3"/><rect width="37.8" height="9.1" x="501.7" y="265.4" fill="#e3dedb" fill-rule="evenodd" stroke="#000" ry="4.3" transform="rotate(-3)"/><path fill="#c87137" fill-rule="evenodd" stroke="#000" d="m526-16-3.6 188.4h23.2L543.1-16z"/><rect width="23.4" height=".7" x="522" y="168.3" fill="#ffe680" fill-rule="evenodd" stroke="#000" stroke-width=".2" ry=".1"/><rect width="23" height=".7" x="522.2" y="164.4" fill="#ffe680" fill-rule="evenodd" stroke="#000" stroke-width=".2" ry=".2"/><rect width="23.4" height=".7" x="521.8" y="159.8" fill="#ffe680" fill-rule="evenodd" stroke="#000" stroke-width=".2" ry=".1"/><rect width="23.4" height=".7" x="521.8" y="155.1" fill="#ffe680" fill-rule="evenodd" stroke="#000" stroke-width=".2" ry=".1"/><rect width="23" height=".7" x="522.4" y="149.9" fill="#ffe680" fill-rule="evenodd" stroke="#000" stroke-width=".2" ry=".2"/><rect width="22.8" height=".7" x="522.5" y="144.6" fill="#ffe680" fill-rule="evenodd" stroke="#000" stroke-width=".2" ry=".2"/><rect width="23.2" height=".7" x="522.4" y="139.2" fill="#ffe680" fill-rule="evenodd" stroke="#000" stroke-width=".2" ry=".1"/><rect width="22.7" height=".7" x="522.7" y="133.3" fill="#ffe680" fill-rule="evenodd" stroke="#000" stroke-width=".2" ry=".2"/><rect width="22.7" height=".7" x="522.9" y="126.7" fill="#ffe680" fill-rule="evenodd" stroke="#000" stroke-width=".2" ry=".2"/><rect width="22.3" height=".7" x="522.9" y="120.1" fill="#ffe680" fill-rule="evenodd" stroke="#000" stroke-width=".2" ry=".2"/><rect width="21.2" height=".7" x="523.4" y="112.8" fill="#ffe680" fill-rule="evenodd" stroke="#000" stroke-width=".2" ry=".2"/><rect width="21.4" height=".7" x="523.3" y="105.8" fill="#ffe680" fill-rule="evenodd" stroke="#000" stroke-width=".2" ry=".2"/><rect width="21.8" height=".7" x="523.3" y="97.6" fill="#ffe680" fill-rule="evenodd" stroke="#000" stroke-width=".2" ry=".2"/><rect width="19.1" height=".7" x="524.9" y="14" fill="#ffe680" fill-rule="evenodd" stroke="#000" stroke-width=".2" ry=".2"/><rect width="18.4" height=".7" x="525.3" y=".5" fill="#ffe680" fill-rule="evenodd" stroke="#000" stroke-width=".2" ry=".2"/><rect width="14.1" height="2.3" x="526.8" y="161.2" fill="#fff" fill-rule="evenodd" ry=".1"/><rect width="13.4" height="2.3" x="527.4" y="151.5" fill="#fff" fill-rule="evenodd" ry=".1"/><rect width="13.6" height="3" x="526.8" y="140.8" fill="#fff" fill-rule="evenodd" ry=".1"/><rect width="13.4" height="3.9" x="526.6" y="128.7" fill="#fff" fill-rule="evenodd" ry=".1"/><rect width="13.2" height="4.6" x="526.5" y="107.3" fill="#fff" fill-rule="evenodd" ry=".2"/><rect width="9.5" height="8.9" x="529.3" y="40.3" fill="#fff" fill-rule="evenodd" ry=".3"/><rect width="18.6" height="2.5" x="525.3" y="-15.6" fill="#d38d5f" fill-rule="evenodd" stroke="#000" stroke-width=".5" ry=".2"/><path fill="#241c1c" fill-rule="evenodd" stroke="#000" d="M521.4-75.3c5.8.7 10.5-2.9 15.5-5.3 4.8 2.4 9.4 5 16 4.6-3 32.6-1.3 33.4-1.4 46.3-3.1 4.1-6.5 8.2-7.8 13.2h-18.2c-1.2-5.6-3.7-8.8-5.7-12.7a369 369 0 0 0 1.6-46z"/><rect width="9.5" height="10" x="529.9" y="-11.5" fill="#fff" fill-rule="evenodd" ry=".3"/><rect width="9.5" height="10" x="529.7" y="15.3" fill="#fff" fill-rule="evenodd" ry=".3"/><rect width="9.5" height="7.5" x="529.1" y="62.1" fill="#fff" fill-rule="evenodd" ry=".3"/><rect width="9.5" height="6.1" x="529.1" y="81.5" fill="#fff" fill-rule="evenodd" ry=".2"/><rect width="20.2" height=".7" x="524.3" y="38.5" fill="#ffe680" fill-rule="evenodd" stroke="#000" stroke-width=".2" ry=".2"/><rect width="19.3" height=".7" x="524.9" y="26.5" fill="#ffe680" fill-rule="evenodd" stroke="#000" stroke-width=".2" ry=".2"/><rect width="19.8" height=".7" x="524.5" y="49.9" fill="#ffe680" fill-rule="evenodd" stroke="#000" stroke-width=".2" ry=".2"/><rect width="20.2" height=".7" x="524.1" y="60.6" fill="#ffe680" fill-rule="evenodd" stroke="#000" stroke-width=".2" ry=".2"/><rect width="19.8" height=".7" x="524" y="70.5" fill="#ffe680" fill-rule="evenodd" stroke="#000" stroke-width=".2" ry=".2"/><rect width="21.1" height=".7" x="523.8" y="80.1" fill="#ffe680" fill-rule="evenodd" stroke="#000" stroke-width=".2" ry=".2"/><rect width="21.2" height=".7" x="523.6" y="89" fill="#ffe680" fill-rule="evenodd" stroke="#000" stroke-width=".2" ry=".2"/><path fill="none" stroke="#555" stroke-width=".5" d="m526.2-48.5 3.6 33-2.4 274.8M544-34.4l-2.6 19 3 275.2"/><path fill="none" stroke="#555" stroke-width=".5" d="m543.9-47.2-5.2 31.8 1 275.4"/><path fill="none" stroke="#555" stroke-width=".5" d="m544.4-60.8-8.7 45.1-.2 275.2m-8.2-318.9 5.3 44.6-1 274.3"/><path fill="#d38d5f" fill-rule="evenodd" d="M548.2-62.2a2.3 2.3 0 1 1-4.7 0 2.3 2.3 0 1 1 4.6 0m-.5 13.6a2.3 2.3 0 1 1-4.6 0 2.3 2.3 0 1 1 4.6 0m0 12.8a2.3 2.3 0 1 1-4.6 0 2.3 2.3 0 1 1 4.6 0m-20.4-12.7a2.3 2.3 0 1 1-4.6 0 2.3 2.3 0 1 1 4.6 0m1.5-13.2a2.3 2.3 0 1 1-4.7 0 2.3 2.3 0 1 1 4.7 0"/><path fill="#ccc" fill-rule="evenodd" stroke="#000" stroke-width=".2" d="M521.2 261a2.7 2.7 0 1 1-5.4 0 2.7 2.7 0 1 1 5.4 0zm30.8.2a2.7 2.7 0 1 1-5.4 0 2.7 2.7 0 1 1 5.4 0z"/><path fill="none" stroke="#555" stroke-width=".5" d="m524.7-34 2.5 18.5-3.4 275"/><path fill="#d38d5f" fill-rule="evenodd" d="M526.8-35.3a2.3 2.3 0 1 1-4.6 0 2.3 2.3 0 1 1 4.6 0"/><rect width="24.3" height="6" x="521.7" y="259.1" fill="#b3b3b3" fill-rule="evenodd" ry="3"/><path fill="#ccc" fill-rule="evenodd" stroke="#000" stroke-width=".1" d="M522.5 242.2a2.3 2.3 0 1 1-4.7 0 2.3 2.3 0 1 1 4.7 0zm28.1-1.6a2.3 2.3 0 1 1-4.7 0 2.3 2.3 0 1 1 4.7 0z"/></g></svg>