<svg xmlns="http://www.w3.org/2000/svg" version="1.0" viewBox="0 0 154.1 191.8" xmlns:xlink="http://www.w3.org/1999/xlink"><defs><linearGradient id="b" x1="402" x2="393.5" y1="239.4" y2="210.8" gradientTransform="matrix(.64408 0 0 1.5526 20 222.7)" gradientUnits="userSpaceOnUse"><stop offset="0"/><stop offset="1" stop-opacity="0"/></linearGradient><linearGradient id="c" x1="175.2" x2="97.1" y1="194.7" y2="154.1" gradientTransform="matrix(.62748 0 0 1.5937 108.4 278.7)" gradientUnits="userSpaceOnUse"><stop offset="0" stop-color="#e9d600"/><stop offset="1" stop-color="#e9d600" stop-opacity="0"/></linearGradient><linearGradient id="d" x1="252.8" x2="255" y1="153.1" y2="174.8" gradientTransform="scale(.52394 1.9086)" gradientUnits="userSpaceOnUse" spreadMethod="reflect"><stop offset="0" stop-color="#626060"/><stop offset="1" stop-color="#626060" stop-opacity="0"/></linearGradient><linearGradient id="e" x1="197.2" x2="180.3" y1="209.4" y2="186" gradientTransform="matrix(1.032 0 0 .96898 110.4 280.9)" gradientUnits="userSpaceOnUse" spreadMethod="reflect"><stop offset="0" stop-color="#f8f8f8"/><stop offset="1" stop-color="#f8f8f8" stop-opacity="0"/></linearGradient><radialGradient id="a" cx="421.2" cy="245.1" r="77.3" fx="424.2" fy="245.7" gradientTransform="matrix(.77263 0 0 1.2943 20 222.7)" gradientUnits="userSpaceOnUse"><stop offset="0" stop-color="#ffde39" stop-opacity=".6"/><stop offset="1" stop-color="#ffde39"/></radialGradient></defs><path fill="url(#a)" fill-rule="evenodd" stroke="#c7b559" stroke-width=".3" d="M330.4 532.9c-18.2-1-27.8 28.8-30.3 41.2-2 9.9-4.5 40.4 0 49.2s7.5 9.3 17 10.4a38 38 0 0 0 23.2-5.6 34 34 0 0 0 15.1-18.7c2.8-9 3-36.9.8-46s-3.5-13.1-8.3-18.9c-5.1-6-7.6-10.1-17.5-11.6z" transform="translate(-208.7 -442.2)"/><path fill="#040404" fill-rule="evenodd" stroke="#575757" stroke-width=".8" d="M10.8 75.7C9 51 12.6 45 20 32.8S42.8 10.9 52.3 8.6s15.5-3.2 27 4.1a88 88 0 0 1 26.4 23.8 104 104 0 0 1 21 41.5c1.8 9.5.4 16.4.4 20.5v6.4L147.7 93s2.2-20-.5-32c-2.7-11.8-14.6-31.4-26.4-43.7C108.8 5 103.4 4 95.2 1.3S68.7 2.7 65.1 4.5s-16 12.8-21.9 22-9.6 41.9-9.6 41.9z"/><path fill="url(#b)" fill-rule="evenodd" stroke="#000" stroke-width=".3" d="M322.8 531.1c-18.2-1-27.8 28.8-30.3 41.2-2 10-4.5 40.4 0 49.2s7.7 10.7 16.4 10.6c-5.3-1.4-5.3-4-8-7.5-3-6.4-2-5-3.4-15.2-1.1-11.4 2.5-40 6.2-49.1 4.9-15 16.2-29.3 28-27.2-1.4-.4.9-.8-8.9-2z" transform="translate(-208.7 -442.2)"/><path fill="url(#c)" fill-rule="evenodd" d="M252 516.3c-9.1.2-9.9.4-13.7 2.2-4.2 2.4-7.7 2.7-14.4 14.4-6 11-7 14-7.7 25.2s-2.4 15.9-.5 24.6 4.3 14.6 4.3 14.6 4.9 6.2 7.3 8.6c2.6 2.6 2 2 8.4 4.6s-.7-3.1-.7-3.1z" transform="translate(-208.7 -442.2)"/><path fill-rule="evenodd" stroke="#000" stroke-width=".3" d="M57.6 77.4c-5-1.6-11-3.2-16.4-2.7-7.1 2.8-5.6 1-10.4 6.6s-5.2 9-8 17.2c-3 8.2-4 9.9-4.5 22s-.2 17.2.5 25.2c.8 8 2.7 13 5.8 17 3.2 3.8 5.9 7.5 10.5 8.4s6 2 9.9 1 6.5-1.2 10-5c3.3-4 4-3.2 8.2-11s4.3-8.5 5.5-15.7c1.2-7.3 2.2-11 2-27.9-.3-17 0-12.1-1.5-20.3-3-7.9-4.4-9.4-5.6-10.4a20 20 0 0 0-6-4.4z"/><path fill="url(#d)" fill-rule="evenodd" d="M148 285.9a7 25.5 0 1 1-14 0 7 25.5 0 1 1 14 0" transform="translate(-96.3 -161.4)"/><path fill="#838383" d="M44.3 78c-.6.5-9 9.2-9.4 10-.3.6-4.6 9.7-4.7 10.3l-.2-5.7 2.7-6c.5-.9 3.4-2.9 4-3.7.6-.6 4-3.9 4.7-4.3z"/><path d="M4.8 103c0 1.7.7 3.3 1 5 .3 2.3.5 5.6 1.4 7.8 1 2.2 2.5 4.3 3.4 6.7q.6 2.2.5 4.3c0 1.3.3 1.6.3 2.9l-.2 4q0 1.7.2 3.3 0 1.5 1.2 2.6a5 5 0 0 0 2.8 1.7c4.4-1.3-3.3 3.1-1.2 1q1.4-1.4 1.4-3.2 0-2.4-1-4.3l-1.7-2.7-1.6-2.3q-.9-1-1.5-2.3c-.4-.9-.8-.8-1.2-1.7q-.3-1.2-1.3-2l-1-2.6c0-.5 0-1.7-.2-2l2-1.6c.3.4.9 1.3 1 1.8.2.8 1.6 1.3 2 2.1a5 5 0 0 1 1.3 2.2c.4.9.9.8 1.2 1.7q.5 1.2 1.5 2.2l1.6 2.2 1.7 2.9a10 10 0 0 1 1 4.4q.2 2-1.1 3.5c-1.6 1.9-4 3.5-6.5 3.2q-1.6-.6-2.9-1.9-1.4-1.1-1.4-3-.3-1.5-.2-3.2l.2-4v-4c0-1.4-.3-1.7-.7-3.1-.8-2.4-2-5.5-3-7.8Q2.2 113.5 2 110c-.3-1.7-1-3.3-1-5z"/><path fill="#6c6969" fill-rule="evenodd" d="m3.1 102.4.2 1.7v-1.7zm7.1-27.2L0 91.4l1.4 1L11.6 76z"/><path fill="#6c6969" fill-rule="evenodd" d="m1.6 91.3-1.6.3 2 12 1.7-.3zm31.6-24.1L33 69l9.3 1 .2-1.6z"/><path fill="#6c6969" fill-rule="evenodd" d="m42.6 68.3-.4 1.6q.5.4 2 1l.4-1.7c-.6-.1-1-.6-2-.9"/><path fill="#6c6969" fill-rule="evenodd" d="m43.6 69 .5 1.6.5.3 1.4.7q.5 0 .9.4l1.3.5c.3 0 1.3.6 1.8.8l.3.2v.2l1.5-.8v-.1l-.2-.4-.5-.4-.3-.2-2.2-1q-.5 0-1-.3-.3-.3-1.2-.5l-1-.5q-.7-.7-1.8-.4"/><path fill="#6c6969" fill-rule="evenodd" d="m51 72.4-.6 1.5-.2-.2v1.8H52V74l-.2-.8q0-.4-.6-.8"/><path d="M104.7 126.8c-.5-.1-1.2 2.2-1.5 3.8-.4 2.4-.6 5.6-1.4 7.8-1.1 2.3-5.1 5.9-5.1 7.2l.2 4q.1 1.7-.2 3.3 0 1.5-1.2 2.6c-.8 1-1.7.1-2.8.5-4.4-1.3 3.4 4.3 1.2 2.2-1-.9-1-3.4-1.2-4.7 0-1.5.2-1.4.8-2.8l1.7-2.7 1.6-2.3c.7-.6 5.8-3.6 6-4l-2-1.5-1 1.9c-.2.8-3.7 1-6.6 2-.7.6-2.9 3.5-3.5 4.5a9 9 0 0 0-1 4.4c0 1.3.1 2.6 1.1 3.5 1.6 1.9 4.4 2.6 6.8 2.3 1.2-.4 1.8 0 2.6-1q1.4-1.1 1.4-3 .3-1.4.2-3.2l-.2-4c0-1.3 3.5-5.9 4.6-8.1a24 24 0 0 0 1.7-6.9c.3-1.6 1.2-4.6 1.1-5z"/><path fill-rule="evenodd" d="M147.5 101.7c-1.2 8.2-.4 6.3-2.1 11.6L148 125a144 144 0 0 0 5.2-22.3z"/><path fill="none" stroke="#000" stroke-width="1pt" d="M148 91.5c.8 0 2 .7 2.9 1.1 1 .4 1.3.6 2.4.9"/><path fill="none" stroke="#000" stroke-width="1pt" d="M153.1 93.3c1.5.6-1.8 2.8-1.8 4.4v3.4l.2 1m-24.1 1.8c0 1.5-6.3 4.4-13 9.4a47 47 0 0 0-8.2 14.3"/><path fill="#838383" d="M49 157.4a47 47 0 0 0 5.9-10c0-.4 2-.2 2 .2a49 49 0 0 1-2.7 6c-.4.9-1.7 2-2.4 2.7l-1.5 1.2z"/><path fill="#e8e8e8" d="M104.3 99.4c-.5.6-3.4 4-3.8 5-.3.5-2.1 3.6-2.2 4.2 0 .4-5.3-1.3-5.4-1.6.3-1.4 2.6-5.7 3-6.2.4-1 2.2-2.8 3-3.5.5-.6 1.7.5 2.8.8z"/><path fill="url(#e)" d="M316.5 451.2c2.2 2.5 11.2 9.1 14 11.5 2.9 2.7 13.5 16.9 15 20.9 0 .3 8.6 11.3 5.3 9.5l-16 11.8c-1.1-1.7-5.2-13.5-8-16.6a101 101 0 0 0-10.6-15.2 101 101 0 0 1-14-13.7z" transform="translate(-208.7 -442.2)"/><path fill="none" stroke="#ccc9c9" stroke-width="1.8" d="M127.8 104c15.9-8.9 7.7-24.3 12.5-27.4 4.9-3.1 1.5 7.1 1.8 14.3.4 7.1 3.8 2.7 5.7 1.7"/></svg>