<svg xmlns="http://www.w3.org/2000/svg" xml:space="preserve" version="1.0" viewBox="0 0 1103 591.4"><path d="M365 401.4c-.1-1.6-1.2-2.6-1.5-4.2-.6-4.4 2.8-4 5.5-6 2.4-1.8 3-5.7 5-8.2 2.5-3 5.3-5.6 7.4-8.9 1.3-2 .8-3.4 1.6-5.4.5-1.5 2-2.4 3.3-3.5 3.2-2.4 3.5-6 5-9.9 1.6-3.8 3.9-8 4.6-12q.7-5 1.9-9.9c.7-2.8 2.6-7 2-10-.5-1.7-3-2-2.3-4.2 1.6-1 4-1 5.2-2.3 1.5-1.4 1.3-3.7 2.2-5.5a38 38 0 0 1 10.6-11.2q.5 0 .8-.3l1-1.5c2.7 1.2 5.4-5.4 7-7 1.7-1.5 2-1.8 2.2-4.5q.2-3.2.2-6.5c-.4-8.3-4.1-16.7-2.7-25.2q.8-3.6 1.2-7.3c.1-2.4-.7-4.3-1-6.6-.6-4.9 3.3-8.7 3-13.6 0-2 .4-4.1.3-6-.2-2.1-1.2-4.1-2-6-.8-1.8-2.3-3.7-1-5.5.4-.7 1.3-.7 1.8-1.3 1-1 .5-2 .9-2.7 1.2-1.9 5.3-2.1 7.3-3q3.3-1.4 6.5-3-.1 1.1-1.7 1c1.7 6.6 9 7.7 15.2 7.7 3.1 0 6.5 1 9.2 1.3 3.6.2 6.6-2.5 10-3 1.7 2 6.7-.8 9-.8 3.5 0 5.9-.7 9-1.4q4.6-1 9.3-1.3c3-.3 5.8-1.8 9-1.8q1.3-2.5 2.8-2.5v-.7h-1.6l2-3c7.4-2.7 23.3 3.3 29.1 7.9 5.8 4.5 14.9 14 7.3 22-3.3 1-8.6-1.6-10.4 2-1.2 2.5.6 8.7 1.9 10.7 1.3 2.2 5.4 4.5 7.1 6.7 2.2 2.8 3 6.4 4.6 9.6 1.4 2.4 2.8 5.8 5.4 7q.8.4 1.9.5c2.8-2 6.4-2.5 9.9-3.5 3-.8 3.3-.4 6.7.5q3 .8 6.3.8c2 .1 4.2.5 6.2.3 2.2-.2 3.3-1.2 5.2-2 4.3-2 7.5.1 11.6 1.5s9.2.5 13.7.5c10.8 0 22 .3 32.7-.3 5.7-.3 11 .8 16.6.3 6.6-.6 13-1.5 19.7-1.8 1.3-3.7.5-8.8.8-12.7.2-3.7 2.1-7.8 3.9-11a48 48 0 0 1 13.3-16.5 28 28 0 0 1 22.8-4c4.2 1 7 3 10.5 5.5 2.9 2.2 6.7 4 8 7.5l2.7 3.2c.6-1 .3-2.2.3-3.3 4.7.5 8.6 3.1 13 5q2.4 1 4.4 1.2c.5-5.8 2-11.3 2.3-17 .6-7.9 2.9-14.3 4-22.1.9-6.4-3-16.6 4.1-19.4 3.8-1.5 7.6-.4 11-2 1.1-.6 2.3-2 3.8-2.7 1.8-.9 3.2-1.1 5.1-1.5l5.9-1.6c-9.2.1-18.5.6-27.8.1q0-2.5-.3-4c-2.6-4.4.9-13 3.4-17.3 3.5-6 9.8-10.3 14.7-15.2 4.7-4.8 11.5-7.7 16.1-12.4 3.4-3.4 2.5-4.3 8-4.5 4.2-.2 8.5.2 12.5-.4 7.5-1.1 14.8-2.7 22.5-3.1 8.5-.4 16 0 24-2 2.9-.7 5.5-1.8 8.5-1l-1-2c5.2 1 10.8 6.5 14 11 3 4.7 7.6 9.8 8.4 15.5 1.8 12.7 1.5 25.2 2.2 38.4 3 0 8 2.4 6.8 5.5-.3.8-3.7 1.3-4.3 2.2-1.2 1.9 0 3.6 0 5.3 0 8.5.5 16.2 1 24.6 0 2.7 2 9.5 1.3 11.6l-.3.7q1.1 4.2 2 9.2c1.6 8 .7 16.3-5.5 21.3q.6 2.7.4 5.7l.3 7.9q2.8-2 6.1-3.4c1.4 3 1.1 6.9 3.6 9 3 2.6 8.2 1 11.6 1.9a60 60 0 0 1 21 9c5.3 3.9 11.3 7.4 14.5 13 4.7 8.3 4.9 12 2 21-4.6 15-11 28-16.4 42.6-2.7 7-.4 14.1-1.2 22-.3 3.5-2.1 7.3-2 10.5.2 5 4.6 7 6 11 .8 2 .6 5 .4 7.7a9 9 0 0 1 1.4 4c.2 3.8-2.6 8.2-3.6 11.7-1 4-3.7 6.8-5.5 10.5-3.7 7.8-11.3 7.8-19.4 8.6-8.7.9-17.8.5-26.5 1.7-9.2 1.3-18.2.3-27.5.8q-13.2.6-26.5 1.7c-4.4.5-8.5 2-12.8 1.6-5.4-.5-9.5.7-14.5 1.2q-7.2.5-14.5.5-6.8.2-13.8.2-.7 1-2.2 1.3c-9.6 1.6-19.6.8-29.2 2.2a629 629 0 0 1-34.3 4.5q-7 .8-14 .8c-5 0-9.5 1-14.5 1-4.7 0-8.2-.4-12.7.5q-6.3 1.4-12.7 2c-4.8.4-9.5 1.5-14.3 1.7-4.8.3-9.3 0-14 .5q-4.8.3-9.4.2c-.2 3.7-.7 7.3-.9 8.6-.6 6 3.3 15.5-6.5 14.1-2.5-.4-5.7-2.3-7.1-4.5-2.4-3.6-.3-4.9.5-8.2.4-1.7.2-4.9.1-8.1l-2.5.4c-2.2.4-6.3 1.4-8.6.4-6.4 1-12.2 1.8-18.4 3.4-14.6 3.7-28.6 7.7-43.4 1.4-5.8-2.5-14.9-4-21.7-2.6-8.2 1.7-16.7 1.7-25.3 2-15 .7-31.3 3.3-46.7 1.5q-1.1.2-3.1-.3c-4.2-.8-7.7 1.3-11.8.7-2.1-.3-4.2-1.4-6.3-1.7-2.2-.3-4.2-.2-6.4-.7-4.1-1-8.4-1-12.5-1.9-4.2-.8-7.6-2.6-11.3-4.7l-11-6c-4.3-2.5-7.5-5.4-11.2-8.5-3-2.5-7.3-5.7-8.8-9.5s-1.9-8-2.7-12q-1-5.3-2.3-10.5c-.5-2-2.6-10.4-4.2-10.5l-1-2.7h.6c.3-1.3 1-2.8.9-4.3" style="fill:#406325" transform="translate(-100.5 -30.4)"/><path d="M274.2 98c1.6 1.9 4.5 1 6.5.8 7-.8 13.8-.7 22.5-1.5 11.1-1 21.9-.1 31.2-.7a808 808 0 0 1 63.4-1.7c15.8.2 30.3-.5 45.6-.7 11.5-.2 25-.5 38.2-.2 24.5.4 48 1 72.2 1 16-.1 31.8-1 48-1 24.1 0 48.7-.6 73 0 5.3 0 10.2.7 15.3 0 1.4-.2 2.8-1 4.3-1.2 3.7-.7 7.2.1 10.8 0 2.6-.1 5.2-1.2 8-1.5 5.7-.5 12.2-1.1 17.7-.5q1.8.3 3.4 1.2c7-3.1 15.6-4.7 22.5-7.9-10-.2-20 .6-31.2.7-12 .2-24.8-.5-37.6 0-5.8.3-11.7-.8-17.6-.4q-5 .4-10 .4c-3 .1-6-.2-8.7.3l-2.6.7c-3.5.5-7.5-.3-11.3-.2l-32.6 1c-3.6 0-7.1-.5-10.8-.3q-5 .2-9.9 0c-11-.1-22 1-31.7 1L519 87c-7.4-.1-14.7.8-22 1.2-8.8.5-17.3.2-26.2.2-15.8.1-31.4 0-47 .8q-24.3.9-48.3.4c-8 1.5-17.2.9-26.2 1.2l-25.4 1.5c-16.7.8-35.6-.2-49.7 5.7" style="fill:#443f35" transform="translate(-100.5 -30.4)"/><path d="M380.3 435.7c-.3 2.3.7 3.3 1.2 4.8 1.8-.9 2.6 2.5 4.5 1.5-.3-2.2-1.2-3.7-1.6-5.8-1.5.7-2-1-4.1-.5" style="fill:#f4bb3a" transform="translate(-100.5 -30.4)"/><path d="M397 332.8c-3.7 10-6 22.3-9 31 4-1.8 11.2 0 13.4-3.4 1.5-2.3 1.7-7.6 2.2-12 .7-8 1-16.4 2.1-24-2.2 1.2-3-2.1-4.8-1.5-1.3.5-3.2 8.1-3.8 9.9" style="fill:#aac2c5" transform="translate(-100.5 -30.4)"/><path d="M430 473.2c0 1.2.5 1.9.4 3 1.7-1.8 5.9.3 7.2-1.1-2-1.1-5-1.3-7.6-2" style="fill:#443f35" transform="translate(-100.5 -30.4)"/><path d="M436.7 478.2c-1.3-.7-4-1.1-5.3-.5 1 1.8 3.5 1 5.3.5" style="fill:#f4bb3a" transform="translate(-100.5 -30.4)"/><path d="M458 401.9q-.3 1 .3 2.1c.7-.2.7-.2 1.4 0 .6.6-.3.5-.2 1.2 1.5.5 3.4.3 3.1-1.6-1.1-1-2.5-2.5-4.6-1.7" style="fill:#406325" transform="translate(-100.5 -30.4)"/><path d="M499.8 500.3c-3 6.3-5.7 17.8-4.3 26.6.7 4.4 2.7 10.2 5.3 12 3.8 2.7 12.3 3 17.7 1.2 2.3-3.1-2-5.8-2.9-9.1-.4-1.6 0-3.7-.2-6-.4-4.5-2.9-8-2-13q-2.3.4-4 1.5c-.4 3.1-1.4 7.2 0 10 1.5-.7 3.3 1.5 5.3 1.7.1 2.2-3.1 1-3.4 0-.9.2-1.1.2-1.9-.2-3-2.3-2-8.3-1.4-12.5q2.1-1.9 5.7-2.1.6-4.8 2.4-8.2c-3.8-2.9-8.2-8-13.2-5.5-.7.4-2.4 2.2-3.1 3.6" style="fill:#443f35" transform="translate(-100.5 -30.4)"/><path d="M534.1 494.3q0-.4.3 0h.4a10 10 0 0 1 5 3.6c6.8 8.4 9.6 28.6 3.4 37.9a26 26 0 0 1-6.7 6.2c-7 3.8-13-2.8-15.8-6.7-1.8-2.4-2.5-5.2-4.1-7.9.6-3-.9-5.8-1.2-8.9-1.3-12.7 5.1-23 16-24.2 1.2-.7 2 1.4 2.7 0m-11 24c-.2-2.6 0-6.4.7-8.9 1.5-4.8 6.8-6.3 10.3-9.1v-.7l-.5-.3c-4 .4-10.9 5.1-11.7 9.1-1.2 6-.3 15 3.3 19.5-.5-3.2-1.9-6.4-2.1-9.6m10.8 11c-2-.8-3-2.8-4.1-4.5-1.2 2.4 5.8 9.8 6 3.6-1-.2-1 .8-2 1m2.9-19q.1-.2.4-.2c.2-1.4-2-2.5-2.4-4.3-2.4-1.9-4.4 1.1-4.5 3.8 1.3.4 1.7-2.2 3.1-2.6 1.4.9 2 2.6 3.4 3.4m-3.6 10.4c1.6-1.3.8-5.4-1.5-6-.2 1.8.8 2.4.7 4-.5.9-1-.3-1.6-.2q.2 2 2.4 2.2m3-9.4q-.3.1-.4.5c1.4 3.4 2.6 6.6 1.2 10.3-.9 2.3-3.1 3.4-4 5.3 6.2-1 8.2-12 3.3-16" style="fill:#443f35" transform="translate(-100.5 -30.4)"/><path d="M522.6 322c-1.5 1.2-.4 3.7-.2 5.2 1 11.6.3 25.5 3.6 35.3.8.6 2 0 3.3 0 2.4.2 6.1 1.6 8.4-.5.9-1.7-.2-3.2-.5-5-.7-4.4 0-9.8-1-13.7-1.4-6.2-6.3-11.3-9-15.8-1.5-2.4-1.4-4.7-4.4-5.5zm14.9-1c-1.7-.8-4.6.2-6.5.2 2.6 5.6 7.2 9.2 9.6 15.2 1.9 4.5 1.8 11 2.2 17 .2 3.4-1 7.7 1.4 9.4q3-.3 4.8-1.7c1.5-4.2.4-8 0-11.8-.7-6.1 0-10.9-2.9-16.3-.8-1.5-2.5-3.3-3.8-5.3-1.5-2.2-2.6-5.6-4.8-6.7" style="fill:#aac2c5" transform="translate(-100.5 -30.4)"/><path d="M565.3 259.6c4 .3 8.4-1.1 12.7-.3.3-1-1.5-1.8-2.6-2.4a12 12 0 0 0-8-1.7c-1.2 1-1.1 3.2-2 4.4" style="fill:#406325" transform="translate(-100.5 -30.4)"/><path d="M708.6 322.4c0 7.2 0 15.4 3.8 21.4 1.7.4 3.4-.6 5.6 0 1.4-6.2-.9-14.4-2-20.4l-5.5-.2c-.3-.8-1-1.4-.5-2.4q-.8.6-1.4 1.6" style="fill:#29421c" transform="translate(-100.5 -30.4)"/><path d="M750.4 329.9A40 40 0 0 0 752 354c1.5 3 4.7 7.6 8 4.8a45 45 0 0 0 1.4-19.4c-.9-6-2.4-12.5-7.4-13a5 5 0 0 1-3.6 3.4" style="fill:#aac2c5" transform="translate(-100.5 -30.4)"/><path d="M762.4 455.6c-1.2 6.5 1.4 14.8-3 18.8-1.3-.2-2.1-1.5-2.8-2.4-.5-.8-1.5-1.2-2-1.7-.9-1.4-1.2-3.9-2.3-5.5-.6-1-1.6-1.3-2-2-.7-1.6 0-3.6.3-5.2 3.9-1.2 7.6-1 11.8-2m-2 13.2c-1.9 0-2.4 2-2.4 3.2 2 .1 2.3-1.5 2.4-3.2m3.6-13.2c.5 2.5-.4 5.5-.2 8.4 5.2.2 5.4-9 .2-8.4m51.2-348.4c-1.2.5-3.6 2.5-3.2 4.3.6 2.1 3 1.4 5.8 1.7 2 .1 4.3.9 7.7.7 6-.4 13.8-2.4 21.8-3.1 10.4-1 19.7-.8 28.6-3.2.8-.2 2-1 3.1-1.4 1.7-.5 5-.5 5.5-2 .7-1.8-4.6-4-6.7-4.5l-.5-.2c-6.3 0-11 3.1-17.5 4-3.6.6-8.3.4-12.5 1-3 .4-5.6 1.3-7.9 1.5-4.8.3-8-.4-11.8-.3-4 .2-9.7.3-12.4 1.5" style="fill:#443f35" transform="translate(-100.5 -30.4)"/><path d="M873.7 326a26 26 0 0 0-1.7 12.8c1 6 5.4 9 11 11.7 0-.7-.5-.8-.6-1.4 10 1 14.1-7.4 13.2-16.8-.3-2.4-1.8-6.5-3.4-8.2-2.5-2.6-7.5-3-10.6-4-1.7-.7-6.9 3.8-7.9 6" style="fill:#aac2c5" transform="translate(-100.5 -30.4)"/><path d="M911.9 258.1c-1.2 5.3-4.5 9.1-6.3 13.2 4.3-3 11-7.4 12.8-12.5 3.6-.6 5.6-2.8 8.4-4.3.2 2.1-2.8 2.2-2.4 3.6 7.2 2.8 14.9 1.9 19.6-2.1 3.7-3.2 6.7-9.8 6-15.6a26 26 0 0 0-7-14.2c-2-2-6.8-5.2-9.8-5.3-3.6 0-6.1 2.8-10 3.6 5.3 2.6 10.5 6.2 12 13 .6 3 .2 7.1-1 10-1.4-1.2-.2-4.3-.5-6.9-1.3-13.7-14.5-16-26.1-19.2a70 70 0 0 1 4.3 36.7" style="fill:#406325" transform="translate(-100.5 -30.4)"/><path d="M942.8 443.9c2.2 0 4.1-1.3 6.5-1.5 2.8-.2 6.2.5 8 2.2 2.3 2.3 4.4 8.6 4.7 14a49 49 0 0 1-2.8 19.4c-2.3 5.4-9.7 9.2-15.4 4.5-5.6-4.5-9.2-20-7.4-29.3.7-4 3.6-7 6.4-9.3m2.7 13.4c.3-1.7 2-2.4 1.9-4-3-1.3-4.2 5.4-2.4 7.9 1.4-.9.3-2.5.5-3.9m13.2 5.8c-.2-5.8-1.6-11.4-6-13.2h-1c.8 2.7 4 4.6 4.6 8.6v2.9c.1 1.7.8 2.8.5 4.3-.5 1.9-1.2 4.9-1.7 6-.7 1.5-3 3.9-5 3.6-2.6-.3-2.5-3.8-4.9-4.8.2 2.5 1.7 5.7 3.6 7.2 7.7.5 10.2-7.5 9.9-14.6m-6.5 2.9c1.3-2.5-1.6-7.6-1.7-2 0 1-1.2 0-1.2.5 0 1.8 1.6 2.1 2.9 1.5m-2.6-9.6c.1 1.4 2.5.5 2.1-.8-.6-.4-1.5.5-2.1.8" style="fill:#443f35" transform="translate(-100.5 -30.4)"/><path d="M494.7 301.4c-2.3-4.2 1.8-5.2 5.3-7l5.2-2.3c1.4-.8 2.1-2.2 3.8-2.7 8-2.2 16.3 5.4 21.7 10 2.4 2 7.3 6.6 5.5 10.2a31 31 0 0 1-11 1.8c-4 0-8 .6-11.8 1-3 .3-9.6 1-12-1s-3.9-6-5.7-8.4h-1.2zm11.3 17c1.6-.7 4.3.2 6 1-.2 3.3.7 6.4.5 9.8-.2 3.2 0 7 .2 10.2.3 6.7 1.3 13 1 20-4.2.7-6-2-6.2-5.5-.4-3.5-1.1-6.7-1.3-10.2s.2-7 0-10.5l-.2-6c0-1.3.8-3.6.2-4.5zm-31.8-17.2c1.7-2.4 8.3-1.6 11-1.3q6.3.6 9.5 6.4c.5 1 2.7 4.1 2.5 5.1-.2 2.2-4.1 1.2-6 1.3-2.2 0-4.2.9-6.5.7-2.3-.1-4.3-1-6.5-1.2-2.4-.3-4 0-5-2.5-.9-2.1 0-4.9 0-7 .4 0 .2.2.3.5zm12.5-4.8c-.7-1-3-1.2-2-3 .8-1.2 3.4-.5 4.5-.7 3-.5 5.7-3.4 8.7-3.5.4 1.9-2.4 3.6-3.9 4.3s-4.2 2.7-5.8 2.4zm-70.2 3c2.5-.7 5 .5 6.5 2.8-.2.3-.3 0-.5.3-.4 1.4-3.3 3.1-4.5 4.2-1.4 1.3-3.3 2.8-4.5 4.3-1.3 1.7-1.7 4.4-3.7 5.5-1.8 1-5.2.8-7.3.6-.5-3.2 3-7 4.7-9.7 1.9-3.3 4.7-5.1 7.5-6.7zM474 320c2.3-1.7 8.3-1.7 11.2-2 2-.3 10.8-.4 12.2 1.2.8 1 1 4.7 1 6l.3 6.2 1 12c.2 3.7.1 8.6-.5 12.3-.4 2.6-1.3 2.4-4 2.5h-6.5c-3.9 0-8.2-.2-12.2.4-2.6.4-10.2 1.5-11.8-.6-1.7-2 .5-7 1-9.3q1.1-4.5 2.5-8.8c1-2.8 2.3-5.5 2.8-8.5.3-2 .1-6.9 2-8zm-61.5 4c1.9-1 4-.9 6.2-1l6-1.3c4-.6 8.6-.1 12.8-.5s8.6.1 12.7-.5q6.1-1 12.5-.7c2.3 0 3.7 0 4 2.4.3 1.9-.6 4-1 5.7q-1.6 5.3-3.5 10.8c-1.3 3.8-3.3 6.9-4 11-.6 4-.5 7.6-5.5 7.8-8.5.3-17 .3-25.5 1.2-4 .5-8.3.4-12.5.8-5 .5-7.7 1-7.2-5q.7-6.8 1.8-13.8l1-7.2c.4-2.2 1.3-4.6 1.6-6.8l.3 1.3zm88.7 46c2.7-2.8 5.2-3.6 9.8-3.1 2 .2 4.2.3 5 2.3.7 1.6.5 4.3.7 6 1.2 8 .8 16.5 0 24.4a77 77 0 0 1-5.5 22.8c-3 6.8-14 7.2-20.7 7.5q-3.4 0-6.8.3c-1.6.2-4.6 1.2-6.2.4-3.2-1.5-3.6-7.3-4-10.2a29 29 0 0 1 0-12.7c.6-1.7 2-3.3 2.9-4.8 1.2-1.8 2.4-4 3.6-5.7 1.9-2.4 4.5-4.3 6.3-7q2-2.9 4.2-5.4 2.6-3.1 4.8-6.6c1.4-2.2 2.2-4.8 4.4-6.5q-.2.9-1 1.5zm27.5 3-.7-.6c4.3-1.1 8.4.7 12.5 1 2 .2 4-1.3 6-.7 2.4.6 1.6 2.7 1.7 5q.4 6.3 1.3 12.5c.4 4.6-.9 8.3-1.3 12.7-.7 7.8 2.2 18.6-8.5 18.5-2.7 0-3.8.6-6 1.7q-3 1.4-6.2.6c-1.7-.3-4-.3-5.3-1.3-2.3-1.5-.6-2.4.3-4.7 3-7.7 1.5-15.4 1.5-23.5 0-3.7.8-7.2 1-10.8 0-2.1 1.5-9-.5-10z" style="fill:#aac2c5" transform="translate(-100.5 -30.4)"/><path d="M593 389.2c-2.3-2.6-1-10.3-1-13.8 0-5.1-1-10-1.5-15-.6-4.4-.5-8.8-1-13.2-.5-4.6-2-9.1-2.5-13.8a86 86 0 0 0-2.3-12.5c-.9-3.4-2.7-7.5-1.4-11.2l24.7-.3c4.2 0 9-.3 13.2.5 6.1 1.2.6 5.5-.2 8.8-1 3.4 0 8.5.5 12 .7 4.1.6 8.5 1.2 12.7 1.3 8.5 1.3 17.6 1.8 26.3.2 4.1 1.2 7.7 2 11.5q.3 1.5.2 3c0 1.9.2 1.2-1 2.2a11 11 0 0 1-5.2 2c-2.4.4-5-.2-7.5.3l-5.8 1.3c-4 .5-9.4-1.1-13 .4" style="fill:#021c00" transform="translate(-100.5 -30.4)"/><path d="M683.2 331c1.3-3.1 6-5.4 9-3.4 2.8 1.9 4.9 6.4 5.8 9.1 1.9 6.1 3 18.8-.5 24.5-1.8 3-3.5 4.9-7 3.2s-5.4-5-6.5-8.5q-1.6-5.4-2-11c-.2-1.7-.4-9.5 1-10m131-12.2c1.3-1.5 3.7-.5 5.2 0 2.4.9 2.7 1.9 3.8 4.2q2.6 5.2 3.7 10.8c.6 3.8 1.2 8 0 11.7-1 3.1-1.7 7.3-5.2 8-7.1 1.5-10.3-7.5-10.8-13-.5-6.4-.7-13.7 2-19.4v1.7z" style="fill:#aac2c5" transform="translate(-100.5 -30.4)"/><path d="M790.5 176c-1 1.4-.4 9.8-.5 12.4-.2 4.4.5 8.3.7 12.5.2 4.5.6 9.1 0 13.5-.5 3.9.6 8.3-3.2 10-3.5 1.4-7.6 2.3-10.8-.2-3.7-2.8-2.3-7.7-1.7-11.8q2.3-13.6 4-27.5c.3-3 1-6.6 1-9.2z" style="fill:#29421c" transform="translate(-100.5 -30.4)"/><path d="M740 458.7c1.4-1.7 3.4 4.2 3.5 5.5q.4 4.3.2 8.7c-.1 2.7-.2 6-1.2 8.3-1 2.8-2.4 4.6-2.7 7.4 4.3.4 7.1 0 11.1 2.1 3.6 2 5.7 6 6.6 10 1.9 9 3.2 16.5 1 25.7-1.2 5-4.3 12-10.5 12a12 12 0 0 1-8.1-3.7c-2-1.8-5-3-5.7-5.7a6 6 0 0 0-2 1c-1 4.2-2.3 6.7-7 7.9-3.7.9-7.8-1.3-10.7-3.5-7.8-5.8-8-15.2-7.5-24.2s6.9-21 17.2-20c-1.3-2.9-4.5-5.2-6-8.3a27 27 0 0 1-1-12.5c.2-2 .8-3.8.8-6 0-2.5-.6-4 1.7-4.7 3.5-1 8.4-.6 12.3-.8q3-.2 6.2-.2c-.1.2-.4.9-.7 1.2l.7.5zm-194.3 12.7 4 .3c.8 3 1.8 7.3-.3 9.7-2.3 2.6-6.3 1.4-7.7 5-1 2.8 0 7-2.2 9.6s-6.5 1.3-6.2-2.6c-2.6-.2-2.7 2.2-4.9 3-2.1.7-4 .3-6 1.3-7.7 3.4-4.3-6.2-9-5V488c-2.6-1.1-8.7.3-10.6-2.5-.7-1-.3-5-.5-6.3q-.6-3.3-.5-6.6c2.7.8 6-.2 9-.3 3.8-.2 7.4.3 11.2.3 3.5 0 16.5-2.9 18-1.3z" style="fill:#443f35" transform="translate(-100.5 -30.4)"/><path d="M475 475.7c1-1 1 7.7 1 9.3 0 4.4.6 8.7-5 8.3s.3-3.4.7-6.6c.5-3.5-1.1-7.8-.6-11.4z" style="fill:#021c00" transform="translate(-100.5 -30.4)"/><path d="M622.7 467c1.3 0 5.6-1 8-1.3 3.8-.5 4.7-1 5 3 .2 4.3 2.3 10.6.7 15.3-2 5.7-9.6 4.7-12.6.7-3.2-4.3-.7-11-1-14.7zm-570-290.6 11.3-5 11-3.2 43.7 1.2 113 3 61.8 1.5 53 .5H383l5.2 1.5 9.3.3.7-2.3 1.3-2.7-1.5-2.5-.5-3.3 14-.5 1.5 4.3s4.7 3 5.5 3.2l4 3 3.2-1.7 6.7 2.3 7.3-3.3 6-1 3.4 2 5.6-3.3 4-2 5.7.6 9.3-2.7 6 .4 1.7-7.3 4 3.6 5.3-2 1.7-5 4.7-2.3 8.6 1v5h3.4l29-7 19.3-4.7 21-5.3L605 135l38-12.7 37.3-11L708 101l23.6-6 12.7-5.3 4.7-1.4c.4-2.2 2.6-2.5 5-2.6 2.8-.2 4.8-.4 7.5-1.8a68 68 0 0 1 14.4-4.9c10.4-2.5 20.4-6.1 31.4-7.7q4.4-.7 8.6-2.4c2.4-.8 5-1 7.5-1.6L821 67h5.6c2.7 1 5.4.4 7.7 2.3-2 1.7-5.5 1.1-8 1.8l-9.3 2.6c-3.5 1-6 2.2-9.7 2.7-2.7.4-7.5.6-9.3 2.5 3 .3 6.5-.3 9.3.5 3 .8 3.2 4.2 6.3 4.3q-.4 2.5 1.7 3.8c3.4-5.5 6.1-4.4 12.3-5.5 2.7-.4 4.7-1.5 7.7-1.3s5 0 8-.7c1.7-.4 5.6-.4 7-1.3 2.4-1.5.3-4.2 3-5.7 1.2-.7 6.5-1 8-.7 2.9.7 2.5 3.6 4.6 4.7 3.8 1.8 10.6-3.3 12.3-5.7 1.6-2.4 2.4-4.5 5.4-4.5 2.6-.1 4 1.6 5.7 2.9.7.6 2.2 1.2 2.7 2l.2.5 2.7 1.1 14.4-6 25-6.6 28.3-4.7 35.3-7 28.4-7.3 27.7-5.4 21.6-3.3 9.4-1.7 7.6.7 5.4 5-3.4 2-8.3 1-20.3 4.7-27 6.3-23 6.3-29.4 8.7-18.7 4.3-9.6 1-10.3 2.4-14.7 7L919 85l-19.7-1.3-5 .3-2.6.2c.3 2.4.9 5-1.1 6.7-2.1 2-4.2.8-6.4-.1-4.2-1.9-8.8-4.7-14-2.9-1.3.5-5 2-5.7 3.4-2 4.3 2.8 2.2 4.5 1.5 2-1 4.4-2.3 5.9-.1 2 2.8-.6 4.7-2.6 5.7-4.7 2.1-9.6 3-14.7 4.3q-8 1.7-16.3 2.4c-2.8.2-5.7-.4-8.7-.4-3.2 0-5.3 0-4.6-4 .4-2 3-4.2 2.7-6.6-.4-3.1-3-1.5-5.4-1.4-2.7.1-5.5-1-8.3-.7l-3 1c-1.3.3-3.3-.3-4.4 0-2.6.7-2.5 2.7-4 4.6-1.7 2-2.9 2.6-5.7 3-2 .4-6.7.6-8.3-.6-2.5-2-1-5.2-3.9-6.6-2-1-5.6-1.2-7.8-1.6a123 123 0 0 0-11.5-1.7l-17.1 4.6L720 102l-23.6 9-22.4 4.3-15 7-21.3 8L613 138l-18.6 4.7-30 9.3-23.4 6-20 7.7-6.3 4 36.7-2.4 17.3-1.6H609l37.4-2.4 36.3-.3 27-.7 30.3 1.4 28.4 3 35 1s-12.7 3.6-13 6.6-8.3 1-8.3 1-30.7-1-31.7-1.3-33.3-1-33.3-1l-33.4-.3-36.3-1-31.7.6-33 1.4-34 4.3-26 .3-14.3 2-7.7 1.4-2 4 5.3 6 8 4.6-1.6 6.7-12.4 1-21.6 4.7L457 210l-13-2.3-5-5 3-3 3.4 1.3.6-3s-2.6-2-2-4 8-4.7 8-4.7l1.4-1.3-14-3.7-5.7 1-5.9-1h-.2l-11.9 1s-.2 5.1-2 6.1-7 2-9.5 2-6.7-1-8.2-2.7-1.8-4.3-1.8-4.3l-48.2 14-55.5 17.5-65.8 22.3-91 32-36 12.7-2.5-3.2s-17.2-5.5-20.5-6.8-7.2-5-7.7-7 1.2-4 1.2-4l17.8-6.5 20.7-8.5 54.8-16.7 58.5-16.8 57-17.7-14.3-2.8-25.7-1-22-1h-43.5l-40-3.7-47.5-2-31.5-2.8s-4.3-.2-4.5-2.7 4.7-5.3 4.7-5.3" style="fill:#443f35" transform="translate(-100.5 -30.4)"/><path d="M913.6 249.2a55 55 0 0 0-13.9-39.1c-7.7-8.2-22.3-17-31.5-5.7-2.4 2.9-.2 6.6 2.7 7.6l-3.8 19.7a12 12 0 0 0-4.4 2.1h-2.4q-4.3.7-7.2 3.4c-12.6 3.8-24.1 10.9-36.3 15.6-5.6 2.2 1.5 9.3 5.9 7.8 11.2-4 21.6-9.4 32.7-13.5q3.6 2.4 8 3.4l-5 25.5h-1c-4.5-.1-4.7 6.4-.5 7.2 12.6 2.3 26.9 5.7 39 0 13-6.1 17.6-20.7 17.7-34m-157.3-9.7a55 55 0 0 0-13.1-17.2 38 38 0 0 0-16.3-10c-3.7-1-8.6 0-12.2 1-1.8.4-3.9.8-5.5 1.7q-1 .6-1.5 1.7c-1.7 1.5-.4 4.2 1.7 4.6q2.1.8 4.4.4l.5.3a46 46 0 0 0-9.2 19.6q-4.2.6-8.3-1.5c-3.9-2-9.6.7-6.2 5.3a22 22 0 0 0 8.7 7.3c5.2 6.1 13.5 6.3 20.2 1.4 1.2-.9 1.4-2.8.8-4q-2-4-4.9-6.4a33 33 0 0 1 7.7-15.2l24.3 17.7-.3.4c-1.9 2.5.8 6.3 3.7 6.2 7.5-.3 7.7-8 5.5-13.3M932 262.2c11.9-.3 19.7-8.7 19-20.6-.5-8.6-5.4-20.2-15.4-20.5h-.6q-2.7-1-5.7-1.2c-4.6-.2-4.7 4.8-1.5 7 5.2 3.2 10.2 5 8.6 12.2a36 36 0 0 1-8.5 15.1c-2.7 3 0 8 4.1 8m-105.6-97.4c4.2-7.1 2-19.3-1.6-26.3-3.2-6.3-13-14.2-20.1-9-2.7 1.9-2.2 5.7 1 6.7q1.5.4 3 .4l9.7 18q-.2 4 0 8c.3 4 5.8 6 8 2.2m1.1 59.7c6.4-6.7 4.8-20 4.2-28.5q-.7-10.8-1-21.6c.5-5-8-6.4-8.5-.5a147 147 0 0 0-.2 20.2q.5 7 .2 14c-.2 4.5-2 9-1.6 13.5.2 3.2 4.4 5.6 7 3m-353.2-.6c8.8-1.4 17.4-3.8 26-6l29.1-.2a9 9 0 0 0 4 3c2.6.4 5.3.2 8 .5 1.7.2 3.3 0 3.8-1.9 2.3-8.5-7-13-14-13.8a90 90 0 0 0-28.5 3.2c-8.5 2-17 4.6-25.5 6.4-9.9 2.2-19.4 3.7-29.5 2.2-7.8-1.3-15.5-2.8-23.3-1.2-3.7.7 1.5 5.5 3.7 5.3 8.5-.6 16.4 1.9 24.7 3a74 74 0 0 0 21.5-.5M447 370.4q23.4-1.6 47-.7c5.5.2 4.8-7.7-.3-8a330 330 0 0 0-48.8 0q-11.7.8-23.3 2.2c-7.8 1-16.6 1.2-24 3.9-4.4 1.6-3.4 7.7 1.4 7.9 7.7.2 15.8-1.9 23.5-2.8q12.2-1.6 24.5-2.5m-64.7 30.8c6 .6 12.1-.6 18-1l17.2-1q18.3-.9 36.7-1.3c4.4-.1 1.6-6.3-1.8-6.4a659 659 0 0 0-57.1 1.2c-5.3.3-10.8.2-15.9 1.7-4.4 1.2.2 6.6 2.9 6.8m9.6 40.6c5.2.5 10.8-1.2 16-1.6q7.8-.6 15.5-.6 15.3.1 30.5 3c5 .9 7-6.6 1.9-7.8a172 172 0 0 0-51.4-3.7c-4.9.5-10.3.6-14.7 3-4 2.1-1.7 7.3 2.2 7.7m202.3-39.7v6.3q.2 7.6.7 15.2c.6 10.6.7 22.3 4 32.5 1 3 8.2 6.2 7.9 1.2-.7-10.8-2.5-21.6-3.5-32.4l-1.3-15.5c-.2-3.2-1.2-6.7-1.3-9.3-.2-2.2-5.6-4.3-5.7-1.4-.1 1.2-.8 1.8-.8 3.4m69-18.3c23.1 2.8 46.3-.6 69.2-4q18-2.9 36-4.8c11.7-1.2 23.3-1.3 35-1.6q35-.6 70-2.2c22.5-1 45.6-1.8 67.7-6.2 5-1 1.2-6.8-2.6-6.6-23.4 1-46.8 3.7-70.2 4.8q-34.8 1.5-69.7 2.1c-22.8.5-44.8 2.9-67.3 6.6-22.7 3.8-45.7 7-68.8 5.7-4.8-.3-3.2 5.7.7 6.2m242-4.1 3.1 4.3-3 39.5-3.7 5.3c-2.5 3.4 3 7.6 5.9 4.6 7-7.5 15-16.7 16.3-27.3 1.6-12-3.7-22.7-12-31.2-3.2-3.3-9.3.9-6.5 4.8m-220.8 16q2.4 2.3 4.1 4.5l7 26.5q-.1 5.8-.5 11.8c-.1 3.8 7.2 6.8 7.6 2.4 1.4-16.6 3.7-40.8-14.2-49.9-3.7-1.8-7.3 1.5-4 4.7m164.1 52c20 1.7 39.4-5.7 59.3-6 6.2-.2 12.8.7 18.8-.4.8-.2 2-.2 2.6-1l.6-.3c1.1-.8.8-2 0-3-.7-.8-3-1.5-4-1l-2.9-.2q-4 0-7.7-.3c-5.1-.2-10.5-.9-15.6-.2l-27 3.7c-8.9 1.2-17.7 1.6-26.5 2.5-4.8.5-.6 6 2.4 6.3m-221.8-52.4c.8 8.2 1 16.6 1.5 24.9.5 7.9.8 16.3 3.7 23.7 1 2.3 6.3 3.8 6 .2-.7-8.3-2.4-16.5-3-25-.5-7.6-.9-15.3-2-23-.3-3-6.6-4.7-6.2-.9" style="fill:#29421c" transform="translate(-100.5 -30.4)"/><path d="M-44.7 142.6c-2.1 1-5.3 2.4-4.8 5.5.4.4 1.7-.7 2.7-1.2s2.4-.8 3.1-1.5c.1-.6-1.3.2-1.2-.4 4-1.8 8-3.5 13.2-3.9 1.2-.4 1.3-1.3 2.4-1.7 3.5-1.1 9.7-.4 14-.7 6-.4 10.9 0 16 .3s9.6 0 14.4.4c8.8.9 17.4.7 26.2 1.2 11.5.7 19.1.7 30 1l18.2 1c12.2.4 24.7.3 37 .7 19.8.6 39.9.2 59.7 1.4 12.1.7 25.5-.6 38.7 0 21.7 1 41.1 1 61.4.7.7 1.5-2.5 3-2.6 5-.1 1.7 1.2 1.8 1.4 3.7-7.1-2.2-15.2-.8-23-.5-8 .3-15.8-1-24.5.2-5.7.8-11.3 2.4-16.8 3.2-5.8.7-11.5 1.1-16.1 3.8q-9.2 2.3-19.7 4.6c-2.2.4-4.7 1.4-6.5 1.4-1.5 0-3.7-.8-5.5-1.2-13.8-2.7-29-2.7-44.4-3.8-7.4-.6-14.9 0-22.3.4-21.4 1.2-42.9-1.6-63.8-3.3-14.3-1.2-28.6-2.6-42.8-3.1-7.3-.3-14.6 0-21.8 0-7.1 0-14.5-1.3-21.6-2-2-.2-3.9-1.3-5.8-.7.4 2.5 3.5 2 5 2.2l12.6 1.4c3.4.4 6 .7 10.3.7H-6c9 0 18.6 1.2 28.5 1.7q14.7.8 29.3 2.4a338 338 0 0 0 58.3 2q11.4-.6 22.6.4c7.9.6 15.5.3 22.8.5 3.6 0 6.6.9 9.4 1.4 3.4.8 7.3.3 10.8 1.2-14.6 4.4-29 10-44.4 13.7q-11.7 2.8-23.3 5.8c-7.5 1.8-14.7 4.5-22.1 7q-11 3.3-22 6.9l-22.4 6.7c-10.4 3.3-21.9 7.2-33.4 10.1-3.8 1-8 1.8-11 3.4-1.3.6-2.1 1.7-3.4 2.4-8.4 4.2-17.9 6-26.4 9.8-5 8.4 5 12.8 12.3 14.9 6.4 1.8 12.4 2.5 16.8 4.8-1.4-2.7-4.8-2.9-7.5-3.6l-9-2.4c-4-1.2-12-4.4-12.3-8.4-.4-6.2 10.7-7 15.3-8.9 5-2 8.5-4.2 13-5 .8-.3.6-1.6 1.4-1.7 18-5.1 35.9-10 53.6-16.1q12.9-4.5 26.1-8.6c4.5-1.4 9.2-2.4 13.7-3.9 17-5.7 36.5-9.8 54.7-14.9q6.8-1.8 13.2-4 13.3-5.1 27.1-7.7c9.3-1.7 18.2-5 27.6-6.7 5-2.2 12-2 17.6-3.2 4.6-1 8.8-2.2 13.2-2.1l4.8.5c12 .5 23.2-2 33.8-.5 1.4.2 3.1 1 4.3 1 1-.2.7-.5 1.2-.8 1.7-1 3.6-1.5 4.8.5l-27.1 7.2c-18.8 5-36.6 11.3-55.2 16q-18 5-35.3 12.3c-11.5 4.9-23.6 8.3-35.3 12.3-23.4 7.8-47.8 14.7-71.2 23.7A1768 1768 0 0 1 8 249.8c-6.4 2.2-12 4.3-19.2 3.4a33 33 0 0 0 11.6 1.7c2-.3 4.2-1.8 6.7-2.7 34-11.8 67.6-25.3 101.5-36.4l28-9q14-4 27.4-8.8c13.6-5 26.4-10 40.6-14.9 4.7-1.6 9.7-2.3 14.6-3.6 12.3-3.2 24-8.4 36.5-11.7l19-4.8c6.3-1.7 12.5-3.8 19-5 .3 3.8 4.3 5.5 7.9 5.4-.8-2.8-4.4-1-5.8-3-.8-1.3-.2-3-1-4.4-.8-1.6-2.4-1.2-2.8-2.9-1.3.2-4.2.8-5.6.3a4.5 4.5 0 0 1 1.5-6.5c2.3-1.4 6 0 7.9-1.7-3-.6-4.5.2-7.2 0-.9-.5-1-1-2.2-1.4-3.7-1.2-10-.1-15 0l-14.2.2c-9.2-.2-20.3-1.1-28.8-1.4-5-.2-9.9.2-15 .2h-14.8c-9.9 0-18.6-1-27.4-1-26.4.3-53.6-.6-84.4-1.4-9.5-.2-18.6-1.3-27.6-1.2-16.8.1-36.8-2.2-52.6-2.4h-18c-8.3-.2-16-.6-21.6 2.4a28 28 0 0 0-11.8 3.4"/><path d="M148.5 157.2c1.2 0 3.6 0 3.2-.7-.9-.4-3-.3-3.2.7M178 63.8c14.3-3.4 27.5-2.9 41.6-3.6 18-.8 35-1.1 54.2-2.1 2.3-.1 4.7.3 7 .2 3 0 6.1-.6 9.3-.7s6.7.6 10.1.5q4.1-.5 8.4-.7h9.4c10.4-.4 20.4-.3 31-.5 14.5-.3 28.1-.2 42.4-.7 19.6-.8 35.7-1.2 54.5-1 10.8.1 20.6-.8 31-1 24.2-.3 48.8-.2 72.2-.7 2.2-1 5.2-.7 8.4-.7q20.2-.4 38.2-.5c8.2 0 16.3.7 24.4.7 12.2 0 24.2-1.8 36.8-1 1.1 0 .6 1.5 1.6 1.5 10.3-3.7 21.8-8 34.6-10.3 8.8-1.6 18.5-4.4 27.1-6.2 6.4-1.4 12-2.3 16.3.7-2 2.8-5.9 3.6-9.3 4.3-3.9.8-8.1 1.3-12 2.4-7.6 2.2-15.7 3.8-22.6 6-2.2.7-3.7 2.4-5.5 3.4l-5.3 2.1a155 155 0 0 1-34 10.6c-8.1 1.5-16.4 2.8-24 5.5-3.8 1.3-7.7 2-11.3 3.6-3.8 1.5-7.6 2.4-11.3 3.6-7.9 2.4-15.6 4-23.3 5.8-7.3 1.5-14.5 5.3-21.4 8.4a218 218 0 0 1-33 11.5c-3.8 1-7.4 2.7-11.1 3.8-4.2 1.3-8.6 1.9-12.7 3.1-12 3.7-24.3 8.6-36.5 11.6-8.5 2-16.8 4-25 7-4 1.3-7.5 3.4-11.5 4.5s-8.1 2-11.8 4.3c17.7.4 34.6-3.8 52.6-4.3 5.4-.2 10.8.3 16.3.5 12.4.3 25-1.3 37.7-1.7l11.8-.5c15.3-.7 32.8-.1 48.2-1.2 5.8-.4 10.9.1 16.8.5 3.4.2 7.3-.4 11-.3 4 .2 8 1 11.6 1l14.4-.2c4 0 7.9.8 12 1 1.7 0 3.4-.4 5.2-.3 7.6.5 15.2 2.3 23 1.9-1-9 .3-17.6 4.6-23l2.4-2 2-2.6c4.4-4.6 10.4-7.6 14.8-12 .8-.8 1.2-2 2-2.6l2.8-2c2.6-2.2 4.8-5 7.5-7-.8-1-2-1.6-2.4-3 1-7.3 10.5-8 17.7-7.7-.5-3.2.4-6.8 2.7-8 .2-1.3 0-3 1.4-3 2.2 3.7-1.5 4.8-2.1 6.7-.6 1.4.2 2.7-.5 4.3 15.4.5 31.9-2 45.6-6.3.4-2.5.2-5.4-2.4-5.2-1.5 0-4.3 4-6.5 2.1-1.5 2-5 2.1-6.2 4.3-2.6.2-7 2-7.2-1-.2-1.5 3-4 4-1.1.6 1-3.1-.5-2.1 1.2 3.6.2 6.5-2.3 9.1-3.9-.5-1 .3-2.4.5-3.6 1.5-1.8 5.7-1.1 7-3.3 3.2-.3 4.7-.8 8.8-.7 1.5 2.7 4.1 4.4 8.7 3.8q2.6-.4 3-2.2c.5-1.9-2-3-.4-5.5 1.6-.7 3 .8 4 1.5.2-1.7 2.2-1.4 3.2-1.5 5-.4 9.8.8 15.1 1.2 9.6.7 16-2 22.8-4.8 5-2 10-4.4 15.1-6 5.9-1.8 12.4-2.1 18.5-3.3 22-4.5 42-11.9 63.1-17 3-.8 5.6-2 8.4-2.7 6.2-1.8 12.8-2.8 19-4.1 9.2-2 18.7-5.3 27.3-6.7 3.3-.5 6.6-.5 9.6-2-2.3-3.9-4.4-3.4-8.6-3.5l-3.9-.5c-2.8 0-6 1-9.3 1.7-9.4 1.7-19 2.7-29 4.3-16.3 2.5-33.7 8-51.6 11.7-18.3 3.8-36.6 7.9-54 10.1a148 148 0 0 0-14 2.7c-6.9 1.6-14.8 4.2-21.3 6.4-2.7 1-5.6 1.3-7.2 2.2-1.1.6-1.4 1.4-2.4 1.7-2.3.6-4.8-.4-4.6-2.2-.6.2-1.3 1.2-2.1.5-.5-1.4-.5-3.2-.7-4q-3.2-.1-6.5-.6c-2.7 1.4-3.8 3-4.1 6.5q-5.4 2.9-13 3.4c-1.1-.7 0-2.4-.7-3.6-4.7.2-9.4-2.2-11.5 1.2.4.8.8 2.6.2 3.6-5.7 1.1-12.1.6-16.3 3.6-.5-1-2.2-.6-3.1-1.7-2 3.3-8.8.9-13.4 2.2-1.9.5-1.7 2.1-3.4 2.8-.5-5.6 9.7-5 13.7-4.8 1-1.4 3.5-2.3 5.5-1 4.6-1.4 10.5-1.6 15.4-2.8-1-7.6 9-5 14.1-4.3a10 10 0 0 1 1.2 3.1q5.3-.5 9.6-2.9c1-4 3.4-7 8.9-6.7 4 .2 5.6.7 5.8 3.8q1.4 0 2.4.3c-.8.7-.1 1.7.7 2.1 2-.7 3.6-1.9 5.5-2.6l6.2-2a200 200 0 0 1 31-7.8c6.5-1.2 13.3-1.6 20.2-3q15-2.9 31-6.4c20.8-4.5 41.1-10 63.2-14q8-1 16.1-2.3c6.6-1 13.4-3 19.7-2.9-.3-.3-1-.6-.5-1.2q5 .6 8.7 2.2c1 .5 1.7 1.7 2.6 2.4s2.8.6 3 2.1c-4 3.1-9.2 3.1-13.8 4.1l-15 3.4c-10 2.3-20.2 4.2-30 6.7-2.5.6-4.8 1.7-7.3 2.4-23.4 6.1-46 13.3-69.1 18.2-5.3 1.2-11 1.7-15.8 3.6-4.5 1.7-9.6 3.3-14.2 5.3-5 2.2-9.8 4.2-14.6 4.6-9.4.7-16.7-2-25.2-1.2-.2.7.4.7.2 1.4-1 .5-2.4-1.9-3.6-1.2.8 2 2 3.1 1 5.8-2.1 2.6-8.4 1.6-11.6 1.9q-1.4-4.8-8.6-3.9c.1 3.3-7.6.4-6.2 4.8 2.3 1.2 3-1.6 4.8-1.9 4.1-.7 5.5 3.7 4.5 6.7 3-.5 4.8 2 8 2.2 1.2.8 1.4 2.4 2.3 3.4.2.1 1.2 0 1.5.2.5.5 0 1 .5 1.2 1.1.8 2.7 1 3.8 2 4.2 3.3 6.7 10.1 11 15l3 2.7c2.3 3 3.4 9.8 3.8 14.4.8 9.4 1.3 20.7 1 30.5 3 .4 9.3 5.2 5.4 8.4-1.3 1-2.8.1-4.3.7-1 1.6 0 3.3.3 4.8 1.7 12.7 2 25 2.4 37.9 1.7 1 3.8 1.4 5.7 2.2 5-1 7.4-4 12-4.4 6.1-.5 12 5.5 14.7 9 .7 1 1.9 2.1 2.4 3 4.8 9 2.8 22.2-5 27.9a22 22 0 0 1-18.6 2.4c-1.1-.4-2.7-1.6-4-1.5-3.7.5-3.5 6.2-2.2 9.2 19.6 2.4 38 10.2 48.2 22.8a20 20 0 0 1 5.3 15.6 52 52 0 0 1-4.3 14.1c-2 4.5-3 9.4-4.6 14-3.2 9.4-7.3 18-12 24.9 0 .8 1.3.3 1.2 1.2-1.6.5-1.1 1.5-1.2 2.2 0 2.3 1.8 5.8 2.4 9.6.4 2.1.5 5 .3 7.2-.4 3.3-2.3 6.6-2.2 9 .1 1.6 1.6 4 2.2 5.6 1.9 5 3.2 12.1 4 17.8l.3 1.9a42 42 0 0 1-11.8 25.7c4.6-.7 9.5.2 11.8 2.6 3 3.1 5.2 11.3 5.3 17.5.1 12.6-5 31.5-19.2 26-7.4-3-11-15.2-11.5-25.7-.2-2.7.6-5.2.4-7.5-.2-3-1.8-7-1-10.3-6-.3-11.5 1.6-17.4 2.4q-9 1-17.8 1.4c-9.5.8-18.8-.2-28.3.3-1.6 0-3 .8-4.6 1-5.7.5-11.6 0-17.3.9-2.2.3-4 1.2-6.2 1.2s-4.5-.5-7-.5c-4.2 0-8.3 1.1-12.4 1.5-3.8.2-7.4-.4-10.8-.3-2.9 0-5.4 1-8.2 1.2-2.1.2-4.4-.2-6.7 0-4.5.4-9 2.3-13.2 2.4-5 .1-11.7-1.2-15.4 1 2 4 .9 10-4 9.8.5 4.2-.4 10.7-4.1 10.8-.8 0-3.6-1.5-4.6-2.4-1.5-1.3-2.5-4.2-4-7-1.1-1.7-2.5-2.6-2.7-3.8-.5-2.4.7-4 .2-5.5-1.6.6-4.7-.2-5.7 1 4 7.3 2.5 21.4-2.2 27.8 3.1 2 7.2.8 10.3 2.9a27 27 0 0 1 6.5 8.9c4.4 10.8 3.2 30.5-2.6 38.4-3 3.8-10.4 3.7-15.2 1.6-4.3-4.2-8.2-8.7-9-16-.6-4.2 1-9 0-14q1.1 1.8 1.1 4.4c1 10 2 18.6 9.1 23 3 1.8 7.9 2.5 11.3.2 3-2 5.3-10.6 5.8-16.8.8-11.2-2.2-23.4-8.2-27.8-3.7-2.7-12.6-3-13.2 2.2-1 .2-1-1-1.7-.3a15 15 0 0 0-3 9.4c-1.4-1.3-1-4.5-.6-6.5 1-4.1 5-6 6.8-8.6 4.1-7.7 7.8-20.6 2.8-28.8-6 .5-14.3.5-21.6 1.2-2 9.9-1.8 21.5 3.4 28.3.3.8 1.8.4 1.7 1.7-.8 5.8 3.9 13.8 1 17-.7-5.5-1.1-10-2.5-15.1a15 15 0 0 0-12.4 8.9c-5.9 13-3.3 32.2 9.3 36.2 4.5 1.4 10.6-1.4 11.3-5 .3-1.6-.9-2.7 0-3.6 2.7 2.8.6 7-1.4 8.8-8 7-19.3-2.1-21.9-8.8a41 41 0 0 1 1.5-30.3c1.8-3.2 5-4.7 7.2-7 1.8-.4 5.6-1.5 6.7-.4 0-1.5-1.3-1.4-2-2.2s-.9-2.2-1.6-3.3c-.7-1.2-1.8-1.9-2.2-3-2.4-6.5-.8-14.6-.5-22.2-6.2 1.2-12 1.4-18.4 1.6-11 .5-22 2.7-32.4 3.9-4.3.5-8.8 0-13.2.2-10 .6-19.4 1.7-29 3.4.3 2.6-1.6 6.9-2.5 9.8 2.6 2.6 3.8 6.7 6.5 9.1 1.7 0 2-2.3 3.6-1.6-.2 2.2-2.8 2.7-4.3 2.4-2-.5-2.6-3.4-3.9-5.3-1.4-2.3-3.7-3.4-3.8-5.3q1-.6 1.7-1.7c0-2.7 1.2-4.4 1.4-7-.9-.4 1.2.1 1-.4-6.8-.6-11.1 2.3-17 1.9-1 0-2.1-.7-3.2-.7-2.6-.1-6.5 1-9.6 1.9-9 2.6-18.6 6.2-28.3 6.2-5.8 0-11.6-2.2-15.4-4.3.4 3 .6 6.2.3 8.7q-4 1.4-8.7 2.4c-.2 4.4-.4 7.6-2.1 10.3 8.9 7.5 12.3 30.3 5.5 42-1.2 2-5.2 5.5-7.2 6.7-7 4.3-14.6-1.3-18.2-6q0 2.4-1 3.8c-9 2.8-19.8 1.2-22.8-6.2a39 39 0 0 1-2.9-18.2c.7-7.4 3.6-18.7 7.7-21.9 6.3-4.8 12.7 2.2 16.3 5.3 2.9-5.3 8.4-7.9 15.4-9.1q.4-6.1.2-12c0-1.7-.8-4.1 1.2-4.8.2 4.9.6 11.9 0 17 2 .3 3.2 1.3 4.8 2 .5-3.7 2.4-7.3.3-9.9 3-1.4-.8-8.2 2.1-9.6.7 1.8-.7 5.8.3 8.4 3-.6 5.3-.8 7.6-2.4.4-2.7.2-6-.4-7.7-14.7.4-27-.1-40.8 1-10 .8-20.4.8-31 2.1.2 3.2 1 6.9.5 10.1-.3 1.6-.7 3.8-2.2 4.6-1.3-1.4.7-3.4 1-5.5.3-3-.6-6.4-1.2-9.2-1.4.4-2.7-.6-3.6 0-.2 4.6 1.5 10.7.2 14.7-.7.9-1-.3-2.1.2-.8.8-1.3 1.8-2.4 2.2 0 1 0 2-.8 2.1-2.2-2 1.3-4.2 2.2-5.5.6-.5 2.3.1 2.4-1q0-6.9-1.2-13.4c-10.3-1.3-18.2 1-28.6.3 1.4 5-7.8 6.9-11 4.3-2-1.6-1.2-4.2-2.4-6.5-7-1.3-16.8-3-23-6-4.6-2.2-7.6-4-11.3-6.7-2.4-1.7-5-3-7-4.8-.7-.7-1.2-1.8-1.9-2.4-2.3-2.1-5.1-3.7-7.4-6a26 26 0 0 1-6-8.2c-.5-1.6 0-3.7-.3-5.3-.3-1.4-1.8-2.3-.5-3.3-1-1.2-2.2-2.7-2.4-4.3 0-1.3.9-2.8.8-4.1-.2-2.2-2.2-4.4-3-6.5-.8-2.5-1-5-2.8-6.7q-5.7-.2-10 .5c-1.1.2-2.6 1-3.4.4 0-2.4 3.7-2 6.2-2.1l7.2-.3c-.6-2.9.8-5 .5-7.2-.3-1.3-1.4-2.3-1.5-3.6 0-1.2 1-2.3.8-3.6q1.6-1.4 4.3-2.1c3.6-3.3 5.5-7.2 8.9-11.3 2.1-2.7 4.7-5.3 5.7-8.2.4-1.2 0-3 1.5-3.8 1.3.4 1.1 2.5 1 3.8-.5 2.7-2.3 4.4-3.7 6.5-3.4 5.2-8.2 10.3-11.7 14.7 3.3 2.4.3 8.8-3.6 6.2 0-1.2 2.6.1 2.8-1 3.2-4-3.4-5.8-4-1.9-.3 1.9 1.5 3 1.6 5.3.3 3-1.4 5-.2 6.2 2.6.3 4-.6 5.5-1.4 2 .2 5 2.8 2 3.8 0-3.8-4.4-1-7-.7 1.1 2.2 1.5 4.3 2.4 6.5.8 2.1 2.5 4.3 2.6 6.5.1 1.3-.9 2.9-.7 4.3.3 2.6 3.2 4 3.4 6.5.1 2.2-1 4 0 6.2 1.5 4 6.3 8 9.6 10.8 6 5.3 12.9 11 20.1 14.9 9.4 5.1 24.1 5.8 35 8.2 1.3.3.7-1.3 2-1 .7.3.4 1.6 1.7 1.4 3.5-.4 6.7.6 10 .5 2.7 0 5.4-1.1 8-1.4 5-.6 9.3 1 13.9 1.2 5.9.1 12-1.2 17.7-1.2 9.2-.1 18.9-1.2 28.6-1.5 13-.3 25.7 0 37.4-2.4 1.2 1 3 .4 4.1 1-4.6.8-6.4 1-10.5 1.4q8.1 6.6 21.6 4.8c4.7-.5 9.9-2.8 14.8-4a206 206 0 0 0 14.4-4.1c5.2.8 9.5.4 15.6-.3q7.8-.8 14.2-1.9c12.1-1.8 25.3-1.5 39.1-2.9 5.2-.5 10.4-1.6 15.6-2.1q17.4-1.7 36.3-2.9c8.8-.6 17.7-.9 26.6-2 9.5-1 18.7-3.1 28-3.5h7c9.5-.7 18.9-2.7 28.4-3.1 9.6-.5 19.2-.4 28.8-1 11.3-.7 22.5-2.9 33.6-2.9s21.9-.1 32.6-1.2c11.8-1.1 24-4.1 35.5-2.6a42 42 0 0 0 11.8-17.5c-1-.5-2.8-.2-2.9-1.5.8 0 2.5.3 3.6-.5l1.2-6.2q0-1.2-1-1.4c1.6-3.4 0-7-.7-9.9a94 94 0 0 0-7.2-19.7c-.8-1.4-2.6-2.3-2.4-4 3-.3 3.6 5 5.8 5.5 2.9-8.1.3-18.3-2-25.5.8-.2 1 .1 1.3-1 1.8-5.8 5.9-10.3 8.1-16l3.4-8.9c1-3 1.4-6.2 2.4-9.3 2.2-7 7.5-14.9 6.2-23.6-.2-1.5-.9-3.6-1.7-5-2-3.6-5.7-7.5-9-10.3q-5.7-4.5-12.3-7.2c-4.6-2-9-4.3-14-5.5q-7.7-2-15.5-3.6c-1-1.6-.7-4.4-1.5-6-4 3.8-8.7 7-12.7 11-.7.7-1.2-.6-1.4-.2-1 .7-1.3 1.8-2.2 2.6-1.8 1.7-4.4 2.3-6.5 3.6-1 .7-1.5 2-2.9 2.4-1.7.5-3.7-.4-5.2.7-.8-1.6-4 .3-5-1.4 5.7-.2 9.7-1.6 13.8-4.1a31 31 0 0 0 10.6-11.8c1.6-2.8 4.6-7.8 4.6-9.6-.6-12.9 1.7-28-6.3-36.7.5-.5 1.3-.7.7-1.7a29 29 0 0 0-22.8-14.4 33 33 0 0 0-24.4 8.2c-1.6 1.3-3 3.3-4.6 5-5.7 6-11.8 14.5-10.6 24.8.6.1 2-.2 2.2 1-1.8 2.3-4.6 2-7.4 3-2 .8-4 2.2-6 3.2-1.2.5-2.8.6-4.1 1.2-1.6.6-2.6 1.5-3.9 1.6-3.2.4-6.4-.7-8.8 2-.4 1.9.9 2.3.7 4-1-.2-2-2.6-2.2-4.5q2.7-3.2 8.7-2.9c.6.1-.7-1.2.4-1 7-1.7 12.5-5.2 19-7.4a26 26 0 0 1 5.5-21.1c2.6-3.4 5.8-7.6 9.1-10.3a47 47 0 0 1 16.4-8.7 33 33 0 0 1 35.2 16.1c2.2.7 3.9 1.8 6.5 2-1.4-4.9-.5-8-.7-12.3-.3-9-1.8-19.4-3.1-28.6q-3.2 0-4.1-2.4c1-.3 1.5.8 3.1.7.9 0 2.2-1 3.4-1.4 1.5-.5 3.3-.4 3.6-1.4.8-2.7-4.4-3.2-6-4.4-.8-11-.6-21-1.7-32.4-.3-3.6-1-8.5-2.6-11.7-1-2-3.7-4-5.3-6.3-3.4-4.7-7.7-14.7-14.9-13.9-6 .7-11.8 4.3-18.5 4.8-6.8.6-14.1.6-21.3 1.5-7.5.8-15 3-22.1 2.8-3 0-5.7-1.2-8.7-.4-5.1 4-9.9 9.8-15.8 14.4s-11.8 9-16 14.4c-4.6 5.6-5.2 13.2-4.9 22.3 11.8 2 23-1.3 34.1-.7 9.3.4 18.4-.3 27.6-.3 2.7 0 6.3-.5 7.7 1.5-.6 1-3.9 0-3.9 1-18.2-.5-36.8-.5-50.8 4.7.2.6 1.3 1.2.7 2-2 1.5-3.5 1.2-6.5 1.1-20.6-.3-49-2-68.4-1.2-2.2-.6-4.1-1.4-6.5-1.4-14.4-.2-31.7.4-49.2-.7-10.2-.7-22.5.7-32.6.2-4.2-.2-7.6-.4-10.3 1-6-1.4-12.4 0-16.6.2-4.6.3-9.2-.2-14 .3-12.3 1.1-25.4 3-37.8 4-9.1.8-18.2 1-27.4 1.7-3.7.3-7.8 0-10.8.7-.9.3-1.4 1.1-2.4 1.5-3.8 1.4-7.9 1.4-10.6-1 1-1 2.8.3 4.8 0 2.2-.3 4.5-1.8 6.8-2.1q12.1-2 23.7-2.2c14.2-.4 25.8-1.8 39-3.1 26.6-2.7 55.2-3.2 84.1-3.4 4.4 0 8.9.8 13.2 1 7.7.3 17.1 0 26.4 0q7.6-.1 15 .2c24.4 1.8 49.2.6 73.6 2.4 3.3-3.3 8.1-3.8 12.7-5.5-10.7.5-20.2.6-31.7-.5-3.9-.4-7.7-1.4-11.7-1.7l-4 .3c-5.2-.3-10.3-1.5-15.5-1.7l-20.4-.2a325 325 0 0 0-29.5-.3c-14 .6-28.6.6-43 1.2-19.9.9-39.8 2.1-59.5 2q-10-.3-20.1-.3c-7.5.1-14.7 2.3-21.9 3.1h-5c-8.8.5-22.5 2-31 1q.8-.1 1.2-.5c-3.2-.1-5.3 0-8.4-.2-2.6 1-3 4-5.5 5.2 1.3-1.6 1.7-4.6 3.9-6 3.1-1.9 7.6.4 12-.7.9.3-.4 1.2.7 1.2 1-.6 2.7-.5 4.3-.5 4-5.2 10.6-5.4 17-8.1q5.3-2.3 10.6-4.3c7.7-2.7 15.7-4.2 23.8-6.3 11.4-3 23-7.5 33.8-10.8 4-1.2 8-1.9 12-3.1 15.1-4.7 30.4-8.5 44.6-15.1 7.2-3.3 14.2-6.7 21.6-8.4q12-2.7 24-6 5.2-1.6 10.4-3.6c18.4-7.6 42.7-9.2 61.4-16.3 7-2.7 13.4-5.3 19-9.2 6.6-.4 11-2.9 17-4.3l7.4-1.9c6-1.8 11.6-1 16.1-3.8-9.5-1.6-18.6 2.3-27.3 4.3q-13.6 2.8-26.7 6.2c-8.4 2.4-16.6 5.5-25 8.2l-12.4 4c-4.2 1.5-8.3 3.3-12.5 4.4-9.5 2.4-18.4 6.4-27.8 9.3-7.4 2.3-14.4 5.5-21.9 7.5a493 493 0 0 0-45 13.4q-10.7 3.7-21.2 7.7c-11 4.2-23 6.6-34.3 9.6q-6 1.3-11.8 2.9l-10.8 3.8q-5.9 1.8-12 2.7a273 273 0 0 0-35 8.6c-1.4-1.1-2.7-.2-3.4-1.2-1.4-1 .5-3.5-.2-4.6-3-1.5-8.2-.8-11.8.8 0 4.8-3.2 7.7-9.1 7.4-1.3-.7-1.4-2.6-3.1-2.9 0 2.6.2 5.3-2.4 6.5-1.5.6-3.6 0-5.3.2-.6.1-1.3.8-2 1a33 33 0 0 1-7.1 1.4c-2.4 0-4.8-1-7.2-.4q-.8.3-2.2 1.4c-.8.5-2 .8-2.6 1.2-1 .7-1.3 1.8-2.2 2.2-1.4.5-3.6-.6-5-1.7-4.6.4-8.4 2.8-13.5 3.8-2.3-2-5.7-.2-8.1-1.2 2.3-2.6 5.7-.6 8.8-.5 2.6.1 4-1.6 6.5-2.4q3.9-1.1 7.5-1.4c1.8 3.1 4.2 1.2 6.7-.5 3-1.9 4.7-3 8.6-2.6.8 0 1.7.7 2.7.7.6 0 2-.6 3-.7 3-.5 4.6-1.4 6.3-1.7.8-.2 3.6.6 4.8-.2 1.7-1.3 0-6.5 2.4-7s2.4 2.7 4.6 3.4c1.8.5 4.9-1.2 5.7-3.2.8-1.6.1-2.7 1-3.8 1-1.3 5.3-2 6.7-2.2 4.9-.3 9.8.5 7.7 5.6 1.2-.2 1.3.9 2.4 1 7.3-2.3 14.5-4.7 22-6.3 7.8-1.7 16.3-2.4 23.4-4.6 5.7-1.7 11.1-4.7 17-6 3.3-.7 7-1 10.3-1.9 3.5-.9 6.8-2.4 10.3-3.1 6.8-1.5 14.1-2.8 20.2-5.5 6.3-2.8 12.9-4.7 19.4-7.2q9.7-3.8 19.7-6.8 10.4-3.2 20.7-6 10.3-2.6 20.4-5.7c13.3-4 25.7-10.4 39-14-9.7-.8-19 1.8-28.2 2-2.7 0-5.2-.4-7.7 0-2.8.4-5.1 1.3-7.7 1.4-6.4.4-12.6.1-17.8 0-26.9-.6-57 0-85-.2-15 .6-30.3 1.4-44.8 1q-15.2-.8-31.4-.5-5.9 0-11.8-.3c-30.6-1.4-57.7.4-86 .7-20.3.3-39.3-.5-59.7.3-5.3.2-10.7 1-16 1.2-5.5.3-12.5-.4-20 0-8.4.3-20.6 1-30.2 1.9-5.5.5-10.5 2.2-13.2-1.4 1.3-.5 2-1.6 2.9-2.4.9-1 2.7-1 3.6-2m24.8 3.2c11-1 21.8-.2 31.2-.8a808 808 0 0 1 63.3-1.6c15.8.2 30.3-.5 45.6-.8 11.6-.1 25-.5 38.2-.2 24.5.5 48.1 1 72.2 1 16-.1 31.8-1 48-1 24.2 0 48.7-.5 73 0 5.3.1 10.3.8 15.4 0 1.4-.2 2.8-1 4.3-1.2 3.7-.7 7.1.1 10.8 0 2.5-.1 5.1-1.2 7.9-1.4 5.7-.5 12.3-1.2 17.8-.5q1.7.2 3.3 1.2c7-3.2 15.6-4.8 22.6-8-10.1-.2-20 .6-31.2.8-12 .2-24.9-.6-37.7 0-5.7.2-11.6-.9-17.5-.5l-10.1.5c-3 0-6-.2-8.6.2l-2.7.7c-3.5.5-7.4-.3-11.3-.2l-32.6 1c-3.6 0-7-.5-10.8-.3q-4.8.2-9.8 0c-11 0-22 1.1-31.7 1-11.6-.2-22.6 0-33.9-.3-7.4 0-14.7.8-22 1.2-8.8.5-17.2.2-26.2.3q-23.6-.2-47 .7-24.2 1-48.3.5c-8 1.4-17.2.8-26.1 1.2q-13.1.6-25.5 1.4c-16.6.9-35.6-.2-49.7 5.8 1.7 1.8 4.5 1 6.5.7 7.1-.8 13.9-.7 22.6-1.4m134.4 377.7c-2.1-1.1-5.1-1.3-7.7-1.9 0 1.2.5 1.9.5 3.1 1.7-1.9 5.8.2 7.2-1.2m-1 3.1c-1.3-.7-4-1-5.3-.4 1 1.7 3.5.9 5.3.4m64.1 60.8c3.8 2.7 12.3 3 17.8 1.2 2.3-3.2-2-5.8-3-9.2-.3-1.6 0-3.7-.2-6-.4-4.5-2.8-7.9-1.9-13q-2.5.4-4 1.5c-.5 3.2-1.4 7.3 0 10.1 1.4-.8 3.2 1.5 5.2 1.7.2 2.2-3 1-3.3 0-1 .1-1.2.1-2-.3-3-2.3-2-8.2-1.4-12.4q2-2 5.8-2.2.5-4.8 2.4-8.2c-3.8-2.8-8.3-8-13.2-5.5-.8.4-2.5 2.2-3.2 3.6-3 6.4-5.7 17.9-4.3 26.7.7 4.3 2.7 10.1 5.3 12m15.8-11.6c1.6 2.8 2.4 5.6 4.1 8 2.8 3.9 8.8 10.4 15.9 6.7 1.7-1 5.4-4.4 6.7-6.3 6.1-9.3 3.3-29.5-3.4-37.9a10 10 0 0 0-5-3.6h-.5q-.1-.3-.2 0c-.8 1.5-1.5-.7-2.7 0-11 1.1-17.4 11.6-16 24.3.2 3 1.8 5.9 1.1 8.8m235.7-62.6c1 1.7 1.4 4.2 2.4 5.5.4.5 1.4 1 2 1.7.6 1 1.4 2.2 2.8 2.4 4.4-4 1.7-12.3 2.9-18.7-4.1 1-7.9.7-11.8 1.9-.2 1.6-1 3.6-.2 5.3.3.6 1.4 1 2 1.9m11.8-9.1c.4 2.4-.4 5.4-.3 8.4 5.2.1 5.4-9 .3-8.4m53.7-342.5c2.1.2 4.4 1 7.7.7 6-.4 13.8-2.3 21.9-3.1 10.4-1 19.6-.7 28.5-3.1.8-.2 2.1-1.1 3.1-1.5 1.7-.5 5-.5 5.6-1.9.6-1.8-4.7-4-6.8-4.5q0-.2-.4-.3c-6.3 0-11 3.1-17.6 4.1-3.6.5-8.2.3-12.4 1-3 .4-5.7 1.2-8 1.4-4.8.3-8-.4-11.7-.2-4 .1-9.7.2-12.5 1.4-1.2.5-3.6 2.5-3.1 4.3.5 2.1 2.9 1.4 5.7 1.7M818 228.5c3.6-.7 5.7-2.8 8.4-4.3.2 2-2.8 2.1-2.4 3.6 7.2 2.8 15 1.8 19.7-2.2 3.7-3.2 6.7-9.8 6-15.6a26 26 0 0 0-7-14.2c-2-2-6.8-5.2-9.8-5.2-3.6 0-6.2 2.7-10.1 3.6 5.3 2.5 10.6 6.1 12 13 .6 2.9.2 7-1 10-1.3-1.3-.2-4.3-.4-7-1.4-13.7-14.6-16-26.2-19.2 3.9 9.6 7 25.2 4.3 36.8-1.2 5.2-4.5 9-6.2 13.2 4.2-3.1 11-7.4 12.7-12.5m21.4 184.8c-1.8.2-3-.3-4.6-.3.2 2.9-.4 4.6 0 6.5zm19.4 34.3a49 49 0 0 0 2.9-19.4c-.4-5.4-2.5-11.7-4.8-14-1.8-1.7-5.2-2.3-8-2.1-2.4.2-4.3 1.4-6.4 1.4a17 17 0 0 0-6.5 9.4c-1.7 9.2 1.9 24.7 7.4 29.3 5.8 4.6 13.1.9 15.4-4.6"/><path d="M284.4 404.4c.7 2.8 2.3 4.7 2.4 8.2-1.9 1.8-3.8-1.6-5.8-.3-.7-2.4-3.4-5-1.9-8.1 1.8-.4 4 .4 5.3.2m1.2 7.2c-.3-2.2-1.3-3.7-1.7-5.8-1.5.7-2-1-4-.4-.4 2.3.7 3.2 1.1 4.8 1.9-1 2.6 2.4 4.6 1.4M298.3 292c-.5 0-1.7.5-1.4-.4-1-2.7.8-5.2 4.3-4.8q.2-2.7 1.9-3.8c2-7.6 7.6-11.5 14-14.7q.2 0 .4.3v1c-7.8 3.6-12.2 10.6-15.6 18.6-1.3.2-4.3-.2-4 2.2 1.9 1.3 5.3 1 8 1.4-.4 1.2.9 1 1 2.4.2 1.6-.8 4.2-1 6.5-.1 3.7-.4 6.6-.6 9.6-.6 8.2-.6 17-3.6 21.9-5.4 2.5-12.8 1.8-18.3 4-.2-1 1.3-2 2.2-2.6q6-21.1 12.7-41.5m2.6 38c1.5-2.3 1.8-7.5 2.2-12 .7-7.9 1-16.4 2.2-24-2.3 1.2-3-2-4.8-1.4-1.3.4-3.2 8-3.9 9.8-3.8 10-6.1 22.3-9.1 31 4.1-1.8 11.2.1 13.4-3.4M294.2 148c-.7.2-5.6-.9-5.5 1.5 2-.9 5.4 1 5.5-1.4m-4.8 191.5c-.2.1-.8.3-.5.7 5.4-2 13-1.4 19.5-1.9q17.2-1.7 34-2.2c18.6-.1 37.5-3.2 54.8.8-2.5-2.2-6.3-2.2-9.4-2.4q-9.8-.9-19.9-1c-3 0-6 .7-8.9.7-17.7.3-39.8 1-56.9 2.7-4.6.4-9.5.8-12.7 2.6m6.3-192.5c2 .3 3.4-1.3 2.6-3.1-1.6.2-2.4 2.4-2.6 3.1m1.2-12.9c-1.5 1-1.1 2.7 0 4.5.8.3 2 .3 2.1 1.2-.1 1.5-1.5 1.7-1.4 3.4 3.7-.8 3.2-6 0-6.7 2.7-2.3 8.8-1 13-.8q.3 1.5.4 3.4 4 2.3 8.2 4.3c-.2-2.7-4.5-3.3-6.5-5-.2-1.6 0-2.7-.7-4.1-2.4-.2-8.5-.4-12-.2-1.4 0-2.4-.5-3.1 0m9.1 230.1c-7.3 0-13.1.4-18.7-1 7 3.4 17.7 1.4 27 2.2 4.6.4 9.8.6 13.8-1.4 0-.5.6-.3.4-1-6.4 2.7-14.6 1.3-22.5 1.2m-3.1-216.7c-1.2.2-3.1.4-3 1.7 2.8.2 6.3-.3 9.2-.3 0-2-4.1-1.7-6.2-1.4"/><path d="M309.8 141.6c-2.2-1.5-5.8-.7-7.9-1.2.6 1.4 6.1 2.6 8 1.2m-1.3 143c-1.3 1.1-4.1.7-4.3 3 2.3-.5 3.2-.9 5.5-1.3 1.3-2.8 2.1-5.2 4.8-7.4 3-2.6 8.3-3.9 8.4-6.7.1-2.5-3.2-3.4-5.5-4.1.6 1.8 3.2 1.8 3.8 3.6-3.3 5.2-11 6-12.7 13m3.9-124.1c-3.4.3-7 .6-8.4 2.8 2.9-.2 7.3-.9 10-2.1.5-2 1.3-3.4 1.2-5.8 4-.4 8.7-1.2 12.8-1 1.5.7 3.2 2 5 1.7 2.4-.2 3.2-1.7 6.5-1.2 2.7.5 6.3 1 8.4 1.7 1.3.4 2.5 1.7 3.8 2 2.7.3 5.6-1.2 5.5-3.7-1.4-.6-2 2-3.8 2.2-2 .3-5.3-2.2-8.6-2.9a26 26 0 0 0-9.2-.7c-2.6.5-4.2 2.5-7.2-.2-4.4-.7-9 .2-13.9 1-1.2 1.5-1.1 4.4-2.1 6.2m-.3 132.2c-4.4 10-4 22.7-5.7 34.8 3-2.2 2.3-6.8 2.6-10.6.7-7.9 1.8-16.9 4.3-23 1.7.1 3.7-.6 5.3-1 7-1.5 14-.5 20.9-1.4 8.1-1 15-1 24.5-1.2.3 0-.6 1.7 1 1.2-1 5.7-3.3 10.6-4.6 15.8-1.7 6.5-3.4 12-5 19.2-13.4 2.4-30.2 1-45.7 3.2-1.4.4-.4-1.5-1.4-1.5-3.2 5.6 5.6 2.8 8.4 2.4 3.5-.4 7.8 0 12.2-.2 4.5-.2 9.2-1 13.7-1.2 4.8-.2 9.6.3 13.4-1 3.7-8.5 5-19.4 8.4-29 1-2.5 2.9-6 2-9.9-10.4-1.5-22.5.3-34.1 1-6.9.4-12.7 0-16.8 2.2q-2 0-3.4.2m6.5-142.6c-2 1-4.3 0-7.2 0 2.5 1.8 10.8 2.5 12.7-.2-.8-1.1-3-.1-4.3-.2 0-1.8 1.7-1.6 1.7-3 0-2.2-4.5-2.5-5.3-.2 1.4.8 1.7 0 3.4 0 .2 1.7-1.7 2.3-1 3.6m0 191.8c5 1 2.2 5.5-1.4 4-.7 1.4-2.7 1.4-3.4 2.7q1.3.7 3.6.5c.9-.2.5-1.6 1.7-1.4 0 3.3-4.7 2.6-6.7 1.6-.5-3.3 4.7-2 3.6-5.2.7-1.3 3-.3 2.6-2.2m1.2 2c-.9-.2-.8.7-1.4.9.4.7 1.4.4 1.9 0 .2-.7-.5-.5-.5-1"/><path d="M324 257c.8-4 1.4-7.5 1-11.7-.3-.4-.8-.5-.8-1.2-1-3.7-.5-8.7-.7-13.2-.5-10.3-2-19 .5-29 .4-1.7 1.5-3.8 1.9-5.8 1.2-6.2-4.7-10.8-2.4-18 1.9-6 10.7-6.5 16.6-7.7 1.2-.3.8-2.2 1.9-2.6 1.5 0 1.7 2.2 3.3 1.4.8-2.8-3.5-2.5-2.1-6.7 2.2-1.8 7.2-5.8 10-2.4-2.4.1-8.6 1.3-8.3 4.3 0 1.3 2.1 1.5 2.4 3.1.1 1.2-.9 1.7-1.5 2.9 3.1 1 7.7.5 11.5.7 1.4 0 3.3 0 3.9 1.5-6.8 0-13.3.9-18-2.7q-1.3 2.3-4.1 3.1c3.8 5.3 9.8 4.4 16.3 5 5.7.7 11.5-.8 17.8-1.1q5.2-.3 10-1.2c3.4-.7 6.5-2 9.7-2.4 4.5-.7 8.8-.3 12.4-1 1.4-.3 2.7-1.2 4.1-.7q1.1-1.4 1.5-3.8c-1.2-2.5-3.7-3.6-6.5-4.4-14.2 3.5-28.1 9.5-45.1 7.2 15.6-1 29.4-4.8 44.1-8.4-2.3-2.2-8.7-7-4-10.5 1.4.7-.1 2.4.2 4 .4 2.5 6.8 5.8 9.3 7.3 1.7 1 3 1.6 5.3 1.9 6 .8 13.7.7 20 3.1 8.9 3.5 17 11.3 17.5 19s-4.3 10.2-11 10.3c-.5 2.2-1.7 4.4-1.5 6.5.2 3 3.4 5 5.3 7.2 4.6 5.3 9.3 12 11.7 18.7 2.6-.2 3.2.6 5.3.5 2.3-1.4 2.3-5 4-7 8-3.3 12.4 4.4 16.9 5.5 1.8.5 6.4.8 7.7.5 1.8-.4 3.3-2.8 5.7-3.1 2.7-.4 4.8 1.4 7.7 2.4s7.3.4 10.6.5c9.6 0 18.7-.2 28.5.2 5.5.2 11.1-1 16.8-1q15.1.2 28.6-1-1-3.8-.3-8.3a53 53 0 0 1 5-15.4c3.7-7.6 8.1-14.3 15.7-18 4.8-2.3 10.3-4.6 15.3-3.8a35 35 0 0 1 20 9.3c1.4 1.3 3.4 4.4 5 4.8.8.2 1.9-.2 2.6-.2 6.6.3 10.7 4.3 15.9 7.2 2.1-3.5 2-9.3 2.6-14.6l.7-10.6c.2-1.9 1-3.6 1.2-5.3 1.5-7.3.8-14.8 2.2-21.8.3-1.4 1-4.4 2-4.6 1.4-.3.7 2.2.6 2.7q-.9 6.4-1.4 13c-.5 5.3-1.6 9.8-2.4 14.6-.5 2.8-.4 6-.7 8.8l-1 8.2c-.2 4.5.2 13.1-5 12-.7-.1-2.2-1.9-2.9-2.4a21 21 0 0 0-13-4.8c4 7.2 9 13.3 9.4 24-.8.7-1 1.8-2.9 1.4-.4-1.1.9-1.3 1-2.6 0-1-.8-3-1.2-4.8a38 38 0 0 0-5.5-12.7c-1.7-2.6-3-5.1-4.8-7.2-2-2.2-4.5-3.6-7-5.3-2.3-1.6-4.3-3.6-7-4.8a29 29 0 0 0-13.2-2.2c-3.2.5-6.2 2.3-8.8 4.1 3 .4 4.2-1.2 6.7-1.4.4.8-.8 1-.3 1.2 1.8.4 2.4 0 4.1.2 16.6 2.5 23.2 13.7 28.1 27.6 1 2.7 2.3 5.5 2 8.4-2.1-2.9-2.7-6.6-4-9.8a44 44 0 0 0-14.3-20.9 45 45 0 0 0-18.3-4c-3 2.3-7.4 3.1-10 6 0-3.6 4.9-4.2 7.2-6.3-3-1.3-5.7 1-7.5 2.4-6.1 4.7-8.9 13.3-12 20.6 1 1.5 2 3.2 3.6 4.1 1.5-7.6 13.6-9.2 17.3-3.4.5 1.4.9 3 1.4 3.6.6-.5-.3.5-.4.8.7 0 1.1-1.4 1.9-.5-1 .7-1.1 2.4-2.7 2.6-.6-2.7-1.4-6.2-4.3-7.4a8.4 8.4 0 0 0-11.7 6.2c.6.3.7-1 1-.2-1.4.5-.8 1.7-1.5 2.4-1.3-2.3-3.2-5.1-5.3-5.8-.4 2.9-1 4.2-1.2 7.2.2.2.1 1 .6.4-.7 1-.3 2.3-.1 4.9 6-1 14.1-.6 22.8-.5l18.5-.2c11.8-.2 23-2 34.8-2.4h10.8c3.4 0 7-1 11-.5 3 .3 8 5.5 4 7.2-.4-1 1-1.5.3-2.9-2.4-3.1-7.7-2.1-12.2-1.9l-14.7.2c-3.3.2-6.6.8-9.8 1-4.7.2-9.4 0-13 .5-16.3 2-30.5.3-44.4.5-2.2 0-4.8 0-6.7.7-.9.3-1.4 1-2.4 1.2-2 .4-5.3.4-7.9.5-4.4.1-6.2-.4-10-.3-8.4.2-20.4 1.6-30.6 1-10.8-.7-22.3 1.3-32.4.5-1.5-.2-3.7-.4-5-.8-1.9-.5-4.7-3-7.4-2.6-2.2.3-3.1 2.8-5.6 3.4-4.7-1.5-9.3-.2-14.4-.5a45 45 0 0 0-12.2.7l-1.7.7c-2.4.3-4.7-.8-7-.7-1.2-3.5-3.4-5.8-5-8.9q-.1-.9-.5-1.9c-1.4-2.5-3.8-5-5.7-7.2-1.8-2-5.2-4.9-6.3-7-1.7-3.3 0-6.7.8-10.3-2.2-2.4-6.8-2.4-8.7-5 4.7-1.2 8.7 3.8 13.2 3.6 1.4 0 4.3-1.3 5.3-2.7 2.7-3.9.5-10-1.7-12.7-3-3.7-8.8-8-13.7-9.8-6.3-2.3-13.4-2.2-20.1-3.1.6 2.5-.8 6-2.4 6.4-5.2 1.7-11.7 1.1-18 2.2-5.4 1-11.3 3.3-16.6 3.8q-1.8.2-3.8 0c-5.1.4-9.8 1.9-15.4 1.5-8.2-.6-15.1-1.6-18.5-7.7-3.5.3-7.2 1.9-10.8 3.4-5.3 5.2.5 11.7 1 17 .5 4.5-1.8 8-2.4 11.8-1.7 11.2-.9 26.2-.2 37.9 1.3.6 1.4 1 1.2 3.1 6.3 1 11.9 1 17.7 1.7 1.1.1 2.2.8 3.4.7 1.9-.2 3.7-1.4 5.7-2.2a60 60 0 0 1 17.8-4c-1.3 1-3.4 1.3-5 1.6-6 1.3-11.5 2.7-15.6 5.3 3.8 0 7.6 1.6 11.7 2 6 .4 11.8-1.7 17.3-.8-6.2.2-11.4 2.8-17.8 2.2-4.6-.5-11.5-3-14.8-2.7-1.8.3-3.5 1.3-5.3 1.7-4.2 1.1-7.8 3-13 3.1 4.7-2.3 11.2-2.9 15.6-5.5-5.7-1.3-12-1.5-17.7-1.9.1 5.1.4 10.4-1.5 14-.6 1-2 2-2.9 3-.9 1.2-1.5 3.2-3.3 3-.3-3.5 3.4-5.1 4.5-8 .3-.7.1-1.4.3-2.2m151-30.4a12 12 0 0 0-8-1.7c-1.2.9-1.2 3-2.1 4.3 4 .3 8.3-1 12.7-.2.2-1-1.6-1.8-2.7-2.4m-147.8 43.6c1.6-.1 2.4.5 3.8.5.2-1.4-3.5-1.8-3.8-.5"/><path d="m331.2 181.2-.7.2c2.6 2 6.3 2.8 10 3.6 2.3 1.1 6.4 2.5 8.7 1.5-.8-1.6-3.6-1-5.3-1.5-4.3-.9-9-2.7-12.7-3.8m-1.2 47.5c12.6 1.4 24.6-2.7 37.4-3.1v-1.2c-13.2 1.4-25.3 3-37.4 4.3m4.3 40.1c-.1 3 11.3 1.6 14.4.7-.5-1.3-2-.3-3.1-.2-3 .2-7.9.2-10.3-.7q-.6 0-1 .2m22.6 104.9c-.2-1-.7-1.8-.3-2.7 4-3.5 10.1 2.5 5.5 5-2 .4-3-.4-4-1.1-2.1-.2-3.7.5-5.3 1-3.1.7-6.5.6-9.9 1.4-3.1.7-6.5 1.8-9.8 1 7.3-2.6 16-3 23.8-4.6m2.4 0c.5.5-.4.4-.3 1.2 1.5.5 3.4.3 3.1-1.7-1-.9-2.5-2.5-4.5-1.7-.4.7 0 1.5.2 2.2.7-.2.8-.2 1.5 0m-.5-211c-.8-1.5-1.9-4.6-3.9-3.3.4 1.7 2.2 2 2 4.3 0 1-1.4 1-.8 1.7q2.3.1 2.2-2.2c.4-.6.5.9 1.4.5 1-1.6 2.3-2.8 3.2-4.6-.5-2-2.9-3.1-4.6-3.1.6 1.4 2.6 1.4 3.1 2.9-.6 1.5-1.7 2.5-2.6 3.8m2.2 197.1c-.7 5 6.4 5 10.5 4 3.6-2.9.8-10.2-5.3-8.1.7 1.3 2.3.6 3.4 1.2 2 1 2.4 3.1 1.7 5.3-2.7 1.2-8.7 1.6-9.2-1.5-.3-2.2 2-3 4.1-3.1-1.9-2.5-5 .7-5.3 2.2m8.9-93.4c-4.1.8-8.8 1.1-12.5 2.4 5-.5 14.7 1 16.6-4.3-1.4 0-1.8 1-2.9 1.4.9-1.4 2.4-2 3.9-2.9 1.3-.7 2.9-2 4.3-2.6 4.5-2 8.2-4.2 13-6l12.2-5c10.7-4.2 21.6-6.8 33.6-8.2 7.7-1 14.7-2.3 22.8-2.2q3 0 6.7-.7c-.8-1-2.9-.5-4.6-.7-2-.3-5-1.3-7.4.2q-14.4 2-29 3.4c-2.5.2-5.4 1.4-8 2.2-6.4 1.9-13 3.8-18.7 6.2s-11.9 4.5-17.7 7.7l-5.3 3.3c-3 1.9-5.3 3-7 5.8m-4.1 48.7c-1.1 4.1-2.7 9.2-2.1 13 2-2.4 2-6 2.6-8.9 1.2-5 3-9.9 4.1-14.9s2.3-9.8 4.6-13.9c.8-.2 2.2.3 2.4 0a30 30 0 0 1 19.6-.5c.8 9.2 1.2 21.4 1.2 31.7 0 2.3.7 4.4 0 6.5-9.6-.8-20.5.5-28.5.5-1.7 0-4.2-1-5 1 .7 1.2 2.6.6 3.5.6 11.9.2 20.6-1.3 30.3-.7a52 52 0 0 0 1.2-20.6c0-1-.7-2.1-.7-3.1-.4-5.8.7-11.6-.8-16.8-6.6-3.6-18-1.4-24.2 0-4.2 7.8-5.8 17.8-8.2 26.1"/><path d="M367.2 360c-.1.9 1.4.9 1.9.5v-.7c-.3-.4-1.9-.5-2 .2m7.5-213.8c-1.1 2.3-4.2-.2-6 .2 1.4 1.7 5.5 3 7.2 1-.6-1.9 1-3 1.5-4.6-1.8-.8-2.9 2.2-2.7 3.4m-2.9 130c-.3 3 .7 5.3 1.7 7 7.5-.8 18.8 2.7 24-1.2-.3-3-3-6.6-5-9.1-.7-.9-2.5-3-3.1-3.4-1.4-.6-5.2-.7-7.2-.7q-1.6.1-3.2.5c-1 .1-2.8-.5-2.8 1 3 .4 8.9-.3 12 .4 2.8 3.3 5.8 6.3 7.6 10.6-3.3 2-8.3.6-12.4.5-3.3-.2-6.5.5-9-.8-.7-.3.4-1.1-.2-1.4q-.9-.1-1.2.5V277c.4-3 2.1-5.4 2.7-7.2-2.4-.2-3.6 3.7-3.9 6.4m.8 104.9c.8 3-.7 7-.3 10.3.5 3.5 1.9 8 4.6 9.6 2.4 1.5 8 0 12.2-.4 5.7-.6 12-.7 16.8-2 5.6-1.4 7.6-9.7 9.1-16a142 142 0 0 0 1.2-45.2c-1.4-2.7-8.8-2-11.5-1.6 1.6 2.2 5.6 0 8.7 1.4 1.8.9 2.1 6.4 2.4 9.1.3 3.8 0 7.2 0 10.3-.5 15.8-1.5 30-7.7 39.4-5.1 1.8-11.7 2.2-18.3 2.6-3.4.3-7.4 1.9-11 1-7.1-1.8-5.3-19.7-2.6-25.7 2.3-5.2 8.3-9.6 12.4-15.6 3-4.4 5.9-9.6 9.2-13.9 2-2.8 5.9-4.8 6.2-8.2-1.6.2-2.5 2-3.6 3.2a55 55 0 0 0-7.2 9.3c-1.2 1.8-2.9 3.3-4 5-.8 1.1-1 2.6-1.8 3.7-1.7 2.5-4.5 4.8-6.7 7.4-3.8 4.4-7.5 8.5-7.7 16.3-.3 0-1-.4-.4 0m.7-195.8c11.8.2 22.3-3.3 32.4-6.5 6.2-2 13.9-5.5 22.3-4.3.4-1.1-2-1.6-2.9-1.7-6.7-.9-13.5 2.2-20.1 4.3-6.3 2-13.3 4.7-19.7 5.5-4.4.6-8.2.1-12 2.7m2.6-31.3c-1.2 0-1.4 1-1.7 2 2.4 2.2 2.3 6.8 4.6 9.1 2.7-.8 6-1.4 6.2-3.8.2-2.1-2.6-3.3-3-5.5-2.6.6.3 3.5-.6 5.2 0 1-1.4.5-1.9 1 1.2 1.9 3.4.3 4.1-1q-.9 2.6-4.3 2.7-2-4.6-3.4-9.6M397 464.2c-8.8 1-22.2-6.9-29.3.4 3.5-.7 7-1.8 10.5-1.6 2 0 3.9 1 5.8 1.2 4.4.4 8.7 1.2 13 0m-18-274.6-.8.2c1.3 4 3 8.2 4.1 13.2.8 3.6 1 7.2 1.4 12.3.7 7.3 2.1 15.2 2.2 22.3 0 3.8-1.8 7.5.2 10.6 1.7-10.3-.2-19.7-.7-30.8q-.1-.7-1-.7c0-.6 1.2.1.8-.7.2-7.9-2-14.5-3.9-20.6-.6-2.2-.4-4.2-1.9-5.6q-.4 0-.5-.2m5.6 7.9c-1.3 1-.3 3 0 4.1.8 4.4 2.4 8.8 3 13.4.6 3.6.4 7.3.8 10.8s2 7.4 2 10.6c-.1 1.6-1.2 2.6-1.3 3.8 3.8 0 2.2-6 1.7-10.3-.4-4.2-.4-8.1-1-12.5-1-7.6-3.8-13.6-4.5-19.4q0-.4-.3-.7zm10.8 63.6a16 16 0 0 1-11.3 4.1c5.3 4.9 12.6-4.2 18-5.8 1.2-.6 3 .8 3.1-1.2-1.6-1.3-4.2-.7-6.7-.7-2.7 1.4-5.9 3.3-8.9 4.3-2.4.8-5.3.6-6.2 3 4.7-.6 8.3-2.1 12-3.7m-5.1-107.5c-1-1.8 0-4.2-2.6-4.3.3 2 .8 4.6 2.6 4.3m2.4 114.2c1.9 1.3 3.5-.7 4.8-1.4l4.8-2.2c5.2-2.7 9-5.5 15.9-2.8 4.2 1.6 9.7 6 12.4 9.3q3 3.6 5.6 7.5c-10.4 3.4-22.8 2.1-34.8 3-2.8-4.1-3.9-10-9.2-11.7 3 4 6.2 7.8 8 13 7.7.6 17.3-.3 25.6-1.2 4-.5 8.4.4 11.3-2 0-3.6-2.9-7-5.3-9.8a35 35 0 0 0-19.2-11.3c-1.3-.2-4.5 1.1-6 1.7-4.7 2-10 5.3-13.9 8m3.9-132.8c-.5 1.5-3 1.3-2.7 2.9q3.2-.2 4.3-2.6c-.1-1-.2-1.8-1.2-2 0-.9 1.4-1 .8-1.6-1.7-.2-2 1.1-3.6 1v1.1c1 .2 2.2.2 2.4 1.2m5.2 310.3c.6 3.2-.6 10 1.7 11.6 2.4 1.5 7 .1 10.1 1 .3 0 0 1 .5 1.6 1.5-1 1.7-4.5 1.7-7.2 0-2 0-4.8-1.2-5.8-1.2 3 .7 7.4-.8 10.6-1.9-1.1-7.4-.7-9.8-2.2-.7-2.4.4-8.3-2.2-9.6m2.9-157.2c2 13.3-.5 29.5 1.7 40.6 2.5-1.5.6-4.5.5-6.7v-11.5c-.1-7.5.5-14.8-.7-21.6 1.5-.6 3.6.2 4.8.7.3 13.2 2.2 25 2.1 38.6-1.6.6-3.2-.4-4.5.7.8 1.4 3.7 1.3 5.5 1 2.1-3.6.5-7.7.2-11.5-.3-4-.1-8.3-.5-12.5-.4-5.7-1.4-10.6-1.2-17.3-2-1.1-5.6-2-7.9-.5m5.1-48.4c-1.4.5-2.9 1.7-4.8 2.4 13.5-4.4 32.7-9 49-9.2-2-1.9-6-.5-9.4-.2q-8 .6-17 2.2c-.8 0-.8 0-1.5.2-3.9 1.2-11.6 2.4-16.3 4.6"/><path d="M411.1 444c-.3 2 1.4 2.5.2 4 2.7 2.1 3.1-5.7-.2-4m6.7 17.5c-2.8 1.1-4.4-2.4-7.2-1.4.4 2.2 2.8 2.3 4.6 3.1-.2 1 .2 3.6 1.4 4.6 1-.5-.3-2.7-.2-3.9 3.3.6 5.7-1.1 7.2-3.1q.2-1.4-.5-2c-1-.4-.7 1-1.4 1.3-2 1-5.3 0-6.8-.7.7 1 2 1.3 3 2.1m3.8-5c-1.4.2-2.6-.5-3.4 0 .5 1.6 3.2 1.8 5 1.4 2.1-4.2.8-9.8-.7-12.7q-.4 0-.5.2c0 3 2 8-.4 11m0-166.4c4.6.7 5.3 4.3 8.1 8.6 1.5 2.2 3.4 4.4 4.6 6.4 3.2 5.4 3.3 10.8 3.8 18 .3 3.3 1.3 6.4.7 9.6-1.3.6-3.3 2-5.5 2-1.5 0-3.2-1-5-1.2-1.4-.2-3 .2-3.9-.3-1.2-.7-2-4.2-2.4-6.5-1.4-9.4-.9-18.3-1.6-28-.3-3.3-1.2-7 1-8.7zm3.8 42.2c.9.5 2-.1 3.4 0 2.4.1 6 1.5 8.4-.5.8-1.8-.2-3.2-.5-5-.7-4.5 0-9.9-1-13.7-1.5-6.3-6.4-11.3-9.1-15.9-1.4-2.4-1.3-4.6-4.3-5.5h-.3c-1.5 1.2-.3 3.7-.2 5.3 1 11.5.4 25.5 3.6 35.3M421.4 478c-1.2 6-.2 15 3.4 19.5-.5-3.2-2-6.4-2.2-9.6-.2-2.6 0-6.4.7-8.9 1.5-4.8 6.9-6.3 10.4-9v-.8l-.5-.2c-4 .3-11 5-11.8 9m1.2-99.3c0 5.3-.8 10.6-4.3 13 5.5-1 5.9-7.4 5.8-12.7-.1-4.6.3-9.5.4-16.1.2-5.5-.1-12.8 1-18.7l-.5-.8q-.4 0-.5.3a277 277 0 0 0-1.9 35"/><path d="M420.5 393.1c2 1 4.8.9 7.4.7l6.5-.2c3-.2 7.2-.5 9.3-1.4 2-1 4-4.9 4.6-7.2 1.7-7 0-16.3.5-25.7.2-6 1.4-11.7.5-16.6-2.4-1.4-7.1-.3-10.4-.2s-7.3-1.2-10.3-.7c-.7 0-2.1 0-2.4 1.2 1 .8 2.6 0 3.9 0 3 0 6.2.8 9.8.7 2.6-.1 5.2-.7 7.7.2.6 6.9-.3 14.6-.5 22.3-.2 8 1.4 18-3.1 23.8l-2-1c-.5.2.1 1.5-.4 1.7-6.6 2-15.2.8-21.1 2.4m8.6 51.1c-2 1.1-1 5.3-.7 7.5 1.5-1.5 1.1-6 .7-7.5m.2 50.2c-1.2 2.4 5.8 9.9 6 3.6-1-.1-1 .8-1.9 1-2-.9-2.9-2.9-4-4.6m-.5-37.7c.8.4.6.5 1.9.5.8-.7 1.3-2.7.5-3.6l-1 .5c.4 1.8-1 1.7-1.4 2.6m.9 22.6c1.4.3 1.7-2.3 3.1-2.7 1.4.9 2 2.6 3.4 3.4q.1-.2.5-.2c.1-1.5-2.1-2.6-2.4-4.4-2.5-1.9-4.5 1.2-4.6 3.9m2.2 9.1c-.5.8-1.1-.3-1.7-.2q.3 2 2.4 2.1c1.6-1.2.8-5.3-1.4-6-.3 1.9.8 2.4.7 4.1m11.5-191.8c2.9 4.2 5.6 7.9 6.5 14 .3 2.2 0 5 .2 7.6.5 5 1.6 9.2.3 13.5-1.7 1.4-4.5 1.7-6.5 2.1-3.7-1.4-3.3-4.8-3.4-8.6q-.2-4-.7-8.4 0-4-.5-7.2c-1.6-8.4-8.3-12-10.8-19.4 1.5-1.7 5.4-.9 8-1.5a31 31 0 0 1 6.9 8m-3.4 9.4c2 4.6 1.8 11 2.2 17 .2 3.4-.9 7.7 1.4 9.4q3-.2 4.8-1.7c1.5-4.1.5-8 0-11.7-.7-6.2 0-11-2.8-16.4-.8-1.5-2.6-3.3-3.9-5.2-1.5-2.2-2.6-5.7-4.8-6.8-1.7-.8-4.5.2-6.5.3 2.7 5.5 7.2 9.1 9.6 15.1"/><path d="M436.5 491.8c-.8 2.3-3.1 3.3-4 5.2 6.3-1 8.2-12 3.3-16q-.3 0-.5.4c1.5 3.5 2.6 6.7 1.2 10.4m24-102.3c-1-2.3-3 .9-2.6 2.2.8 3 7 1 4.8-3.1q-.9-.1-1.2.2c-.1.7.4 3-1 3.1q-1 0-1.4-1c0-1.4 1.1-.7 1.4-1.4m8.7-140.4c-2.2 1.2-4.3-1.1-6-2.1-2-1.2-4.3-2-5.5-3.6 1 .6 1.2-.4 1.9-.8q6 2 9.6 6.5m-8.9-5c-1 .9 2.7 1.3 3.4 2.1.1-1-2.4-1.5-3.4-2.1m31.7-6.7c-8.1 0-15.2-.6-24 .4a125 125 0 0 0 27.8.5q4-.4 8-.2c2.7 0 5.6.7 8.1.5 1-.2 2.4-1 3.1-1 2.1-.3 4.3.2 6.5.2 14 0 29.2-.8 44-.7q10.9 0 21.8-.7c7.2-.5 14.2.4 20.6.7 0-1.6-3-1.5-4.8-1.7q-8.9-.9-16.3-.4c-10.5.2-22-.3-33.6.2-7.2.3-14.6 1-21.9.7-12.5-.5-24.9 1.2-39.3 1.5m-10.8 41.2c-.5 2.1 1.1 4.1 1.4 6.5v2.7c.5 7 3 14.4 4.1 21.6 1.6 10.4 2.9 22.5 3.6 33l-.2 3.4c.3 3.7 2 7.6 1.6 11-.2.7-.7-.3-1.4 0 .8 4 5.7 5.1 11.3 5.1 2.8 0 5.5-1 8.9-1.7 3.2-.6 7-.6 10.3-1 3.3-.3 7-.2 7.9-2.8-1.3-1.7-2.9 0-4.3.2-4.4 1-9.7.4-14.4 1.5-4.7 1-12.5 2.2-17.3-.3.5-7.4-1.4-20.7-2.2-30.2a279 279 0 0 0-5.5-36.2c-.7-3.7-.7-7.2-1.9-10.8 13.2 1 26.4-2.8 38.6-.3 2.7 5 1.4 10.7 2.4 16.8.6 3.3 1.6 6.4 2 9.9.8 7.3 1.2 14.9 2.4 22 1.3 8.5 1.2 17.7 2.1 25.2.5 1.3-1.4.2-1 1.5.6.2.8.9 1.3 1.2 2.6-1.7 1.4-5.4 1.2-8-.6-5-.7-11-1.5-18q-.6-4.2-1.4-8.3c-.8-6.6-.8-13.2-1.7-19.5-.5-3-1.5-5.8-1.7-8.6-.2-3 .1-6-.2-8.9-.3-2.1-1.7-4.5-1.2-6.5-7-2.5-18.8-1.5-28.6-.5-5 .5-9.8.2-14.6 0m2.4-46.8q-1.2 0-1.2 1 1.4 1.3 2.6 2.9c1.8-1.3-1-2.5-1.4-3.9m6 1.2-.3.8c.3 1 1.6.8 1.2 2.4q.8-.4 1.2-1-.3-1.9-2.1-2.2m3.4 129h-.8c1.3 12.2 3.1 25 4.1 38.3.6 9 0 19.6 3.6 26.2.7-.7-1.2-2.3-.5-3.4-1.4-3.5-.7-8.4-1-13.4a276 276 0 0 0-2.1-23.3c-1-8-1.3-16-2.4-22.3 0-.6-.5-.8-.5-1.5zm21.6-118.8c7.6 6 14.6 16.3 17.6 26.2.4 1.6 1.6 4.6-.5 6 0-6.3-4.2-12.7-8.2-18.5-2.6-4-5.1-7.1-7.4-10.6-2.2-1.3-5-3.3-7.7-2.6-.3-1.5 1.5-.9 2.2-1.4-1.5-1.2-3.5-.5-4.1-2.2 3 .3 6 1.4 8.1 3.1m7.5 9.9c-.1.9 1.2 2.4 2.1 3zm2.6 3.3c-1 0 .4 1.2.5 1.7.7-.5-.6-1-.5-1.7"/><path d="M519.3 287.8c-.3 12.4 2.3 24.5 2.4 37.4q0 7 1 14c.9 5.5 2.8 10.5 2.6 16.7 1.3-.6 1.4-2 1.5-2.9.3-4.1-1.3-9.4-2.2-14.1-.8-4.6-.3-9.2-.5-14-.3-10-2.6-20.1-3.6-29.7-.2-2.2.2-5.8-.2-7.7-.6 0-.7-.4-1 .3M535.2 439q-.9-.1-1.2.2c1.7 6 2.5 13-.7 18.7 4.6-3.8 4-12.8 1.9-19m6-68.9c-.3.1-.2.6-.5.6 1.2 9 .5 18.5 1.2 27.6l.7 9c.2 5.2-.9 12 3.9 15.7a17 17 0 0 1-2.4-9.4c.2-13.7-2.2-31-2.2-43-.2-.2-.7 0-.7-.4m11-23.3c8.7.5 17.1-2.2 25.7-2.9 8-.6 15.5-.8 24-1.7h1.4c.4 0 1-.7 1.2-.7 1 0 2.2.5 3.2.5 7.4-.3 16-.3 22.8-.7 14.5-1 29.9-1.1 44.6-3.4 12.3.4 25.4-1 38-2.1 9.4-.8 18.4-1.1 28.5-2 5.9-.5 12-.3 18-2.1q.5 0 .5-.5c-16.5 2.6-32.8 2-51.6 3.8-11.9 1.2-23.6 1.3-36 2.4l-13 1.5c-23.2 1.8-44 .7-67.4 2.6q-14.7 1.2-28.1 3.1c-4 .6-8.1.8-11.8 2.2m12.3 5c7.2.9 14.5-.7 21.8-1.4s14.8-1 22-1.7q16.4-1.4 33.2-1.9c3.7-.1 7.2-1.2 10.8-1.4q9.6-.5 19-.5c6-.1 12-1.3 18-2 12.4-1.3 24.7-1 37.2-1.6 24.6-1.4 49-4.5 73.9-4.3-12.6-1-28.2-.2-42 .4-2.8.2-5.6 1-8.4 1.2-17.8 1.6-42 1.5-59.8 3.2-5.2.4-10.4 1.5-15.6 1.9-9.3.7-18.6.5-27.8 1.4-9.5 1-19 .9-28.3 1.7-18 1.6-36 2.5-54 5m9.5-57.6c.1 1-1.3.4-1.1 1.5.8.6 2.2.1 2.6-.5q.1-1.7-.7-2.6-1.6 0-1.7 1.4c.3.6.7-.4 1 .2m14.4 5.1c-8.7-5.4-8.1 12.8-7.2 19.9.6 4.7 3.2 11 5.7 13.7 4.8 5 10 2.1 11-5 1.1-7 1.3-15.9-.7-22.1-1-3.4-2.4-9-5.7-9.9-1.5-.4-3.3-.4-3.9 1 .4 1.1 1.7.2 3.2.5 4 4.1 6.3 11.4 6.2 20.1 0 4.9-1 15.6-4.6 16.1-1.5.2-4.1-1.9-5-3.1-4.4-6.4-7.2-22.1-2.6-30.7 1.2-.5 2.8-.2 3.6-.5m-7 57.3c.3 2.3 3 2.3 4.6 3.6a62 62 0 0 1 14.4 30.5c1.6 9.6 1.3 18.3-4.6 24.5 2.4-1.2 4.4-3.7 5.5-6 3.3-6.7.9-15.8-.7-22.6q-2.5-11.7-8.6-20.6c-2.8-4-5.4-8.7-10.6-9.4m18.7-60.9c-.4 1.4.5 2.4 2.4 2.1.4-.9.5-1.4 0-2.4-1-.2-1.4.4-2.4.3m9.6-6.7c1.2 2.3 5.4 1.8 7.2 3.6 1 7.2 3.8 14.3 2 21.8-2.7 0-5.6 1.3-7.5.5-4-1.6-5.4-15.9-5-22.1 0-1.8 2.1-3.9 3.3-3.8m7.7 24.4c1.4-6.1-.8-14.4-2-20.4l-5.4-.2c-.4-.8-1-1.4-.5-2.4q-.9.6-1.5 1.7c0 7.2 0 15.4 3.9 21.3 1.7.4 3.4-.6 5.5 0m-4.1 43.7c-2-2.4-3.7-5.5-7.9-4.3.8 1.2 2.4.8 3.4 1.2 4.2 1.7 6.6 6.5 9.3 9.8-.1-2.6-2.6-4.3-4.8-6.7m-5-149.1c1.8.1 2.4-2 3.1-3 2.8-4.1 7-7.2 9.4-11.8.2-1-.6-.9-.8-1.4-1.6 6.6-9.7 10-11.7 16.3m6.7 28.5c-1.7.2-3.2.2-6 0 2.5.6 6 2 8 1 .6-1.4-.8-1.4-1.3-2.4 7 .5 18-.5 24.5-.2 4.6.2 8.1-.8 12-1 5-.3 10.4.2 15.8 0 4.5-.2 9-1 13.5-1.2 2.3 0 4.6.4 7 .2 7.3-.5 14.8-1.5 22.7-1.2-3.4-2.7-9.2-.6-13.2-.4l-1.9-.3c-2.8-.1-5.5.6-8.4.7-4 .3-8.3-.2-12.5 0q-5.5.4-11.2.5h-9.9q-9.3.7-18.5 1c-4.2 0-11.2-.2-15.6 1.4q-2.8-.8-6.2-.5c-.6 1 .8 1.7 1.2 2.4m1.2 232.4c-3.4 1.8-3.8 9.2-2.2 13.4-.3-4.3.6-9 2.7-12.7.1-.6-.5-.4-.5-.7m1.4-249c-.4.2-1.4.1-1.4 1 5.9-.1 10.2-1 16.6-.2-2.4-1-5-1-7.2-1-2.6 0-5.5-.3-8 .3m2.4-5.8c2.4 0 5.9.9 8.7.3q.1-1-.5-1.2c-2.6.4-7-1.2-8.2 1m4.4 273c-1.3-3.5 0-7.3 1.4-9.6.2-.6-.5-.4-.5-1-4.5 3.2-3 15.2 4.3 12.3-.2-2-3.5-1.1-5.2-1.7m-.8-248.1c1.7 2.3 4.4 2.8 6.5 4.5 7 5.6 10.7 14.6 14 24-2-13-8.7-24.7-20.5-28.5m3.2 81.6a3.4 3.4 0 0 0 3.3 2.1q.2-.5.7-.7c0-.7-.5-1-.4-1.9h-1q-.3.4-.2 1.2c-1.2-.3-1.5-.7-2.4-.7m6 125.1c-1.6-.1-2.4-.9-4.1-.8 1 1.6 3.3 2.8 5.5 2.4.5-1.7 1.5-4.7.7-6.2h-.7c-.8 1.1-.5 3.5-1.4 4.5m-3.9 9.4c-1.6 2.2 0 7.6.7 9.8 2-1.3-1.1-6.6 1.2-8.9 1.2.2 2.2.9 3.2.5q0-.4.2-.5c-.8-2.1-4.3-2.2-5.3-1m12.7 13c-2.8-2-4.3 6-2.6 8.7.6-3 .3-7 2.6-8.7m2.2 15.2q0 1.6.7 2.6h1.7c.8-1.6.8-5.5-1.4-5.5.3 1.5 1.1 2.8.7 4.5-1.2.1-.4-1.8-1.7-1.6"/><path d="M645.8 465.6q-.6 0-1 .2c.2 1.3 1.6 1.6 2.5 2.7 3.2 4 6.4 11.4 5.2 18.5-.3 1.8-1.6 2.1-2.8 3.6 1.3 2.2 0 5-1.2 6.7-4 .7-4.1-2.5-6.3-3.6.4 3.8 4 7.6 7.7 5.3 2-1.2 2.2-5 2.2-7.7 5-8 .6-22.2-6.3-25.7m4.3-168c-.7-.9 0-.8 0-2 8.2-3.4 10.8 4.2 12.3 11.4a49 49 0 0 1 1 13.4c-.6 5.1-1.3 12.3-7.3 11-2-.4-5.9-5.3-7.2-8.8-2.1-6-2.7-16.3-1.6-21.4q.6-2.6 2.8-3.6m9.4 31a45 45 0 0 0 1.4-19.5c-.8-6-2.4-12.4-7.4-13a5 5 0 0 1-3.6 3.4 40 40 0 0 0 1.7 24.3c1.4 3 4.7 7.5 7.9 4.8m-4.8 73.2c-3-2.2-2.8 4.3 0 4.5 1.7.1 2-1.3 2.9-2.6-.6-1.1-.6-2.9-2.2-2.9-1 1.3 1.3 3.5-.5 4q-1.4 0-1.4-1.6c-.1-1 .6-1.1 1.2-1.4m5.3 36.7c-2-.1-2.5 2-2.4 3.1 2 .2 2.2-1.4 2.4-3.1m18.7-230.9a21 21 0 0 0-9.1-2c2.5 1.2 6 1.4 9.1 2m-3.4-32.6c1-10.5 1.6-21 4.1-28.6.4 3.3-.3 7-.7 10.8q-1.2 12-2.9 24c-.4 2.5-1 5.4-1 7.7 0 1.7-.2 4.4 2 5.3.8.1 0-1.5 1-1.2.7.4.7 1.6 1.9 1.6 1.2-.2 1.5-1.3 2.8-1.4 3.5 2.3 6.4.4 6.5-2.4.2-3.5-.2-8.2-.2-13 0-11.4-.3-22.1.2-31.4h.7c1 2 .1 5.1.3 9.1 0 1.7.6 3.5.7 5.5.5 7.4.1 16.4.2 22.4.1 4 .5 9-.2 10.5-1.1 2.3-5.8 4-9.4 3.4-.7-.1-1.5-.8-2.4-1-2.5-.6-4.7-.7-5.5-2.4-.6-1.2-.6-4.6-.5-6.5.3-4 2-8.6 2.4-12.4m6 20.4h2c-.3-1-2-1.5-2 0m7-133.4c-5-1-12-3.2-16.3-.8 6 0 10.6 1.1 15.8 2.9 0-1 1-1.2.5-2.2m17.3 144.3c-9.3.4-16.2 2.2-23.8 1.2 6.6 2.1 13.2.8 19.2 0 7.7-1.1 16.6-.2 23.8-1.2v-.8l-.5-.2c-4 1.2-12.2.6-18.7 1M690.5 62.9c-1.6.9-1.3 4.4-1 6.5 3.7 4.3 11 .5 15.4-1q.7-3.4 3.3-4.8c3.4 1.4 7.5 0 9.9-1.7 2.5 1.2 9.6 3 10.8-.7-1.7-.6-3 .8-5 .7-3.6 0-7-3.6-9.2 0-1.2-.5-1.9.5-3.1.5-1.1 0-2.1-.8-3.1-.7-3.2.1-4.2 2.8-5.6 5.3-2.7.4-9.6 4.3-12 1.4-1-1.3 0-3.8-.4-5.5m6.2 282.5v1.2a12 12 0 0 1 6.2 4.5c-1-2-2.6-5.5-6.2-5.7m1.7-244.6q-1-.1-1.2.5c1.3 2.2 4.3 1.4 6.5 1.9 5.7 1.3 11.1 8.7 12.4 14.2q.5 1.6-.2 3.3c.9 3.6.3 8.8 2 10.8-.5-3 0-7 0-10.5-.1-11.6-8.6-18.9-19.5-20.2m6.7-51.6c-.3 1.1.8 1 1.7 1 1.5 1 2 3.2 4.5 3.3 1.4 1.2 1.5 3.5 2 5.5 2.4.3 2.4-2.8 4.5-2.1-.3-1-2.2 0-3.1 0-1.2-.9-.4-3.3-1-4.3-2.8-.2-4.3-1.7-5.7-3.9-1 .2-2.2 0-2.9.5m5.3 247c-2.4 7.4-1 26.7 4.3 30.7 4.7 3.5 10-.3 11.5-3.9a38 38 0 0 0 1-14.4c-.5-6.4-3.3-13.5-5.8-15.6-1-.8-3.9-2-4.8-.2.2 1.4 1.9-.1 2.7.7 5.9 4.3 7.2 19.4 5.5 27.9-.3 1.6-2 3.3-3.1 4.5-8.6 2.1-10.5-8.8-10.8-17.7-.3-6.2 1-14.5 5-15.6-2.5-2.3-4.8 1.5-5.5 3.6m12.9-152.9-.7.2c1.1 16.4 1.8 33 2.9 47.8 1-1 1-3 1-4.6 0-6.8-1-13.8-1.5-20.6l-1.2-22.3c0-.3-.5-.2-.5-.5m-1.4 86.9c1 1.3 2.3-.2 3.4-.5l6.2-1.5c3-.7 6.9-1.9 10-2.1 1.9-.2 3.9 1 5.4-.5-4.2-2.5-10 0-15.4 1.4-3.6 1-7.5 1.2-9.6 3.2m11.3-26c-.8 0-1.3-1-1.5 0 2.2.6 4.9 1.7 7 .8-.2-1.6-3.7-.6-5.5-.8m-.5-139.9c-2.5 3.2 5.6 5.1 4.3 1-1.2-.1-1 1.2-2.1 1.2l-.5-.3c-.4-.8.2-2.1-1.7-1.9m4.3-5.5c-.3-1.8-2.1-.9-3.8-1.4 0 1.7 2.8 1.5 3.8 1.4m-2.6 179.8c.6 1.7 3 2 4.3 2.6 2.4 1.1 5.3 2 7.2 3.8a46 46 0 0 1 11.3 21.9q0-3.1-.5-5.5c-1.7-7-7-16.5-12-19-1-.5-2.7-.6-4-1.2-2.3-1-3.6-2.6-6.3-2.6m4.3 171.6c-.5 1.3-.6 4.1 1 4.8-1-1.3.1-3 .2-4.6 5.2 0 9.6-1.2 15.8-1a79 79 0 0 0 15.9-1.2c9.3-1.2 19.1-.7 28.3-1.2 7-.3 13.5-1 20.4-1.9 2-.3 4.8 0 5.8-1.9-.7.2-.5-.5-1-.5-6.2 1.8-11.9 1.3-19 2-2.3.1-4.7.8-7.2.9-3 .1-6.2-.2-9.3 0q-5.3.5-10.6.7c-6.4.3-12.9 1.4-19.2 1.7-3.2.1-6.4-.5-9.6-.2-4.1.3-7.6 1.7-11.5 2.4m.7-345.6c-.2.7-.4 2.4 0 3 2 1 3.2-.5 3.1-2.3-1-.6-1.4-.6-3-.7m2.8-6c-.2.5-1.5-.1-1.7.4.9 1.7 3 .6 3.6-.4 2.5.8 4.6-.5 4.6-3-.6-.5-1.7 0-2.4 0q.2.6.7.8c-.3 1.8-3.4 1.4-3.8 0q-1.1.4-1 2.2m4.3 289.6c-1-1.5-1.7-3.3-4.3-3.3.6 1.8 3.3 2.7 4.3 3.3m.7-120.2c-.4 2.2 1.4 4 3 5-.8-1.6-2-2.7-2-5zm3.4 5.8q-.4 0-.5.2c.5 1.4 2 2.3 3.1 3.6 2.2 2.3 3.4 5.4 8.7 4-.4-2-2.4-1-3.6-1.6-3-1.2-4.8-5-7.7-6.2m1.4-25.8c0 1.4 1.2 5.4 2.2 6-3-9.7 7-11 12.5-8.6 1 3 3.6 4.9 3.1 8.2-.6 3.5-5.3 6.8-9.1 6.2-2.3-.3-3-2.8-4.6-3.3.1 9.9 15 5 15.9-2.9.5-4.3-2.7-6.8-4.4-10-5-3.2-15.4-1.4-15.6 4.5m6.5-158.9c0 3.2-3 1.3-4.8 1.7.7 2.5 7.5 1.9 5.5-1.7zm3.1 195.8q-.5 0-.4.5l8.6 4.6c1.4.7 3.2 2.2 4.8.7-4.8-1.4-8.4-4.1-13-5.8m-1.4-46c1.2 1.4 3.2.8 4.8 1.2q1.6.3 3.4 1.2c2 1 3 2.9 6 3 2 .2 4.5-.7 7-1.1 7-1.3 13.7-2 19.4-3.6-6.5-.1-12.8 1.1-18.8 1.9-2.7.4-4.9 2-8.1 1.4-1.5-.2-2.2-1.5-3.6-2.4q-4.7-2.7-10.1-1.6m10.6-21.2c-2.3.3-5 1.4-7.2 1.2 2.6 2 5.7.2 8.4 0 2.9-.1 6.3.5 8.6 1 9 2 14.2 8.6 19.2 14.4.1 1 1.1 3.2 2.6 3.6-.4-6.7-5.5-10.7-9.3-14.9-.8-.2-.8.4-1.2.5-5-3-12.9-6.7-21.1-5.8M768 283.7c-1 .8-1.3-1-2-.3-.5.8 0 2 .3 2.7 6.6 1 .8 10-2.6 4 2.3-.8 0-4 .4-6.2.3-1.8 3.4-3.6 3.9-.2m-1 3.8c-.8.8-1 2.3-1.7 3.4q1.5.4 2.4-.5.3-2-.7-2.9M770.6 49c-1-1.1-3-.7-3.6.4 2 .7 2.5 3.7 4.3 3.9 2 .2 4.7-4.2 8.2-2.9q0-.4.2-.5c-2.2-2.4-6.5.2-7.9 1.7-1-.2-1.3-1.2-1.9-2-.1-.5 1 .2.7-.6m8.4 239.7c1.8-.4 8.5 1 10.6 2 10.6 4.5 10.1 31.2-5.5 29.2-1.3 3.5-8.2-1.5-9.4-2.6-5.5-4.8-6.4-15-3.1-22.3a13 13 0 0 1 7.4-6.3m3.6 31.5c0-.8-.6-.9-.7-1.5 10 1 14.2-7.4 13.2-16.8-.2-2.4-1.7-6.5-3.4-8.1-2.5-2.6-7.5-3-10.5-4.1-1.7-.7-7 3.8-8 6a26 26 0 0 0-1.6 12.7c1 6 5.3 9 11 11.8M779 209.3c-1 .4-2.8 1-2.6 2.4 4.6-.2 9.5-2 14.4-3.6s10.1-2.3 14.1-4.8c0-.4.2-1-.2-1l-.7-.5c-2.4 1.5-5.8 1.8-9.4 2.7-3.3.8-6.7 2.8-10 3.3-2.4.4-3.6.6-5.6 1.5m1.5 49.4c-1.9 1.4-1 6.2 1 6.7-1.2-2-.4-4.9-1-6.7m3.3-9.3c0 .6.8 0 1 0 5.1-3.5 11.2-4.2 14.9-9.6a48 48 0 0 0 6.7-17.3c.4-3.2.2-7.1-.3-10.3 0-.9 0-2.3-1-2.7-1 4.2.2 8.3-.4 12.3-1.3 9-5.8 16.8-11.5 21.8-3.8 1.2-6.2 3.9-9.4 5.8m6 14.8c-2 1.4-3.3.2-5.3.8 1.7 1.3 4 1.2 6 .7 1.8-2.2.4-7.5 2-9.9l-.5-.2c-2.3.4-1.5 5.9-2.2 8.6M787 85c-1 1.7.3 3.2.7 5 .5 3 .1 6.1.4 9.1.4 3.6 1.7 7.7 2.2 11.8.5 4 .5 8 1 12 .3 2.4.9 4.6 1 7 .3 11.5-.8 22 1.8 31.6q-.4 4.8.5 10.8c1.5-3.6.6-7.3.3-11.3-.3-3.1-.9-6.8-1-10.3-.4-11.7-.7-24.3-2-37.9-.3-4.7-2.1-9.3-2.6-14-.4-4.4 0-9-1.6-13.1l-.3-.7z"/><path d="M798 346c-.3 2.2 2 2.1 3.1 2.7 9 5.2 14.8 18 15.1 32 .2 7.3-3.6 16.2-7.4 20.6a8 8 0 0 1-5 2.4c3.5 1.5 5.3-1.5 7.1-3.9 3.5-4.2 6.8-11 6.8-17.7-.1-16.5-7-31-19-36h-.7m0-301c3.9.6 8.3-2 13-2.9q-.1-.3-.5-.2c-2.8.1-5.6.9-8.2 1.4-1.7.4-4 .3-4.3 1.7m12.7 290.7c-1.5.1-4.2-.9-5 1.4 6-.5 14.2-1 19.9-1.7.2-.8-.8-.3-.7-1-5 0-10 .8-14.2 1.3m-2.2-65.8c-.7 4.5 2.4 9.3 2.7 14.4a24 24 0 0 0 11.3 5.5c-2.8-2.8-8.3-2.6-10.1-6.5-.6-1.2-1-3.6-1.5-5.5q-1-3-1.4-5.3c-.1-1 .7-2-.2-2.6zm10.8-229.2c-.8 0-2-.7-1.9 1 4.8.8 10.8.5 14.9 2.1-2.3-2-9-3.3-13-3.1m7.5 206.4c-1.2-1.2-3-3-4.8-2.4 5 3.4 8.8 8.2 12.5 13 .4-1-1.7-1.5-1.2-3.4-2.8-1.3-4.3-5-6.5-7.2m-4.6 162c2 .8 5.1 1 6.7-.2 1.7-2.2-.3-5.6-2.8-4.8 0 1.2 1.7.8 1.9 1.9 0 3-3.5 2.4-5.8 3.1m17.1-71.8c-.4 2 2 5.2 4.3 6-2.1-1.3-2.4-4.5-4.3-6m5.5-5.2c-.8-1.4-5.1-.9-6 0 1.7 0 4 1 6 0m2.2 90.7c-3.2-1.3-4.3 5.5-2.5 7.9 1.4-.8.3-2.5.5-3.8.3-1.8 2-2.5 2-4.1m-2.2 17.3c.1 2.5 1.6 5.7 3.6 7.2 7.6.5 10-7.6 9.8-14.7-.2-5.7-1.6-11.3-6-13.2h-1c.9 2.8 4 4.6 4.6 8.7v2.8c.2 1.7.9 2.8.5 4.4-.5 1.8-1.1 4.8-1.7 6-.7 1.4-2.9 3.8-5 3.6-2.6-.4-2.4-3.8-4.8-4.8m4.1-52.4c-.3 2 .5 2.9 1.4 3.6.5-.3-.3-1.3-.2-1.9.6-2 3.5-1.6 5.2-2.4-1.2-2.2-5 0-6.4.7"/><path d="M850 433.7c0 1-1.2 0-1.1.5 0 1.8 1.5 2 2.8 1.4 1.3-2.5-1.5-7.6-1.6-2m-1-7.6c.1 1.5 2.5.5 2.2-.7-.7-.5-1.6.4-2.2.7m8.6-33.1c4.8 1.9 6.5-4.7 7.5-7.5-3.1 1.9-3 7-7.5 7.5m9.6-10.3a16 16 0 0 0-7.2 0c2 .5 6 1.7 7.2 0"/></svg>