<svg xmlns="http://www.w3.org/2000/svg" xmlns:xlink="http://www.w3.org/1999/xlink" viewBox="0 0 1052.4 744.1"><defs><linearGradient id="h"><stop offset="0" stop-opacity=".8"/><stop offset=".5" stop-opacity=".4"/><stop offset="1" stop-opacity="0"/></linearGradient><linearGradient id="f"><stop offset="0" stop-color="#a00"/><stop offset="1" stop-color="#5d0000"/></linearGradient><linearGradient id="a"><stop offset="0" stop-color="#3f3f3f"/><stop offset=".5" stop-color="#d8d8d8"/><stop offset="1" stop-color="#383838"/></linearGradient><linearGradient id="l"><stop offset="0" stop-color="#1a1a1a"/><stop offset=".9" stop-color="#1a1a1a"/><stop offset=".9" stop-color="#2f2f2f"/><stop offset="1" stop-color="#1a1a1a"/></linearGradient><linearGradient id="j"><stop offset="0" stop-color="#1a1a1a"/><stop offset=".3" stop-color="#1a1a1a"/><stop offset=".9" stop-color="#414141"/><stop offset="1" stop-color="#1a1a1a"/></linearGradient><linearGradient id="g"><stop offset="0"/><stop offset=".6"/><stop offset="1" stop-opacity="0"/></linearGradient><linearGradient id="e"><stop offset="0" stop-color="#4d4d4d"/><stop offset=".4" stop-color="#fff"/><stop offset="1" stop-color="#4d4d4d"/></linearGradient><linearGradient id="c"><stop offset="0" stop-color="#c8c8fa"/><stop offset="1" stop-color="#c8c8fa" stop-opacity="0"/></linearGradient><linearGradient id="b"><stop offset="0" stop-color="#e5e5e5" stop-opacity=".9"/><stop offset="1" stop-color="#fff" stop-opacity=".9"/></linearGradient><linearGradient xlink:href="#a" id="F" x1="245.3" x2="288.2" y1="381.9" y2="448" gradientUnits="userSpaceOnUse"/><linearGradient xlink:href="#a" id="t" x1="705.2" x2="742.3" y1="396.8" y2="437.3" gradientUnits="userSpaceOnUse"/><linearGradient xlink:href="#b" id="U" x1="602.8" x2="610" y1="40.3" y2="36.6" gradientTransform="translate(-430.4 484.8)scale(1.6927)" gradientUnits="userSpaceOnUse"/><linearGradient xlink:href="#c" id="T" x1="721.3" x2="234.9" y1="340.4" y2="372.1" gradientTransform="translate(-305.2 24.4)scale(1.6927)" gradientUnits="userSpaceOnUse"/><linearGradient xlink:href="#a" id="S" x1="235.8" x2="304" y1="685.9" y2="762.4" gradientTransform="translate(-306.4 -498.6)scale(1.6927)" gradientUnits="userSpaceOnUse"/><linearGradient xlink:href="#e" id="R" x1="272.8" x2="232" y1="761.8" y2="688" gradientTransform="matrix(1.6927 0 0 1.7094 -306.8 -512)" gradientUnits="userSpaceOnUse"/><linearGradient xlink:href="#e" id="Q" x1="766.8" x2="693.1" y1="690.2" y2="766.5" gradientTransform="matrix(1.6927 0 0 1.7056 -305.2 -507.3)" gradientUnits="userSpaceOnUse"/><linearGradient xlink:href="#e" id="P" x1="686.3" x2="769.1" y1="379.2" y2="461.1" gradientTransform="translate(-305.2 24.4)scale(1.6927)" gradientUnits="userSpaceOnUse"/><linearGradient xlink:href="#b" id="M" x1="397.4" x2="425" y1="328.4" y2="289.4" gradientTransform="translate(-305.2 24.4)scale(1.6927)" gradientUnits="userSpaceOnUse"/><linearGradient xlink:href="#c" id="L" x1="361.1" x2="380.2" y1="323.4" y2="280.1" gradientTransform="translate(-305.2 24.4)scale(1.6927)" gradientUnits="userSpaceOnUse"/><linearGradient xlink:href="#e" id="K" x1="308.6" x2="228" y1="764.3" y2="683.1" gradientTransform="translate(-305.2 -497.4)scale(1.6927)" gradientUnits="userSpaceOnUse"/><linearGradient id="I" x1="243.9" x2="302.2" y1="688.7" y2="758.3" gradientTransform="translate(-305.2 -497.4)scale(1.6927)" gradientUnits="userSpaceOnUse"><stop offset="0" stop-color="#333"/><stop offset=".5" stop-color="#5d5d5d"/><stop offset="1" stop-color="#333"/></linearGradient><linearGradient xlink:href="#f" id="G" x1="801.2" x2="813.5" y1="720.5" y2="709.6" gradientTransform="matrix(1.6927 0 -.25709 1.7937 -982.4 -581.7)" gradientUnits="userSpaceOnUse"/><linearGradient xlink:href="#a" id="E" x1="689.4" x2="763.2" y1="764.3" y2="691.7" gradientTransform="matrix(1.713 0 0 1.7646 -320.6 -549.6)" gradientUnits="userSpaceOnUse"/><linearGradient xlink:href="#b" id="z" x1="262.7" x2="730.7" y1="353.4" y2="353.4" gradientTransform="translate(-305.2 24.4)scale(1.6927)" gradientUnits="userSpaceOnUse"/><linearGradient id="y" x1="455.5" x2="453.3" y1="331.5" y2="440.7" gradientTransform="translate(-305.2 24.4)scale(1.6927)" gradientUnits="userSpaceOnUse"><stop offset="0" stop-color="#00c"/><stop offset="1" stop-color="navy"/></linearGradient><linearGradient xlink:href="#c" id="x" x1="644.8" x2="714.6" y1="369.4" y2="369.4" gradientTransform="translate(-305.2 24.4)scale(1.6927)" gradientUnits="userSpaceOnUse"/><linearGradient xlink:href="#a" id="w" x1="688.1" x2="688.1" y1="89.5" y2="101.3" gradientTransform="translate(-339.7 540.2)scale(1.6927)" gradientUnits="userSpaceOnUse"/><linearGradient xlink:href="#e" id="s" x1="374.3" x2="376.4" y1="428.5" y2="435.8" gradientTransform="translate(-305.2 24.4)scale(1.6927)" gradientUnits="userSpaceOnUse"/><linearGradient xlink:href="#g" id="r" x1="336.2" x2="306.7" y1="431.7" y2="368.2" gradientTransform="translate(-305.2 24.4)scale(1.6927)" gradientUnits="userSpaceOnUse"/><linearGradient xlink:href="#e" id="q" x1="335.1" x2="335" y1="737.2" y2="744.4" gradientTransform="translate(-305.2 -497.4)scale(1.6927)" gradientUnits="userSpaceOnUse"/><linearGradient xlink:href="#g" id="p" x1="218" x2="302.1" y1="399.8" y2="359.3" gradientTransform="translate(-305.2 24.4)scale(1.6927)" gradientUnits="userSpaceOnUse"/><linearGradient xlink:href="#f" id="u" x1="801.2" x2="813.5" y1="720.5" y2="709.6" gradientTransform="translate(-410.7 -501.5)scale(1.6927)" gradientUnits="userSpaceOnUse"/><linearGradient id="o" x1="441.1" x2="440.9" y1="266.4" y2="444.3" gradientTransform="translate(-305.2 24.4)scale(1.6927)" gradientUnits="userSpaceOnUse"><stop offset="0" stop-color="navy"/><stop offset=".5" stop-color="#00c"/><stop offset="1" stop-color="navy"/></linearGradient><linearGradient id="m" x1="628.9" x2="628.4" y1="332.1" y2="423" gradientTransform="translate(-305.2 24.4)scale(1.6927)" gradientUnits="userSpaceOnUse"><stop offset="0" stop-color="navy"/><stop offset="1" stop-color="#00c"/></linearGradient><radialGradient id="N" cx="374.7" cy="432.2" r="5.3" gradientTransform="matrix(1 0 0 .68182 0 137.7)" gradientUnits="userSpaceOnUse"><stop offset="0"/><stop offset=".6"/><stop offset="1" stop-color="gray"/></radialGradient><radialGradient xlink:href="#h" id="v" cx="689.8" cy="104.5" r="35.2" gradientTransform="matrix(1 0 0 .94531 0 5.7)" gradientUnits="userSpaceOnUse"/><radialGradient xlink:href="#h" id="n" cx="536.3" cy="473.9" r="503.3" gradientTransform="matrix(1 0 0 .15223 0 401.8)" gradientUnits="userSpaceOnUse"/><radialGradient xlink:href="#e" id="O" cx="725.4" cy="418.9" r="33.1" gradientTransform="matrix(1.6927 0 0 1.6734 -305.2 32.5)" gradientUnits="userSpaceOnUse"/><radialGradient xlink:href="#e" id="J" cx="275.1" cy="414.3" r="30.5" gradientTransform="matrix(1.6927 0 0 1.8263 -305.2 -31)" gradientUnits="userSpaceOnUse"/><radialGradient xlink:href="#j" id="H" cx="268.7" cy="415.4" r="39.9" gradientTransform="matrix(2.1007 0 0 2.1488 -413.3 -167)" gradientUnits="userSpaceOnUse"/><radialGradient xlink:href="#j" id="D" cx="268.7" cy="415.4" r="39.9" gradientTransform="matrix(2.1805 0 0 2.2286 341.1 -189.7)" gradientUnits="userSpaceOnUse"/><radialGradient xlink:href="#l" id="C" cx="268.7" cy="415.4" r="39.9" gradientTransform="matrix(2.379 .02896 -.02914 2.3939 -467.4 -276)" gradientUnits="userSpaceOnUse"/><radialGradient xlink:href="#l" id="B" cx="268.7" cy="415.4" r="39.9" gradientTransform="matrix(2.4973 .0309 .00312 2.3992 248.5 -270.7)" gradientUnits="userSpaceOnUse"/><radialGradient id="A" cx="490.2" cy="329.3" r="6.3" gradientTransform="matrix(.5163 .43353 -1.6162 1.9248 803.6 -264.5)" gradientUnits="userSpaceOnUse"><stop offset="0" stop-color="#ececec"/><stop offset="1" stop-color="#ececec" stop-opacity="0"/></radialGradient></defs><path fill="url(#m)" stroke="#000" stroke-width="1.7" d="M622 577.6s-2.7 1.4-1.6 7.8c1.1 6.3 12.7 49.8 16.4 64a1034 1034 0 0 0 20.5 67.4c3.3 7.4 6.7 15.6 12.6 20 6 4.5 15 6 21.2 5.6 6.4-.3 49.2-1 64.8-1.8s69.6-1.5 69.6-1.5l117-88.6-17.2-42.1s-1.2-8-4.5-10.9c-3.4-3-12.6-3-12.6-3L783.4 588z" transform="translate(0 -308.3)"/><path fill="url(#n)" d="M1039.5 473.9a503.3 76.6 0 1 1-1006.5 0 503.3 76.6 0 1 1 1006.5 0" transform="matrix(1 0 0 1.0958 12.8 -44.5)"/><path fill="url(#o)" stroke="#000" stroke-width="1.7" d="M364.8 476.8c-20 0-33.6 1.7-51 11.8-26.8 15.7-35.5 71.8-35.5 71.8q-6 1.8-8.7 7s-33.3 1-50 2.8c-16.6 1.7-49.3 8-84.4 31.6-35 23.5-58.5 63.1-63.1 70-4.6 7-19.6 23-19.6 23-2.2 3.1-1.2 9.6 2.4 8.6l15.2-4.9 205 57.9 1.4 12.8s29.9 4.3 59.7 4.8 225.1 7 259 7.5 121.8 1.2 144.2 1.2 33.3 0 49.4-2.4 37.3-1 37.3-1l185-4.1-54.7-123.5c-2.7-8.7-8.5-8.8-14.9-7.4l-16.7-36.8c0-7.1-4.2-10.5-10.3-12L617 577.8 589.5 514s4.6-3.3-2.3-8.2a71 71 0 0 0-27.4-11.1A998 998 0 0 0 387.3 477zm101.6 59.5c15-.1 36 2.4 48.8 3.3 0 0 29.9 3.2 44.6 6.5 2.4.6 5 5.4 5 5.4l2.4 8.1-.2 31.2h-35l-99.1-6.7c1.2-18.2 2.6-38.2 17.8-45.7 3-1.5 8.7-2.1 15.6-2.1z" transform="translate(0 -308.3)"/><path d="m1009.5 777.2-90.7-179-14.3-2.6-44.6-2.2a9 9 0 0 1-2.6 3.8q-3.7 3.5-12.1 4.8a76 76 0 0 1-19.6.1c-7.3-.8-15-2.5-22.8-4.1-7.7-1.6-15.4-3.1-22.2-3.8q-10-1-18 .4c-5.5 1.1-10.6 3.2-16.4 4.7a89 89 0 0 1-20.1 2.3 238 238 0 0 1-42.1-3.4c-5.1-.8-9.5-1.8-7-1s11.9 3.3 21.1 5.1q14 2.7 26.6 3.1t22.8-1.6c6.8-1.3 12.9-3.1 18.3-4.2q7.8-1.7 14.8-.7c4.7.7 9.5 2.4 12.6 4q4.5 2.6 4.4 5-.1 2.7-5.5 4.2t-16.1.8c-7.1-.4-16-1.4-23.4-2.2-7.5-.7-13.7-1.3-19.7-1q-8.9.6-17.7 3c-6 1.6-12.2 3.6-17.4 4.5-5.3.9-9.7.7-15.8-.2a176 176 0 0 1-20.3-4.4c-6.7-1.9-12.3-4-10.8-3.2s10.1 4.3 18.6 6.7a96 96 0 0 0 46.2 1.9c7.2-1 14.6-2.2 20.8-2.4q9.3-.3 14.3 1.6 4.8 2 5 4.9c.2 1.8-1 3.8-4.8 5.2a54 54 0 0 1-18.6 2.2c-8.3-.2-18.3-1.5-27.1-3-8.9-1.4-16.6-3-25-4.2s-17.3-2-25-2q-11.4.2-18.7 2.3c-4.8 1.3-8.2 3-7.4 3.4.9.3 5.8-.8 12.4-1.5 6.5-.8 14.6-1.2 24.5-.1s21.7 3.5 32.3 5.7c10.7 2.2 20.3 4 29.7 4.7 9.4.6 18.5 0 26-1.6s13.4-4.2 19.6-6.6a395 395 0 0 1 18-6.6 60 60 0 0 1 12.9-3.4 22 22 0 0 1 9.3 1q3.6 1.4 4.7 3.2c.7 1.2.4 2.4-2 3.1s-7 1.2-12.4 1.4-11.8.2-17.4 1a41 41 0 0 0-24.3 12c0 .9 4.2-1.2 8.6-3.3s9-4.3 15.3-5.3 14.6-.8 21.4-.8q10 .3 17-.6c5-.8 9.4-2.2 14.4-4.6s10.8-5.5 15.9-7.5a43 43 0 0 1 38.6 4.1 18 18 0 0 1 7.3 8.3q1.4 4.2-2.4 6.9a24 24 0 0 1-11.5 2.8c-5 .3-11 .1-16.7-.8s-11.3-2.6-16.6-3.7c-5.2-1.1-10-1.7-15.4-1.9-5.2-.2-10.9-.1-16 0l-14.6.6c-5.2.3-11.3.5-11.2.9.2.3 6.5.8 13.6 1s15 0 21.5.4q9.8.3 15.5 2 5.8 1.6 6.7 4.1.8 2.6-3 4.7-4 2-11.3 2-7.2-.4-15.4-2.8-8.1-2.6-16.2-4.9c-8-2.3-10.7-2.1-15.2-2.4q-6.5-.3-11.6 1-5.2 1.7-10.4 4.4c-3.5 1.7-7 3.4-5.6 3.4s7.9-1.7 13.6-3a51 51 0 0 1 16.6-1.7c6 .5 13 2.4 20 4.3q10.7 3.2 19.3 5c5.6 1.2 10 1.6 14.9 1.3 4.8-.4 10-1.5 16-2.4 5.9-1 12.5-1.7 18.3-1.6s10.5 1.3 14.3 3.1a19 19 0 0 1 8 7.1c1.6 2.7 2.3 5.5 1.7 7.5q-.7 2.8-6.2 3.1c-3.7.3-9.4-.3-15.3-1.2q-8.8-1.5-18.7-4c-6.7-1.7-13.8-3.8-19.8-5.5s-10.7-3-15.3-3.6q-6.8-.9-14-.2-7.1.8-16 2.1l-18.9 2.2q-9 1-16.9.9c-5.2-.1-10.2-.8-16-1.9s-12.3-2.8-10.8-2.3a163 163 0 0 0 51.2 6.3c9.3-.4 17.3-1.7 24.1-1.8s12.6 1 16.3 2.6q5.5 2.6 4.3 5.9c-.8 2-4 3.9-10 4.5q-8.9 1-24.7-1.1a391 391 0 0 1-33.9-5.8c-11.2-2.5-21.5-5.4-31.4-7.7-10-2.4-19.7-4.3-28.2-4.8s-15.8.5-20.8 1.7-7.7 2.5-4.5 2.7c3.1.2 12-.8 21.7-.4s19.9 2.2 28.2 4.5a55 55 0 0 1 17.5 7.7c3 2.3 2.6 4.2-.3 4.9-3 .6-8.3.1-14.8-1.5s-14-4.4-20.8-6.5-13-3.6-20.5-4a131 131 0 0 0-22.4 1.1c-6.2.8-9.6 1.8-7.1 1.9 2.4 0 10.8-.7 18.7-.7 8 0 15.4.9 23.6 3 8.2 2.2 17.1 5.6 25.4 8.4q12.3 4.3 23.6 6.4a98 98 0 0 0 24 1.2c8.9-.6 19-2.2 26.5-3.1 7.5-1 12.4-1.1 16-.5q5.2 1 6.8 3.4c1 1.5 1.1 3.1-.6 4.6s-5.2 2.7-11.3 3c-6 .5-14.7.1-22.7-.5s-15.2-1.6-22-1.8-13.2.3-17.8 1.6c-4.5 1.2-7.3 3.2-6.3 3.6s5.6-.7 12.6-1 16.4 0 25.4.8 17.7 2.1 25.7 2.4 15.3-.4 21-1.5 9.9-2.6 14.5-5.1 9.6-6 14.3-9c4.6-3 8.9-5.6 12.8-6.8s7.5-1 10.9-.3a20 20 0 0 1 8.5 4q3 2.6 1.2 5.6-1.5 3-9.4 4.7c-5.4 1-13.3 1-19.5 1.7q-9.2 1.3-13.3 3.7c-2.7 1.5-3.5 3.1-1.6 2.9 2-.2 6.7-2.1 13.2-3 6.5-.7 14.8-.3 21.8-.6a48 48 0 0 0 17.3-3.4c4.6-2 8-5 12-6.9q6-2.6 12-2 6 .3 10 3c2.8 1.8 4.8 4.5 4.8 7.2q0 4-5.9 7.6a39 39 0 0 1-15.6 5.1c-6 .7-12.7 0-18.1-.6s-9.6-1.4-15.2-1.7-12.5-.2-18.7.7-11.7 2.5-17.2 3.5a91 91 0 0 1-17.4 1.3c-6.5 0-14-.5-15.4-.2s3 1.3 8.5 1.8q8.4.7 18.9 0c6.9-.4 14.1-1.4 21.2-2s14-1 19-.5q7.7.7 10.5 3.3 3 2.7 1 5.8c-1.5 1.9-4.7 3.5-11 4.2-6.3.6-15.6.3-24-.6q-12.8-1.4-23.4-4-10.4-2.5-20.2-4.5t-20.7-1.6c-7.2.3-15 1.7-22 4.2s-13.5 6.3-14.6 7.4 3-.3 8.5-2.1 12.4-4 19-5c6.8-1 13.5-1 22.8.5s21.5 4.5 31.9 7q15.5 3.4 26 5.3a113 113 0 0 0 18 2.3q8.2.3 16.7-2.4c5.7-1.8 11.6-4.8 17.4-7.1a52 52 0 0 1 16.6-4c5.3-.1 10.2 1 13.7 3.2s5.6 5.6 4.2 8.4-6.2 5.2-13 6.4-15.6 1.3-24.6 1.2q-13.4 0-28.4-1.5c-10-1-20.6-2.8-30.7-5s-19.5-4.6-28-5.7q-12.5-1.4-22.4.5-10 2-18.2 5-8.2 2.8-16 4.6c-5.3 1.1-10.6 1.6-17 1.6s-13.6-.5-18.7-1c-5.2-.3-8.2-.7-5.2 0s12 2.6 20.8 3c8.7.6 17.2-.4 25.5-1.8s16.5-3.3 22.6-4.3 10.3-1.3 14.3.3c4 1.5 7.8 4.9 8.8 7.4.9 2.6-1 4.3-5 6.1-4 2-9.8 4-16.4 4.7q-9.9.9-21-.9-11.4-1.6-22.5-4.6c-7.3-1.9-14.1-4-21.4-5.9a142 142 0 0 0-21.4-4 42 42 0 0 0-16.3 1.8c-4.6 1.4-8.7 3.7-7 4.3 1.8.5 9.4-.7 16-.7 6.5-.1 12 .9 14.8 2.7s2.9 4.4 1.8 6.2-3.3 2.8-7.7 2.5-11-1.7-17.2-3-12.1-2.7-16.9-2.8c-4.8-.2-8.4.8-10.6 2s-3.1 2.7-1.3 3.1c1.8.5 6.3 0 12.1.3 5.9.3 13.1 1.5 20 2.7s13.6 2.7 19.3 3.3c5.6.5 10.1 0 14.5-1.2 4.3-1.3 8.5-3.5 12.7-4.5s8.6-.7 11.9.2q5 1.6 6.4 4.3 1 2.7-2 5c-3 2.3-5 2.7-9.8 3-4.7.2-11.1-.4-17-1.3s-11.5-2-16.5-2.2-9.5.3-12.5 1.5-4.6 3-3.2 3.3 5.7-1 10.9-1.3 11 .5 17.5 1.6c6.4 1 13.4 2.4 20 3a155 155 0 0 0 41.6-2.3c6.3-1.2 10.9-3 16.4-5.7 5.6-2.6 12.1-6.2 17.8-9.7q8.4-5.5 15-9.1 6.4-3.3 13.4-4c4.9-.4 10.4-.1 15 .8a20 20 0 0 1 10.8 5c2.3 2.5 3 5.8 1.6 7.7s-5.2 2.6-11.1 2.6c-6 0-14-.8-20.8-.6q-10.1.3-16.7 2.7a27 27 0 0 0-10.5 6.3c-2.9 2.8-5.3 6.3-4 6 1.4-.4 6.5-4.6 11.4-7.2a35 35 0 0 1 14.4-3.7 91 91 0 0 1 15.6.3c5.4.6 11.2 1.5 16.1 2.1s9 .8 12.9.6 7.7-.8 12.7-2q7.7-2 17.2-5.5c6.2-2.3 12.6-5 19.3-6 6.6-1 13.6-.2 19 1.9 5.4 2 9.2 5.3 11.3 8 2 2.8 2.3 5-.2 6.2-2.6 1-8 1-14.1 0s-13-3-19.1-4a70 70 0 0 0-35.4 4.2c-4.8 2.1-7.9 4.7-6.1 4.8 1.7.1 8.3-2.2 15.1-3.6a72 72 0 0 1 20.4-1.3c6.2.5 11.6 2.1 17 3.8q8.4 2.7 16.9 5a295 295 0 0 0 17.6 4z" style="stroke:#373435;stroke-width:.2;fill:none" transform="translate(0 -308.3)"/><path fill="#fff" fill-opacity=".3" d="M283.4 429.9s-2-11.4-6.2-25.5-18-47.5-29.2-58.4-25.8-25.2-38.6-30.1a155 155 0 0 0-35-8.2c-3.8 0 1.3 2.6 3.5 2.6s20.2 4 24.8 6.5l12.9 6.8s-15.8-6.4-25.7-9.5-18.7-4.2-29.5-3c-10.9 1-23.7 3.5-30.6 6.1s-18.4 11.1-24 15.1c-5.5 4-14 17.3-14 17.3s13.4-14.6 23.8-20.4 20.2-12.6 29.3-13.8c9-1 23.5-1.5 30.6-.4a117 117 0 0 1 54.5 22.7c6.2 5.2 17 17.2 22.8 27.2s16.2 20.8 18.9 35.9q3.8 22.7 8.4 31.3c3.1 5.5 3.6 10.6 9.8 16a62 62 0 0 0 27.5 11.9c9.3 1.3 48.3 2 48.3 2l110.8 4.4 181 5.4s106.8 0 115.7-1c8.9-.8 44.1-2 44.1-2s-35.2-2.4-48.5-2.8c-13.3-.5-46.6 0-65 0s-53.7.7-68.5.7-44.6-1-57.2-1-100.9-1.7-116.2-2.2c-15.3-.4-89.1-4.2-99.5-4.6-10.5-.5-27.8-.2-35-1.1-7.4-.9-24-5.6-31.3-9.8s-12.7-18.2-12.7-18.2"/><path fill="url(#p)" d="M212.1 637.5s-29-19.7-60.3-12.7-29.4 7.5-36.8 13a233 233 0 0 0-32.4 29.8c-7.8 9.7-23 26-25.3 30.2-2.2 4 .4 4 .4 4l17.5-4.4s44.6-46.1 54.7-52.5c10-6.3 26.4-13 36.8-13s44.3 7 45.4 5.6" transform="translate(0 -308.3)"/><path fill="url(#q)" d="m274.7 761-29.8 1.2 4.4-10.5 24.6-.5z" transform="translate(0 -308.3)"/><path fill="url(#r)" d="M274.4 756s-4.2-38.5-8-50.4-7.8-24.2-16.3-35.7-19.7-20.1-22-22.4c-2.2-2.2-3.3 2.6-3.3 2.6s7 4.5 4.8 6.4c-2.2 1.8-13-5.6-16.4-4.9-3.3.8 15.7 15 20.1 22s16.4 28.3 18 38c1.4 9.6 3.6 26.7 1.8 33.8s-1.4 4.7-1.4 4.7z" transform="translate(0 -308.3)"/><path d="M341 447.6a8.7 8.6 0 1 1-17.5 0 8.7 8.6 0 1 1 17.5 0"/><path fill="url(#s)" d="M328.6 763.2s10.2-1 10.2-5.8-4.3-7-6.7-7.5-7.3 1.1-7.3 1.1z" transform="translate(0 -308.3)"/><path fill="url(#t)" d="M749.2 418.1a26.1 27.3 0 1 1-52.2 0 26.1 27.3 0 1 1 52.2 0" transform="matrix(1.7173 0 0 1.6365 -319.8 -257)"/><path fill="url(#u)" stroke="#000" stroke-width=".8" d="M951.7 729c-3-1.8-.6-7.8-4.6-12.6-3.7-4.5-13.6-5-14.6-7.7-3.3-9 2.4-20.2 12-20.5 5.3-.2 16 8.7 19.8 14.3 4 6 8.8 21.5 4.3 25.2a14 14 0 0 1-16.9 1.2z" transform="translate(0 -308.3)"/><path d="M842.1 393a15.7 12 0 1 1-31.5 0 15.7 12 0 1 1 31.5 0"/><path fill="url(#v)" d="M725 104.6a35.2 33.3 0 1 1-70.3 0 35.2 33.3 0 1 1 70.3 0" transform="matrix(1.9238 0 0 1.9585 -488.5 204.3)"/><path fill="url(#w)" d="M816.6 711h19.2l.5-17.7-21-.2c-7.5 5-5.8 14.4 1.3 17.9" transform="translate(0 -308.3)"/><path fill="#e6e6e6" stroke="#000" stroke-width="1.7" d="m944.1 341.8-19-42.3s-5.6-2.2-5.8.6c-.2 3-.7 6.5 0 9.1l2.4 7.8 10.9 22.8z"/><path fill="url(#x)" d="M869.2 657.6s-16.6-7.5-29.7-7.5-27.3 2.2-30 2.9-5 1.8-6 .2c-.8-1.5 1.2-5.5-2.2-6.9-3.3-1.3-15-4.4-15-4.4l96.9 2.7s17.7 1 21 1.7-35 11.3-35 11.3" transform="translate(0 -308.3)"/><path fill="url(#y)" stroke="#000" stroke-width="1.7" d="M595.5 586.9s-1.9 3.3-.8 7.4c1.2 4.1 28.7 116.9 28.7 116.9s3.3 35.3-3.7 45-21.2 13.8-28 15.3c-6.6 1.5-38.6 1.5-38.6 1.5s-85.7-1.9-105-1.9c-19.4 0-93.8-6-93.8-6s-6.3.8-9.3-1.4-1.5-10-1.9-19.4-.3-55-.3-70.7c0-15.6.3-50.3 1-64 .8-13.8 2.3-32.4 2.3-32.4s33.3 4.2 43.3 4.6 47.7 2.8 61.3 3.6 68.5 4.4 79.3 4.8 36 .4 36 .4z" transform="translate(0 -308.3)"/><path fill="url(#z)" d="M139.5 620.4s17.1-4.7 30.6-6.7 30.6-1.5 30.6-1.5 50 2.9 72.8 4.4 85 7.1 85 7.1 80.8 5.3 101.9 6.4c21 1.2 83.5 3.8 83.5 3.8l128 5.1 195 5.1s31.8-.2 37.1 2 27.7 0 27.7 0l-10.6-21.5-117.7-3.3-119.3-3.8-104.5-3.8-167-9.3-109-5.3-77-.9s-26.7-.9-43.8 4.2-43.3 18-43.3 18" transform="translate(0 -308.3)"/><path stroke="#000" stroke-width="1.7" d="M534.2 281.8s-3.1-1.6-2.4-4c.6-2.5 2.6-3.8 2.8-6.2.3-2.5-1.3-6-1.3-6s-2.7-1.6-4.4-1.1-14.9 16.8-14.9 16.8z"/><path fill="url(#A)" d="m521.8 590.2 12.6-14s0-.8-2-2.1-4.9-.5-4.9-.5l-12.8 16z" transform="translate(0 -308.3)"/><path fill="#1a1a1a" stroke="#000" stroke-width="1.7" d="M398 201a41 41 0 0 0-11.3 1c-4.9 2-16.2 8.3-17.3 12.2-1.1 4-6.6 18.2-6.8 21.8l-2.2 35.8 33.6 2.3 64.7 3.5 64.9 4.2h2.8c-9.8-.5-20.2-1.3-27.2-1.8l-66.5-4.2s.4-7.8 1-14.7 3-16 6.3-21.3 8.2-10 16.2-11.5 27.1-.8 48.3 1.6c10.4 1.2 49 4 57.4 9.3 3 2 5.4 8.8 5.6 13.7.2 9.7-.3 29.5-.3 29.5l-17 .2 10.8.3 13-.8s-.8-30-2.4-34.6a71 71 0 0 0-9.5-19.3c-2.9-2.4-16-13.3-21-14.2s-51.2-8.4-58.5-9c-7.3-.7-51.4-2.5-59.8-3.1-5.3-.5-16.2-1-24.8-1zm152.2 81.6-23.8-.7c8 .5 15.5.8 20 .7z"/><path fill="#e3e3fc" d="M354.7 170.9c-7.3 0-37.6 1.3-52.9 21.5-17.5 23-23.7 61-23.7 61s-3.3 1.1-6 3.3-3 4.2-3 4.2-37.1 2.2-48.4 2.4-37.3 8.5-49.5 12.5-28 14.4-38.1 20.8-23 19.3-29.3 26.4c-6.2 7-26.1 33.2-28.8 37.7s-7.8 13-6.2 13.7 9-11.7 15.7-17.7 9.8-12 14.9-17.1c2-2 8.7-10.9 18-17.7 15.3-11.2 35.2-21.5 35.2-21.5s-22 6.9-37.6 19.6c-9 7.4-17.5 17.8-19.6 19.8-5.8 5.6-13.7 14-13.7 14s24.1-31.5 31.2-37.9 28.1-22 39-28.4 33.5-13 53.7-18c20.2-4.8 56.7-6 61.2-6s5.7 1.2 5.7 1.2.5-4.5 2.4-7.1 9.8-2.5 9.8-2.5-.2-3.7 1-10 2.1-16.8 3.2-22.3 13.1-27 18-32.6 22.4-12.9 32.2-15.3c9.7-2.5 21.6-1.3 36.7-1.8s71.7 2.2 88.7 3.8 66.3 9.3 81.2 12c14.8 2.6 19 7.5 24.2 13.5 5 6 8 21.3 11 28.8 3.1 7.6 4.2 12.4 3.1 13-1 .7-6-13-8-16.8s-7-10.4-12.1-14.8a42 42 0 0 0-16.7-7.6c-4.2-1-2.9 1.8 3.3 4s12.5 7.8 18.2 13.8c5.8 6 9.3 18 13.3 30.1s6.5 18.4 6.5 18.4 6.2 8 10.2 8c3.7 0 4.7-4.3 4.8-4.9l2.1.2v.3l16.1.2c6.7 0 45.3 3.3 61.9 3.8s75.8 5.5 95.8 6 70 4.6 84.7 5c14.6.5 36.6 2 41.7 3.6 5 1.5 9.7 10.7 9.7 10.7 2.2-.5 2-7.4 2.2-9.3s1.8-3.2 1.1-4.3-6.9-2-6.9-2-19.7-1.5-30.5-2-80.8-4.9-97-6-119.4-7-132.5-8-35.5-2-35.5-2l-1.3-.3.7-.4-2.4-4.6s-8-.5-9.6.9a14 14 0 0 0-2.4 3.5v-.1a645 645 0 0 1-12.5-26.9 840 840 0 0 1-10-26.1 25 25 0 0 1-1-9.1c.2-2.3 1.7-5.1-1.6-11.6-3.4-6.4-42-12.2-59-15-17-3-64.5-6.7-84.2-8.5s-76.7-1.5-76.7-1.5z"/><path fill="#00004d" d="M402.2 199.3a58 58 0 0 0-27.3 5.4c-6.7 3.7-9.5 11-12.4 18.8s-2.4 24-2.4 24 1.5-10 2.2-15.8 8-18.6 12.9-23c4.8-4.5 8.4-4.7 17.3-6.3s46.3 1 60.5 1.8a736 736 0 0 1 76.3 8.9c21.7 4.4 26.5 12.8 34 22.1s6.7 46.6 6.7 46.6 21.8 1.4 21.8-1c0-2.5-18-1-18-1s-1-7-1-16.6-3.2-20.8-6.3-29-12.9-14.7-22.6-19.8-32.2-7.5-45.3-9-39.2-3.2-49.6-4c-10.5-1-37-1.9-46.8-2m-123.5 64.5c-1 0-.9.5-.8 1.5.3 1.6 15.1 3 20.8 3.8 5.7 1 25.4 1.2 36 1.4 10.5.2 25.5 1 25.5 1s-.4-2.6-2.2-3.5-13.5 0-16 0c-2.6 0-4.9-2-7.1-3a19 19 0 0 0-10.8 0 84 84 0 0 1-19.4 2.6 166 166 0 0 1-23.1-3.2q-2.2-.6-3-.6"/><path fill="url(#B)" d="M920 645.4c-53 0-95.4 39.8-94.8 89 .6 49.1 44 89 96.9 89s95.3-39.9 94.7-89c-.6-49.2-44-89-96.9-89m2.5 33c30.5 0 55.2 25 55.2 55.9s-24.7 55.9-55.2 55.9-55.2-25-55.2-56a55.5 55.5 0 0 1 55.2-55.8" transform="translate(0 -308.3)"/><path fill="#500" d="M962.6 407c-.7-3.6-5.4-3.3-7.3-6.4-1.2-2-.7-9.5-3-10.3-8.6-2.9-9.6 1.2-9.7 7-.1 4 6.4 3.4 8.1 6 2 3 1.8 10 3.7 10.8 7.3 3 9.5-.3 8.2-7.1"/><path fill="url(#C)" d="M159.8 639.6c-52.6 0-95.2 38.9-95.2 86.8 0 48 42.6 86.8 95.2 86.8s95.2-38.8 95.2-86.8-42.6-86.8-95.2-86.8m3.8 33.7c25.4.6 46 25.5 46 55.7s-20.6 54.2-46 53.6c-25.4-.5-46-25.5-46-55.6s20.6-54.2 46-53.7" transform="translate(0 -308.3)"/><path fill="url(#D)" d="M927.2 650.5c-46.3 0-83.9 38.4-83.9 85.7S881 822 927.2 822s83.7-38.4 83.7-85.8-37.4-85.7-83.7-85.7m-4.7 27.9c30.5 0 55.2 25 55.2 55.9s-24.7 55.9-55.2 55.9-55.2-25-55.2-56a55.5 55.5 0 0 1 55.2-55.8" transform="translate(0 -308.3)"/><path fill="url(#E)" d="M923.7 672a62.6 62.6 0 0 0-62.1 63c0 34.8 27.8 63 62.1 63s62.1-28.2 62.1-63-27.8-63-62.1-63m-1 6c30.8 0 55.6 25.1 55.6 56s-24.8 56-55.5 56-55.5-25-55.5-56c0-30.9 24.8-56 55.5-56" transform="translate(0 -308.3)"/><path fill="url(#F)" d="M308.7 415.5a40 40.3 0 1 1-79.9 0 40 40.3 0 1 1 79.8 0" transform="matrix(1.0097 0 0 1.0383 -103 -14.9)"/><path fill="url(#G)" stroke="#000" stroke-width=".9" d="M193.1 722.1c-2.7-1.8.5-8.2-2.7-13.3-3-4.8-12.9-5.4-13.4-8.2-2-9.4 5.4-21.3 15.1-21.7 5.3-.2 14.7 9.3 17.6 15.2 3 6.3 5.5 22.8.5 26.7-5.7 4.4-11.7 5-17 1.3z" transform="translate(0 -308.3)"/><path fill="#500" d="M206 399.3c-.1-3.7-4.8-3.4-6.3-6.8-.9-2 .7-10-1.4-10.8-8.2-3.1-9.8 1.3-10.8 7.3-.7 4.2 5.9 3.7 7.2 6.4 1.6 3.2.3 10.7 2 11.5 6.9 3.2 9.6-.4 9.3-7.6"/><path fill="url(#H)" d="M151.3 640c-46.3 0-83.8 38.3-83.8 85.7s37.5 85.7 83.8 85.7 83.8-38.4 83.8-85.7-37.5-85.8-83.8-85.8m12.3 33.3c25.4.6 46 25.5 46 55.7s-20.6 54.2-46 53.6c-25.4-.5-46-25.5-46-55.6s20.6-54.2 46-53.7" transform="translate(0 -308.3)"/><path fill="url(#I)" d="M158.3 669c-27.7 0-50.2 26-50.2 58.2s22.5 58.2 50.2 58.2c22.1 0 40.9-16.6 47.6-39.6-6.4 20.8-23.2 35.6-43 35.6-25.1 0-45.5-24.3-45.5-54.2s20.4-54.3 45.6-54.3c19.7 0 36.5 14.8 42.9 35.6-6.7-23-25.5-39.6-47.6-39.6" transform="translate(0 -308.3)"/><path fill="url(#J)" stroke="#000" stroke-width=".8" d="M188.8 774.4 173.9 759l-4.5-10.5 7.2-5.6 8.7 8.5 11 17.1 2.3-3-11.1-16.7 18.9 2.6 1.4-3.7-18.3-2.5-8.9-6.1 1.5-8.2 12.1 1.5 15.3 7.5.6-4-15.2-7.7 14.7-7.3a15 15 0 0 0-.8-3.8l-14.4 7-12-.4-1.6-6.8 8.5-5.8 17.2-2.8q0-1.5-.9-3l-16.3 1.7 8.3-14.9a3 3 0 0 0-1.6-2.2l-11.2 17.3-8.2 4.1-6-4 4.4-12.5 13.8-12.5q-.1-1.9-2-1.8L171.2 693l.2-21.2q-1.7-1.2-3.5-.5l-.9 23-2.9 9.4-5.8.6-3.6-8.6 2.7-25q-1.5-1-3.5.6l-4.5 20.8-10.8-16.5c-1.3 0-2.6.2-3.1 2l11.2 16.3 3.5 11.6-5.1 4.6-9.6-8.6L128 684q-2.3.4-2.7 3l6.5 16.2-14.3-2.9c-1.6.8-2.7 1.9-1.8 4l15.2 3.2 9 6.7-1.9 7.1-12.9-.7L113 712c-1.6 1.2-2.4 2.6-1.2 4.6l10.4 7.2-10.3 6.9c-.8 1.6-1.3 3.2.7 4.8l12.2-5.3 12-1 2 5.3-8.4 7.6c-.7.6-16.3 2.2-16.3 2.2-.3 1.3-.9 2.6 1.3 3.8l15.5-1.8-5.8 16.9c.4 1.5.8 3 3 2.9l5.4-18.2 10.3-6.3 4.5 4.2-4.1 12-11.7 14.1c.5 1.6 1.3 2.9 3.7 2.4l13-15.3 2.4 23.2a4 4 0 0 0 4 .8l-3-24 4-10.1 6.4.5 3.1 12.7-.4 21q2.6.6 3.9-.4l.3-22.8 16 16.8z" transform="translate(0 -308.3)"/><path fill="url(#K)" d="M148.2 658.7c-37.6 0-68.1 31-68.1 69.2s30.5 69.3 68 69.3 68.1-31 68.1-69.3a68.6 68.6 0 0 0-68-69.2m0 6c34.3 0 62.1 28.3 62.1 63.2s-27.8 63.2-62.1 63.2S86 762.8 86 728s27.8-63.2 62.2-63.2" transform="translate(0 -308.3)"/><path fill="#00004d" d="M125.4 317.2s18.8-14.8 47.8-21.7 33.5-6.9 47.5-7.3c14-.5 53.4-.2 79.1.6 25.8 1 64.1 3.6 88.7 5 24.6 1.2 105.1 6.3 105.1 6.3l127 7s45.3 1.7 75 1.7 113.5 2.7 113.5 2.7L905 314s17.3 2.5 16.4 2.5-386-11-425.2-13.1c-39.3-2.2-167.4-10.4-167.4-10.4s-43.5-2.7-67.2-2.5-46.2.4-65 3.3c-39.4 6.2-71.1 23.3-71.1 23.3"/><path fill="#2f2fff" d="M589.2 206s-1.4-1.2-4-1.2-6.2 1.8-6.2 1.8-1-5.8 5-4.9 5.2 4.2 5.2 4.2"/><path fill="#adadf7" d="M589.2 275.1s-9.1-26-12-33.3-4.7-15.5-13.3-22.6a69 69 0 0 0-31.3-15.3c-13-2.6-42.3-7-64-8.4-21.8-1.3-50.4-4.4-63.4-4a83 83 0 0 0-26.7 3.6c-5.3 2.2-6.2 3.7-5.3 4.8s0-.8 4.5-1.5 19-.7 25.9-.7 32.1 2.5 43.5 3.1 29 2.7 41 3.8 34.3 2 42.8 4.7 20.8 4 28.3 12.1a48 48 0 0 1 13.6 24.4c1.7 9.1 3 28 3 28s4-1.8 6.5-.5 3.1 3.1 4.9 3.1c1.7 0 2-1.3 2-1.3"/><path fill="url(#L)" d="M275.5 569.4s12 6.7 27.9 6.7c16 0 24-3.6 28.1-7.8a151 151 0 0 0 15.1-22.8c3.6-6.3 6.7-8.7 8.2-13.1a94 94 0 0 1 10-18.2c2.4-2.9 1.1-3.6.4-4.9-.6-1.3-3.7 4.5-5.5 2.7s9.5-10.7 12.9-11.8c3.3-1 1.7-4.2-1.1-4.6-3-.5-7.6 3.5-12.2 4.4-4.7.9-7.6-1.3-13.1-.4s-4.9 3.7-10 4-8.2-2-11.8-2.3c-3.5-.2-8-1.7-9.3-4.2s-2.4-3.7-2.4-3.7-8.7 7.5-12.2 14.1c-3.5 6.7-9 13.1-10.6 21.8-1.6 8.6-4 26.6-4 26.6s7.5.4 10.6-1c3.1-1.2 8.4-2.1 11.3-2.3 2.9-.3 3.1 2.4 5.8 2 2.6-.5 6.2-4 6.9-6.7.6-2.7 2.6-12.2 5-16 2.5-3.7 13.1-12 15.6-10.4q3.6 2.2-.5 10c-4 7.8-9.7 11.7-12.8 14.8s-3.8 8.2-6 10-3.3 0-7.3 1.8-1.4 3.8-4.2 4l-12.9.7c-4.2.2-11.3-1.4-11.5 0-.3 1.3 2.6 2.6 5 2.6 2.5 0 16.3.9 19.4.9s12 .2 12.4-1.8-.7-4.9 1-4.9c1.9 0 1.2 4 2 4 1 0 3-2.6 3.8-2.4 1 .2 1.6 2.9-2.8 5.1a46 46 0 0 1-16.4 5.5c-6 .5-14.2.3-18.2-.2s-10-1.8-11.8-2.2c-1.7-.4-4.2-.4-4.9 0" transform="translate(0 -308.3)"/><path fill="#adadf7" d="M357.5 257.6s-.9-15.3 0-23c.9-7.8 6.6-14 6.6-14s-2.8 9.5-3.3 18.8-2 12.2-2 14.6-1.3 3.6-1.3 3.6"/><path fill="#fff" fill-opacity=".5" d="M767 471.5s-80.5 2.2-108.4 1.6-192.5-6.7-211.8-7.1c-19.2-.5-85.1-3.1-84.9-4.9s15.8-1.5 25.7-.9c10 .7 58.8 2.9 73.4 2.9s69.4 2.2 82.5 2 59.4 2.7 72.5 2.7 61.2.8 70.3.6 80.2.2 80.7 3.1m-436.8-12.4s-31-2.2-37.7-10c-6.6-7.7-12.2-18.4-10.4-19.7s2.9.9 4.2 4.2 4.7 10.4 9.8 13.8a50 50 0 0 0 19.5 8.2c7 .9 14.6 3.5 14.6 3.5m-61.4-72.9c-11.8-28.2-10.2-26.2-16-33-5.7-7-22.6-21-22.6-21s11.6 14 16.4 19.4c5 5.3 10.7 10.2 14.7 18.8z"/><path fill="#4d4d4d" d="M376.3 244.5c-2.2.4-5.3 3.8-6 6-.6 2.2-1.3 8.9-1.5 12s1.3 9.3 1.3 9.3l4.2.4.7-10.4s3.1.9 3.6 2.4l2 8.4 2.8.3c-.2-.6-1.8-8.8-2.6-10.9-1-2.2-7.1-6-7.1-6s7 2 9.3 5.6 2.6 11.3 2.6 11.3l-1 .2 9 1.1s-2.2-2.9-3.3-4a17 17 0 0 1-4.2-8.4A40 40 0 0 0 381 248c-1.6-1.3-2.5-4-4.7-3.5m8.2 28.6-1.1-.2v.4z"/><path fill="url(#M)" d="M367 579.4s3.4-36 6.2-44.4c3.3-9.6 7.7-14.5 14.9-16.4 8.3-2.1 30.8-3 30.8-3s-19.7-2-24.8-1.8-8.4-.4-14.3 3.6c-3 2-9 9.1-10.3 15.6-1.5 7-4 20.7-5 28.6-.8 8-.6 18.2-.6 18.2z" transform="translate(0 -308.3)"/><path fill="url(#N)" d="M379 432.6a5.3 3.6 0 1 1-10.7 0 5.3 3.6 0 1 1 10.7 0" transform="matrix(1.2708 .46933 -.3667 1.6264 9.6 -430.5)"/><path fill="#1a1a1a" d="M161 403.2a3.8 3.8 0 1 1-7.6 0 3.8 3.8 0 1 1 7.6 0m16 23.4a3.8 3.8 0 1 1-7.7 0 3.8 3.8 0 1 1 7.7 0m-16.3 5.8a3.8 3.8 0 1 1-7.7 0 3.8 3.8 0 1 1 7.7 0M150.5 417a3.8 3.8 0 1 1-7.6 0 3.8 3.8 0 1 1 7.6 0m26.6-7a3.8 3.8 0 1 1-7.6 0 3.8 3.8 0 1 1 7.6 0m-8.5 7.7a7.3 7.6 0 1 1-14.5 0 7.3 7.6 0 1 1 14.5 0"/><path fill="url(#O)" stroke="#000" stroke-width=".8" d="m916.8 791.7.6-24 1.8-9h8.4l3.1 9.2-.9 24.4q2.7 1.4 4.6-.6l1.2-24 13.8 18q3.6.5 4.5-2.3l-16.5-21.1-3.6-7.5 4.6-3.8 11.8 7.4 12.7 17.8c3 0 3.7-1.8 3.6-4.3l-13.7-18 21.9 7q3-2 2.3-4.6l-21.7-4.8-10.5-8.2 2.6-6.4h12l19.3 10.1c1.7-1.8 1.4-3.7 1-5.5l-19.2-7.7 19-10.7c1-1.9.9-3.6-1.5-5l-18.8 12.1h-13.6l-1.8-5.9L954 718l22.3-7c.8-1.7-1.3-4-3.5-4.4l-19.5 6.8 9.6-21.1c.2-2.2-1.6-2.5-3.3-2.7L949 710.8l-8.4 7.1-6.2-3.3 4.1-12.3 14-18.2q-1.8-2.4-4.8-2.7L934 701l-4-24.2c-1.5-1-3.2-.8-4.9-.3l5.1 23-2.8 12.8-8.2.2-2.8-13.3 1.5-22.8c-1.6-1-3.1-.5-4.6 0l-1 27-19-18.3c-1.7.2-3.2.4-3.3 2.4l18.7 16.3 2.5 10.5-6.4 3.1-8.7-7-11.4-18.1c-1.5.1-3.2 0-2.8 2.6l13.2 20.2-24-4.7q-2.8 1-2.5 4l23.7 5.3 10 5.7-1.8 6.4-12.9.7-20.9-9.1q-2.1 1.5-.7 3.8l21.6 9.2-21.1 8.4c-.4 1.4-.6 2.8.8 4.2l21.1-7.7 11.3-1 1.8 6.3-9.5 6.5-21.4 3.8q0 2.5 1.8 4.1l22.4-4.6-11.4 19q1 3.6 4.1 3.6l12.7-21.3 8.2-6.2 3.3 3.9-1.8 10.5-16.5 17.4c.4 1.5 1 2.6 3.7 1.9l16.7-17-1.9 22.3c1.4 2.1 2.9 3.3 5 1.1z" transform="translate(0 -308.3)"/><path fill="#1a1a1a" d="M931.9 412.2a3.8 3.8 0 1 1-7.6 0 3.8 3.8 0 1 1 7.6 0m10.8 14.1a3.8 3.8 0 1 1-7.7 0 3.8 3.8 0 1 1 7.7 0m-11.3 14.9a3.8 3.8 0 1 1-7.6 0 3.8 3.8 0 1 1 7.6 0M913 417.6a3.8 3.8 0 1 1-7.7 0 3.8 3.8 0 1 1 7.6 0m.8 18.4a3.8 3.8 0 1 1-7.6 0 3.8 3.8 0 1 1 7.6 0m17.1-8.8a7.3 7.6 0 1 1-14.5 0 7.3 7.6 0 1 1 14.5 0"/><path fill="url(#P)" d="M927 665.4c-39 0-70.6 31.2-70.6 69.7s31.6 69.7 70.6 69.7 70.6-31.2 70.6-69.7-31.6-69.7-70.6-69.7m0 6.1c35.6 0 64.4 28.5 64.4 63.6s-28.8 63.6-64.4 63.6-64.4-28.5-64.4-63.6 28.8-63.6 64.4-63.6" transform="translate(0 -308.3)"/><path fill="url(#Q)" d="M926.8 670.8c-25.8 0-48 14.2-59.1 35a62.3 62.3 0 1 1 0 59.4c11 20.8 33.3 35 59 35 36.8 0 66.6-29 66.6-64.7a65.6 65.6 0 0 0-66.5-64.7" transform="translate(0 -308.3)"/><path fill="url(#R)" d="M148.5 664A63 63 0 0 0 86 727.8a63.2 63.2 0 0 0 77.3 62q-5.6 1-11.3 1.1c-32.8 0-59.2-28.2-59.2-63s26.4-63 59.2-63q5.7 0 11.3 1.1a61 61 0 0 0-14.7-1.8" transform="translate(0 -308.3)"/><path fill="url(#S)" d="M150.8 662.9c-32.4 0-58.6 28.7-58.6 64.1s26.2 64.2 58.6 64.2c26.7 0 49.3-19.7 56.3-46.5-6.5 23.7-25.9 40.8-48.7 40.8-28.2 0-51-26.2-51-58.5s22.8-58.5 51-58.5c22.8 0 42.2 17.2 48.7 41-7-27-29.6-46.6-56.3-46.6" transform="translate(0 -308.3)"/><path fill="url(#T)" d="m919.3 624-12.4-1-2.9-4.6s-208.8-6.7-237.2-7.3c-28.4-.7-103.3-4.5-134.4-5.8s-105.3-6.6-112.6-7-11.3-3-18.2-3.8c-6.9-1-37.7-4.7-46.8-5.4-9-.6-37.7-2.6-42.5-1-5 1.5-3 3.5-10.7 3.5-7.8 0-40.8-2.2-49.2-2s-35.3.2-46.6 1.7-37.4 8-41.2 9.6-3.1 2.4.7 1.3a515 515 0 0 1 25.9-5.8c4.9-.8 33.7-3.5 38.1-2.8 4.5.6.5 1.7-6.4 1.7s-32.4 3.6-39.7 5.8S145 614 145 614l1-3.8s-24.8 11.3-28.5 15.3c-3.8 4-26.4 26.4-26.4 26.4l12.8-18.6 22-20.2 25.3-18.2 29.5-11.8 21-5.3s3.6 1.6 2.9 3.8-44.3 12-42.6 14.2c1.8 2.2 15.8-3.6 26-6s39-6.2 49.2-6 51 .2 60.3-.4 36.8-1.6 43.5-1.4c6.6.3 41.9 2.5 53.4 3.4s88.2 5 107 6.2c19 1 62 4.6 71.5 4.6s29.7-.6 40-.2a62770 62770 0 0 0 273.7 10.4c11.7 1 21.3 2.2 23.7 4.9a184 184 0 0 1 9.1 12.6" transform="translate(0 -308.3)"/><path fill="url(#U)" stroke="#000" stroke-width="1.7" d="M601.6 577.7s1-4 4.3-4.6 6.7-.8 6.7-.8l-23.1-56.7s-5.7-2.4-7.5-1-4 4.5-3.8 6.1 3 11.3 4.3 15c1.3 3.8 17.7 40.4 19 42z" transform="translate(0 -308.3)"/></svg>