<svg xmlns="http://www.w3.org/2000/svg" xmlns:xlink="http://www.w3.org/1999/xlink" viewBox="0 0 197 253"><defs><linearGradient id="e"><stop offset="0" style="stop-color:#00b9f5;stop-opacity:1"/><stop offset="1" style="stop-color:#0f2237;stop-opacity:1"/></linearGradient><linearGradient id="f"><stop offset="0" style="stop-color:#fff;stop-opacity:1"/><stop offset=".6" style="stop-color:#fca;stop-opacity:1"/><stop offset="1" style="stop-color:#193b5f;stop-opacity:1"/></linearGradient><linearGradient xlink:href="#a" id="j" x1="-685.3" x2="-685.3" y1="-66.4" y2="-125.5" gradientUnits="userSpaceOnUse"/><linearGradient id="a"><stop offset="0" style="stop-color:#e9afdd;stop-opacity:1"/><stop offset="1" style="stop-color:#e9afdd;stop-opacity:0"/></linearGradient><linearGradient xlink:href="#b" id="k" x1="-768.3" x2="-768.3" y1="-61.9" y2="-120.7" gradientUnits="userSpaceOnUse"/><linearGradient id="b"><stop offset="0" style="stop-color:#f06;stop-opacity:1"/><stop offset="1" style="stop-color:#00ecf8;stop-opacity:1"/></linearGradient><linearGradient xlink:href="#c" id="l" x1="-763.1" x2="-763.1" y1="-67.9" y2="-143.9" gradientUnits="userSpaceOnUse"/><linearGradient id="c"><stop offset="0" style="stop-color:#ec2828;stop-opacity:1"/><stop offset="1" style="stop-color:#ff5c00;stop-opacity:1"/></linearGradient><linearGradient xlink:href="#e" id="h" x1="423.8" x2="423.8" y1="2459.7" y2="2918.5" gradientUnits="userSpaceOnUse"/><path id="i" d="M-861.9-139.2c-9.3.1-18.1.7-25.1 2.8-20.1 6.3-23.3 18.9-22.5 31.1 1.3 19.4 4 33.4 17.2 49 19 22.5 68 11.3 80.5.9 18-15 26.5-41.6 20.9-62.6-5.9-22-42.6-21.1-47.9-21l-19-.2zm172.8.7c-10.7 0-39.5 1.6-44.8 20.8A64 64 0 0 0-713.5-55c12.4 10.5 61.3 22.1 80.6-.3 13.2-15.3 16-29.3 17.5-48.7 1-12.3-2.2-24.8-22.2-31.3-8-2.6-18.4-3-29.1-3.1h-19.1z"/><path id="m" d="M-516.6-59.6c-1.4 0-11.8.7-11.8 3.2 0 2.4 10.4 3.1 11.8 3.1 1.7 0 2.4-1 1.9-1.9q1.3 0 1.3-1.2t-1.3-1.3c.5-1-.2-2-1.9-2"/><radialGradient xlink:href="#f" id="g" cx="422.1" cy="2616.1" r="250.5" fx="422.1" fy="2616.1" gradientTransform="matrix(1.53102 0 0 2.09721 -230.5 -2911)" gradientUnits="userSpaceOnUse"/></defs><g style="stroke-width:.41926989"><path d="m436.4 2407.6-.1.1c-.4.8-1 5.4-1.7 9.5-1.3 7.4-1.6 21.2-2.6 35l-.7 9c-.6 2.5-4.2 2.8-5.4.7s-2.2-4.1-3.6-6c-5-8.7-10.2-17.3-17.3-24.5a81 81 0 0 0-13-10.5c-2-.7-3.5-3-5.8-2.5 1.5 1.8 3.6 3.5 5.4 5.3a139 139 0 0 1 20.2 23.8c3.6 5.6 6.2 11.8 9 17.9 1.2 1.7.5 5-2 5-2.4.1-4.3-1.4-6.5-2.2-13.7-5.8-27.1-12.1-40.9-17.8-1.3-.1-.7 1.5.3 1.4 9.3 5.5 19 10.4 27.7 16.7 1.7 1.7 1.3 4.9-.7 6.2-3 2.7-7.3 3-11 2.5-5.8-.5-11.3-2.3-17-3.6-8.4-2.3-16.8-5-25.5-5.4-5.4-.2-11 1.5-15 5.3-5.5 5-9.7 11.2-15.5 16a19 19 0 0 1-11.5 3.8q-7.8.3-15.6-.2c-2.6.3-3.6 3.7-2 5.6l4.1 6.4c1.5 2.5 3.2 5 4.1 7.8 1.2 4.4-.6 9.2-3.7 12.4a15 15 0 0 1-8.4 4.2c-6.7 1.5-13.6 1-20.3 1h-8c-2.4.2-3.5 3.7-1.8 5.4 1.7 2.2 3.6 4.8 3.4 7.7-.5 3.4-3.4 5.7-6.2 7.3-4.4 2.5-6.2 5-11.5 5.7-2 .3-6.8.8-7.8 3-.6 2.5 2.8 2.7 4.4 3.5q3.5 1.4 5.8 5c1.4 2.1-1 4.8-2.7 6.4-6.2 7-13.3 13-20 19.5q-4.4 4-9.2 8c-1.7 1.4-1 4.7 1.5 4.4 2.6 0 5.2-.3 7.7 0q3.4 0 7 .7c2.5.7 3.8 4 2.7 6.3a52 52 0 0 1-6 10.3c-4.7 6.9-10.5 13-14.2 20.6-1.3 2.3-1.8 5.3-.5 7.8.7 1.7 2.8 2.3 4.5 1.8 2.4-.5 4.4-2 6.6-3q4.2-2.4 8.4-4.3c2.4-.7 5.2 1 5.7 3.4 1.3 4 2 8.5.1 12.4-3.7 9.7-10 18.2-16 26.7-5.2 7.5-10.6 15-15.4 22.7-3 5.3-5.6 11-6.2 17.3-.2 1.9-.7 4.7 1.5 5.7 2 1 4-1 5-2.6 1.2-1.3 2.5-2.8 4.3-3.2 1.9-.3 3.2 1.7 3.6 3.3q1.8 7.8.8 15.7c-1.3 10.7-4.7 21-7.8 31.3-4 13-8.8 26-12.1 39.3q-1.5 6.3-2 12.5c-.3 1.8-1 5.6 1.8 5.3 2.4-1 2.7-3.8 3.9-5.8a287 287 0 0 0 9.2-16.8c.8-1.7 2.3-4.1 4.4-3 1.8 1 1.8 3.4 2.1 5.2q1.3 8 2.3 16c1.5 15 2.3 30.2 3.6 45.3.9 9.7 1.6 19.4 3.4 29a82 82 0 0 0 5.8 19.7l3.5 6.4c.8 1.6 2.4 3.7 4.4 3 2.2-.6 2.2-3.4 2.4-5.3.2-3 1-6.1 1.1-9.2.2-2.4 4-2.8 5-.7 2.8 5 5.5 10.2 6.9 15.9q2.3 10.8 4.2 21.8a75 75 0 0 0 4.7 17.2 26 26 0 0 0 7.5 10.5c3.7 2.8 8.7 3.4 12 6.9 2 2 3.3 4.3 5.1 6.4 1.4 1.5 1.9 6 3.7 4.7 2-1.5-.8-5-1.3-7.3-1.5-7-3.6-13.7-4.8-20.7-.4-2.4 2.7-4 5-3.3 6 2 10.8 6.8 13.8 12.3 3.3 6.2 6.2 12.6 10.2 18.4a30 30 0 0 0 9.5 8.7q10.8 6.4 20.5 14c2.7 2 5.8 3.6 8 6 1.3 1.6 4.3 2.7 5 .4.5-2-1-4-1.8-5.8l-9.3-17.6c-1-2.1 1.7-5 3.8-3.8 5.9 3.4 10.6 8.4 15.6 13 6.2 5.7 12.4 11.7 19.6 16.2q6.7 4.1 14.4 5.5a60 60 0 0 1 16 5c2.2 1.1 4.7-1.3 4.3-3.6q-.9-3.8-1.4-7.7c-.7-5-.9-10.4 1.3-15.2.8-1.6 1.7-3.6 3.6-4.3 2.3-.7 4 1.8 4.3 3.8 2.5 11.2 4.5 22.6 7.5 33.6q1.7 5.2 3.8 10.1c.9 2.1 4 2.3 4.2-.2l.5-10.2q.4-3.9.4-7.8c0-1.6-.3-5.4 1.8-4.3 2 1 2 4 3.3 5.7 1.5 2 2.3 4.4 4 6 1.6 1.6 4.5.8 6-.8 4.5-5 7.1-11.2 9.1-17.5 2.3-7 4-14.4 7.5-21 1.2-2.4 3.8-4.4 6.6-3.7 2.7.6 4 3.3 4.8 5.8 1.4 5.2 1.5 10.5 2.3 15.8q.4 4.4 1 8.6c.6 2.3 3.9 2.9 5.7 1.5l10.5-7.5c5.4-3.8 11-7.8 17.5-9.3 5-1.2 10.2-1.6 15.2-3 2.6-.6 3.8-3.5 3.8-6 .1-3.8 0-7.7.8-11.4.5-2.7 3.6-3.8 6-4.6 1.8-.5 4-.8 5.4.6s1 3.7 0 5.2c-1.2 2.2.5 5.3 3 4.3 2.3-1 3.4-3.6 4.9-5.5 6.3-7.8 10.6-17 16.8-24.9 1.3-1.6 2.8-4 5.2-3.4 2.6.6 3 3.6 2.5 5.8-.5 2.7-1.6 5.8-.3 8.4s4.9 3 7.5 2c4-1.6 6.3-5.3 8.4-8.8q5.8-9.3 11.4-19c1-1.7 4.1-3.4 4.2-.8 0 2.4-1.3 4.7-1.6 7.2-.2 1.9-2 4.3-.2 5.8s3.8-1.2 4.8-2.7c4.5-7 10.9-12.5 15-19.6a60 60 0 0 0 6.6-21c1.7-10.8 2.4-22 4.2-32.9.6-3.2 2-6.4 4.4-8.5 1.8-1.4 4.7.5 4.7 2.9q0 6.7-.8 13.3c-.3 1.8-.6 6 2 4.8 2.2-1 2.9-3.6 4.3-5.3 4.8-5.8 9-12.3 11.3-19.5 2.7-8.7 2-18-.4-26.7-2.6-9-6.3-17.8-8-27q-1.4-8.2.6-16a51 51 0 0 1 3.5-11.1c1-2 3.7-3 5.6-1.5 3.5 2.7 5.5 6.8 7.8 10.5s4.8 7.2 6.5 11.1c1 2.1 4.3 3 5.2.8 1.2-3 .3-6.5 0-9.6-1.5-12-4.8-23.6-7.7-35.2-4-16.3-8.6-32.5-11.2-49a44 44 0 0 1-.2-16.9 6 6 0 0 1 4.4-4.3c2.4-.6 4.5 1 6.7 1.7 1.9.5 3.8-1 3.5-3.1-.3-2.4-1.5-4.4-2.4-6.5-4.9-11.4-10.5-22.4-15-34a39 39 0 0 1-3.6-17c.2-3.4 3-6.5 6.5-6.6a8 8 0 0 1 7.6 4.8c.9 2 2.4-.4 2-2.1-1.3-7.2-1.7-14.7-5.2-21.1-3-5.5-7.2-10.3-9.5-16.1a21 21 0 0 1-1-10.3c.5-3.4 2.3-6.7 5-8.8 2.2-1.6 4.7-2.7 6.8-4.3 2-1.3 1.8-4.4.1-6a22 22 0 0 0-10.6-5.7 22 22 0 0 1-14.3-14.2c-2.8-7.9-3-16.4-4.1-24.6-.4-3-.3-6-1.6-8.7-1-2.2-4.2-2-5.9-.4-3 3-6.5 6-10.9 6.9-4.5.8-9.7-.1-12.7-3.6-3.1-3.8-4.7-8.6-7-12.9q-3.8-7.4-10.5-12.7c-6.4-4.7-14-7.2-21.1-10.7-2.2-1-4.6-2.3-6.2-4.2a6 6 0 0 1-.3-6.5c1.9-3.2 4.9-5.7 6.5-9 1-2-1.1-4.3-3.3-4.7-9.2-2-18.7-1.9-28.1-1.3q-9.5.8-19 1.3c-2.4 0-4.2-3.2-2.8-5.3 1.2-1.9 3.4-3.2 4.3-5.3 1-2.3-2.6-3.2-4.5-2.1-3.4 2-7.5 2.1-11.2 3.1l-12.2 3c-2.3.4-4.3-2.4-3.3-4.6 1-2.4 4.6-3.5 4.2-6-.3-2.8-4.4-1-6.3-.2-4.9 2.5-10.1 4.2-15.2 6.2a174 174 0 0 1-21 7.2c-2.5.7-4.7-2-3.5-4.4q1.8-3.2 4-6.2c6.4-9.2 15.1-16.5 23.3-24l6.8-6.4c.4-.5 1.6-1.6.1-1.2q-3.5 1-6.6 3c-8.2 4.7-14.9 11.7-21.9 18q-6.2 5.3-11.9 10.8c-1.5 1.6-4.5 2.4-5.8.4-1.5-2.6-1.3-5.8-1.6-8.7-1.5-12-.6-15.7-1.7-27.7 0-1.3-1-12.5-1.6-12.5" style="color:#000;font-style:normal;font-variant:normal;font-weight:400;font-stretch:normal;font-size:medium;line-height:normal;font-family:Sans;-inkscape-font-specification:Sans;text-indent:0;text-align:start;text-decoration:none;text-decoration-line:none;letter-spacing:normal;word-spacing:normal;text-transform:none;writing-mode:lr-tb;direction:ltr;baseline-shift:baseline;text-anchor:start;display:inline;overflow:visible;visibility:visible;fill:url(#g);fill-opacity:1;stroke:none;stroke-width:4.19269896;marker:none" transform="translate(-48.3 -805.1)scale(.3422)"/><path d="m420 2382-.1.2c-.3.8-1 5.4-1.7 9.5-1.3 7.4-1.6 21.2-2.6 35l-.7 9c-.5 2.5-4.2 2.8-5.4.7l-3.5-6c-5-8.7-10.3-17.3-17.3-24.5a81 81 0 0 0-13-10.5c-2-.7-3.6-3-6-2.5l5.5 5.3a136 136 0 0 1 20.2 23.9c3.6 5.6 6.2 11.7 9 17.8 1.2 1.8.5 5-2 5-2.3.1-4.3-1.4-6.5-2.1-13.6-5.9-27.1-12.2-40.8-17.9-1.4-.1-.8 1.5.2 1.4 9.3 5.5 19 10.5 27.7 16.7 1.8 1.7 1.3 4.9-.7 6.2-3 2.7-7.2 3-11 2.6-5.8-.6-11.3-2.4-17-3.7-8.3-2.2-16.7-5-25.5-5.3-5.4-.3-11 1.4-14.9 5.2-5.6 5-9.8 11.2-15.6 16a19 19 0 0 1-11.5 3.8q-7.8.3-15.6-.2c-2.6.4-3.6 3.7-2 5.7l4.1 6.4q2.6 3.7 4.1 7.7c1.2 4.4-.6 9.2-3.7 12.4a15 15 0 0 1-8.4 4.2c-6.6 1.6-13.5 1-20.3 1h-8c-2.4.3-3.4 3.7-1.8 5.4 1.7 2.2 3.6 4.8 3.4 7.7-.5 3.4-3.4 5.7-6.2 7.3-4.3 2.6-6.2 5-11.5 5.8-1.9.2-6.8.7-7.8 2.9-.6 2.5 2.8 2.7 4.4 3.5q3.5 1.5 5.8 5c1.4 2.2-1 4.8-2.6 6.5-6.3 6.9-13.4 13-20.2 19.4q-4.3 4.2-9 8c-1.8 1.4-1.1 4.7 1.5 4.4 2.5 0 5-.3 7.6 0q3.5 0 7 .7c2.6.7 3.8 4 2.7 6.3a52 52 0 0 1-5.9 10.4c-4.8 6.8-10.6 13-14.2 20.5-1.3 2.4-1.8 5.4-.6 7.8.8 1.7 2.8 2.3 4.5 1.9 2.4-.6 4.5-2 6.7-3.1q4-2.3 8.4-4.2c2.3-.8 5.1 1 5.6 3.4 1.3 3.9 2 8.4.1 12.3-3.7 9.7-10 18.2-15.9 26.7q-8 11.2-15.4 22.8c-3.1 5.3-5.7 11-6.3 17.2-.1 2-.7 4.8 1.5 5.7 2.1 1 4-1 5.1-2.5 1.1-1.4 2.4-2.9 4.2-3.2 2-.3 3.2 1.6 3.6 3.3q1.8 7.6.8 15.7c-1.3 10.7-4.7 21-7.8 31.2-4 13.1-8.8 26-12 39.4q-1.5 6.1-2 12.5c-.4 1.7-1.1 5.5 1.7 5.2 2.4-1 2.7-3.8 4-5.8a287 287 0 0 0 9.1-16.7c.9-1.8 2.3-4.2 4.4-3 1.8 1 1.9 3.3 2.1 5.2q1.4 7.9 2.3 15.9c1.5 15 2.3 30.2 3.6 45.3.9 9.7 1.7 19.4 3.4 29a82 82 0 0 0 5.8 19.7l3.5 6.4c.8 1.7 2.4 3.7 4.4 3 2.2-.6 2.2-3.4 2.4-5.3.3-3 1-6 1.1-9.2.2-2.4 4-2.8 5.1-.7 2.8 5 5.5 10.3 6.8 16 1.7 7.1 2.8 14.5 4.2 21.8a76 76 0 0 0 4.7 17c1.8 4 4 8 7.5 10.6 3.7 2.8 8.8 3.5 12 6.9 2 2 3.3 4.4 5.1 6.4 1.4 1.5 1.9 6 3.7 4.7 2-1.5-.8-4.9-1.3-7.3-1.5-7-3.5-13.7-4.7-20.7-.4-2.4 2.6-4 5-3.2 6 2 10.8 6.7 13.7 12.3 3.3 6.1 6.2 12.5 10.2 18.3a30 30 0 0 0 9.6 8.7q10.7 6.4 20.5 14c2.6 2.1 5.7 3.6 7.9 6.1 1.3 1.5 4.3 2.6 5 .3.5-2-1-4-1.8-5.7q-4.6-9-9.3-17.7c-1-2.1 1.7-5 3.8-3.8 5.9 3.4 10.6 8.4 15.6 13 6.2 5.7 12.4 11.7 19.6 16.2q6.7 4.1 14.4 5.5 8.4 1.4 16 5.1c2.2 1 4.8-1.3 4.3-3.7l-1.4-7.7c-.6-5-.8-10.4 1.4-15.1.7-1.7 1.6-3.7 3.5-4.3 2.4-.8 4 1.7 4.4 3.7 2.4 11.3 4.4 22.6 7.4 33.7q1.6 5 3.9 10c.8 2.2 4 2.3 4.1-.2l.5-10.1q.4-4 .4-8c0-1.5-.3-5.3 1.9-4.2 2 1 1.9 4 3.2 5.8 1.5 1.9 2.3 4.3 4 6 1.7 1.6 4.5.8 6-.9 4.5-5 7.1-11.2 9.2-17.5 2.3-7 4-14.4 7.4-21 1.2-2.3 3.9-4.4 6.6-3.7 2.7.6 4.1 3.4 4.8 5.9 1.4 5.1 1.5 10.5 2.3 15.7q.4 4.4 1.1 8.7c.5 2.2 3.8 2.8 5.6 1.4l10.5-7.4c5.4-4 11-7.9 17.5-9.4 5-1.2 10.2-1.6 15.2-2.9 2.6-.7 3.8-3.6 3.9-6.1q-.2-5.7.7-11.3c.5-2.8 3.6-3.9 6-4.6 1.8-.6 4-.8 5.4.5 1.6 1.4 1 3.7 0 5.3-1.2 2.1.6 5.3 3 4.2 2.3-1 3.4-3.6 5-5.5 6.2-7.8 10.5-17 16.7-24.9 1.3-1.6 2.8-4 5.2-3.4 2.6.6 3 3.6 2.5 5.8-.5 2.8-1.6 5.8-.3 8.4s4.9 3 7.5 2c4-1.6 6.4-5.2 8.5-8.7q5.8-9.4 11.3-19c1-1.8 4.1-3.5 4.2-.9 0 2.5-1.3 4.7-1.5 7.2-.2 1.9-2 4.3-.3 5.8 1.9 1.6 3.8-1.2 4.9-2.7 4.5-7 10.8-12.5 15-19.6a60 60 0 0 0 6.5-20.9c1.7-11 2.4-22 4.3-33 .5-3.1 1.8-6.4 4.3-8.4 1.8-1.5 4.8.5 4.7 2.8q.1 6.7-.8 13.3c-.3 1.8-.6 6 2 4.8 2.2-1 2.9-3.5 4.4-5.3a58 58 0 0 0 11.2-19.5c2.8-8.6 2-18-.4-26.7-2.6-9-6.3-17.8-8-27q-1.3-8 .6-16a51 51 0 0 1 3.6-11c.9-2 3.7-3 5.5-1.6 3.5 2.8 5.6 6.8 7.8 10.6 2.3 3.6 4.8 7.1 6.5 11 1 2.2 4.4 3 5.2.8 1.2-3 .3-6.4 0-9.6-1.5-12-4.8-23.6-7.7-35.2-4-16.3-8.6-32.5-11.2-49a44 44 0 0 1-.2-16.8 6 6 0 0 1 4.5-4.4c2.4-.6 4.4 1 6.6 1.7 2 .5 3.9-1 3.6-3.1-.4-2.3-1.6-4.4-2.5-6.5-4.9-11.3-10.4-22.4-15-34a39 39 0 0 1-3.6-17c.3-3.3 3-6.4 6.5-6.6a8 8 0 0 1 7.6 4.9c1 1.9 2.5-.4 2.1-2.2-1.4-7.1-1.7-14.6-5.3-21-3-5.5-7.2-10.4-9.4-16.2a21 21 0 0 1-1-10.3q.7-5.3 5-8.8c2.1-1.6 4.6-2.7 6.8-4.2 1.9-1.4 1.7-4.4 0-6.1-2.8-3-6.7-4.5-10.6-5.6a22 22 0 0 1-14.2-14.2c-2.9-8-3-16.4-4.2-24.7-.4-2.9-.3-6-1.6-8.7-1-2.1-4.2-2-5.9-.3-3 3-6.5 6-10.9 6.8-4.4.9-9.6 0-12.6-3.6-3.2-3.7-4.8-8.5-7-12.8q-3.9-7.6-10.6-12.7c-6.4-4.8-14-7.3-21-10.7a16 16 0 0 1-6.2-4.3 6 6 0 0 1-.4-6.5c1.9-3.2 4.9-5.7 6.5-9 1-2-1.1-4.3-3.3-4.7-9.2-2-18.7-1.8-28-1.2q-9.6.8-19 1.2c-2.5.1-4.3-3.1-2.9-5.3 1.3-1.9 3.4-3.1 4.3-5.2 1-2.4-2.6-3.3-4.5-2.2-3.4 2-7.4 2.2-11.2 3.1l-12.2 3c-2.3.5-4.2-2.3-3.3-4.6s4.6-3.5 4.3-6c-.4-2.8-4.5-1-6.3-.1-5 2.4-10.2 4-15.3 6.1a174 174 0 0 1-21 7.3c-2.5.6-4.7-2.2-3.5-4.5q1.9-3.2 4-6.2c6.5-9.2 15.1-16.5 23.3-24q3.6-3.2 6.8-6.4c.5-.5 1.7-1.6.2-1.2q-3.6 1-6.7 3c-8.2 4.7-14.9 11.7-21.9 18q-6.1 5.2-11.8 10.9c-1.6 1.6-4.6 2.3-5.8.3-1.6-2.6-1.3-5.8-1.7-8.7-1.5-12-.6-15.7-1.6-27.7-.2-1.2-1-12.5-1.7-12.5m3.8 60.3c.6-.3-.7 13.8 3 14.8 1.6.5 5.3-1.8 9.6-6 2.5-2.6-2.8 5.3-3.5 6.3-5.4 7.7-3.4 16.4-2.5 17.2 1.2 1 .1-5.4 8.6-14l2.3-2.1c-14.2 20.2-1.5 58.5-3 77.5 9.5-44-5.2-71 27.2-91.3q1.3-.6 2.2-1.3c5.5-3.6-7 14 0 12.8a100 100 0 0 0 22.7-9.7c1.6-1 2-.7 2 .1-12.1 8.7-29.8 21.9-30.3 47 1.9-8.7 8-24.3 29.5-35.2 3.3-1.6 6.3-3 10.3-2.8l1.7.3 5 .2c-35.2 13-40.4 42.5-33.8 65.6 4-41.8 30-40 54.6-61.2 2.8-2.5 5.4-6 9.7-6.3 17.8-.2-15.1 7.3 9.5 19.5-30.7-2.6-38.8 22.2-50.3 33.5 24.5-14 59-19.6 71.5-23.4l3 3.2c-15.6 14.4-23.8 17.2-52.6 23.2 29 2.4 46.6-7.6 63.1-7.6l3.4 6.3c1.2 3.4-1 6.2-5.6 8.9-4.1-4.9-8.5-8.3-13-9q-4.5-.6-9 .7c-25.4 7-53.7 52.2-53.7 52.2s26.9-29 49.8-36.6q0 .6-.3 1.1c-6.3 6-23.6 13.3-35.4 28.3 5.9-5 30-18.4 35.5-21q0 1 .4 2.1c-3.5 4-17.6 10.2-22.3 14.5 5.6-1.8 18.8-6.8 24.1-8.7l.7 1.7c-3.7 1.6-18.6 9-26 12.3 6.6.5 23.3-6.8 28-7.8l1.2 2.8c-2.9 1.4-13.5 2.6-15.3 5.5 2-.8 14.7-1.1 17.4-1.2l.4 1c-1.7.1-6.5.6-7.8 2.3 1.6.5 7.9 1.8 9.7 2.2q.8 1.8 1.3 3.6c10.1 2.8 8.6-20-3-14.8-3-12.7-5.6-27.4 4.7-25.4 18.2 3 40.8 56 40.8 56s-1.1-4-3.2-10.1c17 4 29.9 9.8 32 17.1 5.7 21.2 3.9 19.3-.8 17.7h-.2l-1.4-.5c-3-.9-5.5-1.4-8-3.3-12.7-10.2-36-12.7-62.4-8 33.2 1.8 51.5-1.9 63.9 31.3a230 230 0 0 0 7.1 18c-17.9-6.2-18.5-22.7-61.7-21.2 41.4 2 40.2 25.7 60.5 31.3 3.2.9 6.7 2.3 8.8 7.2 5.2 12.5 7.9 21.6.7 19.4-3.3-1.4-3.7-3-5.3-4.8-12.8-15-30.8-17.7-55.2-46 21.2 38.8 47.2 43.3 49 58.8q.1 7.7 2.6 18.3c-16.4-18-39.3-19.1-56-53.7 15.7 47.3 49.1 51.7 62.5 78.8 2.2 7.6 4.3 14.8 5.7 20.3 5.4 20 3.5 15.2-1 11.4a16 16 0 0 1-4-5.7c-6.7-17.5-36.9-31-57.5-55 14.5 34 55 39.5 47.6 67.2a83 83 0 0 0-4.7 20.5c-14.2-9.4-42.5-22.9-66.8-63.1 29.5 62.7 65.5 68.5 67.7 79.8v.6c3.6 20.8 13.9 40.2 11.6 48.8-1.6 5.7-.2 9.7-2.6-2.6q-1.8-8.2-5.6-9.9c-2.9-1.6-4-1.8-5.2-4.9-15.5-38.9-56.3-61.8-83-93.6 32 49.6 54.4 69 68.2 86.1 4.8 6 7 14.4 3 27.3-4.4 14.4-1.9 34-3.4 43.3-6.3 39-11.4 29.2-8.8 24.7l.8-1.8c3.4-5.1 14.6-71.5-58.9-97.5 60 30 59.1 78.3 43.1 101q-.8 1.2-1.2 2.3c-6.3 16.5-19 27.7-13.4 17.8 2.8-4.9 1.2-8.7-2.3-10.7-2.5-60-31.8-78.3-47.3-118.2 12 39.5 35.5 66.3 36.8 117.5a17 17 0 0 0-10.1 8.6l-.4.6q-1.5-5-4-10c-5.6-12.5-2.4-31.2-21-66.1 9.4 24.6 9 39 11.6 50-10.5-16.7-23.9-37-31.2-66.5.3 44 44.6 91.6 36.1 107.3-6.1 9.2-.6-6.5-5.3-4.8l-1.8.5c-2.8.8-6.6-2-7.7-4.6q-1.1-3-2.4-5.8c-12.2-28.2-31-49.8-35.7-63.2.1 18.2 39.7 69.7 27.8 80.3l-.2.2c-2.6 2.4-4.3 6.1-5 12.4-1 8.3-6 8-11.4 7.4 7-46.8-21.4-50.4-23.6-87-8.2 32.9 29.3 75.8 12.8 88.4-6.8 5-14.6 23.1-14.4 5.7q0-5.4-1.6-9.5c-2.4-14.4 1-45.8-8-52.2 2.8 12.5-3.2 28.7 1 41.8.2.6 0 1.4-2.8.2q-2.5-1-5.2-1c-1.6-.1-2.9-.7-2.8-1.8 1.7-21.3-8.6-34.9-9.2-66.4-6.3 32.4 7.7 47.9-5.4 80.6q-.9 1.8-1.6 4c-8.5 24-6 26.7-13.7 9.7l-.4-.7c-6.1-11-11.2-44.4-11.3-68-15.4 31.8 10 44.3 5.5 70.5-2.2 3-4.4 5.5-5.4-1.9a57 57 0 0 0-4.7-17l-.6-1.1c-10-18.6 3.2-42-9-71.3 3 16-6.6 39.2-.3 61.3.8 2.8-1 6.2-3.2 9.1-5.9 5.3-12 13.3-8.9 20.2 1 2.2-2.1 3-7 2.2-22.2-11 5.2-29.8-2.8-96-6.7 47.6-18.7 64.1-14.1 89.3q-3-2-5.4-4.3a117 117 0 0 0-10.2-9c-21.1-22-15.6-63.9-19.1-91.6-2.7 25.5-9.6 48.6-4.4 77.6-11.2-4-18-1.2-10.7 14 4.1 8.7-10.7-.2-23.1-21.8-9.7-23.3 33.8-76.6 31-116.5-2 33.5-32.9 65.2-38.8 103.5q-2.1-2.7-4.5-5.2c-22.4-27 24.7-31.4 24.7-109.5-8.6 37.3-31.1 67.3-35.5 100.5l-2.5-1.5c-3.9-2 1.7-21 4.3-43.7 2.5-22.4 22.3-13.4 28.8-50.8-7 16-10.7 7-31.5 46-7 13.2-11.2 28.5-13 49.4v1.1c1.4 22.8-5 5.6-5.4 0a72 72 0 0 0-1-7.6c.2-66 62.2-98.5 56.3-135.6-6.4 24.8-56.3 76.5-68 100.2a59 59 0 0 0-7.5-12.7c-3.7-6 10.9-11.6 8.5-23.9-1.9 5-15.3 19.2-17 22.1a22 22 0 0 0-2.8 9c-1.6 10.1-2 4.4-2.4-8.4-.2-9.5 7.3-13.3 10.7-16.9 21.8-23.1 36.4-65.3 68-84.7-30 13.5-64.3 64.9-79.3 76.2l-.2-7.2v.4c11.8-30.5 48.7-56.4 52.5-85.4a198 198 0 0 1-28 34.7c7.9-19.7 15.2-40.7 38.6-61.8-33.9 19.3-45.7 55.2-64.3 86a262 262 0 0 0-3-27.6c2.2-23.8 40.5-69.3 49.4-91.9-18.3 29.5-43.7 49.9-62.7 77.5-15 15 0-19.8 6.4-35.2 2.7-6.5 5.7-18.6 6.4-28.8 5.3-20.4 25.1-30 45-47-17.2 12.4-36.7 15.8-55.5 31.4l-.7.4c-11.1 7.3 8.6-22.7 21.1-40.2 5.1-6.2 22.6-28.2 43-24-9.2-6.3-20.7-5.3-30.9 1.3 2.8-12.2 0-23.5-12.7-16.7-8.3 4.5-6.3-.6-2.4-8 9.5-12.7 31-6.3 47-8.2-21.4-10.4-27-4.3-42.1-1 4.5-8.5 7.7-16.5 0-15.4-5.3.7-3-2.8 1.2-8.3 2-2.5 8.5-1 8.5-1-1.8 5.3-2.8 8.8-2.8 8.8s22.7-53 40.8-56c10.4-2 7.7 12.7 4.8 25.4-11.6-5.1-13.2 17.6-3 14.8l1-3.2 7.1-1.5a12 12 0 0 0-5-3.1q.1-.6.4-1.1c1.6 0 14.6-.5 16.7.4-1.8-3-12.5-3.5-14.6-5l1.2-2.6c4.3.6 25.2 9.2 32.1 8.6-7.7-3.3-27-12-30-13.3l.6-1.6c5.4 2 19.6 7.8 25.2 9.6-5-4.4-20.6-11.8-23.3-15.7l.3-1.7c4.7 2 33.5 18.2 39.6 23.5-12.2-15.5-33.4-24.8-39.6-31.3l-.2-.7c23 7.6 49.8 36.6 49.8 36.6s-28.3-45.2-53.6-52.2q-2.6-.8-5.2-.9 5.3-1.8 10.3-4.3c40.2.8 29.6 30.4 60.4 37.8-14.3-20.4-22.2-34-52.6-43.5 5.3-5.6 5.4-12.8-7-21.7q-.6-.5.5-.7c27 5.1 45.6 13 67.1 34.6-9-30.1-45.2-30.4-40.2-38.7 6-2.6 10.6-7.2 10.6-15.2q.1-5.3 4.3-6.7c3-.6 3.5-.2 5.8 1.8 15.6 13 30.2 62 50.2 68.8-15-33.5-11.7-56.6-40.5-69.8 10.4 2.4 22.6 7 30.6 8.7q3 .6 5.2.6c17.6 3 18.1 20.3 23.1 60.2 1-11.4 9-14.3 3.4-35.7-3.8-14.6-15.8-26-11-29.4l2.8-.5c8-.6-4.6-7.1-.3-6q1.2.2 2.6.7c11.7 5.2 20.2 30 19.4 46.5 12.9-30.7-1-31-8.6-42.5 6.9 2.8 12.5 5.2 9.5 2-13.3-14-1.2-3.6 3.5.7 1.3 1.2 0-6.4 1.6-13zm-50 27c6 33.2 27.8 77.2 16.8 98.6-1.1 2.1 7.6 9 8.6 13.7 2-6-1.7-8.2-1.5-10 4.5-41.7-14.6-69-24-102.3m58.3 8.1c-14.8 44.5-3 62.1-8.2 100.4-.3 2.2 2.8 2.2 3.5 6.1 2.6-4.6-.4-7.2 1.3-8.8 7.9-7.6-2.7-60 3.4-97.7m-43 5.5c5.6 46.7 18.8 81.7 14.7 94.5-.8 2.5 4 5 4 11.2 2.8-5 1.7-8 1.8-9.1 1.6-15.7-13.1-75.4-20.5-96.6m69.6 1.9c-16.4 15.5-13.6 49-18.1 75.6-.8 4.5 0 3.7 6 10.5-.9-7.1 4.2-12.2 3.8-20.1-1.2-29.9-.2-55.2 8.3-66m-39 10.4a23 23 0 0 1-2 22.2c-14.4 17 2.1 48.4-3 58.2-2.1 4.2-1.1 7 3 13-.2-5.4-1-7.6 2.9-10 9.2-5.8-5.9-35.5.2-58.4.8-3.2 6-11.2-1-25m49.8 2.6c-6.5 12.1-19 33.5-8.7 53.2 2.2 4.3-6.6 6.2-5.6 19 2.7-10 15.2-11.5 13.5-17.3-3.3-11-1.5-37.2.8-54.9m-154 3.7s8 6.7 19.8 12.1c29.2 13.7 17.5 24.6 22.2 41.6.6 2.3 8.2 6.7 9.2 12 2-3.8 1-7.3.5-10 2.8 1.7 11.1 4.2 16.2 13.7-2.5-13.6-6.8-12.2-5.5-14.5 10.5-18.2-11.8-33.3-19.8-51.1 3.4 17.5 24.9 33.3 8.8 49.9v-.3c0-27-16.7-31.7-27.6-45.2-5.2-6.4-23.8-8.2-23.8-8.2m181.3 6.8c-23 8.8-19.6 29.2-22.5 47.8-.4 2.5-5.7 3.7-6 10.1 4.5-5.7 14.3-4.7 14.1-7.2-3.2-40.5 7.5-43.8 14.4-50.7M263 2511a44 44 0 0 0-11.9 13h-.5q1-2 .4-4c-4.2-13.1.1-7.4 12-9m354.3 3.4c3.5-.3 4.1 7.7 4.1 16.8-.1 9.5-12.1 9.7-26.2 10.1q-2.6-5.6-5.5-11l13.3-2.3q3-.4 6.3-5.5c3.7-5.6 6.3-8 8-8.1m-80.5 1.2c-11.4 4-48.4 20-48.9 43.9 0 1.8-4.6 3.4-5.7 11.4 7.1-8.3 13.9-6.3 13.9-8.6.2-32 28.8-26 40.7-46.7M245.9 2533c-5.4 10.1-10 21.7-13.1 30.7l-4.3-.8c5.3-8 9.4-17.4 2.6-24.4-.7-.7 1.5-2 4.5-3.6q4.4-1.9 10.3-2m76.5 9.4c5 8.8 14.6 8.5 19.6 17 2.4 4.1 11.7 1 13.6 8.7 1.5-7.7-4.4-7-5-8.7-4.5-10.1-22.8-13.2-28.2-17m295.4 5c1.5 0 3.5 1.3 3.8 3.3v.4q.4 3.9 1.7 4.1c37.5 1.6 11.9 1.5 10.2 12.7q-14.6-5.3-30.3-7l-5.1-13a60 60 0 0 0 19.7-.5m-81.2 11c-21.4 1.9-25 8.2-28.5 8.9-2.5.5-5.4.6-10.5 6.8a36 36 0 0 1 15.7-1.8c7.4 1.5 12 5.4 13.6 4.8 8.1-2.2 8.3-7.8 31.5-10-27.5-1.2-27.1 3-32.3 4.3-.7.2-3-.2-6-.4 1.6-2.9 3.3-9.5 16.5-12.6m-226.5 6.9c-6.7 0-14.7 1-21.6.5 10.5 1.8 22.8 3.2 28.7 5.8 2.8 1.2 12.5-1.5 17 1-4.4-5-9.5-3-11.6-4.6-2.7-2.2-7.2-2.8-12.5-2.7m-37 3.5q-2.9 0-5.5.2c18.8 1.3 28.5 9.2 33.4 12 5 3 14.3-1.2 19.7.9-3.4-4.9-10.2-4-11.2-4.9-4.4-4.4-22.5-8-36.3-8.2m271.2 6.4c-9.1-.2-14.2 5.4-15 5.6-1 .3-6.8-.9-12.7 1.2 9.3.9 14.4 6.1 18.5 3.7 2.3-1.3 2-7.8 13.3-10q-2.1-.5-4.1-.5m-281.5 1.2c16.3 5.2 15.8 15.3 26 18.6 3 1 12-3.7 17.8-1.8-6.6-5.5-12-3.3-15.5-5.4-9.1-5.2-23.6-11.8-28.3-11.4m309.6 4.5c-17.5-.1-14.2 10-31.9 10-2.7 0-11.7.4-15 3 7.8.1 19 6.2 21.8 4.6 10.7-6.2.4-18.5 51.3-13.3a114 114 0 0 0-26.2-4.3m-312.9 4q-3.9-.2-10 2c18.3 1.4 24.3 11.4 33.3 18.8 1.6 1.3 6.4-4 16.3-2.9-9.2-2.5-11.7-4.5-13.7-4.5-14.4 0-14.5-13.2-25.9-13.5m84.9 7.2c-23 .1-44 7.7-32.7 34.1 6.6 13.2 23.3 25.4 36.7 22.6s14.5-8.5 20.6-18.6c8.2-13.4 12.8-33.2 1.3-35.5a133 133 0 0 0-26-2.6m141 0c-8.9 0-18.2 1.1-25.9 2.6-11.5 2.3-6.8 22 1.3 35.5 6.2 10 7.1 15.8 20.6 18.6s30.2-9.4 36.8-22.6c11.2-26.4-9.8-34-32.7-34m-52.2 8.6-5.3 8.5a39 39 0 0 1 13 19.3c1.5 4.2 7.2 7.3 7.5 12.4-11.4-4.7-27.4-.7-31.4-.7l-12 .1c5.7 5 6.9 8 12.5 8.1 5.3.1 18.2-4.8 31.3-4.4q.4 2.3 1.5 4.5a29 29 0 0 1 2.5 11.6c-11.3-8.3-31.3-3.2-35.8-3.2s-9.4.9-16.6.9c6.7 2.8 11.5 7.3 17.1 7.4 5.9.1 20.9-5.8 35.3-4.1q-.1 7.4-1.8 13.6c-11.5-6.9-30-2.2-34.3-2.2-4.4 0-12.8-.9-20-.9 6.7 2.8 14.8 9 20.5 9.2 5.6 0 19.5-5.3 33.3-4.3q-1.6 5.4-3 7.6c-1 1.6-4.6.2-6.8.1-13.6 0-14.5 9-27.1 9-11.8 0-10.5-9.4-24-9.4-1.8 0-5.6 2.5-6.5-.6-3.3-11.8-6-12-6-23.6.1-8.8 8.8-23.3 10-29.5 1.3-6.3 3.1-16.8 9-21l-5.8-8.2c-8 5.8-11.4 19.3-13 27.2-1.5 8-8.3 12.9-8.4 21.4 0 13.2 5.7 21 6.2 38.6.1 5.4 4.9 9 8.1 12.1 3.3 3.2 6.6 5.8 8.1 7.4 5.8 6.2 11.4 11.8 14 18.1a38 38 0 0 1 1.4 14c-.2 6 4.5 5.8 1 8.7-4.6 4-10.1-.3-16.5.8-13.3 2.1-29.2 4.5-41.8.8a39 39 0 0 0 15.5-19.4c-6.4 6.2-14 11.6-17.8 14.4-1.8 1.4-.6-4-1.8-5.6s-3.4-3.8-.6-8.3c6.7-3 7.5-5.6 9.6-8.3-7.5 3.5-10 4.5-11.6 4.7-8.1.6-7.3-5.1-9.7-7.4 7.9-.5 10.3-2.7 15.2-4-6.3.6-12.6 1.7-19.3.8-4.5-2.4-6.9-5.3-3.7-10-1.1 1.7 23.4.3 35 .7-11.9-1.7-24.1-6-35.8-4.6-2-3.7-1.7-6.7 0-9.4 19 2.7 16.4.8 24.3 2.5-6.1-3-9.6-6.3-23-7.7q1.9-5.2 5.2-10c3.4-12.1.8-8.6-3.5-.3-10.2 14-13.5 27.5-8 38.4-4.7 4-15.7-.2-20-2.7-.4-.2 1-.7 4.1-2.7-3.5 1-9.5-1-10 .6-1.8 7-25 22.8-21.7 32.9 0-15.5 22.6-19.5 25.9-29.5l6.1 4.2c-22.5 15.2-20.4 35-31.3 58.2 21.8-25.1 11.8-57.4 37.7-54.6l1.9 1c-17.3 11.7-6.4 31.9-12 45.2 6.7-6.4 3-45 19.7-42.2l3.8.8c-19.2 18.6-.6 42.7-10 55 11.7-5.4-2.8-50.6 17.7-52.2q2.3 1.2 3.5 3c1 1.3.8 2.1.5 5l-.1 2.7c-25.6 24.8 4.8 29.8-18.6 70.2 27.3-36.8 1.7-61.3 19.7-65q1 2.2 3 4l1.4 1.2c-7.4 14.8-1.5 53.8-6.4 85.1 18-40.5-7.8-57.7 12.2-81l4 2q.8 5 1.3 9.5v-.6c2 37.4-11.2 17.3-6.8 119.3 15.2-39.3-7.4-54.4 8-94.5q-.4 8.5-1 16.7a75 75 0 0 0 4.8 29.3c8.7 49-19.4 67.3 3.8 104.3-7.3-60.2 1.8-76.5 5-86.7q3.4 5.3 7.5 9.1c8.8 12.5-19.6 26.6-8 49 1-26 10.4-37 14.1-43.8q5.2 3.9 10.3 5.5c-4.3 24.4.5 32.7-6.3 76 17.1-49 1.9-33.3 12.9-74.2l6.5 1.1c-.3 5 2.5 12.4 4.5 18.2 2-5.9-.9-13.4 1.7-17.2q3.6.3 8 0c1.3 12.7 5.8 19.4 5.2 38 8.7-20.2-1.5-25 2-39.2l.8-.2c22 22-11.4 72.6 13.9 94.8-5.1-36-9.3-44.8-2.7-70.7 2.6-10.1-2-26.5 6.4-29.4l6-2.3c-.5 32.1 9.4 30.6 14 46.2-2.9-15.5-16.1-41.5-3.4-50.9h.2-.1q3.4-1.7 5.8-3.5a47 47 0 0 1 .9 19c6.7-11.1.1-18.4 3.5-22.6 3.3-3.3 5.9-7.2 9.5-12.5.1 11.4-18.1 39.3-9.2 56.9 2.8-28 11.2-59 14-64.7l.5-1c-1.4 14-1.2 39.1 15.7 55.4a144 144 0 0 1-10.3-69.7q1-3.8 1.5-8c1.8-14.8-1.5-21.1-3.2-35.6 3 2.8 7.8 2.9 6.1 27.5a81 81 0 0 0 11.5 37.2 205 205 0 0 1-7.9-52c-.7-14.5-9.9-25.4-10.5-31.3v-1.3l1.5-2.7q2.3-1.3 4.2-3 3.3-3.3 4.7-6.6c1.6 13.5 7.3 20.7 5.8 49.5 10.6-39-3.5-30.4-4-65.2.1-.8.3-1.1 1.7-2.2l5.7-3.4c19-5.6-13.8 46 25.4 74-30-50.5-10-69.2-17-79.4l4.7-4c4.5-1.3 4.9 47.4 17.6 54.3-13-27.3-6.2-51.7-13.1-58.8l1.6-1.8c8.2-.8 8.2 26.6 13.7 32.9-3.3-10.5-1.6-24.8-10.6-35.6a91 91 0 0 1 37.7 47c-3.5-32.3-19.1-26.8-33-54-.9-1.6-5.3 2.6-10 .2.9 3.5 2 4.8 3.2 5.6q-2.9 3.2-9.7 5.4c-2 .6-4.2 0-3.4-2.4 2.4-7.1 1.4-17.4-9.4-31.5-7.8-10.6-10-11.8-4.2.8 2.7 3.8 7.2 9.7 5.6 13-12.8-.5-26.7 1.4-36.8 4a2.3 2.3 0 1 0-2.3 2.2q1.8-.2 2.2-1.8c11.6-1.2 28.1-1.3 37.7.8 4.5 5 1.3 5.9-.2 8-5.5-1.8-22.9-1.7-28-1.6 4.9 1.4 22.3 5 27.3 5.6 2.2 3.6.6 6-2.8 7.7-10.9-2.2-22.2-4.2-32.3-6.7 8 4 13.8 7.1 25.5 10.8-3.9 2.8-.4 8-6.6 8.9-3.8-3.6-10.4-4.6-15.4-7.7 3.8 4.7 8 9.7 14.9 12.3.3 2.3 3.5 4.6 0 6.7-1.3.9 1.2 3.8 1.4 5.9-12-7.9-20.5-11.1-28-19.8 5.8 9.8 4.8 12.5 25.7 24.8l-1 .4c-1-1.4-4-.4-5.3 1.7-11.9 2.5-28.8-.4-42.9-3.5-5-1.1-13.1 1-16.3-.7-5.6-3.1-.8-4.4-.9-10 0-5.1.1-8 2.5-12.7 3-6.1 10.6-13.5 16.5-19.7 1.4-1.5 4.4-3.7 7.3-6.4 3-2.7 7.6-7.8 7.7-12.7.5-18.9 3.2-23 4.7-39 .7-8.6-7.2-15.1-9.8-23s-9.2-19.6-17.3-24.7m144.9.5c-7.1 0-13.4 3.5-26.5 3.5-3.1 0-4 3.7-14.7 6 8.8 1.7 15.4.7 18.3.1 5.7-1.1 13-12.1 44.5-.4-10-7.3-16-9.3-21.6-9.2m-90.4.3c14.5 0 29.3 2.6 26.7 15.6s-21.4 27.2-32.1 25.1-13.4-5.3-16.9-13.3c-3.7-8.7-5.8-17.4.5-26.2 4.5-.2 13-1.2 21.8-1.2m-145.5 0c8.7 0 17.2 1 21.7 1.2 6.3 8.7 4.2 17.5.5 26.2-3.4 8-6 11.3-16.8 13.3-10.8 2.1-29.5-12.2-32.2-25.1-2.6-13 12.3-15.6 26.8-15.6m-96.4 2.9a33 33 0 0 0-18 4.5c15.2 1 32.3-6.2 43.6 7.6-3-.4-16.8-2.4-23.7 3.1 7.2-2.5 20.7 4.4 22.9 5.1 4.4 1.6 10.3-4.5 14.2-3.1a17 17 0 0 0-6.2-3.5c2.8-1 6.4-2.7 11.2-2.7-7.5-2-10.2-1.2-14.5-3.7a69 69 0 0 0-29.5-7.3m310.4 14.6-1.4.1c-2.6.6-8.3 4.2-12.7 4.3 3.2 1.8 11.6 0 13.8.7 4.7 1.4 7.4-1.7 18.4-3.5-10.2 0-14.8-1.7-18.1-1.6m2 14.9c-2.2-.2-7.9 7.5-17 7.8 13 3.4 15.5 2 17.3 1.4a33 33 0 0 1 31.8 12c-5.7-18.2-29-21-32.1-21.2m-302.1 5.7c-13.3-.1-15 15.1-42.2 29.4 19.7 4.2 22-27.4 51.5-18.6 5 1.5 13.3-.2 16.6-5.3-8.3 1-14.4-2.8-17-3.7a29 29 0 0 0-8.9-1.8m297.8 9.2c-4.1 0-12.3 1.5-19 2 5 4 16.8 7.7 19 8.4 13.8 4.4 30 42.2 50.4 37.7-17.8-7.2-35.6-30.2-47.8-47.6q-.4-.6-2.6-.5m-270 14.7c-6 3.2-10.8 1.6-16.8 1.9-3.8.2-20.4 2.1-29.5 14.3 6.4-6.7 29.3-5.8 33.6-7.5 3.6-1.6 8.1-2.5 12.7-8.7m256.4 3.5c.2 5.3 2.6 8.5 4.3 9.8 5.5 4.2 11.3 10.3 34.1 9.2-22.4-3.9-23.2-13.8-29.3-16.2-1.1-.4-4.6 1.7-9-2.8M275 2679.7l-.3.2c-5.3 3-11.6 5.7-23.4 9.2-7.9 2.3-28.3 10-34.3 51.5 12.2-27.5 27.9-50 38.3-52.5 14.3-3.4 20.2 0 23.6-1.6a17 17 0 0 0 6-6.5c-4.8 2.8-8.2-.6-9.9-.3m266.5 4.3c-1.8 0-9.4 4.4-11.1 3.4.5 2 6.6 2.8 8.9 3.4 29.7 8 38.7 57.7 75.3 70.5-15.2-19.3-46-57.7-72.8-77.2zm-181 6.7a2.3 2.3 0 1 0 2.3 2.3q-.2-2.1-2.3-2.3m-77.5.2-.7.4c-7.7 10-20 5.2-34.8 32.5 9.5-16.4 29.4-18 39.3-25.3 3-2.3 3.5-1 6.2-6.4-4 3.7-8-1.3-10-1.2m108.8 3h.3c3.4.1 13.9 5 22 5 14.4 0 34-13 19.5 4.3-2.8 3.3.3-9.5-8.6.7-2.4 2.8-9.3 2-7.2 10 1.1 4.2.2 18-3.2 18-3.5-.1-3.9-13.4-2.8-17.6 2-7.5-4-9-6.4-11.5-9-9.3-2 5.7-7 .8-7-7-8.4-9.4-6.6-9.6m-96.2 7.7c-2.4 2.6-5.7.4-7 1.1-3.2 2-7.7 9.2-20.6 17.8 8.8-2.3 20-9.9 23-13.7.6-.7 3.1.3 4.6-5.2m72 .7q-2.1.2-2.3 2.3a2.3 2.3 0 0 0 4.5 0q-.2-2.1-2.3-2.3m93.7 3a2.3 2.3 0 0 0-2.3 2.3q.2 2.1 2.3 2.3a2.3 2.3 0 0 0 0-4.5m-106 9.1q-2.1.2-2.3 2.3c0 1.2 1 2.3 2.3 2.3a2.3 2.3 0 0 0 0-4.6m116 .5q-2.1.2-2.3 2.3c0 1.2 1 2.3 2.3 2.3a2.3 2.3 0 0 0 0-4.6m-102.4 1q-2 .2-2.2 2.2c-.2 2 1 2.3 2.2 2.3q2.1-.2 2.3-2.3-.2-2-2.3-2.2m89.8 1.5a2.3 2.3 0 1 0 2.3 2.3c0-1.2-1-2.3-2.3-2.3m-77.7.2c-1.3 0-2.3 1-2.3 2.2q.2 2.1 2.3 2.3c1.2 0 2.3-1 2.3-2.3s-1-2.2-2.3-2.2m65.2 1.5q-2.1.2-2.3 2.3a2.3 2.3 0 0 0 4.5 0q-.2-2.1-2.2-2.3m-75.5 8.7q-2.1.2-2.3 2.3c0 1.2 1 2.3 2.3 2.3a2.3 2.3 0 0 0 0-4.6m11 1.4c-1.2 0-2.2 1-2.2 2.3s1 2.3 2.3 2.3a2.3 2.3 0 0 0 0-4.6m75 .8c-1.3 0-2.4 1-2.4 2.2a2.3 2.3 0 1 0 2.3-2.2m-13.1.9c-1.3 0-2.3 1-2.3 2.2q.2 2.1 2.3 2.3 2-.2 2.2-2.3c.2-2.1-1-2.2-2.2-2.2m-71 10.2q-2 .2-2.2 2.2c-.2 2 1 2.3 2.2 2.3q2.1-.2 2.3-2.3-.2-2-2.3-2.2m82.5.4q-2 .2-2.2 2.3c-.2 2.1 1 2.3 2.2 2.3a2.3 2.3 0 0 0 0-4.6m-40.7 8.8a9 9 0 0 0 3.9 4.2c5.3 3 11.8.9 18.1 2.2 1.8.4 4.6.2 6.3.8.4 2.4-1 3-1.1 4.5-2.8-.1-7.2-4.9-7.2-4.9s-1.7 3.2-3.5 3.5c-1.3.3-3.3-1.3-3.3-1.3s-1.6 2-3 2.3-4.1-1.4-4.1-1.4-1.2 1.7-2.3 2c-1.6.4-3.5-1.4-3.5-1.4s-1.3 1.4-2.4 1.5c-1.5 0-2.8-2-2.8-2s-2 2.2-3.3 2c-2-.3-3.4-4-3.4-4-1 3-7 5.2-7 5.2.1-1.9-2-4.5-1.6-6.7 5.5-.4 11.2 1.2 16-1.3a8 8 0 0 0 4.2-5.2m-24 7.3c0 4.2 2.7 6.4 3.2 11.4 0 0 6.1-3 9.3-8 0 0-.4 4.9 2.4 5.4 1.8.3 4-1.8 4-1.8s2 2.5 4.1 2.4c1.7-.2 2.8-2.2 2.8-2.2s1.6 2.4 3.5 2.3 2.8-2.7 2.8-2.7 2 1.2 3.5 1a4 4 0 0 0 2.6-1.6s2 1.6 3.7 1.3c1.9-.2 2.7-2.6 2.7-2.6s4 3.3 8.2 4.2c.2-3.6 3-6 3.2-8.4l1 .2-.2.2c-3.2 5.3-4.1 13-8.7 24.4-.2-3.4-4.5-7.8-8-9.2-5-1.9 6.5 7.1 1.8 8.4-9.1 2.5-21.4 5-30.4 2.3-3.8-1.2 3.3-9.6-1-6.1-3.8 3-4.6 12.7.2 12.9 17.7.5 30.8-2.1 36-5.5l.3-.3-2.3 5c-.7-.7-2.9-1.8-3.7-1.7-1.1.2-2.3 2.5-2.3 2.5s-1.3-1.4-2.1-1.3c-1.3 0-3 2.3-3 2.3s-1.5-1.5-2.4-1.4c-1.2.1-2.7 1.9-2.7 1.9s-1.3-1.2-2.2-1.2c-1.1 0-2.7 2.4-2.7 2.4s-1.8-1.8-2.8-1.7c-1.3 0-3.3 2.4-3.3 2.4s-2.2-1.6-3.2-1.4c-.8.1-2.8 1.2-3.5 1.7a126 126 0 0 1-13.5-33 15 15 0 0 1 2.6-4.5m-7.3.5c-3.5 5.9-2.5 20.1-2.6 24.2l-.3.8-.4-1.2c-1.9-7.3-4.4-14.6-4-22.4a38 38 0 0 0 7.3-1.4m65.5.6h.4q.7.6 1.5 4-1-3-1.9-4m6.4.8c2.8.4 4.8 1 7.2 1 0 4.3-3.5 22.6-4 20.2-.4-2-1.5-15.4-3.2-21.2m-96.6.3h.5c4.3 24.6 9.3 69 31 64.5 36-7.3 59-12.7 76.5-15.6 5-.8 7.3-16 13.7-33.8.3 5.5.9 10.7 1.3 13.8 1.3 8.3.5 15.7-.4 23.6-7.2 6-12.3.6-18.5 1.2 5.9 3.8 11.7 7.7 17.7 6.5v.3a33 33 0 0 1-1.2 7.6c-6 1.1-12-2-18-4.1 4.3 5.4 8.8 9.7 13.6 11l-1.4 2-4.4 6.6c-6.6-1.2-13.4-3.8-19.4-15 2.3 13.4 8 18 13.8 22.6a31 31 0 0 1-9.9 7.3 357 357 0 0 1-18.9-24.8c3 7.4 6.7 20.1 11 28q-6.2 1.9-12.6 3c-.8-6.5-2.3-14.4-3.8-19 0 6.6-.8 14.2-1.7 20.1L416 2868c1-9.9.3-23.5-1.4-31.4a119 119 0 0 1-7.5 32.4q-6 .1-11.3-1.3c3.6-10.7 3-25.8 2.3-34.2-1.9 8.2-3.8 22.9-9.2 31.2q-3-1.8-5.7-4.6l-3-3.2a96 96 0 0 0 5.7-28c-2.2 5.2-4.8 17.2-9.5 23q-3.3-5.2-5.5-10.5c2.8-4.2 5.5-8.7 5.9-12a36 36 0 0 1-7.7 6.9l-3.3-10.7v-.1c-.4-1.6 2-5 2.5-11.2q-2.7 3.1-4.2 5.6l-.7-2c-.7-3.5 0-9 2.6-13.5q-3.5 1.2-5 4.2c-1.5-12.4-.6-34.1-2.6-48.8m11.8.3c-1.2 6.8 8 54.6 16.8 52.8 26-5.1 53.6-10.8 76.2-18 9.5-3 11.2-25.4 13-30.9 6.2-5.9-8 34.6-12.9 36.2-20 6.6-34.3 7-77.8 16.7-8.4 1.9-18.7-48.8-19.6-56.7zm98.1.6c.5 6.9.6 22.8-6 27.6q-3 2.1-7.1 3.5a93 93 0 0 0-1.2-14c1.4 6.5 2.9 12.3 4 12.5 4 .6 9.1-29.5 9.1-29.5zm-20.3 2.7h.1c1.2.5 3.5 19.9 2.3 29.7q-5.6 1.4-13.2 2.6a99 99 0 0 0 10.8-32.3m-61.6 2.1a89 89 0 0 0 15.3 37.6l-9.4 2.5q-2.8.8-5-1.9c-1.7-7.5-3.3-22.8-2-32.7zm167 20.8c34 27.5 52.6 65.5 53.3 82.5 1.4-22.9-30.4-83.3-53.4-82.5m-273 4.8c-24.6 12.1-29.5 56.7-44.8 78.8 11.8-8 35.2-68.5 44.8-78.8m151.6 2q.8.1 1.6 1l-1.4 2.5q-11 1.9-26.5 5.5l-2.5-4.1q.8-.8 1.7-1.2c1-.2 3.7 2.9 3.7 2.9s1.5-3.5 2.7-3.6c1 0 2.9 2.3 2.9 2.3s1.7-3.2 2.8-3c1.3.1 2.4 3.1 2.4 3.1s1.1-3.5 2.6-4c.8-.2 2.3 1.9 2.3 1.9s1.7-2.6 2.9-2.6c.8 0 2.5 1.8 2.5 1.8s1.3-2.4 2.3-2.4m120.6 12.7c7.7 19.6 32 24.2 43.7 37.8-8-14-28-22.7-43.7-37.8m.4 31.8c2 19.1 37.6 33.3 40.3 67.8 7.3-39-33-52.2-40.3-67.8m10.8 41c5.8 11.2 16.5 31.8 14.6 51.5 7.1-14.3 2.5-43.1-14.6-51.4m-247.6 6.5c-11.6 29-26.5 66.3-9 79.2-8.5-17 8-52 9-79.2m25.2 40.4c-2.5 18.6-.6 33 8.8 46.8-.2-16.5-7.1-33-8.8-46.8" style="color:#000;font-style:normal;font-variant:normal;font-weight:400;font-stretch:normal;font-size:medium;line-height:normal;font-family:Sans;-inkscape-font-specification:Sans;text-indent:0;text-align:start;text-decoration:none;text-decoration-line:none;letter-spacing:normal;word-spacing:normal;text-transform:none;writing-mode:lr-tb;direction:ltr;baseline-shift:baseline;text-anchor:start;display:inline;overflow:visible;visibility:visible;fill:url(#h);fill-opacity:1;stroke:none;stroke-width:4.19269896;marker:none" transform="translate(-48.3 -805.1)scale(.3422)"/><g style="stroke-width:.39781523"><use xlink:href="#i" style="color:#000;display:inline;overflow:visible;visibility:visible;fill:#fff;fill-opacity:1;fill-rule:nonzero;stroke:none;stroke-width:13.41887474;marker:none" transform="translate(369 130)scale(.36065)"/><use xlink:href="#i" style="color:#000;display:inline;overflow:visible;visibility:visible;fill:#fff;fill-opacity:1;fill-rule:nonzero;stroke:none;stroke-width:13.41887474;marker:none" transform="translate(369 130)scale(.36065)"/><path d="M-873.9-139.2c-9.3.1-18.1.7-25.1 2.8-1.8.6-4.2.3-4.8 1.8-2.4 5-6.3 4.9-9.3 5.6-3.5 1-4.7 5-6 7.9l6.8 38.7L-895-49c22.5 12 60.4 2.5 71.2-6.5 18-15 26.5-41.6 20.9-62.5-5.8-22-42.6-21.2-48-21.2zm172.7.7c-10.6 0-39.4 1.6-44.7 20.8a51 51 0 0 0-1.6 9.8l11.7 34.3 17.6 23c18.5 8.8 56.8 14.5 73.3-4.7 13.2-15.4 16-29.3 17.5-48.7 1-12.3-2.1-24.8-22.2-31.3-8-2.6-18.4-3-29.1-3l-19.1-.1z" style="color:#000;display:inline;overflow:visible;visibility:visible;fill:url(#j);fill-opacity:1;fill-rule:nonzero;stroke:none;stroke-width:13.41887474;marker:none" transform="translate(369 130)scale(.36065)"/><path d="M-873.9-139.2c-9.3.1-18.1.7-25.1 2.8-1.8.6-4.2.3-4.8 1.8-2.4 5-6.3 4.9-9.4 5.7-3.5.8-4.6 5-5.9 7.8l6.8 38.7L-895-49c9.3 5 21.2 6.3 32.7 5.5a50 50 0 0 1-23-6.9s8-.5 6-1.3c-8.7-3.7 44.6-1.3 43.3 0-1.9 2 3.3 1.3 3.3 1.3a37 37 0 0 0 13.3-9.2 346 346 0 0 1-75.4 0q-3.6-4.5-6-9.1s5.9.7 5.6-1.1c-.5-4.4 73-3.7 75.5 1 2.1 4.3 7.6 0 7.6 0q2.9-4.3 5-9a1872 1872 0 0 1-97.7 0q-1.5-4.5-2.5-9.2s2.5.8 4.2-2.5c2-3.6 92-3.8 93.1.1 1.2 4 6.3 2.4 6.3 2.4q1.3-4.6 1.9-9.2h-106.9l-.8-9.2s2.8-.4 4.3-3.8c2.6-5.6 95.3-5 97.7 1 1.8 4.4 6.3 2.8 6.3 2.8q0-4.7-1-9.1a919 919 0 0 0-107 0q.8-4.8 3.4-9.2s6.8-.2 7.6-3c1.8-6 80-7 84-.8 3.2 4.9 8.9 3.8 8.9 3.8a26 26 0 0 0-10.5-9.2c-26-1.2-52.2-2.2-79.9 0q3.8-2 8.7-3.6a83 83 0 0 1 17.1-2.8zm172.7.7c-10.6 0-39.4 1.6-44.7 20.8a51 51 0 0 0-1.6 9.8l11.7 34.3 17.6 23a95 95 0 0 0 44 8c-11.8-.9-23.4-4-31.4-7.7 0 0 5 1.8 4.9.3-.4-2.4 47-2.1 45.2-.4-2.2 2.2 5 .1 5 .1q3.1-2 5.6-5l3.3-4.2a275 275 0 0 1-76.3 0q-4.3-4.5-7.3-9.1s6.3 2.2 4.4-.2c-3.4-4.3 84-5.1 82.2.5-.8 2.6 2.9-.3 2.9-.3q2.4-4.5 3.8-9.2-47.7 2-98.2 0-2-4.5-3.2-9.1l-.5-2 .5 2s4 .5 3.5-2c-.8-4.3 97.3-5.4 96.3-1-.9 3.8 4 3 4 3q.9-4.5 1.4-9.2h-107q-.6-4.7-.6-9.2s3.9-.2 3.2-3.4c-.9-4.7 101.8-5.2 101.7-1.3-.1 3.8 3.5 4.7 3.5 4.7q.3-4.6-.6-9.1a1227 1227 0 0 0-106.8 0l.8-3.4q.9-3.1 2.7-5.8s5.7 1 5.7-2.5c-.1-7 81-8.9 83.3-2 1.5 4.4 10.4 4.5 10.4 4.5a29 29 0 0 0-11.4-9.2 367 367 0 0 0-77 0 70 70 0 0 1 26.4-5.6h-4z" style="fill:url(#k);fill-opacity:1;stroke:none;stroke-width:.37745842" transform="translate(369 130)scale(.36065)"/><path d="M-859.3-149.1c-25.3.1-50.2 1.2-73.3 4.7l.9 19.7c7.5 2.8 9.7 7.9 10.7 14.1 4.7 28.6 11.2 53 23.6 63a56 56 0 0 0 40.6 13c22-.7 45.5-6.6 57-19.9a111 111 0 0 0 24.7-49.1 12.3 12.3 0 0 1 12.7-10.6c6 0 11.2 3.3 12.6 10.7a111 111 0 0 0 24.2 49.3c11.5 13.3 34.9 19.5 57 20.3A56 56 0 0 0-628-46.4c12.5-10 19.3-34.3 24.1-62.9 1-6.2 3.4-11.3 11-14l.9-19.7a566 566 0 0 0-84-5.4c-10.4 0-45 4-58.8 11.6a37 37 0 0 1-16.7 4.6q-10.8.4-21.7-.1a37 37 0 0 1-16.6-4.7c-13.7-7.7-48.3-12-58.6-12.1zm-2.6 10h23.1c5.4 0 42-.9 47.9 21.1 5.6 21-3 47.6-20.8 62.6-12.5 10.4-61.6 21.6-80.7-1-13-15.5-15.8-29.4-17.1-48.8-.8-12.3 2.4-24.9 22.5-31.2 7-2.1 15.8-2.7 25.1-2.8m172.7.6h3.4q9.4.2 19 0c10.8.2 21.2.6 29.2 3.2 20 6.5 23.2 19 22.2 31.3-1.5 19.4-4.3 33.3-17.5 48.7-19.3 22.4-68.2 10.8-80.6.3a65 65 0 0 1-20.4-62.7c5.3-19.2 34-20.8 44.7-20.8" style="fill:url(#l);fill-opacity:1;stroke:none;stroke-width:.37745842" transform="translate(369 130)scale(.36065)"/><g style="fill:#fff;stroke-width:.39781523"><use xlink:href="#m" style="color:#000;display:inline;overflow:visible;visibility:visible;fill:#fff;fill-opacity:1;fill-rule:evenodd;stroke:none;stroke-width:.39781523;marker:none" transform="translate(337.4 102.4)scale(.36065)"/></g><g style="fill:#fff;stroke-width:.39781523"><use xlink:href="#m" style="color:#000;display:inline;overflow:visible;visibility:visible;fill:#fff;fill-opacity:1;fill-rule:evenodd;stroke:none;stroke-width:.39781523;marker:none" transform="matrix(-.36065 0 0 .36065 -149.5 102)"/></g></g></g></svg>