<svg xmlns="http://www.w3.org/2000/svg" xmlns:xlink="http://www.w3.org/1999/xlink" viewBox="0 0 2991.1 3009.7"><defs><linearGradient id="a"><stop offset="0" style="stop-color:#501400"/><stop offset=".3" style="stop-color:#d09c10"/><stop offset=".6" style="stop-color:#ecdc5c"/><stop offset="1" style="stop-color:#fcfc80"/></linearGradient><linearGradient id="g" x1="1204.1" x2="308.3" y1="496.6" y2="1502" gradientTransform="translate(-251.3 502.7)" gradientUnits="userSpaceOnUse"><stop offset="0" style="stop-color:#ff7f2a"/><stop offset=".2" style="stop-color:green"/><stop offset="1" style="stop-color:green"/></linearGradient><linearGradient id="e" x1="1729.5" x2="169.9" y1="-189.3" y2="1686.2" gradientTransform="translate(-209.6 402.4)" gradientUnits="userSpaceOnUse"><stop offset="0" style="stop-color:red"/><stop offset=".3" style="stop-color:#d09c10"/><stop offset=".6" style="stop-color:#ff7f2a"/><stop offset="1" style="stop-color:maroon"/></linearGradient><linearGradient id="i" x1="1234.7" x2="119.8" y1="487.6" y2="1757.2" gradientTransform="translate(-359.3 576.2)" gradientUnits="userSpaceOnUse"><stop offset="0" style="stop-color:#dcb430"/><stop offset=".3" style="stop-color:#00f;stop-opacity:.99237"/><stop offset=".8" style="stop-color:#0063f4"/><stop offset="1" style="stop-color:#000019"/></linearGradient><linearGradient xlink:href="#a" id="k" x1="1180.3" x2="2165.4" y1="1167" y2="-354.7" gradientTransform="translate(-385.1 679.3)" gradientUnits="userSpaceOnUse"/><linearGradient xlink:href="#a" id="c" x1="1577" x2="1274.1" y1="417.3" y2="114.4" gradientTransform="translate(-204.6 386.5)" gradientUnits="userSpaceOnUse"/><filter id="j" color-interpolation-filters="sRGB"><feGaussianBlur stdDeviation="6.9"/></filter><filter id="h" color-interpolation-filters="sRGB"><feGaussianBlur stdDeviation="6.9"/></filter><filter id="f" color-interpolation-filters="sRGB"><feGaussianBlur stdDeviation="6.9"/></filter><filter id="d" color-interpolation-filters="sRGB"><feGaussianBlur stdDeviation="6.9"/></filter><filter id="b" color-interpolation-filters="sRGB"><feGaussianBlur stdDeviation="7"/></filter></defs><path d="M980.6 679.4c411.8-305.7 657.3-128.2 1004.2-137.1-322.7 51.4-634.3 82.2-755.7 353.5-175.7 123-344.1-52.4-248.4-216.4z" style="filter:url(#b);fill:url(#c)" transform="translate(690 296.3)"/><path d="M979 679.2c-18.3 271.7 100.6 260.3 246.2 217.6 225.7-66.2 596.3 118.3 763.9 253.9 318.3 257.5 279.1 333.4 295 467.8 5.3 44.7-22.1 88.6-116.9 157.2-85 61.4-85.6 144.3-86.3 190.6-.7 42.9-19 87.4-117 176.1-48.6 43.9-22 181.2-81 165.8-59.8-15.6 6.9-128.4 57.1-184 44.3-49 106.9-78.7 98.1-186.3-5.6-68.7-6.8-125.5 66-191.5 53-48.1 91.7-127.3 76.4-202.9-25.3-125.6-65-96.2-45.6-18.3 27.8 111-38.3 153.3-104.1 195.6-54.5 35-77 97-78.2 161-.4 19.6-17 86-124 174.2-51.1 42-35.8 153.8-104.2 166.2-63.8 11.6 30.8-119.5 84.9-174 46-46.4 85.6-100 89.3-176.5 3-64.8-6.6-124.1 80.8-181.5 62.6-41 95-103.1 91.7-176.9-5.6-129.1-69.4-148.6-70.5-30.4-.7 70.3-23.4 131.4-92 161.3-81.2 35.6-100.7 99.7-105 170.3-4.4 71.5-45.7 124.2-105 170.3-55.5 43-33.4 151.6-95 166.2-54.1 12.8-5.5-109.3 72.6-174.5 53.9-44.9 75.2-107.7 82.7-178.5 6.2-58.5-5-122.5 82.6-178.4 51.6-33 82.2-87.3 78.3-176-8.4-186.6-77.2-122.1-74.5-29.4 2.7 88-39.2 134-93.6 173.6-38 27.6-80.8 62.4-96.9 174.8-7.8 54.4-17.2 103.8-96.9 174.9-50.9 45.4-29 175.6-97 174.8-63.9-.7 21.3-126.6 76.7-183.1 66.5-67.9 77.8-125.7 76.6-183.2-1.6-75.7 25.1-134.7 76.6-183.1 66.2-62.2 77.2-127.9 71.4-194.2-9.1-105.5-57.5-149.8-67.7-25.6-9.1 110.7-40 179.3-115.2 214.8-49.6 23.5-90.5 53.2-123.3 195-16.5 71.5-45.6 136-123.2 195-55.3 41.9-45.2 211.7-109.4 179.3-65.5-33 32.7-146.3 93.1-191.1 70.2-52.1 102.3-125.5 114-202.6 12.7-83.2 37-152.4 107-204.4 64.6-47.9 91.1-121.2 99.8-213 5.2-54.3-50.5-170.7-65.5-18.1-9 92.6-47 159.5-125.7 199.5-81.9 41.7-121.7 130.4-131.7 191.8-9.4 57.4 0 74-131.6 194.5-56.3 51.5-49 189.8-123.8 190.6-71.7.8 47.3-132.5 107.9-197.6 62.9-67.6 116.3-139.1 111.2-199-7.4-86.1 51.8-161 111-202.2 36-25 103.4-122 105.8-211.3 4-147.9-74.2-135.7-86.9-32.6-13.3 108.2-51.8 140-100.3 184.8-96.3 88.9-103.5 130.5-114 182.9a301 301 0 0 1-114 183c-59 46-41.1 181.1-112.2 192.3-66.7 10.4 20.5-137.2 91.4-202.2 50-45.8 92.5-124.5 89.5-188.5-4.8-102.3 17.5-140.3 88.8-199.3 53-43.7 120.5-125.1 91.1-184.5-43-86.7-205.4-126.7-414.4 39.5-62.3 49.5-225.2 111.3-178.6 591.7 7.3 74.8-123.2 84.6-143 165.4-13.2 53.5-39.5 97.5-109 120.3a184 184 0 0 0-126 142.8c-15.1 86.3-110 204.8-126 142.8-16.6-64.1 96-85.9 110.7-157 11.8-57 41.8-113.9 116-146.5 59.6-26.1 81.1-70.8 99.2-120.9 20-55.5 108.7-84.3 108.7-141.5-.4-290-18.4-306.3-45.8-48-6 57-107.7 72.4-123.2 131-17.2 65-31.8 119-123.2 131-65.4 8.7-107.8 70.2-123.2 131-16 62.8-84.7 183.3-123.2 131-39-52.8 98.6-93.4 110.7-141.7 14.2-57.3 26-115.5 110.6-141.8 66.5-20.5 105-59.5 110.7-141.7 4.9-69.2 102.8-92.5 110.7-141.8 42.5-264.7 10.3-231.3-44.7-49.1-21.6 71.4-110.6 60.2-123.2 129-14.3 78.1-60.5 110.3-123.2 128.9-63.1 18.7-105.5 69.5-123.1 129-18.7 63-85.6 176.7-132 135.6-45.8-40.7 110-81 119.1-146 11.3-79.5 58.7-112.8 110.3-139.4 57.8-29.8 90.3-75.7 110.3-139.3 19-60.2 87.3-77 110.3-139.4 72.5-196.1 66.2-226.5-50.8-42.3-33.7 53.2-66 106.4-124.2 128.3-67.4 25.2-100.8 76.8-124.3 128.2a336 336 0 0 1-117.4 140C-9.4 2054.6-28 2161-74 2125.8c-45.3-34.7 67-90.5 94.8-142.8 26-49.1 41.3-86.4 129.1-135.7 54.6-30.6 97.5-80.2 112-139.2 16.7-68 72.6-94.2 112-139.3 130.2-148.7 117.2-198.1-50-43.2-46.3 43-57 102-124.4 126.5-64.4 23.2-110.2 64.7-124.5 126.4-14.4 62-68.6 97.2-124.5 126.5-52.4 27.5-80.5 166-124.6 126.5-44-39.4 61.7-106.5 112.2-137.4 59.4-36.4 98-82.1 112-137.4 18.4-72.2 55.3-109.6 112.2-137.3 60.2-29.4 67.7-109.8 112-137.4 177.7-110.7 158.4-144-48.4-45-61.7 29.6-44.4 113.4-127.5 128-84.6 14.7-111.7 69.8-127.4 127.8-18 66.5-67.2 105.1-127.5 127.8-60.8 22.9-75 157-127.5 127.9-52-28.9 50-109.4 114.5-138.1 60-26.7 105.2-74 114.5-138C-43 1589-11 1545 59.5 1534c93.7-14.6 56.9-120.3 114.5-138 231.4-71.5 232.5-87.2-51.1-42-51.3 8.2-39.5 104-124.9 113-61 6.6-82.6 9.5-111.8 124.6-22.2 87.5-76.7 124.8-136.5 149.1-59.5 24.3-105.7 168.6-135.4 115.3-34.5-61.8 52-117 125.8-143.7 68.2-24.6 120.1-94 106.2-161-26-126.4 76.7-112.6 145.5-126.2 75.2-14.7 60-143 125.8-143.6 321.2-3 456.7-27.7 567.4-252.2 68.4-138.7 118-342.1-.8-408.8-63.1-35.4-141.8 25.7-185.4 112.6-40.5 80.6-110 100.6-185.4 112.6C231 858.9 167.2 900 128.1 958.4 74 1038.9-57 1141.8-57.3 1071c-.4-73.6 131.7-71.4 171.5-131.5 40-60.3 91.4-112 171.6-131.5C361 789.7 418 745.5 457.3 676.5 494.1 612 548 565.1 629 545c70.7-17.5 135-117.6-55.7-83.6-69.3 12.4-132.5 54-184.7 132.3-51.8 77.8-108 125.3-184.7 132.3-80.8 7.4-135.7 72.4-184.6 132.3-54.6 66.9-178 206.2-184.7 132.3-7.2-78.9 132.8-86.3 175.5-150 42.3-63 80.2-129.9 175.5-149.9C268.2 673.3 329 618 361 540.7c40.2-96.6 117.3-140 175.5-149.9 139.8-23.8 65-88.4-42.1-60.1-69 18.2-136 45.7-183.5 126.6C259.6 544.6 194 566.1 127.3 584 52.2 604-16.5 646.9-56.2 710.6c-50 80.4-161.5 197-183.5 126.7-22.6-72.2 138.4-72.9 174-139.7 50.9-95.3 111.9-118 174.2-139.8 74-25.8 156.7-81 174-139.7 33-111.7 113.2-127.3 174.1-139.8 154-31.5 107-74.4-28.4-67-74.2 4-126.6 41.4-169.1 96.4-43.2 55.8-85.5 91.5-169.2 96.4-73.2 4.3-132.5 47.1-169.2 96.4-41.6 56-155.3 163.1-169.1 96.5-14.4-69.4 125.7-66.5 160.3-116.7 35.8-51.7 78.7-99 160.3-116.6 65.1-14 122.3-49.1 160.4-116.6 56-99.7 96-108 160.3-116.7 124-16.7 116-88.2-44.6-66-58.9 8-120.8 15.7-163.8 98.8-41.7 80.4-101 87.7-163.9 98.8-65.7 11.6-128.3 44-165 100.5-53.6 82.9-178 160.5-164.8 100.6 15.5-69.8 123-61.7 154.1-119.3 36-66.3 89.4-104 154.1-119.3 67-15.8 129-38 154.1-119.3C182.7 9.5 246.3-5.7 307-14c136.3-18.8 51.8-83.1-48.2-61.8C191-61.4 133.2-39.4 101.6 28.4c-37.4 80.1-91.3 99-157.1 104.2-74.7 5.8-127.5 53-170.8 109.2-55.2 71.8-170.3 171.1-170.8 109.3-.6-65.1 119.1-62.3 162-135C-177.4 118-129.4 95.5-73.3 81.4c65.8-16.6 121-47 146.6-112.8C103.5-109 158-149.3 220.1-144.3c131.8 10.5 123.4-45.6-26.6-38.9-76.6 3.4-127.1 41.3-164.6 94-54.5 76.6-105.6 94.4-164.6 94C-227.7 4-280.2 48-316.4 105c-52.7 83-192.7 167.5-180.8 100.3C-484.5 134-362 138.7-330 84.4-295.8 26-258.6-25.2-163-36.9c68.7-8.4 126-46.5 167.1-121C67.8-273 110.4-275.4 171.4-279c116-7 238.9 37.2 347.7 124.4 270.2 216.6 482.4 504.3 460.1 834z" style="filter:url(#d);fill:url(#e)" transform="translate(690 296.3)"/><path d="M937.4 779.5c-18.4 271.7 100.5 260.4 246.1 217.7 225.7-66.3 596.2 118.2 763.8 253.8 318.4 257.6 279.2 333.4 295 467.9 5.3 44.6-22 88.6-116.8 157.1-85 61.4-85.6 144.3-86.3 190.6-.7 42.9-19 87.4-117 176.2-48.6 43.8-22 181.2-81.1 165.8-59.7-15.6 7-128.4 57.2-184 44.3-49 106.9-78.8 98-186.3-5.5-68.8-6.7-125.6 66.1-191.6 53-48 91.7-127.2 76.4-202.8-25.3-125.6-65-96.3-45.6-18.4 27.8 111.1-38.3 153.4-104.1 195.6-54.5 35-77 97-78.3 161-.3 19.6-17 86.1-124 174.2-51 42-35.7 153.8-104.1 166.2-63.8 11.7 30.8-119.4 84.9-174 46-46.4 85.6-100 89.2-176.5 3.1-64.7-6.5-124 80.9-181.4 62.5-41.1 95-103.2 91.7-177-5.7-129-69.4-148.6-70.5-30.3-.7 70.2-23.4 131.3-92 161.3-81.2 35.5-100.7 99.6-105 170.2-4.4 71.6-45.7 124.2-105 170.3-55.5 43.1-33.5 151.7-95 166.2-54.1 12.9-5.5-109.2 72.6-174.4 53.8-45 75.2-107.8 82.7-178.5 6.1-58.6-5-122.6 82.6-178.5 51.6-33 82.2-87.3 78.3-176-8.4-186.6-77.2-122-74.5-29.3 2.6 88-39.2 134-93.6 173.5-38 27.6-80.8 62.5-96.9 174.9-7.8 54.4-17.2 103.7-97 174.8-50.8 45.5-29 175.6-96.8 174.9-64-.7 21.2-126.6 76.6-183.2 66.5-67.9 77.8-125.7 76.6-183.1-1.6-75.8 25.1-134.8 76.6-183.2 66.2-62.2 77.2-127.9 71.4-194.2-9.1-105.5-57.5-149.7-67.7-25.6-9.1 110.7-40.1 179.3-115.2 214.9-49.6 23.5-90.5 53.2-123.3 195-16.5 71.4-45.6 136-123.2 194.9-55.3 42-45.2 211.7-109.5 179.3-65.4-33 32.8-146.2 93.2-191 70.2-52.2 102.3-125.6 114-202.7 12.7-83.1 37-152.4 107-204.4 64.6-47.8 91.1-121.1 99.8-213 5.2-54.3-50.5-170.6-65.5-18-9 92.6-47 159.5-125.8 199.5-81.8 41.6-121.6 130.4-131.6 191.8-9.4 57.4 0 74-131.6 194.4-56.3 51.6-49 189.8-123.8 190.6-71.7.8 47.3-132.5 107.9-197.6 62.9-67.6 116.3-139 111.1-199-7.4-86 51.8-161 111-202.1 36-25 103.5-122.1 105.9-211.3 4-148-74.2-135.8-86.9-32.7-13.3 108.2-51.9 140-100.3 184.8-96.4 89-103.6 130.5-114 183a301 301 0 0 1-114 182.9c-59 46-41.1 181.1-112.2 192.3-66.8 10.5 20.5-137.2 91.4-202.2 50-45.8 92.5-124.5 89.5-188.4-4.8-102.4 17.5-140.3 88.8-199.3 52.9-43.8 120.5-125.2 91.1-184.5-43-86.8-205.4-126.7-414.5 39.5-62.2 49.5-225.2 111.2-178.5 591.7 7.3 74.8-123.2 84.5-143 165.4-13.2 53.4-39.5 97.4-109 120.2a184 184 0 0 0-126 142.8c-15.2 86.4-110 204.8-126 142.9-16.7-64.2 96-86 110.7-157 11.8-57 41.8-114 116-146.5 59.6-26.2 81.1-70.8 99.2-121 20-55.5 108.7-84.3 108.6-141.4-.3-290.2-18.3-306.4-45.7-48-6 57-107.7 72.4-123.2 131-17.2 64.8-31.8 119-123.2 131-65.4 8.6-107.8 70.2-123.2 131-16 62.7-84.7 183.2-123.2 131-39-52.8 98.6-93.5 110.6-141.8 14.3-57.2 26-115.5 110.7-141.7 66.5-20.6 105-59.6 110.7-141.8 4.9-69.2 102.8-92.4 110.7-141.8 42.5-264.6 10.3-231.3-44.7-49-21.6 71.3-110.6 60.1-123.2 128.9-14.3 78.2-60.5 110.3-123.2 129-63.1 18.6-105.5 69.5-123.1 128.9-18.7 63-85.6 176.8-132 135.6-45.8-40.6 110-81 119.1-146 11.3-79.5 58.7-112.7 110.3-139.4 57.8-29.8 90.3-75.7 110.3-139.3 19-60.1 87.3-77 110.3-139.3 72.5-196.2 66.2-226.5-50.8-42.3-33.7 53.1-66 106.3-124.2 128.2-67.4 25.2-100.8 76.9-124.3 128.2a336 336 0 0 1-117.4 140.1c-66.5 45.1-85.2 151.6-131.2 116.3-45.2-34.7 67.1-90.5 94.9-142.8 26-49 41.3-86.3 129.1-135.6 54.6-30.7 97.5-80.2 112-139.3 16.7-68 72.6-94.2 112-139.2 130.2-148.8 117.2-198.2-50-43.3-46.3 43-57 102.1-124.4 126.5-64.4 23.3-110.2 64.7-124.5 126.5-14.4 62-68.6 97.1-124.6 126.5-52.4 27.5-80.4 166-124.5 126.5s61.7-106.6 112.1-137.4C-44.2 1958-5.6 1912.2 8.5 1857c18.3-72.3 55.1-109.6 112-137.4 60.3-29.4 67.8-109.8 112.2-137.4 177.6-110.7 158.3-143.9-48.5-44.9-61.8 29.6-44.4 113.3-127.5 127.9C-27.9 1680-55 1735-70.7 1793c-18 66.5-67.2 105.2-127.5 127.9-60.8 22.8-75 157-127.5 127.8-52-28.9 50-109.3 114.5-138 60-26.8 105.2-74.1 114.5-138.2 12-83 44-127 114.5-138 93.7-14.6 56.8-120.3 114.4-138.1 231.5-71.4 232.6-87.2-51-42-51.3 8.2-39.5 104-124.9 113.1-61 6.5-82.7 9.4-111.8 124.6-22.2 87.4-76.7 124.8-136.5 149-59.5 24.3-105.7 168.7-135.4 115.3-34.5-61.8 52-117 125.7-143.7 68.3-24.6 120.2-93.9 106.3-160.9-26.3-126.7 76.5-112.9 145.3-126.4 75.2-14.8 60-143.1 125.8-143.7 321.2-3 456.6-27.7 567.4-252.2 68.4-138.7 118-342-.9-408.8-63-35.4-141.8 25.8-185.4 112.6C416.4 914 347 934 271.5 946 189 959.1 125.3 1000.3 86 1058.6 32 1139-99 1241.9-99.4 1171.2c-.4-73.7 131.7-71.4 171.6-131.5 40-60.3 91.3-112 171.5-131.5 75.2-18.3 132.4-62.5 171.6-131.5 36.8-64.6 90.5-111.5 171.5-131.5 70.8-17.5 135.1-117.6-55.7-83.6-69.3 12.3-132.5 54-184.7 132.3-51.8 77.8-107.9 125.3-184.6 132.3C81 833.5 26 898.6-22.8 958.5c-54.6 66.9-177.9 206.2-184.6 132.3-7.3-78.9 132.8-86.3 175.4-150C10.4 877.8 48.2 811 143.5 791c82.7-17.4 143.4-72.7 175.5-150 40-96.7 117.2-140 175.5-150 139.7-23.8 65-88.4-42.2-60.2-69 18.3-136 45.8-183.5 126.7-51.2 87.3-116.7 108.8-183.5 126.7-75 20.1-143.8 62.9-183.5 126.6-50 80.4-161.4 197-183.4 126.7-22.6-72.2 138.4-72.9 174-139.8C-56.7 702.5 4.2 679.7 66.5 658c74.1-25.8 156.8-81 174.1-139.7 32.9-111.7 113.1-127.3 174-139.8 154.1-31.5 107-74.4-28.3-67-74.3 4-126.6 41.4-169.2 96.4-43.1 55.7-85.4 91.5-169.2 96.4-73.1 4.3-132.5 47.1-169.1 96.4-41.7 56-155.4 163.1-169.2 96.5-14.3-69.4 125.7-66.5 160.3-116.7 35.8-51.7 78.8-99 160.4-116.6 65-14 122.2-49 160.3-116.6 56.1-99.7 96-108 160.3-116.7 124-16.7 116-88.2-44.5-66-59 8.1-120.9 15.7-163.9 98.8-41.7 80.4-101 87.7-163.9 98.8-65.6 11.6-128.3 44-165 100.5-53.6 82.9-178.1 160.4-164.9 100.6 15.5-69.8 123-61.7 154.1-119.3 36-66.3 89.4-104 154.1-119.3C24 309 86 286.7 111 205.4c29.7-95.7 93.3-110.9 154.1-119.3C401.3 67.4 316.8 3 216.8 24.3 149 38.8 91.3 60.8 59.6 128.6c-37.4 80.2-91.3 99-157.1 104.2-74.7 5.8-127.5 53-170.8 109.2-55.2 71.8-170.3 171.1-170.8 109.3-.5-65 119.1-62.3 162-134.9 57.9-98.2 105.8-120.7 161.9-134.9C-49.4 165 5.8 134.6 31.5 68.7 61.5-8.8 115.9-49 178-44c132 10.4 123.5-45.7-26.5-39C74.9-79.5 24.4-41.7-13.1 11c-54.5 76.6-105.6 94.4-164.6 94-92-.7-144.5 43.3-180.7 100.3-52.7 83-192.7 167.6-180.8 100.3 12.7-71.3 135.2-66.6 167.2-121 34.2-58.3 71.4-109.6 167-121.3 68.7-8.3 126-46.5 167.1-121C25.8-172.8 68.4-175.2 129.4-178.9c116-7 238.9 37.2 347.7 124.4 270.2 216.6 482.4 504.3 460.1 834z" style="opacity:.59231;filter:url(#f);fill:url(#g)" transform="translate(690 296.3)"/><path d="M829.4 853c-18.4 271.7 100.5 260.4 246.1 217.7 225.7-66.3 596.3 118.2 763.9 253.8 318.4 257.6 279.1 333.4 295 467.8 5.3 44.7-22.1 88.7-116.9 157.2-85 61.4-85.6 144.3-86.3 190.6-.7 42.9-18.9 87.4-117 176.2-48.5 43.8-22 181.2-81 165.7-59.8-15.5 6.9-128.3 57.1-184 44.3-48.9 107-78.7 98.1-186.2-5.6-68.8-6.8-125.6 66-191.6 53-48.1 91.7-127.2 76.5-202.9-25.4-125.6-65.1-96.2-45.7-18.3 27.8 111.1-38.3 153.4-104.1 195.6-54.5 35-77 97-78.2 161-.4 19.6-17 86.1-124 174.2-51.1 42-35.8 153.8-104.2 166.2-63.8 11.6 30.8-119.5 84.9-174 46-46.4 85.6-100 89.3-176.5 3-64.8-6.6-124.1 80.8-181.4 62.6-41.1 95-103.2 91.7-177-5.6-129-69.4-148.6-70.5-30.3-.7 70.2-23.4 131.3-92 161.3-81.2 35.5-100.7 99.6-105 170.2-4.3 71.6-45.6 124.2-105 170.3-55.5 43-33.4 151.6-95 166.2-54.1 12.8-5.5-109.2 72.6-174.4 53.9-45 75.2-107.8 82.7-178.5 6.2-58.6-5-122.6 82.6-178.5 51.6-33 82.2-87.3 78.3-176-8.4-186.6-77.2-122-74.5-29.3 2.7 88-39.2 134-93.6 173.5-38 27.6-80.8 62.5-96.9 174.8-7.7 54.4-17.2 103.8-96.9 175-50.9 45.3-29 175.5-97 174.8-63.9-.7 21.3-126.6 76.7-183.2 66.5-67.9 77.8-125.7 76.6-183.2-1.5-75.7 25.1-134.7 76.7-183.1 66.1-62.2 77.1-127.9 71.4-194.2-9.2-105.5-57.6-149.7-67.8-25.6-9.1 110.7-40 179.3-115.2 214.9-49.6 23.4-90.5 53.1-123.2 195-16.6 71.4-45.6 136-123.3 194.9-55.3 42-45.2 211.7-109.4 179.3-65.5-33 32.7-146.2 93.1-191 70.2-52.2 102.3-125.6 114-202.7 12.7-83.1 37-152.4 107.1-204.4 64.5-47.8 91-121.1 99.7-213 5.2-54.3-50.5-170.6-65.5-18-9 92.6-47 159.5-125.7 199.5-81.9 41.6-121.7 130.4-131.7 191.7-9.4 57.5.1 74-131.5 194.5-56.4 51.6-49.2 189.8-123.9 190.6-71.7.8 47.3-132.5 107.9-197.6 62.9-67.6 116.3-139.1 111.2-199-7.4-86 51.8-161 111-202.1 36-25 103.4-122.1 105.8-211.3 4-148-74.2-135.8-86.9-32.7-13.3 108.2-51.8 140-100.3 184.8-96.3 88.9-103.5 130.5-114 183a301 301 0 0 1-114 182.9c-59 46-41.1 181.1-112.2 192.3-66.7 10.5 20.5-137.2 91.4-202.2 50-45.8 92.5-124.5 89.5-188.4-4.8-102.4 17.5-140.3 88.8-199.3 53-43.8 120.6-125.2 91.1-184.5-43-86.8-205.4-126.7-414.4 39.5-62.3 49.5-225.2 111.2-178.5 591.7 7.2 74.8-123.3 84.5-143.1 165.4-13.2 53.4-39.4 97.4-109 120.2a184 184 0 0 0-126 142.8c-15.1 86.4-110 204.8-126 142.8-16.6-64 96-85.9 110.7-157 11.8-57 41.8-113.8 116-146.5 59.6-26.1 81.2-70.7 99.2-120.9 20-55.5 108.7-84.3 108.7-141.4-.4-290.2-18.4-306.4-45.8-48-6 57-107.6 72.4-123.2 131-17.2 64.8-31.7 119-123.2 131-65.3 8.6-107.8 70.2-123.2 131-16 62.7-84.7 183.2-123.2 131-39-52.8 98.6-93.5 110.7-141.8 14.3-57.2 26-115.5 110.6-141.7 66.5-20.6 105-59.6 110.7-141.8 4.9-69.2 102.8-92.5 110.7-141.8 42.6-264.6 10.3-231.3-44.7-49-21.6 71.3-110.6 60.1-123.2 128.9-14.3 78.2-60.5 110.3-123.1 129C66 2147 23.7 2198 6 2257.3c-18.7 63-85.6 176.7-132 135.6-45.7-40.6 110-81 119.1-146 11.3-79.5 58.7-112.7 110.3-139.4 57.8-29.8 90.3-75.7 110.3-139.3 19-60.1 87.3-77 110.3-139.4 72.5-196 66.2-226.4-50.7-42.2-33.8 53.1-66 106.3-124.3 128.2C81.8 1940 48.3 1991.7 24.8 2043a336 336 0 0 1-117.4 140.1c-66.5 45.1-85.1 151.6-131.1 116.3-45.3-34.7 67-90.5 94.8-142.8 26-49 41.3-86.3 129.1-135.6 54.8-30.5 97.7-80 112.2-139 16.7-68 72.5-94.3 112-139.3 130.2-148.7 117.2-198.2-50-43.3-46.3 43-57 102.1-124.4 126.5-64.4 23.3-110.2 64.7-124.6 126.5-14.3 62-68.5 97.2-124.5 126.5-52.4 27.5-80.4 166-124.5 126.5s61.7-106.6 112.1-137.4c59.5-36.4 98.1-82.2 112.1-137.4 18.4-72.3 55.2-109.6 112.2-137.4 60.2-29.4 67.7-109.7 112-137.4 177.7-110.7 158.3-143.8-48.4-44.9C14.6 1640.6 32 1724.3-51.1 1739c-84.6 14.8-111.8 69.8-127.4 127.8-18 66.5-67.2 105.2-127.5 127.9-60.8 22.9-75 157-127.5 127.8-52-28.8 50-109.3 114.5-138 60-26.8 105.2-74.1 114.5-138.1 12-83.1 44-127.1 114.5-138.1 93.7-14.6 56.8-120.3 114.4-138 231.5-71.5 232.6-87.3-51-42-51.3 8.2-39.5 104-124.9 113-61 6.5-82.7 9.4-111.8 124.6-22.2 87.5-76.7 124.8-136.5 149.1-59.5 24.2-105.7 168.6-135.5 115.3-34.4-61.8 52-117.1 125.8-143.7 68.3-24.7 120.2-94 106.3-161-26.3-126.7 76.5-112.9 145.3-126.4 75.2-14.8 60-143 125.8-143.7 321.2-3 456.6-27.7 567.4-252.1 68.4-138.7 118-342.2-.9-408.8C471.4 759 392.6 820.2 349 907c-40.4 80.6-109.9 100.6-185.3 112.6-82.5 13-146.2 54.3-185.4 112.6-54 80.4-185 183.3-185.4 112.6-.4-73.6 131.7-71.4 171.6-131.5 40-60.3 91.3-112 171.5-131.5 75.2-18.3 132.4-62.5 171.6-131.5C344.3 785.8 398 739 479 719c70.8-17.4 135.1-117.6-55.7-83.6-69.3 12.4-132.5 54-184.7 132.3C187 845.4 130.8 893 54.1 900c-80.9 7.4-135.8 72.4-184.7 132.3-54.6 66.9-177.9 206.2-184.7 132.3-7.2-78.9 132.8-86.3 175.5-150 42.4-63 80.2-129.8 175.5-149.9 82.6-17.3 143.4-72.7 175.5-150 40.1-96.6 117.2-140 175.5-149.9 139.7-23.8 65-88.4-42.2-60.1-69 18.2-136 45.7-183.5 126.6C109.8 718.5 44.2 740-22.5 758c-75 20.1-143.8 62.9-183.5 126.7-50 80.4-161.4 196.9-183.5 126.6-22.6-72.1 138.4-72.9 174.1-139.7 50.8-95.2 111.8-118 174.1-139.8 74-25.8 156.8-81 174-139.7C165.8 480.3 246 464.7 307 452.3c154-31.5 107-74.4-28.4-67.1-74.3 4-126.6 41.4-169.2 96.4C66.2 537.4 23.8 573.2-60 578c-73.1 4.3-132.5 47.2-169.1 96.5-41.7 56-155.4 163-169.2 96.4-14.3-69.4 125.7-66.5 160.3-116.6 35.8-51.8 78.7-99.1 160.4-116.7 65-14 122.2-49 160.3-116.6 56.1-99.6 96-108 160.3-116.6 124-16.8 116-88.3-44.6-66.1C139.6 246.4 77.7 254 34.7 337c-41.7 80.5-101 87.8-163.9 99-65.7 11.7-128.3 44-165 100.6-53.5 82.7-178 160.2-164.8 100.4 15.5-69.7 123-61.7 154.1-119.3 36-66.3 89.4-104 154.1-119.3 67-15.8 128.9-38 154.1-119.2 29.7-95.8 93.3-111 154-119.3C293.6 141 209 76.7 109 98 41.2 112.5-16.6 134.6-48.2 202.3c-37.4 80.2-91.3 99.1-157.1 104.2-74.7 5.9-127.5 53-170.8 109.3-55.2 71.7-170.3 171-170.8 109.2-.5-65 119.1-62.3 162-134.9C-327.2 292-279.2 269.4-223 255.3c65.8-16.6 121-47 146.6-112.9C-46.3 65 8.1 24.7 70.3 29.6 202.1 40.1 193.7-15.9 43.7-9.2-33-5.8-83.4 32-121 84.8c-54.5 76.5-105.6 94.4-164.6 94-92-.7-144.5 43.2-180.7 100.2C-519 362-659 446.6-647 379.4c12.7-71.4 135.1-66.7 167.2-121.1 34.2-58.2 71.4-109.5 167.1-121.1 68.7-8.4 126-46.6 167.1-121.1C-82-99-39.4-101.3 21.6-105c116-7 239 37 347.7 124.3 270.2 216.6 482.4 504.3 460.2 834z" style="opacity:.52308;filter:url(#h);fill:url(#i)" transform="translate(690 296.3)"/><path d="M803.6 956.1c-18.4 271.7 100.5 260.4 246.2 217.7 225.7-66.3 596.2 118.2 763.8 253.8 318.4 257.6 279.2 333.4 295 467.9 5.3 44.6-22 88.6-116.9 157.1-85 61.4-85.5 144.3-86.3 190.6-.7 42.9-18.9 87.4-117 176.2-48.5 43.8-21.9 181.2-81 165.8-59.8-15.6 7-128.4 57.2-184 44.2-49 106.8-78.8 98-186.3-5.6-68.8-6.7-125.6 66-191.6 53-48 91.8-127.2 76.5-202.8-25.4-125.6-65.1-96.3-45.6-18.4 27.7 111.1-38.4 153.4-104.2 195.6-54.4 35-77 97-78.2 161-.4 19.6-17 86.1-124 174.2-51 42-35.8 153.8-104.2 166.2-63.7 11.6 30.8-119.4 85-174 46-46.4 85.5-100 89.2-176.5 3.1-64.7-6.5-124 80.8-181.4 62.6-41.1 95-103.2 91.7-177-5.6-129-69.3-148.6-70.5-30.3-.6 70.2-23.4 131.3-92 161.3-81.2 35.5-100.6 99.6-105 170.2-4.3 71.6-45.6 124.2-105 170.3-55.4 43.1-33.4 151.7-95 166.2-54 12.9-5.4-109.2 72.7-174.4 53.8-45 75.1-107.8 82.6-178.5 6.2-58.6-5-122.6 82.7-178.5 51.6-33 82.2-87.3 78.2-176-8.3-186.6-77.2-122-74.4-29.3 2.6 88-39.2 134-93.6 173.5-38 27.6-80.9 62.5-97 174.9-7.7 54.4-17.2 103.7-96.9 174.8-50.9 45.5-29 175.6-96.9 174.9-64-.7 21.2-126.6 76.6-183.2 66.6-67.9 77.9-125.7 76.7-183.1-1.6-75.8 25-134.8 76.6-183.2 66.1-62.2 77.1-127.9 71.4-194.2-9.2-105.5-57.6-149.7-67.8-25.6-9 110.7-40 179.3-115.2 214.9-49.5 23.5-90.4 53.2-123.2 195-16.6 71.4-45.6 136-123.3 194.9-55.3 42-45.2 211.7-109.4 179.3-65.5-33 32.7-146.2 93.1-191 70.2-52.2 102.3-125.6 114-202.7 12.7-83.1 37-152.4 107.1-204.4 64.5-47.8 91-121.1 99.8-213 5.1-54.3-50.6-170.6-65.5-18-9.1 92.6-47.1 159.5-125.8 199.5-81.9 41.6-121.6 130.4-131.7 191.8-9.4 57.4.1 74-131.5 194.4-56.3 51.6-49.1 189.8-123.8 190.6-71.7.8 47.2-132.5 107.8-197.6 62.9-67.6 116.3-139 111.2-199-7.4-86 51.8-161 111-202.1 36-25 103.4-122.1 105.8-211.3 4-148-74.1-135.8-86.8-32.7-13.4 108.2-52 140.1-100.4 184.8-96.3 89-103.5 130.5-114 183a301 301 0 0 1-114 182.9c-59 46-41 181.1-112.1 192.3-66.8 10.5 20.4-137.2 91.3-202.2 50-45.8 92.5-124.5 89.5-188.4-4.8-102.4 17.5-140.3 88.9-199.3 52.9-43.8 120.5-125.2 91-184.5-43-86.8-205.3-126.7-414.4 39.5-62.2 49.5-225.2 111.2-178.5 591.7 7.3 74.8-123.2 84.5-143.1 165.4-13.1 53.4-39.4 97.4-109 120.2a184 184 0 0 0-126 142.8c-15.1 86.4-110 204.8-126 142.9-16.6-64.2 96-86 110.7-157 11.9-57 41.8-114 116-146.5 59.6-26.2 81.2-70.8 99.2-121 20-55.5 108.8-84.3 108.7-141.4-.4-290.2-18.3-306.4-45.7-48-6.1 57-107.7 72.4-123.3 131-17.1 64.8-31.7 119-123.2 131-65.3 8.6-107.7 70.2-123.2 131-15.9 62.7-84.7 183.2-123.2 131-39-52.8 98.7-93.5 110.7-141.8 14.3-57.2 26-115.5 110.7-141.7 66.4-20.6 104.9-59.6 110.7-141.8 4.8-69.2 102.7-92.4 110.6-141.8 42.6-264.6 10.3-231.3-44.7-49-21.6 71.3-110.6 60.1-123.2 128.9-14.3 78.2-60.5 110.3-123.1 129C40.3 2250.1-2 2301-19.7 2360.4c-18.7 63-85.6 176.8-132 135.6-45.7-40.6 110-81 119.2-146 11.2-79.5 58.7-112.7 110.3-139.4C135.6 2181 168 2135 188 2071.4c19-60.1 87.2-77 110.3-139.3 72.5-196.2 66.1-226.5-50.8-42.3-33.8 53.1-66 106.3-124.3 128.2-67 25.4-100.5 77-124 128.4a336 336 0 0 1-117.4 140.1c-66.6 45.1-85.2 151.6-131.2 116.3-45.2-34.7 67.1-90.5 94.9-142.8 26-49 41.2-86.3 129-135.6 54.7-30.7 97.5-80.2 112-139.3 16.8-68 72.6-94.2 112-139.2C329 1697 316 1647.7 148.7 1802.6c-46.3 43-57 102.1-124.5 126.5-64.4 23.3-110.1 64.7-124.5 126.5-14.3 62-68.5 97.1-124.5 126.5-52.4 27.4-80.4 166-124.5 126.5s61.7-106.6 112.1-137.4c59.5-36.4 98-82.2 112.1-137.4 18.4-72.3 55.2-109.6 112.1-137.4C47.3 1867 54.8 1786.6 99.1 1759c177.7-110.7 158.3-143.9-48.4-44.9-61.8 29.6-44.4 113.3-127.5 127.8-84.7 14.9-111.8 69.9-127.5 127.9-18 66.5-67.2 105.2-127.4 127.8-60.8 23-75 157.1-127.5 127.9-52-28.9 50-109.3 114.5-138 60-26.8 105.2-74.1 114.5-138.2 12-83 44-127 114.4-138 93.7-14.7 57-120.4 114.5-138.1 231.5-71.5 232.5-87.2-51-42-51.4 8.2-39.5 104-125 113.1-61 6.5-82.6 9.4-111.7 124.5-22.2 87.5-76.7 124.8-136.5 149.2-59.6 24.2-105.7 168.6-135.5 115.2-34.4-61.8 52-117 125.8-143.7 68.3-24.6 120.2-93.9 106.3-160.9-26.3-126.7 76.5-113 145.3-126.5 75.1-14.7 60-143 125.8-143.6 321.2-3 456.6-27.7 567.3-252.2 68.5-138.7 118-342-.8-408.8-63-35.4-141.8 25.8-185.4 112.6-40.4 80.6-109.9 100.6-185.4 112.6-82.4 13.1-146.1 54.3-185.3 112.6-54 80.5-185 183.4-185.4 112.7-.4-73.7 131.7-71.4 171.6-131.5 40-60.3 91.3-112 171.5-131.5 75.2-18.3 132.3-62.5 171.6-131.5C318.6 888.8 372.4 842 453.4 822c70.7-17.5 135-117.6-55.7-83.6-69.3 12.3-132.5 54-184.7 132.3C161.2 948.5 105 996 28.3 1003c-80.8 7.3-135.7 72.4-184.6 132.3-54.6 66.9-177.9 206.2-184.7 132.3-7.2-78.9 132.8-86.4 175.5-150 42.3-63 80.2-129.8 175.5-149.9 82.6-17.3 143.4-72.7 175.5-150 40-96.6 117.2-140 175.4-149.9 139.8-23.8 65-88.4-42.1-60.1-69 18.2-136 45.7-183.5 126.6C84 821.6 18.5 843.1-48.2 861c-75.1 20-143.8 62.9-183.5 126.6-50 80.4-161.5 197-183.5 126.7-22.6-72.1 138.4-72.9 174-139.7 51-95.2 111.9-118 174.2-139.8 74-25.8 156.7-81 174-139.7 33-111.7 113.2-127.3 174.1-139.8 154-31.5 107-74.4-28.4-67-74.2 4-126.6 41.4-169.1 96.4C40.4 640.5-2 676.3-85.6 681.1c-73.2 4.3-132.5 47.1-169.1 96.5-41.7 56-155.4 163-169.2 96.4-14.3-69.4 125.7-66.5 160.3-116.6 35.8-51.8 78.7-99.1 160.3-116.7 65.2-14 122.3-49 160.4-116.6 56-99.7 96-108 160.3-116.7 124-16.7 116-88.2-44.5-66-59 8.1-120.9 15.7-164 98.8-41.6 80.4-100.8 87.7-163.8 98.8-65.7 11.6-128.3 44-165 100.5C-373.4 722.4-498 800-484.7 740.1c15.5-69.8 123-61.7 154.1-119.3 36-66.3 89.4-104 154.1-119.3 67-15.8 128.9-38 154.1-119.3 29.7-95.7 93.3-110.9 154-119.3 136.3-18.7 51.8-83.1-48.2-61.8C15.5 215.6-42.2 237.6-74 305.4c-37.4 80.2-91.3 99-157.1 104.2-74.7 5.8-127.5 53-170.8 109.2C-457 590.6-572.1 690-572.6 628.1c-.5-65 119.1-62.3 162-134.9 57.9-98.3 105.8-120.7 161.9-134.9 65.8-16.6 121-46.9 146.7-112.8C-72 168-17.6 127.7 44.6 132.7 176.4 143.2 168 87 18 93.8c-76.6 3.4-127.1 41.3-164.6 94-54.5 76.6-105.6 94.4-164.6 94-92-.7-144.5 43.3-180.7 100.3-52.7 83-192.7 167.6-180.8 100.3 12.7-71.4 135.2-66.7 167.2-121 34.2-58.3 71.4-109.5 167.1-121.2 68.7-8.4 126-46.5 167.1-121C-107.7 4-65 1.6-4-2c116-7 238.9 37.2 347.7 124.4 270.1 216.6 482.3 504.3 460 834z" style="opacity:.56923;filter:url(#j);fill:url(#k)" transform="translate(690 296.3)"/><path d="M1083 692.8c49.5-1 103-20.2 140.3 32.1 41.2-80.8 129.9-108 217.5-136.5-131-4.3-246 25.2-357.8 104.4" style="fill:#fff" transform="translate(690 296.3)"/><path d="M1281.9 657c45.8-31 100-49.4 154-68.3-47.2 0-95 1-177.3 15.5-14 22.6-16.3 42.6 23.3 52.9z" style="stroke:#000;stroke-width:1px;fill:#000" transform="translate(690 296.3)"/></svg>