<svg xmlns="http://www.w3.org/2000/svg" xmlns:xlink="http://www.w3.org/1999/xlink" xml:space="preserve" id="svg1926" fill-rule="evenodd" clip-rule="evenodd" style="shape-rendering:geometricPrecision;text-rendering:geometricPrecision;image-rendering:optimizeQuality" viewBox="0 0 6 4"><defs id="defs1928"><path id="1.2345678910111213e+62" d="M1 3.1v.1z"/><path id="1.2345678910111213e+76" d="M1.4 3.1v.1z"/><path id="1.2345678910111213e+78" d="M1.5 3.1v.1z"/><clipPath id="id2"><path id="path1939" d="M.7 3.6V.3h4.7v3.3z"/></clipPath><style id="style1930" type="text/css">.str0{stroke:#000;stroke-width:.0183071}.fil11{fill:none}.fil5{fill:#000}.fil6{fill:navy}.fil8{fill:green}.fil7{fill:#0f0}.fil4{fill:#690000}.fil2{fill:purple}.fil9{fill:gray}.fil10{fill:red}.fil3{fill:#f0f}.fil0{fill:#ff0}</style></defs><g id="Layer_x0020_1"><g id="g1953" style="clip-path:url(#id2)"><path id="polygon1955" d="m2.8 1.4.6.6V.8z" class="fil0"/><path id="1" d="M4.5 2.1h-.4L3.6 1z" class="fil0"/><path id="12" d="M4.2 2.9V3h-.5l-.1-1.5.1.2.2 1.2z" style="fill:teal"/><path id="123" d="m4.7 2.8.1.1h-.9l-.1-.4-.1-.8-.1-.3.1.2.3.6.2.6z" class="fil2"/><path id="1234" d="M5.2 2.8h-1l-.5-1.4.2.2.2.5h.3z" class="fil3"/><path id="12345" d="m1 1.1.8.9V.6z" class="fil0"/><path id="123456" d="M1 3.2h1.2v.1z" class="fil4"/><path id="12345678910" d="m1 3.2.1.1z" class="fil5"/><path id="1234567891011" d="M1.3 3.6h-.1l-.1-.1h.1l-.1-.1z" class="fil5"/><path id="123456789101112" d="m4 3.2.6-.1zh-.4z" class="fil4"/><path id="1234567891011121400" d="m3.6 3.3-.3.1H1.1L1 3.3l.1.1h2z" class="fil4"/><path id="123456789101112130000" d="M3.9 3.2h-.1v.1h-.2v-.1.1h.1v.1h.1-.1v-.1.1-.1.1-.1h-.1.2v-.1zh-.1z" class="fil5"/><path id="1.2345678910111213e+24" d="m1 3.1 1.1.1z" class="fil4"/><path id="1.2345678910111214e+26" d="M2 1.3h-.1l.2.1z" class="fil5"/><path id="1.2345678910111214e+28" d="M2.7 3.2v-.1z" class="fil5"/><path id="1.2345678910111213e+30" d="M2.9 3.1v.1H3v-.1z" class="fil5"/><path id="1.2345678910111214e+32" d="M2.7 1.5v.1l.1.9v.1l.1.3v.3h-.1v-.3H2h.8z" class="fil4"/><path id="1.2345678910111212e+36" d="m3.8 3-.4.1z" class="fil5"/><path id="1.2345678910111214e+38" d="m3.6 3-.1-1.4zh-.7zh-.1z" class="fil4"/><path id="1.2345678910111213e+40" d="M2.9 1.4h-.1l.1.1z" class="fil4"/><path id="1.2345678910111213e+42" d="M3.5 1.2v.4h-.1.1z" class="fil4"/><path id="1.2345678910111213e+44" d="M3.5 1.2h-.1z" class="fil4"/><path id="1.2345678910111213e+46" d="m3.4.5.1.7z" class="fil4"/><path id="1.2345678910111213e+54" d="M3.7 3.1h-.3l.3.1z" class="fil8"/><path id="1.2345678910111213e+56" d="M3.7 3.2h-.3v-.1z" class="fil2"/><path id="1.2345678910111214e+58" d="M2.3 3.3h-.1z" class="fil4"/><path id="1.2345678910111214e+60" d="M2.1 3.2H2z" class="fil4"/><use xlink:href="#1.2345678910111213e+62" class="fil4"/><use xlink:href="#1.2345678910111213e+62" id="1.2345678910111213e+64" class="fil4"/><use xlink:href="#1.2345678910111213e+62" id="1.2345678910111213e+66" class="fil4"/><use xlink:href="#1.2345678910111213e+62" id="1.2345678910111214e+68" class="fil4"/><path id="1.2345678910111213e+70" d="M1.1 3.1v.1z" class="fil4"/><path id="1.2345678910111214e+72" d="M1.2 3.1v.1z" class="fil4"/><path id="1.2345678910111214e+74" d="M1.3 3.1v.1z" class="fil4"/><use xlink:href="#1.2345678910111213e+76" class="fil4"/><use xlink:href="#1.2345678910111213e+78" class="fil4"/><path id="1.2345678910111214e+80" d="M1.6 3.1v.1z" class="fil4"/><path id="1.2345678910111213e+82" d="M1.7 3.1v.1z" class="fil4"/><path id="1.2345678910111214e+90" d="M.9 3.2v.1-.2z" class="fil8"/><path id="1.2345678910111213e+92" d="M1.3 3.6H4l.1-.1h.1l.1-.1v-.1l.1-.1v-.1h.2-.1l-.2.1-.3.1h-.3v.1h.1-.1l-.1-.1-.3.1h-.2l-.1.1v-.1h-.1v.1h-.1v-.1.1h-.2v-.1.1h-.1v-.1h-.1v.1h-.1v-.1.1h-.1v-.1H1.1z" class="fil6"/><path id="1.2345678910111214e+94" d="M2.4 3.3H2h1.2-.7z" class="fil4"/><path id="1.2345678910111213e+96" d="M3.2 3.3h-.1z" class="fil4"/><path id="1.2345678910111213e+100" d="M1.5 3.1V3z" class="fil5"/><path id="1.2345678910111213e+104" d="M1.4 3v.1h.1V3z" class="fil10"/><path id="1.2345678910111214e+106" d="M1.4 3h.1z" class="fil0"/><path id="1.2345678910111214e+108" d="M1.6 3.1V3h.1z" class="fil0"/><path id="1.2345678910111214e+112" d="M2.2 3.1h-.5.3z" class="fil5"/><path id="1.2345678910111213e+114" d="M1.6 3v.1H2v.1h.1v.1h.2l-.1-.2zm.6 0v.1h-.5z" class="fil2"/><path id="1.2345678910111214e+116" d="M1.7 3.2h.5v.1h-.1 1.4v-.1h.1v.1h-.3l-.1.1H1v-.2zm0 0h-.3v.1h.4z" class="fil8"/><path id="1.2345678910111213e+122" d="M2.7 2.5v.1h.1z" class="fil7"/><path id="1.2345678910111213e+126" d="M2.7 2.6v.1z" class="fil7"/><path id="1.2345678910111213e+128" d="M2.7 2.6v.1h.1z" class="fil7"/><path id="1.2345678910111213e+130" d="M2.7 2.5v.1z" class="fil7"/><path id="1.2345678910111214e+132" d="M2.7 2.4v.1z" class="fil7"/><path id="1.2345678910111214e+134" d="M2.7 2.4v.1h.1z" class="fil7"/><path id="1.2345678910111213e+140" d="M2.7 2.3v.1z" class="fil7"/><path id="1.2345678910111214e+142" d="M2.7 2.3v.1h.1z" class="fil7"/><path id="1.2345678910111214e+148" d="M2.7 2.1v.1z" class="fil7"/><path id="1.2345678910111214e+150" d="M2.7 2.1v.1h.1z" class="fil7"/><path id="1.2345678910111214e+154" d="M2.7 2.1V2z" class="fil7"/><path id="1.2345678910111212e+158" d="M2.8 1.6v-.1h-.2.1z" class="fil4"/><path id="1.2345678910111214e+160" d="M2.5 3.2h.2v-.1z" class="fil2"/><path id="1.2345678910111212e+162" d="M2.7 3.2h.2v-.1z" class="fil2"/><path id="1.2345678910111214e+164" d="M2.9 3.2H3v-.1z" class="fil2"/><path id="1.2345678910111212e+166" d="M3.1 3.3h.1zh-.2z" class="fil8"/><path id="1.2345678910111214e+168" d="M2.7 3.3h.2z" class="fil8"/><path id="1.2345678910111214e+170" d="M2.7 3.3h-.1z" class="fil8"/><path id="1.2345678910111214e+174" d="M2.7.7v.5z" class="fil4"/><path id="1.2345678910111213e+176" d="M2.7 1.2v.3z" class="fil4"/><path id="1.2345678910111214e+178" d="M3.5 1.6 3.6 3z" class="fil4"/><path id="1.2345678910111214e+180" d="m2.5 1.8-.4-.4-.1-.1v1h.1v.6-.1l.1-.1v-.2l.1-.1v-.2h.1z" class="fil7"/><path id="1.2345678910111213e+182" d="M2.7 2.9v-1l-.2-.1v.1h-.1v.3h-.1v.3h-.1v.2l-.1.1h.1-.1v.1z" class="fil7"/><path id="1.2345678910111213e+184" d="m2 1.3.1.1.1.1h.1v.1h.1v.1h.1v.1h.1V2 .7h-.1V1h-.2l-.1.1H2zm0 0" class="fil0"/><path id="1.2345678910111214e+186" d="M1 1.2v1H.8V3H1v-.2h.1v-.3h.1v-.1h.1V2h.1v-.2h.1v-.2h-.1v-.1h-.1v-.1h-.1v-.1zM.8 2.9" class="fil7"/><path id="1.2345678910111213e+188" d="M1.8 2.9v-1h-.1v-.1h-.1v-.1h-.1v.2h-.1v.2h-.1v.2h-.1v.2-.1.2h-.1v.2H1h.1H1v.1z" class="fil7"/><path id="1.2345678910111214e+191" d="M1 2.8h.1z" class="fil3"/><path id="1.2345678910111212e+194" d="M1.1 2.7v-.1z" class="fil3"/><path id="1.2345678910111213e+197" d="m1.1 2.6.1-.1h-.1z" class="fil3"/><path id="1.2345678910111213e+203" d="M1.2 2.3h.1z" class="fil3"/><path id="1.2345678910111213e+209" d="M1.4 2.1V2z" class="fil3"/><path id="1.2345678910111213e+212" d="M1.4 2v-.1z" class="fil3"/><path id="1.2345678910111214e+224" d="M2.2 2.7v-.1z" class="fil3"/><path id="1.2345678910111212e+230" d="M2.3 2.4v-.1z" class="fil3"/><path id="1.2345678910111214e+233" d="M2.3 2.2h.1z" class="fil3"/><path id="1.2345678910111214e+236" d="M2.4 2v.1z" class="fil3"/><path id="1.2345678910111214e+239" d="M2.4 1.9h.1v-.1z" class="fil3"/><path id="1.2345678910111213e+242" d="M2.8 1.4v.8l.1.1v.5H3v-.3h.1V2h.1v-.4H3v-.2zm0 0" class="fil7"/><path id="1.2345678910111214e+245" d="M3.3 1.9V2h-.1v.3h-.1v.3H3V3h.4V1.9z" class="fil7"/><path id="1.2345678910111213e+251" d="M3 2.6h.1z" class="fil3"/><path id="1.2345678910111214e+254" d="M3.1 2.5v-.1z" class="fil3"/><path id="1.2345678910111213e+257" d="M3.1 2.3h.1z" class="fil3"/><path id="1.2345678910111213e+263" d="m3.2 2 .1-.1h-.1z" class="fil3"/><path id="1.2345678910111212e+269" d="M2.8 2.8v.1z" class="fil7"/><path id="1.2345678910111213e+272" d="M2.7 2.8V3m0 .1" class="fil7"/><path id="1.2345678910111213e+275" d="M2.9 2.6v.1z" class="fil7"/><path id="1.2345678910111214e+281" d="M3 3v-.1z" class="fil7"/><path id="1.2345678910111213e+284" d="M3 2.9h-.1L3 3z" class="fil7"/><path id="1.2345678910111214e+287" d="M2.9 2.8v.1H3v-.1z" class="fil7"/><path id="1.2345678910111213e+290" d="M2.9 2.8H3z" class="fil7"/><path id="1.2345678910111213e+305" d="M1.8 3h-.1v.1h.1z" class="fil8"/><path id="1.2345678910111213e+308" d="M1.9 1.4v.1z" class="fil4"/><path id="Infinity" d="M1.9 1.4v.1zM2 2.9h-.1zm-.1-.1v.1H2zm.1 0v.1zm0-.2h-.1zm0-.1h-.1v.1zm-.1 0H2zm0-.6V2zm0 0V2zm0-.4" class="fil4"/><path d="M1.9 2.3v.1H2zm0 0v.1zm0 .1v.1H2zm0 0v.1zm0 .1v.1H2zm0 0v.1zm0 .1v.1H2zm0 0v.1zm-.1.2v.1h.1zm.1 0v.1zm-.1.1H2zm.1 0" class="fil7"/><path d="M1.9 1.1v.2zM1.8.7l.1.4zm0 .4" class="fil4"/><path d="M1.8 2v.1h.1z" class="fil7"/><path d="M1.8 2.9H.7zm0 0H2zm.2 0V3zm-.1 0V3H2v-.1zM2 3h-.1v.1H2zm0 0v.1zm-.1.1H2z" class="fil4"/><path d="M1.8 3.2h-.1v-.1.1z" class="fil2"/><path d="M1.6 3.1v.1h.1zm0 0v.1zm.4.1h-.1zm0 0h.1z" class="fil2"/><path d="M1.5 3.1v.1zm0 0v.1z" class="fil5"/><use xlink:href="#1.2345678910111213e+78" class="fil4"/><use xlink:href="#1.2345678910111213e+76" class="fil10"/><path d="M3.4 2.1v.1h.1v-.1z" class="fil7"/><path d="M3.4 2.2h.1v-.1zm0 .1h.1zm0 .1h.1v-.1zm.1-.1v.1zm-.1.1v.1h.1v-.1zm.1 0v.1zm-.1.1v.1h.1v-.1zm.1 0v.1zm-.1.1v.1h.1v-.1zm.1 0v.1zm-.1.1.1-.1zm.1 0" class="fil7"/><path d="M3.4 2.8h.1v-.1zm0 .1h.1v-.1h-.1zm.1-.1v.1zm0 0v.1h.1zm0 .1V3h.1v-.1zm-.1.1v-.1m0 0V3l.1-.1zm.1.1h.1zm-.1 0" class="fil7"/><path d="M3.7 3.2h-.1v.1z" class="fil8"/><path d="M4.8 3h-.3l-.1.1h-.5v.1h-.5l-.1.1h.1v-.1h.5v-.1h.6V3h.4" class="fil4"/><path d="M3.6 3.2H4v-.1h.4-.5v.1zm.2 0h.1zm-.1 0" class="fil8"/><path d="M3.6 3.3h.3v-.1h-.1v.1zm.3 0H4v-.1h.3v-.1h.3V3h-.1v.1H4v.1z" class="fil8"/><path d="M4.4 3.1V3h.3-.4z" class="fil6"/><path d="M4.6 3v.1z" class="fil8"/><path d="M1.4 3.3h.4zm.4 0h-.4z" class="fil4"/><path d="M1.6 3.3h-.1zm.1 0h.1zm.1 0" class="fil10"/><path d="M3.9 3.2h-.1zM2 3.4h.1zm.3 0v.1h.1v-.1zm.2 0v.1h.1v-.1zm.1 0v.1h.2v-.1h-.1z" class="fil9"/><path d="M2.9 3.4h-.1v.1h.1zm.2 0H3v.1-.1zm0 0h.2-.1z" class="fil9"/><path d="M3.4.4 3.6 3m-1.1.3v-.1m-1.2.4h-.1m1.8 0H1.7m-.3 0h.3m-.3 0h-.1m3.2-.5h.1m-.2.1v-.1h.1m-.2.1h.1m-.1.1v-.1m0 .1v.1h-.1v.1h-.1m-1.2.1 1.2-.1m0 .1H3M1.8 1.1v.1m.9 0h-.1M1 2.8h.1m.2-.6v-.1m.1 0h-.1m-.3.8v-.1m0 0h.1m0-.1-.1.1m.1-.1v-.1m0 0v.1m0-.1v-.1m.1 0-.1.1m.1-.2v.1m0-.2v.1m.1-.1h-.1m.1-.1v.1m.1-.2-.1.1m0-.1.1-.1m0 0v.1m0-.2V2m0 0v-.1m.1-.1-.1.1m-.3.6h.1m0-.2h.1m0-.2v.1m-.1.9v.1m0-.1v.1m0-.2v.1m0-.1v.1m0-.1.2-.1m-.3.1-.2-.1m.3.1h-.1m.1 0h-.1m3.1 0h-.1m0 0h.1M2 2.9v.2m-.1-1.7v1.5M1.8 2v-.1.1m1.1-.6h-.1m-1.7-.3-.1.1m.1 0H1h.1m.9.1v.1m0 0v-.1m.9.1h-.1.1m-1.4.3v.1m-.4-.6H1m0 0h.1m.7-.5V.6m-.8.5.8.9V.6l-.8.5m.9.3v1.5m0-1.5L2 2.9m0 .2-.1-1.7m0 0h-.1m.1 0h-.1m-1 1.5L1 1.2m1.8.3-.1-.3m.1.4v-.1m-.1 0 .1 1.4m-.1-1.3.1 1.3m-.1-1.3.2 1.3m-1 0v.2m.1-.2H.7m1.3 0H.7m.7.1h.1-.1m.1 0h-.1m0 .1V3m.1.1V3m-.1.2v-.1m0 .1.1-.1m0-.1v.1V3m0 .2v-.1m0 .1v-.1m.1-.1v.1m.1 0V3m0 0h-.1m.1 0h-.1m.1 0h-.1m.2-1.9v.2M1.7 3v.1m.2-.1h-.2m.2.1V3m-.3.1v.1m.7-.1h-.7m.8.2-.1-.2m-.4-1.8h-.1m.1.1h-.1m.1 0h-.1m.1.1h-.1m.1.1h-.1m.2.1h-.2m.2.1h-.2m.2 0h-.2m.2.1h-.2M2 2h-.2m.2.1h-.2m.2 0-.2.1m.2 0h-.2m.3.1h-.3m.3.1h-.3m.3.1h-.3m.3 0h-.3m.3.1h-.3m.3.1h-.3m.3.1h-.3m.3.1h-.3m0 0h.4m0 .1h-.4m.1-1.9v.3m.3 1.7-.3-2m.3 2h-.5.5m-.4-1.8v.1m.4 1.9v-.2m-.3-2h-.1m.1 0h-.1M2.9 3h-.1m.7 0h.1m-.8.1h.1M2.8 3v.1m.1-.1h-.1m.1.1V3m.6 0h.1m-.1 0h.1M2.4 1.9h.1m0 0v-.1m0 0-.1.1m0 .1v-.1m1.7.2L3.6 1M2.4 2.1V2m-.3.8v.1m.3-.8V2m0 .1v.1m0 0h-.1.1m-.1 0v.1m0 .1v-.1m0 0v.1m0 0-.1.1m.1 0h-.1m0 0h.1m-.1.1v-.1m.5-1.3-.1.2m.2 1.5V3m0-.1.1.2m0-.2V3m-.1-1-.2-.1m-.6 1h.9m0 0H2m0-1.6.7.6m.1 1-.1-1.4m.1.1-.2-.1m.2 0h-.2M2 1.3h-.1m0 0H2m0 0 .1 1.6M2 1.3l.7-.6m-.1 0 .1 1.2M3.5 3V1.6m-.4.7v-.1h.1m.1-.2h-.1m-.2.7.1-.1m-.1.2v-.1m0 .1v-.1m0-.1h.1m0 0v-.1m0 0v-.1m0 .1v-.1m0 0v-.1m.1 0v-.2m0 0V2m0 0v-.1m.1.1v-.1m-.2.7H3m.2-.3h-.1m.1 0v-.1m.1-.3h-.1m.2-.5.1-.2M3 3v-.2m-.2-1.4L3 3m.6 0h-.7m.7 0h-.7m-.1-1.3h-.1m.1 0h-.1m.1.1h-.1m.1.1h-.1m.1.1h-.1m.1 0h-.1m.2.1h-.2m.2.1h-.2m.2.1h-.2m.2.1h-.2m.2 0h-.2m.2.1h-.2m.2.1h-.2m.2.1h-.2m.3 0-.3.1m.3 0h-.3m.3.1h-.3M3 3h-.3m.3.1h-.3m0 .1v.1m.2-.1v.1m.1-.2-.2-1.5M3 3.1v.1m0-.1-.3.1m.3 0h-.3m0-2v2m.3.1v-.1m-.3-2v.3M3 3.2v.1m-.5-.1H3m.2.1h-.6m.8-.2.1-1.5m0 0L3.6 3m-.1-1.4L3.6 3m-.7-1.5-.1-.1m.1 0h-.1m.7.2h-.1m.1 0h-.1m-.6-.2.6-.6m-.6.6.6.6m.3 1 .4.1m0 0L3.7 3m0 0-.1-1.5M4.2 3h-.5m0-1.3-.2-.4m0-.1.2.5m.5 1.4v-.2m0 .2v-.2m-.3 0-.3.3m.3-.3-.3-1.5m1.2 1.5h-.9m-.2-1.3-.2-.3m.2.3-.2-.4M4.8 3l-.1-.2m.1.2-.1-.2m.1.2-1.6.3M4.1 2v.1V2m.2.8-.3.3m-.1-1.5-.4-.4m.4.4-.4-.4m.7 1.6-.5-1.4m1.5 1.4h-1m1 0-.8-.7m.9.8-.9-.8M4.1 2l-.9 1.2m1.3-1.1h-.4m1.2.8L3.4.8m0 0h.1m1.8 2.1L3.5.8m0 .9h-.1m.1.1h-.1m.2 0-.2.1m.2 0h-.2m.2.1h-.2m.2.1h-.2m.2.1h-.2m.2 0-.2.1m.2 0-.2.1m.2 0h-.2m.2.1h-.2m.3 0-.3.1m.3 0-.3.1m.3 0-.3.1m.3 0h-.3m.3.1h-.3m.3 0-.3.1m.2.1v.1m-.1-2v.4m0-.4h-.1m0 1.9v.1m.3-.2v.2m-.2-2v.4M3.7 3l-.2-1.8m0 0h-.1M3.8 3h-.1m-.3.1.3-.1m.1 0-.4.1m.3.1-.3-.1m.3 0v.1m-.3-.1v.1m.3-.1h-.3M1.8.3l.1 1.1M1.8.3l.1 1.1m.7-1 .1 1.1M2.6.4l.1 1.1m.8.1L3.4.4" class="fil11 str0"/><path d="M1.4 3.3h-.1.6-.5" class="fil11" style="stroke:#000;stroke-width:.0116496"/><path d="M1.3 3.3h.6-.6" class="fil11" style="stroke:#000;stroke-width:.00998425"/><path d="M3.6 3.2h-.1m.1 0h.2m.1 0 .5-.1m-.5.1h-.1m.1 0h-.1m0 0h.1m-.1 0h.1m-2.7.4-.1-.1m3.1-.2H4m0 0h-.1m-2.8.2h.1m0 0v.1-.1m2.4-.2-.3.1m0 0h-.2m.6-.2h.1m-2.6.3-.1-.1m2.7-.2h-.1m.2 0h-.1m.4.1h.1v-.1m-3.1.3h.1m2.9-.2-.1.2m-2.8 0 1 .1m-1.1 0h.1m.7-.2h-.1m.4 0v.1m.2-.1v.1m.1 0h-.1m.2 0h-.1m.3-.1v.1m.1 0v-.1m.1 0-.1.1m-.1 0h-.1m0 0h-.1m-.1 0v-.1h-.1m-.2.1h-.1m-.1-.1H2m-.1 0h-.1m.7 0h-.1v.1h-.1m.3 0v-.1m.2.1v-.1m0 .1v-.1m-.6 0v.1m1.1-.1h-.2m.7-.2-.2.1m.3 0v-.1m-.8.2H3M.9 3.2l.1.1m0-.1H.9m.2.2.2.2M3 3.4h-.2M.9 3.2H1m0 0 .1.1m-.1 0h.1m1.2.3h.6m1.2-.1v.1m.5-.5V3h.1m-1.9.4h-.2m-.3.1v-.1m.1 0h-.1m1.3-.1v-.1m-1.3.2h-.1m-1.1-.1L1 3.2m0 0h1.2M1 3.2v-.1H.9m0 .1v-.1m0 .1v-.1m.1.1v-.1m0 .1v-.1m0 .1v-.1m0 .1v-.1m0 .1v-.1m0 0v.1" class="fil11 str0"/><path d="M.9 3.1H1l1.1.1m-.9 0v-.1m0 0v.1m.1 0v-.1m0 0v.1m.1 0v-.1m0 0v.1m.1 0v-.1m0 0v.1m.1 0v-.1m0 0v.1m.1 0v-.1m0 0v.1m.4 0H2m.2.1h.1m-.1 0h-.1M1 3.2H.9m1.3 0v.1m-.2 0h.1m-1 .1L1 3.2m1.2.1L1 3.2H.9m2.3.1h-.1m0 0h.1m0 0H2.1m1.1 0H2M4.4 3v.1m.5-.1-.5.1m.9-.2-.5.1m.5-.1-2.2.4m.5 0v-.1m.2.2h-.1v-.1h-.1" class="fil11 str0"/><path d="M3.8 3.4h-.1v-.1.1" class="fil11 str0"/><path d="M3.7 3.4v-.1H4l.1-.1h.3v-.1h.2m-3.7.1H1m.1 0v-.1m.9.1h-.2l-.1-.1h-.6m0 0v.1m0-.1H1m1.2.3H1.1m2.8-.2v.1m-2.8.1H1v-.1l.1.1h1.1m.9 0h-.9m.9 0 .5-.1m.1 0h-.1m-2.5.1.2.2M4 3.2h.3" class="fil11 str0"/><path d="m4.3 3.2.1-.1h.2m-.6.1-.4.1.2-.1m0 0 .1.1m-1.7-.7v.1m0 0v-.1m0 .1-.1.1m-.8.8h-.1m1.8 0H1.7m-.3 0h.3m-.3 0h-.2m-.5-.7h.2l.2.1h.1m0 0v.1H.9m0 .1v-.1m0 .1H1 .9l.1.1m.1.1H1v-.1m.1.1.1.1v.1-.1m-.1 0h.1m-.1 0 .1.1m3.3-.5h.1m-.1 0" class="fil11 str0"/><path d="M4.4 3.2v-.1h.1m-.2.1h.1m-.1.1v-.1m0 .1v.1h-.1v.1h-.1v.1H3m1.6-.5V3h.1m0 0h.2l.4-.1L3.5.8h-.1V.5m0 0v.3l-.6.6.1 1.1-.1-.9v-.1l-.1-.3-.1-.8" class="fil11 str0"/><path d="m2.6.4.1.3-.7.6h-.1.1v1l-.1-.9v-.3L1.8.3v.4-.1l-.8.5.1.1H1m0 0L.8 2.9H.7m1.4.3H2h.1m.6-.4h.1-.1m.1.1v-.1m0 .1v-.1m-.1-.1v.1-.1m0-.2v.1h.1v-.1h-.1m0 .2.1.1v-.1h-.1m0-.1v.1-.1m0 0v.1h.1v-.1h-.1m0-.1v.1-.1m0-.1v.1-.1m0 0v.1m0 0h.1v-.1h-.1m0 0h.1-.1m0-.1v.1-.1m0 0v.1h.1v-.1h-.1m0-.1v.1-.1" class="fil11 str0"/><path d="M2.7 2.2v.1h.1v-.1h-.1m0-.1v.1-.1m0 0v.1h.1v-.1h-.1m0 0h.1V2l-.1.1m.1-.1h-.1m0 0h.1m-.1-.1V2h.1m-.1-.1.1.1m-.1-.2v.1-.1m0-.1v.1-.1m0-.2v.2-.2" class="fil11 str0"/><path d="M1.1 2.7v-.1m0 0v.1m0-.1.1-.1m0 0h-.1m0 0v.1m.1-.3h.1m0 0h-.1m.2-.2V2m0 0v.1m0-.1v-.1m0 0V2m.1-.2" class="fil11" style="stroke-width:.0183071;stroke:#f0f"/><path d="M1.8 1.4v1.7m.4 0h-.4m1-.2v-.1m-1 .6" class="fil11 str0"/></g><g id="g3366"><path id="polygon3368" d="M.7.3h4.7v3.3H.7z" class="fil11"/></g></g></svg>