<svg xmlns="http://www.w3.org/2000/svg" xmlns:xlink="http://www.w3.org/1999/xlink" version="1.0" viewBox="0 0 437.5 437.5"><desc>A scorpion exploring the inside of an overturned glass.</desc><defs><radialGradient xlink:href="#a" id="q" cx=".7" cy=".3" r=".4"/><radialGradient xlink:href="#a" id="d" cx=".8" cy=".3" r=".4"/><radialGradient xlink:href="#a" id="n" cx=".7" cy=".3" r=".4"/><radialGradient xlink:href="#b" id="m" cx=".3" cy=".4" r=".3"/><radialGradient xlink:href="#b" id="l" cx=".3" cy=".5" r=".3"/><radialGradient xlink:href="#b" id="j" cx=".5" cy=".5" r=".4"/><radialGradient xlink:href="#b" id="i" cx=".4" cy=".3" r=".3"/><radialGradient xlink:href="#b" id="h" cx=".4" cy=".3" r=".4"/><radialGradient xlink:href="#a" id="k" cx=".3" cy=".3" r=".4"/><radialGradient xlink:href="#a" id="p" cx=".5" cy=".4" r=".4"/><linearGradient id="b"><stop offset="0" style="stop-color:#97442f"/><stop offset="1" style="stop-color:#000"/></linearGradient><linearGradient id="a"><stop offset="0" style="stop-color:#b27161"/><stop offset="1" style="stop-color:#000"/></linearGradient><linearGradient xlink:href="#b" id="g" x1=".3" x2=".1" y1="1.2" y2=".1"/><linearGradient xlink:href="#a" id="r"/><linearGradient xlink:href="#a" id="o" x1=".9" x2=".4" y1=".5" y2=".5"/><path id="e" d="M603.8 174.6C580 194 646 247.2 650.4 249s12.4 3.7 17.3-3.4c4.8-7.1-54.8-74.5-64-70.9"/><path id="f" d="M532.4 239.9c7.9 8.3 69.8-42.3 71-46.5 1.2-4.1-.6-15.4-7.9-19-7.2-3.6-67.3 57.7-63 65.5"/></defs><path d="M308.3 29.6h-6c-3.5-.6-5.4 2-6.6 6.1-7-3.5-16.3-.8-24.8 6-11.7 9.3 3.2 31.3-6.2 27.5s-6.6-5-23.4-24.2c10 19.1 14.8 27.6 22.4 34.6 26 14 51.3-21.2 39-37l-.3-.4a35 35 0 0 0 20 3.4c-1 6.4 1.6 14.3 6.7 17.6a34 34 0 0 0 2 18.2 41 41 0 0 0-5.7 21.8 41 41 0 0 0-14.5 22.6c-7 0-14.3 3.7-20 8.4-7.6-9.2-17.6-19.5-19.6-18.4q-1.3.8-2 2.2-.6-1.2-1.6-2c-1.7-.8-7.5 5-13.3 11.7-3.4-3.6-6.2-6-7.1-5.4q-1.4.8-2.2 2.4-.4-1.2-1.6-2.3c-2.3-1.1-11.6 10-19.1 20.8-2.5-2-4.6-3.4-5.4-3a7 7 0 0 0-2.5 2.7q-.6-1.5-2-2.5c-2-1-9 5.8-16.2 14.2q-2.6-2-3.6-1.5l-.3.3-.1-.2c-4-3.8-46.3 22.3-45 27.2a6 6 0 0 0 3.3 4.3q-1.2.3-2.2 1c-3 2.1 4.4 33 9.5 41.5-3.3-15.1 0-39.7-1.3-41.2l-.7-.5c2-.3 16.7-6 27.1-13.8-3.4 5.1-5.6 9.3-4.9 10.5l.4.5c-4.4 5.1-13 29.4-13.4 38.4 5.6-14.3 21.6-31.9 21.4-34q-.1-1-1.1-2.3l2-.6c.9-.3 5.8-4.5 11.2-10 5.5 4.8 11.8 10 17.5 13.7l.9 2.7c-12 9-19.4 20.2-15.7 25.7l-1.3 2.4c-3.2-1.7-7-.7-10.2 5.6-7 14.3-11.2 13-5.6 16.1-3.2-.3-4.4-5.4-11.5-3.5s-20.3-21.8-41.3-18.6c4.4-.2 6.1 2.4 6 5.5q-.1-1.6-1.2-2.6c-12.1-12.5-53.4 30.8-58 36.5q-1.8 2.4-.6 5.1c-9.1.7-19.1 6.4-27 19.1-5.3 7.3-6.6 14.9-4.5 21.3-16.6 15-35.3 30.3-36.7 50.8 5.2-11.4 14.9-30.7 40.2-34.8 2-.3 3.5-2.4 5-5.4q3.9 2.7 9.5 4.4c12.1 1.1 20.7-2.1 19.1-1.2 1.2 12.1.5 28-11.2 51.8 27.2-31.9 7-20.8 26.4-61 6.2-13 5.9-24.2 1.8-32.2 9.5-5.1 23.9-21.5 31.8-35.4a28 28 0 0 0 28 8.4c3.7 3.2 8.4-.7 28 9.4 5-8 5.7-8.6 6.7-15.1l.5-1.6q1 3.7 3.1 7.6c1.6 2.8 3.7 2 6 .2l-.7 1.1c3 4.1 11.8 8.1 20 8.6 1.7 2.3 3.5 3.8 5.5 3.6a51 51 0 0 0 17.4-6.4c1 1.5 2.4 3.3 3.8 7a63 63 0 0 1 41.4 16.8 76 76 0 0 0 19.2 14.1c-6.9 11.2-11.4 25-12.2 28-.8 2.6 2.4 5.2 6.7 7.6-14.7-2.3-26.6 10-30.7 27.6-15 12.7-30.7 25.5-38.3 44.3q-5.7 0-11.3-.2c4.9 1.4 7.2 1.9 10.5 2.7a62 62 0 0 0-3 11.8 129 129 0 0 1 6.1-11c16.7 3.9 14.7 1.1 51.3 2.2 38.6 1.2 42.8-55.6 26.6-72.5l3.9 1.4c7.8 2.8 23.2-49.3 14.5-54.3l-2.3-1 3.8.3c1.4-16.5-60-25.6-66.4-28.6-4.5-2.1-5.5-1.6-8.4 0q-1.3 1.5-4.2 2c2.6-1.1 3-1.4 4.2-2q1.1-1.7 1-5 7.6-2.6 13.9-5.4.3 1 1.8 2.4c4.2 3.7 22 13.8 26 6.5 9.1-3.1 30.3-21.1 32.6-24.4a99 99 0 0 0 16.4 29.5l.9.6c-1.5.7-6.4 20.3-13.5 30.5 6.4-4.6 21.3-25 19.7-27.7l-1.4-1.6q1.4-.1 2.6-1.4c3-3-17.5-44.7-22.1-44q-2.9 1.8-3.5 5-.7-.8-1.5-1.4c9.2-6.3 18.9-14.7 21.7-18a77 77 0 0 0 17.9 22.3 60 60 0 0 1-5.4 10c2-1.4 4.9-4.5 7.8-8l3 2.5c-1.4.8-6.3 20.3-13.4 30.4 6.4-4.6 21.3-25 19.7-27.7q-.6-.9-1.4-1.5a5 5 0 0 0 4-2.6c.6-1.1-1.9-5.2-5.3-10 3.4-5 6-9.6 5.3-10.7q0-.3-.3-.4 1.8.6 4-.7c3.4-2.4-9.6-47.5-14.2-47.7a6 6 0 0 0-3.4 2.5l-1-.8c-3.3-1.8-29.4 25.4-32.7 33.8q-3 .5-5.8 1.4 1.7-4.1.9-9.7 5.3-3.2 5-10.1c4.6 1.9 9.2 2.6 10.2-1.4q.6-2.2.6-3.5c8.2-4 23.2-17.5 25.6-20.6A78 78 0 0 0 401 171l1.1.3-.6.6c-.9 1.4 3.9 21 2.5 33.7 3.4-7.5 6.8-33.4 4.2-34.8l-.8-.2 1.3-1.3c2.1-3.4-24.2-36-28.3-34.3q-1 1-1.5 2a6 6 0 0 0-2.1-2c-2.7-1.5-22 19.3-26.8 28.1l-4 1.2c2.8-6-1.3-16.7-10.2-25.4 4-8.2 5.3-17.8 6.2-22.7 8.5-8.2 4.3-29 4.8-32.7v-.4c2.7-8.6-4.4-21.4-4.8-24.1q-.3-1.5-1.1-2.3c.5-6.3-5-14-5.4-15.7q-1-3-5.8-3.1c-2.2-8.1-14-8.6-21.5-8.4zM268.8 126a114 114 0 0 0 15.8 14 49 49 0 0 0-12.1 10.5c-2.6-4.1-6.3-9-10.2-13.8q4.4-5.3 6.5-10.7zm-24 8 2.3 2.7c-4.7 6.3-8.5 12.2-7.6 13.5q0 .3.4.4-2.8.4-6.4 1.3a63 63 0 0 0 11.2-18zm10.3 10.7q6.4 6.2 12.3 10.4a64 64 0 0 0-20.2 12.7h-.2q-3.2-4.4-7.4-9.1 3.9 0 4.6-.2c1-1 1.5-3.6.7-6q1.3-.3 2.2-.7c.6-.2 4-3.1 8-7.1zm-39.1 8 1.3 1.4-2.1 4.3-2 1 1.9-.4v.2l-1 .5c-.9.7-.5 5.3.3 10.7-1.9-2.2-3.6-3.8-5.5-5.8q4.7-6 7-11.9zm8.7 8.4q6.6 6 14 11.5a64 64 0 0 0-13.2 11.7c-1.2-1.8-3.1-4-4.8-6l.4-14.7 1.4-.5c.2 0 1.5-1.4 2.2-2zm150.7 9.2a107 107 0 0 0 10.9 29.3q-1.3-.2-2 .1c-.6.3-1.8 3.7-3.3 8-8.3-10.7-19.3-22.4-21.9-21.2l-.9 1.2a7 7 0 0 0-2.1-2c7.2-4.9 14.7-11.1 19.3-15.4zM348.6 190l-1.7 1.6-.2-.8zm-16 9.3q2.5 1 4.9 1.5-6 6.4-10.2 12c-1.2-1-3.2-.7-5.4-.1l.2-1a12.5 12.5 0 0 0 10.4-12.4zm-19.4 22.8c3.9 1.6 7.7 2.5 10.5 1.9a161 161 0 0 0-16.6 18.2c-2.7-3.7-13 3.3-13.5.3q-.2-1.5-1-3.3 3 .3 6.8 0c8-2.7 11.4-9 10.7-16.5q1.8 0 3.1-.6zm10 59.9q-2.4 1.6-4.6 4 1.2-2.4 4.5-4zm-50.7 91.2q1 0 1.9.3c-.1 8.3 2.9 12.8 11.2 18-7 7-24.4 9.7-43 9.9 8.4-13 20.6-28 30-28.2z" style="fill-rule:evenodd;stroke:#c2c2c5;stroke-width:6.3883;fill:#a0a1a3" transform="translate(-3.4 7.8)"/><path d="M337.3 116.6c-11-6.9-6.7-39.7 5.8-45 5.6 1.6 9.3 4.2 8.6 8.8s6.2 37.4-14.4 36.2" style="fill-rule:evenodd;stroke-width:8.0751;fill:url(#d)" transform="matrix(.99416 0 0 1 -3.2 7.8)"/><path d="M291.1 508.8c10.2 12.2 46.8 24.4 69.2 14.2s116-30.5 118.1-46.8-42.7-65.1-61-69.2C399 403 295.2 498.6 291 508.8" style="stroke-width:15;fill-rule:evenodd" transform="matrix(.42234 0 0 .48526 88.4 8.4)"/><path d="M726.9 264.4c-25.7-6-67.2.6-69.9-1.8-2.6-2.4-4-9.6-.6-15.2s55.9 7.7 70.5 17" style="fill-rule:evenodd;stroke-width:8.0751;fill:url(#d)" transform="matrix(-.42234 0 0 .48526 525.7 35.9)"/><use xlink:href="#e" style="fill-rule:evenodd;stroke-width:8.0751;fill:url(#d)" transform="matrix(-.42234 0 0 .48526 525.7 35.9)"/><use xlink:href="#f" style="fill-rule:evenodd;stroke-width:8.0751;fill:url(#d)" transform="matrix(-.42234 0 0 .48526 525.7 35.9)"/><path d="M652 313c6-25.8-.6-67.3 1.8-70 2.4-2.6 9.6-4 15.2-.5s-7.6 55.8-17 70.5" style="fill-rule:evenodd;stroke-width:8.0751;fill:url(#d)" transform="matrix(-.4312 0 0 .55048 508 31)"/><use xlink:href="#e" style="fill-rule:evenodd;stroke-width:8.0751;fill:url(#d)" transform="matrix(-.4312 0 0 .55048 508 31)"/><use xlink:href="#f" style="fill-rule:evenodd;stroke-width:8.0751;fill:url(#d)" transform="matrix(-.4312 0 0 .55048 508 31)"/><path d="M691.8 311.4c-10.3-24.3-40-54-39.6-57.6.3-3.5 5.3-9 12-9.4 6.5-.4 26.5 49.7 27.6 67" style="fill-rule:evenodd;stroke-width:8.0751;fill:url(#d)" transform="matrix(-.5155 0 0 .59197 531.2 41.8)"/><use xlink:href="#e" style="fill-rule:evenodd;stroke-width:8.0751;fill:url(#d)" transform="matrix(-.5155 0 0 .59197 531.2 41.8)"/><use xlink:href="#f" style="fill-rule:evenodd;stroke-width:8.0751;fill:url(#d)" transform="matrix(-.5155 0 0 .59197 531.2 41.8)"/><path d="M660 300c6.3-25.7.1-67.2 2.5-69.8 2.4-2.7 9.7-4 15.2-.5s-8.1 55.8-17.6 70.3" style="fill-rule:evenodd;stroke-width:8.0751;fill:url(#d)" transform="matrix(-.5155 0 0 .59197 508 54.6)"/><path d="M596.4 174.6c-16.2 26 63.5 55 68.2 55s13-.5 15.3-8.8-76.1-52.6-83.5-46.2" style="fill-rule:evenodd;stroke-width:8.0751;fill:url(#d)" transform="matrix(-.5155 0 0 .59197 508 54.6)"/><use xlink:href="#f" style="fill-rule:evenodd;stroke-width:8.0751;fill:url(#d)" transform="matrix(-.5155 0 0 .59197 508 54.6)"/><path d="M657 320.4c3.2-26.2-7.6-66.8-5.5-69.7s9.1-5.1 15-2.2-1.7 56.3-9.5 71.9" style="fill-rule:evenodd;stroke-width:8.0751;fill:url(#d)" transform="matrix(.42234 0 0 .48526 123.6 55.2)"/><use xlink:href="#e" style="fill-rule:evenodd;stroke-width:8.0751;fill:url(#d)" transform="matrix(.42234 0 0 .48526 123.6 55.2)"/><use xlink:href="#f" style="fill-rule:evenodd;stroke-width:8.0751;fill:url(#d)" transform="matrix(.42234 0 0 .48526 123.6 55.2)"/><path d="M503.1 221.8c-5.7 6.7-11.9 9.2-4.6 15.4 7.2 6.1 39.2 23.6 43.3 8.2 8.3-25.7-20.6-4.6-21.6-10.8-1-6.1-8.8-20.5-17-12.8" style="fill-rule:evenodd;stroke-width:8.0751;fill:url(#d)" transform="matrix(.42234 0 0 .48526 123.6 55.2)"/><path d="M601.2 386.9c9.3 9.4 82.8-47.8 84.3-52.5 1.4-4.8-.7-17.6-9.3-21.6s-80 65.3-75 74m64 80.5c16-21 27.1-61.5 30.4-63 3.2-1.3 10.5.3 14 5.8s-29.9 47.7-44.4 57.2" style="fill-rule:evenodd;stroke-width:8.0751;fill:url(#d)" transform="matrix(.42234 0 0 .48526 88.4 8.4)"/><path d="M638.8 377c-25.2 21.4 47.4 78.1 52.2 79.8s13.4 3.9 18.5-4c5-7.7-61-80-70.7-75.8m47-67.7c-31.8 8.8 10 90.8 13.7 94.4 3.6 3.5 10.5 9.2 18.4 4.2s-21.5-98.3-32-98.6M556 368.5c-8 8.8-16.5 12.2-6.5 20.2s54.3 31 60 10.8c11.5-33.7-28.5-6-30-14.1s-12.1-27-23.6-16.9" style="fill-rule:evenodd;stroke-width:8.0751;fill:url(#d)" transform="matrix(.42234 0 0 .48526 88.4 8.4)"/><path d="M659.2 518.6c16-21 27.2-61.5 30.4-62.9s10.5.2 14.2 5.7-30 47.8-44.6 57.2M513.7 416.4c-7.9 8.7-16.4 12.1-6.4 20.2s54.3 31 60 10.7c11.4-33.6-28.6-6-30-14-1.4-8.2-12.2-27-23.6-17" style="fill-rule:evenodd;stroke-width:8.0751;fill:url(#d)" transform="matrix(.42234 0 0 .48526 88.4 8.4)"/><path d="M556.6 449.4c9.2 9.4 82.8-47.8 84.3-52.5s-.8-17.5-9.3-21.6c-8.6-4-80 65.3-75 74m45.1 135.2c16-21 27.1-61.5 30.4-63 3.2-1.4 10.4.3 14 5.8s-29.9 47.7-44.4 57.2M467 476.1c-8 8.8-16.5 12.1-6.5 20.2s54.3 31 60 10.8c11.4-33.7-28.6-6-30-14.1s-12.2-27-23.6-16.9" style="fill-rule:evenodd;stroke-width:8.0751;fill:url(#d)" transform="matrix(.42234 0 0 .48526 88.4 8.4)"/><path d="M344.4 87.1c-10-1.8-14.2-27.6-6-35.2 4.7-.6 8 .3 8.6 4 .6 3.6 13.3 26.1-2.6 31.2M320.1 145c-12-12 2.1-47 19.1-48.1 6.6 3.9 10.6 8.2 8.5 13.1s-2.3 44.4-27.6 35" style="fill-rule:evenodd;stroke-width:8.0751;fill:url(#d)" transform="matrix(.99416 0 0 1 -3.2 7.8)"/><path d="M463.8 310.4C445 300 489 251.6 529.4 251.6c68.6 11.2 106 84.2 64.2 89-43.4 4.9-15-62-83.6-62-21 0-27.6 42-46.2 31.8z" style="fill-rule:evenodd;stroke:url(#g);stroke-width:6.9523;fill:url(#h)" transform="matrix(.42234 0 0 .48526 88.4 8.4)"/><path d="M329 137.8c0-3.2 3-5.1 5.9-4.2 9 1.9 17.8 17.8 15.4 27.6-2.1 6.1-4.6 5.6-10.9-1.4-8.7-8.9-1.8-17.8-10.5-22" style="fill-rule:evenodd;stroke-width:1pt;fill:#fff;fill-opacity:.22905" transform="matrix(.99416 0 0 1 -3.2 7.8)"/><path d="M436.4 332c-21.8-11.3 29.7-63.9 76.8-63.9 80.2 12 115.8 95.5 66.8 100.7-50.7 5.4-9.3-71.4-89.5-71.4-24.5 0-32.3 45.8-54 34.6z" style="fill-rule:evenodd;stroke:url(#g);stroke-width:6.9523;fill:url(#h)" transform="matrix(.42234 0 0 .48526 88.4 8.4)"/><path d="M317.4 145.2c0-4 4.1-6.2 7.7-5 11.8 2.2 23.2 21.3 20 33.1-2.7 7.3-5.9 6.8-14-1.7-11.4-10.6-2.4-21.4-13.7-26.4" style="fill-rule:evenodd;stroke-width:1pt;fill:#fff;fill-opacity:.22905" transform="matrix(.99416 0 0 1 -3.2 7.8)"/><path d="M414.5 358.1c-23-13.2 31.3-75.3 81-75.3 84.7 14.3 124.8 110 73 116-53.5 6.4-12.3-81.4-97-81.4-25.8 0-34 54-57 40.7z" style="fill-rule:evenodd;stroke:url(#g);stroke-width:6.9523;fill:url(#h)" transform="matrix(.42234 0 0 .48526 88.4 8.4)"/><path d="M306 154.5c0-4.4 5-7 9.4-5.7 14.5 2.5 28.4 23.8 24.5 37-3.3 8-7.2 7.4-17.3-2-13.9-11.9-2.8-23.8-16.7-29.4" style="fill-rule:evenodd;stroke-width:1pt;fill:#fff;fill-opacity:.22905" transform="matrix(.99416 0 0 1 -3.2 7.8)"/><path d="M366.3 385.5c-27.9-13.9 38-79.1 98.1-79.1 102.6 15 148.4 117.4 85.8 123.8-65 6.7-12.2-87.5-114.8-87.5-31.3 0-41.2 56.7-69.1 42.8z" style="fill-rule:evenodd;stroke:url(#g);stroke-width:6.9523;fill:url(#h)" transform="matrix(.42234 0 0 .48526 88.4 8.4)"/><path d="M295.1 167.2c0-4.8 5.8-7.5 10.9-6.1 16.6 2.7 32.6 25.7 28 40-3.8 8.8-8.2 8.1-19.7-2-16-13-3.3-25.9-19.2-32" style="fill-rule:evenodd;stroke-width:1pt;fill:#fff;fill-opacity:.22905" transform="matrix(.99416 0 0 1 -3.2 7.8)"/><path d="M328.2 409.6c-29.6-14.4 40.3-81.8 104.1-81.8 108.9 15.5 160.1 115 93.7 123.7-68.9 6.9-15.6-86.1-124.4-86.1-33.2 0-43.8 58.5-73.4 44.2z" style="fill-rule:evenodd;stroke:url(#g);stroke-width:6.9523;fill:url(#h)" transform="matrix(.42234 0 0 .48526 88.4 8.4)"/><path d="M275 177c0-5 7.3-8 13.8-6.5 21 2.9 41.4 27.7 35.7 43-4.9 9.6-10.6 8.8-25.2-2.1-20.3-14-4.1-27.9-24.3-34.4" style="fill-rule:evenodd;stroke-width:1pt;fill:#fff;fill-opacity:.22905" transform="matrix(.99416 0 0 1 -3.2 7.8)"/><path d="M291 442.7c-30.6-14.8 41.5-84.2 107.4-84.2C511 374.5 562.3 468.6 503.5 486c-80.8 9.2-24.4-88.8-136.8-88.8-34.3 0-45.2 60.3-75.8 45.5z" style="fill-rule:evenodd;stroke:url(#g);stroke-width:6.9523;fill:url(#h)" transform="matrix(.42234 0 0 .48526 88.4 8.4)"/><path d="M376.6 384.6c-6 26.5-28.5 38.7-34.6 67.2-16.3 4-42.7 12.2-48.8-10.2s42.7-63.1 83.4-57z" style="fill-rule:evenodd;stroke:#000;stroke-width:10.25;fill:url(#i)" transform="matrix(.42234 0 0 .48526 88.4 8.4)"/><path d="M257 188.4c0-5.5 7.7-8.7 14.6-7.1 22.3 3.2 47.7 30.1 41.7 46.8-9.9 11.1-19.9 5.6-26.6-4.7-21.5-15.1 1.2-31-29.7-35" style="fill-rule:evenodd;stroke-width:1pt;fill:#fff;fill-opacity:.22905" transform="matrix(.99416 0 0 1 -3.2 7.8)"/><path d="M382.4 382.6c-14.3 12.2-38.7 46.8-42.8 77.3 16.3 4.1 105.9 20.4 112-2s-20.4-71.3-69.2-75.3z" style="fill-rule:evenodd;stroke:#000;stroke-width:10.25;fill:url(#j)" transform="matrix(.42234 0 0 .48526 88.4 8.4)"/><path d="M217.4 229.6c-2.9 10.1-9.2 4-10.2 10.6s-1.5 7-6.4 15c-18.8-10-23.3-6.1-26.9-9.3-8.4 2.8-22.5.8-31.6-14.7 8.7 2.1 15.2-16.3 4-15.7 20.3-3.2 33 20.6 39.8 18.6 6.9-1.9 8 3.3 11 3.6-5.3-3.1-1.2-1.8 5.5-16.2s17.6-2 14.8 8.1" style="fill-rule:evenodd;stroke-width:6.25;fill:url(#k)" transform="matrix(.99416 0 0 1 -3.2 7.8)"/><path d="M340.6 420c13.5 4.8 11.8 40 3.8 52-8 12.3-16.1 22-28.7 21.4s-28.3 26-36.4 12.6-12.8-26.3-5.8-42.6 13.6-30.7 23.9-36.5c10.3-5.7 43.2-6.8 43.2-6.8z" style="fill-rule:evenodd;stroke:#000;stroke-width:11.038;fill:url(#l)" transform="matrix(.42234 0 0 .48526 88.4 8.4)"/><path d="M255.8 199c9.7-6.5 30 20.4 21.4 31.2-8 3-2.2 4.1-15.7-11-16.8-15.4-7.5-14.8-5.7-20.2" style="fill-rule:evenodd;stroke-width:1pt;fill:#fff;fill-opacity:.22905" transform="matrix(.99416 0 0 1 -3.2 7.8)"/><path d="M364.1 428.3c-11.6-6.4-36.7 13.2-41 24.8s-15.8 28.4-7.9 36.3 18.7 46.2 33.6 44.5 45.5-11.5 53.5-24.6 14.8-25 13-34.8-51.2-46.2-51.2-46.2z" style="fill-rule:evenodd;stroke:#000;stroke-width:9.8749;fill:url(#m)" transform="matrix(.42234 0 0 .48526 88.4 8.4)"/><path d="M368.5 486.4c0 16.3 20.4 14.3 18.3 24.4-2 10.2 4 10.2 10.2 24.5 37.3-.4 71.3 16.2 93.6 34.6 22.4 18.3 38.7 32.5 65.2 34.6-22.4-16.3-8.5-38.6 36.3-32.4 3-34.3-136-53.1-150.3-59.2s-8.2-4.1-28.5 4c14.2-2 14.2-10.1 8.1-34.6s-53-12.2-53 4" style="fill-rule:evenodd;stroke-width:8.0751;fill:url(#d)" transform="matrix(.42234 0 0 .48526 88.4 8.4)"/><path d="M588.5 573.5c19.9 10.3-15.1 118-32.8 112.2s-53-17.3-49.3-28.8 37.5-108 82-83.4" style="fill-rule:evenodd;stroke-width:8.0751;fill:url(#d)" transform="matrix(.42234 0 0 .48526 88.4 8.4)"/><path d="M315.4 327.2c25.2 1.4 26.6 78.8-16.5 77.5s-28.7 3.7-62.4-5.8c22.7 1.4 47.7-.7 56.2-9.6-10.5-7-12.2-12.5-9.8-27.6 2.4-22.1 15.8-38.7 32.5-34.5" style="fill-rule:evenodd;stroke-width:7.6456;fill:url(#n)" transform="matrix(.99416 0 0 1 -3.2 7.8)"/><path d="M309.5 327.2c-17.4 29-59.9 44.1-65.9 86.2 6.6-14.5 33-57.2 44.3-37.2 7.8-4.9 12.6-33.2 21.5-49" style="fill-rule:evenodd;stroke-width:6.775;fill:url(#o)" transform="matrix(.99416 0 0 1 -3.2 7.8)"/><path d="M151 218.4c9.7 9.3-31.8 62-41.1 55.7-9.3-6.4-19-13.5-14.6-19.1s44-49.1 55.7-36.6" style="fill-rule:evenodd;stroke-width:6.25;fill:url(#p)" transform="matrix(.99416 0 0 1 -3.2 7.8)"/><path d="M68.7 279.3c23-38.5 64.6-14.3 46 26s.8 29.1-25.4 61.1c11.3-23.8 12-39.8 10.8-52 1.5-.8-6.7 2.4-18.4 1.3-18-5.2-23.4-21.2-13-36.4" style="fill-rule:evenodd;stroke-width:8.0751;fill:url(#q)" transform="matrix(.99416 0 0 1 -3.2 7.8)"/><path d="M338.2 61.4c-10-1.4-14.2-20.9-6-26.6 4.6-.4 8 .2 8.6 3s13.2 19.7-2.6 23.6" style="fill-rule:evenodd;stroke-width:8.0751;fill:url(#d)" transform="matrix(.99416 0 0 1 -3.2 7.8)"/><path d="M335.6 38.3c-5 8.2-29.3 4-33.3-5.7 1.2-4.2 3-7 6.5-6.3 3.4.7 27.7-3.6 26.8 12" style="fill-rule:evenodd;stroke-width:8.0751;fill:url(#d)" transform="matrix(.99416 0 0 1 -3.2 7.8)"/><path d="M309.2 39.4c11.8 15.8-12.5 51-37.5 37-7.3-7-11.9-15.6-21.5-34.7C266.3 61 263.6 62.1 272.7 66s-5.3-18.2 6-27.6c11.2-9.4 24.1-11 30.5 1" style="fill-rule:evenodd;stroke-width:8.0751;fill:url(#d)" transform="matrix(.99416 0 0 1 -3.2 7.8)"/><path d="M510.8 510.1c9.3 9.5 82.9-47.8 84.3-52.5s-.7-17.5-9.3-21.5-80 65.3-75 74" style="fill-rule:evenodd;stroke-width:8.0751;fill:url(#d)" transform="matrix(.42234 0 0 .48526 88.4 8.4)"/><path d="M599 430.3c-29.6 14.6 27 87.3 31.2 90 4.3 2.9 12.1 7.1 19 .8 6.8-6.4-39.8-92.5-50.2-90.8" style="fill-rule:evenodd;stroke-width:8.0751;fill:url(#d)" transform="matrix(.42234 0 0 .48526 88.4 8.4)"/><path d="M255.8 230.2c7.1 10.8-10.2 24-20.7 14.5-3.5-6.4-2.2-11.4 1.6-17.3 7.3-4.4 13-2.4 19 2.8" style="fill-rule:evenodd;stroke-width:1pt;fill:#fff;fill-opacity:.13966" transform="matrix(.99416 0 0 1 -3.2 7.8)"/><path d="M83.8 278.4C70 302 31.1 321 29.2 351.5c5-11.4 14.2-30.7 38.6-34.8 7-1.2 9-25.5 16-38.3" style="fill-rule:evenodd;stroke-width:8.0751;fill:url(#r)" transform="matrix(.99416 0 0 1 -3.2 7.8)"/></svg>