<svg xmlns="http://www.w3.org/2000/svg" xmlns:xlink="http://www.w3.org/1999/xlink" viewBox="0 0 591.7 617.5"><defs><path id="a" d="M601 600.6c10 5.5 23.1 14.6 29 24.5 5.3 6.5 2 18-6.1 20.6-3 .6-6-2.6-5-5.5-.2-2.6-2.6-4.5-5-4.9-3.6-2.8-4.4-8.2-8.6-10.4-3.8-3.3-7-9.4-11.2-12-1.6-2.9-1.3-2.9.7-5.1 2.2-3.4 2-8.1 6.3-7.2"/><path id="b" d="M606 610c3 7 13 13.5 11.8 20.7-7.7 6-13.6-4.5-15.8-10.3-5-2-17.6-5.1-9.4-12 4.3-5.8 13.6-9.4 13.5 1.5"/><path id="c" d="M381.8 882.7c15-6.8 31.9 3.2 47-2.5 7-5.6 3-20.5-7-18.4-8.3-3.8-17.8.2-26-3.5-9-3.5-4-13.4-1-19.5q7.4-15 17-28.7c1.5-7.3-11.8-5-15.3-10.9-10-3.6-20.6-5.8-31-8.2-7.3-2.6-16.6-2.7-16 7.6-4.3 21.3-13.4 42.6-10.4 64.8 2.3 11 14.5 13.2 23 17.5 6.2 2.8 13.3 4.7 19.7 1.8"/><path id="d" d="M392 610c14.1 7.1 83.1 18.8 86.8 26.2 2 4-1.2 8.3-3 10-14.8 14.9-2.7 54.2-4.4 63.9-3.4 19.8.1 53.6-9.8 63.5-3 3-22.5 18-25.5 22-16.6 22.2-42.7 70.7-68.4 19.4-9.9-19.7 36.2-15.6 35.4-77.8-.1-3.8.6-8.8-1-12.1-3.2-6.3-16.2-82.4-16.2-86.9 0-3.6-4.6-14.6-2-17.2 2.2-2.2 4.9-7.1 8-11"/><path id="e" d="M535.7 417q-.1 1.7-1.4 1.8-1.3-.1-1.4-1.8.1-1.7 1.4-1.8 1.3.1 1.4 1.8"/><path id="f" d="M533.3 446.3q-3.2.3-5.9 2c.3 1 1.4 1 2 1.8 2 2 2.1 6.5 5.3 6.3 3.2.6 3.1-.7 4.7-1.1q1.7-.6 3.3-1.7c.8-1 .4-3.4-.2-4.5-1.3-2.3-2.7 0-4.4-1.4-.9 0-.5-3-3.7-1.8zm.2 2.4c2.4-.2 5 .3 6.7 2 .6.7.1 1.9-.7 2q-3.2 1.7-5.6-.5-.7-1.6-1.9-2.8c.2-.7 1-.4 1.5-.7"/><path id="g" d="M450.5 765.5c-5.3 15.3-28.3 24-41.4 36.3-20.2 19.8-54.7 38.4-31.3 34.4 4-.7 13 1 15.2-1 5-5 20.8-26 26.2-31.3 3.5-3.5 39-29.4 31.3-38.4"/></defs><g style="opacity:.90708;fill:#393939"><path d="M303.2 586.7c-5.1 0-10.2 2.7-13.1 6.9a8 8 0 0 0-3 9c2.6.3 3 4.7.4 5.4-3.8 1.3-3.6 7.9.4 8.8 2.1.5 2.7-5.4 4.4-2.8-.4 2.5-3.8 3.3-3.7 6 3.7 14.6 9 1.8 11.5-.6a9 9 0 0 1 7.9-2c2.8.1 5.1-2 6.5-4.3 2-2 5.5-2 6.7-4.7.9-2.7-1.3-5-3.6-6a16 16 0 0 1-5.2-7.3 20 20 0 0 0-9.2-8.4M505 413c1.5-3.5-3-29.8-9.3-23.5-2.7 2.7-.1 53.8 4.7 49.3 1.3-1.3.9-5.5 4.6-9.3 3.4-3.4-3.7-12.7 0-16.4" style="fill:#393939" transform="matrix(-.81558 .14886 .23959 .37509 394.8 190)"/><path d="M503.3 423.7c4.8 16.2-27.6 26-27.6 28 0 1.8 34.6 50.4 44.3 40.7 4.4-4.5 0-14.2 0-20.8 0-8 11-7.4 14.3-10.7 1.2-1.1-7.9 0-12.9-5-7.8-7.8-8.6-24.6-18.1-32.2m48.8 26.3c9.6-7.2 8.9 18.5 16.5 11 3-3.2.8-15.2 2.8-17.2 1-1 9 .3 10-.7 1.7-1.6 0-6.4.7-8.6.8-2.2 4.8-6.2 5.8-7.1 1.5-1.6-1.3-9 0-11.5 1.6-3.3 5.8-5 7.8-7.1a70 70 0 0 0 2.2-21.4c-1.8-3.4-7-7-10-8.6s-2.8-12-5.8-15c-1.8-1.9-6.3.1-7.8-1.4-8.6-8.7-10.7-1.5-21.4-5-8-2.7-16-5.5-21.5-3.6-7.4 2.5-23.4-.2-35 19.3s-2 17.1 2.2 21.4c3.6 3.6 4.5 23.8 5 24.3 2.7 2.7 22.8-27.5 26.4-29.3 8-4 30.4-4.6 37.1 2.1 13.3 13.3 2 23.3-5 37.2-3.1 6.3-5 13.8-10 21.2" style="fill:#393939" transform="matrix(-.81558 .14886 .23959 .37509 394.8 190)"/><path d="M576.4 392.4c-1-14.7-12.8-29.3-28.5-29.3-9 0-25-5.7-30.8 0-10.3 10.3-4 27.5-18.5 37.1-8 5.3-1.1 18.2 2.1 21.4 6 6 4.9 18.8 8.9 27 3 6.1 9 11.7 14 16.6 2.1 2.1 7.9.2 12.3-1.8 20.2-9 22.4-25.5 26.4-34 3.5-7.4 16.2-28.8 14.1-37M410.7 481c-26 16-43.3 43-70.4 57.6-10.9 16.8-30.8 31.2-39 46 4.7 21 17.4 42.3 35.5 0 19.2-23 45.3-39 69.3-56.4 20.2-2.9 35.8-25.3 13-38.6q-4.4-4.1-8.4-8.7" style="fill:#393939" transform="matrix(-.81558 .14886 .23959 .37509 394.8 190)"/><g style="fill:#393939" transform="matrix(-.71896 .13122 .2112 .33065 354.9 227.1)"><use xlink:href="#a" style="fill:#393939"/><use xlink:href="#b" style="fill:#393939"/></g><path d="M516.4 543c9.4 3.2 14.5-24.4 22.5 1.7a991 991 0 0 1 64.2 55.1c-14 12.2-1.6 17.3-42.9-3.2-17.7-11.8-10.4-11.7-52-39-3.5-8.6 1.8-8.9 8.2-14.5M405 743.3c-9.1 14.2-14.7 31.7-29.3 41.7-13.4.9-10.3 23.1 3.2 20 13.6-3.4 16.3-20 27.2-27.3 13.6-7.9 12.5-24.8 7.3-37.5-4.7-11.4 17-26.1 7.3-35.7-14.8-7.5-6.5 3-12.2 18 3 5.4-1.8 14.6-3.4 20.8m129.7-295c-.4.7-.4 1.8-.5 2.2q-.4 1.1 2 1s1.6-3.7 1.6-2.5zM390.7 932.4c-7.8 3-6.7 9.6-11.4 14.2-3.7 3.7-20.1 5-22.9 2.2-1.7-1.7 1.2-7.7 0-10-.5-1-8.4-10.2-7.8-10.7 1-1.1 40.6 4 45.7 5" style="fill:#393939" transform="matrix(-.81558 .14886 .23959 .37509 394.8 190)"/><path d="M329.3 903.9c-57.7 27.5 91.3 31.9 94 29.3 7-7-3.4-31.7-6.1-34.4-4.5-4.5-13.7-1.6-18.2-6-4.8-4.8 48-14.7 33.3-29.3-3-3-10-2-13-5-2.6-2.6 11-6.7-6.1-9.2-2.8-.4-36.6 4-48.5 4-3.1 0-17.4-2.5-18.2 0-6.6 19.9-4.7 35-17.2 50.6" style="fill:#393939" transform="matrix(-.81558 .14886 .23959 .37509 394.8 190)"/><use xlink:href="#c" style="fill:#393939" transform="matrix(-.81558 .14886 .23959 .37509 394.8 190)"/><use xlink:href="#d" style="fill:#393939" transform="matrix(-.81558 .14886 .23959 .37509 394.8 190)"/><path d="M476.4 447.4c-11.8 5.5-23.5 11.4-36.8 10-12.4 4.3-21.7 14.4-30.3 24a60 60 0 0 1 22.4 28c-7.6 12.6-10.5 27.5-14.8 41.7a89 89 0 0 1-19.9 37.3 76 76 0 0 0-15.7 32.7c13.3 4.2 31.3 1.3 46.3 3.7 22.6 2.6 39.5 13.8 39.4 39.6 16-9.7 14.6-32 18.7-42 4.4-14.8 7.3-15.6 9.9-30.7 4.9-10.9 5.7-11.5 10-22.3 4-6.6 1-5 1.7-14 7.4 10.6 42-13.6 26.8-30.1 0-13.6 7.3-29.4-.8-41.5-6.5-3.5-11.4-15.7-15.2-9 8 12.9-8 22.7-14.4 9.4-9-12.3-19-24-27.3-36.8m-98.3 499c23.8 9.3-12.1 28.8-12.1 5.7 0-4.2 10.8-.6 12.1-5.7" style="fill:#393939" transform="matrix(-.81558 .14886 .23959 .37509 394.8 190)"/><path d="M359.4 951.4c-.2 2.4-1.3 15-2.9 15-4 0 13 7.1 17.1 2.9 2-1.9-2.6-5.5-1.4-7.9 1-1.9 6-6.2 3.6-8.5-2.2-2.2-13.1-.8-16.4-1.5m188.6-534c-12.3-9.5-14.1-6.7-21-8.4 7.8 1 20.6 1.6 21 8.4m6 1.8c7.5 1.3 10.7-1.1 10.7.1 0 1.1-6.7 2.5-10.8-.2m-15.9-2.5c-23.3-7.2 2.3 11.3 0 0m15.5 7.4c11.5-1.4 5.1 10.3 0 0" style="fill:#393939" transform="matrix(-.81558 .14886 .23959 .37509 394.8 190)"/><use xlink:href="#e" style="fill:#393939" transform="matrix(-1.01947 .18607 .21563 .33758 497 192.6)"/><path d="M551.4 418.8c-8.4 5.5-2.7 21.8-8.2 20-2.8-1-2.8-.7-7.8-.7m1.9 11c-.4.7-.4 1.8-.5 2.1q-.4 1.2 2 1s1.6-3.6 1.6-2.5z" style="fill:#393939" transform="matrix(-.81558 .14886 .23959 .37509 394.8 190)"/><use xlink:href="#f" style="block-progression:tb;text-indent:0;color:#000;text-transform:none;fill:#393939" transform="matrix(-.81558 .14886 .23959 .37509 394.8 190)"/><use xlink:href="#g" style="fill:#393939" transform="matrix(-.81558 .14886 .23959 .37509 394.8 190)"/><path d="M365.8 794c14.8 11.6 18.6 25.4 36.8 32.4 10.9 2.6 9.9 13 .3 12.8-9.6 7-12.5 19.2-17 29.6-4.4 8.2-3.8 19.3 5.7 23.6 9.8 5 21.2 7.1 30.6 13 7.5 6.9 1.8 20-8 20-18 2.1-34.1-7.4-49.7-14.8-9.9-5.6-26.5-9.3-40-14.4-4.5-14.9 6.6-28 10.5-41.5 4.1-15.7 23.7-25.9 21.5-43 1.4-5 3.1-10 9.2-17.7m136-363.5c4.7-5.7 17.4-23.5 18.5-30.7 4.7-1.3 8.3-4.9 11.5-8.4 1.2-4.7 8.1-5.4 12.5-3.3 6.6.9 12.3.5 17.4 5 4.5 1.8 9.7 3.1 12.9 7.2a15 15 0 0 1-5 14.6c4.8.2 7.8-4.4 10-8.2 6.3-8.8 6-22.3-2.2-29.8-9.2-10.4-23-17-37-16.6-17.8-3.7-25.2 1.4-35.7 16.5-5.4 4.4-6.4 11.4-5.3 18.8 1.3 5.9 1.8 26.8 2.4 35M397 628.1c5.7 14.3 3 47.3 7 64.7 7.6 32.3 11.2 43.3 11.2 60.6 0 6.8 35 3.9 14.1-19.2-22.1-24.7-31.5-99.8-32.3-106.1" style="fill:#393939" transform="matrix(-.81558 .14886 .23959 .37509 394.8 190)"/><use xlink:href="#e" style="fill:#393939" transform="matrix(-1.7331 .31633 .26355 .4126 875.9 85)"/></g><path d="M303.2 586.7c-5.1 0-10.2 2.7-13.1 6.9a8 8 0 0 0-3 9c2.6.3 3 4.7.4 5.4-3.8 1.3-3.6 7.9.4 8.8 2.1.5 2.7-5.4 4.4-2.8-.4 2.5-3.8 3.3-3.7 6 3.7 14.6 9 1.8 11.5-.6a9 9 0 0 1 7.9-2c2.8.1 5.1-2 6.5-4.3 2-2 5.5-2 6.7-4.7.9-2.7-1.3-5-3.6-6a16 16 0 0 1-5.2-7.3 20 20 0 0 0-9.2-8.4" style="fill:#f4e3d7" transform="translate(-35.8 -353.2)"/><path d="M505 413c1.5-3.5-3-29.8-9.3-23.5-2.7 2.7-.1 53.8 4.7 49.3 1.3-1.3.9-5.5 4.6-9.3 3.4-3.4-3.7-12.7 0-16.4" style="fill:#a40" transform="translate(-35.8 -353.2)"/><path d="M503.3 423.7c4.8 16.2-27.6 26-27.6 28 0 1.8 34.6 50.4 44.3 40.7 4.4-4.5 0-14.2 0-20.8 0-8 11-7.4 14.3-10.7 1.2-1.1-7.9 0-12.9-5-7.8-7.8-8.6-24.6-18.1-32.2" style="fill:#f2dacb" transform="translate(-35.8 -353.2)"/><path d="M552.1 450c9.6-7.2 8.9 18.5 16.5 11 3-3.2.8-15.2 2.8-17.2 1-1 9 .3 10-.7 1.7-1.6 0-6.4.7-8.6.8-2.2 4.8-6.2 5.8-7.1 1.5-1.6-1.3-9 0-11.5 1.6-3.3 5.8-5 7.8-7.1a70 70 0 0 0 2.2-21.4c-1.8-3.4-7-7-10-8.6s-2.8-12-5.8-15c-1.8-1.9-6.3.1-7.8-1.4-8.6-8.7-10.7-1.5-21.4-5-8-2.7-16-5.5-21.5-3.6-7.4 2.5-23.4-.2-35 19.3s-2 17.1 2.2 21.4c3.6 3.6 4.5 23.8 5 24.3 2.7 2.7 22.8-27.5 26.4-29.3 8-4 30.4-4.6 37.1 2.1 13.3 13.3 2 23.3-5 37.2-3.1 6.3-5 13.8-10 21.2" style="fill:#a40" transform="translate(-35.8 -353.2)"/><path d="M576.4 392.4c-1-14.7-12.8-29.3-28.5-29.3-9 0-25-5.7-30.8 0-10.3 10.3-4 27.5-18.5 37.1-8 5.3-1.1 18.2 2.1 21.4 6 6 4.9 18.8 8.9 27 3 6.1 9 11.7 14 16.6 2.1 2.1 7.9.2 12.3-1.8 20.2-9 22.4-25.5 26.4-34 3.5-7.4 16.2-28.8 14.1-37" style="fill:#f4e3d7" transform="translate(-35.8 -353.2)"/><path d="M410.7 481c-26 16-43.3 43-70.4 57.6-10.9 16.8-30.8 31.2-39 46 4.7 21 17.4 42.3 35.5 0 19.2-23 45.3-39 69.3-56.4 20.2-2.9 35.8-25.3 13-38.6q-4.4-4.1-8.4-8.7" style="fill:#bcd35f" transform="translate(-35.8 -353.2)"/><use xlink:href="#a" style="fill:#f4e3d7" transform="translate(34 -281.9)scale(.88153)"/><use xlink:href="#b" style="fill:#f4e3d7" transform="translate(34 -281.9)scale(.88153)"/><path d="M516.4 543c9.4 3.2 14.5-24.4 22.5 1.7a991 991 0 0 1 64.2 55.1c-14 12.2-1.6 17.3-42.9-3.2-17.7-11.8-10.4-11.7-52-39-3.5-8.6 1.8-8.9 8.2-14.5" style="fill:#bcd35f" transform="translate(-35.8 -353.2)"/><path d="M405 743.3c-9.1 14.2-14.7 31.7-29.3 41.7-13.4.9-10.3 23.1 3.2 20 13.6-3.4 16.3-20 27.2-27.3 13.6-7.9 12.5-24.8 7.3-37.5-4.7-11.4 17-26.1 7.3-35.7-14.8-7.5-6.5 3-12.2 18 3 5.4-1.8 14.6-3.4 20.8" style="fill:#483737" transform="translate(-35.8 -353.2)"/><path d="M534.8 448.3c-.4.7-.4 1.8-.5 2.2q-.4 1.1 2 1s1.6-3.7 1.6-2.5z" style="fill:#fff" transform="translate(-35.8 -353.2)"/><path d="M390.7 932.4c-7.8 3-6.7 9.6-11.4 14.2-3.7 3.7-20.1 5-22.9 2.2-1.7-1.7 1.2-7.7 0-10-.5-1-8.4-10.2-7.8-10.7 1-1.1 40.6 4 45.7 5" style="stroke:#000;stroke-width:1px;fill:#22280b" transform="translate(-35.8 -353.2)"/><path d="M329.3 903.9c-57.7 27.5 91.3 31.9 94 29.3 7-7-3.4-31.7-6.1-34.4-4.5-4.5-13.7-1.6-18.2-6-4.8-4.8 48-14.7 33.3-29.3-3-3-10-2-13-5-2.6-2.6 11-6.7-6.1-9.2-2.8-.4-36.6 4-48.5 4-3.1 0-17.4-2.5-18.2 0-6.6 19.9-4.7 35-17.2 50.6z" style="stroke:#bb4b00;stroke-width:4;fill:#fc0" transform="translate(-35.8 -353.2)"/><use xlink:href="#c" style="fill:#162d50" transform="translate(-35.8 -353.2)"/><use xlink:href="#d" style="fill:#6c5d53" transform="translate(-35.8 -353.2)"/><path d="M476.4 447.4c-11.8 5.5-23.5 11.4-36.8 10-12.4 4.3-21.7 14.4-30.3 24a60 60 0 0 1 22.4 28c-7.6 12.6-10.5 27.5-14.8 41.7a89 89 0 0 1-19.9 37.3 76 76 0 0 0-15.7 32.7c13.3 4.2 31.3 1.3 46.3 3.7 22.6 2.6 39.5 13.8 39.4 39.6 16-9.7 14.6-32 18.7-42 4.4-14.8 7.3-15.6 9.9-30.7 4.9-10.9 5.7-11.5 10-22.3 4-6.6 1-5 1.7-14 7.4 10.6 42-13.6 26.8-30.1 0-13.6 7.3-29.4-.8-41.5-6.5-3.5-11.4-15.7-15.2-9 8 12.9-8 22.7-14.4 9.4-9-12.3-19-24-27.3-36.8" style="fill:#241f1c" transform="translate(-35.8 -353.2)"/><path d="M378.1 946.4c23.8 9.3-12.1 28.8-12.1 5.7 0-4.2 10.8-.6 12.1-5.7" style="fill:#8a916f" transform="translate(-35.8 -353.2)"/><path d="M359.4 951.4c-.2 2.4-1.3 15-2.9 15-4 0 13 7.1 17.1 2.9 2-1.9-2.6-5.5-1.4-7.9 1-1.9 6-6.2 3.6-8.5-2.2-2.2-13.1-.8-16.4-1.5" style="fill:#c4c8b7" transform="translate(-35.8 -353.2)"/><path d="M548 417.4c-12.3-9.5-14.1-6.7-21-8.4 7.8 1 20.6 1.6 21 8.4zm6 1.8c7.5 1.3 10.7-1.1 10.7.1 0 1.1-6.7 2.5-10.8-.2z" style="stroke:#000;stroke-width:1px;fill:#241c1c" transform="translate(-35.8 -353.2)"/><path d="M538 416.6c-23.3-7.2 2.3 11.3 0 0z" style="stroke:#000;stroke-width:.93944px;fill:#ebe5e5" transform="translate(-35.8 -353.2)"/><path d="M553.5 424c11.5-1.4 5.1 10.3 0 0z" style="stroke:#000;stroke-width:1.3425px;fill:#f3f0f0" transform="translate(-35.8 -353.2)"/><use xlink:href="#e" style="fill:#5c4747" transform="matrix(1.25 0 0 .9 -146.2 -302.4)"/><path d="M551.4 418.8c-8.4 5.5-2.7 21.8-8.2 20-2.8-1-2.8-.7-7.8-.7" style="stroke:#000;stroke-width:1px;fill:none" transform="translate(-35.8 -353.2)"/><path d="M537.3 449.1c-.4.7-.4 1.8-.5 2.1q-.4 1.2 2 1s1.6-3.6 1.6-2.5z" style="fill:#fff" transform="translate(-35.8 -353.2)"/><use xlink:href="#f" style="block-progression:tb;text-indent:0;color:#000;text-transform:none;fill:red" transform="translate(-35.8 -353.2)"/><use xlink:href="#g" style="fill:#7f6757" transform="translate(-35.8 -353.2)"/><path d="M365.8 794c14.8 11.6 18.6 25.4 36.8 32.4 10.9 2.6 9.9 13 .3 12.8-9.6 7-12.5 19.2-17 29.6-4.4 8.2-3.8 19.3 5.7 23.6 9.8 5 21.2 7.1 30.6 13 7.5 6.9 1.8 20-8 20-18 2.1-34.1-7.4-49.7-14.8-9.9-5.6-26.5-9.3-40-14.4-4.5-14.9 6.6-28 10.5-41.5 4.1-15.7 23.7-25.9 21.5-43 1.4-5 3.1-10 9.2-17.7" style="fill:#025" transform="translate(-35.8 -353.2)"/><path d="M501.7 430.5c4.7-5.7 17.4-23.5 18.5-30.7 4.7-1.3 8.3-4.9 11.5-8.4 1.2-4.7 8.1-5.4 12.5-3.3 6.6.9 12.3.5 17.4 5 4.5 1.8 9.7 3.1 12.9 7.2a15 15 0 0 1-5 14.6c4.8.2 7.8-4.4 10-8.2 6.3-8.8 6-22.3-2.2-29.8-9.2-10.4-23-17-37-16.6-17.8-3.7-25.2 1.4-35.7 16.5-5.4 4.4-6.4 11.4-5.3 18.8 1.3 5.9 1.8 26.8 2.4 35" style="fill:#c34d00" transform="translate(-35.8 -353.2)"/><path d="M397 628.1c5.7 14.3 3 47.3 7 64.7 7.6 32.3 11.2 43.3 11.2 60.6 0 6.8 35 3.9 14.1-19.2-22.1-24.7-31.5-99.8-32.3-106.1" style="fill:#614f42" transform="translate(-35.8 -353.2)"/><use xlink:href="#e" style="fill:#5c4747" transform="matrix(2.125 0 0 1.1 -637.8 -394.4)"/></svg>